<svg width="2005" height="797" viewBox="0 0 2005 797" fill="none" xmlns="http://www.w3.org/2000/svg">
<rect width="2005" height="797" fill="white"/>
<text fill="black" xml:space="preserve" style="white-space: pre" font-family="Arial" font-size="18" letter-spacing="0em"><tspan x="569.425" y="187.74">Read into R</tspan></text>
<text fill="#266141" xml:space="preserve" style="white-space: pre" font-family="Arial" font-size="18" letter-spacing="0em"><tspan x="653.39" y="272.74">SingleCellExperiment(SCE)</tspan></text>
<text fill="black" xml:space="preserve" style="white-space: pre" font-family="Arial" font-size="18" letter-spacing="0em"><tspan x="874.61" y="272.74"> </tspan><tspan x="739.962" y="293.74">object</tspan></text>
<path d="M795.396 204.357H792.974V181.052C792.965 180.718 792.824 180.401 792.581 180.171L774.036 161.975C773.801 161.747 773.487 161.618 773.16 161.617H741.346C737.339 161.617 734.033 165.015 734.033 169.18V204.357H731.61C730.928 204.357 730.329 204.833 730.329 205.514V226.345C730.329 227.026 730.928 227.502 731.61 227.502H734.033V231.819C734.033 235.985 737.339 239.383 741.346 239.383H785.66C789.667 239.383 792.973 235.985 792.973 231.819V227.502H795.396C796.077 227.502 796.676 227.026 796.676 226.345V205.514C796.676 204.833 796.078 204.357 795.396 204.357L795.396 204.357ZM774.304 165.762L788.746 179.824H777.143C776.38 179.814 775.652 179.502 775.12 178.955C774.587 178.409 774.294 177.673 774.304 176.91L774.304 165.762ZM736.501 169.18C736.501 166.376 738.7 164.086 741.346 164.086H771.835V176.91C771.825 178.327 772.379 179.691 773.374 180.7C774.369 181.71 775.725 182.283 777.143 182.293H790.505V204.357H736.501L736.501 169.18ZM790.505 231.819C790.505 234.624 788.306 236.914 785.66 236.914H741.346C738.7 236.914 736.501 234.624 736.501 231.819V227.502H790.505L790.505 231.819ZM794.208 225.033H732.798V206.826H794.208V225.033Z" fill="black"/>
<text fill="black" xml:space="preserve" style="white-space: pre" font-family="Oxygen Mono" font-size="16" letter-spacing="0em"><tspan x="749.65" y="221.889">OBJ</tspan></text>
<path d="M754.066 170.868V167.552C753.537 167.615 753.012 167.695 752.497 167.799V170.219L739.623 183.092H737.204C737.099 183.607 737.019 184.131 736.956 184.66H740.273L754.066 170.868Z" fill="black"/>
<path d="M749.564 199.659L747.717 204.585C748.185 204.817 748.664 205.03 749.152 205.225L750.724 201.035L766.244 197.874L770.525 201.005C770.592 200.93 771.295 199.635 771.295 199.635L766.337 196.217L749.564 199.659Z" fill="black"/>
<path d="M769.704 181.19L773.999 178.327C773.782 177.889 773.549 177.461 773.301 177.042L773.239 176.948L768.231 180.286L766.566 194.44L772.287 198.526C772.594 198.104 772.887 197.671 773.161 197.223L768.232 193.703L769.704 181.19Z" fill="black"/>
<path d="M772.456 175.95L772.104 175.248C771.944 175.034 771.779 174.825 771.61 174.618L767.434 176.707L756.419 170.099V167.405C755.89 167.405 755.368 167.433 754.85 167.473V170.987L767.365 178.495L772.456 175.95Z" fill="black"/>
<path d="M751.713 181.523C748.685 181.523 746.222 183.987 746.222 187.013C746.222 190.04 748.685 192.504 751.713 192.504C754.74 192.504 757.203 190.04 757.203 187.013C757.203 183.987 754.74 181.523 751.713 181.523ZM751.713 190.935C749.55 190.935 747.791 189.176 747.791 187.013C747.791 184.851 749.55 183.092 751.713 183.092C753.875 183.092 755.634 184.851 755.634 187.013C755.634 189.176 753.875 190.935 751.713 190.935Z" fill="black"/>
<path d="M759.164 182.308C760.677 182.308 761.909 181.076 761.909 179.563C761.909 178.049 760.677 176.817 759.164 176.817C757.65 176.817 756.419 178.049 756.419 179.563C756.419 181.076 757.65 182.308 759.164 182.308ZM759.164 178.386C759.813 178.386 760.34 178.914 760.34 179.563C760.34 180.212 759.813 180.739 759.164 180.739C758.515 180.739 757.987 180.211 757.987 179.563C757.987 178.914 758.515 178.386 759.164 178.386Z" fill="black"/>
<path d="M763.728 188.541L763.478 187.797L763.23 187.053C763.125 187.087 760.659 187.93 759.901 189.981C759.477 191.126 759.663 192.374 760.452 193.691L761.797 192.883C761.266 191.998 761.122 191.206 761.369 190.53C761.862 189.188 763.709 188.547 763.728 188.541Z" fill="black"/>
<path d="M775.243 188.582C775.243 189.448 774.541 190.151 773.675 190.151C772.808 190.151 772.106 189.448 772.106 188.582C772.106 187.716 772.808 187.013 773.675 187.013C774.541 187.013 775.243 187.716 775.243 188.582Z" fill="black"/>
<path d="M760.34 201.916C758.178 201.916 756.419 203.675 756.419 205.837C756.419 206.105 756.446 206.366 756.498 206.619C757.04 206.617 757.576 206.589 758.108 206.544C758.036 206.319 757.987 206.085 757.987 205.837C757.987 204.54 759.043 203.484 760.34 203.484C761.556 203.484 762.547 204.414 762.669 205.598C763.18 205.426 763.683 205.237 764.175 205.025C763.799 203.251 762.224 201.916 760.34 201.916Z" fill="black"/>
<path d="M738.771 194.072C738.559 194.072 738.358 194.115 738.167 194.177C738.641 195.385 739.232 196.534 739.925 197.612C740.412 197.255 740.732 196.683 740.732 196.033C740.732 194.95 739.855 194.072 738.771 194.072L738.771 194.072Z" fill="black"/>
<path d="M744.491 171.949L745.601 173.058L741.287 177.372L740.178 176.262L744.491 171.949Z" fill="black"/>
<path d="M740.397 185.445H736.879C736.838 185.963 736.811 186.485 736.811 187.013H739.5L746.925 199.638L745.541 203.328C745.983 203.623 746.439 203.899 746.905 204.159L748.657 199.487L740.397 185.445Z" fill="black"/>
<rect x="984" y="421" width="454" height="165" stroke="#266141" stroke-width="2"/>
<rect x="1598" y="421" width="294" height="165" stroke="#266141" stroke-width="2"/>
<text fill="#266141" xml:space="preserve" style="white-space: pre" font-family="Arial" font-size="20" font-weight="bold" letter-spacing="0em"><tspan x="1507.19" y="510.434">Reports</tspan></text>
<text fill="#266141" xml:space="preserve" style="white-space: pre" font-family="Arial" font-size="18" letter-spacing="0em"><tspan x="1014.45" y="560.74">SCE</tspan></text>
<text fill="black" xml:space="preserve" style="white-space: pre" font-family="Arial" font-size="18" letter-spacing="0em"><tspan x="1022.94" y="539.74">Unfiltered </tspan><tspan x="1051.47" y="560.74"> Object</tspan></text>
<path d="M1088.55 482.771H1086.5V463.006C1086.49 462.723 1086.37 462.454 1086.16 462.259L1070.44 446.827C1070.24 446.633 1069.97 446.524 1069.69 446.523H1042.71C1039.31 446.523 1036.51 449.405 1036.51 452.938V482.771H1034.45C1033.88 482.771 1033.37 483.175 1033.37 483.753V501.419C1033.37 501.997 1033.88 502.4 1034.45 502.4H1036.51V506.062C1036.51 509.595 1039.31 512.477 1042.71 512.477H1080.29C1083.69 512.477 1086.5 509.595 1086.5 506.062V502.4H1088.55C1089.13 502.4 1089.64 501.997 1089.64 501.419V483.753C1089.64 483.175 1089.13 482.771 1088.55 482.771L1088.55 482.771ZM1070.66 450.039L1082.91 461.964H1073.07C1072.42 461.956 1071.81 461.691 1071.35 461.228C1070.9 460.765 1070.65 460.14 1070.66 459.493L1070.66 450.039ZM1038.6 452.938C1038.6 450.559 1040.47 448.617 1042.71 448.617H1068.57V459.493C1068.56 460.696 1069.03 461.852 1069.87 462.708C1070.72 463.564 1071.87 464.05 1073.07 464.058H1084.4V482.772H1038.6L1038.6 452.938ZM1084.4 506.062C1084.4 508.44 1082.54 510.383 1080.29 510.383H1042.71C1040.47 510.383 1038.6 508.44 1038.6 506.062V502.4H1084.4L1084.4 506.062ZM1087.54 500.307H1035.46V484.866H1087.54V500.307Z" fill="black"/>
<text fill="black" xml:space="preserve" style="white-space: pre" font-family="Oxygen Mono" font-size="16" letter-spacing="0em"><tspan x="1047.59" y="498.746">RDS</tspan></text>
<path d="M1053.5 454.369V451.556C1053.05 451.61 1052.61 451.678 1052.17 451.766V453.818L1041.25 464.736H1039.2C1039.11 465.173 1039.04 465.618 1038.99 466.066H1041.8L1053.5 454.369Z" fill="black"/>
<path d="M1049.68 478.787L1048.11 482.964C1048.51 483.162 1048.92 483.342 1049.33 483.507L1050.66 479.954L1063.83 477.273L1067.46 479.928C1067.51 479.865 1068.11 478.767 1068.11 478.767L1063.91 475.868L1049.68 478.787Z" fill="black"/>
<path d="M1066.76 463.123L1070.4 460.695C1070.22 460.324 1070.02 459.96 1069.81 459.605L1069.76 459.526L1065.51 462.357L1064.1 474.36L1068.95 477.826C1069.21 477.468 1069.46 477.1 1069.69 476.721L1065.51 473.735L1066.76 463.123Z" fill="black"/>
<path d="M1069.1 458.679L1068.8 458.083C1068.66 457.902 1068.52 457.725 1068.38 457.55L1064.84 459.321L1055.49 453.716V451.432C1055.05 451.432 1054.6 451.455 1054.16 451.49V454.47L1064.78 460.838L1069.1 458.679Z" fill="black"/>
<path d="M1051.5 463.406C1048.94 463.406 1046.85 465.495 1046.85 468.062C1046.85 470.629 1048.94 472.718 1051.5 472.718C1054.07 472.718 1056.16 470.629 1056.16 468.062C1056.16 465.495 1054.07 463.406 1051.5 463.406ZM1051.5 471.388C1049.67 471.388 1048.18 469.896 1048.18 468.062C1048.18 466.228 1049.67 464.736 1051.5 464.736C1053.34 464.736 1054.83 466.228 1054.83 468.062C1054.83 469.896 1053.34 471.388 1051.5 471.388Z" fill="black"/>
<path d="M1057.82 464.071C1059.11 464.071 1060.15 463.026 1060.15 461.743C1060.15 460.459 1059.11 459.415 1057.82 459.415C1056.54 459.415 1055.49 460.459 1055.49 461.743C1055.49 463.026 1056.54 464.071 1057.82 464.071ZM1057.82 460.745C1058.37 460.745 1058.82 461.192 1058.82 461.743C1058.82 462.293 1058.37 462.741 1057.82 462.741C1057.27 462.741 1056.82 462.293 1056.82 461.743C1056.82 461.192 1057.27 460.745 1057.82 460.745Z" fill="black"/>
<path d="M1061.69 469.358L1061.48 468.727L1061.27 468.096C1061.18 468.125 1059.09 468.84 1058.45 470.579C1058.09 471.55 1058.25 472.608 1058.92 473.725L1060.06 473.04C1059.61 472.289 1059.48 471.618 1059.69 471.045C1060.11 469.906 1061.68 469.363 1061.69 469.358Z" fill="black"/>
<path d="M1071.46 469.392C1071.46 470.127 1070.86 470.723 1070.13 470.723C1069.39 470.723 1068.8 470.127 1068.8 469.392C1068.8 468.658 1069.39 468.062 1070.13 468.062C1070.86 468.062 1071.46 468.658 1071.46 469.392Z" fill="black"/>
<path d="M1058.82 480.7C1056.99 480.7 1055.49 482.192 1055.49 484.026C1055.49 484.254 1055.52 484.475 1055.56 484.69C1056.02 484.688 1056.48 484.664 1056.93 484.626C1056.87 484.435 1056.82 484.237 1056.82 484.026C1056.82 482.926 1057.72 482.031 1058.82 482.031C1059.85 482.031 1060.69 482.819 1060.8 483.824C1061.23 483.678 1061.66 483.517 1062.07 483.337C1061.75 481.833 1060.42 480.7 1058.82 480.7Z" fill="black"/>
<path d="M1040.53 474.049C1040.35 474.049 1040.18 474.085 1040.01 474.138C1040.42 475.162 1040.92 476.136 1041.51 477.05C1041.92 476.748 1042.19 476.263 1042.19 475.712C1042.19 474.793 1041.45 474.049 1040.53 474.049L1040.53 474.049Z" fill="black"/>
<path d="M1045.38 455.285L1046.32 456.226L1042.66 459.885L1041.72 458.944L1045.38 455.285Z" fill="black"/>
<path d="M1041.91 466.732H1038.92C1038.89 467.171 1038.86 467.614 1038.86 468.062H1041.15L1047.44 478.769L1046.27 481.898C1046.64 482.149 1047.03 482.383 1047.43 482.603L1048.91 478.641L1041.91 466.732Z" fill="black"/>
<text fill="#266141" xml:space="preserve" style="white-space: pre" font-family="Arial" font-size="18" letter-spacing="0em"><tspan x="1160.95" y="563.74">SCE</tspan></text>
<text fill="black" xml:space="preserve" style="white-space: pre" font-family="Arial" font-size="18" letter-spacing="0em"><tspan x="1177.96" y="542.74">Filtered </tspan><tspan x="1197.97" y="563.74"> Object</tspan></text>
<path d="M1238.55 483.771H1236.5V464.006C1236.49 463.723 1236.37 463.454 1236.16 463.259L1220.44 447.827C1220.24 447.633 1219.97 447.524 1219.69 447.523H1192.71C1189.31 447.523 1186.51 450.405 1186.51 453.938V483.771H1184.45C1183.88 483.771 1183.37 484.175 1183.37 484.753V502.419C1183.37 502.997 1183.88 503.4 1184.45 503.4H1186.51V507.062C1186.51 510.595 1189.31 513.477 1192.71 513.477H1230.29C1233.69 513.477 1236.5 510.595 1236.5 507.062V503.4H1238.55C1239.13 503.4 1239.64 502.997 1239.64 502.419V484.753C1239.64 484.175 1239.13 483.771 1238.55 483.771L1238.55 483.771ZM1220.66 451.039L1232.91 462.964H1223.07C1222.42 462.956 1221.81 462.691 1221.35 462.228C1220.9 461.765 1220.65 461.14 1220.66 460.493L1220.66 451.039ZM1188.6 453.938C1188.6 451.559 1190.47 449.617 1192.71 449.617H1218.57V460.493C1218.56 461.696 1219.03 462.852 1219.87 463.708C1220.72 464.564 1221.87 465.05 1223.07 465.058H1234.4V483.772H1188.6L1188.6 453.938ZM1234.4 507.062C1234.4 509.44 1232.54 511.383 1230.29 511.383H1192.71C1190.47 511.383 1188.6 509.44 1188.6 507.062V503.4H1234.4L1234.4 507.062ZM1237.54 501.307H1185.46V485.866H1237.54V501.307Z" fill="black"/>
<text fill="black" xml:space="preserve" style="white-space: pre" font-family="Oxygen Mono" font-size="16" letter-spacing="0em"><tspan x="1197.59" y="499.746">RDS</tspan></text>
<path d="M1203.5 455.369V452.556C1203.05 452.61 1202.61 452.678 1202.17 452.766V454.818L1191.25 465.736H1189.2C1189.11 466.173 1189.04 466.618 1188.99 467.066H1191.8L1203.5 455.369Z" fill="black"/>
<path d="M1199.68 479.787L1198.11 483.964C1198.51 484.162 1198.92 484.342 1199.33 484.507L1200.66 480.954L1213.83 478.273L1217.46 480.928C1217.51 480.865 1218.11 479.767 1218.11 479.767L1213.91 476.868L1199.68 479.787Z" fill="black"/>
<path d="M1216.76 464.123L1220.4 461.695C1220.22 461.324 1220.02 460.96 1219.81 460.605L1219.76 460.526L1215.51 463.357L1214.1 475.36L1218.95 478.826C1219.21 478.468 1219.46 478.1 1219.69 477.721L1215.51 474.735L1216.76 464.123Z" fill="black"/>
<path d="M1219.1 459.679L1218.8 459.083C1218.66 458.902 1218.52 458.725 1218.38 458.55L1214.84 460.321L1205.49 454.716V452.432C1205.05 452.432 1204.6 452.455 1204.16 452.49V455.47L1214.78 461.838L1219.1 459.679Z" fill="black"/>
<path d="M1201.5 464.406C1198.94 464.406 1196.85 466.495 1196.85 469.062C1196.85 471.629 1198.94 473.718 1201.5 473.718C1204.07 473.718 1206.16 471.629 1206.16 469.062C1206.16 466.495 1204.07 464.406 1201.5 464.406ZM1201.5 472.388C1199.67 472.388 1198.18 470.896 1198.18 469.062C1198.18 467.228 1199.67 465.736 1201.5 465.736C1203.34 465.736 1204.83 467.228 1204.83 469.062C1204.83 470.896 1203.34 472.388 1201.5 472.388Z" fill="black"/>
<path d="M1207.82 465.071C1209.11 465.071 1210.15 464.026 1210.15 462.743C1210.15 461.459 1209.11 460.415 1207.82 460.415C1206.54 460.415 1205.49 461.459 1205.49 462.743C1205.49 464.026 1206.54 465.071 1207.82 465.071ZM1207.82 461.745C1208.37 461.745 1208.82 462.192 1208.82 462.743C1208.82 463.293 1208.37 463.741 1207.82 463.741C1207.27 463.741 1206.82 463.293 1206.82 462.743C1206.82 462.192 1207.27 461.745 1207.82 461.745Z" fill="black"/>
<path d="M1211.69 470.358L1211.48 469.727L1211.27 469.096C1211.18 469.125 1209.09 469.84 1208.45 471.579C1208.09 472.55 1208.25 473.608 1208.92 474.725L1210.06 474.04C1209.61 473.289 1209.48 472.618 1209.69 472.045C1210.11 470.906 1211.68 470.363 1211.69 470.358Z" fill="black"/>
<path d="M1221.46 470.392C1221.46 471.127 1220.86 471.723 1220.13 471.723C1219.39 471.723 1218.8 471.127 1218.8 470.392C1218.8 469.658 1219.39 469.062 1220.13 469.062C1220.86 469.062 1221.46 469.658 1221.46 470.392Z" fill="black"/>
<path d="M1208.82 481.7C1206.99 481.7 1205.49 483.192 1205.49 485.026C1205.49 485.254 1205.52 485.475 1205.56 485.69C1206.02 485.688 1206.48 485.664 1206.93 485.626C1206.87 485.435 1206.82 485.237 1206.82 485.026C1206.82 483.926 1207.72 483.031 1208.82 483.031C1209.85 483.031 1210.69 483.819 1210.8 484.824C1211.23 484.678 1211.66 484.517 1212.07 484.337C1211.75 482.833 1210.42 481.7 1208.82 481.7Z" fill="black"/>
<path d="M1190.53 475.049C1190.35 475.049 1190.18 475.085 1190.01 475.138C1190.42 476.162 1190.92 477.136 1191.51 478.05C1191.92 477.748 1192.19 477.263 1192.19 476.712C1192.19 475.793 1191.45 475.049 1190.53 475.049L1190.53 475.049Z" fill="black"/>
<path d="M1195.38 456.285L1196.32 457.226L1192.66 460.885L1191.72 459.944L1195.38 456.285Z" fill="black"/>
<path d="M1191.91 467.732H1188.92C1188.89 468.171 1188.86 468.614 1188.86 469.062H1191.15L1197.44 479.769L1196.27 482.898C1196.64 483.149 1197.03 483.383 1197.43 483.603L1198.91 479.641L1191.91 467.732Z" fill="black"/>
<text fill="#266141" xml:space="preserve" style="white-space: pre" font-family="Arial" font-size="18" letter-spacing="0em"><tspan x="1315.95" y="560.74">SCE</tspan></text>
<text fill="black" xml:space="preserve" style="white-space: pre" font-family="Arial" font-size="18" letter-spacing="0em"><tspan x="1320.46" y="539.74">Processed </tspan><tspan x="1352.97" y="560.74"> Object</tspan></text>
<path d="M1392.55 482.771H1390.5V463.006C1390.49 462.723 1390.37 462.454 1390.16 462.259L1374.44 446.827C1374.24 446.633 1373.97 446.524 1373.69 446.523H1346.71C1343.31 446.523 1340.51 449.405 1340.51 452.938V482.771H1338.45C1337.88 482.771 1337.37 483.175 1337.37 483.753V501.419C1337.37 501.997 1337.88 502.4 1338.45 502.4H1340.51V506.062C1340.51 509.595 1343.31 512.477 1346.71 512.477H1384.29C1387.69 512.477 1390.5 509.595 1390.5 506.062V502.4H1392.55C1393.13 502.4 1393.64 501.997 1393.64 501.419V483.753C1393.64 483.175 1393.13 482.771 1392.55 482.771L1392.55 482.771ZM1374.66 450.039L1386.91 461.964H1377.07C1376.42 461.956 1375.81 461.691 1375.35 461.228C1374.9 460.765 1374.65 460.14 1374.66 459.493L1374.66 450.039ZM1342.6 452.938C1342.6 450.559 1344.47 448.617 1346.71 448.617H1372.57V459.493C1372.56 460.696 1373.03 461.852 1373.87 462.708C1374.72 463.564 1375.87 464.05 1377.07 464.058H1388.4V482.772H1342.6L1342.6 452.938ZM1388.4 506.062C1388.4 508.44 1386.54 510.383 1384.29 510.383H1346.71C1344.47 510.383 1342.6 508.44 1342.6 506.062V502.4H1388.4L1388.4 506.062ZM1391.54 500.307H1339.46V484.866H1391.54V500.307Z" fill="black"/>
<text fill="black" xml:space="preserve" style="white-space: pre" font-family="Oxygen Mono" font-size="16" letter-spacing="0em"><tspan x="1352.09" y="498.746">RDS</tspan></text>
<path d="M1357.5 454.369V451.556C1357.05 451.61 1356.61 451.678 1356.17 451.766V453.818L1345.25 464.736H1343.2C1343.11 465.173 1343.04 465.618 1342.99 466.066H1345.8L1357.5 454.369Z" fill="black"/>
<path d="M1353.68 478.787L1352.11 482.964C1352.51 483.162 1352.92 483.342 1353.33 483.507L1354.66 479.954L1367.83 477.273L1371.46 479.928C1371.51 479.865 1372.11 478.767 1372.11 478.767L1367.91 475.868L1353.68 478.787Z" fill="black"/>
<path d="M1370.76 463.123L1374.4 460.695C1374.22 460.324 1374.02 459.96 1373.81 459.605L1373.76 459.526L1369.51 462.357L1368.1 474.36L1372.95 477.826C1373.21 477.468 1373.46 477.1 1373.69 476.721L1369.51 473.735L1370.76 463.123Z" fill="black"/>
<path d="M1373.1 458.679L1372.8 458.083C1372.66 457.902 1372.52 457.725 1372.38 457.55L1368.84 459.321L1359.49 453.716V451.432C1359.05 451.432 1358.6 451.455 1358.16 451.49V454.47L1368.78 460.838L1373.1 458.679Z" fill="black"/>
<path d="M1355.5 463.406C1352.94 463.406 1350.85 465.495 1350.85 468.062C1350.85 470.629 1352.94 472.718 1355.5 472.718C1358.07 472.718 1360.16 470.629 1360.16 468.062C1360.16 465.495 1358.07 463.406 1355.5 463.406ZM1355.5 471.388C1353.67 471.388 1352.18 469.896 1352.18 468.062C1352.18 466.228 1353.67 464.736 1355.5 464.736C1357.34 464.736 1358.83 466.228 1358.83 468.062C1358.83 469.896 1357.34 471.388 1355.5 471.388Z" fill="black"/>
<path d="M1361.82 464.071C1363.11 464.071 1364.15 463.026 1364.15 461.743C1364.15 460.459 1363.11 459.415 1361.82 459.415C1360.54 459.415 1359.49 460.459 1359.49 461.743C1359.49 463.026 1360.54 464.071 1361.82 464.071ZM1361.82 460.745C1362.37 460.745 1362.82 461.192 1362.82 461.743C1362.82 462.293 1362.37 462.741 1361.82 462.741C1361.27 462.741 1360.82 462.293 1360.82 461.743C1360.82 461.192 1361.27 460.745 1361.82 460.745Z" fill="black"/>
<path d="M1365.69 469.358L1365.48 468.727L1365.27 468.096C1365.18 468.125 1363.09 468.84 1362.45 470.579C1362.09 471.55 1362.25 472.608 1362.92 473.725L1364.06 473.04C1363.61 472.289 1363.48 471.618 1363.69 471.045C1364.11 469.906 1365.68 469.363 1365.69 469.358Z" fill="black"/>
<path d="M1375.46 469.392C1375.46 470.127 1374.86 470.723 1374.13 470.723C1373.39 470.723 1372.8 470.127 1372.8 469.392C1372.8 468.658 1373.39 468.062 1374.13 468.062C1374.86 468.062 1375.46 468.658 1375.46 469.392Z" fill="black"/>
<path d="M1362.82 480.7C1360.99 480.7 1359.49 482.192 1359.49 484.026C1359.49 484.254 1359.52 484.475 1359.56 484.69C1360.02 484.688 1360.48 484.664 1360.93 484.626C1360.87 484.435 1360.82 484.237 1360.82 484.026C1360.82 482.926 1361.72 482.031 1362.82 482.031C1363.85 482.031 1364.69 482.819 1364.8 483.824C1365.23 483.678 1365.66 483.517 1366.07 483.337C1365.75 481.833 1364.42 480.7 1362.82 480.7Z" fill="black"/>
<path d="M1344.53 474.049C1344.35 474.049 1344.18 474.085 1344.01 474.138C1344.42 475.162 1344.92 476.136 1345.51 477.05C1345.92 476.748 1346.19 476.263 1346.19 475.712C1346.19 474.793 1345.45 474.049 1344.53 474.049L1344.53 474.049Z" fill="black"/>
<path d="M1349.38 455.285L1350.32 456.226L1346.66 459.885L1345.72 458.944L1349.38 455.285Z" fill="black"/>
<path d="M1345.91 466.732H1342.92C1342.89 467.171 1342.86 467.614 1342.86 468.062H1345.15L1351.44 478.769L1350.27 481.898C1350.64 482.149 1351.03 482.383 1351.43 482.603L1352.91 478.641L1345.91 466.732Z" fill="black"/>
<text fill="black" xml:space="preserve" style="white-space: pre" font-family="Arial" font-size="18" letter-spacing="0em"><tspan x="1631.99" y="539.74">Summary </tspan><tspan x="1627.45" y="560.74">QC Report</tspan></text>
<path d="M1695.55 482.771H1693.5V463.006C1693.49 462.723 1693.37 462.454 1693.16 462.259L1677.44 446.827C1677.24 446.633 1676.97 446.524 1676.69 446.523H1649.71C1646.31 446.523 1643.51 449.405 1643.51 452.938V482.771H1641.45C1640.88 482.771 1640.37 483.175 1640.37 483.753V501.419C1640.37 501.997 1640.88 502.4 1641.45 502.4H1643.51V506.062C1643.51 509.595 1646.31 512.477 1649.71 512.477H1687.29C1690.69 512.477 1693.5 509.595 1693.5 506.062V502.4H1695.55C1696.13 502.4 1696.64 501.997 1696.64 501.419V483.753C1696.64 483.175 1696.13 482.771 1695.55 482.771L1695.55 482.771ZM1677.66 450.039L1689.91 461.964H1680.07C1679.42 461.956 1678.81 461.691 1678.35 461.228C1677.9 460.765 1677.65 460.14 1677.66 459.493L1677.66 450.039ZM1645.6 452.938C1645.6 450.559 1647.47 448.617 1649.71 448.617H1675.57V459.493C1675.56 460.696 1676.03 461.852 1676.87 462.708C1677.72 463.564 1678.87 464.05 1680.07 464.058H1691.4V482.772H1645.6L1645.6 452.938ZM1691.4 506.062C1691.4 508.44 1689.54 510.383 1687.29 510.383H1649.71C1647.47 510.383 1645.6 508.44 1645.6 506.062V502.4H1691.4L1691.4 506.062ZM1694.54 500.307H1642.46V484.866H1694.54V500.307Z" fill="black"/>
<text fill="black" xml:space="preserve" style="white-space: pre" font-family="Oxygen Mono" font-size="16" letter-spacing="0em"><tspan x="1650.78" y="498.746">HTML</tspan></text>
<path d="M1653.31 476.036V483.205C1653.31 483.849 1652.75 484.37 1652.06 484.37L1648.05 484.37C1647.37 484.37 1646.81 483.849 1646.81 483.205V476.036C1646.81 475.392 1647.37 474.867 1648.05 474.867H1652.06C1652.75 474.867 1653.31 475.392 1653.31 476.036Z" fill="black"/>
<path d="M1648 470.615C1648 469.803 1648.71 469.141 1649.57 469.141C1649.85 469.141 1650.11 469.207 1650.33 469.326L1655.97 463.476C1655.79 463.234 1655.69 462.938 1655.69 462.638C1655.69 461.822 1656.4 461.16 1657.26 461.16C1658.13 461.16 1658.83 461.822 1658.83 462.638C1658.83 462.771 1658.81 462.894 1658.78 463.018L1664.06 465.625C1664.35 465.294 1664.79 465.096 1665.27 465.096C1665.56 465.096 1665.85 465.171 1666.09 465.316L1672.33 459.281C1672.17 459.051 1672.08 458.773 1672.08 458.478C1672.08 457.662 1672.78 457 1673.65 457C1674.52 457 1675.22 457.662 1675.22 458.478C1675.22 459.29 1674.52 459.951 1673.65 459.951C1673.35 459.951 1673.07 459.872 1672.84 459.735L1666.6 465.779C1666.76 466.013 1666.84 466.287 1666.84 466.569C1666.84 467.381 1666.14 468.042 1665.27 468.042C1664.4 468.042 1663.69 467.381 1663.69 466.569C1663.69 466.45 1663.71 466.326 1663.74 466.212L1658.45 463.595C1658.16 463.922 1657.72 464.112 1657.26 464.112C1656.99 464.112 1656.72 464.045 1656.49 463.922L1650.86 469.767C1651.04 470.006 1651.15 470.297 1651.15 470.614C1651.15 471.431 1650.44 472.092 1649.57 472.092C1648.71 472.092 1648 471.431 1648 470.615Z" fill="black"/>
<path d="M1661 469.303V482.702C1661 483.42 1660.49 484 1659.85 484H1656.15C1655.52 484 1655 483.42 1655 482.702L1655 469.303C1655 468.585 1655.52 468 1656.15 468H1659.85C1660.49 468 1661 468.585 1661 469.303Z" fill="black"/>
<path d="M1669.23 472.815V483.205C1669.23 483.849 1668.68 484.37 1667.98 484.37H1663.98C1663.29 484.37 1662.73 483.849 1662.73 483.205L1662.73 472.815C1662.73 472.171 1663.29 471.646 1663.98 471.646H1667.98C1668.68 471.646 1669.23 472.171 1669.23 472.815Z" fill="black"/>
<path d="M1677 468.045V482.959C1677 483.535 1676.49 484 1675.85 484H1672.15C1671.52 484 1671 483.535 1671 482.959L1671 468.045C1671 467.469 1671.52 467 1672.15 467H1675.85C1676.49 467 1677 467.469 1677 468.045Z" fill="black"/>
<text fill="black" xml:space="preserve" style="white-space: pre" font-family="Arial" font-size="18" letter-spacing="0em"><tspan x="1789.12" y="534.74">Cell Type </tspan><tspan x="1799.46" y="555.74">Report</tspan></text>
<path d="M1851.55 477.771H1849.5V458.006C1849.49 457.723 1849.37 457.454 1849.16 457.259L1833.44 441.827C1833.24 441.633 1832.97 441.524 1832.69 441.523H1805.71C1802.31 441.523 1799.51 444.405 1799.51 447.938V477.771H1797.45C1796.88 477.771 1796.37 478.175 1796.37 478.753V496.419C1796.37 496.997 1796.88 497.4 1797.45 497.4H1799.51V501.062C1799.51 504.595 1802.31 507.477 1805.71 507.477H1843.29C1846.69 507.477 1849.5 504.595 1849.5 501.062V497.4H1851.55C1852.13 497.4 1852.64 496.997 1852.64 496.419V478.753C1852.64 478.175 1852.13 477.771 1851.55 477.771L1851.55 477.771ZM1833.66 445.039L1845.91 456.964H1836.07C1835.42 456.956 1834.81 456.691 1834.35 456.228C1833.9 455.765 1833.65 455.14 1833.66 454.493L1833.66 445.039ZM1801.6 447.938C1801.6 445.559 1803.47 443.617 1805.71 443.617H1831.57V454.493C1831.56 455.696 1832.03 456.852 1832.87 457.708C1833.72 458.564 1834.87 459.05 1836.07 459.058H1847.4V477.772H1801.6L1801.6 447.938ZM1847.4 501.062C1847.4 503.44 1845.54 505.383 1843.29 505.383H1805.71C1803.47 505.383 1801.6 503.44 1801.6 501.062V497.4H1847.4L1847.4 501.062ZM1850.54 495.307H1798.46V479.866H1850.54V495.307Z" fill="black"/>
<text fill="black" xml:space="preserve" style="white-space: pre" font-family="Oxygen Mono" font-size="16" letter-spacing="0em"><tspan x="1806.78" y="493.746">HTML</tspan></text>
<path d="M1809.31 471.036V478.205C1809.31 478.849 1808.75 479.37 1808.06 479.37L1804.05 479.37C1803.37 479.37 1802.81 478.849 1802.81 478.205V471.036C1802.81 470.392 1803.37 469.867 1804.05 469.867H1808.06C1808.75 469.867 1809.31 470.392 1809.31 471.036Z" fill="black"/>
<path d="M1804 465.615C1804 464.803 1804.71 464.141 1805.57 464.141C1805.85 464.141 1806.11 464.207 1806.33 464.326L1811.97 458.476C1811.79 458.234 1811.69 457.938 1811.69 457.638C1811.69 456.822 1812.4 456.16 1813.26 456.16C1814.13 456.16 1814.83 456.822 1814.83 457.638C1814.83 457.771 1814.81 457.894 1814.78 458.018L1820.06 460.625C1820.35 460.294 1820.79 460.096 1821.27 460.096C1821.56 460.096 1821.85 460.171 1822.09 460.316L1828.33 454.281C1828.17 454.051 1828.08 453.773 1828.08 453.478C1828.08 452.662 1828.78 452 1829.65 452C1830.52 452 1831.22 452.662 1831.22 453.478C1831.22 454.29 1830.52 454.951 1829.65 454.951C1829.35 454.951 1829.07 454.872 1828.84 454.735L1822.6 460.779C1822.76 461.013 1822.84 461.287 1822.84 461.569C1822.84 462.381 1822.14 463.042 1821.27 463.042C1820.4 463.042 1819.69 462.381 1819.69 461.569C1819.69 461.45 1819.71 461.326 1819.74 461.212L1814.45 458.595C1814.16 458.922 1813.72 459.112 1813.26 459.112C1812.99 459.112 1812.72 459.045 1812.49 458.922L1806.86 464.767C1807.04 465.006 1807.15 465.297 1807.15 465.614C1807.15 466.431 1806.44 467.092 1805.57 467.092C1804.71 467.092 1804 466.431 1804 465.615Z" fill="black"/>
<path d="M1817 464.303V477.702C1817 478.42 1816.49 479 1815.85 479H1812.15C1811.52 479 1811 478.42 1811 477.702L1811 464.303C1811 463.585 1811.52 463 1812.15 463H1815.85C1816.49 463 1817 463.585 1817 464.303Z" fill="black"/>
<path d="M1825.23 467.815V478.205C1825.23 478.849 1824.68 479.37 1823.98 479.37H1819.98C1819.29 479.37 1818.73 478.849 1818.73 478.205L1818.73 467.815C1818.73 467.171 1819.29 466.646 1819.98 466.646H1823.98C1824.68 466.646 1825.23 467.171 1825.23 467.815Z" fill="black"/>
<path d="M1833 463.045V477.959C1833 478.535 1832.49 479 1831.85 479H1828.15C1827.52 479 1827 478.535 1827 477.959L1827 463.045C1827 462.469 1827.52 462 1828.15 462H1831.85C1832.49 462 1833 462.469 1833 463.045Z" fill="black"/>
<text fill="black" xml:space="preserve" style="white-space: pre" font-family="Arial" font-size="18" letter-spacing="0em"><tspan x="389.89" y="274.74">Gene by cell count </tspan><tspan x="439.987" y="295.74">matrix </tspan></text>
<path d="M496.396 204.357H493.974V181.052C493.965 180.718 493.824 180.401 493.581 180.171L475.036 161.975C474.801 161.747 474.487 161.618 474.16 161.617H442.346C438.339 161.617 435.033 165.015 435.033 169.18V204.357H432.61C431.928 204.357 431.329 204.833 431.329 205.514V226.345C431.329 227.026 431.928 227.502 432.61 227.502H435.033V231.819C435.033 235.985 438.339 239.383 442.346 239.383H486.66C490.667 239.383 493.973 235.985 493.973 231.819V227.502H496.396C497.077 227.502 497.676 227.026 497.676 226.345V205.514C497.676 204.833 497.078 204.357 496.396 204.357L496.396 204.357ZM475.304 165.762L489.746 179.824H478.143C477.38 179.814 476.652 179.502 476.12 178.955C475.587 178.409 475.294 177.673 475.304 176.91L475.304 165.762ZM437.501 169.18C437.501 166.376 439.7 164.086 442.346 164.086H472.835V176.91C472.825 178.327 473.379 179.691 474.374 180.7C475.369 181.71 476.725 182.283 478.143 182.293H491.505V204.357H437.501L437.501 169.18ZM491.505 231.819C491.505 234.624 489.306 236.914 486.66 236.914H442.346C439.7 236.914 437.501 234.624 437.501 231.819V227.502H491.505L491.505 231.819ZM495.208 225.033H433.798V206.826H495.208V225.033Z" fill="black"/>
<text fill="black" xml:space="preserve" style="white-space: pre" font-family="Oxygen Mono" font-size="16" letter-spacing="0em"><tspan x="448.485" y="222.651">MTX</tspan></text>
<path d="M469.173 174H442.746C441.756 174 441.014 174.786 441.014 175.72V203.735C441.014 204.718 441.805 205.455 442.746 205.455H448.734L455.959 205.455H469.173C470.163 205.455 470.905 204.669 470.905 203.735V188.056L470.905 183.83V175.72C470.905 174.787 470.113 174 469.173 174L469.173 174ZM469.916 183.338H463.68V180.094H469.915L469.916 183.338ZM469.916 187.565H463.68V184.321H469.915L469.916 187.565ZM469.916 191.792H463.68V188.548H469.915L469.916 191.792ZM469.916 196.019H463.68V192.775H469.915L469.916 196.019ZM442.003 192.775H448.239V196.019L442.003 196.019V192.775ZM442.003 188.548H448.239V191.792H442.003V188.548ZM442.003 184.321H448.239V187.565H442.003V184.321ZM449.229 188.548H455.464V191.792H449.229V188.548ZM456.454 188.548H462.69V191.792H456.454V188.548ZM462.69 187.565H456.454V184.321H462.69V187.565ZM455.464 187.565H449.229V184.321H455.464V187.565ZM449.229 192.775H455.464V196.019L449.229 196.019V192.775ZM456.454 192.775H462.69V196.019L456.454 196.019V192.775ZM462.69 183.339H456.454V180.095H462.69V183.339ZM455.464 183.339H449.229V180.095L455.464 180.095V183.339ZM448.239 183.339H442.003V180.095H448.239L448.239 183.339ZM442.003 197.002H448.239V200.245L442.003 200.246V197.002ZM449.229 197.002H455.464V200.245L449.229 200.246V197.002ZM456.454 197.002H462.69V200.245L456.454 200.246V197.002ZM463.68 197.002H469.915V200.245L463.68 200.246V197.002ZM469.916 175.721V179.063H463.68V174.983H469.173C469.569 174.983 469.915 175.327 469.915 175.721L469.916 175.721ZM462.69 179.112H456.454V174.984H462.69V179.112ZM455.464 179.112H449.229V174.984H455.464V179.112ZM442.003 175.721C442.003 175.328 442.35 174.984 442.746 174.984H448.239V179.112H442.003L442.003 175.721ZM442.003 203.735V201.229H448.239L448.239 204.473H442.746C442.35 204.473 442.003 204.129 442.003 203.735L442.003 203.735ZM449.229 201.229H455.464V204.473H449.229V201.229ZM456.454 201.229H462.69V204.473H456.454V201.229ZM469.916 203.735C469.916 204.178 469.569 204.473 469.173 204.473H463.68V201.229H469.915L469.916 203.735Z" fill="black"/>
<path d="M451.356 177.538H453.336C453.633 177.538 453.831 177.342 453.831 177.047C453.831 176.752 453.633 176.555 453.336 176.555H451.356C451.059 176.555 450.861 176.752 450.861 177.047C450.861 177.342 451.059 177.538 451.356 177.538Z" fill="black"/>
<path d="M458.582 177.538H460.561C460.858 177.538 461.056 177.342 461.056 177.047C461.056 176.752 460.858 176.555 460.561 176.555H458.582C458.285 176.555 458.087 176.752 458.087 177.047C458.087 177.342 458.285 177.538 458.582 177.538Z" fill="black"/>
<path d="M465.807 177.538H467.787C468.084 177.538 468.282 177.342 468.282 177.047C468.282 176.752 468.084 176.555 467.787 176.555H465.807C465.51 176.555 465.312 176.752 465.312 177.047C465.312 177.342 465.56 177.538 465.807 177.538Z" fill="black"/>
<path d="M444.23 176.605C444.081 176.506 443.834 176.556 443.735 176.703C443.685 176.752 443.636 176.801 443.586 176.851V177.047C443.586 177.195 443.636 177.293 443.735 177.391C443.735 177.44 443.834 177.489 443.883 177.489C443.933 177.539 443.982 177.539 444.081 177.539C444.18 177.539 444.23 177.539 444.279 177.489C444.329 177.489 444.378 177.44 444.428 177.391C444.527 177.293 444.576 177.195 444.576 177.047C444.576 176.9 444.527 176.801 444.428 176.703C444.378 176.654 444.329 176.605 444.23 176.605Z" fill="black"/>
<path d="M446.358 176.605C446.16 176.506 445.962 176.556 445.814 176.703C445.764 176.752 445.715 176.801 445.715 176.851C445.715 176.9 445.665 176.998 445.665 177.047C445.665 177.195 445.715 177.293 445.813 177.391C445.913 177.489 446.061 177.539 446.16 177.539C446.209 177.539 446.308 177.539 446.358 177.489C446.407 177.489 446.457 177.44 446.506 177.391C446.605 177.293 446.655 177.194 446.655 177.047C446.655 176.9 446.605 176.801 446.506 176.703C446.457 176.654 446.407 176.605 446.358 176.605Z" fill="black"/>
<text fill="black" xml:space="preserve" style="white-space: pre" font-family="Arial" font-size="18" letter-spacing="0em"><tspan x="34" y="364.74">Input RNA FASTQ</tspan></text>
<path d="M138.396 296.357H135.974V273.052C135.965 272.718 135.824 272.401 135.581 272.171L117.036 253.975C116.801 253.747 116.487 253.618 116.16 253.617H84.346C80.3386 253.617 77.0325 257.015 77.0325 261.181V296.357H74.6101C73.9284 296.357 73.3294 296.833 73.3294 297.514V318.345C73.3294 319.027 73.9281 319.502 74.6101 319.502H77.0325V323.82C77.0325 327.986 80.3389 331.383 84.346 331.383H128.66C132.667 331.383 135.973 327.985 135.973 323.82V319.502H138.396C139.077 319.502 139.676 319.026 139.676 318.345V297.514C139.676 296.833 139.078 296.357 138.396 296.357L138.396 296.357ZM117.304 257.763L131.746 271.824H120.143C119.38 271.814 118.652 271.502 118.12 270.955C117.587 270.409 117.294 269.673 117.304 268.91L117.304 257.763ZM79.5011 261.18C79.5011 258.376 81.6998 256.086 84.346 256.086H114.835V268.91C114.825 270.328 115.379 271.691 116.374 272.7C117.369 273.71 118.725 274.283 120.143 274.293H133.505V296.357H79.501L79.5011 261.18ZM133.505 323.82C133.505 326.624 131.306 328.914 128.66 328.914H84.3461C81.7 328.914 79.5012 326.624 79.5012 323.82V319.502H133.505L133.505 323.82ZM137.208 317.033H75.798V298.827H137.208V317.033Z" fill="black"/>
<text fill="black" xml:space="preserve" style="white-space: pre" font-family="Oxygen Mono" font-size="16" letter-spacing="0em"><tspan x="82.4765" y="313.651">FASTQ</tspan></text>
<text fill="black" xml:space="preserve" style="white-space: pre" font-family="Arial" font-size="18" letter-spacing="0em"><tspan x="56" y="721.74">HTO FASTQ</tspan></text>
<path d="M141.396 653.357H138.974V630.052C138.965 629.718 138.824 629.401 138.581 629.171L120.036 610.975C119.801 610.747 119.487 610.618 119.16 610.617H87.346C83.3386 610.617 80.0325 614.015 80.0325 618.181V653.357H77.6101C76.9284 653.357 76.3294 653.833 76.3294 654.514V675.345C76.3294 676.027 76.9281 676.502 77.6101 676.502H80.0325V680.82C80.0325 684.986 83.3389 688.383 87.346 688.383H131.66C135.667 688.383 138.973 684.985 138.973 680.82V676.502H141.396C142.077 676.502 142.676 676.026 142.676 675.345V654.514C142.676 653.833 142.078 653.357 141.396 653.357L141.396 653.357ZM120.304 614.763L134.746 628.824H123.143C122.38 628.814 121.652 628.502 121.12 627.955C120.587 627.409 120.294 626.673 120.304 625.91L120.304 614.763ZM82.5011 618.18C82.5011 615.376 84.6998 613.086 87.346 613.086H117.835V625.91C117.825 627.328 118.379 628.691 119.374 629.7C120.369 630.71 121.725 631.283 123.143 631.293H136.505V653.357H82.501L82.5011 618.18ZM136.505 680.82C136.505 683.624 134.306 685.914 131.66 685.914H87.3461C84.7 685.914 82.5012 683.624 82.5012 680.82V676.502H136.505L136.505 680.82ZM140.208 674.033H78.798V655.827H140.208V674.033Z" fill="black"/>
<text fill="black" xml:space="preserve" style="white-space: pre" font-family="Oxygen Mono" font-size="16" letter-spacing="0em"><tspan x="85.4765" y="670.651">FASTQ</tspan></text>
<text fill="black" xml:space="preserve" style="white-space: pre" font-family="Arial" font-size="18" letter-spacing="0em"><tspan x="45" y="182.74">Library Pools</tspan></text>
<path d="M130.396 114.357H127.974V91.0522C127.965 90.7179 127.824 90.401 127.581 90.1711L109.036 71.9748C108.801 71.7467 108.487 71.6184 108.16 71.6168H76.346C72.3386 71.6168 69.0325 75.0147 69.0325 79.1804V114.357H66.6101C65.9284 114.357 65.3294 114.833 65.3294 115.514V136.345C65.3294 137.026 65.9281 137.502 66.6101 137.502H69.0325V141.819C69.0325 145.985 72.3389 149.383 76.346 149.383H120.66C124.667 149.383 127.973 145.985 127.973 141.819V137.502H130.396C131.077 137.502 131.676 137.026 131.676 136.345V115.514C131.676 114.833 131.078 114.357 130.396 114.357L130.396 114.357ZM109.304 75.7624L123.746 89.8237H112.143C111.38 89.8142 110.652 89.5018 110.12 88.9553C109.587 88.4088 109.294 87.6729 109.304 86.9099L109.304 75.7624ZM71.5011 79.1803C71.5011 76.3759 73.6998 74.0857 76.346 74.0857H106.835V86.91C106.825 88.3275 107.379 89.6909 108.374 90.7003C109.369 91.7099 110.725 92.2826 112.143 92.2927H125.505V114.357H71.501L71.5011 79.1803ZM125.505 141.819C125.505 144.624 123.306 146.914 120.66 146.914H76.3461C73.7 146.914 71.5012 144.624 71.5012 141.819V137.502H125.505L125.505 141.819ZM129.208 135.033H67.798V116.826H129.208V135.033Z" fill="black"/>
<text fill="black" xml:space="preserve" style="white-space: pre" font-family="Oxygen Mono" font-size="16" letter-spacing="0em"><tspan x="84.0859" y="131.651">TSV</tspan></text>
<text fill="black" xml:space="preserve" style="white-space: pre" font-family="Arial" font-size="18" letter-spacing="0em"><tspan x="36" y="531.74">Bulk-RNA FASTQ</tspan></text>
<path d="M139.396 464.357H136.974V441.052C136.965 440.718 136.824 440.401 136.581 440.171L118.036 421.975C117.801 421.747 117.487 421.618 117.16 421.617H85.346C81.3386 421.617 78.0325 425.015 78.0325 429.181V464.357H75.6101C74.9284 464.357 74.3294 464.833 74.3294 465.514V486.345C74.3294 487.027 74.9281 487.502 75.6101 487.502H78.0325V491.82C78.0325 495.986 81.3389 499.383 85.346 499.383H129.66C133.667 499.383 136.973 495.985 136.973 491.82V487.502H139.396C140.077 487.502 140.676 487.026 140.676 486.345V465.514C140.676 464.833 140.078 464.357 139.396 464.357L139.396 464.357ZM118.304 425.763L132.746 439.824H121.143C120.38 439.814 119.652 439.502 119.12 438.955C118.587 438.409 118.294 437.673 118.304 436.91L118.304 425.763ZM80.5011 429.18C80.5011 426.376 82.6998 424.086 85.346 424.086H115.835V436.91C115.825 438.328 116.379 439.691 117.374 440.7C118.369 441.71 119.725 442.283 121.143 442.293H134.505V464.357H80.501L80.5011 429.18ZM134.505 491.82C134.505 494.624 132.306 496.914 129.66 496.914H85.3461C82.7 496.914 80.5012 494.624 80.5012 491.82V487.502H134.505L134.505 491.82ZM138.208 485.033H76.798V466.827H138.208V485.033Z" fill="black"/>
<text fill="black" xml:space="preserve" style="white-space: pre" font-family="Oxygen Mono" font-size="16" letter-spacing="0em"><tspan x="83.4765" y="481.651">FASTQ</tspan></text>
<text fill="black" xml:space="preserve" style="white-space: pre" font-family="Arial" font-size="18" letter-spacing="0em"><tspan x="982.452" y="273.74">Filter empty </tspan><tspan x="997.455" y="294.74">droplets</tspan></text>
<path d="M1054.29 193.616H1049.98V189.309H1047.83V193.616H1011.17V189.309H1009.01V193.616H1004.7C1003.84 193.616 1003.02 193.957 1002.41 194.563C1001.81 195.168 1001.47 195.99 1001.47 196.847V199.001C1001.47 199.767 1001.74 200.508 1002.24 201.09C1002.74 201.672 1003.43 202.059 1004.19 202.18L1024.11 223.123V237.769C1024.1 238.143 1024.3 238.492 1024.62 238.69C1024.93 238.887 1025.33 238.906 1025.67 238.738L1034.29 234.431C1034.47 234.341 1034.62 234.203 1034.73 234.031C1034.83 233.86 1034.89 233.663 1034.89 233.462V223.123L1054.81 202.18C1055.56 202.058 1056.25 201.672 1056.75 201.09C1057.25 200.508 1057.53 199.767 1057.53 199.001V196.847C1057.53 195.99 1057.19 195.168 1056.58 194.563C1055.97 193.957 1055.15 193.616 1054.29 193.616L1054.29 193.616ZM1055.37 199.001C1055.37 199.286 1055.26 199.56 1055.06 199.762C1054.85 199.964 1054.58 200.078 1054.29 200.078H1049.98V202.232H1051.78L1033.02 221.952C1032.84 222.152 1032.73 222.417 1032.73 222.692V232.796L1026.26 236.027V222.692C1026.26 222.417 1026.16 222.152 1025.97 221.952L1007.21 202.232H1047.82V200.078H1004.7C1004.41 200.078 1004.14 199.964 1003.94 199.762C1003.74 199.56 1003.62 199.286 1003.62 199.001V196.847C1003.62 196.561 1003.74 196.287 1003.94 196.086C1004.14 195.884 1004.41 195.77 1004.7 195.77H1054.29C1054.58 195.77 1054.85 195.884 1055.06 196.086C1055.26 196.287 1055.37 196.561 1055.37 196.847L1055.37 199.001Z" fill="black"/>
<path d="M1029.5 191.463C1031.22 191.463 1032.86 190.782 1034.07 189.57C1035.29 188.358 1035.97 186.715 1035.97 185.001C1035.97 183.288 1035.29 181.644 1034.07 180.432C1032.86 179.22 1031.22 178.54 1029.5 178.54C1027.78 178.54 1026.14 179.221 1024.93 180.432C1023.71 181.644 1023.03 183.288 1023.03 185.001C1023.03 186.714 1023.71 188.357 1024.93 189.568C1026.14 190.78 1027.78 191.461 1029.5 191.463ZM1029.5 180.694C1030.64 180.694 1031.74 181.147 1032.55 181.955C1033.36 182.763 1033.81 183.859 1033.81 185.001C1033.81 186.144 1033.36 187.239 1032.55 188.047C1031.74 188.855 1030.64 189.309 1029.5 189.309C1028.36 189.309 1027.26 188.855 1026.45 188.047C1025.64 187.239 1025.19 186.144 1025.19 185.001C1025.19 183.859 1025.64 182.763 1026.45 181.955C1027.26 181.147 1028.36 180.694 1029.5 180.694Z" fill="black"/>
<path d="M1018.72 182.847H1020.87V191.463H1018.72V182.847Z" fill="black"/>
<path d="M1038.12 182.847H1040.28V191.463H1038.12V182.847Z" fill="black"/>
<path d="M1038.12 174.232H1040.28V178.54H1038.12V174.232Z" fill="black"/>
<path d="M1018.72 174.232H1020.87V178.54H1018.72V174.232Z" fill="black"/>
<path d="M1049.02 185.933C1050.74 185.933 1052.38 185.252 1053.6 184.04C1054.81 182.828 1055.49 181.185 1055.49 179.471C1055.49 177.758 1054.81 176.114 1053.6 174.902C1052.38 173.69 1050.74 173.01 1049.02 173.01C1047.31 173.01 1045.66 173.69 1044.45 174.902C1043.24 176.114 1042.55 177.758 1042.55 179.471C1042.56 181.184 1043.24 182.827 1044.45 184.038C1045.66 185.25 1047.31 185.931 1049.02 185.933Z" fill="black"/>
<path d="M1008.93 186.864C1010.64 186.864 1012.29 186.183 1013.5 184.972C1014.72 183.76 1015.4 182.116 1015.4 180.403C1015.4 178.689 1014.72 177.045 1013.5 175.834C1012.29 174.622 1010.64 173.941 1008.93 173.941C1007.21 173.941 1005.57 174.622 1004.35 175.834C1003.14 177.045 1002.46 178.689 1002.46 180.403C1002.46 182.116 1003.14 183.758 1004.36 184.97C1005.57 186.181 1007.21 186.862 1008.93 186.864ZM1008.93 176.095C1010.07 176.095 1011.17 176.549 1011.98 177.357C1012.79 178.164 1013.24 179.26 1013.24 180.403C1013.24 181.545 1012.79 182.641 1011.98 183.448C1011.17 184.256 1010.07 184.71 1008.93 184.71C1007.78 184.71 1006.69 184.256 1005.88 183.448C1005.07 182.641 1004.62 181.545 1004.62 180.403C1004.62 179.26 1005.07 178.164 1005.88 177.357C1006.69 176.549 1007.78 176.095 1008.93 176.095Z" fill="black"/>
<path d="M1008.93 171.962C1010.64 171.962 1012.29 171.281 1013.5 170.07C1014.72 168.858 1015.4 167.214 1015.4 165.501C1015.4 163.787 1014.72 162.143 1013.5 160.932C1012.29 159.72 1010.64 159.039 1008.93 159.039C1007.21 159.039 1005.57 159.72 1004.35 160.932C1003.14 162.143 1002.46 163.787 1002.46 165.501C1002.46 167.214 1003.14 168.856 1004.36 170.068C1005.57 171.279 1007.21 171.96 1008.93 171.962Z" fill="black"/>
<path d="M1049.02 170.099C1050.74 170.099 1052.38 169.419 1053.6 168.207C1054.81 166.995 1055.49 165.352 1055.49 163.638C1055.49 161.924 1054.81 160.281 1053.6 159.069C1052.38 157.857 1050.74 157.177 1049.02 157.177C1047.31 157.177 1045.66 157.857 1044.45 159.069C1043.24 160.281 1042.55 161.924 1042.55 163.638C1042.56 165.351 1043.24 166.994 1044.45 168.205C1045.66 169.416 1047.31 170.098 1049.02 170.099ZM1049.02 159.33C1050.17 159.33 1051.26 159.784 1052.07 160.592C1052.88 161.4 1053.34 162.496 1053.34 163.638C1053.34 164.78 1052.88 165.876 1052.07 166.684C1051.26 167.492 1050.17 167.946 1049.02 167.946C1047.88 167.946 1046.78 167.492 1045.97 166.684C1045.16 165.876 1044.71 164.78 1044.71 163.638C1044.71 162.496 1045.16 161.4 1045.97 160.592C1046.78 159.784 1047.88 159.33 1049.02 159.33Z" fill="black"/>
<path d="M1029.44 158.923C1031.16 158.923 1032.8 158.242 1034.02 157.03C1035.23 155.819 1035.91 154.175 1035.91 152.461C1035.91 150.748 1035.23 149.104 1034.02 147.892C1032.8 146.681 1031.16 146 1029.44 146C1027.73 146 1026.08 146.681 1024.87 147.892C1023.65 149.104 1022.97 150.748 1022.97 152.461C1022.97 154.175 1023.66 155.817 1024.87 157.028C1026.08 158.24 1027.73 158.921 1029.44 158.923ZM1029.44 148.154C1030.59 148.154 1031.68 148.608 1032.49 149.416C1033.3 150.223 1033.75 151.319 1033.75 152.461C1033.75 153.604 1033.3 154.7 1032.49 155.507C1031.68 156.315 1030.59 156.769 1029.44 156.769C1028.3 156.769 1027.2 156.315 1026.39 155.507C1025.58 154.7 1025.13 153.604 1025.13 152.461C1025.13 151.319 1025.58 150.223 1026.39 149.416C1027.2 148.608 1028.3 148.154 1029.44 148.154Z" fill="black"/>
<path d="M1029.44 174.756C1031.16 174.756 1032.8 174.075 1034.02 172.864C1035.23 171.652 1035.91 170.008 1035.91 168.295C1035.91 166.581 1035.23 164.938 1034.02 163.726C1032.8 162.514 1031.16 161.833 1029.44 161.833C1027.73 161.833 1026.08 162.514 1024.87 163.726C1023.65 164.938 1022.97 166.581 1022.97 168.295C1022.97 170.008 1023.66 171.65 1024.87 172.862C1026.08 174.073 1027.73 174.754 1029.44 174.756Z" fill="black"/>
<path d="M402 206L392 200.226V211.774L402 206ZM231 121H232V120H231V121ZM231 286.5V287.5H232V286.5H231ZM231 207H393V205H231V207ZM232 206V121H230V206H232ZM231 120H150.5V122H231V120ZM230 206V286.5H232V206H230ZM231 285.5H150.5V287.5H231V285.5Z" fill="black"/>
<path d="M433.5 473.5L423.5 467.726V479.274L433.5 473.5ZM231 652.5V653.5H232V652.5H231ZM231 314H232V313H231V314ZM231 474.5H424.5V472.5H231V474.5ZM231 472.5H151.5V474.5H231V472.5ZM230 473.5V652.5H232V473.5H230ZM231 651.5H149V653.5H231V651.5ZM232 473.5V314H230V473.5H232ZM231 313H151.5V315H231V313Z" fill="black"/>
<path d="M703 206L693 200.226V211.774L703 206ZM539 207H694V205H539V207Z" fill="black"/>
<path d="M976 206.5L966.019 200.693L965.981 212.24L976 206.5ZM826.997 207L966.997 207.47L967.003 205.47L827.003 205L826.997 207Z" fill="black"/>
<path d="M1237 207L1227 201.226L1227 212.773L1237 207ZM1083 208L1228 208L1228 206L1083 206L1083 208Z" fill="black"/>
<path d="M1495 206L1485 200.227L1485 211.774L1495 206ZM1358 207L1486 207L1486 205L1358 205L1358 207Z" fill="black"/>
<path d="M1812 200L1802 194.227L1802 205.774L1812 200ZM1675 201L1803 201L1803 199L1675 199L1675 201Z" fill="black"/>
<text fill="#266141" xml:space="preserve" style="white-space: pre" font-family="Arial" font-size="18" letter-spacing="0em"><tspan x="274.969" y="187.74">alevin-fry</tspan></text>
<text fill="black" xml:space="preserve" style="white-space: pre" font-family="Arial" font-size="18" letter-spacing="0em"><tspan x="269.959" y="187.74"> </tspan></text>
<text fill="#266141" xml:space="preserve" style="white-space: pre" font-family="Arial" font-size="18" letter-spacing="0em"><tspan x="1304.05" y="295.74">miQC</tspan></text>
<text fill="black" xml:space="preserve" style="white-space: pre" font-family="Arial" font-size="18" letter-spacing="0em"><tspan x="1204.4" y="274.74">Remove low quality </tspan><tspan x="1214.93" y="295.74">cells using </tspan></text>
<path fill-rule="evenodd" clip-rule="evenodd" d="M1270.34 176.122H1260.4C1259.23 176.122 1258.12 176.586 1257.29 177.413C1256.46 178.24 1256 179.359 1256 180.529C1256 189.598 1259.18 217.591 1259.18 227.201C1259.18 230.322 1261.86 232.898 1265.21 232.898H1294.32C1297.68 232.898 1300.36 230.322 1300.36 227.201C1300.36 219.053 1302.64 197.683 1303.34 185.843L1314.79 228.56C1315.08 229.675 1315.81 230.625 1316.81 231.202C1317.81 231.779 1319 231.936 1320.11 231.636H1320.12C1321.23 231.336 1322.18 230.607 1322.76 229.607C1323.34 228.608 1323.49 227.421 1323.19 226.307L1319.54 212.667C1319.61 212.649 1319.68 212.632 1319.75 212.611H1319.75C1322.97 211.749 1324.89 208.435 1324.02 205.211L1320.91 193.61C1320.05 190.386 1316.74 188.473 1313.51 189.337L1313.3 189.393L1309.65 175.755C1309.35 174.641 1308.62 173.691 1307.62 173.113C1306.62 172.536 1305.44 172.38 1304.32 172.68H1304.32C1303.2 172.98 1302.25 173.708 1301.67 174.706C1301.34 175.289 1301.15 175.932 1301.1 176.59C1300.49 176.284 1299.82 176.123 1299.13 176.123H1282.25L1280.94 176.122C1280.41 176.123 1280.6 176.122 1279.88 176.122C1279.15 176.122 1277.53 176.122 1276.69 176.122C1275.85 176.122 1273.84 176.122 1271.92 176.122C1270 176.122 1270.34 176.122 1270.34 176.122ZM1301.09 180.529C1301.09 189.598 1297.91 217.591 1297.91 227.201C1297.91 229.023 1296.28 230.453 1294.32 230.453H1265.21C1263.25 230.453 1261.63 229.023 1261.63 227.201C1261.63 217.592 1258.45 189.597 1258.45 180.529C1258.45 180.007 1258.65 179.51 1259.02 179.142C1259.39 178.774 1259.88 178.567 1260.4 178.567H1299.13C1299.65 178.567 1300.15 178.774 1300.52 179.142C1300.89 179.51 1301.09 180.007 1301.09 180.529ZM1307.29 176.387L1320.83 226.938C1320.96 227.425 1320.89 227.946 1320.64 228.382C1320.39 228.821 1319.97 229.141 1319.48 229.272H1319.48C1318.99 229.403 1318.47 229.335 1318.03 229.081C1317.6 228.829 1317.28 228.412 1317.15 227.924L1303.6 177.374C1303.47 176.885 1303.54 176.366 1303.79 175.927C1304.04 175.491 1304.46 175.171 1304.95 175.04H1304.95C1305.44 174.909 1305.96 174.977 1306.4 175.229C1306.84 175.484 1307.15 175.901 1307.29 176.387ZM1318.91 210.308L1313.94 191.754C1314 191.736 1314.07 191.719 1314.14 191.699C1316.07 191.184 1318.04 192.324 1318.55 194.242L1321.66 205.843C1322.17 207.764 1321.04 209.735 1319.12 210.249L1318.91 210.308Z" fill="black"/>
<path fill-rule="evenodd" clip-rule="evenodd" d="M1290.53 162.378C1290.87 161.793 1290.67 161.046 1290.08 160.708L1285.11 157.838C1284.53 157.5 1283.78 157.7 1283.44 158.285L1280.57 163.257C1280.23 163.841 1280.43 164.59 1281.02 164.928L1285.99 167.798C1286.58 168.136 1287.32 167.935 1287.66 167.35L1290.53 162.378ZM1287.8 162.215L1286.16 165.069L1283.3 163.42L1284.95 160.567L1287.8 162.215Z" fill="black"/>
<path fill-rule="evenodd" clip-rule="evenodd" d="M1281.4 170.296C1281.59 169.729 1281.3 169.109 1280.73 168.91L1275.91 167.22C1275.35 167.021 1274.73 167.319 1274.53 167.885L1272.84 172.7C1272.64 173.266 1272.94 173.888 1273.5 174.087L1278.32 175.777C1278.89 175.976 1279.51 175.678 1279.7 175.111L1281.4 170.296ZM1278.98 170.602L1278.01 173.366L1275.25 172.395L1276.22 169.632L1278.98 170.602Z" fill="black"/>
<path fill-rule="evenodd" clip-rule="evenodd" d="M1282.86 153.046C1283.34 152.57 1283.34 151.795 1282.86 151.318L1277.9 146.359C1277.43 145.881 1276.65 145.881 1276.17 146.357L1271.22 151.316C1270.74 151.794 1270.74 152.568 1271.22 153.046L1276.17 158.005C1276.65 158.483 1277.43 158.483 1277.9 158.005L1282.86 153.046ZM1280.27 152.181L1277.04 155.412L1273.81 152.183L1277.04 148.952L1280.27 152.181Z" fill="black"/>
<path d="M1280.41 193.384C1273.17 193.384 1267.3 199.252 1267.3 206.49C1267.3 213.728 1273.17 219.596 1280.41 219.596C1287.65 219.596 1293.51 213.728 1293.51 206.49C1293.51 199.252 1287.65 193.384 1280.41 193.384ZM1280.41 216.975C1274.62 216.975 1269.92 212.28 1269.92 206.49C1269.92 200.699 1274.62 196.005 1280.41 196.005C1286.2 196.005 1290.89 200.699 1290.89 206.49C1290.89 212.28 1286.2 216.975 1280.41 216.975Z" fill="black"/>
<path d="M1283.96 202.942C1283.44 202.43 1282.61 202.43 1282.1 202.942L1280.41 204.636L1278.71 202.942C1278.2 202.43 1277.37 202.43 1276.86 202.942C1276.35 203.454 1276.35 204.283 1276.86 204.795L1278.55 206.49L1276.86 208.184C1276.35 208.696 1276.35 209.526 1276.86 210.038C1277.37 210.55 1278.2 210.55 1278.71 210.038L1280.41 208.343L1282.1 210.038C1282.61 210.55 1283.44 210.55 1283.96 210.038C1284.47 209.526 1284.47 208.696 1283.96 208.184L1282.26 206.49L1283.96 204.795C1284.47 204.283 1284.47 203.454 1283.96 202.942Z" fill="black"/>
<text fill="black" xml:space="preserve" style="white-space: pre" font-family="Arial" font-size="18" letter-spacing="0em"><tspan x="1461.5" y="273.74">RNA and ADT normalization and </tspan><tspan x="1455.32" y="294.74">dimensionality reduction with PCA </tspan><tspan x="1547.46" y="315.74">and UMAP</tspan></text>
<path d="M1672.43 232.01C1649.98 232.01 1632.85 226.187 1620.14 214.236C1609.3 204.047 1603.63 191.137 1599.03 180.795C1594.13 169.647 1590.56 161.565 1583.48 161.565C1576.31 161.565 1571.95 170.184 1566.47 181.064C1561.26 191.407 1554.79 204.239 1543.49 214.352C1530.23 226.228 1513.11 232.012 1491.16 232.012V229.407C1539.08 229.407 1553.52 200.83 1564.06 179.915C1569.99 168.231 1574.63 159 1583.52 159C1592.36 159 1596.43 168.156 1601.52 179.8C1610.75 200.753 1623.39 229.445 1672.46 229.445L1672.46 232.012L1672.43 232.01Z" fill="black"/>
<path d="M1491 232.814H1672.5V234.347H1491V232.814Z" fill="black"/>
<path d="M1618.37 223.2V215.04H1612.01V207.915H1605.65V196.27H1599.29L1599.29 184.357H1592.93L1592.93 173.554H1586.58V167.885H1578.68V173.554H1572.06V184.318H1565.7V196.27H1559.34V207.915H1552.98V215.04H1546.62V223.2H1540.22V231.895H1624.77V223.2H1618.37ZM1546.58 230.363H1541.76V224.731H1546.58V230.363ZM1548.15 230.363V216.572L1552.98 216.573V230.363L1548.15 230.363ZM1554.51 230.363V209.448H1559.34V230.363H1554.51ZM1565.7 230.363H1560.87V197.802H1565.7V230.363ZM1567.23 230.363V185.889H1572.06V230.401H1567.23V230.363ZM1578.42 230.363H1573.59V175.087H1578.42V230.363ZM1580.22 230.363V169.416H1585.04V230.363H1580.22ZM1586.58 230.363V175.087H1591.4V230.364L1586.58 230.363ZM1597.76 230.363H1592.93V185.889H1597.76V230.363ZM1599.29 230.363V197.802H1604.12V230.363H1599.29ZM1605.65 230.363V209.448H1610.48V230.363H1605.65ZM1616.84 230.363H1612.01V216.572H1616.84V230.363ZM1623.24 230.363H1618.41V224.731H1623.24V230.363Z" fill="black"/>
<path d="M775 367.5H774V368.5H775V367.5ZM1055.5 367.5H1056.5V366.5H1055.5V367.5ZM1055.5 420.5L1061.27 410.5H1049.73L1055.5 420.5ZM774 321.5V367.5H776V321.5H774ZM775 368.5H1055.5V366.5H775V368.5ZM1054.5 367.5V411.5H1056.5V367.5H1054.5Z" fill="black"/>
<path d="M1026.5 349.5H1025.5V350.5H1026.5V349.5ZM1205 349.5H1206V348.5H1205V349.5ZM1205 419L1210.77 409H1199.23L1205 419ZM1025.5 319V349.5H1027.5V319H1025.5ZM1026.5 350.5H1205V348.5H1026.5V350.5ZM1204 349.5V410H1206V349.5H1204Z" fill="black"/>
<path d="M1351 369.5V368.5H1350V369.5H1351ZM1351 418L1356.77 408H1345.23L1351 418ZM1663.5 369.5H1664.5V368.5H1663.5V369.5ZM1663.5 418L1669.27 408H1657.73L1663.5 418ZM1577.5 338V369.5H1579.5V338H1577.5ZM1350 369.5V409H1352V369.5H1350ZM1578.5 368.5H1512.5V370.5H1578.5V368.5ZM1512.5 368.5H1351V370.5H1512.5V368.5ZM1578.5 370.5H1663.5V368.5H1578.5V370.5ZM1662.5 369.5V409H1664.5V369.5H1662.5Z" fill="black"/>
<path d="M1823.5 419L1829.27 409H1817.73L1823.5 419ZM1823.5 351.5V350.5H1822.5V351.5H1823.5ZM1874 351.5V352.5H1875V351.5H1874ZM1822.5 351.5V410H1824.5V351.5H1822.5ZM1873 309.5V351.5H1875V309.5H1873ZM1874 350.5H1823.5V352.5H1874V350.5Z" fill="black"/>
<path d="M456.469 461.923C458.184 461.923 459.83 461.242 461.043 460.03C462.256 458.819 462.938 457.175 462.938 455.461C462.938 453.748 462.256 452.104 461.043 450.892C459.83 449.681 458.184 449 456.469 449C454.753 449 453.108 449.681 451.895 450.892C450.681 452.104 450 453.748 450 455.461C450.002 457.175 450.684 458.817 451.897 460.028C453.109 461.24 454.754 461.921 456.469 461.923Z" fill="black"/>
<path d="M456.469 482.923C458.184 482.923 459.83 482.242 461.043 481.03C462.256 479.819 462.937 478.175 462.937 476.461C462.937 474.748 462.256 473.104 461.043 471.892C459.83 470.681 458.184 470 456.469 470C454.753 470 453.108 470.681 451.895 471.892C450.681 473.104 450 474.748 450 476.461C450.002 478.175 450.684 479.817 451.897 481.028C453.109 482.24 454.754 482.921 456.469 482.923Z" fill="#8B8D8C"/>
<path d="M561.469 462.923C563.184 462.923 564.83 462.242 566.043 461.03C567.256 459.819 567.937 458.175 567.937 456.461C567.937 454.748 567.256 453.104 566.043 451.892C564.83 450.681 563.184 450 561.469 450C559.753 450 558.108 450.681 556.895 451.892C555.681 453.104 555 454.748 555 456.461C555.002 458.175 555.684 459.817 556.897 461.028C558.109 462.24 559.754 462.921 561.469 462.923Z" fill="#8B8D8C"/>
<path d="M543.469 462.923C545.184 462.923 546.83 462.242 548.043 461.03C549.256 459.819 549.937 458.175 549.937 456.461C549.937 454.748 549.256 453.104 548.043 451.892C546.83 450.681 545.184 450 543.469 450C541.753 450 540.108 450.681 538.895 451.892C537.681 453.104 537 454.748 537 456.461C537.002 458.175 537.684 459.817 538.897 461.028C540.109 462.24 541.754 462.921 543.469 462.923Z" fill="#8B8D8C"/>
<path d="M471.469 474.923C473.184 474.923 474.83 474.242 476.043 473.03C477.256 471.819 477.937 470.175 477.937 468.461C477.937 466.748 477.256 465.104 476.043 463.892C474.83 462.681 473.184 462 471.469 462C469.753 462 468.108 462.681 466.895 463.892C465.681 465.104 465 466.748 465 468.461C465.002 470.175 465.684 471.817 466.897 473.028C468.109 474.24 469.754 474.921 471.469 474.923Z" fill="black"/>
<path d="M475.469 452.923C477.184 452.923 478.83 452.242 480.043 451.03C481.256 449.819 481.937 448.175 481.937 446.461C481.937 444.748 481.256 443.104 480.043 441.892C478.83 440.681 477.184 440 475.469 440C473.753 440 472.108 440.681 470.895 441.892C469.681 443.104 469 444.748 469 446.461C469.002 448.175 469.684 449.817 470.897 451.028C472.109 452.24 473.754 452.921 475.469 452.923Z" fill="#8B8D8C"/>
<path d="M525.469 462.923C527.184 462.923 528.83 462.242 530.043 461.03C531.256 459.819 531.937 458.175 531.937 456.461C531.937 454.748 531.256 453.104 530.043 451.892C528.83 450.681 527.184 450 525.469 450C523.753 450 522.108 450.681 520.895 451.892C519.681 453.104 519 454.748 519 456.461C519.002 458.175 519.684 459.817 520.897 461.028C522.109 462.24 523.754 462.921 525.469 462.923Z" fill="#8B8D8C"/>
<path d="M488.469 465.923C490.184 465.923 491.83 465.242 493.043 464.03C494.256 462.819 494.937 461.175 494.937 459.461C494.937 457.748 494.256 456.104 493.043 454.892C491.83 453.681 490.184 453 488.469 453C486.753 453 485.108 453.681 483.895 454.892C482.681 456.104 482 457.748 482 459.461C482.002 461.175 482.684 462.817 483.897 464.028C485.109 465.24 486.754 465.921 488.469 465.923Z" fill="black"/>
<path d="M484.469 488.923C486.184 488.923 487.83 488.242 489.043 487.03C490.256 485.819 490.937 484.175 490.937 482.461C490.937 480.748 490.256 479.104 489.043 477.892C487.83 476.681 486.184 476 484.469 476C482.753 476 481.108 476.681 479.895 477.892C478.681 479.104 478 480.748 478 482.461C478.002 484.175 478.684 485.817 479.897 487.028C481.109 488.24 482.754 488.921 484.469 488.923Z" fill="#8B8D8C"/>
<path d="M468.469 496.923C470.184 496.923 471.83 496.242 473.043 495.03C474.256 493.819 474.937 492.175 474.937 490.461C474.937 488.748 474.256 487.104 473.043 485.892C471.83 484.681 470.184 484 468.469 484C466.753 484 465.108 484.681 463.895 485.892C462.681 487.104 462 488.748 462 490.461C462.002 492.175 462.684 493.817 463.897 495.028C465.109 496.24 466.754 496.921 468.469 496.923Z" fill="black"/>
<path d="M525.469 488.923C527.184 488.923 528.83 488.242 530.043 487.03C531.256 485.819 531.937 484.175 531.937 482.461C531.937 480.748 531.256 479.104 530.043 477.892C528.83 476.681 527.184 476 525.469 476C523.753 476 522.108 476.681 520.895 477.892C519.681 479.104 519 480.748 519 482.461C519.002 484.175 519.684 485.817 520.897 487.028C522.109 488.24 523.754 488.921 525.469 488.923Z" fill="black"/>
<path d="M543.469 488.923C545.184 488.923 546.83 488.242 548.043 487.03C549.256 485.819 549.937 484.175 549.937 482.461C549.937 480.748 549.256 479.104 548.043 477.892C546.83 476.681 545.184 476 543.469 476C541.753 476 540.108 476.681 538.895 477.892C537.681 479.104 537 480.748 537 482.461C537.002 484.175 537.684 485.817 538.897 487.028C540.109 488.24 541.754 488.921 543.469 488.923Z" fill="black"/>
<path d="M561.469 488.923C563.184 488.923 564.83 488.242 566.043 487.03C567.256 485.819 567.937 484.175 567.937 482.461C567.937 480.748 567.256 479.104 566.043 477.892C564.83 476.681 563.184 476 561.469 476C559.753 476 558.108 476.681 556.895 477.892C555.681 479.104 555 480.748 555 482.461C555.002 484.175 555.684 485.817 556.897 487.028C558.109 488.24 559.754 488.921 561.469 488.923Z" fill="black"/>
<path d="M579.469 488.923C581.184 488.923 582.83 488.242 584.043 487.03C585.256 485.819 585.937 484.175 585.937 482.461C585.937 480.748 585.256 479.104 584.043 477.892C582.83 476.681 581.184 476 579.469 476C577.753 476 576.108 476.681 574.895 477.892C573.681 479.104 573 480.748 573 482.461C573.002 484.175 573.684 485.817 574.897 487.028C576.109 488.24 577.754 488.921 579.469 488.923Z" fill="black"/>
<rect x="489.5" y="426.5" width="35" height="84" rx="3.5" fill="white" stroke="black" stroke-linejoin="round"/>
<text fill="#003595" xml:space="preserve" style="white-space: pre" font-family="Oxygen Mono" font-size="12" letter-spacing="0em"><tspan x="502.896" y="439.935">D</tspan><tspan x="502.896" y="455.935">E</tspan><tspan x="502.896" y="471.935">M</tspan><tspan x="502.896" y="487.935">U</tspan><tspan x="502.896" y="503.935">X</tspan></text>
<text fill="black" xml:space="preserve" style="white-space: pre" font-family="Arial" font-size="18" letter-spacing="0em"><tspan x="450.42" y="539.74">Demultiplexing</tspan></text>
<text fill="black" xml:space="preserve" style="white-space: pre" font-family="Arial" font-size="18" letter-spacing="0em"><tspan x="1802.36" y="290.74">Cell type annotation</tspan></text>
<path d="M1875.36 212.867C1875.07 212.416 1874.56 212.139 1874.01 212.139H1861.65C1859.38 212.139 1857.27 213.301 1856.14 215.171L1851.37 223.04C1850.24 224.91 1850.24 227.233 1851.37 229.103L1856.14 236.972C1857.27 238.842 1859.38 240.004 1861.65 240.004H1874.01C1874.56 240.004 1875.07 239.727 1875.36 239.276L1883.15 226.838C1883.45 226.366 1883.45 225.777 1883.15 225.305L1875.36 212.867ZM1873.12 237.015H1861.65C1860.5 237.015 1859.43 236.426 1858.85 235.478L1854.09 227.609C1853.51 226.661 1853.51 225.483 1854.09 224.535L1858.85 216.666C1859.43 215.718 1860.5 215.129 1861.65 215.129H1873.12L1879.98 226.072L1873.12 237.015Z" fill="black"/>
<path d="M1922.2 203.497L1912.37 187.94L1915.61 181.921C1916 181.186 1915.7 180.286 1914.93 179.91C1914.15 179.534 1913.21 179.824 1912.82 180.559L1909.6 186.548L1888.66 187.505L1883.54 181.766C1882.98 181.138 1881.99 181.062 1881.33 181.596C1880.67 182.131 1880.59 183.075 1881.15 183.703L1886.08 189.228L1877.52 204.566C1877.21 205.13 1877 205.733 1876.88 206.349C1876.26 206.153 1875.59 206.048 1874.92 206.048H1855.98L1852.24 201.271C1851.72 200.609 1850.74 200.473 1850.04 200.967C1849.35 201.46 1849.21 202.397 1849.72 203.059L1853.32 207.648L1843.99 223.04C1842.86 224.911 1842.86 227.234 1843.99 229.104L1853.32 244.497L1849.72 249.099C1849.21 249.761 1849.35 250.697 1850.04 251.19C1850.74 251.683 1851.72 251.547 1852.24 250.884L1855.98 246.096H1876.72L1879.4 250.716C1879.82 251.433 1880.77 251.701 1881.53 251.298C1882.29 250.898 1882.57 249.988 1882.15 249.266L1879.45 244.629L1889.13 229.18C1889.52 228.55 1889.79 227.868 1889.92 227.17C1890.63 227.393 1891.37 227.501 1892.13 227.476L1910.91 226.883L1915.58 232.94C1916.09 233.604 1917.07 233.75 1917.77 233.261C1918.47 232.772 1918.62 231.837 1918.1 231.171L1913.53 225.237L1922.36 209.48C1923.41 207.609 1923.35 205.316 1922.2 203.497L1922.2 203.497ZM1886.44 227.648L1876.75 243.106H1856.1L1846.71 227.609C1846.13 226.66 1846.13 225.482 1846.71 224.534L1856.1 209.037H1874.92C1876.05 209.037 1877.11 209.61 1877.69 210.534L1886.44 224.495C1887.05 225.467 1887.05 226.675 1886.44 227.647L1886.44 227.648ZM1919.6 208.073L1910.73 223.898L1892.02 224.489C1890.85 224.523 1889.75 223.952 1889.15 222.992L1889.13 222.964C1889.13 222.963 1889.13 222.963 1889.13 222.962L1880.38 209.002C1880.38 209.001 1880.38 209 1880.38 209L1880.37 208.988C1879.8 208.07 1879.77 206.913 1880.29 205.969L1888.93 190.485L1909.72 189.535L1919.52 205.039C1920.1 205.961 1920.13 207.124 1919.6 208.073L1919.6 208.073Z" fill="black"/>
<path d="M1909.89 195.824C1908.68 193.911 1906.48 192.791 1904.14 192.895L1894.55 193.334C1892.32 193.436 1890.28 194.666 1889.23 196.544L1884.84 204.413C1883.82 206.257 1883.86 208.522 1884.97 210.324L1890.01 218.515C1891.22 220.483 1893.44 221.586 1895.71 221.51L1905.05 221.216C1907.33 221.143 1909.41 219.9 1910.47 217.97L1915.05 209.638C1916.07 207.775 1916 205.498 1914.86 203.696L1909.89 195.824ZM1912.27 208.251L1907.69 216.583C1907.15 217.562 1906.1 218.192 1904.94 218.229L1895.6 218.524C1894.42 218.559 1893.31 217.98 1892.71 217.005L1887.68 208.814C1887.12 207.9 1887.09 206.752 1887.61 205.817L1892 197.948C1892.53 196.996 1893.57 196.372 1894.7 196.32L1904.29 195.882C1905.47 195.827 1906.59 196.397 1907.2 197.367L1912.18 205.239C1912.76 206.153 1912.79 207.307 1912.27 208.252L1912.27 208.251Z" fill="black"/>
<path d="M1899.89 198.814C1896.32 198.814 1893.53 200.809 1893.53 203.355C1893.53 205.901 1896.32 207.895 1899.89 207.895C1903.46 207.895 1906.25 205.901 1906.25 203.355C1906.25 200.809 1903.46 198.814 1899.89 198.814ZM1899.89 204.906C1897.92 204.906 1896.66 203.987 1896.66 203.355C1896.66 202.722 1897.92 201.804 1899.89 201.804C1901.86 201.804 1903.11 202.722 1903.11 203.355C1903.11 203.987 1901.86 204.906 1899.89 204.906Z" fill="black"/>
<path d="M1865.86 218.754C1862.29 218.754 1859.5 220.748 1859.5 223.294C1859.5 225.84 1862.29 227.835 1865.86 227.835C1869.43 227.835 1872.22 225.84 1872.22 223.294C1872.22 220.748 1869.43 218.754 1865.86 218.754ZM1865.86 224.845C1863.89 224.845 1862.63 223.927 1862.63 223.294C1862.63 222.662 1863.89 221.743 1865.86 221.743C1867.83 221.743 1869.08 222.662 1869.08 223.294C1869.09 223.927 1867.83 224.845 1865.86 224.845Z" fill="black"/>
<path d="M1871.58 232.291C1871.58 233.116 1870.88 233.785 1870.01 233.785C1869.15 233.785 1868.45 233.116 1868.45 232.291C1868.45 231.466 1869.15 230.796 1870.01 230.796C1870.88 230.796 1871.58 231.466 1871.58 232.291Z" fill="black"/>
<path d="M1904.81 213.254C1904.81 214.079 1904.11 214.749 1903.24 214.749C1902.38 214.749 1901.68 214.08 1901.68 213.254C1901.68 212.429 1902.38 211.759 1903.24 211.759C1904.11 211.759 1904.81 212.429 1904.81 213.254Z" fill="black"/>
<path d="M1921 170H1903C1903 170 1903 178.609 1903 185" stroke="black" stroke-width="2" stroke-linecap="round" stroke-linejoin="round"/>
<path d="M1923 249H1899C1899 249 1899 236.5 1899 230.971" stroke="black" stroke-width="2" stroke-linecap="round" stroke-linejoin="round"/>
<path d="M1880 196H1857C1857 196 1857 179 1857 177.971" stroke="black" stroke-width="2" stroke-linecap="round" stroke-linejoin="round"/>
<path d="M1924 163H1958V174H1924V163Z" stroke="black" stroke-width="2"/>
<path d="M1925 242H1957V255H1925V242Z" stroke="black" stroke-width="2"/>
<path d="M1841 163H1868V174H1841V163Z" stroke="black" stroke-width="2"/>
<path d="M1810 236H1837V246H1810V236Z" stroke="black" stroke-width="2"/>
<path d="M1845 218H1835.29H1823V233" stroke="black" stroke-width="2" stroke-linecap="round" stroke-linejoin="round"/>
<path d="M741 469V470H742V469H741ZM741 322.5L735.226 332.5H746.774L741 322.5ZM597 470H741V468H597V470ZM742 469V331.5H740V469H742Z" fill="black"/>
<text fill="#266141" xml:space="preserve" style="white-space: pre" font-family="Arial" font-size="20" font-weight="bold" letter-spacing="0em"><tspan x="807.395" y="514.434">SCE Output Data</tspan></text>
</svg>
