<svg width="1681" height="599" viewBox="0 0 1681 599" fill="none" xmlns="http://www.w3.org/2000/svg">
<rect width="1681" height="599" fill="white"/>
<text fill="black" xml:space="preserve" style="white-space: pre" font-family="Arial" font-size="18" letter-spacing="0em"><tspan x="820.967" y="331.74">Merged </tspan><tspan x="824.465" y="352.74">Report</tspan></text>
<path d="M876.551 274.771H874.497V255.006C874.49 254.723 874.37 254.454 874.164 254.259L858.436 238.827C858.237 238.633 857.97 238.524 857.693 238.523H830.711C827.313 238.523 824.509 241.405 824.509 244.938V274.771H822.454C821.876 274.771 821.368 275.175 821.368 275.753V293.419C821.368 293.997 821.876 294.4 822.454 294.4H824.509V298.062C824.509 301.595 827.313 304.477 830.711 304.477H868.294C871.692 304.477 874.496 301.595 874.496 298.062V294.4H876.551C877.129 294.4 877.637 293.997 877.637 293.419V275.753C877.637 275.175 877.129 274.771 876.551 274.771L876.551 274.771ZM858.663 242.039L870.912 253.964H861.071C860.424 253.956 859.806 253.691 859.355 253.228C858.903 252.765 858.654 252.14 858.663 251.493L858.663 242.039ZM826.602 244.938C826.602 242.559 828.467 240.617 830.711 240.617H856.569V251.493C856.56 252.696 857.03 253.852 857.874 254.708C858.718 255.564 859.868 256.05 861.07 256.058H872.403V274.772H826.602L826.602 244.938ZM872.403 298.062C872.403 300.44 870.538 302.383 868.294 302.383H830.711C828.467 302.383 826.602 300.44 826.602 298.062V294.4H872.403L872.403 298.062ZM875.544 292.307H823.462V276.866H875.544V292.307Z" fill="black"/>
<text fill="black" xml:space="preserve" style="white-space: pre" font-family="Oxygen Mono" font-size="16" letter-spacing="0em"><tspan x="831.781" y="290.746">HTML</tspan></text>
<path d="M834.306 268.036V275.205C834.306 275.849 833.75 276.37 833.059 276.37L829.054 276.37C828.367 276.37 827.807 275.849 827.807 275.205V268.036C827.807 267.392 828.367 266.867 829.054 266.867H833.059C833.75 266.867 834.306 267.392 834.306 268.036Z" fill="black"/>
<path d="M829 262.615C829 261.803 829.706 261.141 830.572 261.141C830.849 261.141 831.108 261.207 831.334 261.326L836.967 255.476C836.788 255.234 836.689 254.938 836.689 254.638C836.689 253.822 837.395 253.16 838.261 253.16C839.127 253.16 839.833 253.822 839.833 254.638C839.833 254.771 839.814 254.894 839.776 255.018L845.061 257.625C845.348 257.294 845.786 257.096 846.266 257.096C846.562 257.096 846.849 257.171 847.094 257.316L853.329 251.281C853.169 251.051 853.075 250.773 853.075 250.478C853.075 249.662 853.781 249 854.651 249C855.517 249 856.223 249.662 856.223 250.478C856.223 251.29 855.517 251.951 854.651 251.951C854.35 251.951 854.073 251.872 853.837 251.735L847.598 257.779C847.758 258.013 847.842 258.287 847.842 258.569C847.842 259.381 847.137 260.042 846.266 260.042C845.4 260.042 844.694 259.381 844.694 258.569C844.694 258.45 844.708 258.326 844.741 258.212L839.447 255.595C839.155 255.922 838.723 256.112 838.261 256.112C837.988 256.112 837.725 256.045 837.489 255.922L831.861 261.767C832.045 262.006 832.148 262.297 832.148 262.614C832.148 263.431 831.442 264.092 830.572 264.092C829.706 264.092 829 263.431 829 262.615Z" fill="black"/>
<path d="M842 261.303V274.702C842 275.42 841.487 276 840.849 276H837.151C836.517 276 836 275.42 836 274.702L836 261.303C836 260.585 836.517 260 837.151 260H840.849C841.487 260 842 260.585 842 261.303Z" fill="black"/>
<path d="M850.23 264.815V275.205C850.23 275.849 849.675 276.37 848.983 276.37H844.979C844.292 276.37 843.732 275.849 843.732 275.205L843.732 264.815C843.732 264.171 844.292 263.646 844.979 263.646H848.983C849.675 263.646 850.23 264.171 850.23 264.815Z" fill="black"/>
<path d="M858 260.045V274.959C858 275.535 857.487 276 856.853 276H853.151C852.517 276 852 275.535 852 274.959L852 260.045C852 259.469 852.517 259 853.151 259H856.853C857.487 259 858 259.469 858 260.045Z" fill="black"/>
<text fill="black" xml:space="preserve" style="white-space: pre" font-family="Arial" font-size="18" letter-spacing="0em"><tspan x="1298.97" y="333.74">Merged </tspan><tspan x="1302.46" y="354.74">Report</tspan></text>
<path d="M1354.55 276.771H1352.5V257.006C1352.49 256.723 1352.37 256.454 1352.16 256.259L1336.44 240.827C1336.24 240.633 1335.97 240.524 1335.69 240.523H1308.71C1305.31 240.523 1302.51 243.405 1302.51 246.938V276.771H1300.45C1299.88 276.771 1299.37 277.175 1299.37 277.753V295.419C1299.37 295.997 1299.88 296.4 1300.45 296.4H1302.51V300.062C1302.51 303.595 1305.31 306.477 1308.71 306.477H1346.29C1349.69 306.477 1352.5 303.595 1352.5 300.062V296.4H1354.55C1355.13 296.4 1355.64 295.997 1355.64 295.419V277.753C1355.64 277.175 1355.13 276.771 1354.55 276.771L1354.55 276.771ZM1336.66 244.039L1348.91 255.964H1339.07C1338.42 255.956 1337.81 255.691 1337.35 255.228C1336.9 254.765 1336.65 254.14 1336.66 253.493L1336.66 244.039ZM1304.6 246.938C1304.6 244.559 1306.47 242.617 1308.71 242.617H1334.57V253.493C1334.56 254.696 1335.03 255.852 1335.87 256.708C1336.72 257.564 1337.87 258.05 1339.07 258.058H1350.4V276.772H1304.6L1304.6 246.938ZM1350.4 300.062C1350.4 302.44 1348.54 304.383 1346.29 304.383H1308.71C1306.47 304.383 1304.6 302.44 1304.6 300.062V296.4H1350.4L1350.4 300.062ZM1353.54 294.307H1301.46V278.866H1353.54V294.307Z" fill="black"/>
<text fill="black" xml:space="preserve" style="white-space: pre" font-family="Oxygen Mono" font-size="16" letter-spacing="0em"><tspan x="1309.78" y="292.746">HTML</tspan></text>
<path d="M1312.31 270.036V277.205C1312.31 277.849 1311.75 278.37 1311.06 278.37L1307.05 278.37C1306.37 278.37 1305.81 277.849 1305.81 277.205V270.036C1305.81 269.392 1306.37 268.867 1307.05 268.867H1311.06C1311.75 268.867 1312.31 269.392 1312.31 270.036Z" fill="black"/>
<path d="M1307 264.615C1307 263.803 1307.71 263.141 1308.57 263.141C1308.85 263.141 1309.11 263.207 1309.33 263.326L1314.97 257.476C1314.79 257.234 1314.69 256.938 1314.69 256.638C1314.69 255.822 1315.4 255.16 1316.26 255.16C1317.13 255.16 1317.83 255.822 1317.83 256.638C1317.83 256.771 1317.81 256.894 1317.78 257.018L1323.06 259.625C1323.35 259.294 1323.79 259.096 1324.27 259.096C1324.56 259.096 1324.85 259.171 1325.09 259.316L1331.33 253.281C1331.17 253.051 1331.08 252.773 1331.08 252.478C1331.08 251.662 1331.78 251 1332.65 251C1333.52 251 1334.22 251.662 1334.22 252.478C1334.22 253.29 1333.52 253.951 1332.65 253.951C1332.35 253.951 1332.07 253.872 1331.84 253.735L1325.6 259.779C1325.76 260.013 1325.84 260.287 1325.84 260.569C1325.84 261.381 1325.14 262.042 1324.27 262.042C1323.4 262.042 1322.69 261.381 1322.69 260.569C1322.69 260.45 1322.71 260.326 1322.74 260.212L1317.45 257.595C1317.16 257.922 1316.72 258.112 1316.26 258.112C1315.99 258.112 1315.72 258.045 1315.49 257.922L1309.86 263.767C1310.04 264.006 1310.15 264.297 1310.15 264.614C1310.15 265.431 1309.44 266.092 1308.57 266.092C1307.71 266.092 1307 265.431 1307 264.615Z" fill="black"/>
<path d="M1320 263.303V276.702C1320 277.42 1319.49 278 1318.85 278H1315.15C1314.52 278 1314 277.42 1314 276.702L1314 263.303C1314 262.585 1314.52 262 1315.15 262H1318.85C1319.49 262 1320 262.585 1320 263.303Z" fill="black"/>
<path d="M1328.23 266.815V277.205C1328.23 277.849 1327.68 278.37 1326.98 278.37H1322.98C1322.29 278.37 1321.73 277.849 1321.73 277.205L1321.73 266.815C1321.73 266.171 1322.29 265.646 1322.98 265.646H1326.98C1327.68 265.646 1328.23 266.171 1328.23 266.815Z" fill="black"/>
<path d="M1336 262.045V276.959C1336 277.535 1335.49 278 1334.85 278H1331.15C1330.52 278 1330 277.535 1330 276.959L1330 262.045C1330 261.469 1330.52 261 1331.15 261H1334.85C1335.49 261 1336 261.469 1336 262.045Z" fill="black"/>
<path d="M375 274.5L365 268.726V280.274L375 274.5ZM204 69H205V68H204V69ZM204 473V474H205V473H204ZM204 275.5H366V273.5H204V275.5ZM205 274.5V69H203V274.5H205ZM204 68H123.5V70H204V68ZM204 273.5H123.5V275.5H204V273.5ZM204 472H123.5V474H204V472ZM205 473V274.5H203V473H205Z" fill="black"/>
<text fill="#266141" xml:space="preserve" style="white-space: pre" font-family="Arial" font-size="18" letter-spacing="0em"><tspan x="31.9375" y="143.74">SCE</tspan></text>
<text fill="black" xml:space="preserve" style="white-space: pre" font-family="Arial" font-size="18" letter-spacing="0em"><tspan x="43.9609" y="122.74">Processed </tspan><tspan x="68.957" y="143.74"> Object 1</tspan></text>
<path d="M106.551 65.7713H104.497V46.0063C104.49 45.7228 104.37 45.4541 104.164 45.2591L88.4357 29.8268C88.2366 29.6333 87.9703 29.5245 87.6926 29.5232H60.7111C57.3125 29.5232 54.5086 32.4049 54.5086 35.9379V65.7713H52.4541C51.876 65.7713 51.368 66.175 51.368 66.7527V84.419C51.368 84.9971 51.8757 85.4004 52.4541 85.4004H54.5086V89.0621C54.5086 92.5953 57.3127 95.4768 60.7111 95.4768H98.2937C101.692 95.4768 104.496 92.595 104.496 89.0621V85.4004H106.551C107.129 85.4004 107.637 84.9967 107.637 84.419V66.7527C107.637 66.175 107.13 65.7713 106.551 65.7713ZM88.6628 33.039L100.912 44.9645H91.0709C90.4238 44.9564 89.8064 44.6914 89.3547 44.228C88.9032 43.7645 88.6544 43.1404 88.6631 42.4932L88.6628 33.039ZM56.6022 35.9378C56.6022 33.5594 58.4669 31.617 60.7112 31.617H86.5687V42.4934C86.5604 43.6955 87.03 44.8519 87.8743 45.7079C88.7183 46.5642 89.8681 47.0499 91.0703 47.0584H102.403V65.7715H56.6021L56.6022 35.9378ZM102.403 89.0621C102.403 91.4405 100.538 93.3829 98.2938 93.3829H60.7113C58.4671 93.3829 56.6023 91.4405 56.6023 89.0621V85.4004H102.403L102.403 89.0621Z" fill="#003595"/>
<text fill="white" xml:space="preserve" style="white-space: pre" font-family="Oxygen Mono" font-size="16" letter-spacing="0em"><tspan x="66.0859" y="81.7461">OBJ</tspan></text>
<path d="M71.4988 37.3689V34.5564C71.05 34.6102 70.6055 34.6778 70.1685 34.7662V36.8184L59.2499 47.7361H57.1982C57.1096 48.1731 57.0418 48.6178 56.9884 49.0664H59.8013L71.4988 37.3689Z" fill="#003595"/>
<path d="M67.681 61.7866L66.114 65.9643C66.5112 66.1615 66.9173 66.3419 67.3315 66.5072L68.6642 62.9536L81.8274 60.2732L85.4577 62.9279C85.5149 62.8651 86.1107 61.7667 86.1107 61.7667L81.9057 58.8679L67.681 61.7866Z" fill="#003595"/>
<path d="M84.7618 46.1235L88.404 43.6952C88.2204 43.3237 88.0226 42.9602 87.8123 42.605L87.7594 42.5259L83.5126 45.3567L82.1003 57.3604L86.9521 60.8259C87.2126 60.4676 87.4613 60.1002 87.6932 59.7208L83.5136 56.7355L84.7618 46.1235Z" fill="#003595"/>
<path d="M87.0954 41.6792L86.7974 41.0833C86.6616 40.9025 86.5211 40.725 86.3783 40.5498L82.836 42.3213L73.4942 36.7165V34.4324C73.0459 34.4324 72.6032 34.4554 72.1639 34.49V37.4698L82.7775 43.8378L87.0954 41.6792Z" fill="#003595"/>
<path d="M69.5032 46.4058C66.9357 46.4058 64.8469 48.495 64.8469 51.062C64.8469 53.6291 66.9357 55.7183 69.5032 55.7183C72.0707 55.7183 74.1595 53.6291 74.1595 51.062C74.1593 48.4949 72.0706 46.4058 69.5032 46.4058ZM69.5032 54.388C67.6693 54.388 66.1773 52.896 66.1773 51.0621C66.1773 49.2281 67.6693 47.7362 69.5032 47.7362C71.3371 47.7362 72.8291 49.2281 72.8291 51.0621C72.8291 52.896 71.3371 54.388 69.5032 54.388Z" fill="#003595"/>
<path d="M75.8224 47.0709C77.1059 47.0709 78.1506 46.0262 78.1506 44.7427C78.1506 43.4592 77.1059 42.4146 75.8224 42.4146C74.539 42.4146 73.4943 43.4592 73.4943 44.7427C73.4943 46.0262 74.539 47.0709 75.8224 47.0709ZM75.8224 43.745C76.3729 43.745 76.8202 44.1924 76.8202 44.7428C76.8202 45.2933 76.3728 45.7405 75.8224 45.7405C75.2719 45.7405 74.8247 45.2931 74.8247 44.7428C74.8247 44.1923 75.2719 43.745 75.8224 43.745Z" fill="#003595"/>
<path d="M79.6933 52.3577L79.481 51.7267L79.2707 51.0957C79.1822 51.1247 77.0906 51.8395 76.4475 53.5789C76.0878 54.55 76.2456 55.6082 76.915 56.725L78.0556 56.0402C77.605 55.2894 77.4832 54.6175 77.693 54.0446C78.111 52.9063 79.6773 52.3629 79.6933 52.3577Z" fill="#003595"/>
<path d="M89.4594 52.3925C89.4594 53.1271 88.8638 53.7227 88.129 53.7227C87.3943 53.7227 86.7987 53.1271 86.7987 52.3925C86.7987 51.6576 87.3943 51.062 88.129 51.062C88.8638 51.062 89.4594 51.6576 89.4594 52.3925Z" fill="#003595"/>
<path d="M76.8202 63.7004C74.9863 63.7004 73.4943 65.1924 73.4943 67.0263C73.4943 67.2535 73.5178 67.4751 73.5613 67.6896C74.0213 67.6878 74.4762 67.6643 74.9268 67.6259C74.8664 67.4353 74.8246 67.2366 74.8246 67.0263C74.8246 65.926 75.7199 65.0307 76.8202 65.0307C77.8511 65.0307 78.6921 65.8191 78.7952 66.8235C79.229 66.6779 79.6552 66.5172 80.0721 66.3372C79.7536 64.8331 78.4177 63.7004 76.8202 63.7004Z" fill="#003595"/>
<path d="M58.5277 57.0486C58.3473 57.0486 58.1773 57.0848 58.0147 57.1377C58.4171 58.1621 58.9179 59.1365 59.5062 60.0505C59.9194 59.7478 60.1905 59.263 60.1905 58.7116C60.1905 57.7931 59.4463 57.0486 58.5276 57.0486L58.5277 57.0486Z" fill="#003595"/>
<path d="M63.3787 38.2854L64.3194 39.2261L60.661 42.8846L59.7203 41.9439L63.3787 38.2854Z" fill="#003595"/>
<path d="M59.9061 49.7317H56.9225C56.8879 50.1712 56.8649 50.6138 56.8649 51.062H59.1451L65.4429 61.7685L64.2691 64.8982C64.6439 65.1489 65.0303 65.3831 65.4262 65.6031L66.9115 61.6409L59.9061 49.7317Z" fill="#003595"/>
<path d="M504.551 241.771H502.497V222.006C502.49 221.723 502.37 221.454 502.164 221.259L486.436 205.827C486.237 205.633 485.97 205.524 485.693 205.523H458.711C455.313 205.523 452.509 208.405 452.509 211.938V241.771H450.454C449.876 241.771 449.368 242.175 449.368 242.753V260.419C449.368 260.997 449.876 261.4 450.454 261.4H452.509V265.062C452.509 268.595 455.313 271.477 458.711 271.477H496.294C499.692 271.477 502.496 268.595 502.496 265.062V261.4H504.551C505.129 261.4 505.637 260.997 505.637 260.419V242.753C505.637 242.175 505.13 241.771 504.551 241.771ZM486.663 209.039L498.912 220.964H489.071C488.424 220.956 487.806 220.691 487.355 220.228C486.903 219.765 486.654 219.14 486.663 218.493L486.663 209.039ZM454.602 211.938C454.602 209.559 456.467 207.617 458.711 207.617H484.569V218.493C484.56 219.696 485.03 220.852 485.874 221.708C486.718 222.564 487.868 223.05 489.07 223.058H500.403V241.772H454.602L454.602 211.938ZM500.403 265.062C500.403 267.44 498.538 269.383 496.294 269.383H458.711C456.467 269.383 454.602 267.44 454.602 265.062V261.4H500.403L500.403 265.062Z" fill="#003595"/>
<text fill="white" xml:space="preserve" style="white-space: pre" font-family="Oxygen Mono" font-size="16" letter-spacing="0em"><tspan x="464.086" y="257.746">OBJ</tspan></text>
<path d="M469.499 213.369V210.556C469.05 210.61 468.605 210.678 468.168 210.766V212.818L457.25 223.736H455.198C455.11 224.173 455.042 224.618 454.988 225.066H457.801L469.499 213.369Z" fill="#003595"/>
<path d="M465.681 237.787L464.114 241.964C464.511 242.162 464.917 242.342 465.331 242.507L466.664 238.954L479.827 236.273L483.458 238.928C483.515 238.865 484.111 237.767 484.111 237.767L479.906 234.868L465.681 237.787Z" fill="#003595"/>
<path d="M482.762 222.123L486.404 219.695C486.22 219.324 486.023 218.96 485.812 218.605L485.759 218.526L481.513 221.357L480.1 233.36L484.952 236.826C485.213 236.468 485.461 236.1 485.693 235.721L481.514 232.735L482.762 222.123Z" fill="#003595"/>
<path d="M485.095 217.679L484.797 217.083C484.662 216.902 484.521 216.725 484.378 216.55L480.836 218.321L471.494 212.716V210.432C471.046 210.432 470.603 210.455 470.164 210.49V213.47L480.778 219.838L485.095 217.679Z" fill="#003595"/>
<path d="M467.503 222.406C464.936 222.406 462.847 224.495 462.847 227.062C462.847 229.629 464.936 231.718 467.503 231.718C470.071 231.718 472.159 229.629 472.159 227.062C472.159 224.495 470.071 222.406 467.503 222.406ZM467.503 230.388C465.669 230.388 464.177 228.896 464.177 227.062C464.177 225.228 465.669 223.736 467.503 223.736C469.337 223.736 470.829 225.228 470.829 227.062C470.829 228.896 469.337 230.388 467.503 230.388Z" fill="#003595"/>
<path d="M473.822 223.071C475.106 223.071 476.151 222.026 476.151 220.743C476.151 219.459 475.106 218.415 473.822 218.415C472.539 218.415 471.494 219.459 471.494 220.743C471.494 222.026 472.539 223.071 473.822 223.071ZM473.822 219.745C474.373 219.745 474.82 220.192 474.82 220.743C474.82 221.293 474.373 221.741 473.822 221.741C473.272 221.741 472.825 221.293 472.825 220.743C472.825 220.192 473.272 219.745 473.822 219.745Z" fill="#003595"/>
<path d="M477.693 228.358L477.481 227.727L477.271 227.096C477.182 227.125 475.091 227.84 474.448 229.579C474.088 230.55 474.246 231.608 474.915 232.725L476.056 232.04C475.605 231.289 475.483 230.618 475.693 230.045C476.111 228.906 477.677 228.363 477.693 228.358Z" fill="#003595"/>
<path d="M487.459 228.392C487.459 229.127 486.864 229.723 486.129 229.723C485.394 229.723 484.799 229.127 484.799 228.392C484.799 227.658 485.394 227.062 486.129 227.062C486.864 227.062 487.459 227.658 487.459 228.392Z" fill="#003595"/>
<path d="M474.82 239.7C472.986 239.7 471.494 241.192 471.494 243.026C471.494 243.254 471.518 243.475 471.561 243.69C472.021 243.688 472.476 243.664 472.927 243.626C472.866 243.435 472.825 243.237 472.825 243.026C472.825 241.926 473.72 241.031 474.82 241.031C475.851 241.031 476.692 241.819 476.795 242.824C477.229 242.678 477.655 242.517 478.072 242.337C477.754 240.833 476.418 239.7 474.82 239.7Z" fill="#003595"/>
<path d="M456.528 233.049C456.347 233.049 456.177 233.085 456.015 233.138C456.417 234.162 456.918 235.136 457.506 236.05C457.919 235.748 458.191 235.263 458.191 234.712C458.191 233.793 457.446 233.049 456.528 233.049L456.528 233.049Z" fill="#003595"/>
<path d="M461.379 214.285L462.32 215.226L458.661 218.885L457.72 217.944L461.379 214.285Z" fill="#003595"/>
<path d="M457.906 225.732H454.923C454.888 226.171 454.865 226.614 454.865 227.062H457.145L463.443 237.769L462.269 240.898C462.644 241.149 463.03 241.383 463.426 241.603L464.912 237.641L457.906 225.732Z" fill="#003595"/>
<text fill="#266141" xml:space="preserve" style="white-space: pre" font-family="Arial" font-size="18" letter-spacing="0em"><tspan x="31.4375" y="345.74">SCE</tspan></text>
<text fill="black" xml:space="preserve" style="white-space: pre" font-family="Arial" font-size="18" letter-spacing="0em"><tspan x="43.4609" y="324.74">Processed </tspan><tspan x="68.457" y="345.74"> Object 2</tspan></text>
<path d="M112.551 267.771H110.497V248.006C110.49 247.723 110.37 247.454 110.164 247.259L94.4357 231.827C94.2366 231.633 93.9703 231.524 93.6926 231.523H66.7111C63.3125 231.523 60.5086 234.405 60.5086 237.938V267.771H58.4541C57.876 267.771 57.368 268.175 57.368 268.753V286.419C57.368 286.997 57.8757 287.4 58.4541 287.4H60.5086V291.062C60.5086 294.595 63.3127 297.477 66.7111 297.477H104.294C107.692 297.477 110.496 294.595 110.496 291.062V287.4H112.551C113.129 287.4 113.637 286.997 113.637 286.419V268.753C113.637 268.175 113.13 267.771 112.551 267.771ZM94.6628 235.039L106.912 246.964H97.0709C96.4238 246.956 95.8064 246.691 95.3547 246.228C94.9032 245.765 94.6544 245.14 94.6631 244.493L94.6628 235.039ZM62.6022 237.938C62.6022 235.559 64.4669 233.617 66.7112 233.617H92.5687V244.493C92.5604 245.696 93.03 246.852 93.8743 247.708C94.7183 248.564 95.8681 249.05 97.0703 249.058H108.403V267.772H62.6021L62.6022 237.938ZM108.403 291.062C108.403 293.44 106.538 295.383 104.294 295.383H66.7113C64.4671 295.383 62.6023 293.44 62.6023 291.062V287.4H108.403L108.403 291.062Z" fill="#266141"/>
<text fill="white" xml:space="preserve" style="white-space: pre" font-family="Oxygen Mono" font-size="16" letter-spacing="0em"><tspan x="72.0859" y="283.746">OBJ</tspan></text>
<path d="M77.4988 239.369V236.556C77.05 236.61 76.6055 236.678 76.1685 236.766V238.818L65.2499 249.736H63.1982C63.1096 250.173 63.0418 250.618 62.9884 251.066H65.8013L77.4988 239.369Z" fill="#266141"/>
<path d="M73.681 263.787L72.114 267.964C72.5112 268.162 72.9173 268.342 73.3315 268.507L74.6642 264.954L87.8274 262.273L91.4577 264.928C91.5149 264.865 92.1107 263.767 92.1107 263.767L87.9057 260.868L73.681 263.787Z" fill="#266141"/>
<path d="M90.7618 248.123L94.404 245.695C94.2204 245.324 94.0226 244.96 93.8123 244.605L93.7594 244.526L89.5126 247.357L88.1003 259.36L92.9521 262.826C93.2126 262.468 93.4613 262.1 93.6932 261.721L89.5136 258.735L90.7618 248.123Z" fill="#266141"/>
<path d="M93.0954 243.679L92.7974 243.083C92.6616 242.902 92.5211 242.725 92.3783 242.55L88.836 244.321L79.4942 238.716V236.432C79.0459 236.432 78.6032 236.455 78.1639 236.49V239.47L88.7775 245.838L93.0954 243.679Z" fill="#266141"/>
<path d="M75.5032 248.406C72.9357 248.406 70.8469 250.495 70.8469 253.062C70.8469 255.629 72.9357 257.718 75.5032 257.718C78.0707 257.718 80.1595 255.629 80.1595 253.062C80.1593 250.495 78.0706 248.406 75.5032 248.406ZM75.5032 256.388C73.6693 256.388 72.1773 254.896 72.1773 253.062C72.1773 251.228 73.6693 249.736 75.5032 249.736C77.3371 249.736 78.8291 251.228 78.8291 253.062C78.8291 254.896 77.3371 256.388 75.5032 256.388Z" fill="#266141"/>
<path d="M81.8224 249.071C83.1059 249.071 84.1506 248.026 84.1506 246.743C84.1506 245.459 83.1059 244.415 81.8224 244.415C80.539 244.415 79.4943 245.459 79.4943 246.743C79.4943 248.026 80.539 249.071 81.8224 249.071ZM81.8224 245.745C82.3729 245.745 82.8202 246.192 82.8202 246.743C82.8202 247.293 82.3728 247.741 81.8224 247.741C81.2719 247.741 80.8247 247.293 80.8247 246.743C80.8247 246.192 81.2719 245.745 81.8224 245.745Z" fill="#266141"/>
<path d="M85.6933 254.358L85.481 253.727L85.2707 253.096C85.1822 253.125 83.0906 253.84 82.4475 255.579C82.0878 256.55 82.2456 257.608 82.915 258.725L84.0556 258.04C83.605 257.289 83.4832 256.618 83.693 256.045C84.111 254.906 85.6773 254.363 85.6933 254.358Z" fill="#266141"/>
<path d="M95.4594 254.392C95.4594 255.127 94.8638 255.723 94.129 255.723C93.3943 255.723 92.7987 255.127 92.7987 254.392C92.7987 253.658 93.3943 253.062 94.129 253.062C94.8638 253.062 95.4594 253.658 95.4594 254.392Z" fill="#266141"/>
<path d="M82.8202 265.7C80.9863 265.7 79.4943 267.192 79.4943 269.026C79.4943 269.254 79.5178 269.475 79.5613 269.69C80.0213 269.688 80.4762 269.664 80.9268 269.626C80.8664 269.435 80.8246 269.237 80.8246 269.026C80.8246 267.926 81.7199 267.031 82.8202 267.031C83.8511 267.031 84.6921 267.819 84.7952 268.824C85.229 268.678 85.6552 268.517 86.0721 268.337C85.7536 266.833 84.4177 265.7 82.8202 265.7Z" fill="#266141"/>
<path d="M64.5277 259.049C64.3473 259.049 64.1773 259.085 64.0147 259.138C64.4171 260.162 64.9179 261.136 65.5062 262.05C65.9194 261.748 66.1905 261.263 66.1905 260.712C66.1905 259.793 65.4463 259.049 64.5276 259.049L64.5277 259.049Z" fill="#266141"/>
<path d="M69.3787 240.285L70.3194 241.226L66.661 244.885L65.7203 243.944L69.3787 240.285Z" fill="#266141"/>
<path d="M65.9061 251.732H62.9225C62.8879 252.171 62.8649 252.614 62.8649 253.062H65.1451L71.4429 263.769L70.2691 266.898C70.6439 267.149 71.0303 267.383 71.4262 267.603L72.9115 263.641L65.9061 251.732Z" fill="#266141"/>
<path d="M448.551 281.771H446.497V262.006C446.49 261.723 446.37 261.454 446.164 261.259L430.436 245.827C430.237 245.633 429.97 245.524 429.693 245.523H402.711C399.313 245.523 396.509 248.405 396.509 251.938V281.771H394.454C393.876 281.771 393.368 282.175 393.368 282.753V300.419C393.368 300.997 393.876 301.4 394.454 301.4H396.509V305.062C396.509 308.595 399.313 311.477 402.711 311.477H440.294C443.692 311.477 446.496 308.595 446.496 305.062V301.4H448.551C449.129 301.4 449.637 300.997 449.637 300.419V282.753C449.637 282.175 449.13 281.771 448.551 281.771ZM430.663 249.039L442.912 260.964H433.071C432.424 260.956 431.806 260.691 431.355 260.228C430.903 259.765 430.654 259.14 430.663 258.493L430.663 249.039ZM398.602 251.938C398.602 249.559 400.467 247.617 402.711 247.617H428.569V258.493C428.56 259.696 429.03 260.852 429.874 261.708C430.718 262.564 431.868 263.05 433.07 263.058H444.403V281.772H398.602L398.602 251.938ZM444.403 305.062C444.403 307.44 442.538 309.383 440.294 309.383H402.711C400.467 309.383 398.602 307.44 398.602 305.062V301.4H444.403L444.403 305.062Z" fill="#266141"/>
<text fill="white" xml:space="preserve" style="white-space: pre" font-family="Oxygen Mono" font-size="16" letter-spacing="0em"><tspan x="408.086" y="297.746">OBJ</tspan></text>
<path d="M413.499 253.369V250.556C413.05 250.61 412.605 250.678 412.168 250.766V252.818L401.25 263.736H399.198C399.11 264.173 399.042 264.618 398.988 265.066H401.801L413.499 253.369Z" fill="#266141"/>
<path d="M409.681 277.787L408.114 281.964C408.511 282.162 408.917 282.342 409.331 282.507L410.664 278.954L423.827 276.273L427.458 278.928C427.515 278.865 428.111 277.767 428.111 277.767L423.906 274.868L409.681 277.787Z" fill="#266141"/>
<path d="M426.762 262.123L430.404 259.695C430.22 259.324 430.023 258.96 429.812 258.605L429.759 258.526L425.513 261.357L424.1 273.36L428.952 276.826C429.213 276.468 429.461 276.1 429.693 275.721L425.514 272.735L426.762 262.123Z" fill="#266141"/>
<path d="M429.095 257.679L428.797 257.083C428.662 256.902 428.521 256.725 428.378 256.55L424.836 258.321L415.494 252.716V250.432C415.046 250.432 414.603 250.455 414.164 250.49V253.47L424.778 259.838L429.095 257.679Z" fill="#266141"/>
<path d="M411.503 262.406C408.936 262.406 406.847 264.495 406.847 267.062C406.847 269.629 408.936 271.718 411.503 271.718C414.071 271.718 416.159 269.629 416.159 267.062C416.159 264.495 414.071 262.406 411.503 262.406ZM411.503 270.388C409.669 270.388 408.177 268.896 408.177 267.062C408.177 265.228 409.669 263.736 411.503 263.736C413.337 263.736 414.829 265.228 414.829 267.062C414.829 268.896 413.337 270.388 411.503 270.388Z" fill="#266141"/>
<path d="M417.822 263.071C419.106 263.071 420.151 262.026 420.151 260.743C420.151 259.459 419.106 258.415 417.822 258.415C416.539 258.415 415.494 259.459 415.494 260.743C415.494 262.026 416.539 263.071 417.822 263.071ZM417.822 259.745C418.373 259.745 418.82 260.192 418.82 260.743C418.82 261.293 418.373 261.741 417.822 261.741C417.272 261.741 416.825 261.293 416.825 260.743C416.825 260.192 417.272 259.745 417.822 259.745Z" fill="#266141"/>
<path d="M421.693 268.358L421.481 267.727L421.271 267.096C421.182 267.125 419.091 267.84 418.448 269.579C418.088 270.55 418.246 271.608 418.915 272.725L420.056 272.04C419.605 271.289 419.483 270.618 419.693 270.045C420.111 268.906 421.677 268.363 421.693 268.358Z" fill="#266141"/>
<path d="M431.459 268.392C431.459 269.127 430.864 269.723 430.129 269.723C429.394 269.723 428.799 269.127 428.799 268.392C428.799 267.658 429.394 267.062 430.129 267.062C430.864 267.062 431.459 267.658 431.459 268.392Z" fill="#266141"/>
<path d="M418.82 279.7C416.986 279.7 415.494 281.192 415.494 283.026C415.494 283.254 415.518 283.475 415.561 283.69C416.021 283.688 416.476 283.664 416.927 283.626C416.866 283.435 416.825 283.237 416.825 283.026C416.825 281.926 417.72 281.031 418.82 281.031C419.851 281.031 420.692 281.819 420.795 282.824C421.229 282.678 421.655 282.517 422.072 282.337C421.754 280.833 420.418 279.7 418.82 279.7Z" fill="#266141"/>
<path d="M400.528 273.049C400.347 273.049 400.177 273.085 400.015 273.138C400.417 274.162 400.918 275.136 401.506 276.05C401.919 275.748 402.191 275.263 402.191 274.712C402.191 273.793 401.446 273.049 400.528 273.049L400.528 273.049Z" fill="#266141"/>
<path d="M405.379 254.285L406.32 255.226L402.661 258.885L401.72 257.944L405.379 254.285Z" fill="#266141"/>
<path d="M401.906 265.732H398.923C398.888 266.171 398.865 266.614 398.865 267.062H401.145L407.443 277.769L406.269 280.898C406.644 281.149 407.03 281.383 407.426 281.603L408.912 277.641L401.906 265.732Z" fill="#266141"/>
<text fill="#266141" xml:space="preserve" style="white-space: pre" font-family="Arial" font-size="18" letter-spacing="0em"><tspan x="35.9375" y="547.74">SCE</tspan></text>
<text fill="black" xml:space="preserve" style="white-space: pre" font-family="Arial" font-size="18" letter-spacing="0em"><tspan x="47.9609" y="526.74">Processed </tspan><tspan x="72.957" y="547.74"> Object 3</tspan></text>
<path d="M117.551 469.771H115.497V450.006C115.49 449.723 115.37 449.454 115.164 449.259L99.4357 433.827C99.2366 433.633 98.9703 433.524 98.6926 433.523H71.7111C68.3125 433.523 65.5086 436.405 65.5086 439.938V469.771H63.4541C62.876 469.771 62.368 470.175 62.368 470.753V488.419C62.368 488.997 62.8757 489.4 63.4541 489.4H65.5086V493.062C65.5086 496.595 68.3127 499.477 71.7111 499.477H109.294C112.692 499.477 115.496 496.595 115.496 493.062V489.4H117.551C118.129 489.4 118.637 488.997 118.637 488.419V470.753C118.637 470.175 118.13 469.771 117.551 469.771ZM99.6628 437.039L111.912 448.964H102.071C101.424 448.956 100.806 448.691 100.355 448.228C99.9032 447.765 99.6544 447.14 99.6631 446.493L99.6628 437.039ZM67.6022 439.938C67.6022 437.559 69.4669 435.617 71.7112 435.617H97.5687V446.493C97.5604 447.696 98.03 448.852 98.8743 449.708C99.7183 450.564 100.868 451.05 102.07 451.058H113.403V469.772H67.6021L67.6022 439.938ZM113.403 493.062C113.403 495.44 111.538 497.383 109.294 497.383H71.7113C69.4671 497.383 67.6023 495.44 67.6023 493.062V489.4H113.403L113.403 493.062Z" fill="#7025BC"/>
<text fill="white" xml:space="preserve" style="white-space: pre" font-family="Oxygen Mono" font-size="16" letter-spacing="0em"><tspan x="77.0859" y="485.746">OBJ</tspan></text>
<path d="M82.4988 441.369V438.556C82.05 438.61 81.6055 438.678 81.1685 438.766V440.818L70.2499 451.736H68.1982C68.1096 452.173 68.0418 452.618 67.9884 453.066H70.8013L82.4988 441.369Z" fill="#7025BC"/>
<path d="M78.681 465.787L77.114 469.964C77.5112 470.162 77.9173 470.342 78.3315 470.507L79.6642 466.954L92.8274 464.273L96.4577 466.928C96.5149 466.865 97.1107 465.767 97.1107 465.767L92.9057 462.868L78.681 465.787Z" fill="#7025BC"/>
<path d="M95.7618 450.123L99.404 447.695C99.2204 447.324 99.0226 446.96 98.8123 446.605L98.7594 446.526L94.5126 449.357L93.1003 461.36L97.9521 464.826C98.2126 464.468 98.4613 464.1 98.6932 463.721L94.5136 460.735L95.7618 450.123Z" fill="#7025BC"/>
<path d="M98.0954 445.679L97.7974 445.083C97.6616 444.902 97.5211 444.725 97.3783 444.55L93.836 446.321L84.4942 440.716V438.432C84.0459 438.432 83.6032 438.455 83.1639 438.49V441.47L93.7775 447.838L98.0954 445.679Z" fill="#7025BC"/>
<path d="M80.5032 450.406C77.9357 450.406 75.8469 452.495 75.8469 455.062C75.8469 457.629 77.9357 459.718 80.5032 459.718C83.0707 459.718 85.1595 457.629 85.1595 455.062C85.1593 452.495 83.0706 450.406 80.5032 450.406ZM80.5032 458.388C78.6693 458.388 77.1773 456.896 77.1773 455.062C77.1773 453.228 78.6693 451.736 80.5032 451.736C82.3371 451.736 83.8291 453.228 83.8291 455.062C83.8291 456.896 82.3371 458.388 80.5032 458.388Z" fill="#7025BC"/>
<path d="M86.8224 451.071C88.1059 451.071 89.1506 450.026 89.1506 448.743C89.1506 447.459 88.1059 446.415 86.8224 446.415C85.539 446.415 84.4943 447.459 84.4943 448.743C84.4943 450.026 85.539 451.071 86.8224 451.071ZM86.8224 447.745C87.3729 447.745 87.8202 448.192 87.8202 448.743C87.8202 449.293 87.3728 449.741 86.8224 449.741C86.2719 449.741 85.8247 449.293 85.8247 448.743C85.8247 448.192 86.2719 447.745 86.8224 447.745Z" fill="#7025BC"/>
<path d="M90.6933 456.358L90.481 455.727L90.2707 455.096C90.1822 455.125 88.0906 455.84 87.4475 457.579C87.0878 458.55 87.2456 459.608 87.915 460.725L89.0556 460.04C88.605 459.289 88.4832 458.618 88.693 458.045C89.111 456.906 90.6773 456.363 90.6933 456.358Z" fill="#7025BC"/>
<path d="M100.459 456.392C100.459 457.127 99.8638 457.723 99.129 457.723C98.3943 457.723 97.7987 457.127 97.7987 456.392C97.7987 455.658 98.3943 455.062 99.129 455.062C99.8638 455.062 100.459 455.658 100.459 456.392Z" fill="#7025BC"/>
<path d="M87.8202 467.7C85.9863 467.7 84.4943 469.192 84.4943 471.026C84.4943 471.254 84.5178 471.475 84.5613 471.69C85.0213 471.688 85.4762 471.664 85.9268 471.626C85.8664 471.435 85.8246 471.237 85.8246 471.026C85.8246 469.926 86.7199 469.031 87.8202 469.031C88.8511 469.031 89.6921 469.819 89.7952 470.824C90.229 470.678 90.6552 470.517 91.0721 470.337C90.7536 468.833 89.4177 467.7 87.8202 467.7Z" fill="#7025BC"/>
<path d="M69.5277 461.049C69.3473 461.049 69.1773 461.085 69.0147 461.138C69.4171 462.162 69.9179 463.136 70.5062 464.05C70.9194 463.748 71.1905 463.263 71.1905 462.712C71.1905 461.793 70.4463 461.049 69.5276 461.049L69.5277 461.049Z" fill="#7025BC"/>
<path d="M74.3787 442.285L75.3194 443.226L71.661 446.885L70.7203 445.944L74.3787 442.285Z" fill="#7025BC"/>
<path d="M70.9061 453.732H67.9225C67.8879 454.171 67.8649 454.614 67.8649 455.062H70.1451L76.4429 465.769L75.2691 468.898C75.6439 469.149 76.0303 469.383 76.4262 469.603L77.9115 465.641L70.9061 453.732Z" fill="#7025BC"/>
<path d="M506.551 315.771H504.497V296.006C504.49 295.723 504.37 295.454 504.164 295.259L488.436 279.827C488.237 279.633 487.97 279.524 487.693 279.523H460.711C457.313 279.523 454.509 282.405 454.509 285.938V315.771H452.454C451.876 315.771 451.368 316.175 451.368 316.753V334.419C451.368 334.997 451.876 335.4 452.454 335.4H454.509V339.062C454.509 342.595 457.313 345.477 460.711 345.477H498.294C501.692 345.477 504.496 342.595 504.496 339.062V335.4H506.551C507.129 335.4 507.637 334.997 507.637 334.419V316.753C507.637 316.175 507.13 315.771 506.551 315.771ZM488.663 283.039L500.912 294.964H491.071C490.424 294.956 489.806 294.691 489.355 294.228C488.903 293.765 488.654 293.14 488.663 292.493L488.663 283.039ZM456.602 285.938C456.602 283.559 458.467 281.617 460.711 281.617H486.569V292.493C486.56 293.696 487.03 294.852 487.874 295.708C488.718 296.564 489.868 297.05 491.07 297.058H502.403V315.772H456.602L456.602 285.938ZM502.403 339.062C502.403 341.44 500.538 343.383 498.294 343.383H460.711C458.467 343.383 456.602 341.44 456.602 339.062V335.4H502.403L502.403 339.062Z" fill="#7025BC"/>
<text fill="white" xml:space="preserve" style="white-space: pre" font-family="Oxygen Mono" font-size="16" letter-spacing="0em"><tspan x="466.086" y="331.746">OBJ</tspan></text>
<path d="M471.499 287.369V284.556C471.05 284.61 470.605 284.678 470.168 284.766V286.818L459.25 297.736H457.198C457.11 298.173 457.042 298.618 456.988 299.066H459.801L471.499 287.369Z" fill="#7025BC"/>
<path d="M467.681 311.787L466.114 315.964C466.511 316.162 466.917 316.342 467.331 316.507L468.664 312.954L481.827 310.273L485.458 312.928C485.515 312.865 486.111 311.767 486.111 311.767L481.906 308.868L467.681 311.787Z" fill="#7025BC"/>
<path d="M484.762 296.123L488.404 293.695C488.22 293.324 488.023 292.96 487.812 292.605L487.759 292.526L483.513 295.357L482.1 307.36L486.952 310.826C487.213 310.468 487.461 310.1 487.693 309.721L483.514 306.735L484.762 296.123Z" fill="#7025BC"/>
<path d="M487.095 291.679L486.797 291.083C486.662 290.902 486.521 290.725 486.378 290.55L482.836 292.321L473.494 286.716V284.432C473.046 284.432 472.603 284.455 472.164 284.49V287.47L482.778 293.838L487.095 291.679Z" fill="#7025BC"/>
<path d="M469.503 296.406C466.936 296.406 464.847 298.495 464.847 301.062C464.847 303.629 466.936 305.718 469.503 305.718C472.071 305.718 474.159 303.629 474.159 301.062C474.159 298.495 472.071 296.406 469.503 296.406ZM469.503 304.388C467.669 304.388 466.177 302.896 466.177 301.062C466.177 299.228 467.669 297.736 469.503 297.736C471.337 297.736 472.829 299.228 472.829 301.062C472.829 302.896 471.337 304.388 469.503 304.388Z" fill="#7025BC"/>
<path d="M475.822 297.071C477.106 297.071 478.151 296.026 478.151 294.743C478.151 293.459 477.106 292.415 475.822 292.415C474.539 292.415 473.494 293.459 473.494 294.743C473.494 296.026 474.539 297.071 475.822 297.071ZM475.822 293.745C476.373 293.745 476.82 294.192 476.82 294.743C476.82 295.293 476.373 295.741 475.822 295.741C475.272 295.741 474.825 295.293 474.825 294.743C474.825 294.192 475.272 293.745 475.822 293.745Z" fill="#7025BC"/>
<path d="M479.693 302.358L479.481 301.727L479.271 301.096C479.182 301.125 477.091 301.84 476.448 303.579C476.088 304.55 476.246 305.608 476.915 306.725L478.056 306.04C477.605 305.289 477.483 304.618 477.693 304.045C478.111 302.906 479.677 302.363 479.693 302.358Z" fill="#7025BC"/>
<path d="M489.459 302.392C489.459 303.127 488.864 303.723 488.129 303.723C487.394 303.723 486.799 303.127 486.799 302.392C486.799 301.658 487.394 301.062 488.129 301.062C488.864 301.062 489.459 301.658 489.459 302.392Z" fill="#7025BC"/>
<path d="M476.82 313.7C474.986 313.7 473.494 315.192 473.494 317.026C473.494 317.254 473.518 317.475 473.561 317.69C474.021 317.688 474.476 317.664 474.927 317.626C474.866 317.435 474.825 317.237 474.825 317.026C474.825 315.926 475.72 315.031 476.82 315.031C477.851 315.031 478.692 315.819 478.795 316.824C479.229 316.678 479.655 316.517 480.072 316.337C479.754 314.833 478.418 313.7 476.82 313.7Z" fill="#7025BC"/>
<path d="M458.528 307.049C458.347 307.049 458.177 307.085 458.015 307.138C458.417 308.162 458.918 309.136 459.506 310.05C459.919 309.748 460.191 309.263 460.191 308.712C460.191 307.793 459.446 307.049 458.528 307.049L458.528 307.049Z" fill="#7025BC"/>
<path d="M463.379 288.285L464.32 289.226L460.661 292.885L459.72 291.944L463.379 288.285Z" fill="#7025BC"/>
<path d="M459.906 299.732H456.923C456.888 300.171 456.865 300.614 456.865 301.062H459.145L465.443 311.769L464.269 314.898C464.644 315.149 465.03 315.383 465.426 315.603L466.912 311.641L459.906 299.732Z" fill="#7025BC"/>
<text fill="#266141" xml:space="preserve" style="white-space: pre" font-family="Arial" font-size="18" letter-spacing="0em"><tspan x="429.967" y="405.74">SCE</tspan></text>
<text fill="black" xml:space="preserve" style="white-space: pre" font-family="Arial" font-size="18" letter-spacing="0em"><tspan x="419.93" y="384.74">Merging into </tspan><tspan x="414.938" y="405.74">1 </tspan><tspan x="466.986" y="405.74"> Object</tspan></text>
<text fill="#266141" xml:space="preserve" style="white-space: pre" font-family="Arial" font-size="18" letter-spacing="0em"><tspan x="754.028" y="333.74">SCE</tspan></text>
<text fill="black" xml:space="preserve" style="white-space: pre" font-family="Arial" font-size="18" letter-spacing="0em"><tspan x="687.952" y="333.74">Merged </tspan><tspan x="791.048" y="333.74"> </tspan><tspan x="713.467" y="354.74">Object </tspan></text>
<path d="M761.551 273.771H759.497V254.006C759.49 253.723 759.37 253.454 759.164 253.259L743.436 237.827C743.237 237.633 742.97 237.524 742.693 237.523H715.711C712.313 237.523 709.509 240.405 709.509 243.938V273.771H707.454C706.876 273.771 706.368 274.175 706.368 274.753V292.419C706.368 292.997 706.876 293.4 707.454 293.4H709.509V297.062C709.509 300.595 712.313 303.477 715.711 303.477H753.294C756.692 303.477 759.496 300.595 759.496 297.062V293.4H761.551C762.129 293.4 762.637 292.997 762.637 292.419V274.753C762.637 274.175 762.129 273.771 761.551 273.771L761.551 273.771ZM743.663 241.039L755.912 252.964H746.071C745.424 252.956 744.806 252.691 744.355 252.228C743.903 251.765 743.654 251.14 743.663 250.493L743.663 241.039ZM711.602 243.938C711.602 241.559 713.467 239.617 715.711 239.617H741.569V250.493C741.56 251.696 742.03 252.852 742.874 253.708C743.718 254.564 744.868 255.05 746.07 255.058H757.403V273.772H711.602L711.602 243.938ZM757.403 297.062C757.403 299.44 755.538 301.383 753.294 301.383H715.711C713.467 301.383 711.602 299.44 711.602 297.062V293.4H757.403L757.403 297.062ZM760.544 291.307H708.462V275.866H760.544V291.307Z" fill="black"/>
<text fill="black" xml:space="preserve" style="white-space: pre" font-family="Oxygen Mono" font-size="16" letter-spacing="0em"><tspan x="721.086" y="289.746">RDS</tspan></text>
<path d="M726.499 245.369V242.556C726.05 242.61 725.605 242.678 725.168 242.766V244.818L714.25 255.736H712.198C712.11 256.173 712.042 256.618 711.988 257.066H714.801L726.499 245.369Z" fill="black"/>
<path d="M722.681 269.787L721.114 273.964C721.511 274.162 721.917 274.342 722.331 274.507L723.664 270.954L736.827 268.273L740.458 270.928C740.515 270.865 741.111 269.767 741.111 269.767L736.906 266.868L722.681 269.787Z" fill="black"/>
<path d="M739.762 254.123L743.404 251.695C743.22 251.324 743.023 250.96 742.812 250.605L742.759 250.526L738.513 253.357L737.1 265.36L741.952 268.826C742.213 268.468 742.461 268.1 742.693 267.721L738.514 264.735L739.762 254.123Z" fill="black"/>
<path d="M742.095 249.679L741.797 249.083C741.662 248.902 741.521 248.725 741.378 248.55L737.836 250.321L728.494 244.716V242.432C728.046 242.432 727.603 242.455 727.164 242.49V245.47L737.778 251.838L742.095 249.679Z" fill="black"/>
<path d="M724.503 254.406C721.936 254.406 719.847 256.495 719.847 259.062C719.847 261.629 721.936 263.718 724.503 263.718C727.071 263.718 729.159 261.629 729.159 259.062C729.159 256.495 727.071 254.406 724.503 254.406ZM724.503 262.388C722.669 262.388 721.177 260.896 721.177 259.062C721.177 257.228 722.669 255.736 724.503 255.736C726.337 255.736 727.829 257.228 727.829 259.062C727.829 260.896 726.337 262.388 724.503 262.388Z" fill="black"/>
<path d="M730.822 255.071C732.106 255.071 733.151 254.026 733.151 252.743C733.151 251.459 732.106 250.415 730.822 250.415C729.539 250.415 728.494 251.459 728.494 252.743C728.494 254.026 729.539 255.071 730.822 255.071ZM730.822 251.745C731.373 251.745 731.82 252.192 731.82 252.743C731.82 253.293 731.373 253.741 730.822 253.741C730.272 253.741 729.825 253.293 729.825 252.743C729.825 252.192 730.272 251.745 730.822 251.745Z" fill="black"/>
<path d="M734.693 260.358L734.481 259.727L734.271 259.096C734.182 259.125 732.091 259.84 731.448 261.579C731.088 262.55 731.246 263.608 731.915 264.725L733.056 264.04C732.605 263.289 732.483 262.618 732.693 262.045C733.111 260.906 734.677 260.363 734.693 260.358Z" fill="black"/>
<path d="M744.459 260.392C744.459 261.127 743.864 261.723 743.129 261.723C742.394 261.723 741.799 261.127 741.799 260.392C741.799 259.658 742.394 259.062 743.129 259.062C743.864 259.062 744.459 259.658 744.459 260.392Z" fill="black"/>
<path d="M731.82 271.7C729.986 271.7 728.494 273.192 728.494 275.026C728.494 275.254 728.518 275.475 728.561 275.69C729.021 275.688 729.476 275.664 729.927 275.626C729.866 275.435 729.825 275.237 729.825 275.026C729.825 273.926 730.72 273.031 731.82 273.031C732.851 273.031 733.692 273.819 733.795 274.824C734.229 274.678 734.655 274.517 735.072 274.337C734.754 272.833 733.418 271.7 731.82 271.7Z" fill="black"/>
<path d="M713.528 265.049C713.347 265.049 713.177 265.085 713.015 265.138C713.417 266.162 713.918 267.136 714.506 268.05C714.919 267.748 715.191 267.263 715.191 266.712C715.191 265.793 714.446 265.049 713.528 265.049L713.528 265.049Z" fill="black"/>
<path d="M718.379 246.285L719.32 247.226L715.661 250.885L714.72 249.944L718.379 246.285Z" fill="black"/>
<path d="M714.906 257.732H711.923C711.888 258.171 711.865 258.614 711.865 259.062H714.145L720.443 269.769L719.269 272.898C719.644 273.149 720.03 273.383 720.426 273.603L721.912 269.641L714.906 257.732Z" fill="black"/>
<text fill="#266141" xml:space="preserve" style="white-space: pre" font-family="Arial" font-size="18" letter-spacing="0em"><tspan x="1139.91" y="355.74">AnnData</tspan></text>
<text fill="black" xml:space="preserve" style="white-space: pre" font-family="Arial" font-size="18" letter-spacing="0em"><tspan x="1151.95" y="334.74">Merged RNA </tspan><tspan x="1210.01" y="355.74"> Object </tspan></text>
<path d="M1230.55 274.771H1228.5V255.006C1228.49 254.723 1228.37 254.454 1228.16 254.259L1212.44 238.827C1212.24 238.633 1211.97 238.524 1211.69 238.523H1184.71C1181.31 238.523 1178.51 241.405 1178.51 244.938V274.771H1176.45C1175.88 274.771 1175.37 275.175 1175.37 275.753V293.419C1175.37 293.997 1175.88 294.4 1176.45 294.4H1178.51V298.062C1178.51 301.595 1181.31 304.477 1184.71 304.477H1222.29C1225.69 304.477 1228.5 301.595 1228.5 298.062V294.4H1230.55C1231.13 294.4 1231.64 293.997 1231.64 293.419V275.753C1231.64 275.175 1231.13 274.771 1230.55 274.771L1230.55 274.771ZM1212.66 242.039L1224.91 253.964H1215.07C1214.42 253.956 1213.81 253.691 1213.35 253.228C1212.9 252.765 1212.65 252.14 1212.66 251.493L1212.66 242.039ZM1180.6 244.938C1180.6 242.559 1182.47 240.617 1184.71 240.617H1210.57V251.493C1210.56 252.696 1211.03 253.852 1211.87 254.708C1212.72 255.564 1213.87 256.05 1215.07 256.058H1226.4V274.772H1180.6L1180.6 244.938ZM1226.4 298.062C1226.4 300.44 1224.54 302.383 1222.29 302.383H1184.71C1182.47 302.383 1180.6 300.44 1180.6 298.062V294.4H1226.4L1226.4 298.062ZM1229.54 292.307H1177.46V276.866H1229.54V292.307Z" fill="black"/>
<text fill="black" xml:space="preserve" style="white-space: pre" font-family="Oxygen Mono" font-size="16" letter-spacing="0em"><tspan x="1184.28" y="290.746">HDF5</tspan></text>
<path d="M1195.5 246.369V243.556C1195.05 243.61 1194.61 243.678 1194.17 243.766V245.818L1183.25 256.736H1181.2C1181.11 257.173 1181.04 257.618 1180.99 258.066H1183.8L1195.5 246.369Z" fill="black"/>
<path d="M1191.68 270.787L1190.11 274.964C1190.51 275.162 1190.92 275.342 1191.33 275.507L1192.66 271.954L1205.83 269.273L1209.46 271.928C1209.51 271.865 1210.11 270.767 1210.11 270.767L1205.91 267.868L1191.68 270.787Z" fill="black"/>
<path d="M1208.76 255.123L1212.4 252.695C1212.22 252.324 1212.02 251.96 1211.81 251.605L1211.76 251.526L1207.51 254.357L1206.1 266.36L1210.95 269.826C1211.21 269.468 1211.46 269.1 1211.69 268.721L1207.51 265.735L1208.76 255.123Z" fill="black"/>
<path d="M1211.1 250.679L1210.8 250.083C1210.66 249.902 1210.52 249.725 1210.38 249.55L1206.84 251.321L1197.49 245.716V243.432C1197.05 243.432 1196.6 243.455 1196.16 243.49V246.47L1206.78 252.838L1211.1 250.679Z" fill="black"/>
<path d="M1193.5 255.406C1190.94 255.406 1188.85 257.495 1188.85 260.062C1188.85 262.629 1190.94 264.718 1193.5 264.718C1196.07 264.718 1198.16 262.629 1198.16 260.062C1198.16 257.495 1196.07 255.406 1193.5 255.406ZM1193.5 263.388C1191.67 263.388 1190.18 261.896 1190.18 260.062C1190.18 258.228 1191.67 256.736 1193.5 256.736C1195.34 256.736 1196.83 258.228 1196.83 260.062C1196.83 261.896 1195.34 263.388 1193.5 263.388Z" fill="black"/>
<path d="M1199.82 256.071C1201.11 256.071 1202.15 255.026 1202.15 253.743C1202.15 252.459 1201.11 251.415 1199.82 251.415C1198.54 251.415 1197.49 252.459 1197.49 253.743C1197.49 255.026 1198.54 256.071 1199.82 256.071ZM1199.82 252.745C1200.37 252.745 1200.82 253.192 1200.82 253.743C1200.82 254.293 1200.37 254.741 1199.82 254.741C1199.27 254.741 1198.82 254.293 1198.82 253.743C1198.82 253.192 1199.27 252.745 1199.82 252.745Z" fill="black"/>
<path d="M1203.69 261.358L1203.48 260.727L1203.27 260.096C1203.18 260.125 1201.09 260.84 1200.45 262.579C1200.09 263.55 1200.25 264.608 1200.92 265.725L1202.06 265.04C1201.61 264.289 1201.48 263.618 1201.69 263.045C1202.11 261.906 1203.68 261.363 1203.69 261.358Z" fill="black"/>
<path d="M1213.46 261.392C1213.46 262.127 1212.86 262.723 1212.13 262.723C1211.39 262.723 1210.8 262.127 1210.8 261.392C1210.8 260.658 1211.39 260.062 1212.13 260.062C1212.86 260.062 1213.46 260.658 1213.46 261.392Z" fill="black"/>
<path d="M1200.82 272.7C1198.99 272.7 1197.49 274.192 1197.49 276.026C1197.49 276.254 1197.52 276.475 1197.56 276.69C1198.02 276.688 1198.48 276.664 1198.93 276.626C1198.87 276.435 1198.82 276.237 1198.82 276.026C1198.82 274.926 1199.72 274.031 1200.82 274.031C1201.85 274.031 1202.69 274.819 1202.8 275.824C1203.23 275.678 1203.66 275.517 1204.07 275.337C1203.75 273.833 1202.42 272.7 1200.82 272.7Z" fill="black"/>
<path d="M1182.53 266.049C1182.35 266.049 1182.18 266.085 1182.01 266.138C1182.42 267.162 1182.92 268.136 1183.51 269.05C1183.92 268.748 1184.19 268.263 1184.19 267.712C1184.19 266.793 1183.45 266.049 1182.53 266.049L1182.53 266.049Z" fill="black"/>
<path d="M1187.38 247.285L1188.32 248.226L1184.66 251.885L1183.72 250.944L1187.38 247.285Z" fill="black"/>
<path d="M1183.91 258.732H1180.92C1180.89 259.171 1180.86 259.614 1180.86 260.062H1183.15L1189.44 270.769L1188.27 273.898C1188.64 274.149 1189.03 274.383 1189.43 274.603L1190.91 270.641L1183.91 258.732Z" fill="black"/>
<path d="M672.5 277.489L662.5 271.716L662.5 283.263L672.5 277.489ZM527.5 278.5L663.5 278.49L663.5 276.49L527.5 276.5L527.5 278.5Z" fill="black"/>
<path d="M1116 291L1106 285.226V296.774L1116 291ZM911 292H1107V290H911V292Z" fill="black"/>
<text fill="#266141" xml:space="preserve" style="white-space: pre" font-family="Arial" font-size="18" letter-spacing="0em"><tspan x="1022.01" y="280.74">AnnData</tspan></text>
<text fill="black" xml:space="preserve" style="white-space: pre" font-family="Arial" font-size="18" letter-spacing="0em"><tspan x="934.891" y="280.74">Convert to </tspan></text>
<text fill="black" xml:space="preserve" style="white-space: pre" font-family="Arial" font-size="18" letter-spacing="0em"><tspan x="712.403" y="404.74">SCE Merged Output</tspan></text>
<text fill="black" xml:space="preserve" style="white-space: pre" font-family="Arial" font-size="18" letter-spacing="0em"><tspan x="1159.36" y="406.74">AnnData Merged Output</tspan></text>
<rect x="672" y="217" width="232" height="152" stroke="#266141" stroke-width="2"/>
<rect x="1117" y="219" width="278" height="152" stroke="#266141" stroke-width="2"/>
</svg>
