<svg width="2080" height="916" viewBox="0 0 2080 916" fill="none" xmlns="http://www.w3.org/2000/svg">
<rect width="2080" height="916" fill="white"/>
<text fill="black" xml:space="preserve" style="white-space: pre" font-family="Arial" font-size="18" letter-spacing="0em"><tspan x="485.425" y="149.74">Read into R</tspan></text>
<text fill="#266141" xml:space="preserve" style="white-space: pre" font-family="Arial" font-size="18" letter-spacing="0em"><tspan x="570.39" y="232.74">SingleCellExperiment(SCE)</tspan></text>
<text fill="black" xml:space="preserve" style="white-space: pre" font-family="Arial" font-size="18" letter-spacing="0em"><tspan x="791.61" y="232.74"> </tspan><tspan x="656.962" y="253.74">object</tspan></text>
<path d="M712.396 164.357H709.974V141.052C709.965 140.718 709.824 140.401 709.581 140.171L691.036 121.975C690.801 121.747 690.487 121.618 690.16 121.617H658.346C654.339 121.617 651.033 125.015 651.033 129.18V164.357H648.61C647.928 164.357 647.329 164.833 647.329 165.514V186.345C647.329 187.026 647.928 187.502 648.61 187.502H651.033V191.819C651.033 195.985 654.339 199.383 658.346 199.383H702.66C706.667 199.383 709.973 195.985 709.973 191.819V187.502H712.396C713.077 187.502 713.676 187.026 713.676 186.345V165.514C713.676 164.833 713.078 164.357 712.396 164.357L712.396 164.357ZM691.304 125.762L705.746 139.824H694.143C693.38 139.814 692.652 139.502 692.12 138.955C691.587 138.409 691.294 137.673 691.304 136.91L691.304 125.762ZM653.501 129.18C653.501 126.376 655.7 124.086 658.346 124.086H688.835V136.91C688.825 138.327 689.379 139.691 690.374 140.7C691.369 141.71 692.725 142.283 694.143 142.293H707.505V164.357H653.501L653.501 129.18ZM707.505 191.819C707.505 194.624 705.306 196.914 702.66 196.914H658.346C655.7 196.914 653.501 194.624 653.501 191.819V187.502H707.505L707.505 191.819ZM711.208 185.033H649.798V166.826H711.208V185.033Z" fill="black"/>
<text fill="black" xml:space="preserve" style="white-space: pre" font-family="Oxygen Mono" font-size="16" letter-spacing="0em"><tspan x="666.65" y="181.889">OBJ</tspan></text>
<path d="M671.066 130.868V127.552C670.537 127.615 670.012 127.695 669.497 127.799V130.219L656.623 143.092H654.204C654.099 143.607 654.019 144.131 653.956 144.66H657.273L671.066 130.868Z" fill="black"/>
<path d="M666.564 159.659L664.717 164.585C665.185 164.817 665.664 165.03 666.152 165.225L667.724 161.035L683.244 157.874L687.525 161.004C687.592 160.93 688.295 159.635 688.295 159.635L683.337 156.217L666.564 159.659Z" fill="black"/>
<path d="M686.704 141.19L690.999 138.327C690.782 137.889 690.549 137.461 690.301 137.042L690.239 136.949L685.231 140.286L683.566 154.44L689.287 158.526C689.594 158.104 689.887 157.671 690.161 157.223L685.232 153.703L686.704 141.19Z" fill="black"/>
<path d="M689.456 135.95L689.104 135.248C688.944 135.034 688.779 134.825 688.61 134.618L684.434 136.707L673.419 130.099V127.405C672.89 127.405 672.368 127.433 671.85 127.473V130.987L684.365 138.495L689.456 135.95Z" fill="black"/>
<path d="M668.713 141.523C665.685 141.523 663.222 143.987 663.222 147.013C663.222 150.04 665.685 152.504 668.713 152.504C671.74 152.504 674.203 150.04 674.203 147.013C674.203 143.987 671.74 141.523 668.713 141.523ZM668.713 150.935C666.55 150.935 664.791 149.176 664.791 147.014C664.791 144.851 666.55 143.092 668.713 143.092C670.875 143.092 672.634 144.851 672.634 147.014C672.634 149.176 670.875 150.935 668.713 150.935Z" fill="black"/>
<path d="M676.164 142.308C677.677 142.308 678.909 141.076 678.909 139.562C678.909 138.049 677.677 136.817 676.164 136.817C674.65 136.817 673.419 138.049 673.419 139.562C673.419 141.076 674.65 142.308 676.164 142.308ZM676.164 138.386C676.813 138.386 677.34 138.914 677.34 139.563C677.34 140.212 676.813 140.739 676.164 140.739C675.515 140.739 674.987 140.211 674.987 139.563C674.987 138.913 675.515 138.386 676.164 138.386Z" fill="black"/>
<path d="M680.728 148.541L680.478 147.797L680.23 147.053C680.125 147.087 677.659 147.93 676.901 149.981C676.477 151.126 676.663 152.374 677.452 153.691L678.797 152.883C678.266 151.998 678.122 151.206 678.369 150.53C678.862 149.188 680.709 148.547 680.728 148.541Z" fill="black"/>
<path d="M692.243 148.582C692.243 149.448 691.541 150.151 690.675 150.151C689.808 150.151 689.106 149.448 689.106 148.582C689.106 147.716 689.808 147.013 690.675 147.013C691.541 147.013 692.243 147.716 692.243 148.582Z" fill="black"/>
<path d="M677.34 161.916C675.178 161.916 673.419 163.675 673.419 165.837C673.419 166.105 673.446 166.366 673.498 166.619C674.04 166.617 674.576 166.589 675.108 166.544C675.036 166.319 674.987 166.085 674.987 165.837C674.987 164.54 676.043 163.484 677.34 163.484C678.556 163.484 679.547 164.414 679.669 165.598C680.18 165.426 680.683 165.237 681.175 165.025C680.799 163.251 679.224 161.916 677.34 161.916Z" fill="black"/>
<path d="M655.771 154.072C655.559 154.072 655.358 154.115 655.167 154.177C655.641 155.385 656.232 156.534 656.925 157.612C657.412 157.255 657.732 156.683 657.732 156.033C657.732 154.95 656.855 154.072 655.771 154.072L655.771 154.072Z" fill="black"/>
<path d="M661.491 131.949L662.601 133.058L658.287 137.371L657.178 136.262L661.491 131.949Z" fill="black"/>
<path d="M657.397 145.445H653.879C653.838 145.963 653.811 146.485 653.811 147.013H656.5L663.925 159.638L662.541 163.328C662.983 163.623 663.439 163.899 663.905 164.159L665.657 159.487L657.397 145.445Z" fill="black"/>
<rect x="912" y="351" width="454" height="165" stroke="#266141" stroke-width="2"/>
<rect x="912" y="649" width="454" height="189" stroke="#266141" stroke-width="2"/>
<rect x="1526" y="351" width="294" height="165" stroke="#266141" stroke-width="2"/>
<text fill="#266141" xml:space="preserve" style="white-space: pre" font-family="Arial" font-size="20" font-weight="bold" letter-spacing="0em"><tspan x="731.395" y="440.434">SCE Output Data</tspan></text>
<text fill="#266141" xml:space="preserve" style="white-space: pre" font-family="Arial" font-size="20" font-weight="bold" letter-spacing="0em"><tspan x="681.318" y="760.434">AnnData Output Data</tspan></text>
<text fill="#266141" xml:space="preserve" style="white-space: pre" font-family="Arial" font-size="20" font-weight="bold" letter-spacing="0em"><tspan x="1437.19" y="441.434">Reports</tspan></text>
<text fill="#266141" xml:space="preserve" style="white-space: pre" font-family="Arial" font-size="18" letter-spacing="0em"><tspan x="942.452" y="490.74">SCE</tspan></text>
<text fill="black" xml:space="preserve" style="white-space: pre" font-family="Arial" font-size="18" letter-spacing="0em"><tspan x="950.942" y="469.74">Unfiltered </tspan><tspan x="979.472" y="490.74"> Object</tspan></text>
<path d="M1016.55 412.771H1014.5V393.006C1014.49 392.723 1014.37 392.454 1014.16 392.259L998.436 376.827C998.237 376.633 997.97 376.524 997.693 376.523H970.711C967.313 376.523 964.509 379.405 964.509 382.938V412.771H962.454C961.876 412.771 961.368 413.175 961.368 413.753V431.419C961.368 431.997 961.876 432.4 962.454 432.4H964.509V436.062C964.509 439.595 967.313 442.477 970.711 442.477H1008.29C1011.69 442.477 1014.5 439.595 1014.5 436.062V432.4H1016.55C1017.13 432.4 1017.64 431.997 1017.64 431.419V413.753C1017.64 413.175 1017.13 412.771 1016.55 412.771L1016.55 412.771ZM998.663 380.039L1010.91 391.964H1001.07C1000.42 391.956 999.806 391.691 999.355 391.228C998.903 390.764 998.654 390.14 998.663 389.493L998.663 380.039ZM966.602 382.938C966.602 380.559 968.467 378.617 970.711 378.617H996.569V389.493C996.56 390.695 997.03 391.852 997.874 392.708C998.718 393.564 999.868 394.05 1001.07 394.058H1012.4V412.771H966.602L966.602 382.938ZM1012.4 436.062C1012.4 438.44 1010.54 440.383 1008.29 440.383H970.711C968.467 440.383 966.602 438.44 966.602 436.062V432.4H1012.4L1012.4 436.062ZM1015.54 430.307H963.462V414.865H1015.54V430.307Z" fill="black"/>
<text fill="black" xml:space="preserve" style="white-space: pre" font-family="Oxygen Mono" font-size="16" letter-spacing="0em"><tspan x="975.586" y="428.746">RDS</tspan></text>
<path d="M981.499 384.369V381.556C981.05 381.61 980.605 381.678 980.168 381.766V383.818L969.25 394.736H967.198C967.11 395.173 967.042 395.618 966.988 396.066H969.801L981.499 384.369Z" fill="black"/>
<path d="M977.681 408.787L976.114 412.964C976.511 413.161 976.917 413.342 977.332 413.507L978.664 409.954L991.827 407.273L995.458 409.928C995.515 409.865 996.111 408.767 996.111 408.767L991.906 405.868L977.681 408.787Z" fill="black"/>
<path d="M994.762 393.124L998.404 390.695C998.22 390.324 998.023 389.96 997.812 389.605L997.759 389.526L993.513 392.357L992.1 404.36L996.952 407.826C997.213 407.468 997.461 407.1 997.693 406.721L993.514 403.736L994.762 393.124Z" fill="black"/>
<path d="M997.095 388.679L996.797 388.083C996.662 387.903 996.521 387.725 996.378 387.55L992.836 389.321L983.494 383.717V381.432C983.046 381.432 982.603 381.455 982.164 381.49V384.47L992.778 390.838L997.095 388.679Z" fill="black"/>
<path d="M979.503 393.406C976.936 393.406 974.847 395.495 974.847 398.062C974.847 400.629 976.936 402.718 979.503 402.718C982.071 402.718 984.159 400.629 984.159 398.062C984.159 395.495 982.071 393.406 979.503 393.406ZM979.503 401.388C977.669 401.388 976.177 399.896 976.177 398.062C976.177 396.228 977.669 394.736 979.503 394.736C981.337 394.736 982.829 396.228 982.829 398.062C982.829 399.896 981.337 401.388 979.503 401.388Z" fill="black"/>
<path d="M985.822 394.071C987.106 394.071 988.151 393.026 988.151 391.743C988.151 390.459 987.106 389.415 985.822 389.415C984.539 389.415 983.494 390.459 983.494 391.743C983.494 393.026 984.539 394.071 985.822 394.071ZM985.822 390.745C986.373 390.745 986.82 391.193 986.82 391.743C986.82 392.293 986.373 392.741 985.822 392.741C985.272 392.741 984.825 392.293 984.825 391.743C984.825 391.192 985.272 390.745 985.822 390.745Z" fill="black"/>
<path d="M989.693 399.358L989.481 398.727L989.271 398.096C989.182 398.125 987.091 398.84 986.447 400.579C986.088 401.55 986.246 402.608 986.915 403.725L988.056 403.04C987.605 402.289 987.483 401.618 987.693 401.045C988.111 399.906 989.677 399.363 989.693 399.358Z" fill="black"/>
<path d="M999.459 399.392C999.459 400.127 998.864 400.723 998.129 400.723C997.394 400.723 996.799 400.127 996.799 399.392C996.799 398.658 997.394 398.062 998.129 398.062C998.864 398.062 999.459 398.658 999.459 399.392Z" fill="black"/>
<path d="M986.82 410.701C984.986 410.701 983.494 412.193 983.494 414.026C983.494 414.254 983.518 414.475 983.561 414.69C984.021 414.688 984.476 414.664 984.927 414.626C984.866 414.435 984.825 414.237 984.825 414.026C984.825 412.926 985.72 412.031 986.82 412.031C987.851 412.031 988.692 412.819 988.795 413.824C989.229 413.678 989.655 413.517 990.072 413.337C989.754 411.833 988.418 410.701 986.82 410.701Z" fill="black"/>
<path d="M968.528 404.049C968.347 404.049 968.177 404.085 968.015 404.138C968.417 405.162 968.918 406.137 969.506 407.051C969.919 406.748 970.191 406.263 970.191 405.712C970.191 404.793 969.446 404.049 968.528 404.049L968.528 404.049Z" fill="black"/>
<path d="M973.379 385.285L974.319 386.226L970.661 389.885L969.72 388.944L973.379 385.285Z" fill="black"/>
<path d="M969.906 396.732H966.923C966.888 397.171 966.865 397.614 966.865 398.062H969.145L975.443 408.769L974.269 411.898C974.644 412.149 975.03 412.383 975.426 412.603L976.912 408.641L969.906 396.732Z" fill="black"/>
<text fill="#266141" xml:space="preserve" style="white-space: pre" font-family="Arial" font-size="18" letter-spacing="0em"><tspan x="954.449" y="788.74">AnnData</tspan></text>
<text fill="black" xml:space="preserve" style="white-space: pre" font-family="Arial" font-size="18" letter-spacing="0em"><tspan x="950.942" y="767.74">Unfiltered </tspan><tspan x="1024.55" y="788.74"> </tspan><tspan x="963.467" y="809.74">Object</tspan></text>
<path d="M1016.55 710.771H1014.5V691.006C1014.49 690.723 1014.37 690.454 1014.16 690.259L998.436 674.827C998.237 674.633 997.97 674.524 997.693 674.523H970.711C967.313 674.523 964.509 677.405 964.509 680.938V710.771H962.454C961.876 710.771 961.368 711.175 961.368 711.753V729.419C961.368 729.997 961.876 730.4 962.454 730.4H964.509V734.062C964.509 737.595 967.313 740.477 970.711 740.477H1008.29C1011.69 740.477 1014.5 737.595 1014.5 734.062V730.4H1016.55C1017.13 730.4 1017.64 729.997 1017.64 729.419V711.753C1017.64 711.175 1017.13 710.771 1016.55 710.771L1016.55 710.771ZM998.663 678.039L1010.91 689.964H1001.07C1000.42 689.956 999.806 689.691 999.355 689.228C998.903 688.764 998.654 688.14 998.663 687.493L998.663 678.039ZM966.602 680.938C966.602 678.559 968.467 676.617 970.711 676.617H996.569V687.493C996.56 688.695 997.03 689.852 997.874 690.708C998.718 691.564 999.868 692.05 1001.07 692.058H1012.4V710.771H966.602L966.602 680.938ZM1012.4 734.062C1012.4 736.44 1010.54 738.383 1008.29 738.383H970.711C968.467 738.383 966.602 736.44 966.602 734.062V730.4H1012.4L1012.4 734.062ZM1015.54 728.307H963.462V712.865H1015.54V728.307Z" fill="black"/>
<text fill="black" xml:space="preserve" style="white-space: pre" font-family="Oxygen Mono" font-size="16" letter-spacing="0em"><tspan x="970.281" y="726.746">HDF5</tspan></text>
<path d="M981.499 682.369V679.556C981.05 679.61 980.605 679.678 980.168 679.766V681.818L969.25 692.736H967.198C967.11 693.173 967.042 693.618 966.988 694.066H969.801L981.499 682.369Z" fill="black"/>
<path d="M977.681 706.787L976.114 710.964C976.511 711.162 976.917 711.342 977.332 711.507L978.664 707.954L991.827 705.273L995.458 707.928C995.515 707.865 996.111 706.767 996.111 706.767L991.906 703.868L977.681 706.787Z" fill="black"/>
<path d="M994.762 691.124L998.404 688.695C998.22 688.324 998.023 687.96 997.812 687.605L997.759 687.526L993.513 690.357L992.1 702.36L996.952 705.826C997.213 705.468 997.461 705.1 997.693 704.721L993.514 701.736L994.762 691.124Z" fill="black"/>
<path d="M997.095 686.679L996.797 686.083C996.662 685.903 996.521 685.725 996.378 685.55L992.836 687.321L983.494 681.717V679.432C983.046 679.432 982.603 679.455 982.164 679.49V682.47L992.778 688.838L997.095 686.679Z" fill="black"/>
<path d="M979.503 691.406C976.936 691.406 974.847 693.495 974.847 696.062C974.847 698.629 976.936 700.718 979.503 700.718C982.071 700.718 984.159 698.629 984.159 696.062C984.159 693.495 982.071 691.406 979.503 691.406ZM979.503 699.388C977.669 699.388 976.177 697.896 976.177 696.062C976.177 694.228 977.669 692.736 979.503 692.736C981.337 692.736 982.829 694.228 982.829 696.062C982.829 697.896 981.337 699.388 979.503 699.388Z" fill="black"/>
<path d="M985.822 692.071C987.106 692.071 988.151 691.026 988.151 689.743C988.151 688.459 987.106 687.415 985.822 687.415C984.539 687.415 983.494 688.459 983.494 689.743C983.494 691.026 984.539 692.071 985.822 692.071ZM985.822 688.745C986.373 688.745 986.82 689.193 986.82 689.743C986.82 690.293 986.373 690.741 985.822 690.741C985.272 690.741 984.825 690.293 984.825 689.743C984.825 689.192 985.272 688.745 985.822 688.745Z" fill="black"/>
<path d="M989.693 697.358L989.481 696.727L989.271 696.096C989.182 696.125 987.091 696.84 986.447 698.579C986.088 699.55 986.246 700.608 986.915 701.725L988.056 701.04C987.605 700.289 987.483 699.618 987.693 699.045C988.111 697.906 989.677 697.363 989.693 697.358Z" fill="black"/>
<path d="M999.459 697.392C999.459 698.127 998.864 698.723 998.129 698.723C997.394 698.723 996.799 698.127 996.799 697.392C996.799 696.658 997.394 696.062 998.129 696.062C998.864 696.062 999.459 696.658 999.459 697.392Z" fill="black"/>
<path d="M986.82 708.701C984.986 708.701 983.494 710.193 983.494 712.026C983.494 712.254 983.518 712.475 983.561 712.69C984.021 712.688 984.476 712.664 984.927 712.626C984.866 712.435 984.825 712.237 984.825 712.027C984.825 710.926 985.72 710.031 986.82 710.031C987.851 710.031 988.692 710.819 988.795 711.824C989.229 711.678 989.655 711.517 990.072 711.337C989.754 709.833 988.418 708.701 986.82 708.701Z" fill="black"/>
<path d="M968.528 702.049C968.347 702.049 968.177 702.085 968.015 702.138C968.417 703.162 968.918 704.137 969.506 705.051C969.919 704.748 970.191 704.263 970.191 703.712C970.191 702.793 969.446 702.049 968.528 702.049L968.528 702.049Z" fill="black"/>
<path d="M973.379 683.285L974.319 684.226L970.661 687.885L969.72 686.944L973.379 683.285Z" fill="black"/>
<path d="M969.906 694.732H966.923C966.888 695.171 966.865 695.614 966.865 696.062H969.145L975.443 706.769L974.269 709.898C974.644 710.149 975.03 710.383 975.426 710.603L976.912 706.641L969.906 694.732Z" fill="black"/>
<text fill="#266141" xml:space="preserve" style="white-space: pre" font-family="Arial" font-size="18" letter-spacing="0em"><tspan x="1089.45" y="493.74">SCE</tspan></text>
<text fill="black" xml:space="preserve" style="white-space: pre" font-family="Arial" font-size="18" letter-spacing="0em"><tspan x="1106.46" y="472.74">Filtered </tspan><tspan x="1126.47" y="493.74"> Object</tspan></text>
<path d="M1166.55 413.771H1164.5V394.006C1164.49 393.723 1164.37 393.454 1164.16 393.259L1148.44 377.827C1148.24 377.633 1147.97 377.524 1147.69 377.523H1120.71C1117.31 377.523 1114.51 380.405 1114.51 383.938V413.771H1112.45C1111.88 413.771 1111.37 414.175 1111.37 414.753V432.419C1111.37 432.997 1111.88 433.4 1112.45 433.4H1114.51V437.062C1114.51 440.595 1117.31 443.477 1120.71 443.477H1158.29C1161.69 443.477 1164.5 440.595 1164.5 437.062V433.4H1166.55C1167.13 433.4 1167.64 432.997 1167.64 432.419V414.753C1167.64 414.175 1167.13 413.771 1166.55 413.771L1166.55 413.771ZM1148.66 381.039L1160.91 392.964H1151.07C1150.42 392.956 1149.81 392.691 1149.35 392.228C1148.9 391.764 1148.65 391.14 1148.66 390.493L1148.66 381.039ZM1116.6 383.938C1116.6 381.559 1118.47 379.617 1120.71 379.617H1146.57V390.493C1146.56 391.695 1147.03 392.852 1147.87 393.708C1148.72 394.564 1149.87 395.05 1151.07 395.058H1162.4V413.771H1116.6L1116.6 383.938ZM1162.4 437.062C1162.4 439.44 1160.54 441.383 1158.29 441.383H1120.71C1118.47 441.383 1116.6 439.44 1116.6 437.062V433.4H1162.4L1162.4 437.062ZM1165.54 431.307H1113.46V415.865H1165.54V431.307Z" fill="black"/>
<text fill="black" xml:space="preserve" style="white-space: pre" font-family="Oxygen Mono" font-size="16" letter-spacing="0em"><tspan x="1125.59" y="429.746">RDS</tspan></text>
<path d="M1131.5 385.369V382.556C1131.05 382.61 1130.61 382.678 1130.17 382.766V384.818L1119.25 395.736H1117.2C1117.11 396.173 1117.04 396.618 1116.99 397.066H1119.8L1131.5 385.369Z" fill="black"/>
<path d="M1127.68 409.787L1126.11 413.964C1126.51 414.161 1126.92 414.342 1127.33 414.507L1128.66 410.954L1141.83 408.273L1145.46 410.928C1145.51 410.865 1146.11 409.767 1146.11 409.767L1141.91 406.868L1127.68 409.787Z" fill="black"/>
<path d="M1144.76 394.124L1148.4 391.695C1148.22 391.324 1148.02 390.96 1147.81 390.605L1147.76 390.526L1143.51 393.357L1142.1 405.36L1146.95 408.826C1147.21 408.468 1147.46 408.1 1147.69 407.721L1143.51 404.736L1144.76 394.124Z" fill="black"/>
<path d="M1147.1 389.679L1146.8 389.083C1146.66 388.903 1146.52 388.725 1146.38 388.55L1142.84 390.321L1133.49 384.717V382.432C1133.05 382.432 1132.6 382.455 1132.16 382.49V385.47L1142.78 391.838L1147.1 389.679Z" fill="black"/>
<path d="M1129.5 394.406C1126.94 394.406 1124.85 396.495 1124.85 399.062C1124.85 401.629 1126.94 403.718 1129.5 403.718C1132.07 403.718 1134.16 401.629 1134.16 399.062C1134.16 396.495 1132.07 394.406 1129.5 394.406ZM1129.5 402.388C1127.67 402.388 1126.18 400.896 1126.18 399.062C1126.18 397.228 1127.67 395.736 1129.5 395.736C1131.34 395.736 1132.83 397.228 1132.83 399.062C1132.83 400.896 1131.34 402.388 1129.5 402.388Z" fill="black"/>
<path d="M1135.82 395.071C1137.11 395.071 1138.15 394.026 1138.15 392.743C1138.15 391.459 1137.11 390.415 1135.82 390.415C1134.54 390.415 1133.49 391.459 1133.49 392.743C1133.49 394.026 1134.54 395.071 1135.82 395.071ZM1135.82 391.745C1136.37 391.745 1136.82 392.193 1136.82 392.743C1136.82 393.293 1136.37 393.741 1135.82 393.741C1135.27 393.741 1134.82 393.293 1134.82 392.743C1134.82 392.192 1135.27 391.745 1135.82 391.745Z" fill="black"/>
<path d="M1139.69 400.358L1139.48 399.727L1139.27 399.096C1139.18 399.125 1137.09 399.84 1136.45 401.579C1136.09 402.55 1136.25 403.608 1136.92 404.725L1138.06 404.04C1137.61 403.289 1137.48 402.618 1137.69 402.045C1138.11 400.906 1139.68 400.363 1139.69 400.358Z" fill="black"/>
<path d="M1149.46 400.392C1149.46 401.127 1148.86 401.723 1148.13 401.723C1147.39 401.723 1146.8 401.127 1146.8 400.392C1146.8 399.658 1147.39 399.062 1148.13 399.062C1148.86 399.062 1149.46 399.658 1149.46 400.392Z" fill="black"/>
<path d="M1136.82 411.701C1134.99 411.701 1133.49 413.193 1133.49 415.026C1133.49 415.254 1133.52 415.475 1133.56 415.69C1134.02 415.688 1134.48 415.664 1134.93 415.626C1134.87 415.435 1134.82 415.237 1134.82 415.026C1134.82 413.926 1135.72 413.031 1136.82 413.031C1137.85 413.031 1138.69 413.819 1138.8 414.824C1139.23 414.678 1139.66 414.517 1140.07 414.337C1139.75 412.833 1138.42 411.701 1136.82 411.701Z" fill="black"/>
<path d="M1118.53 405.049C1118.35 405.049 1118.18 405.085 1118.01 405.138C1118.42 406.162 1118.92 407.137 1119.51 408.051C1119.92 407.748 1120.19 407.263 1120.19 406.712C1120.19 405.793 1119.45 405.049 1118.53 405.049L1118.53 405.049Z" fill="black"/>
<path d="M1123.38 386.285L1124.32 387.226L1120.66 390.885L1119.72 389.944L1123.38 386.285Z" fill="black"/>
<path d="M1119.91 397.732H1116.92C1116.89 398.171 1116.86 398.614 1116.86 399.062H1119.15L1125.44 409.769L1124.27 412.898C1124.64 413.149 1125.03 413.383 1125.43 413.603L1126.91 409.641L1119.91 397.732Z" fill="black"/>
<text fill="#266141" xml:space="preserve" style="white-space: pre" font-family="Arial" font-size="18" letter-spacing="0em"><tspan x="1104.45" y="791.74">AnnData</tspan></text>
<text fill="black" xml:space="preserve" style="white-space: pre" font-family="Arial" font-size="18" letter-spacing="0em"><tspan x="1109.46" y="770.74">Filtered </tspan><tspan x="1174.55" y="791.74"> </tspan><tspan x="1113.47" y="812.74">Object</tspan></text>
<path d="M1166.55 711.771H1164.5V692.006C1164.49 691.723 1164.37 691.454 1164.16 691.259L1148.44 675.827C1148.24 675.633 1147.97 675.524 1147.69 675.523H1120.71C1117.31 675.523 1114.51 678.405 1114.51 681.938V711.771H1112.45C1111.88 711.771 1111.37 712.175 1111.37 712.753V730.419C1111.37 730.997 1111.88 731.4 1112.45 731.4H1114.51V735.062C1114.51 738.595 1117.31 741.477 1120.71 741.477H1158.29C1161.69 741.477 1164.5 738.595 1164.5 735.062V731.4H1166.55C1167.13 731.4 1167.64 730.997 1167.64 730.419V712.753C1167.64 712.175 1167.13 711.771 1166.55 711.771L1166.55 711.771ZM1148.66 679.039L1160.91 690.964H1151.07C1150.42 690.956 1149.81 690.691 1149.35 690.228C1148.9 689.764 1148.65 689.14 1148.66 688.493L1148.66 679.039ZM1116.6 681.938C1116.6 679.559 1118.47 677.617 1120.71 677.617H1146.57V688.493C1146.56 689.695 1147.03 690.852 1147.87 691.708C1148.72 692.564 1149.87 693.05 1151.07 693.058H1162.4V711.771H1116.6L1116.6 681.938ZM1162.4 735.062C1162.4 737.44 1160.54 739.383 1158.29 739.383H1120.71C1118.47 739.383 1116.6 737.44 1116.6 735.062V731.4H1162.4L1162.4 735.062ZM1165.54 729.307H1113.46V713.865H1165.54V729.307Z" fill="black"/>
<text fill="black" xml:space="preserve" style="white-space: pre" font-family="Oxygen Mono" font-size="16" letter-spacing="0em"><tspan x="1121.28" y="727.746">HDF5</tspan></text>
<path d="M1131.5 683.369V680.556C1131.05 680.61 1130.61 680.678 1130.17 680.766V682.818L1119.25 693.736H1117.2C1117.11 694.173 1117.04 694.618 1116.99 695.066H1119.8L1131.5 683.369Z" fill="black"/>
<path d="M1127.68 707.787L1126.11 711.964C1126.51 712.162 1126.92 712.342 1127.33 712.507L1128.66 708.954L1141.83 706.273L1145.46 708.928C1145.51 708.865 1146.11 707.767 1146.11 707.767L1141.91 704.868L1127.68 707.787Z" fill="black"/>
<path d="M1144.76 692.124L1148.4 689.695C1148.22 689.324 1148.02 688.96 1147.81 688.605L1147.76 688.526L1143.51 691.357L1142.1 703.36L1146.95 706.826C1147.21 706.468 1147.46 706.1 1147.69 705.721L1143.51 702.736L1144.76 692.124Z" fill="black"/>
<path d="M1147.1 687.679L1146.8 687.083C1146.66 686.903 1146.52 686.725 1146.38 686.55L1142.84 688.321L1133.49 682.717V680.432C1133.05 680.432 1132.6 680.455 1132.16 680.49V683.47L1142.78 689.838L1147.1 687.679Z" fill="black"/>
<path d="M1129.5 692.406C1126.94 692.406 1124.85 694.495 1124.85 697.062C1124.85 699.629 1126.94 701.718 1129.5 701.718C1132.07 701.718 1134.16 699.629 1134.16 697.062C1134.16 694.495 1132.07 692.406 1129.5 692.406ZM1129.5 700.388C1127.67 700.388 1126.18 698.896 1126.18 697.062C1126.18 695.228 1127.67 693.736 1129.5 693.736C1131.34 693.736 1132.83 695.228 1132.83 697.062C1132.83 698.896 1131.34 700.388 1129.5 700.388Z" fill="black"/>
<path d="M1135.82 693.071C1137.11 693.071 1138.15 692.026 1138.15 690.743C1138.15 689.459 1137.11 688.415 1135.82 688.415C1134.54 688.415 1133.49 689.459 1133.49 690.743C1133.49 692.026 1134.54 693.071 1135.82 693.071ZM1135.82 689.745C1136.37 689.745 1136.82 690.193 1136.82 690.743C1136.82 691.293 1136.37 691.741 1135.82 691.741C1135.27 691.741 1134.82 691.293 1134.82 690.743C1134.82 690.192 1135.27 689.745 1135.82 689.745Z" fill="black"/>
<path d="M1139.69 698.358L1139.48 697.727L1139.27 697.096C1139.18 697.125 1137.09 697.84 1136.45 699.579C1136.09 700.55 1136.25 701.608 1136.92 702.725L1138.06 702.04C1137.61 701.289 1137.48 700.618 1137.69 700.045C1138.11 698.906 1139.68 698.363 1139.69 698.358Z" fill="black"/>
<path d="M1149.46 698.392C1149.46 699.127 1148.86 699.723 1148.13 699.723C1147.39 699.723 1146.8 699.127 1146.8 698.392C1146.8 697.658 1147.39 697.062 1148.13 697.062C1148.86 697.062 1149.46 697.658 1149.46 698.392Z" fill="black"/>
<path d="M1136.82 709.701C1134.99 709.701 1133.49 711.193 1133.49 713.026C1133.49 713.254 1133.52 713.475 1133.56 713.69C1134.02 713.688 1134.48 713.664 1134.93 713.626C1134.87 713.435 1134.82 713.237 1134.82 713.027C1134.82 711.926 1135.72 711.031 1136.82 711.031C1137.85 711.031 1138.69 711.819 1138.8 712.824C1139.23 712.678 1139.66 712.517 1140.07 712.337C1139.75 710.833 1138.42 709.701 1136.82 709.701Z" fill="black"/>
<path d="M1118.53 703.049C1118.35 703.049 1118.18 703.085 1118.01 703.138C1118.42 704.162 1118.92 705.137 1119.51 706.051C1119.92 705.748 1120.19 705.263 1120.19 704.712C1120.19 703.793 1119.45 703.049 1118.53 703.049L1118.53 703.049Z" fill="black"/>
<path d="M1123.38 684.285L1124.32 685.226L1120.66 688.885L1119.72 687.944L1123.38 684.285Z" fill="black"/>
<path d="M1119.91 695.732H1116.92C1116.89 696.171 1116.86 696.614 1116.86 697.062H1119.15L1125.44 707.769L1124.27 710.898C1124.64 711.149 1125.03 711.383 1125.43 711.603L1126.91 707.641L1119.91 695.732Z" fill="black"/>
<text fill="#266141" xml:space="preserve" style="white-space: pre" font-family="Arial" font-size="18" letter-spacing="0em"><tspan x="1243.95" y="490.74">SCE</tspan></text>
<text fill="black" xml:space="preserve" style="white-space: pre" font-family="Arial" font-size="18" letter-spacing="0em"><tspan x="1248.46" y="469.74">Processed </tspan><tspan x="1280.97" y="490.74"> Object</tspan></text>
<path d="M1320.55 412.771H1318.5V393.006C1318.49 392.723 1318.37 392.454 1318.16 392.259L1302.44 376.827C1302.24 376.633 1301.97 376.524 1301.69 376.523H1274.71C1271.31 376.523 1268.51 379.405 1268.51 382.938V412.771H1266.45C1265.88 412.771 1265.37 413.175 1265.37 413.753V431.419C1265.37 431.997 1265.88 432.4 1266.45 432.4H1268.51V436.062C1268.51 439.595 1271.31 442.477 1274.71 442.477H1312.29C1315.69 442.477 1318.5 439.595 1318.5 436.062V432.4H1320.55C1321.13 432.4 1321.64 431.997 1321.64 431.419V413.753C1321.64 413.175 1321.13 412.771 1320.55 412.771L1320.55 412.771ZM1302.66 380.039L1314.91 391.964H1305.07C1304.42 391.956 1303.81 391.691 1303.35 391.228C1302.9 390.764 1302.65 390.14 1302.66 389.493L1302.66 380.039ZM1270.6 382.938C1270.6 380.559 1272.47 378.617 1274.71 378.617H1300.57V389.493C1300.56 390.695 1301.03 391.852 1301.87 392.708C1302.72 393.564 1303.87 394.05 1305.07 394.058H1316.4V412.771H1270.6L1270.6 382.938ZM1316.4 436.062C1316.4 438.44 1314.54 440.383 1312.29 440.383H1274.71C1272.47 440.383 1270.6 438.44 1270.6 436.062V432.4H1316.4L1316.4 436.062ZM1319.54 430.307H1267.46V414.865H1319.54V430.307Z" fill="black"/>
<text fill="black" xml:space="preserve" style="white-space: pre" font-family="Oxygen Mono" font-size="16" letter-spacing="0em"><tspan x="1280.09" y="428.746">RDS</tspan></text>
<path d="M1285.5 384.369V381.556C1285.05 381.61 1284.61 381.678 1284.17 381.766V383.818L1273.25 394.736H1271.2C1271.11 395.173 1271.04 395.618 1270.99 396.066H1273.8L1285.5 384.369Z" fill="black"/>
<path d="M1281.68 408.787L1280.11 412.964C1280.51 413.161 1280.92 413.342 1281.33 413.507L1282.66 409.954L1295.83 407.273L1299.46 409.928C1299.51 409.865 1300.11 408.767 1300.11 408.767L1295.91 405.868L1281.68 408.787Z" fill="black"/>
<path d="M1298.76 393.124L1302.4 390.695C1302.22 390.324 1302.02 389.96 1301.81 389.605L1301.76 389.526L1297.51 392.357L1296.1 404.36L1300.95 407.826C1301.21 407.468 1301.46 407.1 1301.69 406.721L1297.51 403.736L1298.76 393.124Z" fill="black"/>
<path d="M1301.1 388.679L1300.8 388.083C1300.66 387.903 1300.52 387.725 1300.38 387.55L1296.84 389.321L1287.49 383.717V381.432C1287.05 381.432 1286.6 381.455 1286.16 381.49V384.47L1296.78 390.838L1301.1 388.679Z" fill="black"/>
<path d="M1283.5 393.406C1280.94 393.406 1278.85 395.495 1278.85 398.062C1278.85 400.629 1280.94 402.718 1283.5 402.718C1286.07 402.718 1288.16 400.629 1288.16 398.062C1288.16 395.495 1286.07 393.406 1283.5 393.406ZM1283.5 401.388C1281.67 401.388 1280.18 399.896 1280.18 398.062C1280.18 396.228 1281.67 394.736 1283.5 394.736C1285.34 394.736 1286.83 396.228 1286.83 398.062C1286.83 399.896 1285.34 401.388 1283.5 401.388Z" fill="black"/>
<path d="M1289.82 394.071C1291.11 394.071 1292.15 393.026 1292.15 391.743C1292.15 390.459 1291.11 389.415 1289.82 389.415C1288.54 389.415 1287.49 390.459 1287.49 391.743C1287.49 393.026 1288.54 394.071 1289.82 394.071ZM1289.82 390.745C1290.37 390.745 1290.82 391.193 1290.82 391.743C1290.82 392.293 1290.37 392.741 1289.82 392.741C1289.27 392.741 1288.82 392.293 1288.82 391.743C1288.82 391.192 1289.27 390.745 1289.82 390.745Z" fill="black"/>
<path d="M1293.69 399.358L1293.48 398.727L1293.27 398.096C1293.18 398.125 1291.09 398.84 1290.45 400.579C1290.09 401.55 1290.25 402.608 1290.92 403.725L1292.06 403.04C1291.61 402.289 1291.48 401.618 1291.69 401.045C1292.11 399.906 1293.68 399.363 1293.69 399.358Z" fill="black"/>
<path d="M1303.46 399.392C1303.46 400.127 1302.86 400.723 1302.13 400.723C1301.39 400.723 1300.8 400.127 1300.8 399.392C1300.8 398.658 1301.39 398.062 1302.13 398.062C1302.86 398.062 1303.46 398.658 1303.46 399.392Z" fill="black"/>
<path d="M1290.82 410.701C1288.99 410.701 1287.49 412.193 1287.49 414.026C1287.49 414.254 1287.52 414.475 1287.56 414.69C1288.02 414.688 1288.48 414.664 1288.93 414.626C1288.87 414.435 1288.82 414.237 1288.82 414.026C1288.82 412.926 1289.72 412.031 1290.82 412.031C1291.85 412.031 1292.69 412.819 1292.8 413.824C1293.23 413.678 1293.66 413.517 1294.07 413.337C1293.75 411.833 1292.42 410.701 1290.82 410.701Z" fill="black"/>
<path d="M1272.53 404.049C1272.35 404.049 1272.18 404.085 1272.01 404.138C1272.42 405.162 1272.92 406.137 1273.51 407.051C1273.92 406.748 1274.19 406.263 1274.19 405.712C1274.19 404.793 1273.45 404.049 1272.53 404.049L1272.53 404.049Z" fill="black"/>
<path d="M1277.38 385.285L1278.32 386.226L1274.66 389.885L1273.72 388.944L1277.38 385.285Z" fill="black"/>
<path d="M1273.91 396.732H1270.92C1270.89 397.171 1270.86 397.614 1270.86 398.062H1273.15L1279.44 408.769L1278.27 411.898C1278.64 412.149 1279.03 412.383 1279.43 412.603L1280.91 408.641L1273.91 396.732Z" fill="black"/>
<text fill="#266141" xml:space="preserve" style="white-space: pre" font-family="Arial" font-size="18" letter-spacing="0em"><tspan x="1255.95" y="788.74">AnnData</tspan></text>
<text fill="black" xml:space="preserve" style="white-space: pre" font-family="Arial" font-size="18" letter-spacing="0em"><tspan x="1248.46" y="767.74">Processed </tspan><tspan x="1326.05" y="788.74"> </tspan><tspan x="1264.97" y="809.74">Object</tspan></text>
<path d="M1320.55 710.771H1318.5V691.006C1318.49 690.723 1318.37 690.454 1318.16 690.259L1302.44 674.827C1302.24 674.633 1301.97 674.524 1301.69 674.523H1274.71C1271.31 674.523 1268.51 677.405 1268.51 680.938V710.771H1266.45C1265.88 710.771 1265.37 711.175 1265.37 711.753V729.419C1265.37 729.997 1265.88 730.4 1266.45 730.4H1268.51V734.062C1268.51 737.595 1271.31 740.477 1274.71 740.477H1312.29C1315.69 740.477 1318.5 737.595 1318.5 734.062V730.4H1320.55C1321.13 730.4 1321.64 729.997 1321.64 729.419V711.753C1321.64 711.175 1321.13 710.771 1320.55 710.771L1320.55 710.771ZM1302.66 678.039L1314.91 689.964H1305.07C1304.42 689.956 1303.81 689.691 1303.35 689.228C1302.9 688.764 1302.65 688.14 1302.66 687.493L1302.66 678.039ZM1270.6 680.938C1270.6 678.559 1272.47 676.617 1274.71 676.617H1300.57V687.493C1300.56 688.695 1301.03 689.852 1301.87 690.708C1302.72 691.564 1303.87 692.05 1305.07 692.058H1316.4V710.771H1270.6L1270.6 680.938ZM1316.4 734.062C1316.4 736.44 1314.54 738.383 1312.29 738.383H1274.71C1272.47 738.383 1270.6 736.44 1270.6 734.062V730.4H1316.4L1316.4 734.062ZM1319.54 728.307H1267.46V712.865H1319.54V728.307Z" fill="black"/>
<text fill="black" xml:space="preserve" style="white-space: pre" font-family="Oxygen Mono" font-size="16" letter-spacing="0em"><tspan x="1275.28" y="726.746">HDF5</tspan></text>
<path d="M1285.5 682.369V679.556C1285.05 679.61 1284.61 679.678 1284.17 679.766V681.818L1273.25 692.736H1271.2C1271.11 693.173 1271.04 693.618 1270.99 694.066H1273.8L1285.5 682.369Z" fill="black"/>
<path d="M1281.68 706.787L1280.11 710.964C1280.51 711.162 1280.92 711.342 1281.33 711.507L1282.66 707.954L1295.83 705.273L1299.46 707.928C1299.51 707.865 1300.11 706.767 1300.11 706.767L1295.91 703.868L1281.68 706.787Z" fill="black"/>
<path d="M1298.76 691.124L1302.4 688.695C1302.22 688.324 1302.02 687.96 1301.81 687.605L1301.76 687.526L1297.51 690.357L1296.1 702.36L1300.95 705.826C1301.21 705.468 1301.46 705.1 1301.69 704.721L1297.51 701.736L1298.76 691.124Z" fill="black"/>
<path d="M1301.1 686.679L1300.8 686.083C1300.66 685.903 1300.52 685.725 1300.38 685.55L1296.84 687.321L1287.49 681.717V679.432C1287.05 679.432 1286.6 679.455 1286.16 679.49V682.47L1296.78 688.838L1301.1 686.679Z" fill="black"/>
<path d="M1283.5 691.406C1280.94 691.406 1278.85 693.495 1278.85 696.062C1278.85 698.629 1280.94 700.718 1283.5 700.718C1286.07 700.718 1288.16 698.629 1288.16 696.062C1288.16 693.495 1286.07 691.406 1283.5 691.406ZM1283.5 699.388C1281.67 699.388 1280.18 697.896 1280.18 696.062C1280.18 694.228 1281.67 692.736 1283.5 692.736C1285.34 692.736 1286.83 694.228 1286.83 696.062C1286.83 697.896 1285.34 699.388 1283.5 699.388Z" fill="black"/>
<path d="M1289.82 692.071C1291.11 692.071 1292.15 691.026 1292.15 689.743C1292.15 688.459 1291.11 687.415 1289.82 687.415C1288.54 687.415 1287.49 688.459 1287.49 689.743C1287.49 691.026 1288.54 692.071 1289.82 692.071ZM1289.82 688.745C1290.37 688.745 1290.82 689.193 1290.82 689.743C1290.82 690.293 1290.37 690.741 1289.82 690.741C1289.27 690.741 1288.82 690.293 1288.82 689.743C1288.82 689.192 1289.27 688.745 1289.82 688.745Z" fill="black"/>
<path d="M1293.69 697.358L1293.48 696.727L1293.27 696.096C1293.18 696.125 1291.09 696.84 1290.45 698.579C1290.09 699.55 1290.25 700.608 1290.92 701.725L1292.06 701.04C1291.61 700.289 1291.48 699.618 1291.69 699.045C1292.11 697.906 1293.68 697.363 1293.69 697.358Z" fill="black"/>
<path d="M1303.46 697.392C1303.46 698.127 1302.86 698.723 1302.13 698.723C1301.39 698.723 1300.8 698.127 1300.8 697.392C1300.8 696.658 1301.39 696.062 1302.13 696.062C1302.86 696.062 1303.46 696.658 1303.46 697.392Z" fill="black"/>
<path d="M1290.82 708.701C1288.99 708.701 1287.49 710.193 1287.49 712.026C1287.49 712.254 1287.52 712.475 1287.56 712.69C1288.02 712.688 1288.48 712.664 1288.93 712.626C1288.87 712.435 1288.82 712.237 1288.82 712.027C1288.82 710.926 1289.72 710.031 1290.82 710.031C1291.85 710.031 1292.69 710.819 1292.8 711.824C1293.23 711.678 1293.66 711.517 1294.07 711.337C1293.75 709.833 1292.42 708.701 1290.82 708.701Z" fill="black"/>
<path d="M1272.53 702.049C1272.35 702.049 1272.18 702.085 1272.01 702.138C1272.42 703.162 1272.92 704.137 1273.51 705.051C1273.92 704.748 1274.19 704.263 1274.19 703.712C1274.19 702.793 1273.45 702.049 1272.53 702.049L1272.53 702.049Z" fill="black"/>
<path d="M1277.38 683.285L1278.32 684.226L1274.66 687.885L1273.72 686.944L1277.38 683.285Z" fill="black"/>
<path d="M1273.91 694.732H1270.92C1270.89 695.171 1270.86 695.614 1270.86 696.062H1273.15L1279.44 706.769L1278.27 709.898C1278.64 710.149 1279.03 710.383 1279.43 710.603L1280.91 706.641L1273.91 694.732Z" fill="black"/>
<text fill="black" xml:space="preserve" style="white-space: pre" font-family="Arial" font-size="18" letter-spacing="0em"><tspan x="1559.99" y="469.74">Summary </tspan><tspan x="1555.45" y="490.74">QC Report</tspan></text>
<path d="M1623.55 412.771H1621.5V393.006C1621.49 392.723 1621.37 392.454 1621.16 392.259L1605.44 376.827C1605.24 376.633 1604.97 376.524 1604.69 376.523H1577.71C1574.31 376.523 1571.51 379.405 1571.51 382.938V412.771H1569.45C1568.88 412.771 1568.37 413.175 1568.37 413.753V431.419C1568.37 431.997 1568.88 432.4 1569.45 432.4H1571.51V436.062C1571.51 439.595 1574.31 442.477 1577.71 442.477H1615.29C1618.69 442.477 1621.5 439.595 1621.5 436.062V432.4H1623.55C1624.13 432.4 1624.64 431.997 1624.64 431.419V413.753C1624.64 413.175 1624.13 412.771 1623.55 412.771L1623.55 412.771ZM1605.66 380.039L1617.91 391.964H1608.07C1607.42 391.956 1606.81 391.691 1606.35 391.228C1605.9 390.764 1605.65 390.14 1605.66 389.493L1605.66 380.039ZM1573.6 382.938C1573.6 380.559 1575.47 378.617 1577.71 378.617H1603.57V389.493C1603.56 390.695 1604.03 391.852 1604.87 392.708C1605.72 393.564 1606.87 394.05 1608.07 394.058H1619.4V412.771H1573.6L1573.6 382.938ZM1619.4 436.062C1619.4 438.44 1617.54 440.383 1615.29 440.383H1577.71C1575.47 440.383 1573.6 438.44 1573.6 436.062V432.4H1619.4L1619.4 436.062ZM1622.54 430.307H1570.46V414.865H1622.54V430.307Z" fill="black"/>
<text fill="black" xml:space="preserve" style="white-space: pre" font-family="Oxygen Mono" font-size="16" letter-spacing="0em"><tspan x="1578.78" y="428.746">HTML</tspan></text>
<path d="M1581.31 406.036V413.205C1581.31 413.849 1580.75 414.37 1580.06 414.37L1576.05 414.37C1575.37 414.37 1574.81 413.849 1574.81 413.205V406.036C1574.81 405.392 1575.37 404.867 1576.05 404.867H1580.06C1580.75 404.867 1581.31 405.392 1581.31 406.036Z" fill="black"/>
<path d="M1576 400.615C1576 399.803 1576.71 399.141 1577.57 399.141C1577.85 399.141 1578.11 399.207 1578.33 399.326L1583.97 393.476C1583.79 393.234 1583.69 392.938 1583.69 392.638C1583.69 391.822 1584.4 391.16 1585.26 391.16C1586.13 391.16 1586.83 391.822 1586.83 392.638C1586.83 392.771 1586.81 392.894 1586.78 393.018L1592.06 395.625C1592.35 395.294 1592.79 395.096 1593.27 395.096C1593.56 395.096 1593.85 395.171 1594.09 395.316L1600.33 389.281C1600.17 389.051 1600.08 388.773 1600.08 388.478C1600.08 387.662 1600.78 387 1601.65 387C1602.52 387 1603.22 387.662 1603.22 388.478C1603.22 389.29 1602.52 389.951 1601.65 389.951C1601.35 389.951 1601.07 389.872 1600.84 389.735L1594.6 395.779C1594.76 396.013 1594.84 396.287 1594.84 396.569C1594.84 397.381 1594.14 398.042 1593.27 398.042C1592.4 398.042 1591.69 397.381 1591.69 396.569C1591.69 396.45 1591.71 396.326 1591.74 396.212L1586.45 393.595C1586.16 393.922 1585.72 394.112 1585.26 394.112C1584.99 394.112 1584.72 394.045 1584.49 393.922L1578.86 399.767C1579.04 400.006 1579.15 400.297 1579.15 400.614C1579.15 401.431 1578.44 402.092 1577.57 402.092C1576.71 402.092 1576 401.431 1576 400.615Z" fill="black"/>
<path d="M1589 399.303V412.702C1589 413.42 1588.49 414 1587.85 414H1584.15C1583.52 414 1583 413.42 1583 412.702L1583 399.303C1583 398.585 1583.52 398 1584.15 398H1587.85C1588.49 398 1589 398.585 1589 399.303Z" fill="black"/>
<path d="M1597.23 402.816V413.205C1597.23 413.849 1596.68 414.37 1595.98 414.37H1591.98C1591.29 414.37 1590.73 413.849 1590.73 413.205L1590.73 402.816C1590.73 402.171 1591.29 401.646 1591.98 401.646H1595.98C1596.68 401.646 1597.23 402.171 1597.23 402.816Z" fill="black"/>
<path d="M1605 398.045V412.959C1605 413.535 1604.49 414 1603.85 414H1600.15C1599.52 414 1599 413.535 1599 412.959L1599 398.045C1599 397.469 1599.52 397 1600.15 397H1603.85C1604.49 397 1605 397.469 1605 398.045Z" fill="black"/>
<text fill="black" xml:space="preserve" style="white-space: pre" font-family="Arial" font-size="18" letter-spacing="0em"><tspan x="1717.12" y="464.74">Cell Type </tspan><tspan x="1727.46" y="485.74">Report</tspan></text>
<path d="M1779.55 407.771H1777.5V388.006C1777.49 387.723 1777.37 387.454 1777.16 387.259L1761.44 371.827C1761.24 371.633 1760.97 371.524 1760.69 371.523H1733.71C1730.31 371.523 1727.51 374.405 1727.51 377.938V407.771H1725.45C1724.88 407.771 1724.37 408.175 1724.37 408.753V426.419C1724.37 426.997 1724.88 427.4 1725.45 427.4H1727.51V431.062C1727.51 434.595 1730.31 437.477 1733.71 437.477H1771.29C1774.69 437.477 1777.5 434.595 1777.5 431.062V427.4H1779.55C1780.13 427.4 1780.64 426.997 1780.64 426.419V408.753C1780.64 408.175 1780.13 407.771 1779.55 407.771L1779.55 407.771ZM1761.66 375.039L1773.91 386.964H1764.07C1763.42 386.956 1762.81 386.691 1762.35 386.228C1761.9 385.764 1761.65 385.14 1761.66 384.493L1761.66 375.039ZM1729.6 377.938C1729.6 375.559 1731.47 373.617 1733.71 373.617H1759.57V384.493C1759.56 385.695 1760.03 386.852 1760.87 387.708C1761.72 388.564 1762.87 389.05 1764.07 389.058H1775.4V407.771H1729.6L1729.6 377.938ZM1775.4 431.062C1775.4 433.44 1773.54 435.383 1771.29 435.383H1733.71C1731.47 435.383 1729.6 433.44 1729.6 431.062V427.4H1775.4L1775.4 431.062ZM1778.54 425.307H1726.46V409.865H1778.54V425.307Z" fill="black"/>
<text fill="black" xml:space="preserve" style="white-space: pre" font-family="Oxygen Mono" font-size="16" letter-spacing="0em"><tspan x="1734.78" y="423.746">HTML</tspan></text>
<path d="M1737.31 401.036V408.205C1737.31 408.849 1736.75 409.37 1736.06 409.37L1732.05 409.37C1731.37 409.37 1730.81 408.849 1730.81 408.205V401.036C1730.81 400.392 1731.37 399.867 1732.05 399.867H1736.06C1736.75 399.867 1737.31 400.392 1737.31 401.036Z" fill="black"/>
<path d="M1732 395.615C1732 394.803 1732.71 394.141 1733.57 394.141C1733.85 394.141 1734.11 394.207 1734.33 394.326L1739.97 388.476C1739.79 388.234 1739.69 387.938 1739.69 387.638C1739.69 386.822 1740.4 386.16 1741.26 386.16C1742.13 386.16 1742.83 386.822 1742.83 387.638C1742.83 387.771 1742.81 387.894 1742.78 388.018L1748.06 390.625C1748.35 390.294 1748.79 390.096 1749.27 390.096C1749.56 390.096 1749.85 390.171 1750.09 390.316L1756.33 384.281C1756.17 384.051 1756.08 383.773 1756.08 383.478C1756.08 382.662 1756.78 382 1757.65 382C1758.52 382 1759.22 382.662 1759.22 383.478C1759.22 384.29 1758.52 384.951 1757.65 384.951C1757.35 384.951 1757.07 384.872 1756.84 384.735L1750.6 390.779C1750.76 391.013 1750.84 391.287 1750.84 391.569C1750.84 392.381 1750.14 393.042 1749.27 393.042C1748.4 393.042 1747.69 392.381 1747.69 391.569C1747.69 391.45 1747.71 391.326 1747.74 391.212L1742.45 388.595C1742.16 388.922 1741.72 389.112 1741.26 389.112C1740.99 389.112 1740.72 389.045 1740.49 388.922L1734.86 394.767C1735.04 395.006 1735.15 395.297 1735.15 395.614C1735.15 396.431 1734.44 397.092 1733.57 397.092C1732.71 397.092 1732 396.431 1732 395.615Z" fill="black"/>
<path d="M1745 394.303V407.702C1745 408.42 1744.49 409 1743.85 409H1740.15C1739.52 409 1739 408.42 1739 407.702L1739 394.303C1739 393.585 1739.52 393 1740.15 393H1743.85C1744.49 393 1745 393.585 1745 394.303Z" fill="black"/>
<path d="M1753.23 397.816V408.205C1753.23 408.849 1752.68 409.37 1751.98 409.37H1747.98C1747.29 409.37 1746.73 408.849 1746.73 408.205L1746.73 397.816C1746.73 397.171 1747.29 396.646 1747.98 396.646H1751.98C1752.68 396.646 1753.23 397.171 1753.23 397.816Z" fill="black"/>
<path d="M1761 393.045V407.959C1761 408.535 1760.49 409 1759.85 409H1756.15C1755.52 409 1755 408.535 1755 407.959L1755 393.045C1755 392.469 1755.52 392 1756.15 392H1759.85C1760.49 392 1761 392.469 1761 393.045Z" fill="black"/>
<text fill="black" xml:space="preserve" style="white-space: pre" font-family="Arial" font-size="18" letter-spacing="0em"><tspan x="305.89" y="236.74">Gene by cell count </tspan><tspan x="355.987" y="257.74">matrix </tspan></text>
<path d="M412.396 166.357H409.974V143.052C409.965 142.718 409.824 142.401 409.581 142.171L391.036 123.975C390.801 123.747 390.487 123.618 390.16 123.617H358.346C354.339 123.617 351.033 127.015 351.033 131.18V166.357H348.61C347.928 166.357 347.329 166.833 347.329 167.514V188.345C347.329 189.026 347.928 189.502 348.61 189.502H351.033V193.819C351.033 197.985 354.339 201.383 358.346 201.383H402.66C406.667 201.383 409.973 197.985 409.973 193.819V189.502H412.396C413.077 189.502 413.676 189.026 413.676 188.345V167.514C413.676 166.833 413.078 166.357 412.396 166.357L412.396 166.357ZM391.304 127.762L405.746 141.824H394.143C393.38 141.814 392.652 141.502 392.12 140.955C391.587 140.409 391.294 139.673 391.304 138.91L391.304 127.762ZM353.501 131.18C353.501 128.376 355.7 126.086 358.346 126.086H388.835V138.91C388.825 140.327 389.379 141.691 390.374 142.7C391.369 143.71 392.725 144.283 394.143 144.293H407.505V166.357H353.501L353.501 131.18ZM407.505 193.819C407.505 196.624 405.306 198.914 402.66 198.914H358.346C355.7 198.914 353.501 196.624 353.501 193.819V189.502H407.505L407.505 193.819ZM411.208 187.033H349.798V168.826H411.208V187.033Z" fill="black"/>
<text fill="black" xml:space="preserve" style="white-space: pre" font-family="Oxygen Mono" font-size="16" letter-spacing="0em"><tspan x="364.485" y="184.652">MTX</tspan></text>
<path d="M385.173 136H358.746C357.756 136 357.014 136.786 357.014 137.72V165.735C357.014 166.718 357.805 167.455 358.746 167.455H364.734L371.959 167.455H385.173C386.163 167.455 386.905 166.669 386.905 165.735V150.056L386.905 145.83V137.72C386.905 136.787 386.113 136 385.173 136L385.173 136ZM385.916 145.338H379.68V142.094H385.915L385.916 145.338ZM385.916 149.565H379.68V146.321H385.915L385.916 149.565ZM385.916 153.792H379.68V150.548H385.915L385.916 153.792ZM385.916 158.019H379.68V154.775H385.915L385.916 158.019ZM358.003 154.775H364.239V158.019L358.003 158.019V154.775ZM358.003 150.548H364.239V153.792H358.003V150.548ZM358.003 146.321H364.239V149.565H358.003V146.321ZM365.229 150.548H371.464V153.792H365.229V150.548ZM372.454 150.548H378.69V153.792H372.454V150.548ZM378.69 149.565H372.454V146.321H378.69V149.565ZM371.464 149.565H365.229V146.321H371.464V149.565ZM365.229 154.775H371.464V158.019L365.229 158.019V154.775ZM372.454 154.775H378.69V158.019L372.454 158.019V154.775ZM378.69 145.339H372.454V142.095H378.69V145.339ZM371.464 145.339H365.229V142.095L371.464 142.095V145.339ZM364.239 145.339H358.003V142.095H364.239L364.239 145.339ZM358.003 159.002H364.239V162.245L358.003 162.246V159.002ZM365.229 159.002H371.464V162.245L365.229 162.246V159.002ZM372.454 159.002H378.69V162.245L372.454 162.246V159.002ZM379.68 159.002H385.915V162.245L379.68 162.246V159.002ZM385.916 137.721V141.063H379.68V136.983H385.173C385.569 136.983 385.915 137.327 385.915 137.721L385.916 137.721ZM378.69 141.112H372.454V136.984H378.69V141.112ZM371.464 141.112H365.229V136.984H371.464V141.112ZM358.003 137.721C358.003 137.328 358.35 136.984 358.746 136.984H364.239V141.112H358.003L358.003 137.721ZM358.003 165.735V163.229H364.239L364.239 166.473H358.746C358.35 166.473 358.003 166.129 358.003 165.735L358.003 165.735ZM365.229 163.229H371.464V166.473H365.229V163.229ZM372.454 163.229H378.69V166.473H372.454V163.229ZM385.916 165.735C385.916 166.178 385.569 166.473 385.173 166.473H379.68V163.229H385.915L385.916 165.735Z" fill="black"/>
<path d="M367.356 139.538H369.336C369.633 139.538 369.831 139.342 369.831 139.047C369.831 138.752 369.633 138.555 369.336 138.555H367.356C367.059 138.555 366.861 138.752 366.861 139.047C366.861 139.342 367.059 139.538 367.356 139.538Z" fill="black"/>
<path d="M374.582 139.538H376.561C376.858 139.538 377.056 139.342 377.056 139.047C377.056 138.752 376.858 138.555 376.561 138.555H374.582C374.285 138.555 374.087 138.752 374.087 139.047C374.087 139.342 374.285 139.538 374.582 139.538Z" fill="black"/>
<path d="M381.807 139.538H383.787C384.084 139.538 384.282 139.342 384.282 139.047C384.282 138.752 384.084 138.555 383.787 138.555H381.807C381.51 138.555 381.312 138.752 381.312 139.047C381.312 139.342 381.56 139.538 381.807 139.538Z" fill="black"/>
<path d="M360.23 138.605C360.081 138.506 359.834 138.556 359.735 138.703C359.685 138.752 359.636 138.801 359.586 138.851V139.047C359.586 139.195 359.636 139.293 359.735 139.391C359.735 139.44 359.834 139.489 359.883 139.489C359.933 139.539 359.982 139.539 360.081 139.539C360.18 139.539 360.23 139.539 360.279 139.489C360.329 139.489 360.378 139.44 360.428 139.391C360.527 139.293 360.576 139.195 360.576 139.047C360.576 138.9 360.527 138.801 360.428 138.703C360.378 138.654 360.329 138.605 360.23 138.605Z" fill="black"/>
<path d="M362.358 138.605C362.16 138.506 361.962 138.556 361.814 138.703C361.764 138.752 361.715 138.801 361.715 138.851C361.715 138.9 361.665 138.998 361.665 139.047C361.665 139.195 361.715 139.293 361.813 139.391C361.913 139.489 362.061 139.539 362.16 139.539C362.209 139.539 362.308 139.539 362.358 139.489C362.407 139.489 362.457 139.44 362.506 139.391C362.605 139.293 362.655 139.194 362.655 139.047C362.655 138.9 362.605 138.801 362.506 138.703C362.457 138.654 362.407 138.605 362.358 138.605Z" fill="black"/>
<text fill="black" xml:space="preserve" style="white-space: pre" font-family="Arial" font-size="18" letter-spacing="0em"><tspan x="42" y="235.74">Input FASTQ</tspan></text>
<path d="M127.396 167.357H124.974V144.052C124.965 143.718 124.824 143.401 124.581 143.171L106.036 124.975C105.801 124.747 105.487 124.618 105.16 124.617H73.346C69.3386 124.617 66.0325 128.015 66.0325 132.18V167.357H63.6101C62.9284 167.357 62.3294 167.833 62.3294 168.514V189.345C62.3294 190.026 62.9281 190.502 63.6101 190.502H66.0325V194.819C66.0325 198.985 69.3389 202.383 73.346 202.383H117.66C121.667 202.383 124.973 198.985 124.973 194.819V190.502H127.396C128.077 190.502 128.676 190.026 128.676 189.345V168.514C128.676 167.833 128.078 167.357 127.396 167.357L127.396 167.357ZM106.304 128.762L120.746 142.824H109.143C108.38 142.814 107.652 142.502 107.12 141.955C106.587 141.409 106.294 140.673 106.304 139.91L106.304 128.762ZM68.5011 132.18C68.5011 129.376 70.6998 127.086 73.346 127.086H103.835V139.91C103.825 141.327 104.379 142.691 105.374 143.7C106.369 144.71 107.725 145.283 109.143 145.293H122.505V167.357H68.501L68.5011 132.18ZM122.505 194.819C122.505 197.624 120.306 199.914 117.66 199.914H73.3461C70.7 199.914 68.5012 197.624 68.5012 194.819V190.502H122.505L122.505 194.819ZM126.208 188.033H64.798V169.826H126.208V188.033Z" fill="black"/>
<text fill="black" xml:space="preserve" style="white-space: pre" font-family="Oxygen Mono" font-size="16" letter-spacing="0em"><tspan x="71.4765" y="184.651">FASTQ</tspan></text>
<text fill="black" xml:space="preserve" style="white-space: pre" font-family="Arial" font-size="18" letter-spacing="0em"><tspan x="900.452" y="233.74">Filter empty </tspan><tspan x="915.455" y="254.74">droplets</tspan></text>
<path d="M972.294 153.616H967.981V149.309H965.825V153.616H929.169V149.309H927.013V153.616H922.7C921.842 153.616 921.02 153.957 920.413 154.563C919.807 155.169 919.466 155.99 919.466 156.847V159.001C919.469 159.767 919.744 160.508 920.242 161.09C920.741 161.672 921.431 162.059 922.188 162.18L942.107 183.124V197.769C942.105 198.144 942.297 198.492 942.615 198.69C942.933 198.887 943.331 198.906 943.667 198.739L952.292 194.431C952.472 194.341 952.623 194.203 952.728 194.031C952.834 193.86 952.889 193.663 952.888 193.462V183.124L972.807 162.18C973.564 162.059 974.254 161.672 974.752 161.09C975.251 160.508 975.526 159.767 975.529 159.001V156.847C975.529 155.99 975.188 155.168 974.581 154.563C973.975 153.957 973.152 153.616 972.294 153.616L972.294 153.616ZM973.372 159.001C973.372 159.287 973.258 159.56 973.056 159.762C972.854 159.964 972.58 160.078 972.294 160.078H967.981V162.232H969.783L951.024 181.952C950.835 182.152 950.731 182.417 950.731 182.693V192.796L944.263 196.027V182.693C944.262 182.417 944.156 182.152 943.966 181.952L925.211 162.232H965.825V160.078H922.7C922.414 160.078 922.14 159.964 921.938 159.762C921.735 159.56 921.622 159.287 921.622 159.001V156.847C921.622 156.562 921.735 156.288 921.938 156.086C922.14 155.884 922.414 155.77 922.7 155.77H972.294C972.58 155.77 972.854 155.884 973.056 156.086C973.258 156.288 973.372 156.562 973.372 156.847L973.372 159.001Z" fill="black"/>
<path d="M947.5 151.463C949.216 151.463 950.861 150.782 952.074 149.57C953.287 148.358 953.969 146.715 953.969 145.001C953.969 143.288 953.287 141.644 952.074 140.432C950.861 139.22 949.216 138.54 947.5 138.54C945.784 138.54 944.139 139.221 942.926 140.432C941.713 141.644 941.031 143.288 941.031 145.001C941.033 146.714 941.715 148.357 942.928 149.568C944.14 150.78 945.785 151.461 947.5 151.463ZM947.5 140.694C948.644 140.694 949.741 141.147 950.549 141.955C951.358 142.763 951.812 143.859 951.812 145.001C951.812 146.144 951.358 147.239 950.549 148.047C949.741 148.855 948.644 149.309 947.5 149.309C946.356 149.309 945.259 148.855 944.451 148.047C943.642 147.239 943.187 146.144 943.187 145.001C943.187 143.859 943.642 142.763 944.451 141.955C945.259 141.148 946.356 140.694 947.5 140.694Z" fill="black"/>
<path d="M936.719 142.847H938.875V151.463H936.719V142.847Z" fill="black"/>
<path d="M956.125 142.847H958.281V151.463H956.125V142.847Z" fill="black"/>
<path d="M956.125 134.232H958.281V138.54H956.125V134.232Z" fill="black"/>
<path d="M936.719 134.232H938.875V138.54H936.719V134.232Z" fill="black"/>
<path d="M967.023 145.933C968.738 145.933 970.384 145.252 971.597 144.04C972.81 142.828 973.492 141.185 973.492 139.471C973.492 137.758 972.81 136.114 971.597 134.902C970.384 133.69 968.738 133.01 967.023 133.01C965.307 133.01 963.662 133.691 962.449 134.902C961.235 136.114 960.554 137.758 960.554 139.471C960.556 141.184 961.238 142.827 962.451 144.038C963.663 145.25 965.308 145.931 967.023 145.933Z" fill="black"/>
<path d="M926.928 146.864C928.644 146.864 930.289 146.183 931.502 144.972C932.716 143.76 933.397 142.116 933.397 140.403C933.397 138.689 932.715 137.045 931.502 135.834C930.289 134.622 928.644 133.941 926.928 133.941C925.213 133.941 923.567 134.622 922.354 135.834C921.141 137.045 920.459 138.689 920.459 140.403C920.461 142.116 921.143 143.758 922.356 144.97C923.569 146.181 925.213 146.862 926.928 146.864ZM926.928 136.095C928.072 136.095 929.169 136.549 929.977 137.357C930.786 138.164 931.241 139.26 931.241 140.403C931.241 141.545 930.786 142.641 929.977 143.448C929.169 144.256 928.072 144.71 926.928 144.71C925.785 144.71 924.687 144.256 923.879 143.448C923.07 142.641 922.616 141.545 922.616 140.403C922.616 139.26 923.07 138.164 923.879 137.357C924.687 136.549 925.785 136.095 926.928 136.095Z" fill="black"/>
<path d="M926.928 131.962C928.644 131.962 930.289 131.281 931.502 130.07C932.716 128.858 933.397 127.214 933.397 125.501C933.397 123.787 932.715 122.143 931.502 120.932C930.289 119.72 928.644 119.039 926.928 119.039C925.213 119.039 923.567 119.72 922.354 120.932C921.141 122.143 920.459 123.787 920.459 125.501C920.461 127.214 921.143 128.856 922.356 130.068C923.569 131.279 925.213 131.96 926.928 131.962Z" fill="black"/>
<path d="M967.023 130.099C968.738 130.099 970.384 129.419 971.597 128.207C972.81 126.995 973.492 125.352 973.492 123.638C973.492 121.924 972.81 120.281 971.597 119.069C970.384 117.857 968.738 117.176 967.023 117.176C965.307 117.176 963.662 117.857 962.449 119.069C961.235 120.281 960.554 121.924 960.554 123.638C960.556 125.351 961.238 126.994 962.451 128.205C963.663 129.416 965.308 130.097 967.023 130.099ZM967.023 119.33C968.167 119.33 969.264 119.784 970.072 120.592C970.881 121.4 971.335 122.496 971.335 123.638C971.335 124.78 970.881 125.876 970.072 126.684C969.264 127.492 968.166 127.945 967.023 127.945C965.879 127.945 964.782 127.492 963.974 126.684C963.165 125.876 962.71 124.78 962.71 123.638C962.71 122.496 963.165 121.4 963.974 120.592C964.782 119.784 965.879 119.33 967.023 119.33Z" fill="black"/>
<path d="M947.442 118.923C949.157 118.923 950.803 118.242 952.016 117.03C953.229 115.819 953.91 114.175 953.91 112.461C953.91 110.748 953.229 109.104 952.016 107.892C950.803 106.681 949.157 106 947.442 106C945.726 106 944.081 106.681 942.868 107.892C941.654 109.104 940.973 110.748 940.973 112.461C940.975 114.175 941.657 115.817 942.87 117.028C944.082 118.24 945.727 118.921 947.442 118.923ZM947.442 108.154C948.585 108.154 949.682 108.608 950.491 109.416C951.3 110.223 951.754 111.319 951.754 112.461C951.754 113.604 951.3 114.7 950.491 115.507C949.682 116.315 948.585 116.769 947.442 116.769C946.298 116.769 945.201 116.315 944.392 115.507C943.584 114.7 943.129 113.604 943.129 112.461C943.129 111.319 943.584 110.223 944.392 109.416C945.201 108.608 946.298 108.154 947.442 108.154Z" fill="black"/>
<path d="M947.442 134.756C949.157 134.756 950.803 134.075 952.016 132.864C953.229 131.652 953.91 130.008 953.91 128.295C953.91 126.581 953.229 124.938 952.016 123.726C950.803 122.514 949.157 121.833 947.442 121.833C945.726 121.833 944.081 122.514 942.868 123.726C941.654 124.938 940.973 126.581 940.973 128.295C940.975 130.008 941.657 131.65 942.87 132.862C944.082 134.073 945.727 134.754 947.442 134.756Z" fill="black"/>
<path d="M318 168L308 162.226V173.774L318 168ZM147 169H309V167H147V169Z" fill="black"/>
<path d="M619 168L609 162.226V173.774L619 168ZM455 169H610V167H455V169Z" fill="black"/>
<path d="M894 166.5L884.019 160.693L883.981 172.24L894 166.5ZM744.997 167L884.997 167.47L885.003 165.47L745.003 165L744.997 167Z" fill="black"/>
<path d="M1155 167L1145 161.226L1145 172.773L1155 167ZM1001 168L1146 168L1146 166L1001 166L1001 168Z" fill="black"/>
<path d="M1413 166L1403 160.227L1403 171.774L1413 166ZM1276 167L1404 167L1404 165L1276 165L1276 167Z" fill="black"/>
<path d="M1769 167L1759 161.227L1759 172.774L1769 167ZM1632 168L1760 168L1760 166L1632 166L1632 168Z" fill="black"/>
<text fill="#266141" xml:space="preserve" style="white-space: pre" font-family="Arial" font-size="18" letter-spacing="0em"><tspan x="192.969" y="149.74">alevin-fry</tspan></text>
<text fill="black" xml:space="preserve" style="white-space: pre" font-family="Arial" font-size="18" letter-spacing="0em"><tspan x="187.959" y="149.74"> </tspan></text>
<text fill="#266141" xml:space="preserve" style="white-space: pre" font-family="Arial" font-size="18" letter-spacing="0em"><tspan x="1222.05" y="255.74">miQC</tspan></text>
<text fill="black" xml:space="preserve" style="white-space: pre" font-family="Arial" font-size="18" letter-spacing="0em"><tspan x="1122.4" y="234.74">Remove low quality </tspan><tspan x="1132.93" y="255.74">cells using </tspan></text>
<path fill-rule="evenodd" clip-rule="evenodd" d="M1188.34 136.122H1178.4C1177.23 136.122 1176.12 136.586 1175.29 137.413C1174.46 138.24 1174 139.359 1174 140.529C1174 149.598 1177.18 177.591 1177.18 187.201C1177.18 190.322 1179.86 192.898 1183.21 192.898H1212.32C1215.68 192.898 1218.36 190.322 1218.36 187.201C1218.36 179.053 1220.64 157.683 1221.34 145.843L1232.79 188.56C1233.08 189.675 1233.81 190.625 1234.81 191.202C1235.81 191.779 1237 191.936 1238.11 191.636H1238.12C1239.23 191.336 1240.18 190.607 1240.76 189.607C1241.34 188.608 1241.49 187.421 1241.19 186.307L1237.54 172.667C1237.61 172.649 1237.68 172.632 1237.75 172.611H1237.75C1240.97 171.749 1242.89 168.435 1242.02 165.211L1238.91 153.61C1238.05 150.386 1234.74 148.473 1231.51 149.337L1231.3 149.393L1227.65 135.755C1227.35 134.641 1226.62 133.691 1225.62 133.113C1224.62 132.536 1223.44 132.38 1222.32 132.68H1222.32C1221.2 132.979 1220.25 133.708 1219.67 134.706C1219.34 135.289 1219.15 135.931 1219.1 136.589C1218.49 136.284 1217.82 136.123 1217.13 136.123H1200.25L1198.94 136.122C1198.41 136.122 1198.6 136.122 1197.88 136.122C1197.15 136.122 1195.53 136.122 1194.69 136.122C1193.85 136.122 1191.84 136.122 1189.92 136.122C1188 136.122 1188.34 136.122 1188.34 136.122ZM1219.09 140.529C1219.09 149.598 1215.91 177.591 1215.91 187.201C1215.91 189.023 1214.28 190.453 1212.32 190.453H1183.21C1181.25 190.453 1179.63 189.023 1179.63 187.201C1179.63 177.592 1176.45 149.597 1176.45 140.529C1176.45 140.007 1176.65 139.51 1177.02 139.142C1177.39 138.774 1177.88 138.567 1178.4 138.567H1217.13C1217.65 138.567 1218.15 138.774 1218.52 139.142C1218.89 139.51 1219.09 140.006 1219.09 140.529ZM1225.29 136.387L1238.83 186.938C1238.96 187.425 1238.89 187.946 1238.64 188.382C1238.39 188.821 1237.97 189.141 1237.48 189.272H1237.48C1236.99 189.403 1236.47 189.335 1236.03 189.081C1235.6 188.829 1235.28 188.412 1235.15 187.924L1221.6 137.374C1221.47 136.885 1221.54 136.366 1221.79 135.927C1222.04 135.491 1222.46 135.171 1222.95 135.04H1222.95C1223.44 134.909 1223.96 134.977 1224.4 135.229C1224.84 135.484 1225.15 135.901 1225.29 136.387ZM1236.91 170.307L1231.94 151.754C1232 151.736 1232.07 151.719 1232.14 151.699C1234.07 151.184 1236.04 152.324 1236.55 154.242L1239.66 165.843C1240.17 167.764 1239.04 169.735 1237.12 170.249L1236.91 170.307Z" fill="black"/>
<path fill-rule="evenodd" clip-rule="evenodd" d="M1208.53 122.378C1208.87 121.793 1208.67 121.046 1208.08 120.708L1203.11 117.838C1202.53 117.5 1201.78 117.7 1201.44 118.285L1198.57 123.257C1198.23 123.841 1198.43 124.59 1199.02 124.928L1203.99 127.798C1204.58 128.136 1205.32 127.935 1205.66 127.35L1208.53 122.378ZM1205.8 122.215L1204.16 125.069L1201.3 123.42L1202.95 120.567L1205.8 122.215Z" fill="black"/>
<path fill-rule="evenodd" clip-rule="evenodd" d="M1199.4 130.296C1199.59 129.729 1199.3 129.109 1198.73 128.91L1193.91 127.22C1193.35 127.021 1192.73 127.319 1192.53 127.885L1190.84 132.701C1190.64 133.266 1190.94 133.888 1191.5 134.087L1196.32 135.778C1196.89 135.977 1197.51 135.678 1197.7 135.111L1199.4 130.296ZM1196.98 130.602L1196.01 133.366L1193.25 132.395L1194.22 129.632L1196.98 130.602Z" fill="black"/>
<path fill-rule="evenodd" clip-rule="evenodd" d="M1200.86 113.046C1201.34 112.57 1201.34 111.795 1200.86 111.318L1195.9 106.359C1195.43 105.881 1194.65 105.881 1194.17 106.357L1189.22 111.316C1188.74 111.794 1188.74 112.568 1189.22 113.046L1194.17 118.005C1194.65 118.483 1195.43 118.483 1195.9 118.005L1200.86 113.046ZM1198.27 112.181L1195.04 115.412L1191.81 112.183L1195.04 108.952L1198.27 112.181Z" fill="black"/>
<path d="M1198.41 153.384C1191.17 153.384 1185.3 159.252 1185.3 166.49C1185.3 173.728 1191.17 179.596 1198.41 179.596C1205.65 179.596 1211.51 173.728 1211.51 166.49C1211.51 159.252 1205.65 153.384 1198.41 153.384ZM1198.41 176.975C1192.62 176.975 1187.92 172.28 1187.92 166.49C1187.92 160.699 1192.62 156.005 1198.41 156.005C1204.2 156.005 1208.89 160.699 1208.89 166.49C1208.89 172.28 1204.2 176.975 1198.41 176.975Z" fill="black"/>
<path d="M1201.96 162.942C1201.44 162.43 1200.61 162.43 1200.1 162.942L1198.41 164.636L1196.71 162.942C1196.2 162.43 1195.37 162.43 1194.86 162.942C1194.35 163.454 1194.35 164.284 1194.86 164.795L1196.55 166.49L1194.86 168.184C1194.35 168.696 1194.35 169.526 1194.86 170.038C1195.37 170.55 1196.2 170.55 1196.71 170.038L1198.41 168.343L1200.1 170.038C1200.61 170.55 1201.44 170.55 1201.96 170.038C1202.47 169.526 1202.47 168.696 1201.96 168.184L1200.26 166.49L1201.96 164.795C1202.47 164.284 1202.47 163.454 1201.96 162.942Z" fill="black"/>
<text fill="black" xml:space="preserve" style="white-space: pre" font-family="Arial" font-size="18" letter-spacing="0em"><tspan x="1375.82" y="239.74">Normalization and dimensionality </tspan><tspan x="1385.86" y="260.74">reduction with PCA and UMAP</tspan></text>
<path d="M1590.43 192.01C1567.98 192.01 1550.85 186.187 1538.14 174.236C1527.3 164.047 1521.63 151.137 1517.03 140.795C1512.13 129.647 1508.56 121.565 1501.48 121.565C1494.31 121.565 1489.95 130.184 1484.47 141.064C1479.26 151.407 1472.79 164.239 1461.49 174.352C1448.23 186.228 1431.11 192.012 1409.16 192.012V189.407C1457.08 189.407 1471.52 160.83 1482.06 139.915C1487.99 128.231 1492.63 119 1501.52 119C1510.36 119 1514.43 128.156 1519.52 139.8C1528.75 160.753 1541.39 189.445 1590.46 189.445L1590.46 192.012L1590.43 192.01Z" fill="black"/>
<path d="M1409 192.814H1590.5V194.347H1409V192.814Z" fill="black"/>
<path d="M1536.37 183.2V175.04H1530.01V167.915H1523.65V156.27H1517.29L1517.29 144.357H1510.93L1510.93 133.554H1504.58V127.885H1496.68V133.554H1490.06V144.318H1483.7V156.27H1477.34V167.915H1470.98V175.04H1464.62V183.2H1458.22V191.895H1542.77V183.2H1536.37ZM1464.58 190.363H1459.76V184.731H1464.58V190.363ZM1466.15 190.363V176.572L1470.98 176.573V190.363L1466.15 190.363ZM1472.51 190.363V169.448H1477.34V190.363H1472.51ZM1483.7 190.363H1478.87V157.802H1483.7V190.363ZM1485.23 190.363V145.889H1490.06V190.401H1485.23V190.363ZM1496.42 190.363H1491.59V135.087H1496.42V190.363ZM1498.22 190.363V129.416H1503.04V190.363H1498.22ZM1504.58 190.363V135.087H1509.4V190.364L1504.58 190.363ZM1515.76 190.363H1510.93V145.889H1515.76V190.363ZM1517.29 190.363V157.802H1522.12V190.363H1517.29ZM1523.65 190.363V169.448H1528.48V190.363H1523.65ZM1534.84 190.363H1530.01V176.572H1534.84V190.363ZM1541.24 190.363H1536.41V184.731H1541.24V190.363Z" fill="black"/>
<path d="M690 316.5H689V317.5H690V316.5ZM983.5 316.5H984.5V315.5H983.5V316.5ZM983.5 350.5L989.274 340.5H977.726L983.5 350.5ZM689 271.5V316.5H691V271.5H689ZM690 317.5H983.5V315.5H690V317.5ZM982.5 316.5V341.5H984.5V316.5H982.5Z" fill="black"/>
<path d="M954.5 298.5H953.5V299.5H954.5V298.5ZM1133 298.5H1134V297.5H1133V298.5ZM1133 350L1138.77 340H1127.23L1133 350ZM953.5 268V298.5H955.5V268H953.5ZM954.5 299.5H1133V297.5H954.5V299.5ZM1132 298.5V341H1134V298.5H1132Z" fill="black"/>
<path d="M1280 301.5V300.5H1279V301.5H1280ZM1280 350L1285.77 340H1274.23L1280 350ZM1592.5 301.5H1593.5V300.5H1592.5V301.5ZM1592.5 350L1598.27 340H1586.73L1592.5 350ZM1506.5 270V301.5H1508.5V270H1506.5ZM1279 301.5V341H1281V301.5H1279ZM1507.5 300.5H1441.5V302.5H1507.5V300.5ZM1441.5 300.5H1280V302.5H1441.5V300.5ZM1507.5 302.5H1592.5V300.5H1507.5V302.5ZM1591.5 301.5V341H1593.5V301.5H1591.5Z" fill="black"/>
<text fill="black" xml:space="preserve" style="white-space: pre" font-family="Arial" font-size="18" letter-spacing="0em"><tspan x="1772.36" y="250.74">Cell type annotation</tspan></text>
<path d="M1845.36 172.867C1845.07 172.416 1844.56 172.139 1844.01 172.139H1831.65C1829.38 172.139 1827.27 173.301 1826.14 175.171L1821.37 183.04C1820.24 184.91 1820.24 187.233 1821.37 189.103L1826.14 196.972C1827.27 198.842 1829.38 200.004 1831.65 200.004H1844.01C1844.56 200.004 1845.07 199.727 1845.36 199.276L1853.15 186.838C1853.45 186.366 1853.45 185.777 1853.15 185.305L1845.36 172.867ZM1843.12 197.015H1831.65C1830.5 197.015 1829.43 196.426 1828.85 195.478L1824.09 187.609C1823.51 186.661 1823.51 185.483 1824.09 184.535L1828.85 176.666C1829.43 175.718 1830.5 175.129 1831.65 175.129H1843.12L1849.98 186.072L1843.12 197.015Z" fill="black"/>
<path d="M1892.2 163.497L1882.37 147.94L1885.61 141.921C1886 141.186 1885.7 140.286 1884.93 139.91C1884.15 139.534 1883.21 139.824 1882.82 140.559L1879.6 146.548L1858.66 147.505L1853.54 141.766C1852.98 141.138 1851.99 141.062 1851.33 141.596C1850.67 142.131 1850.59 143.075 1851.15 143.703L1856.08 149.228L1847.52 164.566C1847.21 165.13 1847 165.733 1846.88 166.349C1846.26 166.153 1845.59 166.048 1844.92 166.048H1825.98L1822.24 161.271C1821.72 160.609 1820.74 160.473 1820.04 160.967C1819.35 161.46 1819.21 162.397 1819.72 163.059L1823.32 167.648L1813.99 183.04C1812.86 184.911 1812.86 187.234 1813.99 189.104L1823.32 204.497L1819.72 209.099C1819.21 209.761 1819.35 210.697 1820.04 211.19C1820.74 211.683 1821.72 211.547 1822.24 210.884L1825.98 206.096H1846.72L1849.4 210.716C1849.82 211.433 1850.77 211.701 1851.53 211.298C1852.29 210.898 1852.57 209.988 1852.15 209.266L1849.45 204.629L1859.13 189.18C1859.52 188.55 1859.79 187.868 1859.92 187.17C1860.63 187.393 1861.37 187.501 1862.13 187.476L1880.91 186.883L1885.58 192.94C1886.09 193.604 1887.07 193.75 1887.77 193.261C1888.47 192.772 1888.62 191.837 1888.1 191.171L1883.53 185.237L1892.36 169.48C1893.41 167.609 1893.35 165.316 1892.2 163.497L1892.2 163.497ZM1856.44 187.648L1846.75 203.106H1826.1L1816.71 187.609C1816.13 186.66 1816.13 185.482 1816.71 184.534L1826.1 169.037H1844.92C1846.05 169.037 1847.11 169.61 1847.69 170.534L1856.44 184.495C1857.05 185.467 1857.05 186.675 1856.44 187.647L1856.44 187.648ZM1889.6 168.073L1880.73 183.898L1862.02 184.489C1860.85 184.523 1859.75 183.952 1859.15 182.992L1859.13 182.964C1859.13 182.963 1859.13 182.963 1859.13 182.962L1850.38 169.002C1850.38 169.001 1850.38 169 1850.38 169L1850.37 168.988C1849.8 168.07 1849.77 166.913 1850.29 165.969L1858.93 150.485L1879.72 149.535L1889.52 165.039C1890.1 165.961 1890.13 167.124 1889.6 168.073L1889.6 168.073Z" fill="black"/>
<path d="M1879.89 155.825C1878.68 153.911 1876.48 152.791 1874.14 152.895L1864.55 153.334C1862.32 153.436 1860.28 154.666 1859.23 156.544L1854.84 164.413C1853.82 166.257 1853.86 168.522 1854.97 170.324L1860.01 178.515C1861.22 180.483 1863.44 181.586 1865.71 181.51L1875.05 181.216C1877.33 181.143 1879.41 179.9 1880.47 177.97L1885.05 169.638C1886.07 167.775 1886 165.498 1884.86 163.696L1879.89 155.825ZM1882.27 168.251L1877.69 176.583C1877.15 177.562 1876.1 178.192 1874.94 178.229L1865.6 178.524C1864.42 178.559 1863.31 177.98 1862.71 177.005L1857.68 168.814C1857.12 167.901 1857.09 166.752 1857.61 165.817L1862 157.948C1862.53 156.996 1863.57 156.372 1864.7 156.32L1874.29 155.882C1875.47 155.828 1876.59 156.397 1877.2 157.367L1882.18 165.239C1882.76 166.153 1882.79 167.307 1882.27 168.252L1882.27 168.251Z" fill="black"/>
<path d="M1869.89 158.814C1866.32 158.814 1863.53 160.809 1863.53 163.355C1863.53 165.901 1866.32 167.895 1869.89 167.895C1873.46 167.895 1876.25 165.901 1876.25 163.355C1876.25 160.809 1873.46 158.814 1869.89 158.814ZM1869.89 164.906C1867.92 164.906 1866.66 163.987 1866.66 163.355C1866.66 162.722 1867.92 161.804 1869.89 161.804C1871.86 161.804 1873.11 162.722 1873.11 163.355C1873.11 163.987 1871.86 164.906 1869.89 164.906Z" fill="black"/>
<path d="M1835.86 178.754C1832.29 178.754 1829.5 180.748 1829.5 183.294C1829.5 185.84 1832.29 187.835 1835.86 187.835C1839.43 187.835 1842.22 185.84 1842.22 183.294C1842.22 180.748 1839.43 178.754 1835.86 178.754ZM1835.86 184.846C1833.89 184.846 1832.63 183.927 1832.63 183.294C1832.63 182.662 1833.89 181.743 1835.86 181.743C1837.83 181.743 1839.08 182.662 1839.08 183.294C1839.08 183.927 1837.83 184.846 1835.86 184.846Z" fill="black"/>
<path d="M1841.58 192.291C1841.58 193.116 1840.88 193.785 1840.01 193.785C1839.15 193.785 1838.45 193.116 1838.45 192.291C1838.45 191.466 1839.15 190.796 1840.01 190.796C1840.88 190.796 1841.58 191.465 1841.58 192.291Z" fill="black"/>
<path d="M1874.81 173.254C1874.81 174.079 1874.11 174.749 1873.24 174.749C1872.38 174.749 1871.68 174.08 1871.68 173.254C1871.68 172.429 1872.38 171.759 1873.24 171.759C1874.11 171.759 1874.81 172.429 1874.81 173.254Z" fill="black"/>
<path d="M1891 130H1873C1873 130 1873 138.609 1873 145" stroke="black" stroke-width="2" stroke-linecap="round" stroke-linejoin="round"/>
<path d="M1893 209H1869C1869 209 1869 196.5 1869 190.971" stroke="black" stroke-width="2" stroke-linecap="round" stroke-linejoin="round"/>
<path d="M1850 156H1827C1827 156 1827 139 1827 137.971" stroke="black" stroke-width="2" stroke-linecap="round" stroke-linejoin="round"/>
<path d="M1894 123H1928V134H1894V123Z" stroke="black" stroke-width="2"/>
<path d="M1895 202H1927V215H1895V202Z" stroke="black" stroke-width="2"/>
<path d="M1811 123H1838V134H1811V123Z" stroke="black" stroke-width="2"/>
<path d="M1780 196H1807V206H1780V196Z" stroke="black" stroke-width="2"/>
<path d="M1815 178H1805.29H1793V193" stroke="black" stroke-width="2" stroke-linecap="round" stroke-linejoin="round"/>
<path d="M1751.5 349L1757.27 339H1745.73L1751.5 349ZM1751.5 300.5V299.5H1750.5V300.5H1751.5ZM1864 300.5V301.5H1865V300.5H1864ZM1750.5 300.5V340H1752.5V300.5H1750.5ZM1863 270V300.5H1865V270H1863ZM1864 299.5H1751.5V301.5H1864V299.5Z" fill="black"/>
<path d="M1141 645L1146.77 635L1135.23 635L1141 645ZM1140 520L1140 636L1142 636L1142 520L1140 520Z" fill="black"/>
<text fill="#266141" xml:space="preserve" style="white-space: pre" font-family="Arial" font-size="18" letter-spacing="0em"><tspan x="1044.95" y="585.74">AnnData</tspan></text>
<text fill="black" xml:space="preserve" style="white-space: pre" font-family="Arial" font-size="18" letter-spacing="0em"><tspan x="1038.45" y="564.74">Convert to </tspan></text>
</svg>
