<svg width="1322" height="599" viewBox="0 0 1322 599" fill="none" xmlns="http://www.w3.org/2000/svg">
<rect width="1322" height="599" fill="white"/>
<text fill="black" xml:space="preserve" style="white-space: pre" font-family="Arial" font-size="18" letter-spacing="0em"><tspan x="464.447" y="216.74">Classify Cell </tspan><tspan x="489.979" y="237.74">Types</tspan></text>
<text fill="black" xml:space="preserve" style="white-space: pre" font-family="Arial" font-size="18" letter-spacing="0em"><tspan x="470.447" y="457.74">Classify Cell </tspan><tspan x="495.979" y="478.74">Types</tspan></text>
<text fill="black" xml:space="preserve" style="white-space: pre" font-family="Arial" font-size="18" letter-spacing="0em"><tspan x="1162.12" y="298.74">Cell Type </tspan><tspan x="1172.46" y="319.74">Report</tspan></text>
<path d="M1224.55 241.771H1222.5V222.006C1222.49 221.723 1222.37 221.454 1222.16 221.259L1206.44 205.827C1206.24 205.633 1205.97 205.524 1205.69 205.523H1178.71C1175.31 205.523 1172.51 208.405 1172.51 211.938V241.771H1170.45C1169.88 241.771 1169.37 242.175 1169.37 242.753V260.419C1169.37 260.997 1169.88 261.4 1170.45 261.4H1172.51V265.062C1172.51 268.595 1175.31 271.477 1178.71 271.477H1216.29C1219.69 271.477 1222.5 268.595 1222.5 265.062V261.4H1224.55C1225.13 261.4 1225.64 260.997 1225.64 260.419V242.753C1225.64 242.175 1225.13 241.771 1224.55 241.771L1224.55 241.771ZM1206.66 209.039L1218.91 220.964H1209.07C1208.42 220.956 1207.81 220.691 1207.35 220.228C1206.9 219.765 1206.65 219.14 1206.66 218.493L1206.66 209.039ZM1174.6 211.938C1174.6 209.559 1176.47 207.617 1178.71 207.617H1204.57V218.493C1204.56 219.696 1205.03 220.852 1205.87 221.708C1206.72 222.564 1207.87 223.05 1209.07 223.058H1220.4V241.772H1174.6L1174.6 211.938ZM1220.4 265.062C1220.4 267.44 1218.54 269.383 1216.29 269.383H1178.71C1176.47 269.383 1174.6 267.44 1174.6 265.062V261.4H1220.4L1220.4 265.062ZM1223.54 259.307H1171.46V243.866H1223.54V259.307Z" fill="black"/>
<text fill="black" xml:space="preserve" style="white-space: pre" font-family="Oxygen Mono" font-size="16" letter-spacing="0em"><tspan x="1179.78" y="257.746">HTML</tspan></text>
<path d="M1182.31 235.036V242.205C1182.31 242.849 1181.75 243.37 1181.06 243.37L1177.05 243.37C1176.37 243.37 1175.81 242.849 1175.81 242.205V235.036C1175.81 234.392 1176.37 233.867 1177.05 233.867H1181.06C1181.75 233.867 1182.31 234.392 1182.31 235.036Z" fill="black"/>
<path d="M1177 229.615C1177 228.803 1177.71 228.141 1178.57 228.141C1178.85 228.141 1179.11 228.207 1179.33 228.326L1184.97 222.476C1184.79 222.234 1184.69 221.938 1184.69 221.638C1184.69 220.822 1185.4 220.16 1186.26 220.16C1187.13 220.16 1187.83 220.822 1187.83 221.638C1187.83 221.771 1187.81 221.894 1187.78 222.018L1193.06 224.625C1193.35 224.294 1193.79 224.096 1194.27 224.096C1194.56 224.096 1194.85 224.171 1195.09 224.316L1201.33 218.281C1201.17 218.051 1201.08 217.773 1201.08 217.478C1201.08 216.662 1201.78 216 1202.65 216C1203.52 216 1204.22 216.662 1204.22 217.478C1204.22 218.29 1203.52 218.951 1202.65 218.951C1202.35 218.951 1202.07 218.872 1201.84 218.735L1195.6 224.779C1195.76 225.013 1195.84 225.287 1195.84 225.569C1195.84 226.381 1195.14 227.042 1194.27 227.042C1193.4 227.042 1192.69 226.381 1192.69 225.569C1192.69 225.45 1192.71 225.326 1192.74 225.212L1187.45 222.595C1187.16 222.922 1186.72 223.112 1186.26 223.112C1185.99 223.112 1185.72 223.045 1185.49 222.922L1179.86 228.767C1180.04 229.006 1180.15 229.297 1180.15 229.614C1180.15 230.431 1179.44 231.092 1178.57 231.092C1177.71 231.092 1177 230.431 1177 229.615Z" fill="black"/>
<path d="M1190 228.303V241.702C1190 242.42 1189.49 243 1188.85 243H1185.15C1184.52 243 1184 242.42 1184 241.702L1184 228.303C1184 227.585 1184.52 227 1185.15 227H1188.85C1189.49 227 1190 227.585 1190 228.303Z" fill="black"/>
<path d="M1198.23 231.815V242.205C1198.23 242.849 1197.68 243.37 1196.98 243.37H1192.98C1192.29 243.37 1191.73 242.849 1191.73 242.205L1191.73 231.815C1191.73 231.171 1192.29 230.646 1192.98 230.646H1196.98C1197.68 230.646 1198.23 231.171 1198.23 231.815Z" fill="black"/>
<path d="M1206 227.045V241.959C1206 242.535 1205.49 243 1204.85 243H1201.15C1200.52 243 1200 242.535 1200 241.959L1200 227.045C1200 226.469 1200.52 226 1201.15 226H1204.85C1205.49 226 1206 226.469 1206 227.045Z" fill="black"/>
<path d="M448 154L438 148.226V159.774L448 154ZM267 69H268V68H267V69ZM267 254.5V255.5H268V254.5H267ZM267 155H439V153H267V155ZM268 154V69H266V154H268ZM267 68H186.5V70H267V68ZM266 154V254.5H268V154H266ZM267 253.5H186.5V255.5H267V253.5Z" fill="black"/>
<path d="M459 371L449 365.226V376.774L459 371ZM274.5 286H275.5V285H274.5V286ZM274.5 471.5V472.5H275.5V471.5H274.5ZM274.5 372H450V370H274.5V372ZM275.5 371V286H273.5V371H275.5ZM274.5 285H186.5V287H274.5V285ZM273.5 371V471.5H275.5V371H273.5ZM274.5 470.5H186.5V472.5H274.5V470.5Z" fill="black"/>
<path d="M661 152H662V151H661V152ZM967.5 257L957.5 251.226V262.774L967.5 257ZM661 367.5V368.5H662V367.5H661ZM660 152V257H662V152H660ZM661 258H958.5V256H661V258ZM661 151H574.5V153H661V151ZM661 366.5H574.5V368.5H661V366.5ZM662 367.5V257H660V367.5H662Z" fill="black"/>
<rect x="969" y="182" width="292" height="182" stroke="#266141" stroke-width="2"/>
<text fill="#266141" xml:space="preserve" style="white-space: pre" font-family="Arial" font-size="18" letter-spacing="0em"><tspan x="319.456" y="138.74">SingleR</tspan></text>
<text fill="#266141" xml:space="preserve" style="white-space: pre" font-family="Arial" font-size="18" letter-spacing="0em"><tspan x="307.452" y="352.74">CellAssign</tspan></text>
<text fill="#266141" xml:space="preserve" style="white-space: pre" font-family="Arial" font-size="18" letter-spacing="0em"><tspan x="99.9521" y="343.74">SCE</tspan></text>
<text fill="black" xml:space="preserve" style="white-space: pre" font-family="Arial" font-size="18" letter-spacing="0em"><tspan x="104.461" y="322.74">Processed </tspan><tspan x="136.972" y="343.74"> Object</tspan></text>
<path d="M176.551 265.771H174.497V246.006C174.49 245.723 174.37 245.454 174.164 245.259L158.436 229.827C158.237 229.633 157.97 229.524 157.693 229.523H130.711C127.313 229.523 124.509 232.405 124.509 235.938V265.771H122.454C121.876 265.771 121.368 266.175 121.368 266.753V284.419C121.368 284.997 121.876 285.4 122.454 285.4H124.509V289.062C124.509 292.595 127.313 295.477 130.711 295.477H168.294C171.692 295.477 174.496 292.595 174.496 289.062V285.4H176.551C177.129 285.4 177.637 284.997 177.637 284.419V266.753C177.637 266.175 177.129 265.771 176.551 265.771L176.551 265.771ZM158.663 233.039L170.912 244.964H161.071C160.424 244.956 159.806 244.691 159.355 244.228C158.903 243.765 158.654 243.14 158.663 242.493L158.663 233.039ZM126.602 235.938C126.602 233.559 128.467 231.617 130.711 231.617H156.569V242.493C156.56 243.696 157.03 244.852 157.874 245.708C158.718 246.564 159.868 247.05 161.07 247.058H172.403V265.772H126.602L126.602 235.938ZM172.403 289.062C172.403 291.44 170.538 293.383 168.294 293.383H130.711C128.467 293.383 126.602 291.44 126.602 289.062V285.4H172.403L172.403 289.062ZM175.543 283.307H123.462V267.866H175.543V283.307Z" fill="black"/>
<text fill="black" xml:space="preserve" style="white-space: pre" font-family="Oxygen Mono" font-size="16" letter-spacing="0em"><tspan x="136.086" y="281.746">OBJ</tspan></text>
<path d="M141.499 237.369V234.556C141.05 234.61 140.605 234.678 140.168 234.766V236.818L129.25 247.736H127.198C127.11 248.173 127.042 248.618 126.988 249.066H129.801L141.499 237.369Z" fill="black"/>
<path d="M137.681 261.787L136.114 265.964C136.511 266.162 136.917 266.342 137.331 266.507L138.664 262.954L151.827 260.273L155.458 262.928C155.515 262.865 156.111 261.767 156.111 261.767L151.906 258.868L137.681 261.787Z" fill="black"/>
<path d="M154.762 246.123L158.404 243.695C158.22 243.324 158.023 242.96 157.812 242.605L157.759 242.526L153.513 245.357L152.1 257.36L156.952 260.826C157.213 260.468 157.461 260.1 157.693 259.721L153.514 256.735L154.762 246.123Z" fill="black"/>
<path d="M157.095 241.679L156.797 241.083C156.662 240.902 156.521 240.725 156.378 240.55L152.836 242.321L143.494 236.716V234.432C143.046 234.432 142.603 234.455 142.164 234.49V237.47L152.778 243.838L157.095 241.679Z" fill="black"/>
<path d="M139.503 246.406C136.936 246.406 134.847 248.495 134.847 251.062C134.847 253.629 136.936 255.718 139.503 255.718C142.071 255.718 144.159 253.629 144.159 251.062C144.159 248.495 142.071 246.406 139.503 246.406ZM139.503 254.388C137.669 254.388 136.177 252.896 136.177 251.062C136.177 249.228 137.669 247.736 139.503 247.736C141.337 247.736 142.829 249.228 142.829 251.062C142.829 252.896 141.337 254.388 139.503 254.388Z" fill="black"/>
<path d="M145.822 247.071C147.106 247.071 148.151 246.026 148.151 244.743C148.151 243.459 147.106 242.415 145.822 242.415C144.539 242.415 143.494 243.459 143.494 244.743C143.494 246.026 144.539 247.071 145.822 247.071ZM145.822 243.745C146.373 243.745 146.82 244.192 146.82 244.743C146.82 245.293 146.373 245.741 145.822 245.741C145.272 245.741 144.825 245.293 144.825 244.743C144.825 244.192 145.272 243.745 145.822 243.745Z" fill="black"/>
<path d="M149.693 252.358L149.481 251.727L149.271 251.096C149.182 251.125 147.091 251.84 146.447 253.579C146.088 254.55 146.246 255.608 146.915 256.725L148.056 256.04C147.605 255.289 147.483 254.618 147.693 254.045C148.111 252.906 149.677 252.363 149.693 252.358Z" fill="black"/>
<path d="M159.459 252.392C159.459 253.127 158.864 253.723 158.129 253.723C157.394 253.723 156.799 253.127 156.799 252.392C156.799 251.658 157.394 251.062 158.129 251.062C158.864 251.062 159.459 251.658 159.459 252.392Z" fill="black"/>
<path d="M146.82 263.7C144.986 263.7 143.494 265.192 143.494 267.026C143.494 267.254 143.518 267.475 143.561 267.69C144.021 267.688 144.476 267.664 144.927 267.626C144.866 267.435 144.825 267.237 144.825 267.026C144.825 265.926 145.72 265.031 146.82 265.031C147.851 265.031 148.692 265.819 148.795 266.824C149.229 266.678 149.655 266.517 150.072 266.337C149.754 264.833 148.418 263.7 146.82 263.7Z" fill="black"/>
<path d="M128.528 257.049C128.347 257.049 128.177 257.085 128.015 257.138C128.417 258.162 128.918 259.136 129.506 260.05C129.919 259.748 130.191 259.263 130.191 258.712C130.191 257.793 129.446 257.049 128.528 257.049L128.528 257.049Z" fill="black"/>
<path d="M133.379 238.285L134.319 239.226L130.661 242.885L129.72 241.944L133.379 238.285Z" fill="black"/>
<path d="M129.906 249.732H126.923C126.888 250.171 126.865 250.614 126.865 251.062H129.145L135.443 261.769L134.269 264.898C134.644 265.149 135.03 265.383 135.426 265.603L136.912 261.641L129.906 249.732Z" fill="black"/>
<text fill="black" xml:space="preserve" style="white-space: pre" font-family="Arial" font-size="18" letter-spacing="0em"><tspan x="64.8994" y="134.74">Celldex Reference </tspan><tspan x="107.957" y="155.74">Dataset</tspan></text>
<path d="M163.551 77.7713H161.497V58.0063C161.49 57.7228 161.37 57.4541 161.164 57.2591L145.436 41.8268C145.237 41.6333 144.97 41.5245 144.693 41.5232H117.711C114.313 41.5232 111.509 44.4049 111.509 47.9379V77.7713H109.454C108.876 77.7713 108.368 78.175 108.368 78.7527V96.419C108.368 96.9971 108.876 97.4004 109.454 97.4004H111.509V101.062C111.509 104.595 114.313 107.477 117.711 107.477H155.294C158.692 107.477 161.496 104.595 161.496 101.062V97.4004H163.551C164.129 97.4004 164.637 96.9967 164.637 96.419V78.7527C164.637 78.175 164.129 77.7713 163.551 77.7713L163.551 77.7713ZM145.663 45.039L157.912 56.9645H148.071C147.424 56.9564 146.806 56.6914 146.355 56.228C145.903 55.7645 145.654 55.1404 145.663 54.4932L145.663 45.039ZM113.602 47.9378C113.602 45.5594 115.467 43.617 117.711 43.617H143.569V54.4934C143.56 55.6955 144.03 56.8519 144.874 57.7079C145.718 58.5642 146.868 59.0499 148.07 59.0584H159.403V77.7715H113.602L113.602 47.9378ZM159.403 101.062C159.403 103.44 157.538 105.383 155.294 105.383H117.711C115.467 105.383 113.602 103.44 113.602 101.062V97.4004H159.403L159.403 101.062ZM162.543 95.3068H110.462V79.8655H162.543V95.3068Z" fill="black"/>
<text fill="black" xml:space="preserve" style="white-space: pre" font-family="Oxygen Mono" font-size="16" letter-spacing="0em"><tspan x="123.086" y="93.7461">OBJ</tspan></text>
<path d="M128.499 49.3689V46.5564C128.05 46.6102 127.605 46.6778 127.168 46.7662V48.8184L116.25 59.7361H114.198C114.11 60.1731 114.042 60.6178 113.988 61.0664H116.801L128.499 49.3689Z" fill="black"/>
<path d="M124.681 73.7866L123.114 77.9643C123.511 78.1615 123.917 78.3419 124.331 78.5072L125.664 74.9536L138.827 72.2732L142.458 74.9279C142.515 74.8651 143.111 73.7667 143.111 73.7667L138.906 70.8679L124.681 73.7866Z" fill="black"/>
<path d="M141.762 58.1235L145.404 55.6952C145.22 55.3237 145.023 54.9602 144.812 54.605L144.759 54.5259L140.513 57.3567L139.1 69.3604L143.952 72.8259C144.213 72.4676 144.461 72.1002 144.693 71.7208L140.514 68.7355L141.762 58.1235Z" fill="black"/>
<path d="M144.095 53.6792L143.797 53.0833C143.662 52.9025 143.521 52.725 143.378 52.5498L139.836 54.3213L130.494 48.7165V46.4324C130.046 46.4324 129.603 46.4554 129.164 46.49V49.4698L139.778 55.8378L144.095 53.6792Z" fill="black"/>
<path d="M126.503 58.4058C123.936 58.4058 121.847 60.495 121.847 63.062C121.847 65.6291 123.936 67.7183 126.503 67.7183C129.071 67.7183 131.159 65.6291 131.159 63.062C131.159 60.4949 129.071 58.4058 126.503 58.4058ZM126.503 66.388C124.669 66.388 123.177 64.896 123.177 63.0621C123.177 61.2281 124.669 59.7362 126.503 59.7362C128.337 59.7362 129.829 61.2281 129.829 63.0621C129.829 64.896 128.337 66.388 126.503 66.388Z" fill="black"/>
<path d="M132.822 59.0709C134.106 59.0709 135.151 58.0262 135.151 56.7427C135.151 55.4592 134.106 54.4146 132.822 54.4146C131.539 54.4146 130.494 55.4592 130.494 56.7427C130.494 58.0262 131.539 59.0709 132.822 59.0709ZM132.822 55.745C133.373 55.745 133.82 56.1924 133.82 56.7428C133.82 57.2933 133.373 57.7405 132.822 57.7405C132.272 57.7405 131.825 57.2931 131.825 56.7428C131.825 56.1923 132.272 55.745 132.822 55.745Z" fill="black"/>
<path d="M136.693 64.3577L136.481 63.7267L136.271 63.0957C136.182 63.1247 134.091 63.8395 133.447 65.5789C133.088 66.55 133.246 67.6082 133.915 68.725L135.056 68.0402C134.605 67.2894 134.483 66.6175 134.693 66.0446C135.111 64.9063 136.677 64.3629 136.693 64.3577Z" fill="black"/>
<path d="M146.459 64.3925C146.459 65.1271 145.864 65.7227 145.129 65.7227C144.394 65.7227 143.799 65.1271 143.799 64.3925C143.799 63.6576 144.394 63.062 145.129 63.062C145.864 63.062 146.459 63.6576 146.459 64.3925Z" fill="black"/>
<path d="M133.82 75.7004C131.986 75.7004 130.494 77.1924 130.494 79.0263C130.494 79.2535 130.518 79.4751 130.561 79.6896C131.021 79.6878 131.476 79.6643 131.927 79.6259C131.866 79.4353 131.825 79.2366 131.825 79.0263C131.825 77.926 132.72 77.0307 133.82 77.0307C134.851 77.0307 135.692 77.8191 135.795 78.8235C136.229 78.6779 136.655 78.5172 137.072 78.3372C136.754 76.8331 135.418 75.7004 133.82 75.7004Z" fill="black"/>
<path d="M115.528 69.0486C115.347 69.0486 115.177 69.0848 115.015 69.1377C115.417 70.1621 115.918 71.1365 116.506 72.0505C116.919 71.7478 117.191 71.263 117.191 70.7116C117.191 69.7931 116.446 69.0486 115.528 69.0486L115.528 69.0486Z" fill="black"/>
<path d="M120.379 50.2854L121.319 51.2261L117.661 54.8846L116.72 53.9439L120.379 50.2854Z" fill="black"/>
<path d="M116.906 61.7317H113.923C113.888 62.1712 113.865 62.6138 113.865 63.062H116.145L122.443 73.7685L121.269 76.8982C121.644 77.1489 122.03 77.3831 122.426 77.6031L123.912 73.6409L116.906 61.7317Z" fill="black"/>
<text fill="black" xml:space="preserve" style="white-space: pre" font-family="Arial" font-size="18" letter-spacing="0em"><tspan x="72.9268" y="530.74">Marker Gene List </tspan><tspan x="75.9238" y="551.74">from PanglaoDB</tspan></text>
<path d="M169.551 472.771H167.497V453.006C167.49 452.723 167.37 452.454 167.164 452.259L151.436 436.827C151.237 436.633 150.97 436.524 150.693 436.523H123.711C120.313 436.523 117.509 439.405 117.509 442.938V472.771H115.454C114.876 472.771 114.368 473.175 114.368 473.753V491.419C114.368 491.997 114.876 492.4 115.454 492.4H117.509V496.062C117.509 499.595 120.313 502.477 123.711 502.477H161.294C164.692 502.477 167.496 499.595 167.496 496.062V492.4H169.551C170.129 492.4 170.637 491.997 170.637 491.419V473.753C170.637 473.175 170.129 472.771 169.551 472.771L169.551 472.771ZM151.663 440.039L163.912 451.964H154.071C153.424 451.956 152.806 451.691 152.355 451.228C151.903 450.765 151.654 450.14 151.663 449.493L151.663 440.039ZM119.602 442.938C119.602 440.559 121.467 438.617 123.711 438.617H149.569V449.493C149.56 450.696 150.03 451.852 150.874 452.708C151.718 453.564 152.868 454.05 154.07 454.058H165.403V472.772H119.602L119.602 442.938ZM165.403 496.062C165.403 498.44 163.538 500.383 161.294 500.383H123.711C121.467 500.383 119.602 498.44 119.602 496.062V492.4H165.403L165.403 496.062ZM168.543 490.307H116.462V474.866H168.543V490.307Z" fill="black"/>
<text fill="black" xml:space="preserve" style="white-space: pre" font-family="Oxygen Mono" font-size="16" letter-spacing="0em"><tspan x="129.086" y="488.746">TSV</tspan></text>
<text fill="#266141" xml:space="preserve" style="white-space: pre" font-family="Arial" font-size="18" letter-spacing="0em"><tspan x="1087.03" y="300.74">SCE</tspan></text>
<text fill="black" xml:space="preserve" style="white-space: pre" font-family="Arial" font-size="18" letter-spacing="0em"><tspan x="996.946" y="300.74">Processed </tspan><tspan x="1124.05" y="300.74"> </tspan><tspan x="997.913" y="321.74">Object with Cell </tspan><tspan x="991.4" y="342.74">Type Annotations</tspan></text>
<path d="M1089.55 242.771H1087.5V223.006C1087.49 222.723 1087.37 222.454 1087.16 222.259L1071.44 206.827C1071.24 206.633 1070.97 206.524 1070.69 206.523H1043.71C1040.31 206.523 1037.51 209.405 1037.51 212.938V242.771H1035.45C1034.88 242.771 1034.37 243.175 1034.37 243.753V261.419C1034.37 261.997 1034.88 262.4 1035.45 262.4H1037.51V266.062C1037.51 269.595 1040.31 272.477 1043.71 272.477H1081.29C1084.69 272.477 1087.5 269.595 1087.5 266.062V262.4H1089.55C1090.13 262.4 1090.64 261.997 1090.64 261.419V243.753C1090.64 243.175 1090.13 242.771 1089.55 242.771L1089.55 242.771ZM1071.66 210.039L1083.91 221.964H1074.07C1073.42 221.956 1072.81 221.691 1072.35 221.228C1071.9 220.765 1071.65 220.14 1071.66 219.493L1071.66 210.039ZM1039.6 212.938C1039.6 210.559 1041.47 208.617 1043.71 208.617H1069.57V219.493C1069.56 220.696 1070.03 221.852 1070.87 222.708C1071.72 223.564 1072.87 224.05 1074.07 224.058H1085.4V242.772H1039.6L1039.6 212.938ZM1085.4 266.062C1085.4 268.44 1083.54 270.383 1081.29 270.383H1043.71C1041.47 270.383 1039.6 268.44 1039.6 266.062V262.4H1085.4L1085.4 266.062ZM1088.54 260.307H1036.46V244.866H1088.54V260.307Z" fill="black"/>
<text fill="black" xml:space="preserve" style="white-space: pre" font-family="Oxygen Mono" font-size="16" letter-spacing="0em"><tspan x="1049.09" y="258.746">RDS</tspan></text>
<path d="M1054.5 214.369V211.556C1054.05 211.61 1053.61 211.678 1053.17 211.766V213.818L1042.25 224.736H1040.2C1040.11 225.173 1040.04 225.618 1039.99 226.066H1042.8L1054.5 214.369Z" fill="black"/>
<path d="M1050.68 238.787L1049.11 242.964C1049.51 243.162 1049.92 243.342 1050.33 243.507L1051.66 239.954L1064.83 237.273L1068.46 239.928C1068.51 239.865 1069.11 238.767 1069.11 238.767L1064.91 235.868L1050.68 238.787Z" fill="black"/>
<path d="M1067.76 223.123L1071.4 220.695C1071.22 220.324 1071.02 219.96 1070.81 219.605L1070.76 219.526L1066.51 222.357L1065.1 234.36L1069.95 237.826C1070.21 237.468 1070.46 237.1 1070.69 236.721L1066.51 233.735L1067.76 223.123Z" fill="black"/>
<path d="M1070.1 218.679L1069.8 218.083C1069.66 217.902 1069.52 217.725 1069.38 217.55L1065.84 219.321L1056.49 213.716V211.432C1056.05 211.432 1055.6 211.455 1055.16 211.49V214.47L1065.78 220.838L1070.1 218.679Z" fill="black"/>
<path d="M1052.5 223.406C1049.94 223.406 1047.85 225.495 1047.85 228.062C1047.85 230.629 1049.94 232.718 1052.5 232.718C1055.07 232.718 1057.16 230.629 1057.16 228.062C1057.16 225.495 1055.07 223.406 1052.5 223.406ZM1052.5 231.388C1050.67 231.388 1049.18 229.896 1049.18 228.062C1049.18 226.228 1050.67 224.736 1052.5 224.736C1054.34 224.736 1055.83 226.228 1055.83 228.062C1055.83 229.896 1054.34 231.388 1052.5 231.388Z" fill="black"/>
<path d="M1058.82 224.071C1060.11 224.071 1061.15 223.026 1061.15 221.743C1061.15 220.459 1060.11 219.415 1058.82 219.415C1057.54 219.415 1056.49 220.459 1056.49 221.743C1056.49 223.026 1057.54 224.071 1058.82 224.071ZM1058.82 220.745C1059.37 220.745 1059.82 221.192 1059.82 221.743C1059.82 222.293 1059.37 222.741 1058.82 222.741C1058.27 222.741 1057.82 222.293 1057.82 221.743C1057.82 221.192 1058.27 220.745 1058.82 220.745Z" fill="black"/>
<path d="M1062.69 229.358L1062.48 228.727L1062.27 228.096C1062.18 228.125 1060.09 228.84 1059.45 230.579C1059.09 231.55 1059.25 232.608 1059.92 233.725L1061.06 233.04C1060.61 232.289 1060.48 231.618 1060.69 231.045C1061.11 229.906 1062.68 229.363 1062.69 229.358Z" fill="black"/>
<path d="M1072.46 229.392C1072.46 230.127 1071.86 230.723 1071.13 230.723C1070.39 230.723 1069.8 230.127 1069.8 229.392C1069.8 228.658 1070.39 228.062 1071.13 228.062C1071.86 228.062 1072.46 228.658 1072.46 229.392Z" fill="black"/>
<path d="M1059.82 240.7C1057.99 240.7 1056.49 242.192 1056.49 244.026C1056.49 244.254 1056.52 244.475 1056.56 244.69C1057.02 244.688 1057.48 244.664 1057.93 244.626C1057.87 244.435 1057.82 244.237 1057.82 244.026C1057.82 242.926 1058.72 242.031 1059.82 242.031C1060.85 242.031 1061.69 242.819 1061.8 243.824C1062.23 243.678 1062.66 243.517 1063.07 243.337C1062.75 241.833 1061.42 240.7 1059.82 240.7Z" fill="black"/>
<path d="M1041.53 234.049C1041.35 234.049 1041.18 234.085 1041.01 234.138C1041.42 235.162 1041.92 236.136 1042.51 237.05C1042.92 236.748 1043.19 236.263 1043.19 235.712C1043.19 234.793 1042.45 234.049 1041.53 234.049L1041.53 234.049Z" fill="black"/>
<path d="M1046.38 215.285L1047.32 216.226L1043.66 219.885L1042.72 218.944L1046.38 215.285Z" fill="black"/>
<path d="M1042.91 226.732H1039.92C1039.89 227.171 1039.86 227.614 1039.86 228.062H1042.15L1048.44 238.769L1047.27 241.898C1047.64 242.149 1048.03 242.383 1048.43 242.603L1049.91 238.641L1042.91 226.732Z" fill="black"/>
<path d="M516.497 99.3562H515.112C514.765 99.3562 514.433 99.4939 514.188 99.7389C513.943 99.9838 513.805 100.316 513.805 100.663V109.808H516.418V101.969H519.031C519.352 101.968 519.661 101.848 519.899 101.634C520.138 101.419 520.289 101.124 520.324 100.806C520.359 100.487 520.275 100.166 520.089 99.9049L513.557 90.7593C513.311 90.4199 512.918 90.219 512.499 90.219C512.08 90.219 511.686 90.4199 511.44 90.7593L504.908 99.9049C504.722 100.166 504.638 100.487 504.673 100.806C504.708 101.124 504.86 101.419 505.098 101.634C505.336 101.848 505.645 101.968 505.966 101.969H508.579V121.567H511.192V100.663C511.192 100.316 511.054 99.9838 510.809 99.7389C510.564 99.4939 510.232 99.3562 509.886 99.3562H508.501L512.499 93.7643L516.497 99.3562Z" fill="black"/>
<path d="M502.647 120.404C502.439 120.305 502.209 120.262 501.979 120.281C501.75 120.299 501.529 120.378 501.34 120.509L492.195 127.041C491.855 127.287 491.654 127.681 491.654 128.1C491.654 128.518 491.855 128.912 492.195 129.158L501.34 135.69C501.601 135.858 501.912 135.927 502.219 135.886C502.526 135.845 502.808 135.697 503.016 135.467C503.223 135.237 503.342 134.942 503.352 134.632V132.019H505.965V129.406H502.046C501.699 129.406 501.367 129.544 501.122 129.789C500.877 130.034 500.739 130.366 500.739 130.713V132.098L495.147 128.1L500.739 124.102V125.487C500.734 125.873 500.9 126.241 501.192 126.493C501.485 126.745 501.874 126.855 502.255 126.793C503.922 126.328 505.708 126.62 507.141 127.59C508.008 128.404 508.524 129.525 508.578 130.713V149.004H511.191V130.713C511.134 128.757 510.286 126.909 508.84 125.591C507.284 124.375 505.316 123.812 503.352 124.023V121.567C503.353 121.327 503.287 121.092 503.163 120.887C503.038 120.682 502.86 120.514 502.647 120.404L502.647 120.404Z" fill="black"/>
<path d="M532.853 115.283L523.708 108.75C523.447 108.564 523.126 108.481 522.807 108.516C522.488 108.551 522.194 108.702 521.979 108.941C521.764 109.179 521.645 109.488 521.644 109.809V112.265C519.68 112.054 517.712 112.616 516.156 113.833C514.71 115.15 513.861 116.999 513.804 118.954V149.004H516.417V118.954C516.465 117.757 516.981 116.626 517.855 115.805C519.292 114.844 521.078 114.562 522.741 115.035C523.121 115.095 523.508 114.985 523.799 114.734C524.093 114.483 524.26 114.115 524.257 113.728V112.343L529.848 116.341L524.257 120.339V118.954C524.257 118.608 524.119 118.275 523.874 118.03C523.629 117.785 523.297 117.648 522.95 117.648H519.031V120.261H521.644V122.874C521.645 123.194 521.764 123.503 521.979 123.742C522.194 123.98 522.488 124.131 522.807 124.166C523.126 124.201 523.447 124.118 523.708 123.932L532.853 117.399C533.193 117.154 533.394 116.76 533.394 116.341C533.394 115.922 533.193 115.529 532.853 115.283L532.853 115.283Z" fill="black"/>
<path d="M512.498 68C510.073 68 507.746 68.9635 506.031 70.6786C504.316 72.3936 503.353 74.7201 503.353 77.1456C503.353 79.5711 504.316 81.8975 506.031 83.6126C507.746 85.3276 510.073 86.2912 512.498 86.2912C514.924 86.2912 517.25 85.3276 518.965 83.6126C520.68 81.8975 521.644 79.5711 521.644 77.1456C521.644 74.7201 520.68 72.3937 518.965 70.6786C517.25 68.9635 514.924 68 512.498 68Z" fill="black"/>
<path d="M551.693 107.196H537.322C536.975 107.196 536.643 107.334 536.398 107.579C536.153 107.823 536.015 108.156 536.015 108.502V122.874C536.015 123.22 536.153 123.553 536.398 123.798C536.643 124.043 536.975 124.18 537.322 124.18H551.693C552.04 124.18 552.372 124.043 552.617 123.798C552.862 123.553 553 123.22 553 122.874V108.502C553 108.156 552.862 107.823 552.617 107.579C552.372 107.334 552.04 107.196 551.693 107.196Z" fill="black"/>
<path d="M479.979 119.673L472.14 135.351C471.936 135.756 471.956 136.236 472.193 136.622C472.43 137.008 472.85 137.244 473.303 137.245H488.981C489.434 137.244 489.853 137.008 490.09 136.622C490.327 136.236 490.347 135.756 490.144 135.351L482.305 119.673C482.158 119.386 481.91 119.164 481.609 119.049C481.308 118.933 480.975 118.933 480.674 119.049C480.374 119.164 480.126 119.386 479.979 119.673ZM486.864 134.633H475.419H479.979H486.864Z" fill="black"/>
<path d="M502.498 155C499.618 155 496.991 155.917 495.047 157.457C493.103 158.997 491.826 161.213 491.826 163.685C491.826 166.156 493.103 168.366 495.047 169.906C496.991 171.447 499.618 172.362 502.498 172.362C505.378 172.362 508.005 171.447 509.949 169.906C511.893 168.366 513.162 166.156 513.162 163.685C513.162 161.213 511.893 158.997 509.949 157.457C508.005 155.917 505.378 155 502.498 155ZM502.498 157.018C504.967 157.018 507.182 157.819 508.743 159.056C510.305 160.293 511.197 161.918 511.197 163.685C511.197 165.451 510.305 167.077 508.743 168.314C507.182 169.551 504.967 170.346 502.498 170.346C500.028 170.346 497.806 169.551 496.244 168.314C494.683 167.077 493.793 165.451 493.793 163.685C493.793 161.919 494.683 160.293 496.244 159.056C497.806 157.819 500.028 157.018 502.498 157.018ZM520.7 158.178C519.268 158.178 517.957 158.62 516.957 159.391C515.958 160.161 515.259 161.315 515.259 162.628C515.259 163.94 515.958 165.102 516.957 165.872C517.957 166.643 519.268 167.079 520.7 167.079C522.132 167.079 523.451 166.643 524.451 165.872C525.45 165.102 526.148 163.94 526.148 162.628C526.148 161.315 525.45 160.162 524.451 159.391C523.451 158.62 522.132 158.178 520.7 158.178ZM520.604 160.196C520.636 160.195 520.668 160.196 520.7 160.196C521.733 160.196 522.653 160.53 523.268 161.005C523.884 161.48 524.182 162.039 524.182 162.627C524.182 163.216 523.884 163.783 523.268 164.258C522.653 164.733 521.733 165.061 520.7 165.061C519.667 165.061 518.755 164.733 518.14 164.258C517.524 163.783 517.224 163.216 517.224 162.627C517.224 162.039 517.524 161.48 518.14 161.005C518.736 160.545 519.611 160.216 520.604 160.196H520.604ZM498.256 163.882C498.019 163.9 497.797 164.005 497.63 164.177C497.445 164.366 497.341 164.623 497.341 164.891C497.341 165.159 497.445 165.416 497.63 165.605C498.894 166.902 500.658 167.621 502.498 167.621C504.338 167.621 506.094 166.902 507.358 165.605H507.358C507.543 165.416 507.647 165.159 507.647 164.891C507.647 164.623 507.543 164.366 507.358 164.177C507.173 163.99 506.923 163.885 506.663 163.886C506.404 163.886 506.156 163.991 505.972 164.177C505.101 165.071 503.835 165.605 502.498 165.605C501.161 165.605 499.895 165.071 499.024 164.177C498.822 163.969 498.542 163.861 498.256 163.882ZM532.328 167.353C529.448 167.353 526.83 168.276 524.886 169.816C522.942 171.356 521.666 173.566 521.666 176.038C521.666 178.509 522.942 180.719 524.886 182.259C526.831 183.8 529.448 184.722 532.328 184.722C535.208 184.722 537.835 183.8 539.779 182.259C541.723 180.719 543 178.509 543 176.038C543 173.566 541.723 171.356 539.779 169.816C537.835 168.276 535.208 167.353 532.328 167.353ZM532.328 169.371C534.798 169.371 537.02 170.172 538.582 171.409C540.143 172.646 541.035 174.271 541.035 176.038C541.035 177.804 540.143 179.43 538.582 180.667C537.02 181.904 534.798 182.707 532.328 182.707C529.858 182.707 527.644 181.904 526.082 180.667C524.521 179.43 523.631 177.804 523.631 176.038C523.631 174.271 524.521 172.646 526.082 171.409C527.644 170.172 529.859 169.371 532.328 169.371ZM491.449 173.291C490.017 173.291 488.698 173.728 487.699 174.498C486.699 175.269 486 176.422 486 177.735C486 179.048 486.699 180.209 487.699 180.98C488.698 181.751 490.017 182.185 491.449 182.185C492.881 182.185 494.193 181.751 495.192 180.98C496.192 180.209 496.889 179.048 496.889 177.735C496.889 176.422 496.192 175.269 495.192 174.498C494.193 173.728 492.881 173.291 491.449 173.291ZM509.2 174.64C506.321 174.64 503.695 175.555 501.751 177.095C499.807 178.636 498.531 180.846 498.531 183.317C498.531 185.789 499.807 188.005 501.751 189.545C503.696 191.085 506.321 192 509.2 192C512.08 192 514.708 191.085 516.652 189.545C518.596 188.004 519.872 185.789 519.872 183.317C519.872 180.845 518.596 178.636 516.652 177.095C514.707 175.555 512.08 174.64 509.2 174.64ZM491.354 175.302C491.386 175.301 491.417 175.302 491.45 175.302C492.482 175.302 493.394 175.638 494.01 176.113C494.626 176.588 494.924 177.147 494.924 177.735C494.924 178.323 494.626 178.891 494.01 179.366C493.394 179.84 492.482 180.169 491.45 180.169C490.417 180.169 489.497 179.84 488.881 179.366C488.266 178.891 487.967 178.323 487.967 177.735C487.967 177.147 488.266 176.588 488.881 176.113C489.478 175.653 490.36 175.322 491.354 175.302ZM528.165 176.239C527.904 176.237 527.653 176.342 527.468 176.53C527.283 176.72 527.179 176.976 527.179 177.244C527.179 177.512 527.283 177.769 527.468 177.958C528.732 179.255 530.488 179.976 532.328 179.976C534.167 179.976 535.934 179.255 537.197 177.958H537.198C537.383 177.769 537.487 177.512 537.487 177.244C537.487 176.976 537.383 176.72 537.198 176.53C537.013 176.341 536.761 176.235 536.5 176.236C536.238 176.237 535.988 176.345 535.804 176.536C534.933 177.431 533.665 177.958 532.328 177.958C530.991 177.958 529.733 177.431 528.862 176.536C528.677 176.346 528.426 176.239 528.165 176.239L528.165 176.239ZM509.2 176.656C511.67 176.656 513.887 177.451 515.448 178.688C517.01 179.925 517.907 181.551 517.907 183.317C517.907 185.084 517.01 186.707 515.448 187.944C513.887 189.181 511.67 189.984 509.2 189.984C506.731 189.984 504.516 189.181 502.955 187.944C501.393 186.707 500.496 185.084 500.496 183.317C500.496 181.551 501.393 179.925 502.955 178.688C504.516 177.451 506.731 176.656 509.2 176.656ZM504.958 183.52C504.722 183.538 504.5 183.643 504.333 183.815C504.149 184.004 504.047 184.26 504.047 184.526C504.047 184.792 504.149 185.048 504.333 185.237C505.597 186.535 507.361 187.253 509.2 187.253C511.04 187.253 512.804 186.535 514.068 185.237C514.251 185.048 514.354 184.792 514.354 184.526C514.354 184.26 514.251 184.004 514.068 183.815C513.884 183.626 513.633 183.519 513.372 183.519C513.111 183.519 512.861 183.626 512.677 183.815C511.806 184.71 510.537 185.237 509.2 185.237C507.864 185.237 506.597 184.71 505.726 183.815C505.524 183.607 505.244 183.499 504.958 183.52Z" fill="black"/>
<path d="M523.694 334.905H522.241C521.877 334.905 521.528 335.049 521.271 335.306C521.014 335.563 520.87 335.912 520.87 336.276V345.873H523.612V337.647H526.354C526.69 337.645 527.015 337.52 527.265 337.295C527.515 337.07 527.673 336.76 527.71 336.426C527.747 336.091 527.659 335.755 527.464 335.481L520.609 325.883C520.351 325.527 519.938 325.316 519.499 325.316C519.059 325.316 518.646 325.527 518.388 325.883L511.533 335.481C511.338 335.755 511.25 336.091 511.287 336.426C511.324 336.76 511.482 337.07 511.733 337.295C511.982 337.52 512.307 337.645 512.643 337.647H515.385V358.212H518.128V336.276C518.128 335.912 517.983 335.563 517.726 335.306C517.469 335.049 517.12 334.905 516.756 334.905H515.303L519.499 329.037L523.694 334.905Z" fill="black"/>
<path d="M509.16 356.992C508.942 356.888 508.701 356.843 508.46 356.863C508.219 356.882 507.988 356.965 507.789 357.102L498.192 363.957C497.836 364.215 497.625 364.628 497.625 365.068C497.625 365.507 497.836 365.92 498.192 366.178L507.789 373.033C508.062 373.209 508.389 373.282 508.711 373.239C509.033 373.196 509.329 373.04 509.547 372.799C509.765 372.558 509.89 372.248 509.9 371.923V369.181H512.643V366.439H508.529C508.166 366.439 507.817 366.583 507.56 366.84C507.303 367.097 507.158 367.446 507.158 367.81V369.263L501.29 365.068L507.158 360.872V362.326C507.153 362.731 507.327 363.117 507.634 363.382C507.941 363.646 508.349 363.761 508.749 363.697C510.498 363.209 512.373 363.515 513.876 364.533C514.786 365.388 515.327 366.563 515.385 367.81V387.004H518.127V367.81C518.067 365.758 517.176 363.818 515.659 362.435C514.026 361.159 511.961 360.569 509.9 360.79V358.213C509.901 357.961 509.832 357.714 509.702 357.498C509.571 357.283 509.384 357.108 509.16 356.992L509.16 356.992Z" fill="black"/>
<path d="M540.858 351.618L531.261 344.763C530.987 344.568 530.651 344.48 530.316 344.517C529.982 344.554 529.672 344.712 529.447 344.962C529.222 345.212 529.096 345.537 529.095 345.873V348.451C527.035 348.229 524.969 348.82 523.337 350.096C521.819 351.479 520.928 353.419 520.869 355.47V387.004H523.611V355.47C523.661 354.214 524.203 353.027 525.119 352.166C526.627 351.157 528.501 350.862 530.247 351.357C530.645 351.421 531.052 351.305 531.357 351.042C531.665 350.778 531.841 350.392 531.837 349.986V348.533L537.705 352.728L531.837 356.924V355.47C531.837 355.107 531.693 354.758 531.435 354.501C531.178 354.244 530.83 354.099 530.466 354.099H526.353V356.841H529.095V359.584C529.096 359.92 529.222 360.244 529.447 360.494C529.672 360.745 529.982 360.903 530.316 360.94C530.651 360.977 530.987 360.889 531.261 360.694L540.858 353.839C541.215 353.581 541.425 353.168 541.425 352.728C541.425 352.289 541.215 351.876 540.858 351.618L540.858 351.618Z" fill="black"/>
<path d="M519.498 302C516.953 302 514.512 303.011 512.712 304.811C510.912 306.611 509.901 309.052 509.901 311.597C509.901 314.143 510.912 316.584 512.712 318.384C514.511 320.183 516.953 321.194 519.498 321.194C522.043 321.194 524.485 320.183 526.284 318.384C528.084 316.584 529.095 314.143 529.095 311.597C529.095 309.052 528.084 306.611 526.284 304.811C524.485 303.011 522.043 302 519.498 302Z" fill="black"/>
<path d="M560.629 343.132H545.548C545.184 343.132 544.835 343.276 544.578 343.533C544.321 343.79 544.177 344.139 544.177 344.503V359.584C544.177 359.948 544.321 360.296 544.578 360.553C544.835 360.811 545.184 360.955 545.548 360.955H560.629C560.993 360.955 561.341 360.811 561.598 360.553C561.855 360.296 562 359.948 562 359.584V344.503C562 344.139 561.855 343.79 561.598 343.533C561.341 343.276 560.993 343.132 560.629 343.132Z" fill="black"/>
<path d="M485.373 356.225L477.147 372.677C476.933 373.102 476.954 373.606 477.203 374.011C477.451 374.416 477.892 374.664 478.367 374.665H494.819C495.295 374.664 495.735 374.416 495.984 374.011C496.232 373.606 496.254 373.102 496.04 372.677L487.813 356.225C487.659 355.924 487.399 355.691 487.084 355.57C486.768 355.449 486.419 355.449 486.103 355.57C485.787 355.691 485.527 355.924 485.373 356.225ZM492.598 371.923H480.588H485.373H492.598Z" fill="black"/>
<path d="M508.498 392C505.618 392 502.991 392.917 501.047 394.457C499.103 395.997 497.826 398.213 497.826 400.685C497.826 403.156 499.103 405.366 501.047 406.906C502.991 408.447 505.618 409.362 508.498 409.362C511.378 409.362 514.005 408.447 515.949 406.906C517.893 405.366 519.162 403.156 519.162 400.685C519.162 398.213 517.893 395.997 515.949 394.457C514.005 392.917 511.378 392 508.498 392ZM508.498 394.018C510.967 394.018 513.182 394.819 514.743 396.056C516.305 397.293 517.197 398.918 517.197 400.685C517.197 402.451 516.305 404.077 514.743 405.314C513.182 406.551 510.967 407.346 508.498 407.346C506.028 407.346 503.806 406.551 502.244 405.314C500.683 404.077 499.793 402.451 499.793 400.685C499.793 398.919 500.683 397.293 502.244 396.056C503.806 394.819 506.028 394.018 508.498 394.018ZM526.7 395.178C525.268 395.178 523.957 395.62 522.957 396.391C521.958 397.161 521.259 398.315 521.259 399.628C521.259 400.94 521.958 402.102 522.957 402.872C523.957 403.643 525.268 404.079 526.7 404.079C528.132 404.079 529.451 403.643 530.451 402.872C531.45 402.102 532.148 400.94 532.148 399.628C532.148 398.315 531.45 397.162 530.451 396.391C529.451 395.62 528.132 395.178 526.7 395.178ZM526.604 397.196C526.636 397.195 526.668 397.196 526.7 397.196C527.733 397.196 528.653 397.53 529.268 398.005C529.884 398.48 530.182 399.039 530.182 399.627C530.182 400.216 529.884 400.783 529.268 401.258C528.653 401.733 527.733 402.061 526.7 402.061C525.667 402.061 524.755 401.733 524.14 401.258C523.524 400.783 523.224 400.216 523.224 399.627C523.224 399.039 523.524 398.48 524.14 398.005C524.736 397.545 525.611 397.216 526.604 397.196H526.604ZM504.256 400.882C504.019 400.9 503.797 401.005 503.63 401.177C503.445 401.366 503.341 401.623 503.341 401.891C503.341 402.159 503.445 402.416 503.63 402.605C504.894 403.902 506.658 404.621 508.498 404.621C510.338 404.621 512.094 403.902 513.358 402.605H513.358C513.543 402.416 513.647 402.159 513.647 401.891C513.647 401.623 513.543 401.366 513.358 401.177C513.173 400.99 512.923 400.885 512.663 400.886C512.404 400.886 512.156 400.991 511.972 401.177C511.101 402.071 509.835 402.605 508.498 402.605C507.161 402.605 505.895 402.071 505.024 401.177C504.822 400.969 504.542 400.861 504.256 400.882ZM538.328 404.353C535.448 404.353 532.83 405.276 530.886 406.816C528.942 408.356 527.666 410.566 527.666 413.038C527.666 415.509 528.942 417.719 530.886 419.259C532.831 420.8 535.448 421.722 538.328 421.722C541.208 421.722 543.835 420.8 545.779 419.259C547.723 417.719 549 415.509 549 413.038C549 410.566 547.723 408.356 545.779 406.816C543.835 405.276 541.208 404.353 538.328 404.353ZM538.328 406.371C540.798 406.371 543.02 407.172 544.582 408.409C546.143 409.646 547.035 411.271 547.035 413.038C547.035 414.804 546.143 416.43 544.582 417.667C543.02 418.904 540.798 419.707 538.328 419.707C535.858 419.707 533.644 418.904 532.082 417.667C530.521 416.43 529.631 414.804 529.631 413.038C529.631 411.271 530.521 409.646 532.082 408.409C533.644 407.172 535.859 406.371 538.328 406.371ZM497.449 410.291C496.017 410.291 494.698 410.728 493.699 411.498C492.699 412.269 492 413.422 492 414.735C492 416.048 492.699 417.209 493.699 417.98C494.698 418.751 496.017 419.185 497.449 419.185C498.881 419.185 500.193 418.751 501.192 417.98C502.192 417.209 502.889 416.048 502.889 414.735C502.889 413.422 502.192 412.269 501.192 411.498C500.193 410.728 498.881 410.291 497.449 410.291ZM515.2 411.64C512.321 411.64 509.695 412.555 507.751 414.095C505.807 415.636 504.531 417.846 504.531 420.317C504.531 422.789 505.807 425.005 507.751 426.545C509.696 428.085 512.321 429 515.2 429C518.08 429 520.708 428.085 522.652 426.545C524.596 425.004 525.872 422.789 525.872 420.317C525.872 417.845 524.596 415.636 522.652 414.095C520.707 412.555 518.08 411.64 515.2 411.64ZM497.354 412.302C497.386 412.301 497.417 412.302 497.45 412.302C498.482 412.302 499.394 412.638 500.01 413.113C500.626 413.588 500.924 414.147 500.924 414.735C500.924 415.323 500.626 415.891 500.01 416.366C499.394 416.84 498.482 417.169 497.45 417.169C496.417 417.169 495.497 416.84 494.881 416.366C494.266 415.891 493.967 415.323 493.967 414.735C493.967 414.147 494.266 413.588 494.881 413.113C495.478 412.653 496.36 412.322 497.354 412.302ZM534.165 413.239C533.904 413.237 533.653 413.342 533.468 413.53C533.283 413.72 533.179 413.976 533.179 414.244C533.179 414.512 533.283 414.769 533.468 414.958C534.732 416.255 536.488 416.976 538.328 416.976C540.167 416.976 541.934 416.255 543.197 414.958H543.198C543.383 414.769 543.487 414.512 543.487 414.244C543.487 413.976 543.383 413.72 543.198 413.53C543.013 413.341 542.761 413.235 542.5 413.236C542.238 413.237 541.988 413.345 541.804 413.536C540.933 414.431 539.665 414.958 538.328 414.958C536.991 414.958 535.733 414.431 534.862 413.536C534.677 413.346 534.426 413.239 534.165 413.239L534.165 413.239ZM515.2 413.656C517.67 413.656 519.887 414.451 521.448 415.688C523.01 416.925 523.907 418.551 523.907 420.317C523.907 422.084 523.01 423.707 521.448 424.944C519.887 426.181 517.67 426.984 515.2 426.984C512.731 426.984 510.516 426.181 508.955 424.944C507.393 423.707 506.496 422.084 506.496 420.317C506.496 418.551 507.393 416.925 508.955 415.688C510.516 414.451 512.731 413.656 515.2 413.656ZM510.958 420.52C510.722 420.538 510.5 420.643 510.333 420.815C510.149 421.004 510.047 421.26 510.047 421.526C510.047 421.792 510.149 422.048 510.333 422.237C511.597 423.535 513.361 424.253 515.2 424.253C517.04 424.253 518.804 423.535 520.068 422.237C520.251 422.048 520.354 421.792 520.354 421.526C520.354 421.26 520.251 421.004 520.068 420.815C519.884 420.626 519.633 420.519 519.372 420.519C519.111 420.519 518.861 420.626 518.677 420.815C517.806 421.71 516.537 422.237 515.2 422.237C513.864 422.237 512.597 421.71 511.726 420.815C511.524 420.607 511.244 420.499 510.958 420.52Z" fill="black"/>
<text fill="black" xml:space="preserve" style="white-space: pre" font-family="Arial" font-size="16" letter-spacing="0em"><tspan x="680.375" y="244.547">Add Annotations to Processed Object</tspan></text>
</svg>
