<svg width="1138" height="426" viewBox="0 0 1138 426" fill="none" xmlns="http://www.w3.org/2000/svg">
<rect width="1138" height="426" fill="white"/>
<text fill="#266141" xml:space="preserve" style="white-space: pre" font-family="Arial" font-size="18" letter-spacing="0em"><tspan x="243" y="165.74">spaceranger</tspan></text>
<text fill="black" xml:space="preserve" style="white-space: pre" font-family="Arial" font-size="18" letter-spacing="0em"><tspan x="440.48" y="233.124">matrix.mtx</tspan></text>
<path d="M513.396 170.74H510.974V147.435C510.965 147.101 510.824 146.784 510.581 146.554L492.036 128.358C491.801 128.13 491.487 128.002 491.16 128H459.346C455.339 128 452.033 131.398 452.033 135.564V170.74H449.61C448.928 170.74 448.329 171.216 448.329 171.898V192.728C448.329 193.41 448.928 193.885 449.61 193.885H452.033V198.203C452.033 202.369 455.339 205.766 459.346 205.766H503.66C507.667 205.766 510.973 202.368 510.973 198.203V193.885H513.396C514.077 193.885 514.676 193.409 514.676 192.728V171.898C514.676 171.216 514.078 170.74 513.396 170.74L513.396 170.74ZM492.304 132.146L506.746 146.207H495.143C494.38 146.197 493.652 145.885 493.12 145.338C492.587 144.792 492.294 144.056 492.304 143.293L492.304 132.146ZM454.501 135.563C454.501 132.759 456.7 130.469 459.346 130.469H489.835V143.293C489.825 144.711 490.379 146.074 491.374 147.083C492.369 148.093 493.725 148.666 495.143 148.676H508.505V170.741H454.501L454.501 135.563ZM508.505 198.203C508.505 201.007 506.306 203.297 503.66 203.297H459.346C456.7 203.297 454.501 201.007 454.501 198.203V193.885H508.505L508.505 198.203ZM512.208 191.416H450.798V173.21H512.208V191.416Z" fill="black"/>
<text fill="black" xml:space="preserve" style="white-space: pre" font-family="Oxygen Mono" font-size="16" letter-spacing="0em"><tspan x="465.485" y="189.035">MTX</tspan></text>
<path d="M486.173 140.383H459.746C458.756 140.383 458.013 141.169 458.013 142.103V170.118C458.013 171.101 458.805 171.838 459.746 171.838H465.734L472.959 171.838H486.173C487.163 171.838 487.905 171.052 487.905 170.118V154.439L487.905 150.213V142.103C487.905 141.17 487.113 140.383 486.173 140.383L486.173 140.383ZM486.916 149.721H480.68V146.478H486.915L486.916 149.721ZM486.916 153.948H480.68V150.704H486.915L486.916 153.948ZM486.916 158.175H480.68V154.931H486.915L486.916 158.175ZM486.916 162.402H480.68V159.158H486.915L486.916 162.402ZM459.003 159.158H465.239V162.402L459.003 162.402V159.158ZM459.003 154.931H465.239V158.175H459.003V154.931ZM459.003 150.704H465.239V153.948H459.003V150.704ZM466.229 154.931H472.464V158.175H466.229V154.931ZM473.454 154.931H479.69V158.175H473.454V154.931ZM479.69 153.948H473.454V150.704H479.69V153.948ZM472.464 153.948H466.229V150.704H472.464V153.948ZM466.229 159.158H472.464V162.402L466.229 162.402V159.158ZM473.454 159.158H479.69V162.402L473.454 162.402V159.158ZM479.69 149.722H473.454V146.478H479.69V149.722ZM472.464 149.722H466.229V146.478L472.464 146.478V149.722ZM465.239 149.722H459.003V146.478H465.239L465.239 149.722ZM459.003 163.385H465.239V166.629L459.003 166.629V163.385ZM466.229 163.385H472.464V166.629L466.229 166.629V163.385ZM473.454 163.385H479.69V166.629L473.454 166.629V163.385ZM480.68 163.385H486.915V166.629L480.68 166.629V163.385ZM486.916 142.104V145.446H480.68V141.367H486.173C486.569 141.367 486.915 141.711 486.915 142.104L486.916 142.104ZM479.69 145.495H473.454V141.367H479.69V145.495ZM472.464 145.495H466.229V141.367H472.464V145.495ZM459.003 142.104C459.003 141.711 459.35 141.367 459.746 141.367H465.239V145.495H459.003L459.003 142.104ZM459.003 170.118V167.612H465.239L465.239 170.856H459.746C459.35 170.856 459.003 170.512 459.003 170.118L459.003 170.118ZM466.229 167.612H472.464V170.856H466.229V167.612ZM473.454 167.612H479.69V170.856H473.454V167.612ZM486.916 170.118C486.916 170.561 486.569 170.856 486.173 170.856H480.68V167.612H486.915L486.916 170.118Z" fill="black"/>
<path d="M468.356 143.921H470.336C470.633 143.921 470.831 143.725 470.831 143.43C470.831 143.135 470.633 142.938 470.336 142.938H468.356C468.059 142.938 467.861 143.135 467.861 143.43C467.861 143.725 468.059 143.921 468.356 143.921Z" fill="black"/>
<path d="M475.582 143.921H477.561C477.858 143.921 478.056 143.725 478.056 143.43C478.056 143.135 477.858 142.938 477.561 142.938H475.582C475.285 142.938 475.087 143.135 475.087 143.43C475.087 143.725 475.285 143.921 475.582 143.921Z" fill="black"/>
<path d="M482.807 143.921H484.787C485.084 143.921 485.282 143.725 485.282 143.43C485.282 143.135 485.084 142.938 484.787 142.938H482.807C482.51 142.938 482.312 143.135 482.312 143.43C482.312 143.725 482.56 143.921 482.807 143.921Z" fill="black"/>
<path d="M461.23 142.988C461.081 142.89 460.834 142.939 460.735 143.086C460.685 143.135 460.636 143.185 460.586 143.234V143.43C460.586 143.578 460.636 143.676 460.735 143.774C460.735 143.823 460.834 143.873 460.883 143.873C460.933 143.922 460.982 143.922 461.081 143.922C461.18 143.922 461.23 143.922 461.279 143.873C461.329 143.873 461.378 143.823 461.428 143.774C461.527 143.676 461.576 143.578 461.576 143.43C461.576 143.283 461.527 143.185 461.428 143.086C461.378 143.037 461.329 142.988 461.23 142.988Z" fill="black"/>
<path d="M463.358 142.988C463.16 142.89 462.962 142.939 462.814 143.086C462.764 143.135 462.715 143.185 462.715 143.234C462.715 143.283 462.665 143.381 462.665 143.43C462.665 143.578 462.715 143.676 462.813 143.774C462.912 143.873 463.061 143.922 463.16 143.922C463.209 143.922 463.308 143.922 463.358 143.873C463.407 143.873 463.457 143.823 463.506 143.774C463.605 143.676 463.655 143.578 463.655 143.43C463.655 143.283 463.605 143.184 463.506 143.086C463.457 143.037 463.407 142.988 463.358 142.988Z" fill="black"/>
<text fill="black" xml:space="preserve" style="white-space: pre" font-family="Arial" font-size="18" letter-spacing="0em"><tspan x="713" y="236.74">barcode.tsv</tspan></text>
<path d="M798.396 168.357H795.974V145.052C795.965 144.718 795.824 144.401 795.581 144.171L777.036 125.975C776.801 125.747 776.487 125.618 776.16 125.617H744.346C740.339 125.617 737.033 129.015 737.033 133.181V168.357H734.61C733.928 168.357 733.329 168.833 733.329 169.514V190.345C733.329 191.027 733.928 191.502 734.61 191.502H737.033V195.82C737.033 199.986 740.339 203.383 744.346 203.383H788.66C792.667 203.383 795.973 199.985 795.973 195.82V191.502H798.396C799.077 191.502 799.676 191.026 799.676 190.345V169.514C799.676 168.833 799.078 168.357 798.396 168.357L798.396 168.357ZM777.304 129.763L791.746 143.824H780.143C779.38 143.814 778.652 143.502 778.12 142.955C777.587 142.409 777.294 141.673 777.304 140.91L777.304 129.763ZM739.501 133.18C739.501 130.376 741.7 128.086 744.346 128.086H774.835V140.91C774.825 142.328 775.379 143.691 776.374 144.7C777.369 145.71 778.725 146.283 780.143 146.293H793.505V168.357H739.501L739.501 133.18ZM793.505 195.82C793.505 198.624 791.306 200.914 788.66 200.914H744.346C741.7 200.914 739.501 198.624 739.501 195.82V191.502H793.505L793.505 195.82ZM797.208 189.033H735.798V170.827H797.208V189.033Z" fill="black"/>
<text fill="black" xml:space="preserve" style="white-space: pre" font-family="Oxygen Mono" font-size="16" letter-spacing="0em"><tspan x="752.086" y="185.651">TSV</tspan></text>
<path d="M741 149H741.815V170.111H741V149Z" fill="black"/>
<path d="M742.63 149H744.259V170.111H742.63V149Z" fill="black"/>
<path d="M745.889 149H746.704V170.111H745.889V149Z" fill="black"/>
<path d="M748.334 149H749.148V170.111H748.334V149Z" fill="black"/>
<path d="M749.963 149H750.778V170.111H749.963V149Z" fill="black"/>
<path d="M751.593 149H752.407V170.111H751.593V149Z" fill="black"/>
<path d="M754.037 149H755.667V170.111H754.037V149Z" fill="black"/>
<path d="M757.297 149H758.111V170.111H757.297V149Z" fill="black"/>
<path d="M758.926 149H759.741V170.111H758.926V149Z" fill="black"/>
<path d="M761.371 149H762.185V170.111H761.371V149Z" fill="black"/>
<path d="M763.815 149H764.63V170.111H763.815V149Z" fill="black"/>
<path d="M765.445 149H767.074V170.111H765.445V149Z" fill="black"/>
<path d="M767.889 149H768.704V170.111H767.889V149Z" fill="black"/>
<path d="M770.334 149H771.148V170.111H770.334V149Z" fill="black"/>
<path d="M772.778 149H773.593V170.111H772.778V149Z" fill="black"/>
<path d="M774.408 149H776.037V170.111H774.408V149Z" fill="black"/>
<path d="M776.852 149H777.667V170.111H776.852V149Z" fill="black"/>
<path d="M779.296 149H780.111V170.111H779.296V149Z" fill="black"/>
<path d="M781.742 149H782.557V170.111H781.742V149Z" fill="black"/>
<path d="M783.37 149H785V170.111H783.37V149Z" fill="black"/>
<text fill="black" xml:space="preserve" style="white-space: pre" font-family="Arial" font-size="18" letter-spacing="0em"><tspan x="880.44" y="218.74">spaceranger-</tspan><tspan x="850.443" y="239.74">summary-report.html</tspan></text>
<path d="M960.551 164.771H958.497V145.006C958.49 144.723 958.37 144.454 958.164 144.259L942.436 128.827C942.237 128.633 941.97 128.524 941.693 128.523H914.711C911.313 128.523 908.509 131.405 908.509 134.938V164.771H906.454C905.876 164.771 905.368 165.175 905.368 165.753V183.419C905.368 183.997 905.876 184.4 906.454 184.4H908.509V188.062C908.509 191.595 911.313 194.477 914.711 194.477H952.294C955.692 194.477 958.496 191.595 958.496 188.062V184.4H960.551C961.129 184.4 961.637 183.997 961.637 183.419V165.753C961.637 165.175 961.129 164.771 960.551 164.771L960.551 164.771ZM942.663 132.039L954.912 143.964H945.071C944.424 143.956 943.806 143.691 943.355 143.228C942.903 142.765 942.654 142.14 942.663 141.493L942.663 132.039ZM910.602 134.938C910.602 132.559 912.467 130.617 914.711 130.617H940.569V141.493C940.56 142.696 941.03 143.852 941.874 144.708C942.718 145.564 943.868 146.05 945.07 146.058H956.403V164.772H910.602L910.602 134.938ZM956.403 188.062C956.403 190.44 954.538 192.383 952.294 192.383H914.711C912.467 192.383 910.602 190.44 910.602 188.062V184.4H956.403L956.403 188.062ZM959.543 182.307H907.462V166.866H959.543V182.307Z" fill="black"/>
<text fill="black" xml:space="preserve" style="white-space: pre" font-family="Oxygen Mono" font-size="16" letter-spacing="0em"><tspan x="915.781" y="180.746">HTML</tspan></text>
<path d="M918.306 158.036V165.205C918.306 165.849 917.75 166.37 917.059 166.37L913.054 166.37C912.367 166.37 911.807 165.849 911.807 165.205V158.036C911.807 157.392 912.367 156.867 913.054 156.867H917.059C917.75 156.867 918.306 157.392 918.306 158.036Z" fill="black"/>
<path d="M913 152.615C913 151.803 913.706 151.141 914.572 151.141C914.849 151.141 915.108 151.207 915.334 151.326L920.967 145.476C920.788 145.234 920.689 144.938 920.689 144.638C920.689 143.822 921.395 143.16 922.261 143.16C923.127 143.16 923.833 143.822 923.833 144.638C923.833 144.771 923.814 144.894 923.776 145.018L929.061 147.625C929.348 147.294 929.786 147.096 930.266 147.096C930.562 147.096 930.849 147.171 931.094 147.316L937.329 141.281C937.169 141.051 937.075 140.773 937.075 140.478C937.075 139.662 937.781 139 938.651 139C939.517 139 940.223 139.662 940.223 140.478C940.223 141.29 939.517 141.951 938.651 141.951C938.35 141.951 938.073 141.872 937.837 141.735L931.598 147.779C931.758 148.013 931.842 148.287 931.842 148.569C931.842 149.381 931.136 150.042 930.266 150.042C929.4 150.042 928.694 149.381 928.694 148.569C928.694 148.45 928.708 148.326 928.741 148.212L923.447 145.595C923.155 145.922 922.722 146.112 922.261 146.112C921.988 146.112 921.725 146.045 921.489 145.922L915.861 151.767C916.045 152.006 916.148 152.297 916.148 152.614C916.148 153.431 915.442 154.092 914.572 154.092C913.706 154.092 913 153.431 913 152.615Z" fill="black"/>
<path d="M926 151.303V164.702C926 165.42 925.487 166 924.849 166H921.151C920.517 166 920 165.42 920 164.702L920 151.303C920 150.585 920.517 150 921.151 150H924.848C925.487 150 926 150.585 926 151.303Z" fill="black"/>
<path d="M934.23 154.815V165.205C934.23 165.849 933.675 166.37 932.983 166.37H928.979C928.292 166.37 927.732 165.849 927.732 165.205L927.732 154.815C927.732 154.171 928.292 153.646 928.979 153.646H932.983C933.675 153.646 934.23 154.171 934.23 154.815Z" fill="black"/>
<path d="M942 150.045V164.959C942 165.535 941.487 166 940.853 166H937.151C936.517 166 936 165.535 936 164.959L936 150.045C936 149.469 936.517 149 937.151 149H940.853C941.487 149 942 149.469 942 150.045Z" fill="black"/>
<text fill="black" xml:space="preserve" style="white-space: pre" font-family="Arial" font-size="18" letter-spacing="0em"><tspan x="570" y="236.74">features.tsv</tspan></text>
<path d="M655.396 168.357H652.974V145.052C652.965 144.718 652.824 144.401 652.581 144.171L634.036 125.975C633.801 125.747 633.487 125.618 633.16 125.617H601.346C597.339 125.617 594.033 129.015 594.033 133.181V168.357H591.61C590.928 168.357 590.329 168.833 590.329 169.514V190.345C590.329 191.027 590.928 191.502 591.61 191.502H594.033V195.82C594.033 199.986 597.339 203.383 601.346 203.383H645.66C649.667 203.383 652.973 199.985 652.973 195.82V191.502H655.396C656.077 191.502 656.676 191.026 656.676 190.345V169.514C656.676 168.833 656.078 168.357 655.396 168.357L655.396 168.357ZM634.304 129.763L648.746 143.824H637.143C636.38 143.814 635.652 143.502 635.12 142.955C634.587 142.409 634.294 141.673 634.304 140.91L634.304 129.763ZM596.501 133.18C596.501 130.376 598.7 128.086 601.346 128.086H631.835V140.91C631.825 142.328 632.379 143.691 633.374 144.7C634.369 145.71 635.725 146.283 637.143 146.293H650.505V168.357H596.501L596.501 133.18ZM650.505 195.82C650.505 198.624 648.306 200.914 645.66 200.914H601.346C598.7 200.914 596.501 198.624 596.501 195.82V191.502H650.505L650.505 195.82ZM654.208 189.033H592.798V170.827H654.208V189.033Z" fill="black"/>
<text fill="black" xml:space="preserve" style="white-space: pre" font-family="Oxygen Mono" font-size="16" letter-spacing="0em"><tspan x="609.086" y="185.651">TSV</tspan></text>
<rect x="399" y="104" width="645" height="165" stroke="#266141" stroke-width="2"/>
<text fill="black" xml:space="preserve" style="white-space: pre" font-family="Arial" font-size="18" letter-spacing="0em"><tspan x="664.406" y="312.74">Spatial Output</tspan></text>
<text fill="black" xml:space="preserve" style="white-space: pre" font-family="Arial" font-size="18" letter-spacing="0em"><tspan x="53.4316" y="351.74">Input Tissue </tspan><tspan x="76.9688" y="372.74">Image</tspan></text>
<path d="M134.396 283.357H131.974V260.052C131.965 259.718 131.824 259.401 131.581 259.171L113.036 240.975C112.801 240.747 112.487 240.618 112.16 240.617H80.346C76.3386 240.617 73.0325 244.015 73.0325 248.181V283.357H70.6101C69.9284 283.357 69.3294 283.833 69.3294 284.514V305.345C69.3294 306.027 69.9281 306.502 70.6101 306.502H73.0325V310.82C73.0325 314.986 76.3389 318.383 80.346 318.383H124.66C128.667 318.383 131.973 314.985 131.973 310.82V306.502H134.396C135.077 306.502 135.676 306.026 135.676 305.345V284.514C135.676 283.833 135.078 283.357 134.396 283.357L134.396 283.357ZM113.304 244.763L127.746 258.824H116.143C115.38 258.814 114.652 258.502 114.12 257.955C113.587 257.409 113.294 256.673 113.304 255.91L113.304 244.763ZM75.5011 248.18C75.5011 245.376 77.6998 243.086 80.346 243.086H110.835V255.91C110.825 257.328 111.379 258.691 112.374 259.7C113.369 260.71 114.725 261.283 116.143 261.293H129.505V283.357H75.501L75.5011 248.18ZM129.505 310.82C129.505 313.624 127.306 315.914 124.66 315.914H80.3461C77.7 315.914 75.5012 313.624 75.5012 310.82V306.502H129.505L129.505 310.82ZM133.208 304.033H71.798V285.827H133.208V304.033Z" fill="black"/>
<text fill="black" xml:space="preserve" style="white-space: pre" font-family="Oxygen Mono" font-size="16" letter-spacing="0em"><tspan x="83.2812" y="300.651">JPEG</tspan></text>
<path d="M397 185L387 179.226V190.774L397 185ZM226 100H227V99H226V100ZM226 285.5V286.5H227V285.5H226ZM226 186H388V184H226V186ZM227 185V100H225V185H227ZM226 99H145.5V101H226V99ZM225 185V285.5H227V185H225ZM226 284.5H145.5V286.5H226V284.5Z" fill="black"/>
<text fill="black" xml:space="preserve" style="white-space: pre" font-family="Arial" font-size="18" letter-spacing="0em"><tspan x="49" y="156.74">Input FASTQ</tspan></text>
<path d="M134.396 88.3573H131.974V65.0523C131.965 64.718 131.824 64.4012 131.581 64.1712L113.036 45.9749C112.801 45.7468 112.487 45.6185 112.16 45.6169H80.346C76.3386 45.6169 73.0325 49.0148 73.0325 53.1805V88.3573H70.6101C69.9284 88.3573 69.3294 88.8333 69.3294 89.5145V110.345C69.3294 111.027 69.9281 111.502 70.6101 111.502H73.0325V115.82C73.0325 119.986 76.3389 123.383 80.346 123.383H124.66C128.667 123.383 131.973 119.985 131.973 115.82V111.502H134.396C135.077 111.502 135.676 111.026 135.676 110.345V89.5145C135.676 88.8332 135.078 88.3573 134.396 88.3573L134.396 88.3573ZM113.304 49.7625L127.746 63.8238H116.143C115.38 63.8143 114.652 63.5019 114.12 62.9554C113.587 62.409 113.294 61.673 113.304 60.91L113.304 49.7625ZM75.5011 53.1804C75.5011 50.3761 77.6998 48.0858 80.346 48.0858H110.835V60.9101C110.825 62.3276 111.379 63.6911 112.374 64.7004C113.369 65.71 114.725 66.2827 116.143 66.2928H129.505V88.3575H75.501L75.5011 53.1804ZM129.505 115.82C129.505 118.624 127.306 120.914 124.66 120.914H80.3461C77.7 120.914 75.5012 118.624 75.5012 115.82V111.502H129.505L129.505 115.82ZM133.208 109.033H71.798V90.8266H133.208V109.033Z" fill="black"/>
<text fill="black" xml:space="preserve" style="white-space: pre" font-family="Oxygen Mono" font-size="16" letter-spacing="0em"><tspan x="78.4765" y="105.651">FASTQ</tspan></text>
</svg>
