<?xml version="1.0" encoding="utf-8"?>
<!-- Generator: Adobe Illustrator 27.2.0, SVG Export Plug-In . SVG Version: 6.00 Build 0)  -->
<svg version="1.1" id="Layer_1" xmlns="http://www.w3.org/2000/svg" xmlns:xlink="http://www.w3.org/1999/xlink" x="0px" y="0px"
	 viewBox="0 0 2300 1000" style="enable-background:new 0 0 2300 1000;" xml:space="preserve">
<style type="text/css">
	.st0{fill:#276242;}
	.st1{font-family:'ArialMT';}
	.st2{font-size:25.8838px;}
	.st3{fill:#010101;}
	.st4{font-size:16.3146px;}
	.st5{fill:none;stroke:#276242;stroke-width:3;}
	.st6{font-family:'Arial-BoldMT';}
	.st7{font-size:20.3933px;}
	.st8{font-size:22.1863px;}
	.st9{font-size:22.337px;}
	.st10{fill:#010101;stroke:#000000;stroke-width:0.25;stroke-miterlimit:10;}
	.st11{fill-rule:evenodd;clip-rule:evenodd;fill:#010101;}
	.st12{fill:none;stroke:#010101;stroke-width:2;stroke-linecap:round;stroke-linejoin:round;}
	.st13{fill:none;stroke:#010101;stroke-width:2;}
</style>
<g>
	<text transform="matrix(1 0 0 1 805.6914 291.4745)" class="st0 st1 st2">SingleCellExperiment (SCE)</text>
	<text transform="matrix(1 0 0 1 1029.7012 291.4745)" class="st3 st1 st2"> </text>
	<text transform="matrix(1 0 0 1 892.4004 312.8886)" class="st3 st1 st2">object</text>
	<g>
		<path class="st3" d="M964.5,214.36h-2.46v-23.79c0-0.34-0.15-0.67-0.41-0.89l-18.91-18.54c-0.22-0.22-0.56-0.37-0.89-0.37H909.4
			c-4.1,0-7.45,3.46-7.45,7.71v35.85h-2.46c-0.71,0-1.3,0.48-1.3,1.19v21.26c0,0.71,0.6,1.19,1.3,1.19h2.46v4.39
			c0,4.24,3.39,7.71,7.45,7.71h45.2c4.1,0,7.45-3.46,7.45-7.71v-4.39h2.46c0.71,0,1.3-0.48,1.3-1.19v-21.26
			C965.8,214.84,965.21,214.36,964.5,214.36L964.5,214.36z M942.98,175.01l14.74,14.33h-11.84c-0.78,0-1.53-0.34-2.05-0.89
			c-0.56-0.56-0.86-1.3-0.82-2.08v-11.35H942.98z M904.45,178.47c0-2.87,2.23-5.21,4.95-5.21h31.09v13.07
			c0,1.45,0.56,2.83,1.56,3.87c1.01,1.04,2.38,1.6,3.83,1.64h13.63v22.49h-55.06L904.45,178.47L904.45,178.47z M959.51,242.36
			c0,2.87-2.23,5.21-4.95,5.21h-45.2c-2.68,0-4.95-2.35-4.95-5.21v-4.39h55.06v4.39H959.51z M963.27,235.43h-62.62v-18.58h62.62
			V235.43z"/>
		<text transform="matrix(1 0 0 1 917.8535 232.2284)" class="st3 st1 st4">OBJ</text>
		<path class="st3" d="M922.36,180.18v-3.39c-0.52,0.07-1.08,0.15-1.6,0.26v2.46l-13.14,13.14h-2.46c-0.11,0.52-0.19,1.04-0.26,1.6
			h3.39L922.36,180.18z"/>
		<path class="st3" d="M917.78,209.56l-1.9,5.03c0.48,0.22,0.97,0.45,1.45,0.67l1.6-4.28l15.82-3.24l4.36,3.2
			c0.07-0.07,0.78-1.41,0.78-1.41l-5.06-3.5L917.78,209.56z"/>
		<path class="st3" d="M938.29,190.72l4.39-2.9c-0.22-0.45-0.45-0.89-0.71-1.3l-0.07-0.11l-5.1,3.39l-1.71,14.44l5.84,4.17
			c0.3-0.45,0.6-0.86,0.89-1.34l-5.03-3.57L938.29,190.72z"/>
		<path class="st3" d="M941.12,185.4l-0.37-0.71c-0.15-0.22-0.34-0.45-0.52-0.63l-4.24,2.12l-11.24-6.74v-2.75
			c-0.52,0-1.08,0.04-1.6,0.07v3.57l12.77,7.67L941.12,185.4z"/>
		<path class="st3" d="M919.94,191.06c-3.09,0-5.58,2.49-5.58,5.58s2.49,5.58,5.58,5.58s5.58-2.49,5.58-5.58
			C925.56,193.59,923.03,191.06,919.94,191.06z M919.94,200.66c-2.2,0-3.98-1.79-3.98-3.98c0-2.2,1.79-3.98,3.98-3.98
			c2.2,0,3.98,1.79,3.98,3.98C923.96,198.87,922.17,200.66,919.94,200.66z"/>
		<path class="st3" d="M927.57,191.87c1.53,0,2.79-1.27,2.79-2.79s-1.27-2.79-2.79-2.79s-2.79,1.27-2.79,2.79
			C924.74,190.61,926.01,191.87,927.57,191.87z M927.57,187.85c0.67,0,1.19,0.52,1.19,1.19c0,0.67-0.52,1.19-1.19,1.19
			s-1.19-0.52-1.19-1.19C926.34,188.41,926.9,187.85,927.57,187.85z"/>
		<path class="st3" d="M932.22,198.24l-0.26-0.74l-0.26-0.74c-0.11,0.04-2.61,0.89-3.39,2.98c-0.45,1.15-0.26,2.46,0.56,3.8
			l1.38-0.82c-0.56-0.89-0.67-1.71-0.45-2.38C930.29,198.87,932.19,198.24,932.22,198.24z"/>
		<path class="st3" d="M943.95,198.28c0,0.89-0.71,1.6-1.6,1.6c-0.89,0-1.6-0.71-1.6-1.6c0-0.89,0.71-1.6,1.6-1.6
			S943.95,197.38,943.95,198.28z"/>
		<path class="st3" d="M928.76,211.87c-2.2,0-3.98,1.79-3.98,3.98c0,0.26,0.04,0.52,0.07,0.78c0.56,0,1.12-0.04,1.64-0.07
			c-0.07-0.22-0.11-0.48-0.11-0.71c0-1.34,1.08-2.38,2.38-2.38c1.23,0,2.23,0.93,2.38,2.16c0.52-0.19,1.04-0.37,1.53-0.6
			C932.26,213.21,930.66,211.87,928.76,211.87z"/>
		<path class="st3" d="M906.76,203.86c-0.22,0-0.41,0.04-0.63,0.11c0.48,1.23,1.08,2.42,1.79,3.5c0.48-0.37,0.82-0.93,0.82-1.6
			C908.77,204.76,907.88,203.86,906.76,203.86L906.76,203.86z"/>
		<path class="st3" d="M912.6,181.3l1.12,1.12l-4.39,4.39l-1.12-1.12L912.6,181.3z"/>
		<path class="st3" d="M908.44,195.08h-3.57c-0.04,0.52-0.07,1.04-0.07,1.6h2.75l7.56,12.88l-1.41,3.76c0.45,0.3,0.93,0.6,1.38,0.86
			l1.79-4.77L908.44,195.08z"/>
	</g>
	<rect x="1167.02" y="424.03" class="st5" width="462.94" height="168.24"/>
	<text transform="matrix(1 0 0 1 970.6152 526.4531)" class="st0 st6 st7">SCE Output Data</text>
	<text transform="matrix(1 0 0 1 1132.4766 721.207)" class="st0 st6 st7">AnnData RNA Outputs</text>
	<text transform="matrix(1 0 0 1 1430.3418 722.2245)" class="st0 st6 st7">AnnData ADT Outputs</text>
	<rect x="1793.09" y="424.03" class="st5" width="299.8" height="168.24"/>
	<text transform="matrix(1 0 0 1 1700.4961 526.4531)" class="st0 st6 st7">Reports</text>
	<text transform="matrix(1 0 0 1 1198.0586 566.5292)" class="st0 st1 st8">SCE</text>
	<text transform="matrix(1 0 0 1 1210.4199 545.1152)" class="st3 st1 st8">Unfiltered </text>
	<text transform="matrix(1 0 0 1 1243.2051 566.5292)" class="st3 st1 st8"> Object</text>
	<g>
		<path class="st3" d="M1273.61,488.06h-2.08v-20.14c0-0.3-0.15-0.56-0.33-0.74l-16.05-15.75c-0.19-0.19-0.48-0.3-0.78-0.3h-27.51
			c-3.46,0-6.33,2.94-6.33,6.55v30.42h-2.08c-0.6,0-1.12,0.41-1.12,1.01v18.02c0,0.6,0.52,1.01,1.12,1.01h2.08v3.72
			c0,3.61,2.87,6.55,6.33,6.55h38.31c3.46,0,6.33-2.94,6.33-6.55v-3.72h2.08c0.6,0,1.12-0.41,1.12-1.01v-18.02
			C1274.73,488.47,1274.2,488.06,1273.61,488.06L1273.61,488.06z M1255.37,454.67l12.51,12.17h-10.05c-0.67,0-1.3-0.26-1.75-0.74
			c-0.45-0.48-0.71-1.12-0.71-1.79L1255.37,454.67L1255.37,454.67z M1222.68,457.61c0-2.42,1.9-4.39,4.21-4.39h26.36v11.09
			c0,1.23,0.48,2.42,1.34,3.28c0.86,0.86,2.05,1.38,3.28,1.38h11.54v19.1h-46.68v-30.45H1222.68z M1269.4,511.78
			c0,2.42-1.9,4.39-4.21,4.39h-38.31c-2.27,0-4.21-1.97-4.21-4.39v-3.72h46.68v3.72H1269.4z M1272.6,505.93h-53.09v-15.75h53.09
			V505.93z"/>
		<text transform="matrix(1 0 0 1 1231.8535 504.3359)" class="st3 st1 st4">RDS</text>
		<path class="st3" d="M1237.87,459.1v-2.87c-0.45,0.04-0.89,0.11-1.34,0.22v2.08l-11.13,11.13h-2.08
			c-0.07,0.45-0.15,0.89-0.22,1.34h2.87L1237.87,459.1z"/>
		<path class="st3" d="M1234,483.97l-1.6,4.24c0.41,0.19,0.82,0.37,1.23,0.56l1.34-3.61l13.44-2.72l3.69,2.72
			c0.04-0.07,0.67-1.19,0.67-1.19l-4.28-2.94L1234,483.97z"/>
		<path class="st3" d="M1251.38,468l3.72-2.49c-0.19-0.37-0.37-0.74-0.6-1.12l-0.04-0.07l-4.32,2.9l-1.45,12.25l4.95,3.54
			c0.26-0.37,0.52-0.74,0.74-1.12l-4.24-3.05L1251.38,468z"/>
		<path class="st3" d="M1253.77,463.49l-0.3-0.6c-0.15-0.19-0.3-0.37-0.45-0.56l-3.61,1.82l-9.53-5.73v-2.35
			c-0.45,0-0.89,0.04-1.34,0.07v3.05l10.83,6.48L1253.77,463.49z"/>
		<path class="st3" d="M1235.82,468.3c-2.61,0-4.73,2.12-4.73,4.77c0,2.61,2.12,4.77,4.73,4.77c2.61,0,4.77-2.12,4.77-4.77
			C1240.59,470.42,1238.46,468.3,1235.82,468.3z M1235.82,476.45c-1.86,0-3.39-1.53-3.39-3.39s1.53-3.39,3.39-3.39
			c1.86,0,3.39,1.53,3.39,3.39C1239.25,474.92,1237.72,476.45,1235.82,476.45z"/>
		<path class="st3" d="M1242.3,468.97c1.3,0,2.38-1.08,2.38-2.38s-1.04-2.38-2.38-2.38c-1.3,0-2.38,1.08-2.38,2.38
			C1239.92,467.92,1240.96,468.97,1242.3,468.97z M1242.3,465.58c0.56,0,1.01,0.45,1.01,1.01c0,0.56-0.45,1.01-1.01,1.01
			c-0.56,0-1.01-0.45-1.01-1.01C1241.26,466.02,1241.7,465.58,1242.3,465.58z"/>
		<path class="st3" d="M1246.25,474.36l-0.22-0.63l-0.22-0.63c-0.07,0.04-2.23,0.74-2.87,2.53c-0.37,1.01-0.19,2.08,0.48,3.2
			l1.15-0.71c-0.45-0.78-0.6-1.45-0.37-2.05C1244.61,474.92,1246.21,474.36,1246.25,474.36z"/>
		<path class="st3" d="M1256.19,474.4c0,0.74-0.6,1.34-1.34,1.34c-0.74,0-1.34-0.6-1.34-1.34c0-0.74,0.6-1.34,1.34-1.34
			S1256.19,473.66,1256.19,474.4z"/>
		<path class="st3" d="M1243.3,485.94c-1.86,0-3.39,1.53-3.39,3.39c0,0.22,0.04,0.45,0.07,0.67c0.48,0,0.93-0.04,1.41-0.07
			c-0.07-0.19-0.11-0.41-0.11-0.6c0-1.12,0.93-2.05,2.05-2.05c1.04,0,1.9,0.82,2.01,1.82c0.45-0.15,0.89-0.3,1.3-0.48
			C1246.28,487.1,1244.94,485.94,1243.3,485.94z"/>
		<path class="st3" d="M1224.65,479.17c-0.19,0-0.37,0.04-0.52,0.07c0.41,1.04,0.93,2.05,1.53,2.98c0.41-0.3,0.71-0.82,0.71-1.38
			C1226.33,479.91,1225.58,479.17,1224.65,479.17L1224.65,479.17z"/>
		<path class="st3" d="M1229.6,460.03l0.97,0.97l-3.72,3.72l-0.97-0.97L1229.6,460.03z"/>
		<path class="st3" d="M1226.07,471.68h-3.05c-0.04,0.45-0.07,0.89-0.07,1.34h2.35l6.4,10.91l-1.19,3.2
			c0.37,0.26,0.78,0.48,1.19,0.71l1.53-4.06L1226.07,471.68z"/>
	</g>
	<text transform="matrix(1 0 0 1 1347.9531 566.5273)" class="st0 st1 st8">SCE</text>
	<text transform="matrix(1 0 0 1 1368.9922 545.1132)" class="st3 st1 st8">Filtered </text>
	<text transform="matrix(1 0 0 1 1393.0918 566.5273)" class="st3 st1 st8"> Object</text>
	<g>
		<path class="st3" d="M1426.58,488.06h-2.08v-20.14c0-0.3-0.15-0.56-0.34-0.74l-16.05-15.75c-0.19-0.19-0.48-0.3-0.78-0.3h-27.51
			c-3.46,0-6.33,2.94-6.33,6.55v30.42h-2.08c-0.6,0-1.12,0.41-1.12,1.01v18.02c0,0.6,0.52,1.01,1.12,1.01h2.08v3.72
			c0,3.61,2.87,6.55,6.33,6.55h38.31c3.46,0,6.33-2.94,6.33-6.55v-3.72h2.08c0.6,0,1.12-0.41,1.12-1.01v-18.02
			C1427.66,488.47,1427.18,488.06,1426.58,488.06L1426.58,488.06z M1408.34,454.67l12.51,12.17h-10.05c-0.67,0-1.3-0.26-1.75-0.74
			c-0.45-0.48-0.71-1.12-0.71-1.79L1408.34,454.67L1408.34,454.67z M1375.65,457.61c0-2.42,1.9-4.39,4.21-4.39h26.36v11.09
			c0,1.23,0.48,2.42,1.34,3.28c0.86,0.86,2.05,1.38,3.28,1.38h11.54v19.1h-46.68v-30.45H1375.65z M1422.34,511.78
			c0,2.42-1.9,4.39-4.21,4.39h-38.31c-2.27,0-4.21-1.97-4.21-4.39v-3.72h46.72V511.78z M1425.54,505.93h-53.09v-15.75h53.09
			L1425.54,505.93L1425.54,505.93z"/>
		<text transform="matrix(1 0 0 1 1384.8027 504.3339)" class="st3 st1 st4">RDS</text>
		<path class="st3" d="M1390.84,459.1v-2.87c-0.45,0.04-0.89,0.11-1.34,0.22v2.08l-11.13,11.13h-2.08
			c-0.07,0.45-0.15,0.89-0.22,1.34h2.87L1390.84,459.1z"/>
		<path class="st3" d="M1386.93,483.97l-1.6,4.24c0.41,0.19,0.82,0.37,1.23,0.56l1.34-3.61l13.44-2.72l3.69,2.72
			c0.04-0.07,0.67-1.19,0.67-1.19l-4.28-2.94L1386.93,483.97z"/>
		<path class="st3" d="M1404.35,468l3.72-2.49c-0.19-0.37-0.37-0.74-0.6-1.12l-0.04-0.07l-4.32,2.9l-1.45,12.25l4.95,3.54
			c0.26-0.37,0.52-0.74,0.74-1.12l-4.24-3.05L1404.35,468z"/>
		<path class="st3" d="M1406.74,463.49l-0.3-0.6c-0.15-0.19-0.3-0.37-0.45-0.56l-3.61,1.82l-9.53-5.73v-2.35
			c-0.45,0-0.89,0.04-1.34,0.07v3.05l10.83,6.48L1406.74,463.49z"/>
		<path class="st3" d="M1388.79,468.3c-2.61,0-4.73,2.12-4.73,4.77c0,2.61,2.12,4.77,4.73,4.77c2.61,0,4.77-2.12,4.77-4.77
			C1393.52,470.42,1391.4,468.3,1388.79,468.3z M1388.79,476.45c-1.86,0-3.39-1.53-3.39-3.39s1.53-3.39,3.39-3.39
			s3.39,1.53,3.39,3.39C1392.18,474.92,1390.65,476.45,1388.79,476.45z"/>
		<path class="st3" d="M1395.23,468.97c1.3,0,2.38-1.08,2.38-2.38s-1.04-2.38-2.38-2.38c-1.3,0-2.38,1.08-2.38,2.38
			C1392.85,467.92,1393.93,468.97,1395.23,468.97z M1395.23,465.58c0.56,0,1.01,0.45,1.01,1.01c0,0.56-0.45,1.01-1.01,1.01
			c-0.56,0-1.01-0.45-1.01-1.01S1394.68,465.58,1395.23,465.58z"/>
		<path class="st3" d="M1399.18,474.36l-0.22-0.63l-0.22-0.63c-0.07,0.04-2.23,0.74-2.87,2.53c-0.37,1.01-0.19,2.08,0.48,3.2
			l1.15-0.71c-0.45-0.78-0.6-1.45-0.37-2.05C1397.58,474.92,1399.18,474.36,1399.18,474.36z"/>
		<path class="st3" d="M1409.16,474.4c0,0.74-0.6,1.34-1.34,1.34c-0.74,0-1.34-0.6-1.34-1.34c0-0.74,0.6-1.34,1.34-1.34
			C1408.52,473.06,1409.16,473.66,1409.16,474.4z"/>
		<path class="st3" d="M1396.24,485.94c-1.86,0-3.39,1.53-3.39,3.39c0,0.22,0.04,0.45,0.07,0.67c0.48,0,0.93-0.04,1.41-0.07
			c-0.07-0.19-0.11-0.41-0.11-0.6c0-1.12,0.93-2.05,2.05-2.05c1.04,0,1.9,0.82,2.01,1.82c0.45-0.15,0.89-0.3,1.3-0.48
			C1399.25,487.1,1397.88,485.94,1396.24,485.94z"/>
		<path class="st3" d="M1377.59,479.17c-0.19,0-0.37,0.04-0.52,0.07c0.41,1.04,0.93,2.05,1.53,2.98c0.41-0.3,0.71-0.82,0.71-1.38
			C1379.3,479.91,1378.56,479.17,1377.59,479.17L1377.59,479.17z"/>
		<path class="st3" d="M1382.54,460.03l0.97,0.97l-3.72,3.72l-0.97-0.97L1382.54,460.03z"/>
		<path class="st3" d="M1379,471.68h-3.05c-0.04,0.45-0.07,0.89-0.07,1.34h2.35l6.4,10.91l-1.19,3.2c0.37,0.26,0.78,0.48,1.19,0.71
			l1.53-4.06L1379,471.68z"/>
	</g>
	<text transform="matrix(1 0 0 1 1505.4941 566.5292)" class="st0 st1 st8">SCE</text>
	<text transform="matrix(1 0 0 1 1513.7871 545.1152)" class="st3 st1 st8">Processed </text>
	<text transform="matrix(1 0 0 1 1550.6328 566.5292)" class="st3 st1 st8"> Object</text>
	<g>
		<path class="st3" d="M1587.3,488.06h-2.08v-20.14c0-0.3-0.15-0.56-0.34-0.74l-16.05-15.75c-0.19-0.19-0.48-0.3-0.78-0.3h-27.51
			c-3.46,0-6.33,2.94-6.33,6.55v30.42h-2.08c-0.6,0-1.12,0.41-1.12,1.01v18.02c0,0.6,0.52,1.01,1.12,1.01h2.08v3.72
			c0,3.61,2.87,6.55,6.33,6.55h38.31c3.46,0,6.33-2.94,6.33-6.55v-3.72h2.08c0.6,0,1.12-0.41,1.12-1.01v-18.02
			C1588.41,488.47,1587.89,488.06,1587.3,488.06L1587.3,488.06z M1569.05,454.67l12.51,12.17h-10.05c-0.67,0-1.3-0.26-1.75-0.74
			c-0.45-0.48-0.71-1.12-0.71-1.79L1569.05,454.67L1569.05,454.67z M1536.37,457.61c0-2.42,1.9-4.39,4.21-4.39h26.36v11.09
			c0,1.23,0.48,2.42,1.34,3.28c0.86,0.86,2.05,1.38,3.28,1.38h11.54v19.1h-46.68v-30.45H1536.37z M1583.05,511.78
			c0,2.42-1.9,4.39-4.21,4.39h-38.31c-2.27,0-4.21-1.97-4.21-4.39v-3.72h46.68v3.72H1583.05z M1586.25,505.93h-53.09v-15.75h53.09
			V505.93z"/>
		<text transform="matrix(1 0 0 1 1546.0391 504.3359)" class="st3 st1 st4">RDS</text>
		<path class="st3" d="M1551.56,459.1v-2.87c-0.45,0.04-0.89,0.11-1.34,0.22v2.08l-11.13,11.13H1537c-0.07,0.45-0.15,0.89-0.22,1.34
			h2.87L1551.56,459.1z"/>
		<path class="st3" d="M1547.65,483.97l-1.6,4.24c0.41,0.19,0.82,0.37,1.23,0.56l1.34-3.61l13.44-2.72l3.69,2.72
			c0.04-0.07,0.67-1.19,0.67-1.19l-4.28-2.94L1547.65,483.97z"/>
		<path class="st3" d="M1565.07,468l3.72-2.49c-0.19-0.37-0.37-0.74-0.6-1.12l-0.04-0.07l-4.32,2.9l-1.45,12.25l4.95,3.54
			c0.26-0.37,0.52-0.74,0.74-1.12l-4.24-3.05L1565.07,468z"/>
		<path class="st3" d="M1567.45,463.49l-0.3-0.6c-0.15-0.19-0.3-0.37-0.45-0.56l-3.61,1.82l-9.53-5.73v-2.35
			c-0.45,0-0.89,0.04-1.34,0.07v3.05l10.83,6.48L1567.45,463.49z"/>
		<path class="st3" d="M1549.51,468.3c-2.61,0-4.73,2.12-4.73,4.77c0,2.61,2.12,4.77,4.73,4.77s4.77-2.12,4.77-4.77
			C1554.27,470.42,1552.15,468.3,1549.51,468.3z M1549.51,476.45c-1.86,0-3.39-1.53-3.39-3.39s1.53-3.39,3.39-3.39
			c1.86,0,3.39,1.53,3.39,3.39C1552.9,474.92,1551.41,476.45,1549.51,476.45z"/>
		<path class="st3" d="M1555.95,468.97c1.3,0,2.38-1.08,2.38-2.38s-1.04-2.38-2.38-2.38c-1.3,0-2.38,1.08-2.38,2.38
			C1553.57,467.92,1554.65,468.97,1555.95,468.97z M1555.95,465.58c0.56,0,1.01,0.45,1.01,1.01c0,0.56-0.45,1.01-1.01,1.01
			c-0.56,0-1.01-0.45-1.01-1.01C1554.94,466.02,1555.39,465.58,1555.95,465.58z"/>
		<path class="st3" d="M1559.9,474.36l-0.22-0.63l-0.22-0.63c-0.07,0.04-2.23,0.74-2.87,2.53c-0.37,1.01-0.19,2.08,0.48,3.2
			l1.15-0.71c-0.45-0.78-0.6-1.45-0.37-2.05C1558.29,474.92,1559.9,474.36,1559.9,474.36z"/>
		<path class="st3" d="M1569.87,474.4c0,0.74-0.6,1.34-1.34,1.34c-0.74,0-1.34-0.6-1.34-1.34c0-0.74,0.6-1.34,1.34-1.34
			C1569.24,473.06,1569.87,473.66,1569.87,474.4z"/>
		<path class="st3" d="M1556.99,485.94c-1.86,0-3.39,1.53-3.39,3.39c0,0.22,0.04,0.45,0.07,0.67c0.48,0,0.93-0.04,1.41-0.07
			c-0.07-0.19-0.11-0.41-0.11-0.6c0-1.12,0.93-2.05,2.05-2.05c1.04,0,1.9,0.82,2.01,1.82c0.45-0.15,0.89-0.3,1.3-0.48
			C1559.97,487.1,1558.63,485.94,1556.99,485.94z"/>
		<path class="st3" d="M1538.34,479.17c-0.19,0-0.37,0.04-0.52,0.07c0.41,1.04,0.93,2.05,1.53,2.98c0.41-0.3,0.71-0.82,0.71-1.38
			C1540.02,479.91,1539.27,479.17,1538.34,479.17L1538.34,479.17z"/>
		<path class="st3" d="M1543.29,460.03l0.97,0.97l-3.72,3.72l-0.97-0.97L1543.29,460.03z"/>
		<path class="st3" d="M1539.75,471.68h-3.05c-0.04,0.45-0.07,0.89-0.07,1.34h2.35l6.4,10.91l-1.19,3.2
			c0.37,0.26,0.78,0.48,1.19,0.71l1.53-4.06L1539.75,471.68z"/>
	</g>
	<rect x="1434.17" y="734.03" class="st5" width="462.94" height="192.73"/>
	<text transform="matrix(1 0 0 1 1476.3945 880.5878)" class="st0 st1 st8">AnnData</text>
	<text transform="matrix(1 0 0 1 1452.6211 859.1699)" class="st3 st1 st8">Unfiltered ADT </text>
	<text transform="matrix(1 0 0 1 1547.9141 880.5878)" class="st3 st1 st8"> </text>
	<text transform="matrix(1 0 0 1 1485.6289 901.9999)" class="st3 st1 st8">Object</text>
	<g>
		<path class="st3" d="M1539.75,800.07h-2.08v-20.14c0-0.3-0.15-0.56-0.34-0.74l-16.05-15.75c-0.19-0.19-0.48-0.3-0.78-0.3H1493
			c-3.46,0-6.33,2.94-6.33,6.55v30.42h-2.08c-0.6,0-1.12,0.41-1.12,1.01v18.02c0,0.6,0.52,1.01,1.12,1.01h2.08v3.72
			c0,3.61,2.87,6.55,6.33,6.55h38.31c3.46,0,6.33-2.94,6.33-6.55v-3.72h2.08c0.6,0,1.12-0.41,1.12-1.01v-18.02
			C1540.87,800.48,1540.35,800.07,1539.75,800.07L1539.75,800.07z M1521.51,766.68l12.51,12.17h-10.05c-0.67,0-1.3-0.26-1.75-0.74
			c-0.45-0.48-0.71-1.12-0.71-1.79L1521.51,766.68L1521.51,766.68z M1488.83,769.66c0-2.42,1.9-4.39,4.21-4.39h26.36v11.09
			c0,1.23,0.48,2.42,1.34,3.28s2.05,1.38,3.28,1.38h11.54v19.1h-46.68v-30.45H1488.83z M1535.51,823.83c0,2.42-1.9,4.39-4.21,4.39
			H1493c-2.27,0-4.21-1.97-4.21-4.39v-3.72h46.68v3.72H1535.51z M1538.71,817.94h-53.09V802.2h53.09V817.94z"/>
		<text transform="matrix(1 0 0 1 1492.5723 816.3535)" class="st3 st1 st4">HDF5</text>
		<path class="st3" d="M1504.02,771.11v-2.87c-0.45,0.04-0.89,0.11-1.34,0.22v2.08l-11.13,11.13h-2.08
			c-0.07,0.45-0.15,0.89-0.22,1.34h2.87L1504.02,771.11z"/>
		<path class="st3" d="M1500.11,796.02l-1.6,4.24c0.41,0.19,0.82,0.37,1.23,0.56l1.34-3.61l13.44-2.72l3.69,2.72
			c0.04-0.07,0.67-1.19,0.67-1.19l-4.28-2.94L1500.11,796.02z"/>
		<path class="st3" d="M1517.53,780.05l3.72-2.49c-0.19-0.37-0.37-0.74-0.6-1.12l-0.04-0.07l-4.32,2.9l-1.45,12.25l4.95,3.54
			c0.26-0.37,0.52-0.74,0.74-1.12l-4.24-3.05L1517.53,780.05z"/>
		<path class="st3" d="M1519.91,775.5l-0.3-0.6c-0.15-0.19-0.3-0.37-0.45-0.56l-3.61,1.82l-9.53-5.73v-2.35
			c-0.45,0-0.89,0.04-1.34,0.07v3.05l10.83,6.48L1519.91,775.5z"/>
		<path class="st3" d="M1501.97,780.31c-2.61,0-4.73,2.12-4.73,4.77c0,2.61,2.12,4.77,4.73,4.77s4.77-2.12,4.77-4.77
			C1506.73,782.47,1504.57,780.31,1501.97,780.31z M1501.97,788.46c-1.86,0-3.39-1.53-3.39-3.39c0-1.86,1.53-3.39,3.39-3.39
			s3.39,1.53,3.39,3.39C1505.36,786.93,1503.87,788.46,1501.97,788.46z"/>
		<path class="st3" d="M1508.41,781.01c1.3,0,2.38-1.08,2.38-2.38c0-1.3-1.04-2.38-2.38-2.38c-1.3,0-2.38,1.08-2.38,2.38
			C1506.03,779.93,1507.11,781.01,1508.41,781.01z M1508.41,777.59c0.56,0,1.01,0.45,1.01,1.01c0,0.56-0.45,1.01-1.01,1.01
			c-0.56,0-1.01-0.45-1.01-1.01C1507.4,778.07,1507.85,777.59,1508.41,777.59z"/>
		<path class="st3" d="M1512.35,786.37l-0.22-0.63l-0.22-0.63c-0.07,0.04-2.23,0.74-2.87,2.53c-0.37,1.01-0.19,2.08,0.48,3.2
			l1.15-0.71c-0.45-0.78-0.6-1.45-0.37-2.05C1510.75,786.93,1512.35,786.37,1512.35,786.37z"/>
		<path class="st3" d="M1522.33,786.41c0,0.74-0.6,1.34-1.34,1.34c-0.74,0-1.34-0.6-1.34-1.34c0-0.74,0.6-1.34,1.34-1.34
			C1521.7,785.07,1522.33,785.67,1522.33,786.41z"/>
		<path class="st3" d="M1509.45,797.95c-1.86,0-3.39,1.53-3.39,3.39c0,0.22,0.04,0.45,0.07,0.67c0.48,0,0.93-0.04,1.41-0.07
			c-0.07-0.19-0.11-0.41-0.11-0.6c0-1.12,0.93-2.05,2.05-2.05c1.04,0,1.9,0.82,2.01,1.82c0.45-0.15,0.89-0.3,1.3-0.48
			C1512.43,799.11,1511.05,797.95,1509.45,797.95z"/>
		<path class="st3" d="M1490.8,791.18c-0.19,0-0.37,0.04-0.52,0.07c0.41,1.04,0.93,2.05,1.53,2.98c0.41-0.3,0.71-0.82,0.71-1.38
			C1492.47,791.92,1491.73,791.18,1490.8,791.18L1490.8,791.18z"/>
		<path class="st3" d="M1495.71,772.04l0.97,0.97l-3.72,3.72l-0.97-0.97L1495.71,772.04z"/>
		<path class="st3" d="M1492.18,783.69h-3.05c-0.04,0.45-0.07,0.89-0.07,1.34h2.35l6.4,10.91l-1.19,3.2
			c0.37,0.26,0.78,0.48,1.19,0.71l1.53-4.06L1492.18,783.69z"/>
	</g>
	<text transform="matrix(1 0 0 1 1628.8672 880.5878)" class="st0 st1 st8">AnnData</text>
	<text transform="matrix(1 0 0 1 1613.7402 859.1699)" class="st3 st1 st8">Filtered ADT </text>
	<text transform="matrix(1 0 0 1 1700.3516 880.5878)" class="st3 st1 st8"> </text>
	<text transform="matrix(1 0 0 1 1638.0703 901.9999)" class="st3 st1 st8">Object</text>
	<g>
		<path class="st3" d="M1693.73,800.07h-2.08v-20.14c0-0.3-0.15-0.56-0.34-0.74l-16.05-15.75c-0.19-0.19-0.48-0.3-0.78-0.3h-27.51
			c-3.46,0-6.33,2.94-6.33,6.55v30.42h-2.08c-0.6,0-1.12,0.41-1.12,1.01v18.02c0,0.6,0.52,1.01,1.12,1.01h2.08v3.72
			c0,3.61,2.87,6.55,6.33,6.55h38.31c3.46,0,6.33-2.94,6.33-6.55v-3.72h2.08c0.6,0,1.12-0.41,1.12-1.01v-18.02
			C1694.85,800.48,1694.33,800.07,1693.73,800.07L1693.73,800.07z M1675.49,766.68l12.51,12.17h-10.05c-0.67,0-1.3-0.26-1.75-0.74
			c-0.45-0.48-0.71-1.12-0.71-1.79L1675.49,766.68L1675.49,766.68z M1642.8,769.66c0-2.42,1.9-4.39,4.21-4.39h26.36v11.09
			c0,1.23,0.48,2.42,1.34,3.28c0.86,0.86,2.05,1.38,3.28,1.38h11.54v19.1h-46.68v-30.45H1642.8z M1689.49,823.83
			c0,2.42-1.9,4.39-4.21,4.39h-38.31c-2.27,0-4.21-1.97-4.21-4.39v-3.72h46.68v3.72H1689.49z M1692.69,817.94h-53.09V802.2h53.09
			V817.94z"/>
		<text transform="matrix(1 0 0 1 1647.5586 816.3574)" class="st3 st1 st4">HDF5</text>
		<path class="st3" d="M1657.99,771.11v-2.87c-0.45,0.04-0.89,0.11-1.34,0.22v2.08l-11.13,11.13h-2.08
			c-0.07,0.45-0.15,0.89-0.22,1.34h2.87L1657.99,771.11z"/>
		<path class="st3" d="M1654.08,796.02l-1.6,4.24c0.41,0.19,0.82,0.37,1.23,0.56l1.34-3.61l13.44-2.72l3.69,2.72
			c0.04-0.07,0.67-1.19,0.67-1.19l-4.28-2.94L1654.08,796.02z"/>
		<path class="st3" d="M1671.51,780.05l3.72-2.49c-0.19-0.37-0.37-0.74-0.6-1.12l-0.04-0.07l-4.32,2.9l-1.45,12.25l4.95,3.54
			c0.26-0.37,0.52-0.74,0.74-1.12l-4.24-3.05L1671.51,780.05z"/>
		<path class="st3" d="M1673.89,775.5l-0.3-0.6c-0.15-0.19-0.3-0.37-0.45-0.56l-3.61,1.82l-9.53-5.73v-2.35
			c-0.45,0-0.89,0.04-1.34,0.07v3.05l10.83,6.48L1673.89,775.5z"/>
		<path class="st3" d="M1655.94,780.31c-2.61,0-4.73,2.12-4.73,4.77c0,2.61,2.12,4.77,4.73,4.77c2.61,0,4.77-2.12,4.77-4.77
			C1660.71,782.47,1658.55,780.31,1655.94,780.31z M1655.94,788.46c-1.86,0-3.39-1.53-3.39-3.39c0-1.86,1.53-3.39,3.39-3.39
			s3.39,1.53,3.39,3.39C1659.33,786.93,1657.81,788.46,1655.94,788.46z"/>
		<path class="st3" d="M1662.38,781.01c1.3,0,2.38-1.08,2.38-2.38c0-1.3-1.04-2.38-2.38-2.38c-1.3,0-2.38,1.08-2.38,2.38
			S1661.08,781.01,1662.38,781.01z M1662.38,777.59c0.56,0,1.01,0.45,1.01,1.01c0,0.56-0.45,1.01-1.01,1.01
			c-0.56,0-1.01-0.45-1.01-1.01C1661.38,778.07,1661.83,777.59,1662.38,777.59z"/>
		<path class="st3" d="M1666.33,786.37l-0.22-0.63l-0.22-0.63c-0.07,0.04-2.23,0.74-2.87,2.53c-0.37,1.01-0.19,2.08,0.48,3.2
			l1.15-0.71c-0.45-0.78-0.6-1.45-0.37-2.05C1664.73,786.93,1666.33,786.37,1666.33,786.37z"/>
		<path class="st3" d="M1676.31,786.41c0,0.74-0.6,1.34-1.34,1.34c-0.74,0-1.34-0.6-1.34-1.34c0-0.74,0.6-1.34,1.34-1.34
			C1675.68,785.07,1676.31,785.67,1676.31,786.41z"/>
		<path class="st3" d="M1663.39,797.95c-1.86,0-3.39,1.53-3.39,3.39c0,0.22,0.04,0.45,0.07,0.67c0.48,0,0.93-0.04,1.41-0.07
			c-0.07-0.19-0.11-0.41-0.11-0.6c0-1.12,0.93-2.05,2.05-2.05c1.04,0,1.9,0.82,2.01,1.82c0.45-0.15,0.89-0.3,1.3-0.48
			C1666.41,799.11,1665.03,797.95,1663.39,797.95z"/>
		<path class="st3" d="M1644.74,791.18c-0.19,0-0.37,0.04-0.52,0.07c0.41,1.04,0.93,2.05,1.53,2.98c0.41-0.3,0.71-0.82,0.71-1.38
			C1646.45,791.92,1645.71,791.18,1644.74,791.18L1644.74,791.18z"/>
		<path class="st3" d="M1649.69,772.04l0.97,0.97l-3.72,3.72l-0.97-0.97L1649.69,772.04z"/>
		<path class="st3" d="M1646.15,783.69h-3.05c-0.04,0.45-0.07,0.89-0.07,1.34h2.35l6.4,10.91l-1.19,3.2
			c0.37,0.26,0.78,0.48,1.19,0.71l1.53-4.06L1646.15,783.69z"/>
	</g>
	<text transform="matrix(1 0 0 1 1806.9277 880.5859)" class="st0 st1 st8">AnnData</text>
	<text transform="matrix(1 0 0 1 1774.1855 859.1757)" class="st3 st1 st8">Processed </text>
	<text transform="matrix(1 0 0 1 1760.0645 880.5859)" class="st3 st1 st8">ADT </text>
	<text transform="matrix(1 0 0 1 1873.543 880.5859)" class="st3 st1 st8"> </text>
	<text transform="matrix(1 0 0 1 1791.0176 901.998)" class="st3 st1 st8">Object</text>
	<g>
		<path class="st3" d="M1850.76,800.07h-2.08v-20.14c0-0.3-0.15-0.56-0.34-0.74l-16.05-15.75c-0.19-0.19-0.48-0.3-0.78-0.3H1804
			c-3.46,0-6.33,2.94-6.33,6.55v30.42h-2.08c-0.6,0-1.12,0.41-1.12,1.01v18.02c0,0.6,0.52,1.01,1.12,1.01h2.08v3.72
			c0,3.61,2.87,6.55,6.33,6.55h38.31c3.46,0,6.33-2.94,6.33-6.55v-3.72h2.08c0.6,0,1.12-0.41,1.12-1.01v-18.02
			C1851.88,800.48,1851.36,800.07,1850.76,800.07L1850.76,800.07z M1832.52,766.68l12.51,12.17h-10.05c-0.67,0-1.3-0.26-1.75-0.74
			c-0.45-0.48-0.71-1.12-0.71-1.79L1832.52,766.68L1832.52,766.68z M1799.83,769.66c0-2.42,1.9-4.39,4.21-4.39h26.36v11.09
			c0,1.23,0.48,2.42,1.34,3.28s2.05,1.38,3.28,1.38h11.54v19.1h-46.72V769.66z M1846.52,823.83c0,2.42-1.9,4.39-4.21,4.39H1804
			c-2.27,0-4.21-1.97-4.21-4.39v-3.72h46.68v3.72H1846.52z M1849.72,817.94h-53.09V802.2h53.09V817.94z"/>
		<text transform="matrix(1 0 0 1 1804.5938 816.3535)" class="st3 st1 st4">HDF5</text>
		<path class="st3" d="M1815.02,771.11v-2.87c-0.45,0.04-0.89,0.11-1.34,0.22v2.08l-11.13,11.13h-2.08
			c-0.07,0.45-0.15,0.89-0.22,1.34h2.87L1815.02,771.11z"/>
		<path class="st3" d="M1811.11,796.02l-1.6,4.24c0.41,0.19,0.82,0.37,1.23,0.56l1.34-3.61l13.44-2.72l3.69,2.72
			c0.04-0.07,0.67-1.19,0.67-1.19l-4.28-2.94L1811.11,796.02z"/>
		<path class="st3" d="M1828.54,780.05l3.72-2.49c-0.19-0.37-0.37-0.74-0.6-1.12l-0.04-0.07l-4.32,2.9l-1.45,12.25l4.95,3.54
			c0.26-0.37,0.52-0.74,0.74-1.12l-4.24-3.05L1828.54,780.05z"/>
		<path class="st3" d="M1830.92,775.5l-0.3-0.6c-0.15-0.19-0.3-0.37-0.45-0.56l-3.61,1.82l-9.53-5.73v-2.35
			c-0.45,0-0.89,0.04-1.34,0.07v3.05l10.83,6.48L1830.92,775.5z"/>
		<path class="st3" d="M1812.97,780.31c-2.61,0-4.73,2.12-4.73,4.77c0,2.61,2.12,4.77,4.73,4.77s4.77-2.12,4.77-4.77
			C1817.74,782.47,1815.58,780.31,1812.97,780.31z M1812.97,788.46c-1.86,0-3.39-1.53-3.39-3.39c0-1.86,1.53-3.39,3.39-3.39
			c1.86,0,3.39,1.53,3.39,3.39C1816.36,786.93,1814.84,788.46,1812.97,788.46z"/>
		<path class="st3" d="M1819.41,781.01c1.3,0,2.38-1.08,2.38-2.38c0-1.3-1.04-2.38-2.38-2.38c-1.3,0-2.38,1.08-2.38,2.38
			S1818.11,781.01,1819.41,781.01z M1819.41,777.59c0.56,0,1.01,0.45,1.01,1.01c0,0.56-0.45,1.01-1.01,1.01
			c-0.56,0-1.01-0.45-1.01-1.01C1818.41,778.07,1818.86,777.59,1819.41,777.59z"/>
		<path class="st3" d="M1823.36,786.37l-0.22-0.63l-0.22-0.63c-0.07,0.04-2.23,0.74-2.87,2.53c-0.37,1.01-0.19,2.08,0.48,3.2
			l1.15-0.71c-0.45-0.78-0.6-1.45-0.37-2.05C1821.76,786.93,1823.36,786.37,1823.36,786.37z"/>
		<path class="st3" d="M1833.34,786.41c0,0.74-0.6,1.34-1.34,1.34s-1.34-0.6-1.34-1.34c0-0.74,0.6-1.34,1.34-1.34
			C1832.7,785.07,1833.34,785.67,1833.34,786.41z"/>
		<path class="st3" d="M1820.42,797.95c-1.86,0-3.39,1.53-3.39,3.39c0,0.22,0.04,0.45,0.07,0.67c0.48,0,0.93-0.04,1.41-0.07
			c-0.07-0.19-0.11-0.41-0.11-0.6c0-1.12,0.93-2.05,2.05-2.05c1.04,0,1.9,0.82,2.01,1.82c0.45-0.15,0.89-0.3,1.3-0.48
			C1823.43,799.11,1822.06,797.95,1820.42,797.95z"/>
		<path class="st3" d="M1801.77,791.18c-0.19,0-0.37,0.04-0.52,0.07c0.41,1.04,0.93,2.05,1.53,2.98c0.41-0.3,0.71-0.82,0.71-1.38
			C1803.48,791.92,1802.74,791.18,1801.77,791.18L1801.77,791.18z"/>
		<path class="st3" d="M1806.72,772.04l0.97,0.97l-3.72,3.72l-0.97-0.97L1806.72,772.04z"/>
		<path class="st3" d="M1803.18,783.69h-3.05c-0.04,0.45-0.07,0.89-0.07,1.34h2.35l6.4,10.91l-1.19,3.2
			c0.37,0.26,0.78,0.48,1.19,0.71l1.53-4.06L1803.18,783.69z"/>
	</g>
	<rect x="892.72" y="736.04" class="st5" width="462.94" height="192.73"/>
	<text transform="matrix(1 0 0 1 936.4766 880.5878)" class="st0 st1 st8">AnnData</text>
	<text transform="matrix(1 0 0 1 911.5059 859.1777)" class="st3 st1 st8">Unfiltered RNA </text>
	<text transform="matrix(1 0 0 1 1007.9941 880.5898)" class="st3 st1 st8"> </text>
	<text transform="matrix(1 0 0 1 945.7109 901.9999)" class="st3 st1 st8">Object</text>
	<g>
		<path class="st3" d="M999.31,800.07h-2.08v-20.14c0-0.3-0.11-0.56-0.34-0.74l-16.05-15.75c-0.19-0.19-0.48-0.3-0.74-0.3h-27.51
			c-3.46,0-6.33,2.94-6.33,6.55v30.42h-2.08c-0.6,0-1.12,0.41-1.12,1.01v18.02c0,0.6,0.52,1.01,1.12,1.01h2.08v3.72
			c0,3.61,2.87,6.55,6.33,6.55h38.31c3.46,0,6.33-2.94,6.33-6.55v-3.72h2.08c0.6,0,1.12-0.41,1.12-1.01v-18.02
			C1000.43,800.48,999.91,800.07,999.31,800.07L999.31,800.07z M981.07,766.68l12.47,12.17h-10.05c-0.67,0-1.3-0.26-1.75-0.74
			c-0.45-0.48-0.71-1.12-0.71-1.79v-9.64H981.07z M948.38,769.66c0-2.42,1.9-4.39,4.21-4.39h26.36v11.09c0,1.23,0.48,2.42,1.34,3.28
			c0.86,0.86,2.05,1.38,3.28,1.38h11.54v19.1h-46.68v-30.45H948.38z M995.1,823.83c0,2.42-1.9,4.39-4.21,4.39h-38.31
			c-2.27,0-4.21-1.97-4.21-4.39v-3.72h46.68v3.72H995.1z M998.3,817.94h-53.09V802.2h53.09V817.94z"/>
		<text transform="matrix(1 0 0 1 952.1445 816.3554)" class="st3 st1 st4">HDF5</text>
		<path class="st3" d="M963.57,771.11v-2.87c-0.45,0.04-0.89,0.11-1.34,0.22v2.08l-11.13,11.13h-2.08
			c-0.07,0.45-0.15,0.89-0.22,1.34h2.87L963.57,771.11z"/>
		<path class="st3" d="M959.7,796.02l-1.6,4.24c0.41,0.19,0.82,0.37,1.23,0.56l1.38-3.61l13.44-2.72l3.69,2.72
			c0.07-0.07,0.67-1.19,0.67-1.19l-4.28-2.94L959.7,796.02z"/>
		<path class="st3" d="M977.12,780.05l3.72-2.49c-0.19-0.37-0.37-0.74-0.6-1.12l-0.04-0.07l-4.32,2.9l-1.45,12.25l4.95,3.54
			c0.26-0.37,0.52-0.74,0.74-1.12l-4.24-3.05L977.12,780.05z"/>
		<path class="st3" d="M979.5,775.5l-0.3-0.6c-0.15-0.19-0.3-0.37-0.41-0.56l-3.61,1.82l-9.53-5.73v-2.35
			c-0.45,0-0.89,0.04-1.34,0.07v3.05l10.83,6.48L979.5,775.5z"/>
		<path class="st3" d="M961.56,780.31c-2.61,0-4.77,2.12-4.77,4.77c0,2.61,2.12,4.77,4.77,4.77c2.61,0,4.77-2.12,4.77-4.77
			C966.29,782.47,964.17,780.31,961.56,780.31z M961.56,788.46c-1.86,0-3.39-1.53-3.39-3.39c0-1.86,1.53-3.39,3.39-3.39
			c1.86,0,3.39,1.53,3.39,3.39C964.95,786.93,963.42,788.46,961.56,788.46z"/>
		<path class="st3" d="M968,781.01c1.3,0,2.38-1.08,2.38-2.38c0-1.3-1.08-2.38-2.38-2.38c-1.3,0-2.38,1.08-2.38,2.38
			S966.7,781.01,968,781.01z M968,777.59c0.56,0,1.01,0.45,1.01,1.01c0,0.56-0.45,1.01-1.01,1.01s-1.01-0.45-1.01-1.01
			C966.96,778.07,967.44,777.59,968,777.59z"/>
		<path class="st3" d="M971.95,786.37l-0.22-0.63l-0.22-0.63c-0.07,0.04-2.23,0.74-2.87,2.53c-0.37,1.01-0.22,2.08,0.48,3.2
			l1.15-0.71c-0.45-0.78-0.6-1.45-0.37-2.05C970.31,786.93,971.91,786.37,971.95,786.37z"/>
		<path class="st3" d="M981.89,786.41c0,0.74-0.6,1.34-1.34,1.34c-0.74,0-1.34-0.6-1.34-1.34c0-0.74,0.6-1.34,1.34-1.34
			C981.29,785.07,981.89,785.67,981.89,786.41z"/>
		<path class="st3" d="M969.01,797.95c-1.86,0-3.39,1.53-3.39,3.39c0,0.22,0.04,0.45,0.07,0.67c0.48,0,0.93-0.04,1.38-0.07
			c-0.07-0.19-0.11-0.41-0.11-0.6c0-1.12,0.93-2.05,2.05-2.05c1.04,0,1.9,0.82,2.01,1.82c0.45-0.15,0.89-0.3,1.3-0.48
			C971.98,799.11,970.64,797.95,969.01,797.95z"/>
		<path class="st3" d="M950.35,791.18c-0.19,0-0.37,0.04-0.52,0.07c0.41,1.04,0.93,2.05,1.53,2.98c0.41-0.3,0.71-0.82,0.71-1.38
			C952.07,791.92,951.29,791.18,950.35,791.18L950.35,791.18z"/>
		<path class="st3" d="M955.31,772.04l0.97,0.97l-3.72,3.72l-0.97-0.97L955.31,772.04z"/>
		<path class="st3" d="M951.77,783.69h-3.05c-0.04,0.45-0.07,0.89-0.07,1.34h2.31l6.44,10.91l-1.19,3.2
			c0.37,0.26,0.78,0.48,1.19,0.71l1.53-4.06L951.77,783.69z"/>
	</g>
	<text transform="matrix(1 0 0 1 1090.4824 880.5878)" class="st0 st1 st8">AnnData</text>
	<text transform="matrix(1 0 0 1 1074.1562 859.1777)" class="st3 st1 st8">Filtered RNA </text>
	<text transform="matrix(1 0 0 1 1161.9609 880.5878)" class="st3 st1 st8"> </text>
	<text transform="matrix(1 0 0 1 1099.6816 901.9999)" class="st3 st1 st8">Object</text>
	<g>
		<path class="st3" d="M1152.28,800.07h-2.08v-20.14c0-0.3-0.15-0.56-0.34-0.74l-16.05-15.75c-0.19-0.19-0.48-0.3-0.78-0.3h-27.51
			c-3.46,0-6.33,2.94-6.33,6.55v30.42h-2.08c-0.6,0-1.12,0.41-1.12,1.01v18.02c0,0.6,0.52,1.01,1.12,1.01h2.08v3.72
			c0,3.61,2.87,6.55,6.33,6.55h38.31c3.46,0,6.33-2.94,6.33-6.55v-3.72h2.08c0.6,0,1.12-0.41,1.12-1.01v-18.02
			C1153.4,800.48,1152.88,800.07,1152.28,800.07L1152.28,800.07z M1134.04,766.68l12.51,12.17h-10.05c-0.67,0-1.3-0.26-1.75-0.74
			c-0.45-0.48-0.71-1.12-0.71-1.79L1134.04,766.68L1134.04,766.68z M1101.35,769.66c0-2.42,1.9-4.39,4.21-4.39h26.36v11.09
			c0,1.23,0.48,2.42,1.34,3.28s2.05,1.38,3.28,1.38h11.54v19.1h-46.68v-30.45H1101.35z M1148.04,823.83c0,2.42-1.9,4.39-4.21,4.39
			h-38.31c-2.27,0-4.21-1.97-4.21-4.39v-3.72H1148v3.72H1148.04z M1151.24,817.94h-53.09V802.2h53.09V817.94z"/>
		<text transform="matrix(1 0 0 1 1106.1113 816.3535)" class="st3 st1 st4">HDF5</text>
		<path class="st3" d="M1116.54,771.11v-2.87c-0.45,0.04-0.89,0.11-1.34,0.22v2.08l-11.13,11.13h-2.08
			c-0.07,0.45-0.15,0.89-0.22,1.34h2.87L1116.54,771.11z"/>
		<path class="st3" d="M1112.63,796.02l-1.6,4.24c0.41,0.19,0.82,0.37,1.23,0.56l1.34-3.61l13.44-2.72l3.69,2.72
			c0.04-0.07,0.67-1.19,0.67-1.19l-4.28-2.94L1112.63,796.02z"/>
		<path class="st3" d="M1130.06,780.05l3.72-2.49c-0.19-0.37-0.37-0.74-0.6-1.12l-0.04-0.07l-4.32,2.9l-1.45,12.25l4.95,3.54
			c0.26-0.37,0.52-0.74,0.74-1.12l-4.24-3.05L1130.06,780.05z"/>
		<path class="st3" d="M1132.44,775.5l-0.3-0.6c-0.15-0.19-0.3-0.37-0.45-0.56l-3.61,1.82l-9.53-5.73v-2.35
			c-0.45,0-0.89,0.04-1.34,0.07v3.05l10.83,6.48L1132.44,775.5z"/>
		<path class="st3" d="M1114.49,780.31c-2.61,0-4.73,2.12-4.73,4.77c0,2.61,2.12,4.77,4.73,4.77c2.61,0,4.77-2.12,4.77-4.77
			C1119.26,782.47,1117.1,780.31,1114.49,780.31z M1114.49,788.46c-1.86,0-3.39-1.53-3.39-3.39c0-1.86,1.53-3.39,3.39-3.39
			s3.39,1.53,3.39,3.39C1117.88,786.93,1116.36,788.46,1114.49,788.46z"/>
		<path class="st3" d="M1120.94,781.01c1.3,0,2.38-1.08,2.38-2.38c0-1.3-1.04-2.38-2.38-2.38c-1.3,0-2.38,1.08-2.38,2.38
			S1119.63,781.01,1120.94,781.01z M1120.94,777.59c0.56,0,1.01,0.45,1.01,1.01c0,0.56-0.45,1.01-1.01,1.01
			c-0.56,0-1.01-0.45-1.01-1.01C1119.93,778.07,1120.38,777.59,1120.94,777.59z"/>
		<path class="st3" d="M1124.88,786.37l-0.22-0.63l-0.22-0.63c-0.07,0.04-2.23,0.74-2.87,2.53c-0.37,1.01-0.19,2.08,0.48,3.2
			l1.15-0.71c-0.45-0.78-0.6-1.45-0.37-2.05C1123.28,786.93,1124.88,786.37,1124.88,786.37z"/>
		<path class="st3" d="M1134.86,786.41c0,0.74-0.6,1.34-1.34,1.34c-0.74,0-1.34-0.6-1.34-1.34c0-0.74,0.6-1.34,1.34-1.34
			C1134.23,785.07,1134.86,785.67,1134.86,786.41z"/>
		<path class="st3" d="M1121.98,797.95c-1.86,0-3.39,1.53-3.39,3.39c0,0.22,0.04,0.45,0.07,0.67c0.48,0,0.93-0.04,1.41-0.07
			c-0.07-0.19-0.11-0.41-0.11-0.6c0-1.12,0.93-2.05,2.05-2.05c1.04,0,1.9,0.82,2.01,1.82c0.45-0.15,0.89-0.3,1.3-0.48
			C1124.96,799.11,1123.58,797.95,1121.98,797.95z"/>
		<path class="st3" d="M1103.33,791.18c-0.19,0-0.37,0.04-0.52,0.07c0.41,1.04,0.93,2.05,1.53,2.98c0.41-0.3,0.71-0.82,0.71-1.38
			C1105,791.92,1104.26,791.18,1103.33,791.18L1103.33,791.18z"/>
		<path class="st3" d="M1108.24,772.04l0.97,0.97l-3.72,3.72l-0.97-0.97L1108.24,772.04z"/>
		<path class="st3" d="M1104.7,783.69h-3.05c-0.04,0.45-0.07,0.89-0.07,1.34h2.35l6.4,10.91l-1.19,3.2
			c0.37,0.26,0.78,0.48,1.19,0.71l1.53-4.06L1104.7,783.69z"/>
	</g>
	<text transform="matrix(1 0 0 1 1266.7344 880.5878)" class="st0 st1 st8">AnnData</text>
	<text transform="matrix(1 0 0 1 1236.8164 859.1777)" class="st3 st1 st8">Processed </text>
	<text transform="matrix(1 0 0 1 1212.6484 880.5878)" class="st3 st1 st8">RNA </text>
	<text transform="matrix(1 0 0 1 1336.8457 880.5878)" class="st3 st1 st8"> </text>
	<text transform="matrix(1 0 0 1 1253.6543 901.9999)" class="st3 st1 st8">Object</text>
	<g>
		<path class="st3" d="M1308.27,800.07h-2.08v-20.14c0-0.3-0.15-0.56-0.33-0.74l-16.05-15.75c-0.19-0.19-0.48-0.3-0.78-0.3h-27.51
			c-3.46,0-6.33,2.94-6.33,6.55v30.42h-2.08c-0.6,0-1.12,0.41-1.12,1.01v18.02c0,0.6,0.52,1.01,1.12,1.01h2.08v3.72
			c0,3.61,2.87,6.55,6.33,6.55h38.31c3.46,0,6.33-2.94,6.33-6.55v-3.72h2.08c0.6,0,1.12-0.41,1.12-1.01v-18.02
			C1309.39,800.48,1308.86,800.07,1308.27,800.07L1308.27,800.07z M1290.03,766.68l12.51,12.17h-10.05c-0.67,0-1.3-0.26-1.75-0.74
			c-0.45-0.48-0.71-1.12-0.71-1.79L1290.03,766.68L1290.03,766.68z M1257.34,769.66c0-2.42,1.9-4.39,4.21-4.39h26.36v11.09
			c0,1.23,0.48,2.42,1.34,3.28c0.86,0.86,2.05,1.38,3.28,1.38h11.54v19.1h-46.68v-30.45H1257.34z M1304.06,823.83
			c0,2.42-1.9,4.39-4.21,4.39h-38.31c-2.27,0-4.21-1.97-4.21-4.39v-3.72h46.68v3.72H1304.06z M1307.26,817.94h-53.09V802.2h53.09
			V817.94z"/>
		<text transform="matrix(1 0 0 1 1262.125 816.3554)" class="st3 st1 st4">HDF5</text>
		<path class="st3" d="M1272.53,771.11v-2.87c-0.45,0.04-0.89,0.11-1.34,0.22v2.08l-11.13,11.13h-2.08
			c-0.07,0.45-0.15,0.89-0.22,1.34h2.87L1272.53,771.11z"/>
		<path class="st3" d="M1268.66,796.02l-1.6,4.24c0.41,0.19,0.82,0.37,1.23,0.56l1.34-3.61l13.44-2.72l3.69,2.72
			c0.04-0.07,0.67-1.19,0.67-1.19l-4.28-2.94L1268.66,796.02z"/>
		<path class="st3" d="M1286.08,780.05l3.72-2.49c-0.19-0.37-0.37-0.74-0.6-1.12l-0.04-0.07l-4.32,2.9l-1.45,12.25l4.95,3.54
			c0.26-0.37,0.52-0.74,0.74-1.12l-4.24-3.05L1286.08,780.05z"/>
		<path class="st3" d="M1288.46,775.5l-0.3-0.6c-0.15-0.19-0.3-0.37-0.45-0.56l-3.61,1.82l-9.53-5.73v-2.35
			c-0.45,0-0.89,0.04-1.34,0.07v3.05l10.83,6.48L1288.46,775.5z"/>
		<path class="st3" d="M1270.52,780.31c-2.61,0-4.73,2.12-4.73,4.77c0,2.61,2.12,4.77,4.73,4.77c2.61,0,4.77-2.12,4.77-4.77
			C1275.25,782.47,1273.12,780.31,1270.52,780.31z M1270.52,788.46c-1.86,0-3.39-1.53-3.39-3.39c0-1.86,1.53-3.39,3.39-3.39
			c1.86,0,3.39,1.53,3.39,3.39C1273.91,786.93,1272.38,788.46,1270.52,788.46z"/>
		<path class="st3" d="M1276.96,781.01c1.3,0,2.38-1.08,2.38-2.38c0-1.3-1.04-2.38-2.38-2.38c-1.3,0-2.38,1.08-2.38,2.38
			S1275.66,781.01,1276.96,781.01z M1276.96,777.59c0.56,0,1.01,0.45,1.01,1.01c0,0.56-0.45,1.01-1.01,1.01
			c-0.56,0-1.01-0.45-1.01-1.01C1275.92,778.07,1276.4,777.59,1276.96,777.59z"/>
		<path class="st3" d="M1280.91,786.37l-0.22-0.63l-0.22-0.63c-0.07,0.04-2.23,0.74-2.87,2.53c-0.37,1.01-0.19,2.08,0.48,3.2
			l1.15-0.71c-0.45-0.78-0.6-1.45-0.37-2.05C1279.27,786.93,1280.87,786.37,1280.91,786.37z"/>
		<path class="st3" d="M1290.85,786.41c0,0.74-0.6,1.34-1.34,1.34c-0.74,0-1.34-0.6-1.34-1.34c0-0.74,0.6-1.34,1.34-1.34
			S1290.85,785.67,1290.85,786.41z"/>
		<path class="st3" d="M1277.96,797.95c-1.86,0-3.39,1.53-3.39,3.39c0,0.22,0.04,0.45,0.07,0.67c0.48,0,0.93-0.04,1.41-0.07
			c-0.07-0.19-0.11-0.41-0.11-0.6c0-1.12,0.93-2.05,2.05-2.05c1.04,0,1.9,0.82,2.01,1.82c0.45-0.15,0.89-0.3,1.3-0.48
			C1280.94,799.11,1279.6,797.95,1277.96,797.95z"/>
		<path class="st3" d="M1259.31,791.18c-0.19,0-0.37,0.04-0.52,0.07c0.41,1.04,0.93,2.05,1.53,2.98c0.41-0.3,0.71-0.82,0.71-1.38
			C1261.03,791.92,1260.24,791.18,1259.31,791.18L1259.31,791.18z"/>
		<path class="st3" d="M1264.26,772.04l0.97,0.97l-3.72,3.72l-0.97-0.97L1264.26,772.04z"/>
		<path class="st3" d="M1260.73,783.69h-3.05c-0.04,0.45-0.07,0.89-0.07,1.34h2.35l6.4,10.91l-1.19,3.2
			c0.37,0.26,0.78,0.48,1.19,0.71l1.53-4.06L1260.73,783.69z"/>
	</g>
	<text transform="matrix(1 0 0 1 1827.748 545.1152)" class="st3 st1 st8">Summary </text>
	<text transform="matrix(1 0 0 1 1823.1172 566.5292)" class="st3 st1 st8">QC Report</text>
	<g>
		<path class="st3" d="M1899.94,488.06h-2.08v-20.14c0-0.3-0.15-0.56-0.33-0.74l-16.05-15.75c-0.19-0.19-0.48-0.3-0.78-0.3h-27.51
			c-3.46,0-6.33,2.94-6.33,6.55v30.42h-2.08c-0.6,0-1.12,0.41-1.12,1.01v18.02c0,0.6,0.52,1.01,1.12,1.01h2.08v3.72
			c0,3.61,2.87,6.55,6.33,6.55h38.31c3.46,0,6.33-2.94,6.33-6.55v-3.72h2.08c0.6,0,1.12-0.41,1.12-1.01v-18.02
			C1901.06,488.47,1900.54,488.06,1899.94,488.06L1899.94,488.06z M1881.7,454.67l12.51,12.17h-10.05c-0.67,0-1.3-0.26-1.75-0.74
			c-0.45-0.48-0.71-1.12-0.71-1.79L1881.7,454.67L1881.7,454.67z M1849.01,457.61c0-2.42,1.9-4.39,4.21-4.39h26.36v11.09
			c0,1.23,0.48,2.42,1.34,3.28c0.86,0.86,2.05,1.38,3.28,1.38h11.54v19.1h-46.68v-30.45H1849.01z M1895.73,511.78
			c0,2.42-1.9,4.39-4.21,4.39h-38.31c-2.27,0-4.21-1.97-4.21-4.39v-3.72h46.68v3.72H1895.73z M1898.93,505.93h-53.09v-15.75h53.09
			V505.93z"/>
		<text transform="matrix(1 0 0 1 1854.3066 504.3359)" class="st3 st1 st4">HTML</text>
		<path class="st3" d="M1856.87,481.18v7.3c0,0.67-0.56,1.19-1.27,1.19h-4.1c-0.71,0-1.27-0.52-1.27-1.19v-7.3
			c0-0.67,0.56-1.19,1.27-1.19h4.1C1856.31,479.98,1856.87,480.51,1856.87,481.18z"/>
		<path class="st3" d="M1851.47,475.67c0-0.82,0.71-1.49,1.6-1.49c0.3,0,0.56,0.07,0.78,0.19l5.73-5.96
			c-0.19-0.26-0.3-0.56-0.3-0.86c0-0.82,0.71-1.49,1.6-1.49c0.89,0,1.6,0.67,1.6,1.49c0,0.15-0.04,0.26-0.04,0.37l5.4,2.64
			c0.3-0.34,0.74-0.52,1.23-0.52c0.3,0,0.6,0.07,0.82,0.22l6.37-6.14c-0.15-0.22-0.26-0.52-0.26-0.82c0-0.82,0.71-1.49,1.6-1.49
			s1.6,0.67,1.6,1.49s-0.71,1.49-1.6,1.49c-0.3,0-0.6-0.07-0.82-0.22l-6.37,6.18c0.15,0.22,0.26,0.52,0.26,0.82
			c0,0.82-0.71,1.49-1.6,1.49c-0.89,0-1.6-0.67-1.6-1.49c0-0.11,0.04-0.26,0.04-0.37l-5.4-2.68c-0.3,0.34-0.74,0.52-1.23,0.52
			c-0.26,0-0.56-0.07-0.78-0.19l-5.73,5.96c0.19,0.26,0.3,0.56,0.3,0.86c0,0.82-0.71,1.49-1.6,1.49
			C1852.18,477.16,1851.47,476.49,1851.47,475.67z"/>
		<path class="st3" d="M1864.72,474.33v13.66c0,0.74-0.52,1.34-1.15,1.34h-3.76c-0.63,0-1.15-0.6-1.15-1.34v-13.66
			c0-0.74,0.52-1.34,1.15-1.34h3.76C1864.2,472.99,1864.72,473.58,1864.72,474.33z"/>
		<path class="st3" d="M1873.1,477.9v10.61c0,0.67-0.56,1.19-1.27,1.19h-4.1c-0.71,0-1.27-0.52-1.27-1.19V477.9
			c0-0.67,0.56-1.19,1.27-1.19h4.1C1872.54,476.71,1873.1,477.23,1873.1,477.9z"/>
		<path class="st3" d="M1881.03,473.02v15.19c0,0.6-0.52,1.08-1.19,1.08h-3.76c-0.63,0-1.19-0.48-1.19-1.08v-15.19
			c0-0.6,0.52-1.08,1.19-1.08h3.76C1880.51,471.98,1881.03,472.43,1881.03,473.02z"/>
	</g>
	<text transform="matrix(1 0 0 1 1987.9688 545.1152)" class="st3 st1 st8">Cell Type </text>
	<text transform="matrix(1 0 0 1 1998.5156 566.5292)" class="st3 st1 st8">Report</text>
	<g>
		<path class="st3" d="M2055.33,488.06h-2.08v-20.14c0-0.3-0.15-0.56-0.33-0.74l-16.05-15.75c-0.19-0.19-0.48-0.3-0.78-0.3h-27.51
			c-3.46,0-6.33,2.94-6.33,6.55v30.42h-2.08c-0.6,0-1.12,0.41-1.12,1.01v18.02c0,0.6,0.52,1.01,1.12,1.01h2.08v3.72
			c0,3.61,2.87,6.55,6.33,6.55h38.31c3.46,0,6.33-2.94,6.33-6.55v-3.72h2.08c0.6,0,1.12-0.41,1.12-1.01v-18.02
			C2056.45,488.47,2055.93,488.06,2055.33,488.06L2055.33,488.06z M2037.09,454.67l12.51,12.17h-10.05c-0.67,0-1.3-0.26-1.75-0.74
			c-0.45-0.48-0.71-1.12-0.71-1.79V454.67z M2004.4,457.61c0-2.42,1.9-4.39,4.21-4.39h26.36v11.09c0,1.23,0.48,2.42,1.34,3.28
			c0.86,0.86,2.05,1.38,3.28,1.38h11.54v19.1h-46.68v-30.45H2004.4z M2051.09,511.78c0,2.42-1.9,4.39-4.21,4.39h-38.31
			c-2.27,0-4.21-1.97-4.21-4.39v-3.72h46.68v3.72H2051.09z M2054.29,505.93h-53.09v-15.75h53.09V505.93z"/>
		<text transform="matrix(1 0 0 1 2009.6699 504.3378)" class="st3 st1 st4">HTML</text>
		<path class="st3" d="M2012.26,481.18v7.3c0,0.67-0.56,1.19-1.27,1.19h-4.09c-0.71,0-1.27-0.52-1.27-1.19v-7.3
			c0-0.67,0.56-1.19,1.27-1.19h4.09C2011.7,479.98,2012.26,480.51,2012.26,481.18z"/>
		<path class="st3" d="M2006.82,475.67c0-0.82,0.71-1.49,1.6-1.49c0.3,0,0.56,0.07,0.78,0.19l5.73-5.96
			c-0.19-0.26-0.3-0.56-0.3-0.86c0-0.82,0.71-1.49,1.6-1.49s1.6,0.67,1.6,1.49c0,0.15-0.04,0.26-0.04,0.37l5.4,2.64
			c0.3-0.34,0.74-0.52,1.23-0.52c0.3,0,0.6,0.07,0.82,0.22l6.37-6.14c-0.15-0.22-0.26-0.52-0.26-0.82c0-0.82,0.71-1.49,1.6-1.49
			s1.6,0.67,1.6,1.49s-0.71,1.49-1.6,1.49c-0.3,0-0.6-0.07-0.82-0.22l-6.37,6.18c0.15,0.22,0.26,0.52,0.26,0.82
			c0,0.82-0.71,1.49-1.6,1.49s-1.6-0.67-1.6-1.49c0-0.11,0.04-0.26,0.04-0.37l-5.4-2.68c-0.3,0.34-0.74,0.52-1.23,0.52
			c-0.26,0-0.56-0.07-0.78-0.19l-5.73,5.96c0.19,0.26,0.3,0.56,0.3,0.86c0,0.82-0.71,1.49-1.6,1.49
			C2007.57,477.16,2006.82,476.49,2006.82,475.67z"/>
		<path class="st3" d="M2020.11,474.33v13.66c0,0.74-0.52,1.34-1.19,1.34h-3.76c-0.63,0-1.19-0.6-1.19-1.34v-13.66
			c0-0.74,0.52-1.34,1.19-1.34h3.76C2019.59,472.99,2020.11,473.58,2020.11,474.33z"/>
		<path class="st3" d="M2028.49,477.9v10.61c0,0.67-0.56,1.19-1.27,1.19h-4.1c-0.71,0-1.27-0.52-1.27-1.19V477.9
			c0-0.67,0.56-1.19,1.27-1.19h4.1C2027.93,476.71,2028.49,477.23,2028.49,477.9z"/>
		<path class="st3" d="M2036.42,473.02v15.19c0,0.6-0.52,1.08-1.19,1.08h-3.76c-0.63,0-1.19-0.48-1.19-1.08v-15.19
			c0-0.6,0.52-1.08,1.19-1.08h3.76C2035.9,471.98,2036.42,472.43,2036.42,473.02z"/>
	</g>
	<g>
		<text transform="matrix(1 0 0 1 580.2637 189.4316)" class="st3 st1 st9">Gene by cell</text>
		<text transform="matrix(1 0 0 1 580.2637 216.2363)" class="st3 st1 st9">count matrix</text>
		<g>
			<path class="st3" d="M674.86,130.22h-2.46v-23.75c0-0.34-0.15-0.67-0.41-0.89l-18.91-18.54c-0.22-0.22-0.56-0.37-0.89-0.37
				h-32.43c-4.1,0-7.45,3.46-7.45,7.71v35.85h-2.46c-0.71,0-1.3,0.48-1.3,1.19v21.26c0,0.71,0.6,1.19,1.3,1.19h2.46v4.39
				c0,4.24,3.39,7.71,7.45,7.71h45.2c4.1,0,7.45-3.46,7.45-7.71v-4.39h2.46c0.71,0,1.3-0.48,1.3-1.19v-21.26
				C676.17,130.71,675.57,130.22,674.86,130.22L674.86,130.22z M653.35,90.87l14.74,14.33h-11.84c-0.78,0-1.53-0.34-2.05-0.89
				c-0.56-0.56-0.86-1.3-0.82-2.08V90.87H653.35z M614.81,94.34c0-2.87,2.23-5.21,4.95-5.21h31.09v13.07c0,1.45,0.56,2.83,1.56,3.87
				c1.01,1.04,2.38,1.6,3.83,1.64h13.63v22.49h-55.06L614.81,94.34L614.81,94.34z M669.88,158.22c0,2.87-2.23,5.21-4.95,5.21h-45.2
				c-2.68,0-4.95-2.35-4.95-5.21v-4.39h55.06v4.39H669.88z M673.67,151.3h-62.62v-18.58h62.62V151.3z"/>
			<text transform="matrix(1 0 0 1 626.0137 148.8788)" class="st3 st1 st4">MTX</text>
			<path class="st3" d="M647.09,99.25h-26.95c-1.01,0-1.75,0.82-1.75,1.75v28.55c0,1.01,0.82,1.75,1.75,1.75h6.11h7.37h13.48
				c1.01,0,1.75-0.82,1.75-1.75v-15.97v-4.32V101C648.88,100.07,648.06,99.25,647.09,99.25L647.09,99.25z M647.87,108.78h-6.37
				v-3.31h6.37V108.78z M647.87,113.1h-6.37v-3.31h6.37V113.1z M647.87,117.42h-6.37v-3.31h6.37V117.42z M647.87,121.74h-6.37v-3.31
				h6.37V121.74z M619.39,118.42h6.37v3.31h-6.37V118.42z M619.39,114.1h6.37v3.31h-6.37V114.1z M619.39,109.79h6.37v3.31h-6.37
				V109.79z M626.77,114.1h6.37v3.31h-6.37V114.1z M634.14,114.1h6.37v3.31h-6.37V114.1z M640.5,113.1h-6.37v-3.31h6.37V113.1z
				 M633.13,113.1h-6.37v-3.31h6.37V113.1z M626.77,118.42h6.37v3.31h-6.37V118.42z M634.14,118.42h6.37v3.31h-6.37V118.42z
				 M640.5,108.78h-6.37v-3.31h6.37V108.78z M633.13,108.78h-6.37v-3.31h6.37V108.78z M625.76,108.78h-6.37v-3.31h6.37V108.78z
				 M619.39,122.7h6.37v3.31h-6.37V122.7z M626.77,122.7h6.37v3.31h-6.37V122.7z M634.14,122.7h6.37v3.31h-6.37V122.7z
				 M641.51,122.7h6.37v3.31h-6.37V122.7z M647.87,101.04v3.43h-6.37v-4.17h5.58C647.5,100.26,647.87,100.63,647.87,101.04
				L647.87,101.04z M640.5,104.46h-6.37v-4.21h6.37V104.46z M633.13,104.46h-6.37v-4.21h6.37V104.46z M619.39,101.04
				c0-0.41,0.37-0.74,0.74-0.74h5.58v4.21h-6.37v-3.46H619.39z M619.39,129.59v-2.57h6.37v3.31h-5.58
				C619.77,130.34,619.39,130,619.39,129.59L619.39,129.59z M626.77,127.02h6.37v3.31h-6.37V127.02z M634.14,127.02h6.37v3.31h-6.37
				V127.02z M647.87,129.59c0,0.45-0.37,0.74-0.74,0.74h-5.58v-3.31h6.37L647.87,129.59z"/>
			<path class="st3" d="M628.92,102.86h2.01c0.3,0,0.52-0.19,0.52-0.48c0-0.3-0.19-0.48-0.52-0.48h-2.01c-0.3,0-0.52,0.19-0.52,0.48
				C628.4,102.68,628.63,102.86,628.92,102.86z"/>
			<path class="st3" d="M636.3,102.86h2.01c0.3,0,0.52-0.19,0.52-0.48c0-0.3-0.19-0.48-0.52-0.48h-2.01c-0.3,0-0.52,0.19-0.52,0.48
				C635.77,102.68,636,102.86,636.3,102.86z"/>
			<path class="st3" d="M643.67,102.86h2.01c0.3,0,0.52-0.19,0.52-0.48c0-0.3-0.19-0.48-0.52-0.48h-2.01c-0.3,0-0.52,0.19-0.52,0.48
				C643.15,102.68,643.41,102.86,643.67,102.86z"/>
			<path class="st3" d="M621.66,101.93c-0.15-0.11-0.41-0.04-0.52,0.11c-0.04,0.04-0.11,0.11-0.15,0.15v0.19
				c0,0.15,0.04,0.26,0.15,0.34c0,0.04,0.11,0.11,0.15,0.11c0.04,0.04,0.11,0.04,0.19,0.04s0.15,0,0.19-0.04
				c0.04,0,0.11-0.04,0.15-0.11c0.11-0.11,0.15-0.19,0.15-0.34c0-0.15-0.04-0.26-0.15-0.34
				C621.81,101.97,621.78,101.93,621.66,101.93z"/>
			<path class="st3" d="M623.86,101.93c-0.19-0.11-0.41-0.04-0.56,0.11c-0.04,0.04-0.11,0.11-0.11,0.15s-0.04,0.15-0.04,0.19
				c0,0.15,0.04,0.26,0.15,0.34c0.11,0.11,0.26,0.15,0.37,0.15c0.04,0,0.15,0,0.19-0.04c0.04,0,0.11-0.04,0.15-0.11
				c0.11-0.11,0.15-0.19,0.15-0.34c0-0.15-0.04-0.26-0.15-0.34C623.94,101.97,623.9,101.93,623.86,101.93z"/>
		</g>
	</g>
	<g>
		<text transform="matrix(1 0 0 1 203.6797 183.9589)" class="st3 st1 st2">Input ADT </text>
		<text transform="matrix(1 0 0 1 203.6797 215.0077)" class="st3 st1 st2">  FASTQ</text>
		<g>
			<path class="st3" d="M297.11,118.94h-2.46V95.19c0-0.34-0.15-0.67-0.41-0.89l-18.91-18.54c-0.22-0.22-0.56-0.37-0.89-0.37h-32.43
				c-4.1,0-7.45,3.46-7.45,7.71v35.85h-2.46c-0.71,0-1.3,0.48-1.3,1.19v21.26c0,0.71,0.6,1.19,1.3,1.19h2.46v4.39
				c0,4.24,3.39,7.71,7.45,7.71h45.2c4.1,0,7.45-3.46,7.45-7.71v-4.43h2.46c0.71,0,1.3-0.48,1.3-1.19V120.1
				C298.41,119.43,297.82,118.94,297.11,118.94L297.11,118.94z M275.59,79.59l14.74,14.33h-11.84c-0.78,0-1.53-0.34-2.05-0.89
				c-0.56-0.56-0.86-1.3-0.82-2.08V79.59H275.59z M237.06,83.06c0-2.87,2.23-5.21,4.95-5.21h31.09v13.07c0,1.45,0.56,2.83,1.56,3.87
				c1.01,1.04,2.38,1.6,3.83,1.64h13.63v22.49h-55.06V83.06z M292.12,146.94c0,2.87-2.23,5.21-4.95,5.21h-45.16
				c-2.68,0-4.95-2.35-4.95-5.21v-4.39h55.06C292.12,142.55,292.12,146.94,292.12,146.94z M295.92,140.02H233.3v-18.58h62.62V140.02
				z"/>
			<text transform="matrix(1 0 0 1 240.0938 136.58)" class="st3 st1 st4">FASTQ</text>
		</g>
	</g>
	<g>
		<text transform="matrix(1 0 0 1 34.9238 183.9589)" class="st3 st1 st2">Input RNA </text>
		<text transform="matrix(1 0 0 1 34.9238 215.0058)" class="st3 st1 st2">  FASTQ</text>
		<g>
			<path class="st3" d="M130.03,118.94h-2.46V95.19c0-0.34-0.15-0.67-0.41-0.89l-18.91-18.54c-0.22-0.22-0.56-0.37-0.89-0.37H74.93
				c-4.1,0-7.45,3.46-7.45,7.71v35.85h-2.49c-0.71,0-1.3,0.48-1.3,1.19v21.26c0,0.71,0.6,1.19,1.3,1.19h2.46v4.39
				c0,4.24,3.39,7.71,7.45,7.71h45.2c4.1,0,7.45-3.46,7.45-7.71v-4.43h2.46c0.71,0,1.3-0.48,1.3-1.19V120.1
				C131.33,119.43,130.73,118.94,130.03,118.94L130.03,118.94z M108.51,79.59l14.74,14.33h-11.84c-0.78,0-1.53-0.34-2.05-0.89
				c-0.56-0.56-0.86-1.3-0.82-2.08L108.51,79.59z M69.98,83.09c0-2.87,2.23-5.21,4.95-5.21h31.09v13.07c0,1.45,0.56,2.83,1.56,3.87
				c1.01,1.04,2.38,1.6,3.83,1.64h13.63v22.49H69.98V83.09z M125.04,146.94c0,2.87-2.23,5.21-4.95,5.21H74.93
				c-2.68,0-4.95-2.35-4.95-5.21v-4.39h55.06C125.04,142.55,125.04,146.94,125.04,146.94z M128.84,140.02H66.22v-18.58h62.62V140.02
				z"/>
			<text transform="matrix(1 0 0 1 73.0137 136.5839)" class="st3 st1 st4">FASTQ</text>
		</g>
	</g>
	<g>
		<text transform="matrix(1 0 0 1 185.4648 371.8906)" class="st3 st1 st2">Barcodes File</text>
		<g>
			<path class="st3" d="M297.11,302.14h-2.46v-23.75c0-0.34-0.15-0.67-0.41-0.89l-18.91-18.54c-0.22-0.22-0.56-0.37-0.89-0.37
				h-32.43c-4.1,0-7.45,3.46-7.45,7.71v35.85h-2.46c-0.71,0-1.3,0.48-1.3,1.19v21.26c0,0.71,0.6,1.19,1.3,1.19h2.46v4.39
				c0,4.24,3.39,7.71,7.45,7.71h45.2c4.1,0,7.45-3.46,7.45-7.71v-4.39h2.46c0.71,0,1.3-0.48,1.3-1.19v-21.26
				C298.41,302.63,297.82,302.14,297.11,302.14L297.11,302.14z M275.59,262.79l14.74,14.33h-11.84c-0.78,0-1.53-0.34-2.05-0.89
				c-0.56-0.56-0.86-1.3-0.82-2.08v-11.35H275.59z M237.06,266.29c0-2.87,2.23-5.21,4.95-5.21h31.09v13.07
				c0,1.45,0.56,2.83,1.56,3.87s2.38,1.6,3.83,1.64h13.63v22.49h-55.06V266.29z M292.12,330.18c0,2.87-2.23,5.21-4.95,5.21h-45.16
				c-2.68,0-4.95-2.35-4.95-5.21v-4.39h55.06C292.12,325.78,292.12,330.18,292.12,330.18z M295.92,323.25H233.3v-18.58h62.62V323.25
				z"/>
			<text transform="matrix(1 0 0 1 249.8906 319.7929)" class="st3 st1 st4">TSV</text>
			<path class="st3" d="M238.58,282.41h0.82v21.52h-0.82V282.41z"/>
			<path class="st3" d="M240.26,282.41h1.68v21.52h-1.68V282.41z"/>
			<path class="st3" d="M243.57,282.41h0.82v21.52h-0.82V282.41z"/>
			<path class="st3" d="M246.07,282.41h0.82v21.52h-0.82V282.41z"/>
			<path class="st3" d="M247.74,282.41h0.82v21.52h-0.82V282.41z"/>
			<path class="st3" d="M249.38,282.41h0.82v21.52h-0.82V282.41z"/>
			<path class="st3" d="M251.88,282.41h1.68v21.52h-1.68V282.41z"/>
			<path class="st3" d="M255.19,282.41h0.82v21.52h-0.82V282.41z"/>
			<path class="st3" d="M256.86,282.41h0.82v21.52h-0.82V282.41z"/>
			<path class="st3" d="M259.36,282.41h0.82v21.52h-0.82V282.41z"/>
			<path class="st3" d="M261.85,282.41h0.82v21.52h-0.82V282.41z"/>
			<path class="st3" d="M263.53,282.41h1.68v21.52h-1.68V282.41z"/>
			<path class="st3" d="M266.02,282.41h0.82v21.52h-0.82V282.41z"/>
			<path class="st3" d="M268.52,282.41h0.82v21.52h-0.82V282.41z"/>
			<path class="st3" d="M270.97,282.41h0.82v21.52h-0.82V282.41z"/>
			<path class="st3" d="M272.65,282.41h1.68v21.52h-1.68V282.41z"/>
			<path class="st3" d="M275.14,282.41h0.82v21.52h-0.82V282.41z"/>
			<path class="st3" d="M277.64,282.41h0.82v21.52h-0.82V282.41z"/>
			<path class="st3" d="M280.13,282.41h0.82v21.52h-0.82V282.41z"/>
			<path class="st3" d="M281.81,282.41h1.68v21.52h-1.68V282.41z"/>
		</g>
	</g>
	<text transform="matrix(1 0 0 1 1151.5352 287.7773)" class="st3 st1 st2">Filter empty </text>
	<text transform="matrix(1 0 0 1 1166.8398 309.1913)" class="st3 st1 st2">droplets</text>
	<g>
		<path class="st3" d="M1228.49,203.42h-4.39v-4.39h-2.2v4.39h-37.38v-4.39h-2.2v4.39h-4.39c-0.89,0-1.71,0.34-2.35,0.97
			c-0.6,0.63-0.97,1.45-0.97,2.35v2.2c0,0.78,0.26,1.53,0.78,2.12s1.23,1.01,1.97,1.12l20.33,21.37v14.93
			c0,0.37,0.19,0.74,0.52,0.93c0.3,0.19,0.71,0.22,1.08,0.04l8.79-4.39c0.19-0.07,0.33-0.22,0.45-0.41s0.15-0.37,0.15-0.6V233.5
			l20.33-21.37c0.78-0.11,1.45-0.52,1.97-1.12c0.52-0.6,0.78-1.34,0.78-2.12v-2.2c0-0.86-0.33-1.71-0.97-2.35
			C1230.2,203.75,1229.34,203.42,1228.49,203.42L1228.49,203.42z M1229.6,208.89c0,0.3-0.11,0.56-0.3,0.78
			c-0.22,0.22-0.48,0.34-0.78,0.34h-4.39v2.2h1.82l-19.14,20.1c-0.19,0.19-0.3,0.48-0.3,0.74v10.31l-6.59,3.28v-13.59
			c0-0.3-0.11-0.56-0.3-0.74l-19.14-20.1h41.4V210h-43.97c-0.3,0-0.56-0.11-0.78-0.34c-0.19-0.22-0.33-0.48-0.33-0.78v-2.2
			c0-0.3,0.11-0.56,0.33-0.78c0.19-0.22,0.48-0.34,0.78-0.34h50.56c0.3,0,0.56,0.11,0.78,0.34c0.19,0.22,0.3,0.48,0.3,0.78v2.2
			H1229.6z"/>
		<path class="st3" d="M1203.21,201.22c1.75,0,3.43-0.71,4.65-1.94s1.94-2.9,1.94-4.65s-0.71-3.43-1.94-4.65s-2.9-1.94-4.65-1.94
			s-3.43,0.71-4.65,1.94s-1.94,2.9-1.94,4.65s0.71,3.43,1.94,4.65C1199.78,200.51,1201.46,201.22,1203.21,201.22z M1203.21,190.24
			c1.15,0,2.27,0.45,3.13,1.3c0.82,0.82,1.3,1.94,1.3,3.09s-0.45,2.27-1.3,3.09c-0.82,0.82-1.94,1.3-3.13,1.3
			c-1.15,0-2.27-0.45-3.13-1.3c-0.82-0.82-1.3-1.94-1.3-3.09s0.45-2.27,1.3-3.09C1200.94,190.68,1202.06,190.24,1203.21,190.24z"/>
		<path class="st3" d="M1192.23,192.43h2.2v8.79h-2.2V192.43z"/>
		<path class="st3" d="M1212,192.43h2.2v8.79h-2.2V192.43z"/>
		<path class="st3" d="M1212,183.65h2.2v4.39h-2.2V183.65z"/>
		<path class="st3" d="M1192.23,183.65h2.2v4.39h-2.2V183.65z"/>
		<path class="st3" d="M1223.13,195.56c1.75,0,3.43-0.71,4.65-1.94s1.94-2.9,1.94-4.65s-0.71-3.43-1.94-4.65s-2.9-1.94-4.65-1.94
			s-3.43,0.71-4.65,1.94s-1.94,2.9-1.94,4.65s0.71,3.43,1.94,4.65C1219.7,194.85,1221.38,195.56,1223.13,195.56z"/>
		<path class="st3" d="M1182.25,196.53c1.75,0,3.43-0.71,4.65-1.94c1.23-1.23,1.94-2.9,1.94-4.65c0-1.75-0.71-3.43-1.94-4.65
			c-1.23-1.23-2.9-1.94-4.65-1.94s-3.43,0.71-4.65,1.94c-1.23,1.23-1.94,2.9-1.94,4.65c0,1.75,0.71,3.43,1.94,4.65
			C1178.83,195.82,1180.46,196.53,1182.25,196.53z M1182.25,185.55c1.15,0,2.27,0.45,3.13,1.3c0.82,0.82,1.3,1.94,1.3,3.09
			c0,1.15-0.45,2.27-1.3,3.09c-0.82,0.82-1.94,1.3-3.13,1.3c-1.15,0-2.27-0.45-3.13-1.3c-0.82-0.82-1.3-1.94-1.3-3.09
			c0-1.15,0.45-2.27,1.3-3.09C1179.94,185.99,1181.06,185.55,1182.25,185.55z"/>
		<path class="st3" d="M1182.25,181.3c1.75,0,3.43-0.71,4.65-1.94s1.94-2.9,1.94-4.65s-0.71-3.43-1.94-4.65s-2.9-1.94-4.65-1.94
			s-3.43,0.71-4.65,1.94s-1.94,2.9-1.94,4.65s0.71,3.43,1.94,4.65C1178.83,180.63,1180.46,181.3,1182.25,181.3z"/>
		<path class="st3" d="M1223.13,179.4c1.75,0,3.43-0.71,4.65-1.94s1.94-2.9,1.94-4.65s-0.71-3.43-1.94-4.65s-2.9-1.94-4.65-1.94
			s-3.43,0.71-4.65,1.94s-1.94,2.9-1.94,4.65s0.71,3.43,1.94,4.65S1221.38,179.4,1223.13,179.4z M1223.13,168.42
			c1.19,0,2.27,0.45,3.13,1.3c0.82,0.82,1.3,1.94,1.3,3.09s-0.48,2.27-1.3,3.09c-0.82,0.82-1.94,1.3-3.13,1.3
			c-1.15,0-2.27-0.45-3.13-1.3c-0.82-0.82-1.3-1.94-1.3-3.09s0.45-2.27,1.3-3.09C1220.82,168.9,1221.94,168.42,1223.13,168.42z"/>
		<path class="st3" d="M1203.14,168.01c1.75,0,3.43-0.71,4.65-1.94c1.23-1.23,1.94-2.9,1.94-4.65c0-1.75-0.71-3.43-1.94-4.65
			c-1.23-1.23-2.9-1.94-4.65-1.94c-1.75,0-3.43,0.71-4.65,1.94c-1.23,1.23-1.94,2.9-1.94,4.65c0,1.75,0.71,3.43,1.94,4.65
			C1199.71,167.34,1201.39,168.01,1203.14,168.01z M1203.14,157.03c1.19,0,2.27,0.45,3.13,1.3c0.82,0.82,1.3,1.94,1.3,3.09
			c0,1.15-0.45,2.27-1.3,3.09c-0.82,0.82-1.94,1.3-3.13,1.3c-1.15,0-2.27-0.45-3.13-1.3c-0.82-0.82-1.3-1.94-1.3-3.09
			c0-1.15,0.45-2.27,1.3-3.09C1200.86,157.51,1201.98,157.03,1203.14,157.03z"/>
		<path class="st3" d="M1203.14,184.17c1.75,0,3.43-0.71,4.65-1.94c1.23-1.23,1.94-2.9,1.94-4.65s-0.71-3.43-1.94-4.65
			c-1.23-1.23-2.9-1.94-4.65-1.94c-1.75,0-3.43,0.71-4.65,1.94c-1.23,1.23-1.94,2.9-1.94,4.65s0.71,3.43,1.94,4.65
			S1201.39,184.17,1203.14,184.17z"/>
	</g>
	<path class="st10" d="M561.32,216.11l-10.2-5.88v11.76L561.32,216.11z M386.98,129.41h1.01v-1.01h-1.01V129.41z M386.98,318.56
		v1.01h1.01v-1.01H386.98z M386.98,217.12h165.18v-2.05H386.98V217.12z M387.98,216.11v-86.7h-2.05v86.67h2.05V216.11z
		 M386.98,128.4h-82.09v2.05h82.09V128.4z M385.93,216.11V318.6h2.05V216.11H385.93z M386.98,317.56h-82.09v2.05h82.09V317.56z"/>
	<path class="st10" d="M1148.67,216.52l-10.16-5.92l-0.04,11.76L1148.67,216.52z M996.7,217.04l142.77,0.48v-2.05l-142.73-0.48
		L996.7,217.04z"/>
	<path class="st10" d="M1414.78,217.04l-10.2-5.88v11.76L1414.78,217.04z M1257.75,218.08h147.83v-2.05h-147.83V218.08z"/>
	<path class="st10" d="M1677.87,216.04l-10.2-5.88v11.76L1677.87,216.04z M1538.15,217.04h130.52v-2.05h-130.52V217.04z"/>
	<path class="st10" d="M2040.89,217.04l-10.2-5.88v11.76L2040.89,217.04z M1901.17,218.08h130.52v-2.05h-130.52V218.08z"/>
	<text transform="matrix(1 0 0 1 419.0449 210.5409)" class="st0 st1 st2">alevin-fry</text>
	<text transform="matrix(1 0 0 1 428.7246 199.4491)" class="st3 st1 st2"> </text>
	<text transform="matrix(1 0 0 1 1501.7754 311.2304)" class="st0 st1 st2">miQC</text>
	<text transform="matrix(1 0 0 1 1363.0625 287.7753)" class="st3 st1 st2">Remove low quality </text>
	<text transform="matrix(1 0 0 1 1373.7988 309.1894)" class="st3 st1 st2">cells using </text>
	<g>
		<path class="st11" d="M1448.77,185.55h-10.13c-1.19,0-2.31,0.48-3.16,1.3c-0.86,0.86-1.3,1.97-1.3,3.16
			c0,9.23,3.24,37.79,3.24,47.58c0,3.16,2.72,5.81,6.14,5.81h29.67c3.43,0,6.14-2.64,6.14-5.81c0-8.3,2.31-30.08,3.05-42.18
			l11.69,43.56c0.3,1.15,1.04,2.12,2.05,2.68c1.01,0.56,2.23,0.74,3.35,0.45l0,0c1.12-0.3,2.08-1.04,2.68-2.08
			c0.6-1.01,0.74-2.23,0.45-3.35l-3.72-13.92c0.07,0,0.15-0.04,0.22-0.07l0,0c3.28-0.89,5.25-4.24,4.36-7.56l-3.16-11.84
			c-0.89-3.28-4.24-5.25-7.56-4.36l-0.22,0.07l-3.72-13.92c-0.3-1.15-1.04-2.12-2.08-2.68c-1.01-0.6-2.23-0.74-3.35-0.45l0,0
			c-1.15,0.3-2.12,1.04-2.72,2.05c-0.34,0.6-0.52,1.27-0.6,1.94c-0.63-0.3-1.3-0.48-2.01-0.48h-17.2h-1.34c-0.56,0-0.33,0-1.08,0
			s-2.38,0-3.24,0s-2.9,0-4.88,0C1448.43,185.55,1448.77,185.55,1448.77,185.55z M1480.15,190.05c0,9.23-3.24,37.79-3.24,47.58
			c0,1.86-1.68,3.31-3.65,3.31h-29.67c-2.01,0-3.65-1.45-3.65-3.31c0-9.79-3.24-38.35-3.24-47.58c0-0.52,0.19-1.04,0.6-1.41
			c0.37-0.37,0.89-0.6,1.41-0.6h39.5c0.52,0,1.04,0.22,1.41,0.6C1479.93,189.01,1480.15,189.53,1480.15,190.05z M1486.48,185.84
			l13.81,51.56c0.15,0.48,0.07,1.04-0.19,1.49c-0.26,0.45-0.67,0.78-1.19,0.89l0,0c-0.48,0.15-1.04,0.07-1.49-0.19
			c-0.45-0.26-0.78-0.67-0.89-1.19l-13.81-51.56c-0.15-0.48-0.07-1.04,0.19-1.49c0.26-0.45,0.67-0.78,1.19-0.89l0,0
			c0.48-0.15,1.04-0.07,1.49,0.19C1486,184.91,1486.33,185.32,1486.48,185.84z M1498.32,220.43l-5.06-18.91
			c0.07,0,0.15-0.04,0.19-0.07c1.97-0.52,3.98,0.63,4.5,2.61l3.16,11.84c0.52,1.97-0.63,3.98-2.61,4.5L1498.32,220.43z"/>
		<path class="st11" d="M1469.36,171.55c0.34-0.6,0.15-1.34-0.45-1.71l-5.06-2.94c-0.6-0.34-1.34-0.15-1.71,0.45l-2.94,5.06
			c-0.34,0.6-0.15,1.38,0.45,1.71l5.06,2.94c0.6,0.34,1.34,0.15,1.71-0.45L1469.36,171.55z M1466.6,171.36l-1.68,2.9l-2.9-1.68
			l1.68-2.9L1466.6,171.36z"/>
		<path class="st11" d="M1460.05,179.63c0.19-0.6-0.11-1.23-0.67-1.41l-4.91-1.71c-0.56-0.19-1.19,0.11-1.41,0.67l-1.71,4.91
			c-0.19,0.56,0.11,1.23,0.67,1.41l4.91,1.71c0.6,0.19,1.23-0.11,1.41-0.67L1460.05,179.63z M1457.59,179.92l-1.01,2.83l-2.83-1.01
			l1.01-2.83L1457.59,179.92z"/>
		<path class="st11" d="M1461.54,162.02c0.48-0.48,0.48-1.27,0-1.75l-5.06-5.06c-0.48-0.48-1.27-0.48-1.75,0l-5.06,5.06
			c-0.48,0.48-0.48,1.27,0,1.75l5.06,5.06c0.48,0.48,1.3,0.48,1.75,0L1461.54,162.02z M1458.89,161.16l-3.28,3.28l-3.28-3.28
			l3.28-3.28L1458.89,161.16z"/>
		<path class="st3" d="M1459.04,203.15c-7.37,0-13.36,5.99-13.36,13.37c0,7.37,5.99,13.36,13.36,13.36
			c7.37,0,13.36-5.99,13.36-13.36C1472.41,209.15,1466.45,203.15,1459.04,203.15z M1459.04,227.2c-5.92,0-10.68-4.8-10.68-10.68
			c0-5.92,4.8-10.68,10.68-10.68c5.92,0,10.68,4.8,10.68,10.68C1469.73,222.44,1464.96,227.2,1459.04,227.2z"/>
		<path class="st3" d="M1462.69,212.91c-0.52-0.52-1.38-0.52-1.9,0l-1.71,1.71l-1.75-1.71c-0.52-0.52-1.38-0.52-1.9,0
			s-0.52,1.38,0,1.9l1.71,1.71l-1.71,1.71c-0.52,0.52-0.52,1.38,0,1.9s1.38,0.52,1.9,0l1.75-1.71l1.71,1.71
			c0.52,0.52,1.38,0.52,1.9,0c0.52-0.52,0.52-1.38,0-1.9l-1.75-1.71l1.75-1.71C1463.18,214.29,1463.18,213.43,1462.69,212.91z"/>
	</g>
	<text transform="matrix(1 0 0 1 1621.5195 284.0781)" class="st3 st1 st2">RNA and ADT normalization and </text>
	<text transform="matrix(1 0 0 1 1615.2207 305.4921)" class="st3 st1 st2">dimensionality reduction with PCA </text>
	<text transform="matrix(1 0 0 1 1709.166 326.9062)" class="st3 st1 st2">and UMAP</text>
	<g>
		<path class="st3" d="M1858.8,242.54c-22.9,0-40.36-5.92-53.31-18.13c-11.06-10.39-16.83-23.57-21.52-34.1
			c-4.99-11.35-8.64-19.62-15.86-19.62c-7.3,0-11.76,8.79-17.35,19.88c-5.32,10.54-11.91,23.64-23.42,33.95
			c-13.51,12.1-30.97,18.02-53.35,18.02v-2.64c48.88,0,63.59-29.15,74.35-50.48c6.03-11.91,10.8-21.33,19.84-21.33
			c9.01,0,13.18,9.34,18.35,21.22c9.42,21.37,22.3,50.63,72.33,50.63L1858.8,242.54L1858.8,242.54z"/>
		<path class="st3" d="M1673.78,243.36h185.06v1.56h-185.06V243.36z"/>
		<path class="st3" d="M1803.67,233.57v-8.3h-6.48v-7.26h-6.48v-11.88h-6.48V194h-6.48v-11.02h-6.48v-5.81h-8.04v5.77h-6.74v10.98
			h-6.55v12.17h-6.48v11.88h-6.48v7.26h-6.48v8.3H1724v8.86h86.22v-8.86h-6.55V233.57z M1730.48,240.87h-4.91v-5.73h4.91V240.87z
			 M1732.08,240.87v-14.07h4.91v14.07H1732.08z M1738.55,240.87v-21.33h4.91v21.33H1738.55z M1749.95,240.87h-4.91v-33.21h4.91
			V240.87z M1751.51,240.87v-45.34h4.91v45.38h-4.91V240.87z M1762.94,240.87h-4.91V184.5h4.91V240.87z M1764.76,240.87v-62.13h4.91
			v62.13H1764.76z M1771.24,240.87V184.5h4.91v56.36H1771.24z M1782.63,240.87h-4.91v-45.34h4.91V240.87z M1784.2,240.87v-33.21
			h4.91v33.21H1784.2z M1790.67,240.87v-21.33h4.91v21.33H1790.67z M1802.1,240.87h-4.91v-14.07h4.91V240.87z M1808.62,240.87h-4.91
			v-5.73h4.91V240.87z"/>
	</g>
	<path class="st10" d="M940.64,369.49h-1.01v1.01h1.01V369.49z M1239.92,369.49h1.01v-1.01h-1.01V369.49z M1239.92,423.55l5.88-10.2
		h-11.76L1239.92,423.55z M939.63,323.59v45.9h2.05v-45.9H939.63z M940.64,370.5h299.28v-2.05H940.64V370.5z M1238.91,369.49v44.86
		h2.05v-44.86H1238.91z"/>
	<path class="st10" d="M1210.36,351.14h-1.01v1.01h1.01V351.14z M1392.37,351.14h1.01v-1.01h-1.01V351.14z M1392.37,421.98
		l5.88-10.2h-11.76L1392.37,421.98z M1209.32,320.01v31.09h2.05v-31.09H1209.32z M1210.36,352.14h182.01v-2.05h-182.01V352.14z
		 M1391.32,351.14v61.69h2.05v-61.69H1391.32z"/>
	<path class="st10" d="M1541.24,371.54v-1.01h-1.01v1.01H1541.24z M1541.24,420.98l5.88-10.2h-11.76L1541.24,420.98z
		 M1859.88,371.54h1.01v-1.01h-1.01V371.54z M1859.88,420.98l5.88-10.2H1854L1859.88,420.98z M1772.17,339.41v32.13h2.05v-32.13
		H1772.17z M1540.2,371.54v40.28h2.05v-40.28H1540.2z M1773.21,370.5h-67.31v2.05h67.31V370.5z M1705.9,370.5h-164.66v2.05h164.66
		V370.5z M1773.21,372.54h86.67v-2.05h-86.67V372.54z M1858.84,371.54v40.28h2.05v-40.28H1858.84z"/>
	<text transform="matrix(1 0 0 1 2033.1309 287.7753)" class="st3 st1 st2">Cell type annotation</text>
	<g>
		<path class="st3" d="M2118.73,208.25c-0.3-0.45-0.82-0.74-1.38-0.74h-12.62c-2.31,0-4.47,1.19-5.62,3.09l-4.88,8.04
			c-1.15,1.9-1.15,4.28,0,6.18l4.88,8.04c1.15,1.9,3.31,3.09,5.62,3.09h12.62c0.56,0,1.08-0.3,1.38-0.74l7.93-12.69
			c0.3-0.48,0.3-1.08,0-1.56L2118.73,208.25z M2116.46,232.86h-11.69c-1.15,0-2.27-0.6-2.87-1.56l-4.84-8.04
			c-0.6-0.97-0.6-2.16,0-3.13l4.84-8.04c0.6-0.97,1.68-1.56,2.87-1.56h11.69l7,11.17L2116.46,232.86z"/>
		<path class="st3" d="M2166.49,198.69l-10.01-15.86l3.31-6.14c0.41-0.74,0.07-1.68-0.71-2.05c-0.78-0.37-1.75-0.07-2.16,0.67
			l-3.28,6.11l-21.37,0.97l-5.21-5.84c-0.56-0.63-1.56-0.71-2.27-0.19c-0.67,0.56-0.74,1.53-0.19,2.16l5.03,5.62l-8.71,15.64
			c-0.3,0.56-0.52,1.19-0.67,1.82c-0.63-0.19-1.3-0.3-2.01-0.3h-19.32l-3.8-4.88c-0.52-0.67-1.53-0.82-2.23-0.3
			s-0.86,1.45-0.34,2.12l3.69,4.69l-9.53,15.71c-1.15,1.9-1.15,4.28,0,6.18l9.53,15.71l-3.69,4.69c-0.52,0.67-0.37,1.64,0.34,2.12
			c0.71,0.52,1.71,0.37,2.23-0.3l3.8-4.88h21.15l2.72,4.73c0.45,0.74,1.41,1.01,2.16,0.6c0.78-0.41,1.04-1.34,0.63-2.08l-2.75-4.73
			l9.87-15.75c0.41-0.63,0.67-1.34,0.82-2.05c0.71,0.22,1.49,0.34,2.27,0.3l19.14-0.6l4.77,6.18c0.52,0.67,1.53,0.82,2.23,0.34
			c0.71-0.48,0.86-1.45,0.33-2.12l-4.65-6.07l9.01-16.08C2167.72,202.89,2167.65,200.55,2166.49,198.69L2166.49,198.69z
			 M2130.01,223.3l-9.87,15.75h-21.07l-9.57-15.78c-0.6-0.97-0.6-2.16,0-3.13l9.57-15.78h19.17c1.15,0,2.23,0.6,2.83,1.53
			l8.94,14.22C2130.64,221.1,2130.64,222.33,2130.01,223.3L2130.01,223.3z M2163.85,203.34l-9.05,16.12l-19.06,0.6
			c-1.19,0.04-2.31-0.56-2.94-1.53l-0.04-0.04l0,0l-8.94-14.22l0,0l0,0c-0.6-0.93-0.6-2.12-0.07-3.09l8.82-15.78l21.18-0.97
			l9.98,15.82C2164.34,201.18,2164.37,202.37,2163.85,203.34L2163.85,203.34z"/>
		<path class="st3" d="M2153.95,190.87c-1.23-1.94-3.46-3.09-5.84-2.98l-9.79,0.45c-2.27,0.11-4.36,1.34-5.44,3.28l-4.47,8.04
			c-1.04,1.9-1.01,4.21,0.15,6.03l5.14,8.34c1.23,2.01,3.5,3.13,5.81,3.05l9.53-0.3c2.31-0.07,4.43-1.34,5.51-3.31l4.65-8.49
			c1.04-1.9,0.97-4.21-0.19-6.07L2153.95,190.87z M2156.37,203.53l-4.65,8.49c-0.56,1.01-1.64,1.64-2.79,1.68l-9.53,0.3
			c-1.19,0.04-2.35-0.56-2.94-1.56l-5.14-8.34c-0.56-0.93-0.6-2.08-0.07-3.05l4.47-8.04c0.56-0.97,1.6-1.6,2.75-1.68l9.79-0.45
			c1.19-0.04,2.35,0.52,2.98,1.53l5.06,8.04C2156.85,201.4,2156.89,202.56,2156.37,203.53L2156.37,203.53z"/>
		<path class="st3" d="M2143.75,193.92c-3.65,0-6.48,2.05-6.48,4.62c0,2.61,2.83,4.62,6.48,4.62c3.65,0,6.48-2.05,6.48-4.62
			C2150.23,195.93,2147.4,193.92,2143.75,193.92z M2143.75,200.1c-2.01,0-3.28-0.93-3.28-1.56s1.3-1.56,3.28-1.56
			c2.01,0,3.28,0.93,3.28,1.56C2147.02,199.17,2145.76,200.1,2143.75,200.1z"/>
		<path class="st3" d="M2109.05,214.25c-3.65,0-6.48,2.05-6.48,4.62c0,2.61,2.83,4.62,6.48,4.62c3.65,0,6.48-2.05,6.48-4.62
			C2115.53,216.26,2112.7,214.25,2109.05,214.25z M2109.05,220.47c-2.01,0-3.28-0.93-3.28-1.6c0-0.63,1.3-1.56,3.28-1.56
			c2.01,0,3.28,0.93,3.28,1.56S2111.06,220.47,2109.05,220.47z"/>
		<path class="st3" d="M2114.86,228.06c0,0.86-0.71,1.53-1.6,1.53c-0.89,0-1.6-0.67-1.6-1.53c0-0.86,0.71-1.53,1.6-1.53
			C2114.15,226.53,2114.86,227.2,2114.86,228.06z"/>
		<path class="st3" d="M2148.77,208.63c0,0.86-0.71,1.53-1.6,1.53c-0.89,0-1.6-0.67-1.6-1.53c0-0.86,0.71-1.53,1.6-1.53
			C2148.03,207.1,2148.77,207.81,2148.77,208.63z"/>
		<path class="st12" d="M2165.27,164.51h-18.35c0,0,0,8.79,0,15.3"/>
		<path class="st12" d="M2167.31,245.07h-24.46c0,0,0-12.73,0-18.39"/>
		<path class="st12" d="M2123.46,191.06H2100c0,0,0-17.35,0-18.39"/>
		<path class="st13" d="M2168.32,157.4h34.66v11.21h-34.66V157.4z"/>
		<path class="st13" d="M2169.36,237.93h32.61v13.25h-32.61V237.93z"/>
		<path class="st13" d="M2083.7,157.4h27.55v11.21h-27.55V157.4z"/>
		<path class="st13" d="M2052.09,231.82h27.55v10.2h-27.55V231.82z"/>
		<path class="st12" d="M2087.76,213.47h-9.9h-12.55v15.3"/>
	</g>
	<path class="st10" d="M2023.02,421.98l5.88-10.2h-11.76L2023.02,421.98z M2023.02,353.18v-1.04h-1.01v1.01h1.01V353.18z
		 M2137.75,353.18v1.01h1.01v-1.01H2137.75z M2022.01,353.18v59.64h2.05v-59.64H2022.01z M2136.71,322.06v31.09h2.05v-31.09H2136.71
		z M2137.75,352.14h-114.7v2.05h114.7V352.14z"/>
	<path class="st10" d="M1120.12,738.09l5.88-10.2h-11.76L1120.12,738.09z M1120.12,679.98v-1.01h-1.01v1.01H1120.12z
		 M1663.09,679.98h1.01v-1.01h-1.01V679.98z M1663.09,732.51l5.88-10.2h-11.76L1663.09,732.51z M1399.48,596.36v83.61h2.05v-83.61
		H1399.48z M1400.52,678.97h-280.4v2.05h280.4V678.97z M1119.07,679.98v48.96h2.05v-48.96H1119.07z M1400.52,680.98h262.57v-2.05
		h-262.57V680.98z M1663.09,679.98c-1.01,0-1.01,0-1.01,0l0,0l0,0l0,0l0,0l0,0l0,0l0,0l0,0l0,0l0,0l0,0l0,0l0,0l0,0l0,0l0,0l0,0l0,0
		l0,0l0,0l0,0l0,0l0,0c0,0.04,0,0.07,0,0.11l0,0l0,0l0,0l0,0l0,0c0,0,0,0,0,0.04c0,0,0,0,0,0.04c0,0,0,0,0,0.04c0,0,0,0,0,0.04
		c0,0,0,0,0,0.04c0,0,0,0,0,0.04c0,0,0,0,0,0.04c0,0.04,0,0,0,0.04c0,0,0,0,0,0.04c0,0,0,0,0,0.04c0,0,0,0,0,0.04s0,0,0,0.04
		c0,0,0,0,0,0.04c0,0,0,0,0,0.04c0,0,0,0,0,0.04c0,0,0,0,0,0.04s0,0,0,0.04c0,0,0,0,0,0.04c0,0,0,0,0,0.04v0.04c0,0,0,0,0,0.04v0.04
		v0.04v0.04v0.04v0.04v0.04v0.04v0.04v0.04v0.04v0.04v0.04v0.04v0.04v0.04v0.04v0.04v0.04v0.04v0.04v0.04v0.04c0,0.26,0,0.37,0,0.67
		v0.04v0.04v0.04v0.04v0.04v0.04v0.04v0.04v0.04v0.04v0.04v0.04v0.04v0.04v0.04v0.04v0.04v0.04v0.04v0.04v0.04v0.04
		c0,0,0,0.04,0,0.07c0,0.04,0,0.04,0,0.07c0,0,0,0.04,0,0.07c0,0,0,0.04,0,0.07c0,0.04,0,0.04,0,0.07c0,0.04,0,0.04,0,0.07
		c0,0.04,0,0.04,0,0.07c0,0.04,0,0.04,0,0.07s0,0.04,0,0.07c0,0.04,0,0.04,0,0.07c0,2.53,0,6.07,0,10.27c0,8.38,0,19.21,0,29.04
		h2.05c0-9.87,0-20.62,0-29.04c0-0.04,0-0.07,0-0.11c0-0.04,0-0.07,0-0.11c0-0.04,0-0.07,0-0.11s0-0.07,0-0.11c0-0.04,0-0.07,0-0.11
		c0-0.04,0-0.07,0-0.11c0-0.04,0-0.07,0-0.11s0-0.07,0-0.11c0-0.04,0-0.07,0-0.11c0-0.04,0-0.07,0-0.11c0-0.04,0-0.07,0-0.11
		c0-0.04,0-0.07,0-0.11s0-0.07,0-0.11c0-0.04,0-0.07,0-0.11c0-0.04,0-0.07,0-0.11c0-0.04,0-0.07,0-0.11c0-0.19,0-0.56,0-0.74
		c0-0.04,0-0.07,0-0.07c0-0.04,0-0.07,0-0.07c0-0.04,0-0.07,0-0.07c0-0.04,0-0.07,0-0.07c0-0.04,0-0.07,0-0.07c0-0.04,0-0.07,0-0.07
		c0-0.04,0-0.07,0-0.07c0-0.04,0-0.07,0-0.07c0-0.04,0-0.07,0-0.07c0-0.04,0-0.07,0-0.07v-0.07c0-0.04,0-0.07,0-0.07
		c0-0.04,0-0.07,0-0.07c0-0.04,0-0.07,0-0.07c0-0.04,0-0.07,0-0.07v-0.07c0-0.04,0-0.07,0-0.07c0-0.04,0-0.07,0-0.07
		c0-0.04,0-0.07,0-0.07c0-0.04,0-0.07,0-0.07c0-0.07,0-0.26,0-0.34c0-0.48,0-0.89,0-1.34c0-1.68,0-3.31,0-4.5c0-0.04,0-0.04,0-0.07
		c0-0.04,0-0.04,0-0.07s0-0.04,0-0.07s0-0.04,0-0.07c0-0.04,0-0.04,0-0.07c0,0,0-0.04,0-0.07c0,0,0-0.04,0-0.07s0-0.04,0-0.07
		s0-0.04,0-0.07c0-0.04,0-0.04,0-0.07v-0.04v-0.04v-0.04v-0.04v-0.04v-0.04v-0.04v-0.04v-0.04v-0.04v-0.04v-0.04v-0.04v-0.04v-0.04
		v-0.04v-0.04v-0.04v-0.04v-0.04v-0.04v-0.04v-0.04v-0.04v-0.04v-0.04v-0.04v-0.04v-0.04v-0.04v-0.04v-0.04v-0.04v-0.04v-0.04v-0.04
		v-0.04v-0.04v-0.04v-0.04v-0.04v-0.04v-0.04v-0.04v-0.04v-0.04v-0.04v-0.04v-0.04v-0.04v-0.04v-0.04v-0.04v-0.04v-0.04v-0.04v-0.04
		v-0.04v-0.04v-0.04v-0.04v-0.04c0,0,0,0,0-0.04c0,0,0,0,0-0.04c0,0,0,0,0-0.04c0-0.04,0,0,0-0.04c0,0,0,0,0-0.04c0,0,0,0,0-0.04
		c0,0,0,0,0-0.04c0,0,0,0,0-0.04c0-0.04,0,0,0-0.04c0,0,0,0,0-0.04c0,0,0,0,0-0.04c0,0,0,0,0-0.04s0,0,0-0.04c0,0,0,0,0-0.04
		c0,0,0,0,0-0.04c0,0,0,0,0-0.04c0,0,0,0,0-0.04c0,0,0,0,0-0.04c0,0,0,0,0-0.04l0,0l0,0l0,0l0,0l0,0l0,0l0,0l0,0l0,0l0,0l0,0l0,0
		l0,0l0,0l0,0l0,0l0,0l0,0l0,0l0,0l0,0l0,0l0,0l0,0l0,0l0,0l0,0l0,0l0,0l0,0l0,0l0,0l0,0l0,0l0,0l0,0
		C1664.1,679.98,1664.1,679.98,1663.09,679.98z"/>
	<text transform="matrix(1 0 0 1 1284.0859 654.4765)" class="st0 st1 st2">AnnData</text>
	<text transform="matrix(1 0 0 1 1277.4551 633.0663)" class="st3 st1 st2">Convert to </text>
	<g>
		<g>
			<path class="st3" d="M674.86,294.51h-2.46v-23.75c0-0.34-0.15-0.67-0.41-0.89l-18.91-18.54c-0.22-0.22-0.56-0.37-0.89-0.37
				h-32.43c-4.1,0-7.45,3.46-7.45,7.71v35.85h-2.46c-0.71,0-1.3,0.48-1.3,1.19v21.26c0,0.71,0.6,1.19,1.3,1.19h2.46v4.39
				c0,4.24,3.39,7.71,7.45,7.71h45.2c4.1,0,7.45-3.46,7.45-7.71v-4.39h2.46c0.71,0,1.3-0.48,1.3-1.19V295.7
				C676.17,295,675.57,294.51,674.86,294.51L674.86,294.51z M653.35,255.13l14.74,14.33h-11.84c-0.78,0-1.53-0.34-2.05-0.89
				c-0.56-0.56-0.86-1.3-0.82-2.08v-11.35H653.35z M614.81,258.62c0-2.87,2.23-5.21,4.95-5.21h31.09v13.07
				c0,1.45,0.56,2.83,1.56,3.87s2.38,1.6,3.83,1.64h13.63v22.49h-55.06L614.81,258.62L614.81,258.62z M669.88,322.51
				c0,2.87-2.23,5.21-4.95,5.21h-45.2c-2.68,0-4.95-2.35-4.95-5.21v-4.39h55.06v4.39H669.88z M673.67,315.58h-62.62v-18.58h62.62
				V315.58z"/>
			<text transform="matrix(1 0 0 1 626.0137 313.1562)" class="st3 st1 st4">MTX</text>
			<path class="st3" d="M647.09,263.54h-26.95c-1.01,0-1.75,0.82-1.75,1.75v28.55c0,1.01,0.82,1.75,1.75,1.75h6.11h7.37h13.48
				c1.01,0,1.75-0.82,1.75-1.75v-15.97v-4.32v-8.26C648.88,264.36,648.06,263.54,647.09,263.54L647.09,263.54z M647.87,273.07h-6.37
				v-3.31h6.37V273.07z M647.87,277.39h-6.37v-3.31h6.37V277.39z M647.87,281.67h-6.37v-3.31h6.37V281.67z M647.87,285.99h-6.37
				v-3.31h6.37V285.99z M619.39,282.67h6.37v3.31h-6.37V282.67z M619.39,278.39h6.37v3.31h-6.37V278.39z M619.39,274.07h6.37v3.31
				h-6.37V274.07z M626.77,278.39h6.37v3.31h-6.37V278.39z M634.14,278.39h6.37v3.31h-6.37V278.39z M640.5,277.39h-6.37v-3.31h6.37
				V277.39z M633.13,277.39h-6.37v-3.31h6.37V277.39z M626.77,282.67h6.37v3.31h-6.37V282.67z M634.14,282.67h6.37v3.31h-6.37
				V282.67z M640.5,273.07h-6.37v-3.31h6.37V273.07z M633.13,273.07h-6.37v-3.31h6.37V273.07z M625.76,273.07h-6.37v-3.31h6.37
				V273.07z M619.39,286.99h6.37v3.31h-6.37V286.99z M626.77,286.99h6.37v3.31h-6.37V286.99z M634.14,286.99h6.37v3.31h-6.37V286.99
				z M641.51,286.99h6.37v3.31h-6.37V286.99z M647.87,265.29v3.42h-6.37v-4.17h5.58C647.5,264.54,647.87,264.88,647.87,265.29
				L647.87,265.29z M640.5,268.75h-6.37v-4.21h6.37V268.75z M633.13,268.75h-6.37v-4.21h6.37V268.75z M619.39,265.29
				c0-0.41,0.37-0.74,0.74-0.74h5.58v4.21h-6.37v-3.46H619.39z M619.39,293.88v-2.57h6.37v3.31h-5.58
				C619.77,294.62,619.39,294.25,619.39,293.88L619.39,293.88z M626.77,291.31h6.37v3.31h-6.37V291.31z M634.14,291.31h6.37v3.31
				h-6.37V291.31z M647.87,293.88c0,0.45-0.37,0.74-0.74,0.74h-5.58v-3.31h6.37L647.87,293.88z"/>
			<path class="st3" d="M628.92,267.15h2.01c0.3,0,0.52-0.19,0.52-0.48c0-0.3-0.19-0.48-0.52-0.48h-2.01c-0.3,0-0.52,0.19-0.52,0.48
				C628.4,266.96,628.63,267.15,628.92,267.15z"/>
			<path class="st3" d="M636.3,267.15h2.01c0.3,0,0.52-0.19,0.52-0.48c0-0.3-0.19-0.48-0.52-0.48h-2.01c-0.3,0-0.52,0.19-0.52,0.48
				C635.77,266.96,636,267.15,636.3,267.15z"/>
			<path class="st3" d="M643.67,267.15h2.01c0.3,0,0.52-0.19,0.52-0.48c0-0.3-0.19-0.48-0.52-0.48h-2.01c-0.3,0-0.52,0.19-0.52,0.48
				C643.15,266.96,643.41,267.15,643.67,267.15z"/>
			<path class="st3" d="M621.66,266.18c-0.15-0.11-0.41-0.04-0.52,0.11c-0.04,0.04-0.11,0.11-0.15,0.15v0.19
				c0,0.15,0.04,0.26,0.15,0.34c0,0.04,0.11,0.11,0.15,0.11c0.04,0.04,0.11,0.04,0.19,0.04s0.15,0,0.19-0.04
				c0.04,0,0.11-0.04,0.15-0.11c0.11-0.11,0.15-0.19,0.15-0.34c0-0.15-0.04-0.26-0.15-0.34
				C621.81,266.26,621.78,266.18,621.66,266.18z"/>
			<path class="st3" d="M623.86,266.18c-0.19-0.11-0.41-0.04-0.56,0.11c-0.04,0.04-0.11,0.11-0.11,0.15s-0.04,0.15-0.04,0.19
				c0,0.15,0.04,0.26,0.15,0.34c0.11,0.11,0.26,0.15,0.37,0.15c0.04,0,0.15,0,0.19-0.04c0.04,0,0.11-0.04,0.15-0.11
				c0.11-0.11,0.15-0.19,0.15-0.34s-0.04-0.26-0.15-0.34C623.94,266.26,623.9,266.18,623.86,266.18z"/>
		</g>
		<text transform="matrix(1 0 0 1 581.5352 352.5234)" class="st3 st1 st9">ADT by cell</text>
		<text transform="matrix(1 0 0 1 581.5352 379.3281)" class="st3 st1 st9">count matrix</text>
	</g>
	<g>
		<path class="st10" d="M870.02,216.11l-7.41-5.88v11.76L870.02,216.11z M754.16,217.12h109.19v-2.05H754.16V217.12z M756.25,216.11
			v-86.7h-2.05v86.67h2.05V216.11z M756.25,128.4h-65.52v2.05h65.52V128.4z M754.2,216.11V318.6h2.05V216.11H754.2z M756.25,317.56
			h-65.52v2.05h65.52V317.56z"/>
		<text transform="matrix(1 0 0 1 775.2969 173.1816)" class="st3 st1 st2">Read </text>
		<text transform="matrix(1 0 0 1 775.2969 204.2304)" class="st3 st1 st2">into R</text>
	</g>
</g>
</svg>
