<?xml version="1.0" encoding="utf-8"?>
<!-- Generator: Adobe Illustrator 28.3.0, SVG Export Plug-In . SVG Version: 6.00 Build 0)  -->
<svg version="1.1" id="Layer_1" xmlns="http://www.w3.org/2000/svg" xmlns:xlink="http://www.w3.org/1999/xlink" x="0px" y="0px"
	 width="2005px" height="797px" viewBox="0 0 2005 797" style="enable-background:new 0 0 2005 797;" xml:space="preserve">
<style type="text/css">
	.st0{font-family:'ArialMT';}
	.st1{font-size:18px;}
	.st2{fill:#266141;}
	.st3{font-size:16px;}
	.st4{fill:none;stroke:#266141;stroke-width:2;}
	.st5{font-family:'Arial-BoldMT';}
	.st6{font-size:20px;}
	.st7{fill-rule:evenodd;clip-rule:evenodd;}
	.st8{fill:#8B8D8C;}
	.st9{fill:#FFFFFF;stroke:#000000;stroke-linejoin:round;}
	.st10{fill:#003595;}
	.st11{font-size:12px;}
	.st12{fill:none;stroke:#000000;stroke-width:2;stroke-linecap:round;stroke-linejoin:round;}
	.st13{fill:none;stroke:#000000;stroke-width:2;}
</style>
<g>
	<text transform="matrix(1 0 0 1 569.425 189.3372)" class="st0 st1">Read into R</text>
	<text transform="matrix(1 0 0 1 653.39 272.74)" class="st2 st0 st1">SingleCellExperiment(SCE)</text>
	<text transform="matrix(1 0 0 1 874.61 272.74)" class="st0 st1"> </text>
	<text transform="matrix(1 0 0 1 739.962 293.74)" class="st0 st1">object</text>
	<path d="M795.4,204.4H793v-23.3c0-0.3-0.2-0.7-0.4-0.9L774,162c-0.2-0.2-0.5-0.4-0.9-0.4h-31.8c-4,0-7.3,3.4-7.3,7.6v35.2h-2.4
		c-0.7,0-1.3,0.5-1.3,1.2v20.8c0,0.7,0.6,1.2,1.3,1.2h2.4v4.3c0,4.2,3.3,7.6,7.3,7.6h44.3c4,0,7.3-3.4,7.3-7.6v-4.3h2.4
		c0.7,0,1.3-0.5,1.3-1.2v-20.8C796.7,204.8,796.1,204.4,795.4,204.4L795.4,204.4z M774.3,165.8l14.4,14.1h-11.6
		c-0.8,0-1.5-0.3-2-0.9c-0.5-0.5-0.8-1.3-0.8-2L774.3,165.8L774.3,165.8z M736.5,169.2c0-2.8,2.2-5.1,4.8-5.1h30.5v12.8
		c0,1.4,0.5,2.8,1.5,3.8s2.4,1.6,3.8,1.6h13.4v22.1h-54V169.2z M790.5,231.8c0,2.8-2.2,5.1-4.8,5.1h-44.3c-2.6,0-4.8-2.3-4.8-5.1
		v-4.3h54v4.3H790.5z M794.2,225h-61.4v-18.2h61.4V225z"/>
	<text transform="matrix(1 0 0 1 749.65 221.889)" class="st0 st3">OBJ</text>
	<path d="M754.1,170.9v-3.3c-0.5,0.1-1.1,0.1-1.6,0.2v2.4l-12.9,12.9h-2.4c-0.1,0.5-0.2,1-0.2,1.6h3.3L754.1,170.9z"/>
	<path d="M749.6,199.7l-1.8,4.9c0.5,0.2,0.9,0.4,1.4,0.6l1.6-4.2l15.5-3.2l4.3,3.1c0.1-0.1,0.8-1.4,0.8-1.4l-5-3.4L749.6,199.7z"/>
	<path d="M769.7,181.2l4.3-2.9c-0.2-0.4-0.5-0.9-0.7-1.3l-0.1-0.1l-5,3.3l-1.7,14.2l5.7,4.1c0.3-0.4,0.6-0.9,0.9-1.3l-4.9-3.5
		L769.7,181.2z"/>
	<path d="M772.5,175.9l-0.4-0.7c-0.2-0.2-0.3-0.4-0.5-0.6l-4.2,2.1l-11-6.6v-2.7c-0.5,0-1.1,0-1.6,0.1v3.5l12.5,7.5L772.5,175.9z"/>
	<path d="M751.7,181.5c-3,0-5.5,2.5-5.5,5.5s2.5,5.5,5.5,5.5s5.5-2.5,5.5-5.5S754.7,181.5,751.7,181.5z M751.7,190.9
		c-2.2,0-3.9-1.8-3.9-3.9c0-2.2,1.8-3.9,3.9-3.9c2.2,0,3.9,1.8,3.9,3.9C755.6,189.2,753.9,190.9,751.7,190.9z"/>
	<path d="M759.2,182.3c1.5,0,2.7-1.2,2.7-2.7s-1.2-2.7-2.7-2.7s-2.7,1.2-2.7,2.7C756.4,181.1,757.7,182.3,759.2,182.3z M759.2,178.4
		c0.6,0,1.2,0.5,1.2,1.2s-0.5,1.2-1.2,1.2s-1.2-0.5-1.2-1.2S758.5,178.4,759.2,178.4z"/>
	<path d="M763.7,188.5l-0.2-0.7l-0.2-0.7c-0.1,0-2.6,0.9-3.3,2.9c-0.4,1.1-0.2,2.4,0.6,3.7l1.3-0.8c-0.5-0.9-0.7-1.7-0.4-2.4
		C761.9,189.2,763.7,188.5,763.7,188.5z"/>
	<path d="M775.2,188.6c0,0.9-0.7,1.6-1.6,1.6c-0.9,0-1.6-0.7-1.6-1.6s0.7-1.6,1.6-1.6S775.2,187.7,775.2,188.6z"/>
	<path d="M760.3,201.9c-2.2,0-3.9,1.8-3.9,3.9c0,0.3,0,0.5,0.1,0.8c0.5,0,1.1,0,1.6-0.1c-0.1-0.2-0.1-0.5-0.1-0.7
		c0-1.3,1.1-2.4,2.4-2.4c1.2,0,2.2,0.9,2.3,2.1c0.5-0.2,1-0.4,1.5-0.6C763.8,203.3,762.2,201.9,760.3,201.9z"/>
	<path d="M738.8,194.1c-0.2,0-0.4,0-0.6,0.1c0.5,1.2,1.1,2.4,1.8,3.4c0.5-0.4,0.8-0.9,0.8-1.6C740.7,194.9,739.9,194.1,738.8,194.1
		L738.8,194.1z"/>
	<path d="M744.5,171.9l1.1,1.1l-4.3,4.3l-1.1-1.1L744.5,171.9z"/>
	<path d="M740.4,185.4h-3.5c0,0.5-0.1,1-0.1,1.6h2.7l7.4,12.6l-1.4,3.7c0.4,0.3,0.9,0.6,1.4,0.8l1.8-4.7L740.4,185.4z"/>
	<rect x="984" y="421" class="st4" width="454" height="165"/>
	<rect x="1598" y="421" class="st4" width="294" height="165"/>
	<text transform="matrix(1 0 0 1 1507.1899 510.434)" class="st2 st5 st6">Reports</text>
	<text transform="matrix(1 0 0 1 1014.45 560.74)" class="st2 st0 st1">SCE</text>
	<text transform="matrix(1 0 0 1 1022.94 539.74)" class="st0 st1">Unfiltered </text>
	<text transform="matrix(1 0 0 1 1051.47 560.74)" class="st0 st1"> Object</text>
	<path d="M1088.6,482.8h-2.1V463c0-0.3-0.1-0.6-0.3-0.7l-15.7-15.4c-0.2-0.2-0.5-0.3-0.8-0.3h-27c-3.4,0-6.2,2.9-6.2,6.4v29.8h-2.1
		c-0.6,0-1.1,0.4-1.1,1v17.7c0,0.6,0.5,1,1.1,1h2.1v3.7c0,3.5,2.8,6.4,6.2,6.4h37.6c3.4,0,6.2-2.9,6.2-6.4v-3.7h2.1
		c0.6,0,1.1-0.4,1.1-1v-17.7C1089.6,483.2,1089.1,482.8,1088.6,482.8L1088.6,482.8z M1070.7,450l12.2,11.9h-9.8
		c-0.6,0-1.3-0.3-1.7-0.7c-0.4-0.5-0.7-1.1-0.7-1.7V450z M1038.6,452.9c0-2.4,1.9-4.3,4.1-4.3h25.9v10.9c0,1.2,0.5,2.4,1.3,3.2
		c0.8,0.9,2,1.3,3.2,1.4h11.3v18.7h-45.8V452.9z M1084.4,506.1c0,2.4-1.9,4.3-4.1,4.3h-37.6c-2.2,0-4.1-1.9-4.1-4.3v-3.7h45.8
		L1084.4,506.1L1084.4,506.1z M1087.5,500.3h-52.1v-15.4h52.1V500.3z"/>
	<text transform="matrix(1 0 0 1 1047.59 498.746)" class="st0 st3">RDS</text>
	<path d="M1053.5,454.4v-2.8c-0.4,0.1-0.9,0.1-1.3,0.2v2.1l-10.9,10.9h-2.1c-0.1,0.4-0.2,0.9-0.2,1.3h2.8L1053.5,454.4z"/>
	<path d="M1049.7,478.8l-1.6,4.2c0.4,0.2,0.8,0.4,1.2,0.5l1.3-3.6l13.2-2.7l3.6,2.7c0.1-0.1,0.7-1.2,0.7-1.2l-4.2-2.9L1049.7,478.8z
		"/>
	<path d="M1066.8,463.1l3.6-2.4c-0.2-0.4-0.4-0.7-0.6-1.1l-0.1-0.1l-4.2,2.8l-1.4,12l4.8,3.5c0.3-0.4,0.5-0.7,0.7-1.1l-4.2-3
		L1066.8,463.1z"/>
	<path d="M1069.1,458.7l-0.3-0.6c-0.1-0.2-0.3-0.4-0.4-0.5l-3.5,1.8l-9.3-5.6v-2.3c-0.4,0-0.9,0-1.3,0.1v3l10.6,6.4L1069.1,458.7z"
		/>
	<path d="M1051.5,463.4c-2.6,0-4.7,2.1-4.7,4.7s2.1,4.7,4.7,4.7s4.7-2.1,4.7-4.7S1054.1,463.4,1051.5,463.4z M1051.5,471.4
		c-1.8,0-3.3-1.5-3.3-3.3s1.5-3.3,3.3-3.3s3.3,1.5,3.3,3.3S1053.3,471.4,1051.5,471.4z"/>
	<path d="M1057.8,464.1c1.3,0,2.3-1,2.3-2.3s-1-2.3-2.3-2.3s-2.3,1-2.3,2.3C1055.5,463,1056.5,464.1,1057.8,464.1z M1057.8,460.7
		c0.6,0,1,0.4,1,1c0,0.5-0.4,1-1,1c-0.5,0-1-0.4-1-1C1056.8,461.2,1057.3,460.7,1057.8,460.7z"/>
	<path d="M1061.7,469.4l-0.2-0.6l-0.2-0.6c-0.1,0-2.2,0.7-2.8,2.5c-0.4,1-0.2,2,0.5,3.1l1.1-0.7c-0.5-0.8-0.6-1.4-0.4-2
		C1060.1,469.9,1061.7,469.4,1061.7,469.4z"/>
	<path d="M1071.5,469.4c0,0.7-0.6,1.3-1.3,1.3c-0.7,0-1.3-0.6-1.3-1.3c0-0.7,0.6-1.3,1.3-1.3S1071.5,468.7,1071.5,469.4z"/>
	<path d="M1058.8,480.7c-1.8,0-3.3,1.5-3.3,3.3c0,0.2,0,0.4,0.1,0.7c0.5,0,0.9,0,1.4-0.1c-0.1-0.2-0.1-0.4-0.1-0.6c0-1.1,0.9-2,2-2
		c1,0,1.9,0.8,2,1.8c0.4-0.1,0.9-0.3,1.3-0.5C1061.8,481.8,1060.4,480.7,1058.8,480.7z"/>
	<path d="M1040.5,474c-0.2,0-0.3,0-0.5,0.1c0.4,1,0.9,2,1.5,2.9c0.4-0.3,0.7-0.8,0.7-1.3C1042.2,474.8,1041.4,474,1040.5,474
		L1040.5,474z"/>
	<path d="M1045.4,455.3l0.9,0.9l-3.7,3.7l-0.9-0.9L1045.4,455.3z"/>
	<path d="M1041.9,466.7h-3c0,0.4-0.1,0.9-0.1,1.3h2.3l6.3,10.7l-1.2,3.1c0.4,0.3,0.8,0.5,1.2,0.7l1.5-4L1041.9,466.7z"/>
	<text transform="matrix(1 0 0 1 1160.95 563.74)" class="st2 st0 st1">SCE</text>
	<text transform="matrix(1 0 0 1 1177.96 542.74)" class="st0 st1">Filtered </text>
	<text transform="matrix(1 0 0 1 1197.97 563.74)" class="st0 st1"> Object</text>
	<path d="M1238.6,483.8h-2.1V464c0-0.3-0.1-0.6-0.3-0.7l-15.7-15.4c-0.2-0.2-0.5-0.3-0.8-0.3h-27c-3.4,0-6.2,2.9-6.2,6.4v29.8h-2.1
		c-0.6,0-1.1,0.4-1.1,1v17.7c0,0.6,0.5,1,1.1,1h2.1v3.7c0,3.5,2.8,6.4,6.2,6.4h37.6c3.4,0,6.2-2.9,6.2-6.4v-3.7h2.1
		c0.6,0,1.1-0.4,1.1-1v-17.7C1239.6,484.2,1239.1,483.8,1238.6,483.8L1238.6,483.8z M1220.7,451l12.2,11.9h-9.8
		c-0.6,0-1.3-0.3-1.7-0.7c-0.4-0.5-0.7-1.1-0.7-1.7V451z M1188.6,453.9c0-2.4,1.9-4.3,4.1-4.3h25.9v10.9c0,1.2,0.5,2.4,1.3,3.2
		c0.8,0.9,2,1.3,3.2,1.4h11.3v18.7h-45.8V453.9z M1234.4,507.1c0,2.4-1.9,4.3-4.1,4.3h-37.6c-2.2,0-4.1-1.9-4.1-4.3v-3.7h45.8
		L1234.4,507.1L1234.4,507.1z M1237.5,501.3h-52.1v-15.4h52.1V501.3z"/>
	<text transform="matrix(1 0 0 1 1197.59 499.746)" class="st0 st3">RDS</text>
	<path d="M1203.5,455.4v-2.8c-0.4,0.1-0.9,0.1-1.3,0.2v2.1l-10.9,10.9h-2.1c-0.1,0.4-0.2,0.9-0.2,1.3h2.8L1203.5,455.4z"/>
	<path d="M1199.7,479.8l-1.6,4.2c0.4,0.2,0.8,0.4,1.2,0.5l1.3-3.6l13.2-2.7l3.6,2.7c0.1-0.1,0.7-1.2,0.7-1.2l-4.2-2.9L1199.7,479.8z
		"/>
	<path d="M1216.8,464.1l3.6-2.4c-0.2-0.4-0.4-0.7-0.6-1.1l-0.1-0.1l-4.2,2.8l-1.4,12l4.8,3.5c0.3-0.4,0.5-0.7,0.7-1.1l-4.2-3
		L1216.8,464.1z"/>
	<path d="M1219.1,459.7l-0.3-0.6c-0.1-0.2-0.3-0.4-0.4-0.5l-3.5,1.8l-9.3-5.6v-2.3c-0.4,0-0.9,0-1.3,0.1v3l10.6,6.4L1219.1,459.7z"
		/>
	<path d="M1201.5,464.4c-2.6,0-4.7,2.1-4.7,4.7s2.1,4.7,4.7,4.7s4.7-2.1,4.7-4.7S1204.1,464.4,1201.5,464.4z M1201.5,472.4
		c-1.8,0-3.3-1.5-3.3-3.3s1.5-3.3,3.3-3.3s3.3,1.5,3.3,3.3S1203.3,472.4,1201.5,472.4z"/>
	<path d="M1207.8,465.1c1.3,0,2.3-1,2.3-2.3s-1-2.3-2.3-2.3s-2.3,1-2.3,2.3C1205.5,464,1206.5,465.1,1207.8,465.1z M1207.8,461.7
		c0.6,0,1,0.4,1,1c0,0.5-0.4,1-1,1c-0.5,0-1-0.4-1-1C1206.8,462.2,1207.3,461.7,1207.8,461.7z"/>
	<path d="M1211.7,470.4l-0.2-0.6l-0.2-0.6c-0.1,0-2.2,0.7-2.8,2.5c-0.4,1-0.2,2,0.5,3.1l1.1-0.7c-0.5-0.8-0.6-1.4-0.4-2
		C1210.1,470.9,1211.7,470.4,1211.7,470.4z"/>
	<path d="M1221.5,470.4c0,0.7-0.6,1.3-1.3,1.3c-0.7,0-1.3-0.6-1.3-1.3c0-0.7,0.6-1.3,1.3-1.3S1221.5,469.7,1221.5,470.4z"/>
	<path d="M1208.8,481.7c-1.8,0-3.3,1.5-3.3,3.3c0,0.2,0,0.4,0.1,0.7c0.5,0,0.9,0,1.4-0.1c-0.1-0.2-0.1-0.4-0.1-0.6c0-1.1,0.9-2,2-2
		c1,0,1.9,0.8,2,1.8c0.4-0.1,0.9-0.3,1.3-0.5C1211.8,482.8,1210.4,481.7,1208.8,481.7z"/>
	<path d="M1190.5,475c-0.2,0-0.3,0-0.5,0.1c0.4,1,0.9,2,1.5,2.9c0.4-0.3,0.7-0.8,0.7-1.3C1192.2,475.8,1191.4,475,1190.5,475
		L1190.5,475z"/>
	<path d="M1195.4,456.3l0.9,0.9l-3.7,3.7l-0.9-0.9L1195.4,456.3z"/>
	<path d="M1191.9,467.7h-3c0,0.4-0.1,0.9-0.1,1.3h2.3l6.3,10.7l-1.2,3.1c0.4,0.3,0.8,0.5,1.2,0.7l1.5-4L1191.9,467.7z"/>
	<text transform="matrix(1 0 0 1 1315.95 560.74)" class="st2 st0 st1">SCE</text>
	<text transform="matrix(1 0 0 1 1320.46 539.74)" class="st0 st1">Processed </text>
	<text transform="matrix(1 0 0 1 1352.97 560.74)" class="st0 st1"> Object</text>
	<path d="M1392.6,482.8h-2.1V463c0-0.3-0.1-0.6-0.3-0.7l-15.7-15.4c-0.2-0.2-0.5-0.3-0.8-0.3h-27c-3.4,0-6.2,2.9-6.2,6.4v29.8h-2.1
		c-0.6,0-1.1,0.4-1.1,1v17.7c0,0.6,0.5,1,1.1,1h2.1v3.7c0,3.5,2.8,6.4,6.2,6.4h37.6c3.4,0,6.2-2.9,6.2-6.4v-3.7h2.1
		c0.6,0,1.1-0.4,1.1-1v-17.7C1393.6,483.2,1393.1,482.8,1392.6,482.8L1392.6,482.8z M1374.7,450l12.2,11.9h-9.8
		c-0.6,0-1.3-0.3-1.7-0.7c-0.4-0.5-0.7-1.1-0.7-1.7V450z M1342.6,452.9c0-2.4,1.9-4.3,4.1-4.3h25.9v10.9c0,1.2,0.5,2.4,1.3,3.2
		c0.8,0.9,2,1.3,3.2,1.4h11.3v18.7h-45.8V452.9z M1388.4,506.1c0,2.4-1.9,4.3-4.1,4.3h-37.6c-2.2,0-4.1-1.9-4.1-4.3v-3.7h45.8
		L1388.4,506.1L1388.4,506.1z M1391.5,500.3h-52.1v-15.4h52.1V500.3z"/>
	<text transform="matrix(1 0 0 1 1352.09 498.746)" class="st0 st3">RDS</text>
	<path d="M1357.5,454.4v-2.8c-0.4,0.1-0.9,0.1-1.3,0.2v2.1l-10.9,10.9h-2.1c-0.1,0.4-0.2,0.9-0.2,1.3h2.8L1357.5,454.4z"/>
	<path d="M1353.7,478.8l-1.6,4.2c0.4,0.2,0.8,0.4,1.2,0.5l1.3-3.6l13.2-2.7l3.6,2.7c0.1-0.1,0.7-1.2,0.7-1.2l-4.2-2.9L1353.7,478.8z
		"/>
	<path d="M1370.8,463.1l3.6-2.4c-0.2-0.4-0.4-0.7-0.6-1.1l-0.1-0.1l-4.2,2.8l-1.4,12l4.8,3.5c0.3-0.4,0.5-0.7,0.7-1.1l-4.2-3
		L1370.8,463.1z"/>
	<path d="M1373.1,458.7l-0.3-0.6c-0.1-0.2-0.3-0.4-0.4-0.5l-3.5,1.8l-9.3-5.6v-2.3c-0.4,0-0.9,0-1.3,0.1v3l10.6,6.4L1373.1,458.7z"
		/>
	<path d="M1355.5,463.4c-2.6,0-4.7,2.1-4.7,4.7s2.1,4.7,4.7,4.7s4.7-2.1,4.7-4.7S1358.1,463.4,1355.5,463.4z M1355.5,471.4
		c-1.8,0-3.3-1.5-3.3-3.3s1.5-3.3,3.3-3.3s3.3,1.5,3.3,3.3S1357.3,471.4,1355.5,471.4z"/>
	<path d="M1361.8,464.1c1.3,0,2.3-1,2.3-2.3s-1-2.3-2.3-2.3s-2.3,1-2.3,2.3C1359.5,463,1360.5,464.1,1361.8,464.1z M1361.8,460.7
		c0.6,0,1,0.4,1,1c0,0.5-0.4,1-1,1c-0.5,0-1-0.4-1-1C1360.8,461.2,1361.3,460.7,1361.8,460.7z"/>
	<path d="M1365.7,469.4l-0.2-0.6l-0.2-0.6c-0.1,0-2.2,0.7-2.8,2.5c-0.4,1-0.2,2,0.5,3.1l1.1-0.7c-0.5-0.8-0.6-1.4-0.4-2
		C1364.1,469.9,1365.7,469.4,1365.7,469.4z"/>
	<path d="M1375.5,469.4c0,0.7-0.6,1.3-1.3,1.3c-0.7,0-1.3-0.6-1.3-1.3c0-0.7,0.6-1.3,1.3-1.3S1375.5,468.7,1375.5,469.4z"/>
	<path d="M1362.8,480.7c-1.8,0-3.3,1.5-3.3,3.3c0,0.2,0,0.4,0.1,0.7c0.5,0,0.9,0,1.4-0.1c-0.1-0.2-0.1-0.4-0.1-0.6c0-1.1,0.9-2,2-2
		c1,0,1.9,0.8,2,1.8c0.4-0.1,0.9-0.3,1.3-0.5C1365.8,481.8,1364.4,480.7,1362.8,480.7z"/>
	<path d="M1344.5,474c-0.2,0-0.3,0-0.5,0.1c0.4,1,0.9,2,1.5,2.9c0.4-0.3,0.7-0.8,0.7-1.3C1346.2,474.8,1345.4,474,1344.5,474
		L1344.5,474z"/>
	<path d="M1349.4,455.3l0.9,0.9l-3.7,3.7l-0.9-0.9L1349.4,455.3z"/>
	<path d="M1345.9,466.7h-3c0,0.4-0.1,0.9-0.1,1.3h2.3l6.3,10.7l-1.2,3.1c0.4,0.3,0.8,0.5,1.2,0.7l1.5-4L1345.9,466.7z"/>
	<text transform="matrix(1 0 0 1 1631.99 539.74)" class="st0 st1">Summary </text>
	<text transform="matrix(1 0 0 1 1627.45 560.74)" class="st0 st1">QC Report</text>
	<path d="M1695.6,482.8h-2.1V463c0-0.3-0.1-0.6-0.3-0.7l-15.7-15.4c-0.2-0.2-0.5-0.3-0.8-0.3h-27c-3.4,0-6.2,2.9-6.2,6.4v29.8h-2.1
		c-0.6,0-1.1,0.4-1.1,1v17.7c0,0.6,0.5,1,1.1,1h2.1v3.7c0,3.5,2.8,6.4,6.2,6.4h37.6c3.4,0,6.2-2.9,6.2-6.4v-3.7h2.1
		c0.6,0,1.1-0.4,1.1-1v-17.7C1696.6,483.2,1696.1,482.8,1695.6,482.8L1695.6,482.8z M1677.7,450l12.2,11.9h-9.8
		c-0.6,0-1.3-0.3-1.7-0.7c-0.4-0.5-0.7-1.1-0.7-1.7V450z M1645.6,452.9c0-2.4,1.9-4.3,4.1-4.3h25.9v10.9c0,1.2,0.5,2.4,1.3,3.2
		c0.8,0.9,2,1.3,3.2,1.4h11.3v18.7h-45.8V452.9z M1691.4,506.1c0,2.4-1.9,4.3-4.1,4.3h-37.6c-2.2,0-4.1-1.9-4.1-4.3v-3.7h45.8
		L1691.4,506.1L1691.4,506.1z M1694.5,500.3h-52.1v-15.4h52.1V500.3z"/>
	<text transform="matrix(1 0 0 1 1650.78 498.746)" class="st0 st3">HTML</text>
	<path d="M1653.3,476v7.2c0,0.6-0.6,1.2-1.2,1.2h-4c-0.7,0-1.2-0.5-1.2-1.2V476c0-0.6,0.6-1.2,1.2-1.2h4
		C1652.8,474.9,1653.3,475.4,1653.3,476z"/>
	<path d="M1648,470.6c0-0.8,0.7-1.5,1.6-1.5c0.3,0,0.5,0.1,0.8,0.2l5.6-5.8c-0.2-0.2-0.3-0.5-0.3-0.8c0-0.8,0.7-1.5,1.6-1.5
		s1.6,0.7,1.6,1.5c0,0.1,0,0.3,0,0.4l5.3,2.6c0.3-0.3,0.7-0.5,1.2-0.5c0.3,0,0.6,0.1,0.8,0.2l6.2-6c-0.2-0.2-0.2-0.5-0.2-0.8
		c0-0.8,0.7-1.5,1.6-1.5s1.6,0.7,1.6,1.5s-0.7,1.5-1.6,1.5c-0.3,0-0.6-0.1-0.8-0.2l-6.2,6c0.2,0.2,0.2,0.5,0.2,0.8
		c0,0.8-0.7,1.5-1.6,1.5s-1.6-0.7-1.6-1.5c0-0.1,0-0.2,0.1-0.4l-5.3-2.6c-0.3,0.3-0.7,0.5-1.2,0.5c-0.3,0-0.5-0.1-0.8-0.2l-5.6,5.8
		c0.2,0.2,0.3,0.5,0.3,0.8c0,0.8-0.7,1.5-1.6,1.5C1648.7,472.1,1648,471.4,1648,470.6z"/>
	<path d="M1661,469.3v13.4c0,0.7-0.5,1.3-1.2,1.3h-3.7c-0.6,0-1.2-0.6-1.2-1.3v-13.4c0-0.7,0.5-1.3,1.2-1.3h3.7
		C1660.5,468,1661,468.6,1661,469.3z"/>
	<path d="M1669.2,472.8v10.4c0,0.6-0.5,1.2-1.2,1.2h-4c-0.7,0-1.2-0.5-1.2-1.2v-10.4c0-0.6,0.6-1.2,1.2-1.2h4
		C1668.7,471.6,1669.2,472.2,1669.2,472.8z"/>
	<path d="M1677,468v15c0,0.6-0.5,1-1.2,1h-3.7c-0.6,0-1.2-0.5-1.2-1v-15c0-0.6,0.5-1,1.2-1h3.7C1676.5,467,1677,467.5,1677,468z"/>
	<text transform="matrix(1 0 0 1 1789.12 534.74)" class="st0 st1">Cell Type </text>
	<text transform="matrix(1 0 0 1 1799.46 555.74)" class="st0 st1">Report</text>
	<path d="M1851.6,477.8h-2.1V458c0-0.3-0.1-0.6-0.3-0.7l-15.7-15.4c-0.2-0.2-0.5-0.3-0.8-0.3h-27c-3.4,0-6.2,2.9-6.2,6.4v29.8h-2.1
		c-0.6,0-1.1,0.4-1.1,1v17.7c0,0.6,0.5,1,1.1,1h2.1v3.7c0,3.5,2.8,6.4,6.2,6.4h37.6c3.4,0,6.2-2.9,6.2-6.4v-3.7h2.1
		c0.6,0,1.1-0.4,1.1-1v-17.7C1852.6,478.2,1852.1,477.8,1851.6,477.8L1851.6,477.8z M1833.7,445l12.2,11.9h-9.8
		c-0.6,0-1.3-0.3-1.7-0.7c-0.4-0.5-0.7-1.1-0.7-1.7V445z M1801.6,447.9c0-2.4,1.9-4.3,4.1-4.3h25.9v10.9c0,1.2,0.5,2.4,1.3,3.2
		c0.8,0.9,2,1.3,3.2,1.4h11.3v18.7h-45.8V447.9z M1847.4,501.1c0,2.4-1.9,4.3-4.1,4.3h-37.6c-2.2,0-4.1-1.9-4.1-4.3v-3.7h45.8
		L1847.4,501.1L1847.4,501.1z M1850.5,495.3h-52.1v-15.4h52.1V495.3z"/>
	<text transform="matrix(1 0 0 1 1806.78 493.746)" class="st0 st3">HTML</text>
	<path d="M1809.3,471v7.2c0,0.6-0.6,1.2-1.2,1.2h-4c-0.7,0-1.2-0.5-1.2-1.2V471c0-0.6,0.6-1.2,1.2-1.2h4
		C1808.8,469.9,1809.3,470.4,1809.3,471z"/>
	<path d="M1804,465.6c0-0.8,0.7-1.5,1.6-1.5c0.3,0,0.5,0.1,0.8,0.2l5.6-5.8c-0.2-0.2-0.3-0.5-0.3-0.8c0-0.8,0.7-1.5,1.6-1.5
		s1.6,0.7,1.6,1.5c0,0.1,0,0.3,0,0.4l5.3,2.6c0.3-0.3,0.7-0.5,1.2-0.5c0.3,0,0.6,0.1,0.8,0.2l6.2-6c-0.2-0.2-0.2-0.5-0.2-0.8
		c0-0.8,0.7-1.5,1.6-1.5s1.6,0.7,1.6,1.5s-0.7,1.5-1.6,1.5c-0.3,0-0.6-0.1-0.8-0.2l-6.2,6c0.2,0.2,0.2,0.5,0.2,0.8
		c0,0.8-0.7,1.5-1.6,1.5s-1.6-0.7-1.6-1.5c0-0.1,0-0.2,0.1-0.4l-5.3-2.6c-0.3,0.3-0.7,0.5-1.2,0.5c-0.3,0-0.5-0.1-0.8-0.2l-5.6,5.8
		c0.2,0.2,0.3,0.5,0.3,0.8c0,0.8-0.7,1.5-1.6,1.5C1804.7,467.1,1804,466.4,1804,465.6z"/>
	<path d="M1817,464.3v13.4c0,0.7-0.5,1.3-1.2,1.3h-3.7c-0.6,0-1.2-0.6-1.2-1.3v-13.4c0-0.7,0.5-1.3,1.2-1.3h3.7
		C1816.5,463,1817,463.6,1817,464.3z"/>
	<path d="M1825.2,467.8v10.4c0,0.6-0.5,1.2-1.2,1.2h-4c-0.7,0-1.2-0.5-1.2-1.2v-10.4c0-0.6,0.6-1.2,1.2-1.2h4
		C1824.7,466.6,1825.2,467.2,1825.2,467.8z"/>
	<path d="M1833,463v15c0,0.6-0.5,1-1.2,1h-3.7c-0.6,0-1.2-0.5-1.2-1v-15c0-0.6,0.5-1,1.2-1h3.7C1832.5,462,1833,462.5,1833,463z"/>
	<text transform="matrix(1 0 0 1 398.4451 184.0864)" class="st0 st1">Gene by cell count </text>
	<text transform="matrix(1 0 0 1 448.5421 205.0864)" class="st0 st1">matrix </text>
	<path d="M505,113.7h-2.4V90.4c0-0.3-0.1-0.7-0.4-0.9l-18.5-18.2c-0.2-0.2-0.5-0.4-0.9-0.4H451c-4,0-7.3,3.4-7.3,7.6v35.2h-2.4
		c-0.7,0-1.3,0.5-1.3,1.2v20.8c0,0.7,0.6,1.2,1.3,1.2h2.4v4.3c0,4.2,3.3,7.6,7.3,7.6h44.3c4,0,7.3-3.4,7.3-7.6v-4.3h2.4
		c0.7,0,1.3-0.5,1.3-1.2v-20.8C506.2,114.2,505.6,113.7,505,113.7L505,113.7z M483.9,75.1l14.4,14.1h-11.6c-0.8,0-1.5-0.3-2-0.9
		c-0.5-0.5-0.8-1.3-0.8-2V75.1z M446.1,78.5c0-2.8,2.2-5.1,4.8-5.1h30.5v12.8c0,1.4,0.5,2.8,1.5,3.8s2.4,1.6,3.8,1.6h13.4v22.1h-54
		L446.1,78.5L446.1,78.5z M500.1,141.2c0,2.8-2.2,5.1-4.8,5.1H451c-2.6,0-4.8-2.3-4.8-5.1v-4.3h54v4.3H500.1z M503.8,134.4h-61.4
		v-18.2h61.4V134.4z"/>
	<text transform="matrix(1 0 0 1 457.0401 131.9974)" class="st0 st3">MTX</text>
	<path d="M477.7,83.3h-26.4c-1,0-1.7,0.8-1.7,1.7v28c0,1,0.8,1.7,1.7,1.7h6h7.2h13.2c1,0,1.7-0.8,1.7-1.7V97.4v-4.2v-8.1
		C479.5,84.1,478.7,83.3,477.7,83.3L477.7,83.3z M478.5,92.7h-6.2v-3.2h6.2V92.7z M478.5,96.9h-6.2v-3.2h6.2V96.9z M478.5,101.1
		h-6.2v-3.2h6.2V101.1z M478.5,105.4h-6.2v-3.2h6.2V105.4z M450.6,102.1h6.2v3.2h-6.2V102.1z M450.6,97.9h6.2v3.2h-6.2V97.9z
		 M450.6,93.7h6.2v3.2h-6.2V93.7z M457.8,97.9h6.2v3.2h-6.2V97.9z M465,97.9h6.2v3.2H465V97.9z M471.2,96.9H465v-3.2h6.2V96.9z
		 M464,96.9h-6.2v-3.2h6.2V96.9z M457.8,102.1h6.2v3.2h-6.2V102.1z M465,102.1h6.2v3.2H465V102.1z M471.2,92.7H465v-3.2h6.2V92.7z
		 M464,92.7h-6.2v-3.2h6.2V92.7z M456.8,92.7h-6.2v-3.2h6.2V92.7z M450.6,106.3h6.2v3.2h-6.2V106.3z M457.8,106.3h6.2v3.2h-6.2
		V106.3z M465,106.3h6.2v3.2H465V106.3z M472.2,106.3h6.2v3.2h-6.2V106.3z M478.5,85.1v3.3h-6.2v-4.1h5.5
		C478.1,84.3,478.5,84.7,478.5,85.1L478.5,85.1z M471.2,88.5H465v-4.1h6.2V88.5z M464,88.5h-6.2v-4.1h6.2V88.5z M450.6,85.1
		c0-0.4,0.3-0.7,0.7-0.7h5.5v4.1h-6.2V85.1z M450.6,113.1v-2.5h6.2v3.2h-5.5C450.9,113.8,450.6,113.5,450.6,113.1L450.6,113.1z
		 M457.8,110.6h6.2v3.2h-6.2V110.6z M465,110.6h6.2v3.2H465V110.6z M478.5,113.1c0,0.4-0.3,0.7-0.7,0.7h-5.5v-3.2h6.2V113.1z"/>
	<path d="M459.9,86.9h2c0.3,0,0.5-0.2,0.5-0.5s-0.2-0.5-0.5-0.5h-2c-0.3,0-0.5,0.2-0.5,0.5S459.6,86.9,459.9,86.9z"/>
	<path d="M467.1,86.9h2c0.3,0,0.5-0.2,0.5-0.5s-0.2-0.5-0.5-0.5h-2c-0.3,0-0.5,0.2-0.5,0.5S466.8,86.9,467.1,86.9z"/>
	<path d="M474.4,86.9h2c0.3,0,0.5-0.2,0.5-0.5s-0.2-0.5-0.5-0.5h-2c-0.3,0-0.5,0.2-0.5,0.5S474.1,86.9,474.4,86.9z"/>
	<path d="M444.2,176.6c-0.1-0.1-0.4,0-0.5,0.1l-0.1,0.1v0.2c0,0.1,0,0.2,0.1,0.3l0.1,0.1c0.1,0.1,0.1,0.1,0.2,0.1s0.1,0,0.2-0.1
		c0.1,0,0.1,0,0.1-0.1c0.1-0.1,0.1-0.2,0.1-0.3s0-0.2-0.1-0.3C444.4,176.7,444.3,176.6,444.2,176.6z"/>
	<path d="M446.4,176.6c-0.2-0.1-0.4,0-0.5,0.1l-0.1,0.1c0,0,0,0.1,0,0.2c0,0.1,0,0.2,0.1,0.3s0.2,0.1,0.3,0.1c0,0,0.1,0,0.2-0.1
		c0,0,0.1,0,0.1-0.1c0.1-0.1,0.1-0.2,0.1-0.3s0-0.2-0.1-0.3C446.5,176.7,446.4,176.6,446.4,176.6z"/>
	<g>
		<text transform="matrix(1 0 0 1 150.7021 353.1001)" class="st0 st1">Input </text>
		<text transform="matrix(1 0 0 1 121.7021 374.7001)" class="st0 st1">RNA FASTQ</text>
		<path d="M205.1,296.4h-2.4v-23.3c0-0.3-0.1-0.7-0.4-0.9L183.8,254c-0.2-0.2-0.5-0.4-0.9-0.4h-31.8c-4,0-7.3,3.4-7.3,7.6v35.2h-2.4
			c-0.7,0-1.3,0.5-1.3,1.2v20.8c0,0.7,0.6,1.2,1.3,1.2h2.4v4.3c0,4.2,3.3,7.6,7.3,7.6h44.3c4,0,7.3-3.4,7.3-7.6v-4.3h2.4
			c0.7,0,1.3-0.5,1.3-1.2v-20.8C206.4,296.8,205.8,296.4,205.1,296.4L205.1,296.4z M184,257.8l14.4,14.1h-11.6c-0.8,0-1.5-0.3-2-0.9
			c-0.5-0.5-0.8-1.3-0.8-2L184,257.8L184,257.8z M146.2,261.2c0-2.8,2.2-5.1,4.8-5.1h30.5v12.8c0,1.4,0.5,2.8,1.5,3.8
			s2.4,1.6,3.8,1.6h13.4v22.1h-54V261.2z M200.2,323.8c0,2.8-2.2,5.1-4.8,5.1h-44.3c-2.6,0-4.8-2.3-4.8-5.1v-4.3h54L200.2,323.8
			L200.2,323.8z M203.9,317h-61.4v-18.2h61.4V317z"/>
		<text transform="matrix(1 0 0 1 149.1932 313.651)" class="st0 st3">FASTQ</text>
	</g>
	<g>
		<text transform="matrix(1 0 0 1 120.6963 190.5945)" class="st0 st1">Library Pools</text>
		<g>
			<path d="M206.1,122.2h-2.4V98.9c0-0.3-0.1-0.7-0.4-0.9l-18.5-18.2c-0.2-0.2-0.5-0.4-0.9-0.4H152c-4,0-7.3,3.4-7.3,7.6v35.2h-2.4
				c-0.7,0-1.3,0.5-1.3,1.2v20.8c0,0.7,0.6,1.2,1.3,1.2h2.4v4.3c0,4.2,3.3,7.6,7.3,7.6h44.3c4,0,7.3-3.4,7.3-7.6v-4.3h2.4
				c0.7,0,1.3-0.5,1.3-1.2v-20.8C207.4,122.7,206.8,122.2,206.1,122.2L206.1,122.2z M185,83.6l14.4,14.1h-11.6c-0.8,0-1.5-0.3-2-0.9
				c-0.5-0.5-0.8-1.3-0.8-2L185,83.6L185,83.6z M147.2,87c0-2.8,2.2-5.1,4.8-5.1h30.5v12.8c0,1.4,0.5,2.8,1.5,3.8s2.4,1.6,3.8,1.6
				h13.4v22.1h-54V87z M201.2,149.7c0,2.8-2.2,5.1-4.8,5.1H152c-2.6,0-4.8-2.3-4.8-5.1v-4.3h54V149.7z M204.9,142.9h-61.4v-18.2
				h61.4V142.9z"/>
			<text transform="matrix(1 0 0 1 159.7822 139.5055)" class="st0 st3">TSV</text>
		</g>
	</g>
	<g>
		<text transform="matrix(1 0 0 1 102.2043 577.6481)" class="st0 st1">Bulk-RNA FASTQ</text>
		<path d="M205.6,510.3h-2.4V487c0-0.3-0.1-0.7-0.4-0.9l-18.5-18.2c-0.2-0.2-0.5-0.4-0.9-0.4h-31.8c-4,0-7.3,3.4-7.3,7.6v35.2h-2.4
			c-0.7,0-1.3,0.5-1.3,1.2v20.8c0,0.7,0.6,1.2,1.3,1.2h2.4v4.3c0,4.2,3.3,7.6,7.3,7.6h44.3c4,0,7.3-3.4,7.3-7.6v-4.3h2.4
			c0.7,0,1.3-0.5,1.3-1.2v-20.8C206.9,510.7,206.3,510.3,205.6,510.3L205.6,510.3z M184.5,471.7l14.4,14.1h-11.6
			c-0.8,0-1.5-0.3-2-0.9c-0.5-0.5-0.8-1.3-0.8-2L184.5,471.7L184.5,471.7z M146.7,475.1c0-2.8,2.2-5.1,4.8-5.1H182v12.8
			c0,1.4,0.5,2.8,1.5,3.8s2.4,1.6,3.8,1.6h13.4v22.1h-54V475.1z M200.7,537.7c0,2.8-2.2,5.1-4.8,5.1h-44.3c-2.6,0-4.8-2.3-4.8-5.1
			v-4.3h54L200.7,537.7L200.7,537.7z M204.4,530.9H143v-18.2h61.4V530.9z"/>
		<text transform="matrix(1 0 0 1 149.6808 527.5592)" class="st0 st3">FASTQ</text>
	</g>
	<text transform="matrix(1 0 0 1 982.452 273.74)" class="st0 st1">Filter empty </text>
	<text transform="matrix(1 0 0 1 997.455 294.74)" class="st0 st1">droplets</text>
	<path d="M1054.3,193.6h-4.3v-4.3h-2.2v4.3h-36.7v-4.3h-2.2v4.3h-4.3c-0.9,0-1.7,0.3-2.3,0.9c-0.6,0.6-0.9,1.4-0.9,2.3v2.2
		c0,0.8,0.3,1.5,0.8,2.1s1.2,1,2,1.1l19.9,20.9v14.6c0,0.4,0.2,0.7,0.5,0.9s0.7,0.2,1.1,0l8.6-4.3c0.2-0.1,0.3-0.2,0.4-0.4
		s0.2-0.4,0.2-0.6V223l19.9-20.9c0.8-0.1,1.4-0.5,1.9-1.1s0.8-1.3,0.8-2.1v-2.2c0-0.9-0.3-1.7-1-2.3
		C1056,194,1055.2,193.6,1054.3,193.6L1054.3,193.6z M1055.4,199c0,0.3-0.1,0.6-0.3,0.8c-0.2,0.2-0.5,0.3-0.8,0.3h-4.3v2.2h1.8
		L1033,222c-0.2,0.2-0.3,0.5-0.3,0.7v10.1l-6.5,3.2v-13.3c0-0.3-0.1-0.5-0.3-0.7l-18.8-19.7h40.6v-2.2h-43.1c-0.3,0-0.6-0.1-0.8-0.3
		s-0.3-0.5-0.3-0.8v-2.2c0-0.3,0.1-0.6,0.3-0.8s0.5-0.3,0.8-0.3h49.6c0.3,0,0.6,0.1,0.8,0.3c0.2,0.2,0.3,0.5,0.3,0.8L1055.4,199
		L1055.4,199z"/>
	<path d="M1029.5,191.5c1.7,0,3.4-0.7,4.6-1.9s1.9-2.9,1.9-4.6c0-1.7-0.7-3.4-1.9-4.6c-1.2-1.2-2.8-1.9-4.6-1.9s-3.4,0.7-4.6,1.9
		c-1.2,1.2-1.9,2.9-1.9,4.6c0,1.7,0.7,3.4,1.9,4.6C1026.1,190.8,1027.8,191.5,1029.5,191.5z M1029.5,180.7c1.1,0,2.2,0.5,3.1,1.3
		c0.8,0.8,1.3,1.9,1.3,3s-0.5,2.2-1.3,3s-1.9,1.3-3.1,1.3s-2.2-0.5-3.1-1.3c-0.8-0.8-1.3-1.9-1.3-3s0.5-2.2,1.3-3
		C1027.3,181.1,1028.4,180.7,1029.5,180.7z"/>
	<path d="M1018.7,182.8h2.2v8.6h-2.2V182.8z"/>
	<path d="M1038.1,182.8h2.2v8.6h-2.2V182.8z"/>
	<path d="M1038.1,174.2h2.2v4.3h-2.2V174.2z"/>
	<path d="M1018.7,174.2h2.2v4.3h-2.2V174.2z"/>
	<path d="M1049,185.9c1.7,0,3.4-0.7,4.6-1.9s1.9-2.9,1.9-4.6c0-1.7-0.7-3.4-1.9-4.6c-1.2-1.2-2.9-1.9-4.6-1.9s-3.4,0.7-4.6,1.9
		s-1.9,2.9-1.9,4.6c0,1.7,0.7,3.4,1.9,4.6C1045.7,185.2,1047.3,185.9,1049,185.9z"/>
	<path d="M1008.9,186.9c1.7,0,3.4-0.7,4.6-1.9c1.2-1.2,1.9-2.9,1.9-4.6c0-1.7-0.7-3.4-1.9-4.6c-1.2-1.2-2.9-1.9-4.6-1.9
		c-1.7,0-3.4,0.7-4.6,1.9c-1.2,1.2-1.9,2.9-1.9,4.6c0,1.7,0.7,3.4,1.9,4.6C1005.6,186.2,1007.2,186.9,1008.9,186.9z M1008.9,176.1
		c1.1,0,2.2,0.5,3,1.3s1.3,1.9,1.3,3s-0.5,2.2-1.3,3s-1.9,1.3-3,1.3s-2.2-0.5-3-1.3s-1.3-1.9-1.3-3s0.5-2.2,1.3-3
		C1006.7,176.5,1007.8,176.1,1008.9,176.1z"/>
	<path d="M1008.9,172c1.7,0,3.4-0.7,4.6-1.9c1.2-1.2,1.9-2.9,1.9-4.6c0-1.7-0.7-3.4-1.9-4.6c-1.2-1.2-2.9-1.9-4.6-1.9
		c-1.7,0-3.4,0.7-4.6,1.9c-1.2,1.2-1.9,2.9-1.9,4.6c0,1.7,0.7,3.4,1.9,4.6C1005.6,171.3,1007.2,172,1008.9,172z"/>
	<path d="M1049,170.1c1.7,0,3.4-0.7,4.6-1.9s1.9-2.9,1.9-4.6s-0.7-3.4-1.9-4.6c-1.2-1.2-2.9-1.9-4.6-1.9s-3.4,0.7-4.6,1.9
		s-1.9,2.9-1.9,4.6c0,1.7,0.7,3.4,1.9,4.6C1045.7,169.4,1047.3,170.1,1049,170.1z M1049,159.3c1.2,0,2.2,0.5,3,1.3s1.3,1.9,1.3,3
		s-0.5,2.2-1.3,3s-1.9,1.3-3,1.3s-2.2-0.5-3.1-1.3c-0.8-0.8-1.3-1.9-1.3-3s0.5-2.2,1.3-3C1046.8,159.8,1047.9,159.3,1049,159.3z"/>
	<path d="M1029.4,158.9c1.7,0,3.4-0.7,4.6-1.9s1.9-2.9,1.9-4.6c0-1.7-0.7-3.4-1.9-4.6c-1.2-1.2-2.9-1.9-4.6-1.9s-3.4,0.7-4.6,1.9
		c-1.2,1.2-1.9,2.9-1.9,4.6c0,1.7,0.7,3.4,1.9,4.6C1026.1,158.2,1027.7,158.9,1029.4,158.9z M1029.4,148.2c1.2,0,2.2,0.5,3.1,1.3
		c0.8,0.8,1.3,1.9,1.3,3s-0.4,2.2-1.3,3c-0.8,0.8-1.9,1.3-3.1,1.3c-1.1,0-2.2-0.5-3-1.3s-1.3-1.9-1.3-3s0.4-2.2,1.3-3
		C1027.2,148.6,1028.3,148.2,1029.4,148.2z"/>
	<path d="M1029.4,174.8c1.7,0,3.4-0.7,4.6-1.9s1.9-2.9,1.9-4.6c0-1.7-0.7-3.4-1.9-4.6c-1.2-1.2-2.9-1.9-4.6-1.9s-3.4,0.7-4.6,1.9
		c-1.2,1.2-1.9,2.9-1.9,4.6c0,1.7,0.7,3.4,1.9,4.6C1026.1,174.1,1027.7,174.8,1029.4,174.8z"/>
	<path d="M402,208.7l-7.7-5.8v11.6L402,208.7z M271,123h0.8v-1H271V123z M271,289.7v1h0.8v-1H271z M271,209.7h124.1v-2H271V209.7z
		 M271.8,208.7V123h-1.5v85.6L271.8,208.7L271.8,208.7z M271,122h-61.7v2H271V122z M270.2,208.7v81.1h1.5v-81.1L270.2,208.7
		L270.2,208.7z M271,288.7h-61.7v2H271V288.7z"/>
	<path d="M703,206l-10-5.8v11.5L703,206z M539,207h155v-2H539V207z"/>
	<path d="M976,206.5l-10-5.8v11.5L976,206.5z M827,207l140,0.5v-2L827,205V207z"/>
	<path d="M1237,207l-10-5.8v11.5L1237,207z M1083,208h145v-2h-145V208z"/>
	<path d="M1495,206l-10-5.8v11.5L1495,206z M1358,207h128v-2h-128V207z"/>
	<path d="M1812,200l-10-5.8v11.5L1812,200z M1675,201h128v-2h-128V201z"/>
	<text transform="matrix(1 0 0 1 310.1363 189.3376)" class="st2 st0 st1">alevin-fry</text>
	<text transform="matrix(1 0 0 1 269.959 187.74)" class="st0 st1"> </text>
	<text transform="matrix(1 0 0 1 1304.05 295.74)" class="st2 st0 st1">miQC</text>
	<text transform="matrix(1 0 0 1 1204.4 274.74)" class="st0 st1">Remove low quality </text>
	<text transform="matrix(1 0 0 1 1214.9301 295.74)" class="st0 st1">cells using </text>
	<path class="st7" d="M1270.3,176.1h-9.9c-1.2,0-2.3,0.5-3.1,1.3c-0.8,0.8-1.3,1.9-1.3,3.1c0,9.1,3.2,37.1,3.2,46.7
		c0,3.1,2.7,5.7,6,5.7h29.1c3.4,0,6-2.6,6-5.7c0-8.1,2.3-29.5,3-41.4l11.5,42.7c0.3,1.1,1,2.1,2,2.6c1,0.6,2.2,0.7,3.3,0.4l0,0
		c1.1-0.3,2.1-1,2.6-2c0.6-1,0.7-2.2,0.4-3.3l-3.6-13.6c0.1,0,0.1,0,0.2-0.1l0,0c3.2-0.9,5.1-4.2,4.3-7.4l-3.1-11.6
		c-0.9-3.2-4.2-5.1-7.4-4.3l-0.2,0.1l-3.7-13.6c-0.3-1.1-1-2.1-2-2.6c-1-0.6-2.2-0.7-3.3-0.4l0,0c-1.1,0.3-2.1,1-2.6,2
		c-0.3,0.6-0.5,1.2-0.6,1.9c-0.6-0.3-1.3-0.5-2-0.5h-16.9h-1.3c-0.5,0-0.3,0-1.1,0c-0.7,0-2.3,0-3.2,0c-0.8,0-2.8,0-4.8,0
		C1270,176.1,1270.3,176.1,1270.3,176.1z M1301.1,180.5c0,9.1-3.2,37.1-3.2,46.7c0,1.8-1.6,3.3-3.6,3.3h-29.1c-2,0-3.6-1.4-3.6-3.3
		c0-9.6-3.2-37.6-3.2-46.7c0-0.5,0.2-1,0.6-1.4s0.9-0.6,1.4-0.6h38.7c0.5,0,1,0.2,1.4,0.6S1301.1,180,1301.1,180.5z M1307.3,176.4
		l13.5,50.6c0.1,0.5,0.1,1-0.2,1.4c-0.2,0.4-0.7,0.8-1.2,0.9l0,0c-0.5,0.1-1,0.1-1.4-0.2s-0.8-0.7-0.9-1.2l-13.6-50.6
		c-0.1-0.5-0.1-1,0.2-1.4c0.2-0.4,0.7-0.8,1.2-0.9l0,0c0.5-0.1,1-0.1,1.5,0.2C1306.8,175.5,1307.2,175.9,1307.3,176.4z
		 M1318.9,210.3l-5-18.6c0.1,0,0.1,0,0.2-0.1c1.9-0.5,3.9,0.6,4.4,2.5l3.1,11.6c0.5,1.9-0.6,3.9-2.5,4.4L1318.9,210.3z"/>
	<path class="st7" d="M1290.5,162.4c0.3-0.6,0.1-1.3-0.5-1.7l-5-2.9c-0.6-0.3-1.3-0.1-1.7,0.4l-2.9,5c-0.3,0.6-0.1,1.3,0.5,1.7
		l5,2.9c0.6,0.3,1.3,0.1,1.7-0.4L1290.5,162.4z M1287.8,162.2l-1.6,2.9l-2.9-1.6l1.6-2.9L1287.8,162.2z"/>
	<path class="st7" d="M1281.4,170.3c0.2-0.6-0.1-1.2-0.7-1.4l-4.8-1.7c-0.6-0.2-1.2,0.1-1.4,0.7l-1.7,4.8c-0.2,0.6,0.1,1.2,0.7,1.4
		l4.8,1.7c0.6,0.2,1.2-0.1,1.4-0.7L1281.4,170.3z M1279,170.6l-1,2.8l-2.8-1l1-2.8L1279,170.6z"/>
	<path class="st7" d="M1282.9,153c0.5-0.5,0.5-1.3,0-1.7l-5-5c-0.5-0.5-1.2-0.5-1.7,0l-5,5c-0.5,0.5-0.5,1.3,0,1.7l5,5
		c0.5,0.5,1.3,0.5,1.7,0L1282.9,153z M1280.3,152.2l-3.2,3.2l-3.2-3.2l3.2-3.2L1280.3,152.2z"/>
	<path d="M1280.4,193.4c-7.2,0-13.1,5.9-13.1,13.1c0,7.2,5.9,13.1,13.1,13.1s13.1-5.9,13.1-13.1
		C1293.5,199.3,1287.7,193.4,1280.4,193.4z M1280.4,217c-5.8,0-10.5-4.7-10.5-10.5s4.7-10.5,10.5-10.5s10.5,4.7,10.5,10.5
		S1286.2,217,1280.4,217z"/>
	<path d="M1284,202.9c-0.5-0.5-1.3-0.5-1.9,0l-1.7,1.7l-1.7-1.7c-0.5-0.5-1.3-0.5-1.8,0s-0.5,1.3,0,1.9l1.7,1.7l-1.7,1.7
		c-0.5,0.5-0.5,1.3,0,1.9c0.5,0.5,1.3,0.5,1.8,0l1.7-1.7l1.7,1.7c0.5,0.5,1.3,0.5,1.9,0c0.5-0.5,0.5-1.3,0-1.9l-1.7-1.7l1.7-1.7
		C1284.5,204.3,1284.5,203.5,1284,202.9z"/>
	<text transform="matrix(1 0 0 1 1461.5 273.74)" class="st0 st1">RNA and ADT normalization and </text>
	<text transform="matrix(1 0 0 1 1455.3199 294.74)" class="st0 st1">dimensionality reduction with PCA </text>
	<text transform="matrix(1 0 0 1 1547.46 315.74)" class="st0 st1">and UMAP</text>
	<path d="M1672.4,232c-22.5,0-39.6-5.8-52.3-17.8c-10.8-10.2-16.5-23.1-21.1-33.4c-4.9-11.1-8.5-19.2-15.6-19.2
		c-7.2,0-11.5,8.6-17,19.5c-5.2,10.3-11.7,23.2-23,33.3c-13.3,11.9-30.4,17.7-52.3,17.7v-2.6c47.9,0,62.4-28.6,72.9-49.5
		c5.9-11.7,10.6-20.9,19.5-20.9c8.8,0,12.9,9.2,18,20.8c9.2,21,21.9,49.6,70.9,49.6V232L1672.4,232z"/>
	<path d="M1491,232.8h181.5v1.5H1491V232.8z"/>
	<path d="M1618.4,223.2V215h-6.4v-7.1h-6.4v-11.6h-6.4v-11.9h-6.4v-10.8h-6.4v-5.7h-7.9v5.7h-6.6v10.8h-6.4v12h-6.4V208h-6.4v7.1
		h-6.4v8.2h-6.4v8.7h84.6v-8.7h-6.1V223.2z M1546.6,230.4h-4.8v-5.6h4.8V230.4z M1548.2,230.4v-13.8h4.8v13.8H1548.2z M1554.5,230.4
		v-20.9h4.8v20.9H1554.5z M1565.7,230.4h-4.8v-32.6h4.8V230.4z M1567.2,230.4v-44.5h4.8v44.5H1567.2L1567.2,230.4z M1578.4,230.4
		h-4.8v-55.3h4.8V230.4z M1580.2,230.4v-60.9h4.8v60.9H1580.2z M1586.6,230.4v-55.3h4.8v55.3H1586.6z M1597.8,230.4h-4.8v-44.5h4.8
		V230.4z M1599.3,230.4v-32.6h4.8v32.6H1599.3z M1605.7,230.4v-20.9h4.8v20.9H1605.7z M1616.8,230.4h-4.8v-13.8h4.8V230.4z
		 M1623.2,230.4h-4.8v-5.6h4.8V230.4z"/>
	<path d="M775,367.5h-1v1h1V367.5z M1055.5,367.5h1v-1h-1V367.5z M1055.5,420.5l5.8-10h-11.5L1055.5,420.5z M774,321.5v46h2v-46H774
		z M775,368.5h280.5v-2H775V368.5z M1054.5,367.5v44h2v-44H1054.5z"/>
	<path d="M1026.5,349.5h-1v1h1V349.5z M1205,349.5h1v-1h-1V349.5z M1205,419l5.8-10h-11.5L1205,419z M1025.5,319v30.5h2V319H1025.5z
		 M1026.5,350.5H1205v-2h-178.5V350.5z M1204,349.5V410h2v-60.5H1204z"/>
	<path d="M1351,369.5v-1h-1v1H1351z M1351,418l5.8-10h-11.5L1351,418z M1663.5,369.5h1v-1h-1V369.5z M1663.5,418l5.8-10h-11.5
		L1663.5,418z M1577.5,338v31.5h2V338H1577.5z M1350,369.5V409h2v-39.5H1350z M1578.5,368.5h-66v2h66V368.5z M1512.5,368.5H1351v2
		h161.5V368.5z M1578.5,370.5h85v-2h-85V370.5z M1662.5,369.5V409h2v-39.5H1662.5z"/>
	<path d="M1823.5,419l5.8-10h-11.5L1823.5,419z M1823.5,351.5v-1h-1v1H1823.5z M1874,351.5v1h1v-1H1874z M1822.5,351.5V410h2v-58.5
		H1822.5z M1873,309.5v42h2v-42H1873z M1874,350.5h-50.5v2h50.5V350.5z"/>
	<path d="M421.4,431.3c1.7,0,3.4-0.7,4.6-1.9c1.2-1.2,1.9-2.9,1.9-4.6s-0.7-3.4-1.9-4.6c-1.2-1.2-2.9-1.9-4.6-1.9s-3.4,0.7-4.6,1.9
		c-1.2,1.2-1.9,2.9-1.9,4.6s0.7,3.4,1.9,4.6C418,430.6,419.7,431.3,421.4,431.3z"/>
	<path class="st8" d="M421.4,452.3c1.7,0,3.4-0.7,4.6-1.9c1.2-1.2,1.9-2.9,1.9-4.6s-0.7-3.4-1.9-4.6c-1.2-1.2-2.9-1.9-4.6-1.9
		s-3.4,0.7-4.6,1.9c-1.2,1.2-1.9,2.9-1.9,4.6s0.7,3.4,1.9,4.6C418,451.6,419.7,452.3,421.4,452.3z"/>
	<path class="st8" d="M526.4,432.3c1.7,0,3.4-0.7,4.6-1.9c1.2-1.2,1.9-2.9,1.9-4.6s-0.7-3.4-1.9-4.6s-2.9-1.9-4.6-1.9
		c-1.7,0-3.4,0.7-4.6,1.9c-1.2,1.2-1.9,2.9-1.9,4.6s0.7,3.4,1.9,4.6C523,431.6,524.7,432.3,526.4,432.3z"/>
	<path class="st8" d="M508.4,432.3c1.7,0,3.4-0.7,4.6-1.9c1.2-1.2,1.9-2.9,1.9-4.6s-0.7-3.4-1.9-4.6s-2.9-1.9-4.6-1.9
		s-3.4,0.7-4.6,1.9c-1.2,1.2-1.9,2.9-1.9,4.6s0.7,3.4,1.9,4.6C505,431.6,506.7,432.3,508.4,432.3z"/>
	<path d="M436.4,444.3c1.7,0,3.4-0.7,4.6-1.9c1.2-1.2,1.9-2.9,1.9-4.6s-0.7-3.4-1.9-4.6c-1.2-1.2-2.9-1.9-4.6-1.9s-3.4,0.7-4.6,1.9
		c-1.2,1.2-1.9,2.9-1.9,4.6s0.7,3.4,1.9,4.6C433,443.6,434.7,444.3,436.4,444.3z"/>
	<path class="st8" d="M440.4,422.3c1.7,0,3.4-0.7,4.6-1.9c1.2-1.2,1.9-2.9,1.9-4.6s-0.7-3.4-1.9-4.6c-1.2-1.2-2.9-1.9-4.6-1.9
		s-3.4,0.7-4.6,1.9c-1.2,1.2-1.9,2.9-1.9,4.6s0.7,3.4,1.9,4.6C437,421.6,438.7,422.3,440.4,422.3z"/>
	<path class="st8" d="M490.4,432.3c1.7,0,3.4-0.7,4.6-1.9c1.2-1.2,1.9-2.9,1.9-4.6s-0.7-3.4-1.9-4.6c-1.2-1.2-2.9-1.9-4.6-1.9
		s-3.4,0.7-4.6,1.9c-1.2,1.2-1.9,2.9-1.9,4.6s0.7,3.4,1.9,4.6C487,431.6,488.7,432.3,490.4,432.3z"/>
	<path d="M453.4,435.3c1.7,0,3.4-0.7,4.6-1.9c1.2-1.2,1.9-2.9,1.9-4.6s-0.7-3.4-1.9-4.6c-1.2-1.2-2.9-1.9-4.6-1.9s-3.4,0.7-4.6,1.9
		c-1.2,1.2-1.9,2.9-1.9,4.6s0.7,3.4,1.9,4.6C450,434.6,451.7,435.3,453.4,435.3z"/>
	<path class="st8" d="M449.4,458.3c1.7,0,3.4-0.7,4.6-1.9c1.2-1.2,1.9-2.9,1.9-4.6s-0.7-3.4-1.9-4.6c-1.2-1.2-2.9-1.9-4.6-1.9
		s-3.4,0.7-4.6,1.9c-1.2,1.2-1.9,2.9-1.9,4.6s0.7,3.4,1.9,4.6C446,457.6,447.7,458.3,449.4,458.3z"/>
	<path d="M433.4,466.3c1.7,0,3.4-0.7,4.6-1.9c1.2-1.2,1.9-2.9,1.9-4.6s-0.7-3.4-1.9-4.6c-1.2-1.2-2.9-1.9-4.6-1.9s-3.4,0.7-4.6,1.9
		c-1.2,1.2-1.9,2.9-1.9,4.6s0.7,3.4,1.9,4.6C430,465.6,431.7,466.3,433.4,466.3z"/>
	<path d="M490.4,458.3c1.7,0,3.4-0.7,4.6-1.9c1.2-1.2,1.9-2.9,1.9-4.6s-0.7-3.4-1.9-4.6c-1.2-1.2-2.9-1.9-4.6-1.9s-3.4,0.7-4.6,1.9
		c-1.2,1.2-1.9,2.9-1.9,4.6s0.7,3.4,1.9,4.6C487,457.6,488.7,458.3,490.4,458.3z"/>
	<path d="M508.4,458.3c1.7,0,3.4-0.7,4.6-1.9c1.2-1.2,1.9-2.9,1.9-4.6s-0.7-3.4-1.9-4.6s-2.9-1.9-4.6-1.9s-3.4,0.7-4.6,1.9
		c-1.2,1.2-1.9,2.9-1.9,4.6s0.7,3.4,1.9,4.6C505,457.6,506.7,458.3,508.4,458.3z"/>
	<path d="M526.4,458.3c1.7,0,3.4-0.7,4.6-1.9c1.2-1.2,1.9-2.9,1.9-4.6s-0.7-3.4-1.9-4.6s-2.9-1.9-4.6-1.9c-1.7,0-3.4,0.7-4.6,1.9
		c-1.2,1.2-1.9,2.9-1.9,4.6s0.7,3.4,1.9,4.6C523,457.6,524.7,458.3,526.4,458.3z"/>
	<path d="M544.4,458.3c1.7,0,3.4-0.7,4.6-1.9c1.2-1.2,1.9-2.9,1.9-4.6s-0.7-3.4-1.9-4.6s-2.9-1.9-4.6-1.9c-1.7,0-3.4,0.7-4.6,1.9
		c-1.2,1.2-1.9,2.9-1.9,4.6s0.7,3.4,1.9,4.6C541,457.6,542.7,458.3,544.4,458.3z"/>
	<path class="st9" d="M457.9,395.9h28c1.9,0,3.5,1.6,3.5,3.5v77c0,1.9-1.6,3.5-3.5,3.5h-28c-1.9,0-3.5-1.6-3.5-3.5v-77
		C454.4,397.4,456,395.9,457.9,395.9z"/>
	<text transform="matrix(1 0 0 1 467.8217 409.3149)" class="st10 st0 st11">D</text>
	<text transform="matrix(1 0 0 1 467.8217 425.3149)" class="st10 st0 st11">E</text>
	<text transform="matrix(1 0 0 1 467.8217 441.3149)" class="st10 st0 st11">M</text>
	<text transform="matrix(1 0 0 1 467.8217 457.3149)" class="st10 st0 st11">U</text>
	<text transform="matrix(1 0 0 1 467.8217 473.3149)" class="st10 st0 st11">X</text>
	<text transform="matrix(1 0 0 1 415.3457 509.1199)" class="st0 st1">Demultiplexing</text>
	<text transform="matrix(1 0 0 1 1802.36 290.74)" class="st0 st1">Cell type annotation</text>
	<path d="M1875.4,212.9c-0.3-0.5-0.8-0.7-1.3-0.7h-12.4c-2.3,0-4.4,1.2-5.5,3l-4.8,7.9c-1.1,1.9-1.1,4.2,0,6.1l4.8,7.9
		c1.1,1.9,3.2,3,5.5,3h12.4c0.6,0,1.1-0.3,1.3-0.7l7.8-12.4c0.3-0.5,0.3-1.1,0-1.5L1875.4,212.9z M1873.1,237h-11.5
		c-1.2,0-2.2-0.6-2.8-1.5l-4.8-7.9c-0.6-0.9-0.6-2.1,0-3.1l4.8-7.9c0.6-0.9,1.7-1.5,2.8-1.5h11.5l6.9,10.9L1873.1,237z"/>
	<path d="M1922.2,203.5l-9.8-15.6l3.2-6c0.4-0.7,0.1-1.6-0.7-2c-0.8-0.4-1.7-0.1-2.1,0.6l-3.2,6l-20.9,1l-5.1-5.7
		c-0.6-0.6-1.6-0.7-2.2-0.2c-0.7,0.5-0.7,1.5-0.2,2.1l4.9,5.5l-8.6,15.3c-0.3,0.6-0.5,1.2-0.6,1.8c-0.6-0.2-1.3-0.3-2-0.3H1856
		l-3.7-4.8c-0.5-0.7-1.5-0.8-2.2-0.3s-0.8,1.4-0.3,2.1l3.6,4.6L1844,223c-1.1,1.9-1.1,4.2,0,6.1l9.3,15.4l-3.6,4.6
		c-0.5,0.7-0.4,1.6,0.3,2.1c0.7,0.5,1.7,0.4,2.2-0.3l3.7-4.8h20.7l2.7,4.6c0.4,0.7,1.4,1,2.1,0.6c0.8-0.4,1-1.3,0.6-2l-2.7-4.6
		l9.7-15.4c0.4-0.6,0.7-1.3,0.8-2c0.7,0.2,1.4,0.3,2.2,0.3l18.8-0.6l4.7,6.1c0.5,0.7,1.5,0.8,2.2,0.3s0.8-1.4,0.3-2.1l-4.6-5.9
		l8.8-15.8C1923.4,207.6,1923.3,205.3,1922.2,203.5L1922.2,203.5z M1886.4,227.6l-9.7,15.5H1856l-9.4-15.5c-0.6-0.9-0.6-2.1,0-3.1
		l9.4-15.5h18.8c1.1,0,2.2,0.6,2.8,1.5l8.8,14C1887.1,225.5,1887.1,226.7,1886.4,227.6L1886.4,227.6z M1919.6,208.1l-8.9,15.8
		l-18.7,0.6c-1.2,0-2.3-0.5-2.9-1.5l0,0l0,0l-8.8-14l0,0l0,0c-0.6-0.9-0.6-2.1-0.1-3l8.6-15.5l20.8-0.9l9.8,15.5
		C1920.1,206,1920.1,207.1,1919.6,208.1L1919.6,208.1z"/>
	<path d="M1909.9,195.8c-1.2-1.9-3.4-3-5.8-2.9l-9.6,0.4c-2.2,0.1-4.3,1.3-5.3,3.2l-4.4,7.9c-1,1.8-1,4.1,0.1,5.9l5,8.2
		c1.2,2,3.4,3.1,5.7,3l9.3-0.3c2.3-0.1,4.4-1.3,5.4-3.2l4.6-8.3c1-1.9,0.9-4.1-0.2-5.9L1909.9,195.8z M1912.3,208.3l-4.6,8.3
		c-0.5,1-1.6,1.6-2.8,1.6l-9.3,0.3c-1.2,0-2.3-0.5-2.9-1.5l-5-8.2c-0.6-0.9-0.6-2.1-0.1-3l4.4-7.9c0.5-1,1.6-1.6,2.7-1.6l9.6-0.4
		c1.2-0.1,2.3,0.5,2.9,1.5l5,7.9C1912.8,206.2,1912.8,207.3,1912.3,208.3L1912.3,208.3z"/>
	<path d="M1899.9,198.8c-3.6,0-6.4,2-6.4,4.5s2.8,4.5,6.4,4.5s6.4-2,6.4-4.5C1906.2,200.8,1903.5,198.8,1899.9,198.8z M1899.9,204.9
		c-2,0-3.2-0.9-3.2-1.6c0-0.6,1.3-1.6,3.2-1.6s3.2,0.9,3.2,1.6S1901.9,204.9,1899.9,204.9z"/>
	<path d="M1865.9,218.8c-3.6,0-6.4,2-6.4,4.5s2.8,4.5,6.4,4.5s6.4-2,6.4-4.5C1872.2,220.7,1869.4,218.8,1865.9,218.8z M1865.9,224.8
		c-2,0-3.2-0.9-3.2-1.6c0-0.6,1.3-1.6,3.2-1.6s3.2,0.9,3.2,1.6C1869.1,223.9,1867.8,224.8,1865.9,224.8z"/>
	<path d="M1871.6,232.3c0,0.8-0.7,1.5-1.6,1.5s-1.6-0.7-1.6-1.5s0.7-1.5,1.6-1.5S1871.6,231.5,1871.6,232.3z"/>
	<path d="M1904.8,213.3c0,0.8-0.7,1.5-1.6,1.5s-1.6-0.7-1.6-1.5s0.7-1.5,1.6-1.5C1904.1,211.8,1904.8,212.4,1904.8,213.3z"/>
	<path class="st12" d="M1921,170h-18c0,0,0,8.6,0,15"/>
	<path class="st12" d="M1923,249h-24c0,0,0-12.5,0-18"/>
	<path class="st12" d="M1880,196h-23c0,0,0-17,0-18"/>
	<path class="st13" d="M1924,163h34v11h-34V163z"/>
	<path class="st13" d="M1925,242h32v13h-32V242z"/>
	<path class="st13" d="M1841,163h27v11h-27V163z"/>
	<path class="st13" d="M1810,236h27v10h-27V236z"/>
	<path class="st12" d="M1845,218h-9.7H1823v15"/>
	<path d="M749.7,421.6v0.8h1.3v-0.8H749.7z M749.7,306.6l-7.5,7.8h15.1L749.7,306.6z M561.9,422.4h187.7v-1.6H561.9V422.4z
		 M751,421.6V313.7h-2.6v107.9H751z"/>
	<text transform="matrix(1 0 0 1 807.395 514.434)" class="st2 st5 st6">SCE Output Data</text>
	<text transform="matrix(1 0 0 1 37.5646 353.1001)" class="st0 st1">Input </text>
	<text transform="matrix(1 0 0 1 8.5646 374.7001)" class="st0 st1">HTO FASTQ</text>
	<path d="M92,295.1h-2.4v-23.3c0-0.3-0.1-0.7-0.4-0.9l-18.5-18.2c-0.2-0.2-0.5-0.4-0.9-0.4H37.9c-4,0-7.3,3.4-7.3,7.6v35.2h-2.4
		c-0.7,0-1.3,0.5-1.3,1.2V317c0,0.7,0.6,1.2,1.3,1.2h2.4v4.3c0,4.2,3.3,7.6,7.3,7.6h44.3c4,0,7.3-3.4,7.3-7.6v-4.3H92
		c0.7,0,1.3-0.5,1.3-1.2v-20.8C93.3,295.5,92.7,295.1,92,295.1L92,295.1z M70.9,256.5l14.4,14.1H73.7c-0.8,0-1.5-0.3-2-0.9
		c-0.5-0.5-0.8-1.3-0.8-2C70.9,267.7,70.9,256.5,70.9,256.5z M33.1,259.9c0-2.8,2.2-5.1,4.8-5.1h30.5v12.8c0,1.4,0.5,2.8,1.5,3.8
		s2.4,1.6,3.8,1.6h13.4v22.1h-54V259.9z M87.1,322.5c0,2.8-2.2,5.1-4.8,5.1H37.9c-2.6,0-4.8-2.3-4.8-5.1v-4.3h54
		C87.1,318.2,87.1,322.5,87.1,322.5z M90.8,315.7H29.4v-18.2h61.4V315.7z"/>
	<text transform="matrix(1 0 0 1 36.0558 312.3512)" class="st0 st3">FASTQ</text>
	<text transform="matrix(1 0 0 1 273.6335 394.3505)" class="st0 st1"> </text>
	<path d="M403.2,419l-7.7-7.3v14.6L403.2,419z M272.2,311.3h0.8V310h-0.8V311.3z M272.2,520.9v1.3h0.8v-1.3H272.2z M272.2,420.2
		h124.1v-2.5H272.2V420.2z M273,419V311.3h-1.5V419H273z M272.2,310h-61.7v2.5h61.7V310z M271.5,419v102h1.5V419H271.5z
		 M272.2,519.7h-61.7v2.5h61.7V519.7z"/>
	<text transform="matrix(1 0 0 1 400.5328 332.4598)" class="st0 st1">HTO by cell count </text>
	<text transform="matrix(1 0 0 1 450.6298 353.4598)" class="st0 st1">matrix </text>
	<path d="M507,262.1h-2.4v-23.3c0-0.3-0.1-0.7-0.4-0.9l-18.5-18.2c-0.2-0.2-0.5-0.4-0.9-0.4H453c-4,0-7.3,3.4-7.3,7.6v35.2h-2.4
		c-0.7,0-1.3,0.5-1.3,1.2v20.8c0,0.7,0.6,1.2,1.3,1.2h2.4v4.3c0,4.2,3.3,7.6,7.3,7.6h44.3c4,0,7.3-3.4,7.3-7.6v-4.3h2.4
		c0.7,0,1.3-0.5,1.3-1.2v-20.8C508.3,262.6,507.7,262.1,507,262.1L507,262.1z M485.9,223.5l14.4,14.1h-11.6c-0.8,0-1.5-0.3-2-0.9
		c-0.5-0.5-0.8-1.3-0.8-2V223.5z M448.1,226.9c0-2.8,2.2-5.1,4.8-5.1h30.5v12.8c0,1.4,0.5,2.8,1.5,3.8s2.4,1.6,3.8,1.6h13.4v22.1
		h-54L448.1,226.9L448.1,226.9z M502.1,289.5c0,2.8-2.2,5.1-4.8,5.1H453c-2.6,0-4.8-2.3-4.8-5.1v-4.3h54v4.3H502.1z M505.9,282.8
		h-61.4v-18.2h61.4V282.8z"/>
	<text transform="matrix(1 0 0 1 459.1277 280.3708)" class="st0 st3">MTX</text>
	<path d="M479.8,231.7h-26.4c-1,0-1.7,0.8-1.7,1.7v28c0,1,0.8,1.7,1.7,1.7h6h7.2h13.2c1,0,1.7-0.8,1.7-1.7v-15.7v-4.2v-8.1
		C481.5,232.5,480.8,231.7,479.8,231.7L479.8,231.7z M480.6,241.1h-6.2v-3.2h6.2V241.1z M480.6,245.3h-6.2V242h6.2V245.3z
		 M480.6,249.5h-6.2v-3.2h6.2V249.5z M480.6,253.7h-6.2v-3.2h6.2V253.7z M452.6,250.5h6.2v3.2h-6.2V250.5z M452.6,246.3h6.2v3.2
		h-6.2V246.3z M452.6,242h6.2v3.2h-6.2V242z M459.9,246.3h6.2v3.2h-6.2V246.3z M467.1,246.3h6.2v3.2h-6.2V246.3z M473.3,245.3h-6.2
		V242h6.2V245.3z M466.1,245.3h-6.2V242h6.2V245.3z M459.9,250.5h6.2v3.2h-6.2V250.5z M467.1,250.5h6.2v3.2h-6.2V250.5z
		 M473.3,241.1h-6.2v-3.2h6.2V241.1z M466.1,241.1h-6.2v-3.2h6.2V241.1z M458.9,241.1h-6.2v-3.2h6.2V241.1z M452.6,254.7h6.2v3.2
		h-6.2V254.7z M459.9,254.7h6.2v3.2h-6.2V254.7z M467.1,254.7h6.2v3.2h-6.2V254.7z M474.3,254.7h6.2v3.2h-6.2V254.7z M480.6,233.4
		v3.3h-6.2v-4.1h5.5C480.2,232.7,480.6,233,480.6,233.4L480.6,233.4z M473.3,236.8h-6.2v-4.1h6.2V236.8z M466.1,236.8h-6.2v-4.1h6.2
		V236.8z M452.6,233.4c0-0.4,0.3-0.7,0.7-0.7h5.5v4.1h-6.2V233.4z M452.6,261.5V259h6.2v3.2h-5.5C453,262.2,452.6,261.8,452.6,261.5
		L452.6,261.5z M459.9,258.9h6.2v3.2h-6.2V258.9z M467.1,258.9h6.2v3.2h-6.2V258.9z M480.6,261.5c0,0.4-0.3,0.7-0.7,0.7h-5.5V259
		h6.2V261.5z"/>
	<path d="M462,235.3h2c0.3,0,0.5-0.2,0.5-0.5s-0.2-0.5-0.5-0.5h-2c-0.3,0-0.5,0.2-0.5,0.5S461.7,235.3,462,235.3z"/>
	<path d="M469.2,235.3h2c0.3,0,0.5-0.2,0.5-0.5s-0.2-0.5-0.5-0.5h-2c-0.3,0-0.5,0.2-0.5,0.5S468.9,235.3,469.2,235.3z"/>
	<path d="M476.4,235.3h2c0.3,0,0.5-0.2,0.5-0.5s-0.2-0.5-0.5-0.5h-2c-0.3,0-0.5,0.2-0.5,0.5S476.2,235.3,476.4,235.3z"/>
</g>
</svg>
