<?xml version="1.0" encoding="UTF-8"?>
<svg id="Layer_1" data-name="Layer 1" xmlns="http://www.w3.org/2000/svg" width="2300" height="1000" version="1.1" viewBox="0 0 2300 1000">
  <defs>
    <style>
      .cls-1 {
        stroke-linecap: round;
        stroke-linejoin: round;
      }

      .cls-1, .cls-2 {
        stroke: #010101;
        stroke-width: 2px;
      }

      .cls-1, .cls-2, .cls-3 {
        fill: none;
      }

      .cls-4 {
        letter-spacing: -.1em;
      }

      .cls-4, .cls-5, .cls-6, .cls-7, .cls-8, .cls-9, .cls-10, .cls-11, .cls-12, .cls-13, .cls-14, .cls-15, .cls-16, .cls-17, .cls-18, .cls-19, .cls-20, .cls-21 {
        isolation: isolate;
      }

      .cls-4, .cls-5, .cls-6, .cls-7, .cls-9, .cls-10, .cls-11, .cls-13, .cls-14, .cls-16, .cls-17, .cls-18, .cls-19, .cls-20, .cls-21 {
        font-family: ArialMT, Arial;
      }

      .cls-4, .cls-5, .cls-9, .cls-14, .cls-21 {
        font-size: 22.2px;
      }

      .cls-4, .cls-6, .cls-7, .cls-22, .cls-23, .cls-9, .cls-10, .cls-11, .cls-14, .cls-16, .cls-17, .cls-18, .cls-24, .cls-19, .cls-20, .cls-21 {
        fill: #010101;
      }

      .cls-5, .cls-8, .cls-12, .cls-13 {
        fill: #276242;
      }

      .cls-6, .cls-13, .cls-16, .cls-19, .cls-20 {
        font-size: 25.9px;
      }

      .cls-7 {
        letter-spacing: 0em;
      }

      .cls-7, .cls-10, .cls-11 {
        font-size: 16.3px;
      }

      .cls-22, .cls-24 {
        stroke-width: 0px;
      }

      .cls-23 {
        stroke: #000;
        stroke-miterlimit: 10;
        stroke-width: .2px;
      }

      .cls-8 {
        letter-spacing: 0em;
      }

      .cls-8, .cls-12 {
        font-family: Arial-BoldMT, Arial;
        font-size: 20.4px;
        font-weight: 700;
      }

      .cls-11 {
        letter-spacing: 0em;
      }

      .cls-14 {
        letter-spacing: 0em;
      }

      .cls-16 {
        letter-spacing: 0em;
      }

      .cls-17 {
        letter-spacing: 0em;
      }

      .cls-17, .cls-18 {
        font-size: 22.3px;
      }

      .cls-3 {
        stroke: #276242;
        stroke-width: 3px;
      }

      .cls-24 {
        fill-rule: evenodd;
      }

      .cls-19 {
        letter-spacing: -.1em;
      }

      .cls-20 {
        letter-spacing: 0em;
      }

      .cls-21 {
        letter-spacing: 0em;
      }
    </style>
  </defs>
  <g class="cls-15">
    <g class="cls-15">
      <text class="cls-13" transform="translate(805.7 291.5)"><tspan x="0" y="0">SingleCellExperiment (SCE)</tspan></text>
    </g>
  </g>
  <g class="cls-15">
    <g class="cls-15">
      <text class="cls-6" transform="translate(892.4 312.9)"><tspan x="0" y="0">object</tspan></text>
    </g>
  </g>
  <g>
    <path class="cls-22" d="M964.5,214.4h-2.5v-23.8c0-.3-.2-.7-.4-.9l-18.9-18.5c-.2-.2-.6-.4-.9-.4h-32.4c-4.1,0-7.5,3.5-7.5,7.7v35.8h-2.5c-.7,0-1.3.5-1.3,1.2v21.3c0,.7.6,1.2,1.3,1.2h2.5v4.4c0,4.2,3.4,7.7,7.5,7.7h45.2c4.1,0,7.5-3.5,7.5-7.7v-4.4h2.5c.7,0,1.3-.5,1.3-1.2v-21.3c0-.7-.6-1.1-1.3-1.1h0ZM943,175l14.7,14.3h-11.8c-.8,0-1.5-.3-2-.9-.6-.6-.9-1.3-.8-2.1v-11.4h0,0ZM904.4,178.4c0-2.9,2.2-5.2,5-5.2h31.1v13.1c0,1.4.6,2.8,1.6,3.9,1,1,2.4,1.6,3.8,1.6h13.6v22.5h-55.1v-35.9h0ZM959.5,242.3c0,2.9-2.2,5.2-5,5.2h-45.2c-2.7,0-5-2.4-5-5.2v-4.4h55.1v4.4h0ZM963.3,235.4h-62.6v-18.6h62.6v18.6Z"/>
    <g class="cls-15">
      <g class="cls-15">
        <text class="cls-10" transform="translate(917.8 232.2)"><tspan x="0" y="0">OBJ</tspan></text>
      </g>
    </g>
    <path class="cls-22" d="M922.4,180.2v-3.4c-.5,0-1.1.1-1.6.3v2.5l-13.1,13.1h-2.5c-.1.5-.2,1-.3,1.6h3.4l14.1-14.1Z"/>
    <path class="cls-22" d="M917.8,209.6l-1.9,5c.5.2,1,.4,1.5.7l1.6-4.3,15.8-3.2,4.4,3.2c0,0,.8-1.4.8-1.4l-5.1-3.5-17,3.5h0Z"/>
    <path class="cls-22" d="M938.3,190.7l4.4-2.9c-.2-.4-.5-.9-.7-1.3h0c0-.1-5.1,3.3-5.1,3.3l-1.7,14.4,5.8,4.2c.3-.4.6-.9.9-1.3l-5-3.6,1.5-12.8h0Z"/>
    <path class="cls-22" d="M941.1,185.4l-.4-.7c-.2-.2-.3-.4-.5-.6l-4.2,2.1-11.2-6.7v-2.8c-.5,0-1.1,0-1.6,0v3.6l12.8,7.7,5.2-2.6h0Z"/>
    <path class="cls-22" d="M919.9,191.1c-3.1,0-5.6,2.5-5.6,5.6s2.5,5.6,5.6,5.6,5.6-2.5,5.6-5.6c0-3.1-2.5-5.6-5.6-5.6ZM919.9,200.7c-2.2,0-4-1.8-4-4s1.8-4,4-4,4,1.8,4,4c0,2.2-1.8,4-4,4Z"/>
    <path class="cls-22" d="M927.6,191.9c1.5,0,2.8-1.3,2.8-2.8s-1.3-2.8-2.8-2.8-2.8,1.3-2.8,2.8c0,1.5,1.2,2.8,2.8,2.8ZM927.6,187.8c.7,0,1.2.5,1.2,1.2s-.5,1.2-1.2,1.2-1.2-.5-1.2-1.2c0-.6.5-1.2,1.2-1.2Z"/>
    <path class="cls-22" d="M932.2,198.2l-.3-.7-.3-.7c-.1,0-2.6.9-3.4,3-.5,1.1-.3,2.5.6,3.8l1.4-.8c-.6-.9-.7-1.7-.5-2.4.5-1.4,2.4-2.1,2.4-2.1h0s0,0,0,0Z"/>
    <path class="cls-22" d="M944,198.3c0,.9-.7,1.6-1.6,1.6s-1.6-.7-1.6-1.6.7-1.6,1.6-1.6,1.6.7,1.6,1.6Z"/>
    <path class="cls-22" d="M928.8,211.9c-2.2,0-4,1.8-4,4s0,.5,0,.8c.6,0,1.1,0,1.6,0,0-.2-.1-.5-.1-.7,0-1.3,1.1-2.4,2.4-2.4s2.2.9,2.4,2.2c.5-.2,1-.4,1.5-.6-.4-1.8-2-3.2-3.9-3.2h0Z"/>
    <path class="cls-22" d="M906.8,203.9c-.2,0-.4,0-.6.1.5,1.2,1.1,2.4,1.8,3.5.5-.4.8-.9.8-1.6,0-1.1-.9-2-2-2h0Z"/>
    <path class="cls-22" d="M912.6,181.3l1.1,1.1-4.4,4.4-1.1-1.1,4.4-4.4Z"/>
    <path class="cls-22" d="M908.4,195.1h-3.6c0,.5,0,1,0,1.6h2.8l7.6,12.9-1.4,3.8c.5.3.9.6,1.4.9l1.8-4.8-8.4-14.3h0Z"/>
  </g>
  <rect class="cls-3" x="1167" y="424" width="462.9" height="168.2"/>
  <g class="cls-15">
    <g class="cls-15">
      <text class="cls-12" transform="translate(970.6 526.5)"><tspan x="0" y="0">SCE Output Data</tspan></text>
    </g>
  </g>
  <g class="cls-15">
    <g class="cls-15">
      <text class="cls-12" transform="translate(1132.5 721.2)"><tspan x="0" y="0">AnnData RN</tspan></text>
    </g>
    <g class="cls-15">
      <text class="cls-8" transform="translate(1251.4 721.2)"><tspan x="0" y="0">A</tspan></text>
    </g>
    <g class="cls-15">
      <text class="cls-12" transform="translate(1265.4 721.2)"><tspan x="0" y="0" xml:space="preserve"> Outputs</tspan></text>
    </g>
  </g>
  <g class="cls-15">
    <g class="cls-15">
      <text class="cls-12" transform="translate(1430.3 722.2)"><tspan x="0" y="0">AnnData</tspan></text>
    </g>
    <g class="cls-15">
      <text class="cls-12" transform="translate(1519.1 722.2)"><tspan x="0" y="0">ADT Outputs</tspan></text>
    </g>
  </g>
  <rect class="cls-3" x="1793.1" y="424" width="299.8" height="168.2"/>
  <g class="cls-15">
    <g class="cls-15">
      <text class="cls-12" transform="translate(1700.5 526.5)"><tspan x="0" y="0">Reports</tspan></text>
    </g>
  </g>
  <g class="cls-15">
    <g class="cls-15">
      <text class="cls-5" transform="translate(1198.1 566.5)"><tspan x="0" y="0">SCE</tspan></text>
    </g>
  </g>
  <g class="cls-15">
    <g class="cls-15">
      <text class="cls-9" transform="translate(1210.4 545.1)"><tspan x="0" y="0">Unfiltered</tspan></text>
    </g>
  </g>
  <g class="cls-15">
    <g class="cls-15">
      <text class="cls-9" transform="translate(1243.2 566.5)"><tspan x="0" y="0" xml:space="preserve"> Object</tspan></text>
    </g>
  </g>
  <g>
    <path class="cls-22" d="M1273.6,488.1h-2.1v-20.1c0-.3-.2-.6-.3-.7l-16.1-15.8c-.2-.2-.5-.3-.8-.3h-27.5c-3.5,0-6.3,2.9-6.3,6.5v30.4h-2.1c-.6,0-1.1.4-1.1,1v18c0,.6.5,1,1.1,1h2.1v3.7c0,3.6,2.9,6.6,6.3,6.6h38.3c3.5,0,6.3-2.9,6.3-6.5v-3.7h2.1c.6,0,1.1-.4,1.1-1v-18c0-.6-.5-1-1.1-1h0ZM1255.4,454.7l12.5,12.2h-10.1c-.7,0-1.3-.3-1.8-.7s-.7-1.1-.7-1.8v-9.6h0ZM1222.7,457.6c0-2.4,1.9-4.4,4.2-4.4h26.4v11.1c0,1.2.5,2.4,1.3,3.3s2.1,1.4,3.3,1.4h11.5v19.1h-46.7v-30.5h0,0ZM1269.4,511.8c0,2.4-1.9,4.4-4.2,4.4h-38.3c-2.3,0-4.2-2-4.2-4.4v-3.7h46.7v3.7h0,0ZM1272.6,505.9h-53.1v-15.8h53.1v15.8Z"/>
    <g class="cls-15">
      <g class="cls-15">
        <text class="cls-10" transform="translate(1231.8 504.3)"><tspan x="0" y="0">RDS</tspan></text>
      </g>
    </g>
    <path class="cls-22" d="M1237.9,459.1v-2.9c-.4,0-.9.1-1.3.2v2.1l-11.1,11.1h-2.1c0,.5-.2.9-.2,1.3h2.9l11.9-11.9h0Z"/>
    <path class="cls-22" d="M1234,484l-1.6,4.2c.4.2.8.4,1.2.6l1.3-3.6,13.4-2.7,3.7,2.7c0,0,.7-1.2.7-1.2l-4.3-2.9-14.5,2.9h0Z"/>
    <path class="cls-22" d="M1251.4,468l3.7-2.5c-.2-.4-.4-.7-.6-1.1h0c0,0-4.3,2.8-4.3,2.8l-1.4,12.2,4.9,3.5c.3-.4.5-.7.7-1.1l-4.2-3,1.2-10.8h0Z"/>
    <path class="cls-22" d="M1253.8,463.5l-.3-.6c-.2-.2-.3-.4-.4-.6l-3.6,1.8-9.5-5.7v-2.4c-.4,0-.9,0-1.3,0v3l10.8,6.5,4.4-2.2h0s0,0,0,0Z"/>
    <path class="cls-22" d="M1235.8,468.3c-2.6,0-4.7,2.1-4.7,4.8s2.1,4.8,4.7,4.8,4.8-2.1,4.8-4.8-2.1-4.8-4.8-4.8ZM1235.8,476.4c-1.9,0-3.4-1.5-3.4-3.4s1.5-3.4,3.4-3.4,3.4,1.5,3.4,3.4c0,1.9-1.5,3.4-3.4,3.4Z"/>
    <path class="cls-22" d="M1242.3,469c1.3,0,2.4-1.1,2.4-2.4s-1-2.4-2.4-2.4-2.4,1.1-2.4,2.4,1,2.4,2.4,2.4ZM1242.3,465.6c.6,0,1,.5,1,1s-.4,1-1,1-1-.5-1-1c0-.6.4-1,1-1Z"/>
    <path class="cls-22" d="M1246.2,474.4l-.2-.6-.2-.6c0,0-2.2.7-2.9,2.5-.4,1-.2,2.1.5,3.2l1.2-.7c-.4-.8-.6-1.5-.4-2,.4-1.1,2-1.7,2.1-1.7h0Z"/>
    <path class="cls-22" d="M1256.2,474.4c0,.7-.6,1.3-1.3,1.3s-1.3-.6-1.3-1.3.6-1.3,1.3-1.3,1.3.6,1.3,1.3Z"/>
    <path class="cls-22" d="M1243.3,485.9c-1.9,0-3.4,1.5-3.4,3.4s0,.5,0,.7c.5,0,.9,0,1.4,0,0-.2-.1-.4-.1-.6,0-1.1.9-2,2.1-2s1.9.8,2,1.8c.4-.1.9-.3,1.3-.5-.4-1.5-1.7-2.7-3.3-2.7h0Z"/>
    <path class="cls-22" d="M1224.7,479.2c-.2,0-.4,0-.5,0,.4,1,.9,2,1.5,3,.4-.3.7-.8.7-1.4,0-.9-.8-1.7-1.7-1.7h0Z"/>
    <path class="cls-22" d="M1229.6,460l1,1-3.7,3.7-1-1,3.7-3.7Z"/>
    <path class="cls-22" d="M1226.1,471.7h-3.1c0,.5,0,.9,0,1.3h2.3l6.4,10.9-1.2,3.2c.4.3.8.5,1.2.7l1.5-4.1-7.2-12.1h0Z"/>
  </g>
  <g class="cls-15">
    <g class="cls-15">
      <text class="cls-5" transform="translate(1347.9 566.5)"><tspan x="0" y="0">SCE</tspan></text>
    </g>
  </g>
  <g class="cls-15">
    <g class="cls-15">
      <text class="cls-9" transform="translate(1369 545.1)"><tspan x="0" y="0">Filtered</tspan></text>
    </g>
  </g>
  <g class="cls-15">
    <g class="cls-15">
      <text class="cls-9" transform="translate(1393.1 566.5)"><tspan x="0" y="0" xml:space="preserve"> Object</tspan></text>
    </g>
  </g>
  <g>
    <path class="cls-22" d="M1426.6,488.1h-2.1v-20.1c0-.3-.2-.6-.3-.7l-16.1-15.8c-.2-.2-.5-.3-.8-.3h-27.5c-3.5,0-6.3,2.9-6.3,6.5v30.4h-2.1c-.6,0-1.1.4-1.1,1v18c0,.6.5,1,1.1,1h2.1v3.7c0,3.6,2.9,6.6,6.3,6.6h38.3c3.5,0,6.3-2.9,6.3-6.5v-3.7h2.1c.6,0,1.1-.4,1.1-1v-18c0-.6-.5-1-1.1-1h0ZM1408.3,454.7l12.5,12.2h-10.1c-.7,0-1.3-.3-1.8-.7s-.7-1.1-.7-1.8v-9.6h0ZM1375.7,457.6c0-2.4,1.9-4.4,4.2-4.4h26.4v11.1c0,1.2.5,2.4,1.3,3.3s2.1,1.4,3.3,1.4h11.5v19.1h-46.7v-30.5h0,0ZM1422.3,511.8c0,2.4-1.9,4.4-4.2,4.4h-38.3c-2.3,0-4.2-2-4.2-4.4v-3.7h46.7v3.7h0ZM1425.5,505.9h-53.1v-15.8h53.1v15.8h0Z"/>
    <g class="cls-15">
      <g class="cls-15">
        <text class="cls-10" transform="translate(1384.8 504.3)"><tspan x="0" y="0">RDS</tspan></text>
      </g>
    </g>
    <path class="cls-22" d="M1390.8,459.1v-2.9c-.4,0-.9.1-1.3.2v2.1l-11.1,11.1h-2.1c0,.5-.2.9-.2,1.3h2.9l11.9-11.9h0Z"/>
    <path class="cls-22" d="M1386.9,484l-1.6,4.2c.4.2.8.4,1.2.6l1.3-3.6,13.4-2.7,3.7,2.7c0,0,.7-1.2.7-1.2l-4.3-2.9-14.5,2.9h0Z"/>
    <path class="cls-22" d="M1404.3,468l3.7-2.5c-.2-.4-.4-.7-.6-1.1h0c0,0-4.3,2.8-4.3,2.8l-1.4,12.2,4.9,3.5c.3-.4.5-.7.7-1.1l-4.2-3,1.2-10.8h0Z"/>
    <path class="cls-22" d="M1406.7,463.5l-.3-.6c-.2-.2-.3-.4-.4-.6l-3.6,1.8-9.5-5.7v-2.4c-.4,0-.9,0-1.3,0v3l10.8,6.5,4.4-2.2h0s0,0,0,0Z"/>
    <path class="cls-22" d="M1388.8,468.3c-2.6,0-4.7,2.1-4.7,4.8s2.1,4.8,4.7,4.8,4.8-2.1,4.8-4.8c0-2.6-2.2-4.8-4.8-4.8ZM1388.8,476.4c-1.9,0-3.4-1.5-3.4-3.4s1.5-3.4,3.4-3.4,3.4,1.5,3.4,3.4-1.5,3.4-3.4,3.4Z"/>
    <path class="cls-22" d="M1395.2,469c1.3,0,2.4-1.1,2.4-2.4s-1-2.4-2.4-2.4-2.4,1.1-2.4,2.4,1.1,2.4,2.4,2.4ZM1395.2,465.6c.6,0,1,.5,1,1s-.4,1-1,1-1-.5-1-1,.4-1,1-1Z"/>
    <path class="cls-22" d="M1399.2,474.4l-.2-.6-.2-.6c0,0-2.2.7-2.9,2.5-.4,1-.2,2.1.5,3.2l1.2-.7c-.4-.8-.6-1.5-.4-2,.4-1.1,2.1-1.7,2.1-1.7h0Z"/>
    <path class="cls-22" d="M1409.2,474.4c0,.7-.6,1.3-1.3,1.3s-1.3-.6-1.3-1.3.6-1.3,1.3-1.3,1.3.6,1.3,1.3Z"/>
    <path class="cls-22" d="M1396.2,485.9c-1.9,0-3.4,1.5-3.4,3.4s0,.5,0,.7c.5,0,.9,0,1.4,0,0-.2-.1-.4-.1-.6,0-1.1.9-2,2.1-2s1.9.8,2,1.8c.4-.1.9-.3,1.3-.5-.3-1.5-1.7-2.7-3.3-2.7h0Z"/>
    <path class="cls-22" d="M1377.6,479.2c-.2,0-.4,0-.5,0,.4,1,.9,2,1.5,3,.4-.3.7-.8.7-1.4,0-.9-.7-1.7-1.7-1.7h0Z"/>
    <path class="cls-22" d="M1382.5,460l1,1-3.7,3.7-1-1,3.7-3.7Z"/>
    <path class="cls-22" d="M1379,471.7h-3.1c0,.5,0,.9,0,1.3h2.3l6.4,10.9-1.2,3.2c.4.3.8.5,1.2.7l1.5-4.1-7.2-12.1h0Z"/>
  </g>
  <g class="cls-15">
    <g class="cls-15">
      <text class="cls-5" transform="translate(1505.5 566.5)"><tspan x="0" y="0">SCE</tspan></text>
    </g>
  </g>
  <g class="cls-15">
    <g class="cls-15">
      <text class="cls-9" transform="translate(1513.8 545.1)"><tspan x="0" y="0">Processed</tspan></text>
    </g>
  </g>
  <g class="cls-15">
    <g class="cls-15">
      <text class="cls-9" transform="translate(1550.6 566.5)"><tspan x="0" y="0" xml:space="preserve"> Object</tspan></text>
    </g>
  </g>
  <g>
    <path class="cls-22" d="M1587.3,488.1h-2.1v-20.1c0-.3-.2-.6-.3-.7l-16.1-15.8c-.2-.2-.5-.3-.8-.3h-27.5c-3.5,0-6.3,2.9-6.3,6.5v30.4h-2.1c-.6,0-1.1.4-1.1,1v18c0,.6.5,1,1.1,1h2.1v3.7c0,3.6,2.9,6.6,6.3,6.6h38.3c3.5,0,6.3-2.9,6.3-6.5v-3.7h2.1c.6,0,1.1-.4,1.1-1v-18c0-.6-.5-1-1.1-1h0ZM1569.1,454.7l12.5,12.2h-10.1c-.7,0-1.3-.3-1.8-.7s-.7-1.1-.7-1.8v-9.6h0ZM1536.4,457.6c0-2.4,1.9-4.4,4.2-4.4h26.4v11.1c0,1.2.5,2.4,1.3,3.3s2.1,1.4,3.3,1.4h11.5v19.1h-46.7v-30.5h0,0ZM1583.1,511.8c0,2.4-1.9,4.4-4.2,4.4h-38.3c-2.3,0-4.2-2-4.2-4.4v-3.7h46.7v3.7h0,0ZM1586.3,505.9h-53.1v-15.8h53.1v15.8Z"/>
    <g class="cls-15">
      <g class="cls-15">
        <text class="cls-10" transform="translate(1546 504.3)"><tspan x="0" y="0">RDS</tspan></text>
      </g>
    </g>
    <path class="cls-22" d="M1551.6,459.1v-2.9c-.4,0-.9.1-1.3.2v2.1l-11.1,11.1h-2.1c0,.5-.2.9-.2,1.3h2.9l11.9-11.9h0Z"/>
    <path class="cls-22" d="M1547.7,484l-1.6,4.2c.4.2.8.4,1.2.6l1.3-3.6,13.4-2.7,3.7,2.7c0,0,.7-1.2.7-1.2l-4.3-2.9-14.5,2.9h0Z"/>
    <path class="cls-22" d="M1565.1,468l3.7-2.5c-.2-.4-.4-.7-.6-1.1h0c0,0-4.3,2.8-4.3,2.8l-1.4,12.2,4.9,3.5c.3-.4.5-.7.7-1.1l-4.2-3,1.2-10.8h0Z"/>
    <path class="cls-22" d="M1567.4,463.5l-.3-.6c-.2-.2-.3-.4-.4-.6l-3.6,1.8-9.5-5.7v-2.4c-.4,0-.9,0-1.3,0v3l10.8,6.5,4.4-2.2h0s0,0,0,0Z"/>
    <path class="cls-22" d="M1549.5,468.3c-2.6,0-4.7,2.1-4.7,4.8s2.1,4.8,4.7,4.8,4.8-2.1,4.8-4.8-2.1-4.8-4.8-4.8ZM1549.5,476.4c-1.9,0-3.4-1.5-3.4-3.4s1.5-3.4,3.4-3.4,3.4,1.5,3.4,3.4-1.5,3.4-3.4,3.4Z"/>
    <path class="cls-22" d="M1555.9,469c1.3,0,2.4-1.1,2.4-2.4s-1-2.4-2.4-2.4-2.4,1.1-2.4,2.4,1.1,2.4,2.4,2.4ZM1555.9,465.6c.6,0,1,.5,1,1s-.4,1-1,1-1-.5-1-1,.4-1,1-1Z"/>
    <path class="cls-22" d="M1559.9,474.4l-.2-.6-.2-.6c0,0-2.2.7-2.9,2.5-.4,1-.2,2.1.5,3.2l1.2-.7c-.4-.8-.6-1.5-.4-2,.4-1.1,2.1-1.7,2.1-1.7h0Z"/>
    <path class="cls-22" d="M1569.9,474.4c0,.7-.6,1.3-1.3,1.3s-1.3-.6-1.3-1.3.6-1.3,1.3-1.3,1.3.6,1.3,1.3Z"/>
    <path class="cls-22" d="M1557,485.9c-1.9,0-3.4,1.5-3.4,3.4s0,.5,0,.7c.5,0,.9,0,1.4,0,0-.2-.1-.4-.1-.6,0-1.1.9-2,2.1-2s1.9.8,2,1.8c.4-.1.9-.3,1.3-.5-.4-1.5-1.7-2.7-3.3-2.7h0Z"/>
    <path class="cls-22" d="M1538.3,479.2c-.2,0-.4,0-.5,0,.4,1,.9,2,1.5,3,.4-.3.7-.8.7-1.4,0-.9-.8-1.7-1.7-1.7h0Z"/>
    <path class="cls-22" d="M1543.3,460l1,1-3.7,3.7-1-1,3.7-3.7Z"/>
    <path class="cls-22" d="M1539.8,471.7h-3.1c0,.5,0,.9,0,1.3h2.3l6.4,10.9-1.2,3.2c.4.3.8.5,1.2.7l1.5-4.1-7.2-12.1h0Z"/>
  </g>
  <rect class="cls-3" x="1434.2" y="734" width="462.9" height="192.7"/>
  <g class="cls-15">
    <g class="cls-15">
      <text class="cls-5" transform="translate(1476.4 880.6)"><tspan x="0" y="0">AnnData</tspan></text>
    </g>
  </g>
  <g class="cls-15">
    <g class="cls-15">
      <text class="cls-9" transform="translate(1452.6 859.2)"><tspan x="0" y="0">Unfiltered</tspan></text>
    </g>
    <g class="cls-15">
      <text class="cls-9" transform="translate(1552.5 859.2)"><tspan x="0" y="0">AD</tspan></text>
    </g>
    <g class="cls-15">
      <text class="cls-14" transform="translate(1583.3 859.2)"><tspan x="0" y="0">T</tspan></text>
    </g>
  </g>
  <g class="cls-15">
    <g class="cls-15">
      <text class="cls-9" transform="translate(1485.6 902)"><tspan x="0" y="0">Object</tspan></text>
    </g>
  </g>
  <g>
    <path class="cls-22" d="M1539.8,800.1h-2.1v-20.1c0-.3-.2-.6-.3-.7l-16.1-15.8c-.2-.2-.5-.3-.8-.3h-27.5c-3.5,0-6.3,2.9-6.3,6.5v30.4h-2.1c-.6,0-1.1.4-1.1,1v18c0,.6.5,1,1.1,1h2.1v3.7c0,3.6,2.9,6.5,6.3,6.5h38.3c3.5,0,6.3-2.9,6.3-6.5v-3.7h2.1c.6,0,1.1-.4,1.1-1v-18c0-.6-.5-1-1.1-1h0ZM1521.5,766.7l12.5,12.2h-10.1c-.7,0-1.3-.3-1.8-.7s-.7-1.1-.7-1.8v-9.6h0ZM1488.8,769.6c0-2.4,1.9-4.4,4.2-4.4h26.4v11.1c0,1.2.5,2.4,1.3,3.3.9.9,2.1,1.4,3.3,1.4h11.5v19.1h-46.7v-30.5h0,0ZM1535.5,823.8c0,2.4-1.9,4.4-4.2,4.4h-38.3c-2.3,0-4.2-2-4.2-4.4v-3.7h46.7v3.7h0,0ZM1538.7,817.9h-53.1v-15.8h53.1v15.8Z"/>
    <g class="cls-15">
      <g class="cls-15">
        <text class="cls-10" transform="translate(1492.6 816.3)"><tspan x="0" y="0">H5AD</tspan></text>
      </g>
    </g>
    <path class="cls-22" d="M1504,771.1v-2.9c-.4,0-.9.1-1.3.2v2.1l-11.1,11.1h-2.1c0,.5-.2.9-.2,1.3h2.9l11.9-11.9h0Z"/>
    <path class="cls-22" d="M1500.1,796l-1.6,4.2c.4.2.8.4,1.2.6l1.3-3.6,13.4-2.7,3.7,2.7c0,0,.7-1.2.7-1.2l-4.3-2.9-14.5,2.9h0Z"/>
    <path class="cls-22" d="M1517.5,780l3.7-2.5c-.2-.4-.4-.7-.6-1.1h0c0,0-4.3,2.8-4.3,2.8l-1.4,12.2,4.9,3.5c.3-.4.5-.7.7-1.1l-4.2-3,1.2-10.8h0Z"/>
    <path class="cls-22" d="M1519.9,775.5l-.3-.6c-.2-.2-.3-.4-.4-.6l-3.6,1.8-9.5-5.7v-2.3c-.4,0-.9,0-1.3,0v3l10.8,6.5,4.4-2.2h0s0,0,0,0Z"/>
    <path class="cls-22" d="M1502,780.3c-2.6,0-4.7,2.1-4.7,4.8s2.1,4.8,4.7,4.8,4.8-2.1,4.8-4.8-2.2-4.8-4.8-4.8ZM1502,788.5c-1.9,0-3.4-1.5-3.4-3.4s1.5-3.4,3.4-3.4,3.4,1.5,3.4,3.4-1.5,3.4-3.4,3.4Z"/>
    <path class="cls-22" d="M1508.4,781c1.3,0,2.4-1.1,2.4-2.4s-1-2.4-2.4-2.4-2.4,1.1-2.4,2.4,1.1,2.4,2.4,2.4ZM1508.4,777.6c.6,0,1,.5,1,1s-.4,1-1,1-1-.5-1-1,.4-1,1-1Z"/>
    <path class="cls-22" d="M1512.3,786.4l-.2-.6-.2-.6c0,0-2.2.7-2.9,2.5-.4,1-.2,2.1.5,3.2l1.2-.7c-.4-.8-.6-1.5-.4-2,.4-1.2,2.1-1.7,2.1-1.7h0Z"/>
    <path class="cls-22" d="M1522.3,786.4c0,.7-.6,1.3-1.3,1.3s-1.3-.6-1.3-1.3.6-1.3,1.3-1.3,1.3.6,1.3,1.3Z"/>
    <path class="cls-22" d="M1509.4,798c-1.9,0-3.4,1.5-3.4,3.4s0,.5,0,.7c.5,0,.9,0,1.4,0,0-.2-.1-.4-.1-.6,0-1.1.9-2,2.1-2s1.9.8,2,1.8c.4-.2.9-.3,1.3-.5-.4-1.5-1.8-2.7-3.3-2.7h0Z"/>
    <path class="cls-22" d="M1490.8,791.2c-.2,0-.4,0-.5,0,.4,1,.9,2,1.5,3,.4-.3.7-.8.7-1.4,0-.9-.8-1.7-1.7-1.7h0Z"/>
    <path class="cls-22" d="M1495.7,772l1,1-3.7,3.7-1-1,3.7-3.7Z"/>
    <path class="cls-22" d="M1492.2,783.7h-3.1c0,.5,0,.9,0,1.3h2.3l6.4,10.9-1.2,3.2c.4.3.8.5,1.2.7l1.5-4.1-7.2-12.1h0Z"/>
  </g>
  <g class="cls-15">
    <g class="cls-15">
      <text class="cls-5" transform="translate(1628.9 880.6)"><tspan x="0" y="0">AnnData</tspan></text>
    </g>
  </g>
  <g class="cls-15">
    <g class="cls-15">
      <text class="cls-9" transform="translate(1613.7 859.2)"><tspan x="0" y="0">Filtered</tspan></text>
    </g>
    <g class="cls-15">
      <text class="cls-9" transform="translate(1692.7 859.2)"><tspan x="0" y="0">AD</tspan></text>
    </g>
    <g class="cls-15">
      <text class="cls-14" transform="translate(1723.5 859.2)"><tspan x="0" y="0">T</tspan></text>
    </g>
  </g>
  <g class="cls-15">
    <g class="cls-15">
      <text class="cls-9" transform="translate(1638.1 902)"><tspan x="0" y="0">Object</tspan></text>
    </g>
  </g>
  <g>
    <path class="cls-22" d="M1693.7,800.1h-2.1v-20.1c0-.3-.2-.6-.3-.7l-16.1-15.8c-.2-.2-.5-.3-.8-.3h-27.5c-3.5,0-6.3,2.9-6.3,6.5v30.4h-2.1c-.6,0-1.1.4-1.1,1v18c0,.6.5,1,1.1,1h2.1v3.7c0,3.6,2.9,6.5,6.3,6.5h38.3c3.5,0,6.3-2.9,6.3-6.5v-3.7h2.1c.6,0,1.1-.4,1.1-1v-18c0-.6-.5-1-1.1-1h0ZM1675.5,766.7l12.5,12.2h-10.1c-.7,0-1.3-.3-1.8-.7s-.7-1.1-.7-1.8v-9.6h0ZM1642.8,769.6c0-2.4,1.9-4.4,4.2-4.4h26.4v11.1c0,1.2.5,2.4,1.3,3.3.9.9,2.1,1.4,3.3,1.4h11.5v19.1h-46.7v-30.5h0,0ZM1689.5,823.8c0,2.4-1.9,4.4-4.2,4.4h-38.3c-2.3,0-4.2-2-4.2-4.4v-3.7h46.7v3.7h0,0ZM1692.7,817.9h-53.1v-15.8h53.1v15.8Z"/>
    <g class="cls-15">
      <g class="cls-15">
        <text class="cls-10" transform="translate(1647.6 816.4)"><tspan x="0" y="0">H5AD</tspan></text>
      </g>
    </g>
    <path class="cls-22" d="M1658,771.1v-2.9c-.4,0-.9.1-1.3.2v2.1l-11.1,11.1h-2.1c0,.5-.2.9-.2,1.3h2.9l11.9-11.9h0Z"/>
    <path class="cls-22" d="M1654.1,796l-1.6,4.2c.4.2.8.4,1.2.6l1.3-3.6,13.4-2.7,3.7,2.7c0,0,.7-1.2.7-1.2l-4.3-2.9-14.5,2.9h0Z"/>
    <path class="cls-22" d="M1671.5,780l3.7-2.5c-.2-.4-.4-.7-.6-1.1h0c0,0-4.3,2.8-4.3,2.8l-1.4,12.2,4.9,3.5c.3-.4.5-.7.7-1.1l-4.2-3,1.2-10.8h0Z"/>
    <path class="cls-22" d="M1673.9,775.5l-.3-.6c-.2-.2-.3-.4-.4-.6l-3.6,1.8-9.5-5.7v-2.3c-.4,0-.9,0-1.3,0v3l10.8,6.5,4.4-2.2h0s0,0,0,0Z"/>
    <path class="cls-22" d="M1655.9,780.3c-2.6,0-4.7,2.1-4.7,4.8s2.1,4.8,4.7,4.8,4.8-2.1,4.8-4.8-2.2-4.8-4.8-4.8ZM1655.9,788.5c-1.9,0-3.4-1.5-3.4-3.4s1.5-3.4,3.4-3.4,3.4,1.5,3.4,3.4-1.5,3.4-3.4,3.4Z"/>
    <path class="cls-22" d="M1662.4,781c1.3,0,2.4-1.1,2.4-2.4s-1-2.4-2.4-2.4-2.4,1.1-2.4,2.4,1.1,2.4,2.4,2.4ZM1662.4,777.6c.6,0,1,.5,1,1s-.4,1-1,1-1-.5-1-1,.4-1,1-1Z"/>
    <path class="cls-22" d="M1666.3,786.4l-.2-.6-.2-.6c0,0-2.2.7-2.9,2.5-.4,1-.2,2.1.5,3.2l1.2-.7c-.4-.8-.6-1.5-.4-2,.4-1.2,2.1-1.7,2.1-1.7h0Z"/>
    <path class="cls-22" d="M1676.3,786.4c0,.7-.6,1.3-1.3,1.3s-1.3-.6-1.3-1.3.6-1.3,1.3-1.3,1.3.6,1.3,1.3Z"/>
    <path class="cls-22" d="M1663.4,798c-1.9,0-3.4,1.5-3.4,3.4s0,.5,0,.7c.5,0,.9,0,1.4,0,0-.2-.1-.4-.1-.6,0-1.1.9-2,2.1-2s1.9.8,2,1.8c.4-.2.9-.3,1.3-.5-.3-1.5-1.7-2.7-3.3-2.7h0Z"/>
    <path class="cls-22" d="M1644.7,791.2c-.2,0-.4,0-.5,0,.4,1,.9,2,1.5,3,.4-.3.7-.8.7-1.4,0-.9-.7-1.7-1.7-1.7h0Z"/>
    <path class="cls-22" d="M1649.7,772l1,1-3.7,3.7-1-1,3.7-3.7Z"/>
    <path class="cls-22" d="M1646.2,783.7h-3.1c0,.5,0,.9,0,1.3h2.3l6.4,10.9-1.2,3.2c.4.3.8.5,1.2.7l1.5-4.1-7.2-12.1h0Z"/>
  </g>
  <g class="cls-15">
    <g class="cls-15">
      <text class="cls-5" transform="translate(1806.9 880.6)"><tspan x="0" y="0">AnnData</tspan></text>
    </g>
  </g>
  <g class="cls-15">
    <g class="cls-15">
      <text class="cls-9" transform="translate(1774.2 859.2)"><tspan x="0" y="0">Processed</tspan></text>
    </g>
  </g>
  <g class="cls-15">
    <g class="cls-15">
      <text class="cls-9" transform="translate(1760.1 880.6)"><tspan x="0" y="0">AD</tspan></text>
    </g>
    <g class="cls-15">
      <text class="cls-14" transform="translate(1790.9 880.6)"><tspan x="0" y="0">T</tspan></text>
    </g>
  </g>
  <g class="cls-15">
    <g class="cls-15">
      <text class="cls-9" transform="translate(1791 902)"><tspan x="0" y="0">Object</tspan></text>
    </g>
  </g>
  <g>
    <path class="cls-22" d="M1850.8,800.1h-2.1v-20.1c0-.3-.2-.6-.3-.7l-16.1-15.8c-.2-.2-.5-.3-.8-.3h-27.5c-3.5,0-6.3,2.9-6.3,6.5v30.4h-2.1c-.6,0-1.1.4-1.1,1v18c0,.6.5,1,1.1,1h2.1v3.7c0,3.6,2.9,6.5,6.3,6.5h38.3c3.5,0,6.3-2.9,6.3-6.5v-3.7h2.1c.6,0,1.1-.4,1.1-1v-18c0-.6-.5-1-1.1-1h0ZM1832.5,766.7l12.5,12.2h-10.1c-.7,0-1.3-.3-1.8-.7s-.7-1.1-.7-1.8v-9.6h0ZM1799.8,769.6c0-2.4,1.9-4.4,4.2-4.4h26.4v11.1c0,1.2.5,2.4,1.3,3.3.9.9,2.1,1.4,3.3,1.4h11.5v19.1h-46.7v-30.5h0ZM1846.5,823.8c0,2.4-1.9,4.4-4.2,4.4h-38.3c-2.3,0-4.2-2-4.2-4.4v-3.7h46.7v3.7h0,0ZM1849.7,817.9h-53.1v-15.8h53.1v15.8Z"/>
    <g class="cls-15">
      <g class="cls-15">
        <text class="cls-10" transform="translate(1804.6 816.3)"><tspan x="0" y="0">H5AD</tspan></text>
      </g>
    </g>
    <path class="cls-22" d="M1815,771.1v-2.9c-.4,0-.9.1-1.3.2v2.1l-11.1,11.1h-2.1c0,.5-.2.9-.2,1.3h2.9l11.9-11.9h0Z"/>
    <path class="cls-22" d="M1811.1,796l-1.6,4.2c.4.2.8.4,1.2.6l1.3-3.6,13.4-2.7,3.7,2.7c0,0,.7-1.2.7-1.2l-4.3-2.9-14.5,2.9h0Z"/>
    <path class="cls-22" d="M1828.5,780l3.7-2.5c-.2-.4-.4-.7-.6-1.1h0c0,0-4.3,2.8-4.3,2.8l-1.4,12.2,4.9,3.5c.3-.4.5-.7.7-1.1l-4.2-3,1.2-10.8h0Z"/>
    <path class="cls-22" d="M1830.9,775.5l-.3-.6c-.2-.2-.3-.4-.4-.6l-3.6,1.8-9.5-5.7v-2.3c-.4,0-.9,0-1.3,0v3l10.8,6.5,4.4-2.2h0s0,0,0,0Z"/>
    <path class="cls-22" d="M1813,780.3c-2.6,0-4.7,2.1-4.7,4.8s2.1,4.8,4.7,4.8,4.8-2.1,4.8-4.8-2.2-4.8-4.8-4.8ZM1813,788.5c-1.9,0-3.4-1.5-3.4-3.4s1.5-3.4,3.4-3.4,3.4,1.5,3.4,3.4-1.5,3.4-3.4,3.4Z"/>
    <path class="cls-22" d="M1819.4,781c1.3,0,2.4-1.1,2.4-2.4s-1-2.4-2.4-2.4-2.4,1.1-2.4,2.4,1.1,2.4,2.4,2.4ZM1819.4,777.6c.6,0,1,.5,1,1s-.4,1-1,1-1-.5-1-1,.4-1,1-1Z"/>
    <path class="cls-22" d="M1823.4,786.4l-.2-.6-.2-.6c0,0-2.2.7-2.9,2.5-.4,1-.2,2.1.5,3.2l1.2-.7c-.4-.8-.6-1.5-.4-2,.4-1.2,2.1-1.7,2.1-1.7h0Z"/>
    <path class="cls-22" d="M1833.3,786.4c0,.7-.6,1.3-1.3,1.3s-1.3-.6-1.3-1.3.6-1.3,1.3-1.3,1.3.6,1.3,1.3Z"/>
    <path class="cls-22" d="M1820.4,798c-1.9,0-3.4,1.5-3.4,3.4s0,.5,0,.7c.5,0,.9,0,1.4,0,0-.2-.1-.4-.1-.6,0-1.1.9-2,2.1-2s1.9.8,2,1.8c.4-.2.9-.3,1.3-.5-.3-1.5-1.7-2.7-3.3-2.7h0Z"/>
    <path class="cls-22" d="M1801.8,791.2c-.2,0-.4,0-.5,0,.4,1,.9,2,1.5,3,.4-.3.7-.8.7-1.4,0-.9-.7-1.7-1.7-1.7h0Z"/>
    <path class="cls-22" d="M1806.7,772l1,1-3.7,3.7-1-1,3.7-3.7Z"/>
    <path class="cls-22" d="M1803.2,783.7h-3.1c0,.5,0,.9,0,1.3h2.3l6.4,10.9-1.2,3.2c.4.3.8.5,1.2.7l1.5-4.1-7.2-12.1h0Z"/>
  </g>
  <rect class="cls-3" x="892.7" y="736" width="462.9" height="192.7"/>
  <g class="cls-15">
    <g class="cls-15">
      <text class="cls-5" transform="translate(936.5 880.6)"><tspan x="0" y="0">AnnData</tspan></text>
    </g>
  </g>
  <g class="cls-15">
    <g class="cls-15">
      <text class="cls-9" transform="translate(911.5 859.2)"><tspan x="0" y="0">Unfiltered RN</tspan></text>
    </g>
    <g class="cls-15">
      <text class="cls-4" transform="translate(1044.7 859.2)"><tspan x="0" y="0">A</tspan></text>
    </g>
  </g>
  <g class="cls-15">
    <g class="cls-15">
      <text class="cls-9" transform="translate(945.7 902)"><tspan x="0" y="0">Object</tspan></text>
    </g>
  </g>
  <g>
    <path class="cls-22" d="M999.3,800.1h-2.1v-20.1c0-.3-.1-.6-.3-.7l-16-15.8c-.2-.2-.5-.3-.7-.3h-27.5c-3.5,0-6.3,2.9-6.3,6.5v30.4h-2.1c-.6,0-1.1.4-1.1,1v18c0,.6.5,1,1.1,1h2.1v3.7c0,3.6,2.9,6.5,6.3,6.5h38.3c3.5,0,6.3-2.9,6.3-6.5v-3.7h2.1c.6,0,1.1-.4,1.1-1v-18c0-.6-.5-1-1.1-1h0ZM981.1,766.7l12.5,12.2h-10c-.7,0-1.3-.3-1.8-.7s-.7-1.1-.7-1.8v-9.6h0ZM948.4,769.6c0-2.4,1.9-4.4,4.2-4.4h26.4v11.1c0,1.2.5,2.4,1.3,3.3s2,1.4,3.3,1.4h11.5v19.1h-46.7v-30.5h0ZM995.1,823.8c0,2.4-1.9,4.4-4.2,4.4h-38.3c-2.3,0-4.2-2-4.2-4.4v-3.7h46.7v3.7h0ZM998.3,817.9h-53.1v-15.8h53.1v15.8Z"/>
    <g class="cls-15">
      <g class="cls-15">
        <text class="cls-10" transform="translate(952.1 816.4)"><tspan x="0" y="0">H5AD</tspan></text>
      </g>
    </g>
    <path class="cls-22" d="M963.6,771.1v-2.9c-.5,0-.9.1-1.3.2v2.1l-11.1,11.1h-2.1c0,.5-.2.9-.2,1.3h2.9l11.9-11.9h0Z"/>
    <path class="cls-22" d="M959.7,796l-1.6,4.2c.4.2.8.4,1.2.6l1.4-3.6,13.4-2.7,3.7,2.7c0,0,.7-1.2.7-1.2l-4.3-2.9-14.5,2.9h0Z"/>
    <path class="cls-22" d="M977.1,780l3.7-2.5c-.2-.4-.4-.7-.6-1.1h0c0,0-4.3,2.8-4.3,2.8l-1.5,12.2,5,3.5c.3-.4.5-.7.7-1.1l-4.2-3,1.2-10.8h0Z"/>
    <path class="cls-22" d="M979.5,775.5l-.3-.6c-.2-.2-.3-.4-.4-.6l-3.6,1.8-9.5-5.7v-2.3c-.5,0-.9,0-1.3,0v3l10.8,6.5,4.4-2.2h0s0,0,0,0Z"/>
    <path class="cls-22" d="M961.6,780.3c-2.6,0-4.8,2.1-4.8,4.8s2.1,4.8,4.8,4.8,4.8-2.1,4.8-4.8c0-2.6-2.2-4.8-4.8-4.8ZM961.6,788.5c-1.9,0-3.4-1.5-3.4-3.4s1.5-3.4,3.4-3.4,3.4,1.5,3.4,3.4-1.5,3.4-3.4,3.4Z"/>
    <path class="cls-22" d="M968,781c1.3,0,2.4-1.1,2.4-2.4s-1.1-2.4-2.4-2.4-2.4,1.1-2.4,2.4,1.1,2.4,2.4,2.4ZM968,777.6c.6,0,1,.5,1,1s-.5,1-1,1-1-.5-1-1c0-.5.5-1,1-1Z"/>
    <path class="cls-22" d="M972,786.4l-.2-.6-.2-.6c0,0-2.2.7-2.9,2.5-.4,1-.2,2.1.5,3.2l1.2-.7c-.5-.8-.6-1.5-.4-2,.4-1.2,2-1.7,2-1.7h0Z"/>
    <path class="cls-22" d="M981.9,786.4c0,.7-.6,1.3-1.3,1.3s-1.3-.6-1.3-1.3.6-1.3,1.3-1.3,1.3.6,1.3,1.3Z"/>
    <path class="cls-22" d="M969,798c-1.9,0-3.4,1.5-3.4,3.4s0,.5,0,.7c.5,0,.9,0,1.4,0,0-.2-.1-.4-.1-.6,0-1.1.9-2,2-2s1.9.8,2,1.8c.5-.2.9-.3,1.3-.5-.3-1.5-1.7-2.7-3.3-2.7h0Z"/>
    <path class="cls-22" d="M950.3,791.2c-.2,0-.4,0-.5,0,.4,1,.9,2,1.5,3,.4-.3.7-.8.7-1.4,0-.9-.8-1.7-1.7-1.7h0Z"/>
    <path class="cls-22" d="M955.3,772l1,1-3.7,3.7-1-1,3.7-3.7Z"/>
    <path class="cls-22" d="M951.8,783.7h-3c0,.5,0,.9,0,1.3h2.3l6.4,10.9-1.2,3.2c.4.3.8.5,1.2.7l1.5-4.1-7.2-12.1h0Z"/>
  </g>
  <g class="cls-15">
    <g class="cls-15">
      <text class="cls-5" transform="translate(1090.5 880.6)"><tspan x="0" y="0">AnnData</tspan></text>
    </g>
  </g>
  <g class="cls-15">
    <g class="cls-15">
      <text class="cls-9" transform="translate(1074.2 859.2)"><tspan x="0" y="0">Filtered RN</tspan></text>
    </g>
    <g class="cls-15">
      <text class="cls-4" transform="translate(1186.3 859.2)"><tspan x="0" y="0">A</tspan></text>
    </g>
  </g>
  <g class="cls-15">
    <g class="cls-15">
      <text class="cls-9" transform="translate(1099.7 902)"><tspan x="0" y="0">Object</tspan></text>
    </g>
  </g>
  <g>
    <path class="cls-22" d="M1152.3,800.1h-2.1v-20.1c0-.3-.2-.6-.3-.7l-16.1-15.8c-.2-.2-.5-.3-.8-.3h-27.5c-3.5,0-6.3,2.9-6.3,6.5v30.4h-2.1c-.6,0-1.1.4-1.1,1v18c0,.6.5,1,1.1,1h2.1v3.7c0,3.6,2.9,6.5,6.3,6.5h38.3c3.5,0,6.3-2.9,6.3-6.5v-3.7h2.1c.6,0,1.1-.4,1.1-1v-18c0-.6-.5-1-1.1-1h0ZM1134,766.7l12.5,12.2h-10.1c-.7,0-1.3-.3-1.8-.7s-.7-1.1-.7-1.8v-9.6h0ZM1101.4,769.6c0-2.4,1.9-4.4,4.2-4.4h26.4v11.1c0,1.2.5,2.4,1.3,3.3.9.9,2.1,1.4,3.3,1.4h11.5v19.1h-46.7v-30.5h0,0ZM1148,823.8c0,2.4-1.9,4.4-4.2,4.4h-38.3c-2.3,0-4.2-2-4.2-4.4v-3.7h46.7v3.7h0,0ZM1151.2,817.9h-53.1v-15.8h53.1v15.8Z"/>
    <g class="cls-15">
      <g class="cls-15">
        <text class="cls-10" transform="translate(1106.1 816.3)"><tspan x="0" y="0">H5AD</tspan></text>
      </g>
    </g>
    <path class="cls-22" d="M1116.5,771.1v-2.9c-.4,0-.9.1-1.3.2v2.1l-11.1,11.1h-2.1c0,.5-.2.9-.2,1.3h2.9l11.9-11.9h0Z"/>
    <path class="cls-22" d="M1112.6,796l-1.6,4.2c.4.2.8.4,1.2.6l1.3-3.6,13.4-2.7,3.7,2.7c0,0,.7-1.2.7-1.2l-4.3-2.9-14.5,2.9h0Z"/>
    <path class="cls-22" d="M1130.1,780l3.7-2.5c-.2-.4-.4-.7-.6-1.1h0c0,0-4.3,2.8-4.3,2.8l-1.4,12.2,4.9,3.5c.3-.4.5-.7.7-1.1l-4.2-3,1.2-10.8h0Z"/>
    <path class="cls-22" d="M1132.4,775.5l-.3-.6c-.2-.2-.3-.4-.4-.6l-3.6,1.8-9.5-5.7v-2.3c-.4,0-.9,0-1.3,0v3l10.8,6.5,4.4-2.2h0s0,0,0,0Z"/>
    <path class="cls-22" d="M1114.5,780.3c-2.6,0-4.7,2.1-4.7,4.8s2.1,4.8,4.7,4.8,4.8-2.1,4.8-4.8-2.2-4.8-4.8-4.8ZM1114.5,788.5c-1.9,0-3.4-1.5-3.4-3.4s1.5-3.4,3.4-3.4,3.4,1.5,3.4,3.4-1.5,3.4-3.4,3.4Z"/>
    <path class="cls-22" d="M1120.9,781c1.3,0,2.4-1.1,2.4-2.4s-1-2.4-2.4-2.4-2.4,1.1-2.4,2.4,1.1,2.4,2.4,2.4ZM1120.9,777.6c.6,0,1,.5,1,1s-.4,1-1,1-1-.5-1-1,.4-1,1-1Z"/>
    <path class="cls-22" d="M1124.9,786.4l-.2-.6-.2-.6c0,0-2.2.7-2.9,2.5-.4,1-.2,2.1.5,3.2l1.2-.7c-.4-.8-.6-1.5-.4-2,.4-1.2,2.1-1.7,2.1-1.7h0Z"/>
    <path class="cls-22" d="M1134.9,786.4c0,.7-.6,1.3-1.3,1.3s-1.3-.6-1.3-1.3.6-1.3,1.3-1.3,1.3.6,1.3,1.3Z"/>
    <path class="cls-22" d="M1122,798c-1.9,0-3.4,1.5-3.4,3.4s0,.5,0,.7c.5,0,.9,0,1.4,0,0-.2-.1-.4-.1-.6,0-1.1.9-2,2.1-2s1.9.8,2,1.8c.4-.2.9-.3,1.3-.5-.4-1.5-1.8-2.7-3.3-2.7h0Z"/>
    <path class="cls-22" d="M1103.3,791.2c-.2,0-.4,0-.5,0,.4,1,.9,2,1.5,3,.4-.3.7-.8.7-1.4,0-.9-.8-1.7-1.7-1.7h0Z"/>
    <path class="cls-22" d="M1108.2,772l1,1-3.7,3.7-1-1,3.7-3.7Z"/>
    <path class="cls-22" d="M1104.7,783.7h-3.1c0,.5,0,.9,0,1.3h2.3l6.4,10.9-1.2,3.2c.4.3.8.5,1.2.7l1.5-4.1-7.2-12.1h0Z"/>
  </g>
  <g class="cls-15">
    <g class="cls-15">
      <text class="cls-5" transform="translate(1266.7 880.6)"><tspan x="0" y="0">AnnData</tspan></text>
    </g>
  </g>
  <g class="cls-15">
    <g class="cls-15">
      <text class="cls-9" transform="translate(1236.8 859.2)"><tspan x="0" y="0">Processed</tspan></text>
    </g>
  </g>
  <g class="cls-15">
    <g class="cls-15">
      <text class="cls-9" transform="translate(1212.7 880.6)"><tspan x="0" y="0">RN</tspan></text>
    </g>
    <g class="cls-15">
      <text class="cls-4" transform="translate(1244.7 880.6)"><tspan x="0" y="0">A</tspan></text>
    </g>
  </g>
  <g class="cls-15">
    <g class="cls-15">
      <text class="cls-9" transform="translate(1253.7 902)"><tspan x="0" y="0">Object</tspan></text>
    </g>
  </g>
  <g>
    <path class="cls-22" d="M1308.3,800.1h-2.1v-20.1c0-.3-.2-.6-.3-.7l-16.1-15.8c-.2-.2-.5-.3-.8-.3h-27.5c-3.5,0-6.3,2.9-6.3,6.5v30.4h-2.1c-.6,0-1.1.4-1.1,1v18c0,.6.5,1,1.1,1h2.1v3.7c0,3.6,2.9,6.5,6.3,6.5h38.3c3.5,0,6.3-2.9,6.3-6.5v-3.7h2.1c.6,0,1.1-.4,1.1-1v-18c0-.6-.5-1-1.1-1h0ZM1290,766.7l12.5,12.2h-10.1c-.7,0-1.3-.3-1.8-.7s-.7-1.1-.7-1.8v-9.6h0ZM1257.3,769.6c0-2.4,1.9-4.4,4.2-4.4h26.4v11.1c0,1.2.5,2.4,1.3,3.3.9.9,2.1,1.4,3.3,1.4h11.5v19.1h-46.7v-30.5h0,0ZM1304.1,823.8c0,2.4-1.9,4.4-4.2,4.4h-38.3c-2.3,0-4.2-2-4.2-4.4v-3.7h46.7v3.7h0,0ZM1307.3,817.9h-53.1v-15.8h53.1v15.8Z"/>
    <g class="cls-15">
      <g class="cls-15">
        <text class="cls-10" transform="translate(1262.1 816.4)"><tspan x="0" y="0">H5AD</tspan></text>
      </g>
    </g>
    <path class="cls-22" d="M1272.5,771.1v-2.9c-.4,0-.9.1-1.3.2v2.1l-11.1,11.1h-2.1c0,.5-.2.9-.2,1.3h2.9l11.9-11.9h0Z"/>
    <path class="cls-22" d="M1268.7,796l-1.6,4.2c.4.2.8.4,1.2.6l1.3-3.6,13.4-2.7,3.7,2.7c0,0,.7-1.2.7-1.2l-4.3-2.9-14.5,2.9h0Z"/>
    <path class="cls-22" d="M1286.1,780l3.7-2.5c-.2-.4-.4-.7-.6-1.1h0c0,0-4.3,2.8-4.3,2.8l-1.4,12.2,4.9,3.5c.3-.4.5-.7.7-1.1l-4.2-3,1.2-10.8h0Z"/>
    <path class="cls-22" d="M1288.5,775.5l-.3-.6c-.2-.2-.3-.4-.4-.6l-3.6,1.8-9.5-5.7v-2.3c-.4,0-.9,0-1.3,0v3l10.8,6.5,4.4-2.2h0s0,0,0,0Z"/>
    <path class="cls-22" d="M1270.5,780.3c-2.6,0-4.7,2.1-4.7,4.8s2.1,4.8,4.7,4.8,4.8-2.1,4.8-4.8c0-2.6-2.2-4.8-4.8-4.8ZM1270.5,788.5c-1.9,0-3.4-1.5-3.4-3.4s1.5-3.4,3.4-3.4,3.4,1.5,3.4,3.4-1.5,3.4-3.4,3.4Z"/>
    <path class="cls-22" d="M1277,781c1.3,0,2.4-1.1,2.4-2.4s-1-2.4-2.4-2.4-2.4,1.1-2.4,2.4,1.1,2.4,2.4,2.4ZM1277,777.6c.6,0,1,.5,1,1s-.4,1-1,1-1-.5-1-1c0-.5.4-1,1-1Z"/>
    <path class="cls-22" d="M1280.9,786.4l-.2-.6-.2-.6c0,0-2.2.7-2.9,2.5-.4,1-.2,2.1.5,3.2l1.2-.7c-.4-.8-.6-1.5-.4-2,.4-1.2,2-1.7,2.1-1.7h0Z"/>
    <path class="cls-22" d="M1290.8,786.4c0,.7-.6,1.3-1.3,1.3s-1.3-.6-1.3-1.3.6-1.3,1.3-1.3,1.3.6,1.3,1.3Z"/>
    <path class="cls-22" d="M1278,798c-1.9,0-3.4,1.5-3.4,3.4s0,.5,0,.7c.5,0,.9,0,1.4,0,0-.2-.1-.4-.1-.6,0-1.1.9-2,2.1-2s1.9.8,2,1.8c.4-.2.9-.3,1.3-.5-.4-1.5-1.7-2.7-3.3-2.7h0Z"/>
    <path class="cls-22" d="M1259.3,791.2c-.2,0-.4,0-.5,0,.4,1,.9,2,1.5,3,.4-.3.7-.8.7-1.4,0-.9-.8-1.7-1.7-1.7h0Z"/>
    <path class="cls-22" d="M1264.3,772l1,1-3.7,3.7-1-1,3.7-3.7Z"/>
    <path class="cls-22" d="M1260.7,783.7h-3.1c0,.5,0,.9,0,1.3h2.3l6.4,10.9-1.2,3.2c.4.3.8.5,1.2.7l1.5-4.1-7.2-12.1h0Z"/>
  </g>
  <g class="cls-15">
    <g class="cls-15">
      <text class="cls-9" transform="translate(1827.8 545.1)"><tspan x="0" y="0">Summary</tspan></text>
    </g>
  </g>
  <g class="cls-15">
    <g class="cls-15">
      <text class="cls-9" transform="translate(1823.1 566.5)"><tspan x="0" y="0">QC Report</tspan></text>
    </g>
  </g>
  <g>
    <path class="cls-22" d="M1899.9,488.1h-2.1v-20.1c0-.3-.2-.6-.3-.7l-16.1-15.8c-.2-.2-.5-.3-.8-.3h-27.5c-3.5,0-6.3,2.9-6.3,6.5v30.4h-2.1c-.6,0-1.1.4-1.1,1v18c0,.6.5,1,1.1,1h2.1v3.7c0,3.6,2.9,6.6,6.3,6.6h38.3c3.5,0,6.3-2.9,6.3-6.5v-3.7h2.1c.6,0,1.1-.4,1.1-1v-18c0-.6-.5-1-1.1-1h0ZM1881.7,454.7l12.5,12.2h-10.1c-.7,0-1.3-.3-1.8-.7s-.7-1.1-.7-1.8v-9.6h0ZM1849,457.6c0-2.4,1.9-4.4,4.2-4.4h26.4v11.1c0,1.2.5,2.4,1.3,3.3s2.1,1.4,3.3,1.4h11.5v19.1h-46.7v-30.5h0,0ZM1895.7,511.8c0,2.4-1.9,4.4-4.2,4.4h-38.3c-2.3,0-4.2-2-4.2-4.4v-3.7h46.7v3.7h0,0ZM1898.9,505.9h-53.1v-15.8h53.1v15.8Z"/>
    <g class="cls-15">
      <g class="cls-15">
        <text class="cls-10" transform="translate(1854.3 504.3)"><tspan x="0" y="0">HTM</tspan></text>
      </g>
      <g class="cls-15">
        <text class="cls-7" transform="translate(1889.7 504.3)"><tspan x="0" y="0">L</tspan></text>
      </g>
    </g>
    <path class="cls-22" d="M1856.9,481.2v7.3c0,.7-.6,1.2-1.3,1.2h-4.1c-.7,0-1.3-.5-1.3-1.2v-7.3c0-.7.6-1.2,1.3-1.2h4.1c.7,0,1.3.5,1.3,1.2Z"/>
    <path class="cls-22" d="M1851.5,475.7c0-.8.7-1.5,1.6-1.5s.6,0,.8.2l5.7-6c-.2-.3-.3-.6-.3-.9,0-.8.7-1.5,1.6-1.5s1.6.7,1.6,1.5,0,.3,0,.4l5.4,2.6c.3-.3.7-.5,1.2-.5s.6,0,.8.2l6.4-6.1c-.2-.2-.3-.5-.3-.8,0-.8.7-1.5,1.6-1.5s1.6.7,1.6,1.5-.7,1.5-1.6,1.5-.6,0-.8-.2l-6.4,6.2c.2.2.3.5.3.8,0,.8-.7,1.5-1.6,1.5s-1.6-.7-1.6-1.5,0-.3,0-.4l-5.4-2.7c-.3.3-.7.5-1.2.5s-.6,0-.8-.2l-5.7,6c.2.3.3.6.3.9,0,.8-.7,1.5-1.6,1.5s-1.6-.7-1.6-1.5Z"/>
    <path class="cls-22" d="M1864.7,474.3v13.7c0,.7-.5,1.3-1.2,1.3h-3.8c-.6,0-1.2-.6-1.2-1.3v-13.7c0-.7.5-1.3,1.2-1.3h3.8c.6,0,1.2.6,1.2,1.3Z"/>
    <path class="cls-22" d="M1873.1,477.9v10.6c0,.7-.6,1.2-1.3,1.2h-4.1c-.7,0-1.3-.5-1.3-1.2v-10.6c0-.7.6-1.2,1.3-1.2h4.1c.7,0,1.3.5,1.3,1.2Z"/>
    <path class="cls-22" d="M1881,473v15.2c0,.6-.5,1.1-1.2,1.1h-3.8c-.6,0-1.2-.5-1.2-1.1v-15.2c0-.6.5-1.1,1.2-1.1h3.8c.7,0,1.2.5,1.2,1.1Z"/>
  </g>
  <g class="cls-15">
    <g class="cls-15">
      <text class="cls-9" transform="translate(1988 545.1)"><tspan x="0" y="0">Cell</tspan></text>
    </g>
    <g class="cls-15">
      <text class="cls-21" transform="translate(2031.9 545.1)"><tspan x="0" y="0">T</tspan></text>
    </g>
    <g class="cls-15">
      <text class="cls-9" transform="translate(2044.3 545.1)"><tspan x="0" y="0">ype</tspan></text>
    </g>
  </g>
  <g class="cls-15">
    <g class="cls-15">
      <text class="cls-9" transform="translate(1998.5 566.5)"><tspan x="0" y="0">Report</tspan></text>
    </g>
  </g>
  <g>
    <path class="cls-22" d="M2055.3,488.1h-2.1v-20.1c0-.3-.1-.6-.3-.7l-16.1-15.8c-.2-.2-.5-.3-.8-.3h-27.5c-3.5,0-6.3,2.9-6.3,6.5v30.4h-2.1c-.6,0-1.1.4-1.1,1v18c0,.6.5,1,1.1,1h2.1v3.7c0,3.6,2.9,6.6,6.3,6.6h38.3c3.5,0,6.3-2.9,6.3-6.5v-3.7h2.1c.6,0,1.1-.4,1.1-1v-18c0-.6-.5-1-1.1-1h0ZM2037.1,454.7l12.5,12.2h-10.1c-.7,0-1.3-.3-1.8-.7s-.7-1.1-.7-1.8v-9.6ZM2004.4,457.6c0-2.4,1.9-4.4,4.2-4.4h26.4v11.1c0,1.2.5,2.4,1.3,3.3s2.1,1.4,3.3,1.4h11.5v19.1h-46.7v-30.5h0,0ZM2051.1,511.8c0,2.4-1.9,4.4-4.2,4.4h-38.3c-2.3,0-4.2-2-4.2-4.4v-3.7h46.7v3.7h0ZM2054.3,505.9h-53.1v-15.8h53.1v15.8Z"/>
    <g class="cls-15">
      <g class="cls-15">
        <text class="cls-10" transform="translate(2009.7 504.3)"><tspan x="0" y="0">HTM</tspan></text>
      </g>
      <g class="cls-15">
        <text class="cls-7" transform="translate(2045 504.3)"><tspan x="0" y="0">L</tspan></text>
      </g>
    </g>
    <path class="cls-22" d="M2012.3,481.2v7.3c0,.7-.6,1.2-1.3,1.2h-4.1c-.7,0-1.3-.5-1.3-1.2v-7.3c0-.7.6-1.2,1.3-1.2h4.1c.7,0,1.3.5,1.3,1.2Z"/>
    <path class="cls-22" d="M2006.8,475.7c0-.8.7-1.5,1.6-1.5s.6,0,.8.2l5.7-6c-.2-.3-.3-.6-.3-.9,0-.8.7-1.5,1.6-1.5s1.6.7,1.6,1.5,0,.3,0,.4l5.4,2.6c.3-.3.7-.5,1.2-.5s.6,0,.8.2l6.4-6.1c-.2-.2-.3-.5-.3-.8,0-.8.7-1.5,1.6-1.5s1.6.7,1.6,1.5-.7,1.5-1.6,1.5-.6,0-.8-.2l-6.4,6.2c.2.2.3.5.3.8,0,.8-.7,1.5-1.6,1.5s-1.6-.7-1.6-1.5,0-.3,0-.4l-5.4-2.7c-.3.3-.7.5-1.2.5s-.6,0-.8-.2l-5.7,6c.2.3.3.6.3.9,0,.8-.7,1.5-1.6,1.5s-1.6-.7-1.6-1.5Z"/>
    <path class="cls-22" d="M2020.1,474.3v13.7c0,.7-.5,1.3-1.2,1.3h-3.8c-.6,0-1.2-.6-1.2-1.3v-13.7c0-.7.5-1.3,1.2-1.3h3.8c.7,0,1.2.6,1.2,1.3Z"/>
    <path class="cls-22" d="M2028.5,477.9v10.6c0,.7-.6,1.2-1.3,1.2h-4.1c-.7,0-1.3-.5-1.3-1.2v-10.6c0-.7.6-1.2,1.3-1.2h4.1c.7,0,1.3.5,1.3,1.2Z"/>
    <path class="cls-22" d="M2036.4,473v15.2c0,.6-.5,1.1-1.2,1.1h-3.8c-.6,0-1.2-.5-1.2-1.1v-15.2c0-.6.5-1.1,1.2-1.1h3.8c.7,0,1.2.5,1.2,1.1Z"/>
  </g>
  <g>
    <g>
      <g class="cls-15">
        <g class="cls-15">
          <text class="cls-18" transform="translate(580.3 189.4)"><tspan x="0" y="0">Gene by cell</tspan></text>
        </g>
      </g>
      <g class="cls-15">
        <g class="cls-15">
          <text class="cls-18" transform="translate(580.3 216.2)"><tspan x="0" y="0">count matrix</tspan></text>
        </g>
      </g>
    </g>
    <g>
      <path class="cls-22" d="M674.9,130.2h-2.5v-23.8c0-.3-.2-.7-.4-.9l-18.9-18.5c-.2-.2-.6-.4-.9-.4h-32.4c-4.1,0-7.5,3.5-7.5,7.7v35.8h-2.5c-.7,0-1.3.5-1.3,1.2v21.3c0,.7.6,1.2,1.3,1.2h2.5v4.4c0,4.2,3.4,7.7,7.5,7.7h45.2c4.1,0,7.5-3.5,7.5-7.7v-4.4h2.5c.7,0,1.3-.5,1.3-1.2v-21.3c0-.7-.6-1.2-1.3-1.2h0ZM653.3,90.9l14.7,14.3h-11.8c-.8,0-1.5-.3-2-.9-.6-.6-.9-1.3-.8-2.1v-11.3h0,0ZM614.8,94.3c0-2.9,2.2-5.2,5-5.2h31.1v13.1c0,1.4.6,2.8,1.6,3.9,1,1,2.4,1.6,3.8,1.6h13.6v22.5h-55.1v-35.8h0ZM669.9,158.2c0,2.9-2.2,5.2-5,5.2h-45.2c-2.7,0-5-2.4-5-5.2v-4.4h55.1v4.4h0ZM673.7,151.3h-62.6v-18.6h62.6v18.6Z"/>
      <g class="cls-15">
        <g class="cls-15">
          <text class="cls-10" transform="translate(626 148.9)"><tspan x="0" y="0">MTX</tspan></text>
        </g>
      </g>
      <path class="cls-22" d="M647.1,99.2h-27c-1,0-1.8.8-1.8,1.8v28.6c0,1,.8,1.8,1.8,1.8h27c1,0,1.8-.8,1.8-1.8v-28.6c0-.9-.8-1.8-1.8-1.8h0ZM647.9,108.8h-6.4v-3.3h6.4v3.3ZM647.9,113.1h-6.4v-3.3h6.4v3.3ZM647.9,117.4h-6.4v-3.3h6.4v3.3ZM647.9,121.7h-6.4v-3.3h6.4v3.3ZM619.4,118.4h6.4v3.3h-6.4v-3.3ZM619.4,114.1h6.4v3.3h-6.4v-3.3ZM619.4,109.8h6.4v3.3h-6.4v-3.3ZM626.8,114.1h6.4v3.3h-6.4v-3.3ZM634.1,114.1h6.4v3.3h-6.4v-3.3ZM640.5,113.1h-6.4v-3.3h6.4v3.3ZM633.1,113.1h-6.4v-3.3h6.4v3.3ZM626.8,118.4h6.4v3.3h-6.4v-3.3ZM634.1,118.4h6.4v3.3h-6.4v-3.3ZM640.5,108.8h-6.4v-3.3h6.4v3.3ZM633.1,108.8h-6.4v-3.3h6.4v3.3ZM625.8,108.8h-6.4v-3.3h6.4v3.3ZM619.4,122.7h6.4v3.3h-6.4v-3.3ZM626.8,122.7h6.4v3.3h-6.4v-3.3ZM634.1,122.7h6.4v3.3h-6.4v-3.3ZM641.5,122.7h6.4v3.3h-6.4v-3.3ZM647.9,101v3.4h-6.4v-4.2h5.6c.4,0,.8.3.8.7h0ZM640.5,104.5h-6.4v-4.2h6.4v4.2ZM633.1,104.5h-6.4v-4.2h6.4v4.2ZM619.4,101c0-.4.4-.7.7-.7h5.6v4.2h-6.4v-3.5h0ZM619.4,129.6v-2.6h6.4v3.3h-5.6c-.4,0-.8-.3-.8-.7h0ZM626.8,127h6.4v3.3h-6.4v-3.3ZM634.1,127h6.4v3.3h-6.4v-3.3ZM647.9,129.6c0,.4-.4.7-.7.7h-5.6v-3.3h6.4v2.6h0Z"/>
      <path class="cls-22" d="M628.9,102.9h2c.3,0,.5-.2.5-.5s-.2-.5-.5-.5h-2c-.3,0-.5.2-.5.5s.2.5.5.5Z"/>
      <path class="cls-22" d="M636.3,102.9h2c.3,0,.5-.2.5-.5s-.2-.5-.5-.5h-2c-.3,0-.5.2-.5.5s.2.5.5.5Z"/>
      <path class="cls-22" d="M643.7,102.9h2c.3,0,.5-.2.5-.5s-.2-.5-.5-.5h-2c-.3,0-.5.2-.5.5s.3.5.5.5Z"/>
      <path class="cls-22" d="M621.7,101.9c-.2-.1-.4,0-.5.1,0,0-.1.1-.2.2v.2c0,.2,0,.3.2.3,0,0,.1.1.2.1,0,0,.1,0,.2,0s.2,0,.2,0c0,0,.1,0,.2-.1.1-.1.2-.2.2-.3s0-.3-.2-.3c0,0,0-.1-.2-.1,0,0,0,0,0,0Z"/>
      <path class="cls-22" d="M623.9,101.9c-.2-.1-.4,0-.6.1,0,0-.1.1-.1.2s0,.2,0,.2c0,.2,0,.3.2.3.1.1.3.2.4.2s.2,0,.2,0c0,0,.1,0,.2-.1.1-.1.2-.2.2-.3s0-.3-.2-.3c0,0-.1-.1-.2-.1h0Z"/>
    </g>
  </g>
  <g>
    <g>
      <g class="cls-15">
        <g class="cls-15">
          <text class="cls-6" transform="translate(203.7 184)"><tspan x="0" y="0">Input</tspan></text>
        </g>
        <g class="cls-15">
          <text class="cls-6" transform="translate(267 184)"><tspan x="0" y="0">AD</tspan></text>
        </g>
        <g class="cls-15">
          <text class="cls-16" transform="translate(303 184)"><tspan x="0" y="0">T</tspan></text>
        </g>
      </g>
      <g class="cls-15">
        <g class="cls-15">
          <text class="cls-6" transform="translate(203.7 215)"><tspan x="0" y="0" xml:space="preserve">  </tspan></text>
        </g>
        <g class="cls-15">
          <text class="cls-20" transform="translate(218.1 215)"><tspan x="0" y="0">F</tspan></text>
        </g>
        <g class="cls-15">
          <text class="cls-6" transform="translate(232.5 215)"><tspan x="0" y="0">ASTQ</tspan></text>
        </g>
      </g>
    </g>
    <g>
      <path class="cls-22" d="M297.1,118.9h-2.5v-23.8c0-.3-.1-.7-.4-.9l-18.9-18.5c-.2-.2-.6-.4-.9-.4h-32.4c-4.1,0-7.4,3.5-7.4,7.7v35.8h-2.5c-.7,0-1.3.5-1.3,1.2v21.3c0,.7.6,1.2,1.3,1.2h2.5v4.4c0,4.2,3.4,7.7,7.4,7.7h45.2c4.1,0,7.5-3.5,7.5-7.7v-4.4h2.5c.7,0,1.3-.5,1.3-1.2v-21.3c0-.7-.6-1.2-1.3-1.2h0ZM275.6,79.6l14.7,14.3h-11.8c-.8,0-1.5-.3-2-.9-.6-.6-.9-1.3-.8-2.1v-11.3h0,0ZM237.1,83c0-2.9,2.2-5.2,4.9-5.2h31.1v13.1c0,1.4.6,2.8,1.6,3.9s2.4,1.6,3.8,1.6h13.6v22.5h-55.1v-35.8h0ZM292.1,146.9c0,2.9-2.2,5.2-5,5.2h-45.2c-2.7,0-4.9-2.4-4.9-5.2v-4.4h55.1v4.4ZM295.9,140h-62.6v-18.6h62.6v18.6Z"/>
      <g class="cls-15">
        <g class="cls-15">
          <text class="cls-11" transform="translate(240.1 136.6)"><tspan x="0" y="0">F</tspan></text>
        </g>
        <g class="cls-15">
          <text class="cls-10" transform="translate(249.2 136.6)"><tspan x="0" y="0">ASTQ</tspan></text>
        </g>
      </g>
    </g>
  </g>
  <g>
    <g>
      <g class="cls-15">
        <g class="cls-15">
          <text class="cls-6" transform="translate(34.9 184)"><tspan x="0" y="0">Input RN</tspan></text>
        </g>
        <g class="cls-15">
          <text class="cls-19" transform="translate(137.1 184)"><tspan x="0" y="0">A</tspan></text>
        </g>
      </g>
      <g class="cls-15">
        <g class="cls-15">
          <text class="cls-6" transform="translate(34.9 215)"><tspan x="0" y="0" xml:space="preserve">  </tspan></text>
        </g>
        <g class="cls-15">
          <text class="cls-20" transform="translate(49.3 215)"><tspan x="0" y="0">F</tspan></text>
        </g>
        <g class="cls-15">
          <text class="cls-6" transform="translate(63.7 215)"><tspan x="0" y="0">ASTQ</tspan></text>
        </g>
      </g>
    </g>
    <g>
      <path class="cls-22" d="M130,118.9h-2.5v-23.8c0-.3-.2-.7-.4-.9l-18.9-18.5c-.2-.2-.6-.4-.9-.4h-32.4c-4.1,0-7.4,3.5-7.4,7.7v35.8h-2.5c-.7,0-1.3.5-1.3,1.2v21.3c0,.7.6,1.2,1.3,1.2h2.5v4.4c0,4.2,3.4,7.7,7.4,7.7h45.2c4.1,0,7.4-3.5,7.4-7.7v-4.4h2.5c.7,0,1.3-.5,1.3-1.2v-21.3c0-.7-.6-1.2-1.3-1.2h0ZM108.5,79.6l14.7,14.3h-11.8c-.8,0-1.5-.3-2.1-.9-.6-.6-.9-1.3-.8-2.1v-11.3s0,0,0,0h0ZM70,83.1c0-2.9,2.2-5.2,4.9-5.2h31.1v13.1c0,1.4.6,2.8,1.6,3.9,1,1,2.4,1.6,3.8,1.6h13.6v22.5h-55.1v-35.8h0ZM125,146.9c0,2.9-2.2,5.2-4.9,5.2h-45.2c-2.7,0-4.9-2.4-4.9-5.2v-4.4h55.1v4.4ZM128.8,140h-62.6v-18.6h62.6v18.6Z"/>
      <g class="cls-15">
        <g class="cls-15">
          <text class="cls-11" transform="translate(73 136.6)"><tspan x="0" y="0">F</tspan></text>
        </g>
        <g class="cls-15">
          <text class="cls-10" transform="translate(82.1 136.6)"><tspan x="0" y="0">ASTQ</tspan></text>
        </g>
      </g>
    </g>
  </g>
  <g>
    <g class="cls-15">
      <g class="cls-15">
        <text class="cls-6" transform="translate(185.5 371.9)"><tspan x="0" y="0">Barcodes File</tspan></text>
      </g>
    </g>
    <g>
      <path class="cls-22" d="M297.1,302.1h-2.5v-23.8c0-.3-.1-.7-.4-.9l-18.9-18.5c-.2-.2-.6-.4-.9-.4h-32.4c-4.1,0-7.4,3.5-7.4,7.7v35.9h-2.5c-.7,0-1.3.5-1.3,1.2v21.3c0,.7.6,1.2,1.3,1.2h2.5v4.4c0,4.2,3.4,7.7,7.4,7.7h45.2c4.1,0,7.5-3.5,7.5-7.7v-4.4h2.5c.7,0,1.3-.5,1.3-1.2v-21.3c0-.7-.6-1.2-1.3-1.2h0ZM275.6,262.8l14.7,14.3h-11.8c-.8,0-1.5-.3-2-.9-.6-.6-.9-1.3-.8-2.1v-11.4h0,0ZM237.1,266.3c0-2.9,2.2-5.2,4.9-5.2h31.1v13.1c0,1.5.6,2.8,1.6,3.9s2.4,1.6,3.8,1.6h13.6v22.5h-55.1v-35.9h0ZM292.1,330.1c0,2.9-2.2,5.2-5,5.2h-45.2c-2.7,0-4.9-2.4-4.9-5.2v-4.4h55.1v4.4ZM295.9,323.2h-62.6v-18.6h62.6v18.6Z"/>
      <g class="cls-15">
        <g class="cls-15">
          <text class="cls-10" transform="translate(249.9 319.8)"><tspan x="0" y="0">TSV</tspan></text>
        </g>
      </g>
      <path class="cls-22" d="M238.6,282.4h.8v21.5h-.8v-21.5Z"/>
      <path class="cls-22" d="M240.3,282.4h1.7v21.5h-1.7v-21.5Z"/>
      <path class="cls-22" d="M243.6,282.4h.8v21.5h-.8v-21.5Z"/>
      <path class="cls-22" d="M246.1,282.4h.8v21.5h-.8v-21.5Z"/>
      <path class="cls-22" d="M247.7,282.4h.8v21.5h-.8v-21.5Z"/>
      <path class="cls-22" d="M249.4,282.4h.8v21.5h-.8v-21.5Z"/>
      <path class="cls-22" d="M251.9,282.4h1.7v21.5h-1.7v-21.5Z"/>
      <path class="cls-22" d="M255.2,282.4h.8v21.5h-.8v-21.5Z"/>
      <path class="cls-22" d="M256.9,282.4h.8v21.5h-.8v-21.5Z"/>
      <path class="cls-22" d="M259.4,282.4h.8v21.5h-.8v-21.5Z"/>
      <path class="cls-22" d="M261.9,282.4h.8v21.5h-.8v-21.5Z"/>
      <path class="cls-22" d="M263.5,282.4h1.7v21.5h-1.7v-21.5Z"/>
      <path class="cls-22" d="M266,282.4h.8v21.5h-.8v-21.5Z"/>
      <path class="cls-22" d="M268.5,282.4h.8v21.5h-.8v-21.5Z"/>
      <path class="cls-22" d="M271,282.4h.8v21.5h-.8v-21.5Z"/>
      <path class="cls-22" d="M272.6,282.4h1.7v21.5h-1.7v-21.5Z"/>
      <path class="cls-22" d="M275.1,282.4h.8v21.5h-.8v-21.5Z"/>
      <path class="cls-22" d="M277.6,282.4h.8v21.5h-.8v-21.5Z"/>
      <path class="cls-22" d="M280.1,282.4h.8v21.5h-.8v-21.5Z"/>
      <path class="cls-22" d="M281.8,282.4h1.7v21.5h-1.7v-21.5Z"/>
    </g>
  </g>
  <g class="cls-15">
    <g class="cls-15">
      <text class="cls-6" transform="translate(1151.5 287.8)"><tspan x="0" y="0">Filter empty</tspan></text>
    </g>
  </g>
  <g class="cls-15">
    <g class="cls-15">
      <text class="cls-6" transform="translate(1166.8 309.2)"><tspan x="0" y="0">droplets</tspan></text>
    </g>
  </g>
  <g>
    <path class="cls-22" d="M1228.5,203.4h-4.4v-4.4h-2.2v4.4h-37.4v-4.4h-2.2v4.4h-4.4c-.9,0-1.7.3-2.3,1-.6.6-1,1.4-1,2.4v2.2c0,.8.3,1.5.8,2.1.5.6,1.2,1,2,1.1l20.3,21.4v14.9c0,.4.2.7.5.9.3.2.7.2,1.1,0l8.8-4.4c.2,0,.3-.2.4-.4s.2-.4.2-.6v-10.5l20.3-21.4c.8-.1,1.4-.5,2-1.1.5-.6.8-1.3.8-2.1v-2.2c0-.9-.3-1.7-1-2.4-.6-.6-1.4-.9-2.3-.9h0ZM1229.6,208.9c0,.3-.1.6-.3.8-.2.2-.5.3-.8.3h-4.4v2.2h1.8l-19.1,20.1c-.2.2-.3.5-.3.7v10.3l-6.6,3.3v-13.6c0-.3-.1-.6-.3-.7l-19.1-20.1h41.4v-2.2h-44c-.3,0-.6-.1-.8-.3-.2-.2-.3-.5-.3-.8v-2.2c0-.3.1-.6.3-.8.2-.2.5-.3.8-.3h50.6c.3,0,.6.1.8.3.2.2.3.5.3.8v2.2h0Z"/>
    <path class="cls-22" d="M1203.2,201.2c1.8,0,3.4-.7,4.7-1.9s1.9-2.9,1.9-4.6-.7-3.4-1.9-4.6-2.9-1.9-4.7-1.9-3.4.7-4.7,1.9-1.9,2.9-1.9,4.6.7,3.4,1.9,4.6c1.2,1.2,2.9,1.9,4.7,1.9ZM1203.2,190.2c1.2,0,2.3.4,3.1,1.3.8.8,1.3,1.9,1.3,3.1s-.4,2.3-1.3,3.1c-.8.8-1.9,1.3-3.1,1.3s-2.3-.4-3.1-1.3c-.8-.8-1.3-1.9-1.3-3.1s.4-2.3,1.3-3.1c.9-.9,2-1.3,3.1-1.3Z"/>
    <path class="cls-22" d="M1192.2,192.4h2.2v8.8h-2.2v-8.8Z"/>
    <path class="cls-22" d="M1212,192.4h2.2v8.8h-2.2v-8.8Z"/>
    <path class="cls-22" d="M1212,183.6h2.2v4.4h-2.2v-4.4Z"/>
    <path class="cls-22" d="M1192.2,183.6h2.2v4.4h-2.2v-4.4Z"/>
    <path class="cls-22" d="M1223.1,195.6c1.8,0,3.4-.7,4.7-1.9s1.9-2.9,1.9-4.6-.7-3.4-1.9-4.6-2.9-1.9-4.7-1.9-3.4.7-4.7,1.9-1.9,2.9-1.9,4.6.7,3.4,1.9,4.6c1.2,1.2,2.9,1.9,4.7,1.9Z"/>
    <path class="cls-22" d="M1182.2,196.5c1.8,0,3.4-.7,4.7-1.9s1.9-2.9,1.9-4.6-.7-3.4-1.9-4.6-2.9-1.9-4.7-1.9-3.4.7-4.7,1.9-1.9,2.9-1.9,4.6.7,3.4,1.9,4.6,2.9,1.9,4.7,1.9ZM1182.2,185.6c1.2,0,2.3.4,3.1,1.3.8.8,1.3,1.9,1.3,3.1s-.4,2.3-1.3,3.1c-.8.8-1.9,1.3-3.1,1.3s-2.3-.4-3.1-1.3c-.8-.8-1.3-1.9-1.3-3.1s.4-2.3,1.3-3.1c.8-.9,1.9-1.3,3.1-1.3Z"/>
    <path class="cls-22" d="M1182.2,181.3c1.8,0,3.4-.7,4.7-1.9s1.9-2.9,1.9-4.6-.7-3.4-1.9-4.6-2.9-1.9-4.7-1.9-3.4.7-4.7,1.9-1.9,2.9-1.9,4.6.7,3.4,1.9,4.6c1.2,1.3,2.9,1.9,4.7,1.9Z"/>
    <path class="cls-22" d="M1223.1,179.4c1.8,0,3.4-.7,4.7-1.9s1.9-2.9,1.9-4.6-.7-3.4-1.9-4.6-2.9-1.9-4.7-1.9-3.4.7-4.7,1.9-1.9,2.9-1.9,4.6.7,3.4,1.9,4.6,2.9,1.9,4.7,1.9ZM1223.1,168.4c1.2,0,2.3.4,3.1,1.3.8.8,1.3,1.9,1.3,3.1s-.5,2.3-1.3,3.1-1.9,1.3-3.1,1.3-2.3-.4-3.1-1.3c-.8-.8-1.3-1.9-1.3-3.1s.4-2.3,1.3-3.1c.8-.8,1.9-1.3,3.1-1.3Z"/>
    <path class="cls-22" d="M1203.1,168c1.8,0,3.4-.7,4.7-1.9s1.9-2.9,1.9-4.6-.7-3.4-1.9-4.6-2.9-1.9-4.7-1.9-3.4.7-4.7,1.9-1.9,2.9-1.9,4.6.7,3.4,1.9,4.6c1.2,1.3,2.9,1.9,4.7,1.9ZM1203.1,157c1.2,0,2.3.4,3.1,1.3.8.8,1.3,1.9,1.3,3.1s-.4,2.3-1.3,3.1c-.8.8-1.9,1.3-3.1,1.3s-2.3-.4-3.1-1.3c-.8-.8-1.3-1.9-1.3-3.1s.4-2.3,1.3-3.1c.9-.8,2-1.3,3.1-1.3Z"/>
    <path class="cls-22" d="M1203.1,184.2c1.8,0,3.4-.7,4.7-1.9s1.9-2.9,1.9-4.6-.7-3.4-1.9-4.6-2.9-1.9-4.7-1.9-3.4.7-4.7,1.9-1.9,2.9-1.9,4.6.7,3.4,1.9,4.6c1.2,1.2,2.9,1.9,4.7,1.9Z"/>
  </g>
  <path class="cls-23" d="M561.3,216.1l-10.2-5.9v11.8l10.2-5.9h0ZM387,129.4h1v-1h-1v1ZM387,318.6v1h1v-1h-1ZM387,217.1h165.2v-2.1h-165.2v2.1h0ZM388,216.1v-86.7h-2v86.7h2s0,0,0,0ZM387,128.4h-82.1v2.1h82.1v-2.1ZM385.9,216.1v102.5h2v-102.5h-2ZM387,317.5h-82.1v2h82.1v-2Z"/>
  <path class="cls-23" d="M1148.7,216.5l-10.2-5.9v11.8s10.2-5.8,10.2-5.8h0ZM996.7,217l142.8.5v-2.1l-142.7-.5v2.1h0Z"/>
  <path class="cls-23" d="M1414.8,217l-10.2-5.9v11.8l10.2-5.9h0ZM1257.8,218.1h147.8v-2.1h-147.8v2.1Z"/>
  <path class="cls-23" d="M1677.9,216l-10.2-5.9v11.8l10.2-5.9h0ZM1538.2,217h130.5v-2.1h-130.5v2.1Z"/>
  <path class="cls-23" d="M2040.9,217l-10.2-5.9v11.8l10.2-5.9h0ZM1901.2,218.1h130.5v-2.1h-130.5v2.1Z"/>
  <g class="cls-15">
    <g class="cls-15">
      <text class="cls-13" transform="translate(419 210.5)"><tspan x="0" y="0">alevin-fry</tspan></text>
    </g>
  </g>
  <g class="cls-15">
    <g class="cls-15">
      <text class="cls-13" transform="translate(1501.8 311.2)"><tspan x="0" y="0">miQC</tspan></text>
    </g>
  </g>
  <g class="cls-15">
    <g class="cls-15">
      <text class="cls-6" transform="translate(1363.1 287.8)"><tspan x="0" y="0">Remove low quality</tspan></text>
    </g>
  </g>
  <g class="cls-15">
    <g class="cls-15">
      <text class="cls-6" transform="translate(1373.8 309.2)"><tspan x="0" y="0">cells using</tspan></text>
    </g>
  </g>
  <g>
    <path class="cls-24" d="M1448.8,185.6h-10.1c-1.2,0-2.3.5-3.2,1.3-.9.9-1.3,2-1.3,3.2,0,9.2,3.2,37.8,3.2,47.6s2.7,5.8,6.1,5.8h29.7c3.4,0,6.1-2.6,6.1-5.8,0-8.3,2.3-30.1,3.1-42.2l11.7,43.6c.3,1.1,1,2.1,2.1,2.7s2.2.7,3.3.4h0c1.1-.3,2.1-1,2.7-2.1.6-1,.7-2.2.4-3.4l-3.7-13.9c0,0,.2,0,.2,0h0c3.3-.9,5.2-4.2,4.4-7.6l-3.2-11.8c-.9-3.3-4.2-5.2-7.6-4.4h-.2c0,0-3.7-13.8-3.7-13.8-.3-1.1-1-2.1-2.1-2.7-1-.6-2.2-.7-3.3-.4h0c-1.2.3-2.1,1-2.7,2.1-.3.6-.5,1.3-.6,1.9-.6-.3-1.3-.5-2-.5h-27.7c-1.9.1-1.6.1-1.6.1h0ZM1480.2,190c0,9.2-3.2,37.8-3.2,47.6s-1.7,3.3-3.7,3.3h-29.7c-2,0-3.7-1.4-3.7-3.3,0-9.8-3.2-38.3-3.2-47.6s.2-1,.6-1.4c.4-.4.9-.6,1.4-.6h39.5c.5,0,1,.2,1.4.6.3.4.5.9.5,1.4h0ZM1486.5,185.8l13.8,51.6c.2.5,0,1-.2,1.5-.3.4-.7.8-1.2.9h0c-.5.1-1,0-1.5-.2s-.8-.7-.9-1.2l-13.8-51.6c-.2-.5,0-1,.2-1.5.3-.4.7-.8,1.2-.9h0c.5-.1,1,0,1.5.2.4.3.7.7.9,1.2ZM1498.3,220.4l-5.1-18.9c0,0,.2,0,.2,0,2-.5,4,.6,4.5,2.6l3.2,11.8c.5,2-.6,4-2.6,4.5h-.2s0,0,0,0h0Z"/>
    <path class="cls-24" d="M1469.4,171.6c.3-.6.2-1.3-.4-1.7l-5.1-2.9c-.6-.3-1.3-.1-1.7.4l-2.9,5.1c-.3.6-.2,1.4.4,1.7l5.1,2.9c.6.3,1.3.1,1.7-.4l2.9-5.1ZM1466.6,171.4l-1.7,2.9-2.9-1.7,1.7-2.9,2.9,1.7Z"/>
    <path class="cls-24" d="M1460.1,179.6c.2-.6-.1-1.2-.7-1.4l-4.9-1.7c-.6-.2-1.2.1-1.4.7l-1.7,4.9c-.2.6.1,1.2.7,1.4l4.9,1.7c.6.2,1.2-.1,1.4-.7l1.7-4.9ZM1457.6,179.9l-1,2.8-2.8-1,1-2.8,2.8,1Z"/>
    <path class="cls-24" d="M1461.5,162c.5-.5.5-1.3,0-1.8l-5.1-5.1c-.5-.5-1.3-.5-1.8,0l-5.1,5.1c-.5.5-.5,1.3,0,1.8l5.1,5.1c.5.5,1.3.5,1.8,0l5.1-5.1ZM1458.9,161.2l-3.3,3.3-3.3-3.3,3.3-3.3,3.3,3.3Z"/>
    <path class="cls-22" d="M1459,203.1c-7.4,0-13.4,6-13.4,13.4s6,13.4,13.4,13.4,13.4-6,13.4-13.4-6-13.4-13.4-13.4ZM1459,227.2c-5.9,0-10.7-4.8-10.7-10.7s4.8-10.7,10.7-10.7,10.7,4.8,10.7,10.7-4.8,10.7-10.7,10.7h0Z"/>
    <path class="cls-22" d="M1462.7,212.9c-.5-.5-1.4-.5-1.9,0l-1.7,1.7-1.8-1.7c-.5-.5-1.4-.5-1.9,0s-.5,1.4,0,1.9l1.7,1.7-1.7,1.7c-.5.5-.5,1.4,0,1.9s1.4.5,1.9,0l1.8-1.7,1.7,1.7c.5.5,1.4.5,1.9,0s.5-1.4,0-1.9l-1.8-1.7,1.8-1.7c.5-.5.5-1.4,0-1.9Z"/>
  </g>
  <g class="cls-15">
    <g class="cls-15">
      <text class="cls-6" transform="translate(1621.5 284.1)"><tspan x="0" y="0">RN</tspan></text>
    </g>
    <g class="cls-15">
      <text class="cls-19" transform="translate(1658.9 284.1)"><tspan x="0" y="0">A</tspan></text>
    </g>
    <g class="cls-15">
      <text class="cls-6" transform="translate(1674.7 284.1)"><tspan x="0" y="0" xml:space="preserve"> and</tspan></text>
    </g>
    <g class="cls-15">
      <text class="cls-6" transform="translate(1730.9 284.1)"><tspan x="0" y="0">AD</tspan></text>
    </g>
    <g class="cls-15">
      <text class="cls-16" transform="translate(1766.8 284.1)"><tspan x="0" y="0">T</tspan></text>
    </g>
    <g class="cls-15">
      <text class="cls-6" transform="translate(1782.2 284.1)"><tspan x="0" y="0" xml:space="preserve"> normalization and </tspan></text>
    </g>
  </g>
  <g class="cls-15">
    <g class="cls-15">
      <text class="cls-6" transform="translate(1615.2 305.5)"><tspan x="0" y="0">dimensionality reduction with PC</tspan></text>
    </g>
    <g class="cls-15">
      <text class="cls-19" transform="translate(1989.3 305.5)"><tspan x="0" y="0">A</tspan></text>
    </g>
  </g>
  <g class="cls-15">
    <g class="cls-15">
      <text class="cls-6" transform="translate(1709.2 326.9)"><tspan x="0" y="0">and UM</tspan></text>
      <text class="cls-20" transform="translate(1799.8 326.9)"><tspan x="0" y="0">A</tspan></text>
    </g>
    <g class="cls-15">
      <text class="cls-16" transform="translate(1817.1 326.9)"><tspan x="0" y="0">P</tspan></text>
    </g>
  </g>
  <g>
    <path class="cls-22" d="M1858.8,242.5c-22.9,0-40.4-5.9-53.3-18.1-11.1-10.4-16.8-23.6-21.5-34.1-5-11.4-8.6-19.6-15.9-19.6s-11.8,8.8-17.3,19.9c-5.3,10.5-11.9,23.6-23.4,33.9-13.5,12.1-31,18-53.3,18v-2.6c48.9,0,63.6-29.1,74.3-50.5,6-11.9,10.8-21.3,19.8-21.3s13.2,9.3,18.3,21.2c9.4,21.4,22.3,50.6,72.3,50.6v2.6c0,0,0,0,0,0h0Z"/>
    <path class="cls-22" d="M1673.8,243.4h185.1v1.6h-185.1v-1.6Z"/>
    <path class="cls-22" d="M1803.7,233.6v-8.3h-6.5v-7.3h-6.5v-11.9h-6.5v-12.1h-6.5v-11h-6.5v-5.8h-8v5.8h-6.7v11h-6.6v12.2h-6.5v11.9h-6.5v7.3h-6.5v8.3h-6.5v8.9h86.2v-8.9h-6.6s0,0,0,0h0ZM1730.5,240.9h-4.9v-5.7h4.9v5.7ZM1732.1,240.9v-14.1h4.9v14.1h-4.9ZM1738.6,240.9v-21.3h4.9v21.3h-4.9ZM1749.9,240.9h-4.9v-33.2h4.9v33.2h0ZM1751.5,240.9v-45.3h4.9v45.4h-4.9ZM1762.9,240.9h-4.9v-56.4h4.9v56.4ZM1764.8,240.9v-62.1h4.9v62.1h-4.9ZM1771.2,240.9v-56.4h4.9v56.4h-4.9ZM1782.6,240.9h-4.9v-45.3h4.9v45.3ZM1784.2,240.9v-33.2h4.9v33.2h-4.9ZM1790.7,240.9v-21.3h4.9v21.3h-4.9ZM1802.1,240.9h-4.9v-14.1h4.9v14.1h0ZM1808.6,240.9h-4.9v-5.7h4.9v5.7Z"/>
  </g>
  <path class="cls-23" d="M940.6,369.5h-1v1h1v-1ZM1239.9,369.5h1v-1h-1v1ZM1239.9,423.5l5.9-10.2h-11.8l5.9,10.2ZM939.6,323.6v45.9h2v-45.9h-2ZM940.7,370.5h299.3v-2h-299.3v2ZM1238.9,369.5v44.9h2.1v-44.9h-2.1Z"/>
  <path class="cls-23" d="M1210.4,351.1h-1v1h1v-1ZM1392.4,351.1h1v-1h-1v1ZM1392.4,422l5.9-10.2h-11.8l5.9,10.2ZM1209.3,320v31.1h2.1v-31.1h-2.1ZM1210.4,352.2h182v-2h-182v2ZM1391.3,351.1v61.7h2.1v-61.7h-2.1Z"/>
  <path class="cls-23" d="M1541.2,371.5v-1h-1v1h1ZM1541.2,421l5.9-10.2h-11.8l5.9,10.2ZM1859.9,371.5h1v-1h-1v1ZM1859.9,421l5.9-10.2h-11.8l5.9,10.2ZM1772.2,339.4v32.1h2.1v-32.1h-2.1ZM1540.2,371.5v40.3h2.1v-40.3h-2.1ZM1773.2,370.5h-67.3v2h67.3v-2h0ZM1705.9,370.5h-164.7v2h164.7v-2ZM1773.2,372.5h86.7v-2h-86.7v2ZM1858.8,371.5v40.3h2.1v-40.3h-2.1Z"/>
  <g class="cls-15">
    <g class="cls-15">
      <text class="cls-6" transform="translate(2033.1 287.8)"><tspan x="0" y="0">Cell type annotation</tspan></text>
    </g>
  </g>
  <g>
    <path class="cls-22" d="M2118.7,208.2c-.3-.4-.8-.7-1.4-.7h-12.6c-2.3,0-4.5,1.2-5.6,3.1l-4.9,8c-1.1,1.9-1.1,4.3,0,6.2l4.9,8c1.1,1.9,3.3,3.1,5.6,3.1h12.6c.6,0,1.1-.3,1.4-.7l7.9-12.7c.3-.5.3-1.1,0-1.6l-7.9-12.7h0s0,0,0,0ZM2116.5,232.9h-11.7c-1.1,0-2.3-.6-2.9-1.6l-4.8-8c-.6-1-.6-2.2,0-3.1l4.8-8c.6-1,1.7-1.6,2.9-1.6h11.7l7,11.2-7,11.2h0Z"/>
    <path class="cls-22" d="M2166.5,198.7l-10-15.9,3.3-6.1c.4-.7,0-1.7-.7-2.1s-1.8,0-2.2.7l-3.3,6.1-21.4,1-5.2-5.8c-.6-.6-1.6-.7-2.3-.2-.7.6-.7,1.5-.2,2.2l5,5.6-8.7,15.6c-.3.6-.5,1.2-.7,1.8-.6-.2-1.3-.3-2-.3h-19.3l-3.8-4.9c-.5-.7-1.5-.8-2.2-.3s-.9,1.4-.3,2.1l3.7,4.7-9.5,15.7c-1.1,1.9-1.1,4.3,0,6.2l9.5,15.7-3.7,4.7c-.5.7-.4,1.6.3,2.1.7.5,1.7.4,2.2-.3l3.8-4.9h21.1l2.7,4.7c.4.7,1.4,1,2.2.6.8-.4,1-1.3.6-2.1l-2.8-4.7,9.9-15.8c.4-.6.7-1.3.8-2.1.7.2,1.5.3,2.3.3l19.1-.6,4.8,6.2c.5.7,1.5.8,2.2.3s.9-1.4.3-2.1l-4.6-6.1,9-16.1c1.1-1.9,1-4.3-.1-6.1h0ZM2130,223.3l-9.9,15.8h-21.1l-9.6-15.8c-.6-1-.6-2.2,0-3.1l9.6-15.8h19.2c1.1,0,2.2.6,2.8,1.5l8.9,14.2c.6,1,.6,2.2,0,3.2h0ZM2163.9,203.3l-9.1,16.1-19.1.6c-1.2,0-2.3-.6-2.9-1.5h0s-8.9-14.3-8.9-14.3h0c-.6-.9-.6-2.1,0-3.1l8.8-15.8,21.2-1,10,15.8c.6.9.6,2.1.1,3.1h0Z"/>
    <path class="cls-22" d="M2153.9,190.9c-1.2-1.9-3.5-3.1-5.8-3l-9.8.4c-2.3.1-4.4,1.3-5.4,3.3l-4.5,8c-1,1.9-1,4.2.1,6l5.1,8.3c1.2,2,3.5,3.1,5.8,3.1l9.5-.3c2.3,0,4.4-1.3,5.5-3.3l4.6-8.5c1-1.9,1-4.2-.2-6.1l-5.1-8h0ZM2156.4,203.5l-4.6,8.5c-.6,1-1.6,1.6-2.8,1.7l-9.5.3c-1.2,0-2.4-.6-2.9-1.6l-5.1-8.3c-.6-.9-.6-2.1,0-3.1l4.5-8c.6-1,1.6-1.6,2.8-1.7l9.8-.4c1.2,0,2.4.5,3,1.5l5.1,8c.6,1,.6,2.1,0,3.1h0Z"/>
    <path class="cls-22" d="M2143.8,193.9c-3.6,0-6.5,2.1-6.5,4.6s2.8,4.6,6.5,4.6,6.5-2.1,6.5-4.6-2.8-4.6-6.5-4.6ZM2143.8,200.1c-2,0-3.3-.9-3.3-1.6s1.3-1.6,3.3-1.6,3.3.9,3.3,1.6-1.3,1.6-3.3,1.6Z"/>
    <path class="cls-22" d="M2109.1,214.2c-3.6,0-6.5,2.1-6.5,4.6s2.8,4.6,6.5,4.6,6.5-2.1,6.5-4.6-2.8-4.6-6.5-4.6ZM2109.1,220.5c-2,0-3.3-.9-3.3-1.6s1.3-1.6,3.3-1.6,3.3.9,3.3,1.6-1.3,1.6-3.3,1.6Z"/>
    <path class="cls-22" d="M2114.9,228.1c0,.9-.7,1.5-1.6,1.5s-1.6-.7-1.6-1.5.7-1.5,1.6-1.5,1.6.7,1.6,1.5Z"/>
    <path class="cls-22" d="M2148.8,208.6c0,.9-.7,1.5-1.6,1.5s-1.6-.7-1.6-1.5.7-1.5,1.6-1.5,1.6.7,1.6,1.5Z"/>
    <path class="cls-1" d="M2165.3,164.5h-18.4v15.3"/>
    <path class="cls-1" d="M2167.3,245.1h-24.5v-18.4"/>
    <path class="cls-1" d="M2123.5,191.1h-23.4v-18.4"/>
    <path class="cls-2" d="M2168.3,157.4h34.7v11.2h-34.7v-11.2Z"/>
    <path class="cls-2" d="M2169.4,237.9h32.6v13.2h-32.6v-13.2Z"/>
    <path class="cls-2" d="M2083.7,157.4h27.6v11.2h-27.6v-11.2Z"/>
    <path class="cls-2" d="M2052.1,231.8h27.6v10.2h-27.6v-10.2Z"/>
    <path class="cls-1" d="M2087.8,213.5h-22.4v15.3"/>
  </g>
  <path class="cls-23" d="M2023,422l5.9-10.2h-11.8l5.9,10.2ZM2023,353.2v-1h-1v1h1s0,0,0,0ZM2137.8,353.2v1h1v-1h-1ZM2022,353.2v59.6h2.1v-59.6h-2.1ZM2136.7,322v31.1h2.1v-31.1h-2.1ZM2137.8,352.1h-114.7v2h114.7v-2Z"/>
  <path class="cls-23" d="M1120.1,738.1l5.9-10.2h-11.8l5.9,10.2ZM1120.1,680v-1h-1v1h1ZM1663.1,680h1v-1h-1v1ZM1663.1,732.5l5.9-10.2h-11.8l5.9,10.2ZM1399.5,596.4v83.6h2.1v-83.6h-2.1ZM1400.5,679h-280.4v2h280.4v-2ZM1119.1,680v49h2.1v-49h-2.1ZM1400.5,681h262.6v-2h-262.6v2ZM1663.1,680h-1v43.3h2.1v-43h0c0-.2-.4-.3-1-.3Z"/>
  <g class="cls-15">
    <g class="cls-15">
      <text class="cls-13" transform="translate(1284.1 654.5)"><tspan x="0" y="0">AnnData</tspan></text>
    </g>
  </g>
  <g class="cls-15">
    <g class="cls-15">
      <text class="cls-6" transform="translate(1277.5 633.1)"><tspan x="0" y="0">Convert to</tspan></text>
    </g>
  </g>
  <g>
    <g>
      <path class="cls-22" d="M674.9,294.5h-2.5v-23.8c0-.3-.2-.7-.4-.9l-18.9-18.5c-.2-.2-.6-.4-.9-.4h-32.4c-4.1,0-7.5,3.5-7.5,7.7v35.9h-2.5c-.7,0-1.3.5-1.3,1.2v21.3c0,.7.6,1.2,1.3,1.2h2.5v4.4c0,4.2,3.4,7.7,7.5,7.7h45.2c4.1,0,7.5-3.5,7.5-7.7v-4.4h2.5c.7,0,1.3-.5,1.3-1.2v-21.3c0-.7-.6-1.2-1.3-1.2h0ZM653.3,255.1l14.7,14.3h-11.8c-.8,0-1.5-.3-2-.9-.6-.6-.9-1.3-.8-2.1v-11.4h0,0ZM614.8,258.6c0-2.9,2.2-5.2,5-5.2h31.1v13.1c0,1.5.6,2.8,1.6,3.9s2.4,1.6,3.8,1.6h13.6v22.5h-55.1v-35.9h0ZM669.9,322.5c0,2.9-2.2,5.2-5,5.2h-45.2c-2.7,0-5-2.4-5-5.2v-4.4h55.1v4.4h0ZM673.7,315.5h-62.6v-18.6h62.6v18.6Z"/>
      <g class="cls-15">
        <g class="cls-15">
          <text class="cls-10" transform="translate(626 313.2)"><tspan x="0" y="0">MTX</tspan></text>
        </g>
      </g>
      <path class="cls-22" d="M647.1,263.5h-27c-1,0-1.8.8-1.8,1.8v28.5c0,1,.8,1.8,1.8,1.8h27c1,0,1.8-.8,1.8-1.8v-28.5c0-.9-.8-1.8-1.8-1.8h0ZM647.9,273.1h-6.4v-3.3h6.4v3.3ZM647.9,277.4h-6.4v-3.3h6.4v3.3ZM647.9,281.7h-6.4v-3.3h6.4v3.3ZM647.9,286h-6.4v-3.3h6.4v3.3ZM619.4,282.7h6.4v3.3h-6.4v-3.3ZM619.4,278.4h6.4v3.3h-6.4v-3.3ZM619.4,274.1h6.4v3.3h-6.4v-3.3ZM626.8,278.4h6.4v3.3h-6.4v-3.3ZM634.1,278.4h6.4v3.3h-6.4v-3.3ZM640.5,277.4h-6.4v-3.3h6.4v3.3ZM633.1,277.4h-6.4v-3.3h6.4v3.3ZM626.8,282.7h6.4v3.3h-6.4v-3.3ZM634.1,282.7h6.4v3.3h-6.4v-3.3ZM640.5,273.1h-6.4v-3.3h6.4v3.3ZM633.1,273.1h-6.4v-3.3h6.4v3.3ZM625.8,273.1h-6.4v-3.3h6.4v3.3ZM619.4,287h6.4v3.3h-6.4v-3.3ZM626.8,287h6.4v3.3h-6.4v-3.3ZM634.1,287h6.4v3.3h-6.4v-3.3ZM641.5,287h6.4v3.3h-6.4v-3.3ZM647.9,265.3v3.4h-6.4v-4.2h5.6c.4,0,.8.3.8.7h0ZM640.5,268.8h-6.4v-4.2h6.4v4.2ZM633.1,268.8h-6.4v-4.2h6.4v4.2ZM619.4,265.3c0-.4.4-.7.7-.7h5.6v4.2h-6.4v-3.5h0ZM619.4,293.9v-2.6h6.4v3.3h-5.6c-.4,0-.8-.4-.8-.7h0ZM626.8,291.3h6.4v3.3h-6.4v-3.3ZM634.1,291.3h6.4v3.3h-6.4v-3.3ZM647.9,293.9c0,.5-.4.7-.7.7h-5.6v-3.3h6.4v2.6h0Z"/>
      <path class="cls-22" d="M628.9,267.1h2c.3,0,.5-.2.5-.5s-.2-.5-.5-.5h-2c-.3,0-.5.2-.5.5s.2.5.5.5Z"/>
      <path class="cls-22" d="M636.3,267.1h2c.3,0,.5-.2.5-.5s-.2-.5-.5-.5h-2c-.3,0-.5.2-.5.5s.2.5.5.5Z"/>
      <path class="cls-22" d="M643.7,267.1h2c.3,0,.5-.2.5-.5s-.2-.5-.5-.5h-2c-.3,0-.5.2-.5.5s.3.5.5.5Z"/>
      <path class="cls-22" d="M621.7,266.2c-.2-.1-.4,0-.5.1,0,0-.1.1-.2.1v.2c0,.1,0,.3.2.3,0,0,.1.1.2.1,0,0,.1,0,.2,0s.2,0,.2,0c0,0,.1,0,.2-.1.1-.1.2-.2.2-.3s0-.3-.2-.3c0,0,0-.1-.2-.1h0Z"/>
      <path class="cls-22" d="M623.9,266.2c-.2-.1-.4,0-.6.1,0,0-.1.1-.1.1s0,.1,0,.2c0,.1,0,.3.2.3.1.1.3.1.4.1s.2,0,.2,0c0,0,.1,0,.2-.1.1-.1.2-.2.2-.3s0-.3-.2-.3c0,0-.1-.1-.2-.1h0Z"/>
    </g>
    <g>
      <g class="cls-15">
        <g class="cls-15">
          <text class="cls-18" transform="translate(581.5 352.5)"><tspan x="0" y="0">AD</tspan></text>
        </g>
        <g class="cls-15">
          <text class="cls-17" transform="translate(612.6 352.5)"><tspan x="0" y="0">T</tspan></text>
        </g>
        <g class="cls-15">
          <text class="cls-18" transform="translate(625.8 352.5)"><tspan x="0" y="0" xml:space="preserve"> by cell</tspan></text>
        </g>
      </g>
      <g class="cls-15">
        <g class="cls-15">
          <text class="cls-18" transform="translate(581.5 379.3)"><tspan x="0" y="0">count matrix</tspan></text>
        </g>
      </g>
    </g>
  </g>
  <g>
    <path class="cls-23" d="M870,216.1l-7.4-5.9v11.8l7.4-5.9h0ZM754.2,217.1h109.2v-2.1h-109.2v2.1ZM756.3,216.1v-86.7h-2v86.7h2s0,0,0,0ZM756.3,128.4h-65.5v2.1h65.5v-2.1ZM754.2,216.1v102.5h2v-102.5h-2ZM756.3,317.5h-65.5v2h65.5v-2Z"/>
    <g>
      <g class="cls-15">
        <g class="cls-15">
          <text class="cls-6" transform="translate(775.3 173.2)"><tspan x="0" y="0">Read</tspan></text>
        </g>
      </g>
      <g class="cls-15">
        <g class="cls-15">
          <text class="cls-6" transform="translate(775.3 204.2)"><tspan x="0" y="0">into R</tspan></text>
        </g>
      </g>
    </g>
  </g>
</svg>