<?xml version="1.0" encoding="utf-8"?>
<!-- Generator: Adobe Illustrator 27.2.0, SVG Export Plug-In . SVG Version: 6.00 Build 0)  -->
<svg version="1.1" id="Layer_1" xmlns="http://www.w3.org/2000/svg" xmlns:xlink="http://www.w3.org/1999/xlink" x="0px" y="0px"
	 viewBox="0 0 612 253.59" style="enable-background:new 0 0 612 253.59;" xml:space="preserve">
<style type="text/css">
	.st0{fill:#276242;}
	.st1{font-family:'ArialMT';}
	.st2{font-size:6.9527px;}
	.st3{fill:#010101;}
	.st4{font-size:4.3823px;}
	.st5{fill:none;stroke:#276242;stroke-width:0.75;}
	.st6{font-family:'Arial-BoldMT';}
	.st7{font-size:5.4779px;}
	.st8{font-size:5.9595px;}
	.st9{enable-background:new    ;}
	.st10{font-size:6px;}
	.st11{fill:#010101;stroke:#000000;stroke-width:0.25;stroke-miterlimit:10;}
	.st12{fill-rule:evenodd;clip-rule:evenodd;fill:#010101;}
	.st13{fill:none;stroke:#010101;stroke-width:0.75;stroke-linecap:round;stroke-linejoin:round;}
	.st14{fill:none;stroke:#010101;stroke-width:0.75;}
</style>
<g>
	<text transform="matrix(1 0 0 1 212.3617 72.3039)" class="st0 st1 st2">SingleCellExperiment (SCE)</text>
	<text transform="matrix(1 0 0 1 272.5335 72.3039)" class="st3 st1 st2"> </text>
	<text transform="matrix(1 0 0 1 235.6527 78.0559)" class="st3 st1 st2">object</text>
	<g>
		<path class="st3" d="M255.02,51.59h-0.66V45.2c0-0.09-0.04-0.18-0.11-0.24l-5.08-4.98c-0.06-0.06-0.15-0.1-0.24-0.1h-8.71
			c-1.1,0-2,0.93-2,2.07v9.63h-0.66c-0.19,0-0.35,0.13-0.35,0.32v5.71c0,0.19,0.16,0.32,0.35,0.32h0.66v1.18
			c0,1.14,0.91,2.07,2,2.07h12.14c1.1,0,2-0.93,2-2.07v-1.18h0.66c0.19,0,0.35-0.13,0.35-0.32V51.9
			C255.37,51.72,255.21,51.59,255.02,51.59L255.02,51.59z M249.24,41.02l3.96,3.85h-3.18c-0.21,0-0.41-0.09-0.55-0.24
			c-0.15-0.15-0.23-0.35-0.22-0.56V41.02z M238.89,41.95c0-0.77,0.6-1.4,1.33-1.4h8.35v3.51c0,0.39,0.15,0.76,0.42,1.04
			c0.27,0.28,0.64,0.43,1.03,0.44h3.66v6.04h-14.79V41.95z M253.68,59.11c0,0.77-0.6,1.4-1.33,1.4h-12.14
			c-0.72,0-1.33-0.63-1.33-1.4v-1.18h14.79V59.11z M254.69,57.25h-16.82v-4.99h16.82V57.25z"/>
		<text transform="matrix(1 0 0 1 242.4901 56.3898)" class="st3 st1 st4">OBJ</text>
		<path class="st3" d="M243.7,42.41v-0.91c-0.14,0.02-0.29,0.04-0.43,0.07v0.66l-3.53,3.53h-0.66c-0.03,0.14-0.05,0.28-0.07,0.43
			h0.91L243.7,42.41z"/>
		<path class="st3" d="M242.47,50.3l-0.51,1.35c0.13,0.06,0.26,0.12,0.39,0.18l0.43-1.15l4.25-0.87l1.17,0.86
			c0.02-0.02,0.21-0.38,0.21-0.38l-1.36-0.94L242.47,50.3z"/>
		<path class="st3" d="M247.98,45.24l1.18-0.78c-0.06-0.12-0.12-0.24-0.19-0.35l-0.02-0.03l-1.37,0.91l-0.46,3.88l1.57,1.12
			c0.08-0.12,0.16-0.23,0.24-0.36l-1.35-0.96L247.98,45.24z"/>
		<path class="st3" d="M248.74,43.81l-0.1-0.19c-0.04-0.06-0.09-0.12-0.14-0.17l-1.14,0.57l-3.02-1.81v-0.74
			c-0.14,0-0.29,0.01-0.43,0.02v0.96l3.43,2.06L248.74,43.81z"/>
		<path class="st3" d="M243.05,45.33c-0.83,0-1.5,0.67-1.5,1.5c0,0.83,0.67,1.5,1.5,1.5c0.83,0,1.5-0.67,1.5-1.5
			C244.56,46.01,243.88,45.33,243.05,45.33z M243.05,47.91c-0.59,0-1.07-0.48-1.07-1.07c0-0.59,0.48-1.07,1.07-1.07
			c0.59,0,1.07,0.48,1.07,1.07C244.13,47.43,243.65,47.91,243.05,47.91z"/>
		<path class="st3" d="M245.1,45.55c0.41,0,0.75-0.34,0.75-0.75c0-0.41-0.34-0.75-0.75-0.75c-0.41,0-0.75,0.34-0.75,0.75
			C244.34,45.21,244.68,45.55,245.1,45.55z M245.1,44.47c0.18,0,0.32,0.14,0.32,0.32c0,0.18-0.14,0.32-0.32,0.32
			c-0.18,0-0.32-0.14-0.32-0.32C244.77,44.62,244.92,44.47,245.1,44.47z"/>
		<path class="st3" d="M246.35,47.26l-0.07-0.2l-0.07-0.2c-0.03,0.01-0.7,0.24-0.91,0.8c-0.12,0.31-0.07,0.66,0.15,1.02l0.37-0.22
			c-0.15-0.24-0.18-0.46-0.12-0.64C245.83,47.43,246.34,47.26,246.35,47.26z"/>
		<path class="st3" d="M249.5,47.27c0,0.24-0.19,0.43-0.43,0.43c-0.24,0-0.43-0.19-0.43-0.43s0.19-0.43,0.43-0.43
			C249.31,46.84,249.5,47.03,249.5,47.27z"/>
		<path class="st3" d="M245.42,50.92c-0.59,0-1.07,0.48-1.07,1.07c0,0.07,0.01,0.14,0.02,0.21c0.15,0,0.3-0.01,0.44-0.02
			c-0.02-0.06-0.03-0.13-0.03-0.19c0-0.36,0.29-0.64,0.64-0.64c0.33,0,0.6,0.25,0.64,0.58c0.14-0.05,0.28-0.1,0.41-0.16
			C246.36,51.28,245.93,50.92,245.42,50.92z"/>
		<path class="st3" d="M239.51,48.77c-0.06,0-0.11,0.01-0.17,0.03c0.13,0.33,0.29,0.65,0.48,0.94c0.13-0.1,0.22-0.25,0.22-0.43
			C240.05,49.01,239.81,48.77,239.51,48.77L239.51,48.77z"/>
		<path class="st3" d="M241.08,42.71l0.3,0.3l-1.18,1.18l-0.3-0.3L241.08,42.71z"/>
		<path class="st3" d="M239.96,46.41h-0.96c-0.01,0.14-0.02,0.28-0.02,0.43h0.74l2.03,3.46l-0.38,1.01
			c0.12,0.08,0.25,0.16,0.37,0.23l0.48-1.28L239.96,46.41z"/>
	</g>
	<rect x="309.42" y="107.91" class="st5" width="124.35" height="45.19"/>
	<text transform="matrix(1 0 0 1 256.6624 135.4221)" class="st0 st6 st7">SCE Output Data</text>
	<text transform="matrix(1 0 0 1 300.14 187.735)" class="st0 st6 st7">AnnData RNA Outputs</text>
	<text transform="matrix(1 0 0 1 380.1507 188.0085)" class="st0 st6 st7">AnnData ADT Outputs</text>
	<rect x="477.59" y="107.91" class="st5" width="80.53" height="45.19"/>
	<text transform="matrix(1 0 0 1 452.7171 135.4221)" class="st0 st6 st7">Reports</text>
	<text transform="matrix(1 0 0 1 317.7562 146.1867)" class="st0 st1 st8">SCE</text>
	<text transform="matrix(1 0 0 1 321.0765 140.4348)" class="st3 st1 st8">Unfiltered </text>
	<text transform="matrix(1 0 0 1 329.8831 146.1867)" class="st3 st1 st8"> Object</text>
	<g>
		<path class="st3" d="M338.05,125.11h-0.56v-5.41c0-0.08-0.04-0.15-0.09-0.2l-4.31-4.23c-0.05-0.05-0.13-0.08-0.21-0.08h-7.39
			c-0.93,0-1.7,0.79-1.7,1.76v8.17h-0.56c-0.16,0-0.3,0.11-0.3,0.27v4.84c0,0.16,0.14,0.27,0.3,0.27h0.56v1
			c0,0.97,0.77,1.76,1.7,1.76h10.29c0.93,0,1.7-0.79,1.7-1.76v-1h0.56c0.16,0,0.3-0.11,0.3-0.27v-4.84
			C338.35,125.22,338.21,125.11,338.05,125.11L338.05,125.11z M333.15,116.14l3.36,3.27h-2.7c-0.18,0-0.35-0.07-0.47-0.2
			c-0.12-0.13-0.19-0.3-0.19-0.48V116.14z M324.37,116.93c0-0.65,0.51-1.18,1.13-1.18h7.08v2.98c0,0.33,0.13,0.65,0.36,0.88
			c0.23,0.23,0.55,0.37,0.88,0.37h3.1v5.13h-12.54V116.93z M336.92,131.48c0,0.65-0.51,1.18-1.13,1.18H325.5
			c-0.61,0-1.13-0.53-1.13-1.18v-1h12.54V131.48z M337.78,129.91h-14.26v-4.23h14.26V129.91z"/>
		<text transform="matrix(1 0 0 1 326.8343 129.4811)" class="st3 st1 st4">RDS</text>
		<path class="st3" d="M328.45,117.33v-0.77c-0.12,0.01-0.24,0.03-0.36,0.06v0.56l-2.99,2.99h-0.56c-0.02,0.12-0.04,0.24-0.06,0.36
			h0.77L328.45,117.33z"/>
		<path class="st3" d="M327.41,124.01l-0.43,1.14c0.11,0.05,0.22,0.1,0.33,0.15l0.36-0.97l3.61-0.73l0.99,0.73
			c0.01-0.02,0.18-0.32,0.18-0.32l-1.15-0.79L327.41,124.01z"/>
		<path class="st3" d="M332.08,119.72l1-0.67c-0.05-0.1-0.1-0.2-0.16-0.3l-0.01-0.02l-1.16,0.78l-0.39,3.29l1.33,0.95
			c0.07-0.1,0.14-0.2,0.2-0.3l-1.14-0.82L332.08,119.72z"/>
		<path class="st3" d="M332.72,118.51l-0.08-0.16c-0.04-0.05-0.08-0.1-0.12-0.15l-0.97,0.49l-2.56-1.54v-0.63
			c-0.12,0-0.24,0.01-0.36,0.02v0.82l2.91,1.74L332.72,118.51z"/>
		<path class="st3" d="M327.9,119.8c-0.7,0-1.27,0.57-1.27,1.28c0,0.7,0.57,1.28,1.27,1.28c0.7,0,1.28-0.57,1.28-1.28
			C329.18,120.37,328.61,119.8,327.9,119.8z M327.9,121.99c-0.5,0-0.91-0.41-0.91-0.91c0-0.5,0.41-0.91,0.91-0.91
			c0.5,0,0.91,0.41,0.91,0.91C328.82,121.58,328.41,121.99,327.9,121.99z"/>
		<path class="st3" d="M329.64,119.98c0.35,0,0.64-0.29,0.64-0.64c0-0.35-0.28-0.64-0.64-0.64c-0.35,0-0.64,0.29-0.64,0.64
			C329,119.7,329.28,119.98,329.64,119.98z M329.64,119.07c0.15,0,0.27,0.12,0.27,0.27c0,0.15-0.12,0.27-0.27,0.27
			c-0.15,0-0.27-0.12-0.27-0.27C329.36,119.19,329.48,119.07,329.64,119.07z"/>
		<path class="st3" d="M330.7,121.43l-0.06-0.17l-0.06-0.17c-0.02,0.01-0.6,0.2-0.77,0.68c-0.1,0.27-0.05,0.56,0.13,0.86l0.31-0.19
			c-0.12-0.21-0.16-0.39-0.1-0.55C330.26,121.58,330.69,121.43,330.7,121.43z"/>
		<path class="st3" d="M333.37,121.44c0,0.2-0.16,0.36-0.36,0.36c-0.2,0-0.36-0.16-0.36-0.36c0-0.2,0.16-0.36,0.36-0.36
			C333.21,121.08,333.37,121.24,333.37,121.44z"/>
		<path class="st3" d="M329.91,124.54c-0.5,0-0.91,0.41-0.91,0.91c0,0.06,0.01,0.12,0.02,0.18c0.13,0,0.25-0.01,0.38-0.02
			c-0.02-0.05-0.03-0.11-0.03-0.16c0-0.3,0.25-0.55,0.55-0.55c0.28,0,0.51,0.22,0.54,0.49c0.12-0.04,0.24-0.08,0.35-0.13
			C330.71,124.85,330.35,124.54,329.91,124.54z"/>
		<path class="st3" d="M324.9,122.72c-0.05,0-0.1,0.01-0.14,0.02c0.11,0.28,0.25,0.55,0.41,0.8c0.11-0.08,0.19-0.22,0.19-0.37
			C325.35,122.92,325.15,122.72,324.9,122.72L324.9,122.72z"/>
		<path class="st3" d="M326.23,117.58l0.26,0.26l-1,1l-0.26-0.26L326.23,117.58z"/>
		<path class="st3" d="M325.28,120.71h-0.82c-0.01,0.12-0.02,0.24-0.02,0.36h0.63l1.72,2.93l-0.32,0.86
			c0.1,0.07,0.21,0.13,0.32,0.19l0.41-1.09L325.28,120.71z"/>
	</g>
	<text transform="matrix(1 0 0 1 358.0199 146.1862)" class="st0 st1 st8">SCE</text>
	<text transform="matrix(1 0 0 1 363.6712 140.4343)" class="st3 st1 st8">Filtered </text>
	<text transform="matrix(1 0 0 1 370.1449 146.1862)" class="st3 st1 st8"> Object</text>
	<g>
		<path class="st3" d="M379.14,125.11h-0.56v-5.41c0-0.08-0.04-0.15-0.09-0.2l-4.31-4.23c-0.05-0.05-0.13-0.08-0.21-0.08h-7.39
			c-0.93,0-1.7,0.79-1.7,1.76v8.17h-0.56c-0.16,0-0.3,0.11-0.3,0.27v4.84c0,0.16,0.14,0.27,0.3,0.27h0.56v1
			c0,0.97,0.77,1.76,1.7,1.76h10.29c0.93,0,1.7-0.79,1.7-1.76v-1h0.56c0.16,0,0.3-0.11,0.3-0.27v-4.84
			C379.43,125.22,379.3,125.11,379.14,125.11L379.14,125.11z M374.24,116.14l3.36,3.27h-2.7c-0.18,0-0.35-0.07-0.47-0.2
			c-0.12-0.13-0.19-0.3-0.19-0.48V116.14z M365.46,116.93c0-0.65,0.51-1.18,1.13-1.18h7.08v2.98c0,0.33,0.13,0.65,0.36,0.88
			c0.23,0.23,0.55,0.37,0.88,0.37h3.1v5.13h-12.54V116.93z M378,131.48c0,0.65-0.51,1.18-1.13,1.18h-10.29
			c-0.61,0-1.13-0.53-1.13-1.18v-1H378V131.48z M378.86,129.91H364.6v-4.23h14.26V129.91z"/>
		<text transform="matrix(1 0 0 1 367.9183 129.4807)" class="st3 st1 st4">RDS</text>
		<path class="st3" d="M369.54,117.33v-0.77c-0.12,0.01-0.24,0.03-0.36,0.06v0.56l-2.99,2.99h-0.56c-0.02,0.12-0.04,0.24-0.06,0.36
			h0.77L369.54,117.33z"/>
		<path class="st3" d="M368.49,124.01l-0.43,1.14c0.11,0.05,0.22,0.1,0.33,0.15l0.36-0.97l3.61-0.73l0.99,0.73
			c0.01-0.02,0.18-0.32,0.18-0.32l-1.15-0.79L368.49,124.01z"/>
		<path class="st3" d="M373.17,119.72l1-0.67c-0.05-0.1-0.1-0.2-0.16-0.3l-0.01-0.02l-1.16,0.78l-0.39,3.29l1.33,0.95
			c0.07-0.1,0.14-0.2,0.2-0.3l-1.14-0.82L373.17,119.72z"/>
		<path class="st3" d="M373.81,118.51l-0.08-0.16c-0.04-0.05-0.08-0.1-0.12-0.15l-0.97,0.49l-2.56-1.54v-0.63
			c-0.12,0-0.24,0.01-0.36,0.02v0.82l2.91,1.74L373.81,118.51z"/>
		<path class="st3" d="M368.99,119.8c-0.7,0-1.27,0.57-1.27,1.28c0,0.7,0.57,1.28,1.27,1.28c0.7,0,1.28-0.57,1.28-1.28
			C370.26,120.37,369.69,119.8,368.99,119.8z M368.99,121.99c-0.5,0-0.91-0.41-0.91-0.91c0-0.5,0.41-0.91,0.91-0.91
			c0.5,0,0.91,0.41,0.91,0.91C369.9,121.58,369.49,121.99,368.99,121.99z"/>
		<path class="st3" d="M370.72,119.98c0.35,0,0.64-0.29,0.64-0.64c0-0.35-0.28-0.64-0.64-0.64c-0.35,0-0.64,0.29-0.64,0.64
			C370.08,119.7,370.37,119.98,370.72,119.98z M370.72,119.07c0.15,0,0.27,0.12,0.27,0.27c0,0.15-0.12,0.27-0.27,0.27
			s-0.27-0.12-0.27-0.27C370.45,119.19,370.57,119.07,370.72,119.07z"/>
		<path class="st3" d="M371.78,121.43l-0.06-0.17l-0.06-0.17c-0.02,0.01-0.6,0.2-0.77,0.68c-0.1,0.27-0.05,0.56,0.13,0.86l0.31-0.19
			c-0.12-0.21-0.16-0.39-0.1-0.55C371.35,121.58,371.78,121.43,371.78,121.43z"/>
		<path class="st3" d="M374.46,121.44c0,0.2-0.16,0.36-0.36,0.36c-0.2,0-0.36-0.16-0.36-0.36c0-0.2,0.16-0.36,0.36-0.36
			C374.29,121.08,374.46,121.24,374.46,121.44z"/>
		<path class="st3" d="M370.99,124.54c-0.5,0-0.91,0.41-0.91,0.91c0,0.06,0.01,0.12,0.02,0.18c0.13,0,0.25-0.01,0.38-0.02
			c-0.02-0.05-0.03-0.11-0.03-0.16c0-0.3,0.25-0.55,0.55-0.55c0.28,0,0.51,0.22,0.54,0.49c0.12-0.04,0.24-0.08,0.35-0.13
			C371.8,124.85,371.43,124.54,370.99,124.54z"/>
		<path class="st3" d="M365.98,122.72c-0.05,0-0.1,0.01-0.14,0.02c0.11,0.28,0.25,0.55,0.41,0.8c0.11-0.08,0.19-0.22,0.19-0.37
			C366.44,122.92,366.24,122.72,365.98,122.72L365.98,122.72z"/>
		<path class="st3" d="M367.31,117.58l0.26,0.26l-1,1l-0.26-0.26L367.31,117.58z"/>
		<path class="st3" d="M366.36,120.71h-0.82c-0.01,0.12-0.02,0.24-0.02,0.36h0.63l1.72,2.93l-0.32,0.86
			c0.1,0.07,0.21,0.13,0.32,0.19l0.41-1.09L366.36,120.71z"/>
	</g>
	<text transform="matrix(1 0 0 1 400.3372 146.1867)" class="st0 st1 st8">SCE</text>
	<text transform="matrix(1 0 0 1 402.5648 140.4348)" class="st3 st1 st8">Processed </text>
	<text transform="matrix(1 0 0 1 412.4622 146.1867)" class="st3 st1 st8"> Object</text>
	<g>
		<path class="st3" d="M422.31,125.11h-0.56v-5.41c0-0.08-0.04-0.15-0.09-0.2l-4.31-4.23c-0.05-0.05-0.13-0.08-0.21-0.08h-7.39
			c-0.93,0-1.7,0.79-1.7,1.76v8.17h-0.56c-0.16,0-0.3,0.11-0.3,0.27v4.84c0,0.16,0.14,0.27,0.3,0.27h0.56v1
			c0,0.97,0.77,1.76,1.7,1.76h10.29c0.93,0,1.7-0.79,1.7-1.76v-1h0.56c0.16,0,0.3-0.11,0.3-0.27v-4.84
			C422.61,125.22,422.47,125.11,422.31,125.11L422.31,125.11z M417.41,116.14l3.36,3.27h-2.7c-0.18,0-0.35-0.07-0.47-0.2
			c-0.12-0.13-0.19-0.3-0.19-0.48V116.14z M408.63,116.93c0-0.65,0.51-1.18,1.13-1.18h7.08v2.98c0,0.33,0.13,0.65,0.36,0.88
			c0.23,0.23,0.55,0.37,0.88,0.37h3.1v5.13h-12.54V116.93z M421.17,131.48c0,0.65-0.51,1.18-1.13,1.18h-10.29
			c-0.61,0-1.13-0.53-1.13-1.18v-1h12.54V131.48z M422.03,129.91h-14.26v-4.23h14.26V129.91z"/>
		<text transform="matrix(1 0 0 1 411.2279 129.4811)" class="st3 st1 st4">RDS</text>
		<path class="st3" d="M412.71,117.33v-0.77c-0.12,0.01-0.24,0.03-0.36,0.06v0.56l-2.99,2.99h-0.56c-0.02,0.12-0.04,0.24-0.06,0.36
			h0.77L412.71,117.33z"/>
		<path class="st3" d="M411.66,124.01l-0.43,1.14c0.11,0.05,0.22,0.1,0.33,0.15l0.36-0.97l3.61-0.73l0.99,0.73
			c0.01-0.02,0.18-0.32,0.18-0.32l-1.15-0.79L411.66,124.01z"/>
		<path class="st3" d="M416.34,119.72l1-0.67c-0.05-0.1-0.1-0.2-0.16-0.3l-0.01-0.02l-1.16,0.78l-0.39,3.29l1.33,0.95
			c0.07-0.1,0.14-0.2,0.2-0.3l-1.14-0.82L416.34,119.72z"/>
		<path class="st3" d="M416.98,118.51l-0.08-0.16c-0.04-0.05-0.08-0.1-0.12-0.15l-0.97,0.49l-2.56-1.54v-0.63
			c-0.12,0-0.24,0.01-0.36,0.02v0.82l2.91,1.74L416.98,118.51z"/>
		<path class="st3" d="M412.16,119.8c-0.7,0-1.27,0.57-1.27,1.28c0,0.7,0.57,1.28,1.27,1.28c0.7,0,1.28-0.57,1.28-1.28
			C413.44,120.37,412.87,119.8,412.16,119.8z M412.16,121.99c-0.5,0-0.91-0.41-0.91-0.91c0-0.5,0.41-0.91,0.91-0.91
			c0.5,0,0.91,0.41,0.91,0.91C413.07,121.58,412.67,121.99,412.16,121.99z"/>
		<path class="st3" d="M413.89,119.98c0.35,0,0.64-0.29,0.64-0.64c0-0.35-0.28-0.64-0.64-0.64c-0.35,0-0.64,0.29-0.64,0.64
			C413.25,119.7,413.54,119.98,413.89,119.98z M413.89,119.07c0.15,0,0.27,0.12,0.27,0.27c0,0.15-0.12,0.27-0.27,0.27
			s-0.27-0.12-0.27-0.27C413.62,119.19,413.74,119.07,413.89,119.07z"/>
		<path class="st3" d="M414.95,121.43l-0.06-0.17l-0.06-0.17c-0.02,0.01-0.6,0.2-0.77,0.68c-0.1,0.27-0.05,0.56,0.13,0.86l0.31-0.19
			c-0.12-0.21-0.16-0.39-0.1-0.55C414.52,121.58,414.95,121.43,414.95,121.43z"/>
		<path class="st3" d="M417.63,121.44c0,0.2-0.16,0.36-0.36,0.36c-0.2,0-0.36-0.16-0.36-0.36c0-0.2,0.16-0.36,0.36-0.36
			C417.46,121.08,417.63,121.24,417.63,121.44z"/>
		<path class="st3" d="M414.17,124.54c-0.5,0-0.91,0.41-0.91,0.91c0,0.06,0.01,0.12,0.02,0.18c0.13,0,0.25-0.01,0.38-0.02
			c-0.02-0.05-0.03-0.11-0.03-0.16c0-0.3,0.25-0.55,0.55-0.55c0.28,0,0.51,0.22,0.54,0.49c0.12-0.04,0.24-0.08,0.35-0.13
			C414.97,124.85,414.61,124.54,414.17,124.54z"/>
		<path class="st3" d="M409.16,122.72c-0.05,0-0.1,0.01-0.14,0.02c0.11,0.28,0.25,0.55,0.41,0.8c0.11-0.08,0.19-0.22,0.19-0.37
			C409.61,122.92,409.41,122.72,409.16,122.72L409.16,122.72z"/>
		<path class="st3" d="M410.49,117.58l0.26,0.26l-1,1l-0.26-0.26L410.49,117.58z"/>
		<path class="st3" d="M409.54,120.71h-0.82c-0.01,0.12-0.02,0.24-0.02,0.36h0.63l1.72,2.93l-0.32,0.86
			c0.1,0.07,0.21,0.13,0.32,0.19l0.41-1.09L409.54,120.71z"/>
	</g>
	<rect x="381.18" y="191.18" class="st5" width="124.35" height="51.77"/>
	<text transform="matrix(1 0 0 1 392.5208 230.5466)" class="st0 st1 st8">AnnData</text>
	<text transform="matrix(1 0 0 1 386.1351 224.7936)" class="st3 st1 st8">Unfiltered ADT </text>
	<text transform="matrix(1 0 0 1 411.7318 230.5466)" class="st3 st1 st8"> </text>
	<text transform="matrix(1 0 0 1 395.0013 236.2985)" class="st3 st1 st8">Object</text>
	<g>
		<path class="st3" d="M409.54,208.92h-0.56v-5.41c0-0.08-0.04-0.15-0.09-0.2l-4.31-4.23c-0.05-0.05-0.13-0.08-0.21-0.08h-7.39
			c-0.93,0-1.7,0.79-1.7,1.76v8.17h-0.56c-0.16,0-0.3,0.11-0.3,0.27v4.84c0,0.16,0.14,0.27,0.3,0.27h0.56v1
			c0,0.97,0.77,1.76,1.7,1.76h10.29c0.93,0,1.7-0.79,1.7-1.76v-1h0.56c0.16,0,0.3-0.11,0.3-0.27v-4.84
			C409.84,209.03,409.7,208.92,409.54,208.92L409.54,208.92z M404.64,199.95l3.36,3.27h-2.7c-0.18,0-0.35-0.07-0.47-0.2
			c-0.12-0.13-0.19-0.3-0.19-0.48V199.95z M395.86,200.75c0-0.65,0.51-1.18,1.13-1.18h7.08v2.98c0,0.33,0.13,0.65,0.36,0.88
			c0.23,0.23,0.55,0.37,0.88,0.37h3.1v5.13h-12.54V200.75z M408.4,215.3c0,0.65-0.51,1.18-1.13,1.18h-10.29
			c-0.61,0-1.13-0.53-1.13-1.18v-1h12.54V215.3z M409.26,213.72H395v-4.23h14.26V213.72z"/>
		<text transform="matrix(1 0 0 1 396.8665 213.2927)" class="st3 st1 st4">HDF5</text>
		<path class="st3" d="M399.94,201.14v-0.77c-0.12,0.01-0.24,0.03-0.36,0.06v0.56l-2.99,2.99h-0.56c-0.02,0.12-0.04,0.24-0.06,0.36
			h0.77L399.94,201.14z"/>
		<path class="st3" d="M398.89,207.83l-0.43,1.14c0.11,0.05,0.22,0.1,0.33,0.15l0.36-0.97l3.61-0.73l0.99,0.73
			c0.01-0.02,0.18-0.32,0.18-0.32l-1.15-0.79L398.89,207.83z"/>
		<path class="st3" d="M403.57,203.54l1-0.67c-0.05-0.1-0.1-0.2-0.16-0.3l-0.01-0.02l-1.16,0.78l-0.39,3.29l1.33,0.95
			c0.07-0.1,0.14-0.2,0.2-0.3l-1.14-0.82L403.57,203.54z"/>
		<path class="st3" d="M404.21,202.32l-0.08-0.16c-0.04-0.05-0.08-0.1-0.12-0.15l-0.97,0.49l-2.56-1.54v-0.63
			c-0.12,0-0.24,0.01-0.36,0.02v0.82l2.91,1.74L404.21,202.32z"/>
		<path class="st3" d="M399.39,203.61c-0.7,0-1.27,0.57-1.27,1.28c0,0.7,0.57,1.28,1.27,1.28c0.7,0,1.28-0.57,1.28-1.28
			C400.67,204.19,400.09,203.61,399.39,203.61z M399.39,205.8c-0.5,0-0.91-0.41-0.91-0.91c0-0.5,0.41-0.91,0.91-0.91
			c0.5,0,0.91,0.41,0.91,0.91C400.3,205.39,399.9,205.8,399.39,205.8z"/>
		<path class="st3" d="M401.12,203.8c0.35,0,0.64-0.29,0.64-0.64c0-0.35-0.28-0.64-0.64-0.64c-0.35,0-0.64,0.29-0.64,0.64
			C400.48,203.51,400.77,203.8,401.12,203.8z M401.12,202.88c0.15,0,0.27,0.12,0.27,0.27c0,0.15-0.12,0.27-0.27,0.27
			c-0.15,0-0.27-0.12-0.27-0.27C400.85,203.01,400.97,202.88,401.12,202.88z"/>
		<path class="st3" d="M402.18,205.24l-0.06-0.17l-0.06-0.17c-0.02,0.01-0.6,0.2-0.77,0.68c-0.1,0.27-0.05,0.56,0.13,0.86l0.31-0.19
			c-0.12-0.21-0.16-0.39-0.1-0.55C401.75,205.39,402.18,205.24,402.18,205.24z"/>
		<path class="st3" d="M404.86,205.25c0,0.2-0.16,0.36-0.36,0.36c-0.2,0-0.36-0.16-0.36-0.36c0-0.2,0.16-0.36,0.36-0.36
			C404.69,204.89,404.86,205.05,404.86,205.25z"/>
		<path class="st3" d="M401.4,208.35c-0.5,0-0.91,0.41-0.91,0.91c0,0.06,0.01,0.12,0.02,0.18c0.13,0,0.25-0.01,0.38-0.02
			c-0.02-0.05-0.03-0.11-0.03-0.16c0-0.3,0.25-0.55,0.55-0.55c0.28,0,0.51,0.22,0.54,0.49c0.12-0.04,0.24-0.08,0.35-0.13
			C402.2,208.66,401.83,208.35,401.4,208.35z"/>
		<path class="st3" d="M396.39,206.53c-0.05,0-0.1,0.01-0.14,0.02c0.11,0.28,0.25,0.55,0.41,0.8c0.11-0.08,0.19-0.22,0.19-0.37
			C396.84,206.73,396.64,206.53,396.39,206.53L396.39,206.53z"/>
		<path class="st3" d="M397.71,201.39l0.26,0.26l-1,1l-0.26-0.26L397.71,201.39z"/>
		<path class="st3" d="M396.76,204.52h-0.82c-0.01,0.12-0.02,0.24-0.02,0.36h0.63l1.72,2.93l-0.32,0.86
			c0.1,0.07,0.21,0.13,0.32,0.19l0.41-1.09L396.76,204.52z"/>
	</g>
	<text transform="matrix(1 0 0 1 433.4769 230.5466)" class="st0 st1 st8">AnnData</text>
	<text transform="matrix(1 0 0 1 429.4134 224.7936)" class="st3 st1 st8">Filtered ADT </text>
	<text transform="matrix(1 0 0 1 452.6781 230.5466)" class="st3 st1 st8"> </text>
	<text transform="matrix(1 0 0 1 435.9486 236.2985)" class="st3 st1 st8">Object</text>
	<g>
		<path class="st3" d="M450.9,208.92h-0.56v-5.41c0-0.08-0.04-0.15-0.09-0.2l-4.31-4.23c-0.05-0.05-0.13-0.08-0.21-0.08h-7.39
			c-0.93,0-1.7,0.79-1.7,1.76v8.17h-0.56c-0.16,0-0.3,0.11-0.3,0.27v4.84c0,0.16,0.14,0.27,0.3,0.27h0.56v1
			c0,0.97,0.77,1.76,1.7,1.76h10.29c0.93,0,1.7-0.79,1.7-1.76v-1h0.56c0.16,0,0.3-0.11,0.3-0.27v-4.84
			C451.2,209.03,451.06,208.92,450.9,208.92L450.9,208.92z M446,199.95l3.36,3.27h-2.7c-0.18,0-0.35-0.07-0.47-0.2
			c-0.12-0.13-0.19-0.3-0.19-0.48V199.95z M437.22,200.75c0-0.65,0.51-1.18,1.13-1.18h7.08v2.98c0,0.33,0.13,0.65,0.36,0.88
			c0.23,0.23,0.55,0.37,0.88,0.37h3.1v5.13h-12.54V200.75z M449.76,215.3c0,0.65-0.51,1.18-1.13,1.18h-10.29
			c-0.61,0-1.13-0.53-1.13-1.18v-1h12.54V215.3z M450.62,213.72h-14.26v-4.23h14.26V213.72z"/>
		<text transform="matrix(1 0 0 1 438.4974 213.2936)" class="st3 st1 st4">HDF5</text>
		<path class="st3" d="M441.3,201.14v-0.77c-0.12,0.01-0.24,0.03-0.36,0.06v0.56l-2.99,2.99h-0.56c-0.02,0.12-0.04,0.24-0.06,0.36
			h0.77L441.3,201.14z"/>
		<path class="st3" d="M440.25,207.83l-0.43,1.14c0.11,0.05,0.22,0.1,0.33,0.15l0.36-0.97l3.61-0.73l0.99,0.73
			c0.01-0.02,0.18-0.32,0.18-0.32l-1.15-0.79L440.25,207.83z"/>
		<path class="st3" d="M444.93,203.54l1-0.67c-0.05-0.1-0.1-0.2-0.16-0.3l-0.01-0.02l-1.16,0.78l-0.39,3.29l1.33,0.95
			c0.07-0.1,0.14-0.2,0.2-0.3l-1.14-0.82L444.93,203.54z"/>
		<path class="st3" d="M445.57,202.32l-0.08-0.16c-0.04-0.05-0.08-0.1-0.12-0.15l-0.97,0.49l-2.56-1.54v-0.63
			c-0.12,0-0.24,0.01-0.36,0.02v0.82l2.91,1.74L445.57,202.32z"/>
		<path class="st3" d="M440.75,203.61c-0.7,0-1.27,0.57-1.27,1.28c0,0.7,0.57,1.28,1.27,1.28c0.7,0,1.28-0.57,1.28-1.28
			C442.03,204.19,441.45,203.61,440.75,203.61z M440.75,205.8c-0.5,0-0.91-0.41-0.91-0.91c0-0.5,0.41-0.91,0.91-0.91
			c0.5,0,0.91,0.41,0.91,0.91C441.66,205.39,441.25,205.8,440.75,205.8z"/>
		<path class="st3" d="M442.48,203.8c0.35,0,0.64-0.29,0.64-0.64c0-0.35-0.28-0.64-0.64-0.64c-0.35,0-0.64,0.29-0.64,0.64
			C441.84,203.51,442.13,203.8,442.48,203.8z M442.48,202.88c0.15,0,0.27,0.12,0.27,0.27c0,0.15-0.12,0.27-0.27,0.27
			c-0.15,0-0.27-0.12-0.27-0.27C442.21,203.01,442.33,202.88,442.48,202.88z"/>
		<path class="st3" d="M443.54,205.24l-0.06-0.17l-0.06-0.17c-0.02,0.01-0.6,0.2-0.77,0.68c-0.1,0.27-0.05,0.56,0.13,0.86l0.31-0.19
			c-0.12-0.21-0.16-0.39-0.1-0.55C443.11,205.39,443.54,205.24,443.54,205.24z"/>
		<path class="st3" d="M446.22,205.25c0,0.2-0.16,0.36-0.36,0.36c-0.2,0-0.36-0.16-0.36-0.36c0-0.2,0.16-0.36,0.36-0.36
			C446.05,204.89,446.22,205.05,446.22,205.25z"/>
		<path class="st3" d="M442.75,208.35c-0.5,0-0.91,0.41-0.91,0.91c0,0.06,0.01,0.12,0.02,0.18c0.13,0,0.25-0.01,0.38-0.02
			c-0.02-0.05-0.03-0.11-0.03-0.16c0-0.3,0.25-0.55,0.55-0.55c0.28,0,0.51,0.22,0.54,0.49c0.12-0.04,0.24-0.08,0.35-0.13
			C443.56,208.66,443.19,208.35,442.75,208.35z"/>
		<path class="st3" d="M437.74,206.53c-0.05,0-0.1,0.01-0.14,0.02c0.11,0.28,0.25,0.55,0.41,0.8c0.11-0.08,0.19-0.22,0.19-0.37
			C438.2,206.73,438,206.53,437.74,206.53L437.74,206.53z"/>
		<path class="st3" d="M439.07,201.39l0.26,0.26l-1,1l-0.26-0.26L439.07,201.39z"/>
		<path class="st3" d="M438.12,204.52h-0.82c-0.01,0.12-0.02,0.24-0.02,0.36h0.63l1.72,2.93l-0.32,0.86
			c0.1,0.07,0.21,0.13,0.32,0.19l0.41-1.09L438.12,204.52z"/>
	</g>
	<text transform="matrix(1 0 0 1 481.306 230.5461)" class="st0 st1 st8">AnnData</text>
	<text transform="matrix(1 0 0 1 472.5111 224.7951)" class="st3 st1 st8">Processed </text>
	<text transform="matrix(1 0 0 1 468.7181 230.5461)" class="st3 st1 st8">ADT </text>
	<text transform="matrix(1 0 0 1 499.1996 230.5461)" class="st3 st1 st8"> </text>
	<text transform="matrix(1 0 0 1 477.0326 236.298)" class="st3 st1 st8">Object</text>
	<g>
		<path class="st3" d="M493.08,208.92h-0.56v-5.41c0-0.08-0.04-0.15-0.09-0.2l-4.31-4.23c-0.05-0.05-0.13-0.08-0.21-0.08h-7.39
			c-0.93,0-1.7,0.79-1.7,1.76v8.17h-0.56c-0.16,0-0.3,0.11-0.3,0.27v4.84c0,0.16,0.14,0.27,0.3,0.27h0.56v1
			c0,0.97,0.77,1.76,1.7,1.76h10.29c0.93,0,1.7-0.79,1.7-1.76v-1h0.56c0.16,0,0.3-0.11,0.3-0.27v-4.84
			C493.38,209.03,493.24,208.92,493.08,208.92L493.08,208.92z M488.18,199.95l3.36,3.27h-2.7c-0.18,0-0.35-0.07-0.47-0.2
			c-0.12-0.13-0.19-0.3-0.19-0.48V199.95z M479.4,200.75c0-0.65,0.51-1.18,1.13-1.18h7.08v2.98c0,0.33,0.13,0.65,0.36,0.88
			c0.23,0.23,0.55,0.37,0.88,0.37h3.1v5.13H479.4V200.75z M491.94,215.3c0,0.65-0.51,1.18-1.13,1.18h-10.29
			c-0.61,0-1.13-0.53-1.13-1.18v-1h12.54V215.3z M492.8,213.72h-14.26v-4.23h14.26V213.72z"/>
		<text transform="matrix(1 0 0 1 480.679 213.2927)" class="st3 st1 st4">HDF5</text>
		<path class="st3" d="M483.48,201.14v-0.77c-0.12,0.01-0.24,0.03-0.36,0.06v0.56l-2.99,2.99h-0.56c-0.02,0.12-0.04,0.24-0.06,0.36
			h0.77L483.48,201.14z"/>
		<path class="st3" d="M482.43,207.83l-0.43,1.14c0.11,0.05,0.22,0.1,0.33,0.15l0.36-0.97l3.61-0.73l0.99,0.73
			c0.01-0.02,0.18-0.32,0.18-0.32l-1.15-0.79L482.43,207.83z"/>
		<path class="st3" d="M487.11,203.54l1-0.67c-0.05-0.1-0.1-0.2-0.16-0.3l-0.01-0.02l-1.16,0.78l-0.39,3.29l1.33,0.95
			c0.07-0.1,0.14-0.2,0.2-0.3l-1.14-0.82L487.11,203.54z"/>
		<path class="st3" d="M487.75,202.32l-0.08-0.16c-0.04-0.05-0.08-0.1-0.12-0.15l-0.97,0.49l-2.56-1.54v-0.63
			c-0.12,0-0.24,0.01-0.36,0.02v0.82l2.91,1.74L487.75,202.32z"/>
		<path class="st3" d="M482.93,203.61c-0.7,0-1.27,0.57-1.27,1.28c0,0.7,0.57,1.28,1.27,1.28c0.7,0,1.28-0.57,1.28-1.28
			C484.21,204.19,483.63,203.61,482.93,203.61z M482.93,205.8c-0.5,0-0.91-0.41-0.91-0.91c0-0.5,0.41-0.91,0.91-0.91
			c0.5,0,0.91,0.41,0.91,0.91C483.84,205.39,483.43,205.8,482.93,205.8z"/>
		<path class="st3" d="M484.66,203.8c0.35,0,0.64-0.29,0.64-0.64c0-0.35-0.28-0.64-0.64-0.64c-0.35,0-0.64,0.29-0.64,0.64
			C484.02,203.51,484.31,203.8,484.66,203.8z M484.66,202.88c0.15,0,0.27,0.12,0.27,0.27c0,0.15-0.12,0.27-0.27,0.27
			c-0.15,0-0.27-0.12-0.27-0.27C484.39,203.01,484.51,202.88,484.66,202.88z"/>
		<path class="st3" d="M485.72,205.24l-0.06-0.17l-0.06-0.17c-0.02,0.01-0.6,0.2-0.77,0.68c-0.1,0.27-0.05,0.56,0.13,0.86l0.31-0.19
			c-0.12-0.21-0.16-0.39-0.1-0.55C485.29,205.39,485.72,205.24,485.72,205.24z"/>
		<path class="st3" d="M488.4,205.25c0,0.2-0.16,0.36-0.36,0.36c-0.2,0-0.36-0.16-0.36-0.36c0-0.2,0.16-0.36,0.36-0.36
			C488.23,204.89,488.4,205.05,488.4,205.25z"/>
		<path class="st3" d="M484.93,208.35c-0.5,0-0.91,0.41-0.91,0.91c0,0.06,0.01,0.12,0.02,0.18c0.13,0,0.25-0.01,0.38-0.02
			c-0.02-0.05-0.03-0.11-0.03-0.16c0-0.3,0.25-0.55,0.55-0.55c0.28,0,0.51,0.22,0.54,0.49c0.12-0.04,0.24-0.08,0.35-0.13
			C485.74,208.66,485.37,208.35,484.93,208.35z"/>
		<path class="st3" d="M479.92,206.53c-0.05,0-0.1,0.01-0.14,0.02c0.11,0.28,0.25,0.55,0.41,0.8c0.11-0.08,0.19-0.22,0.19-0.37
			C480.38,206.73,480.18,206.53,479.92,206.53L479.92,206.53z"/>
		<path class="st3" d="M481.25,201.39l0.26,0.26l-1,1l-0.26-0.26L481.25,201.39z"/>
		<path class="st3" d="M480.3,204.52h-0.82c-0.01,0.12-0.02,0.24-0.02,0.36h0.63l1.72,2.93l-0.32,0.86c0.1,0.07,0.21,0.13,0.32,0.19
			l0.41-1.09L480.3,204.52z"/>
	</g>
	<rect x="235.74" y="191.72" class="st5" width="124.35" height="51.77"/>
	<text transform="matrix(1 0 0 1 247.4925 230.5466)" class="st0 st1 st8">AnnData</text>
	<text transform="matrix(1 0 0 1 240.785 224.7956)" class="st3 st1 st8">Unfiltered RNA </text>
	<text transform="matrix(1 0 0 1 266.7025 230.5475)" class="st3 st1 st8"> </text>
	<text transform="matrix(1 0 0 1 249.9725 236.2985)" class="st3 st1 st8">Object</text>
	<g>
		<path class="st3" d="M264.37,208.92h-0.56v-5.41c0-0.08-0.03-0.15-0.09-0.2l-4.31-4.23c-0.05-0.05-0.13-0.08-0.2-0.08h-7.39
			c-0.93,0-1.7,0.79-1.7,1.76v8.17h-0.56c-0.16,0-0.3,0.11-0.3,0.27v4.84c0,0.16,0.14,0.27,0.3,0.27h0.56v1
			c0,0.97,0.77,1.76,1.7,1.76h10.29c0.93,0,1.7-0.79,1.7-1.76v-1h0.56c0.16,0,0.3-0.11,0.3-0.27v-4.84
			C264.67,209.03,264.53,208.92,264.37,208.92L264.37,208.92z M259.47,199.95l3.35,3.27h-2.7c-0.18,0-0.35-0.07-0.47-0.2
			c-0.12-0.13-0.19-0.3-0.19-0.48V199.95z M250.69,200.75c0-0.65,0.51-1.18,1.13-1.18h7.08v2.98c0,0.33,0.13,0.65,0.36,0.88
			c0.23,0.23,0.55,0.37,0.88,0.37h3.1v5.13h-12.54V200.75z M263.24,215.3c0,0.65-0.51,1.18-1.13,1.18h-10.29
			c-0.61,0-1.13-0.53-1.13-1.18v-1h12.54V215.3z M264.1,213.72h-14.26v-4.23h14.26V213.72z"/>
		<text transform="matrix(1 0 0 1 251.701 213.2932)" class="st3 st1 st4">HDF5</text>
		<path class="st3" d="M254.77,201.14v-0.77c-0.12,0.01-0.24,0.03-0.36,0.06v0.56l-2.99,2.99h-0.56c-0.02,0.12-0.04,0.24-0.06,0.36
			h0.77L254.77,201.14z"/>
		<path class="st3" d="M253.73,207.83l-0.43,1.14c0.11,0.05,0.22,0.1,0.33,0.15l0.37-0.97l3.61-0.73l0.99,0.73
			c0.02-0.02,0.18-0.32,0.18-0.32l-1.15-0.79L253.73,207.83z"/>
		<path class="st3" d="M258.41,203.54l1-0.67c-0.05-0.1-0.1-0.2-0.16-0.3l-0.01-0.02l-1.16,0.78l-0.39,3.29l1.33,0.95
			c0.07-0.1,0.14-0.2,0.2-0.3l-1.14-0.82L258.41,203.54z"/>
		<path class="st3" d="M259.05,202.32l-0.08-0.16c-0.04-0.05-0.08-0.1-0.11-0.15l-0.97,0.49l-2.56-1.54v-0.63
			c-0.12,0-0.24,0.01-0.36,0.02v0.82l2.91,1.74L259.05,202.32z"/>
		<path class="st3" d="M254.23,203.61c-0.7,0-1.28,0.57-1.28,1.28c0,0.7,0.57,1.28,1.28,1.28c0.7,0,1.28-0.57,1.28-1.28
			C255.5,204.19,254.93,203.61,254.23,203.61z M254.23,205.8c-0.5,0-0.91-0.41-0.91-0.91c0-0.5,0.41-0.91,0.91-0.91
			s0.91,0.41,0.91,0.91C255.14,205.39,254.73,205.8,254.23,205.8z"/>
		<path class="st3" d="M255.96,203.8c0.35,0,0.64-0.29,0.64-0.64c0-0.35-0.29-0.64-0.64-0.64c-0.35,0-0.64,0.29-0.64,0.64
			C255.32,203.51,255.61,203.8,255.96,203.8z M255.96,202.88c0.15,0,0.27,0.12,0.27,0.27c0,0.15-0.12,0.27-0.27,0.27
			c-0.15,0-0.27-0.12-0.27-0.27C255.68,203.01,255.81,202.88,255.96,202.88z"/>
		<path class="st3" d="M257.02,205.24l-0.06-0.17l-0.06-0.17c-0.02,0.01-0.6,0.2-0.77,0.68c-0.1,0.27-0.06,0.56,0.13,0.86l0.31-0.19
			c-0.12-0.21-0.16-0.39-0.1-0.55C256.58,205.39,257.01,205.24,257.02,205.24z"/>
		<path class="st3" d="M259.69,205.25c0,0.2-0.16,0.36-0.36,0.36s-0.36-0.16-0.36-0.36c0-0.2,0.16-0.36,0.36-0.36
			S259.69,205.05,259.69,205.25z"/>
		<path class="st3" d="M256.23,208.35c-0.5,0-0.91,0.41-0.91,0.91c0,0.06,0.01,0.12,0.02,0.18c0.13,0,0.25-0.01,0.37-0.02
			c-0.02-0.05-0.03-0.11-0.03-0.16c0-0.3,0.25-0.55,0.55-0.55c0.28,0,0.51,0.22,0.54,0.49c0.12-0.04,0.24-0.08,0.35-0.13
			C257.03,208.66,256.67,208.35,256.23,208.35z"/>
		<path class="st3" d="M251.22,206.53c-0.05,0-0.1,0.01-0.14,0.02c0.11,0.28,0.25,0.55,0.41,0.8c0.11-0.08,0.19-0.22,0.19-0.37
			C251.68,206.73,251.47,206.53,251.22,206.53L251.22,206.53z"/>
		<path class="st3" d="M252.55,201.39l0.26,0.26l-1,1l-0.26-0.26L252.55,201.39z"/>
		<path class="st3" d="M251.6,204.52h-0.82c-0.01,0.12-0.02,0.24-0.02,0.36h0.62l1.73,2.93l-0.32,0.86c0.1,0.07,0.21,0.13,0.32,0.19
			l0.41-1.09L251.6,204.52z"/>
	</g>
	<text transform="matrix(1 0 0 1 288.8602 230.5466)" class="st0 st1 st8">AnnData</text>
	<text transform="matrix(1 0 0 1 284.4749 224.7956)" class="st3 st1 st8">Filtered RNA </text>
	<text transform="matrix(1 0 0 1 308.0599 230.5466)" class="st3 st1 st8"> </text>
	<text transform="matrix(1 0 0 1 291.3309 236.2985)" class="st3 st1 st8">Object</text>
	<g>
		<path class="st3" d="M305.46,208.92h-0.56v-5.41c0-0.08-0.04-0.15-0.09-0.2l-4.31-4.23c-0.05-0.05-0.13-0.08-0.21-0.08h-7.39
			c-0.93,0-1.7,0.79-1.7,1.76v8.17h-0.56c-0.16,0-0.3,0.11-0.3,0.27v4.84c0,0.16,0.14,0.27,0.3,0.27h0.56v1
			c0,0.97,0.77,1.76,1.7,1.76h10.29c0.93,0,1.7-0.79,1.7-1.76v-1h0.56c0.16,0,0.3-0.11,0.3-0.27v-4.84
			C305.76,209.03,305.62,208.92,305.46,208.92L305.46,208.92z M300.56,199.95l3.36,3.27h-2.7c-0.18,0-0.35-0.07-0.47-0.2
			c-0.12-0.13-0.19-0.3-0.19-0.48V199.95z M291.78,200.75c0-0.65,0.51-1.18,1.13-1.18h7.08v2.98c0,0.33,0.13,0.65,0.36,0.88
			c0.23,0.23,0.55,0.37,0.88,0.37h3.1v5.13h-12.54V200.75z M304.32,215.3c0,0.65-0.51,1.18-1.13,1.18H292.9
			c-0.61,0-1.13-0.53-1.13-1.18v-1h12.54V215.3z M305.18,213.72h-14.26v-4.23h14.26V213.72z"/>
		<text transform="matrix(1 0 0 1 293.0584 213.2927)" class="st3 st1 st4">HDF5</text>
		<path class="st3" d="M295.86,201.14v-0.77c-0.12,0.01-0.24,0.03-0.36,0.06v0.56l-2.99,2.99h-0.56c-0.02,0.12-0.04,0.24-0.06,0.36
			h0.77L295.86,201.14z"/>
		<path class="st3" d="M294.81,207.83l-0.43,1.14c0.11,0.05,0.22,0.1,0.33,0.15l0.36-0.97l3.61-0.73l0.99,0.73
			c0.01-0.02,0.18-0.32,0.18-0.32l-1.15-0.79L294.81,207.83z"/>
		<path class="st3" d="M299.49,203.54l1-0.67c-0.05-0.1-0.1-0.2-0.16-0.3l-0.01-0.02l-1.16,0.78l-0.39,3.29l1.33,0.95
			c0.07-0.1,0.14-0.2,0.2-0.3l-1.14-0.82L299.49,203.54z"/>
		<path class="st3" d="M300.13,202.32l-0.08-0.16c-0.04-0.05-0.08-0.1-0.12-0.15l-0.97,0.49l-2.56-1.54v-0.63
			c-0.12,0-0.24,0.01-0.36,0.02v0.82l2.91,1.74L300.13,202.32z"/>
		<path class="st3" d="M295.31,203.61c-0.7,0-1.27,0.57-1.27,1.28c0,0.7,0.57,1.28,1.27,1.28c0.7,0,1.28-0.57,1.28-1.28
			C296.59,204.19,296.01,203.61,295.31,203.61z M295.31,205.8c-0.5,0-0.91-0.41-0.91-0.91c0-0.5,0.41-0.91,0.91-0.91
			c0.5,0,0.91,0.41,0.91,0.91C296.22,205.39,295.81,205.8,295.31,205.8z"/>
		<path class="st3" d="M297.04,203.8c0.35,0,0.64-0.29,0.64-0.64c0-0.35-0.28-0.64-0.64-0.64c-0.35,0-0.64,0.29-0.64,0.64
			C296.4,203.51,296.69,203.8,297.04,203.8z M297.04,202.88c0.15,0,0.27,0.12,0.27,0.27c0,0.15-0.12,0.27-0.27,0.27
			c-0.15,0-0.27-0.12-0.27-0.27C296.77,203.01,296.89,202.88,297.04,202.88z"/>
		<path class="st3" d="M298.1,205.24l-0.06-0.17l-0.06-0.17c-0.02,0.01-0.6,0.2-0.77,0.68c-0.1,0.27-0.05,0.56,0.13,0.86l0.31-0.19
			c-0.12-0.21-0.16-0.39-0.1-0.55C297.67,205.39,298.1,205.24,298.1,205.24z"/>
		<path class="st3" d="M300.78,205.25c0,0.2-0.16,0.36-0.36,0.36c-0.2,0-0.36-0.16-0.36-0.36c0-0.2,0.16-0.36,0.36-0.36
			C300.61,204.89,300.78,205.05,300.78,205.25z"/>
		<path class="st3" d="M297.32,208.35c-0.5,0-0.91,0.41-0.91,0.91c0,0.06,0.01,0.12,0.02,0.18c0.13,0,0.25-0.01,0.38-0.02
			c-0.02-0.05-0.03-0.11-0.03-0.16c0-0.3,0.25-0.55,0.55-0.55c0.28,0,0.51,0.22,0.54,0.49c0.12-0.04,0.24-0.08,0.35-0.13
			C298.12,208.66,297.75,208.35,297.32,208.35z"/>
		<path class="st3" d="M292.31,206.53c-0.05,0-0.1,0.01-0.14,0.02c0.11,0.28,0.25,0.55,0.41,0.8c0.11-0.08,0.19-0.22,0.19-0.37
			C292.76,206.73,292.56,206.53,292.31,206.53L292.31,206.53z"/>
		<path class="st3" d="M293.63,201.39l0.26,0.26l-1,1l-0.26-0.26L293.63,201.39z"/>
		<path class="st3" d="M292.68,204.52h-0.82c-0.01,0.12-0.02,0.24-0.02,0.36h0.63l1.72,2.93l-0.32,0.86
			c0.1,0.07,0.21,0.13,0.32,0.19l0.41-1.09L292.68,204.52z"/>
	</g>
	<text transform="matrix(1 0 0 1 336.2035 230.5466)" class="st0 st1 st8">AnnData</text>
	<text transform="matrix(1 0 0 1 328.1673 224.7956)" class="st3 st1 st8">Processed </text>
	<text transform="matrix(1 0 0 1 321.6751 230.5466)" class="st3 st1 st8">RNA </text>
	<text transform="matrix(1 0 0 1 355.0365 230.5466)" class="st3 st1 st8"> </text>
	<text transform="matrix(1 0 0 1 332.6898 236.2985)" class="st3 st1 st8">Object</text>
	<g>
		<path class="st3" d="M347.36,208.92h-0.56v-5.41c0-0.08-0.04-0.15-0.09-0.2l-4.31-4.23c-0.05-0.05-0.13-0.08-0.21-0.08h-7.39
			c-0.93,0-1.7,0.79-1.7,1.76v8.17h-0.56c-0.16,0-0.3,0.11-0.3,0.27v4.84c0,0.16,0.14,0.27,0.3,0.27h0.56v1
			c0,0.97,0.77,1.76,1.7,1.76h10.29c0.93,0,1.7-0.79,1.7-1.76v-1h0.56c0.16,0,0.3-0.11,0.3-0.27v-4.84
			C347.66,209.03,347.52,208.92,347.36,208.92L347.36,208.92z M342.46,199.95l3.36,3.27h-2.7c-0.18,0-0.35-0.07-0.47-0.2
			c-0.12-0.13-0.19-0.3-0.19-0.48V199.95z M333.68,200.75c0-0.65,0.51-1.18,1.13-1.18h7.08v2.98c0,0.33,0.13,0.65,0.36,0.88
			c0.23,0.23,0.55,0.37,0.88,0.37h3.1v5.13h-12.54V200.75z M346.23,215.3c0,0.65-0.51,1.18-1.13,1.18h-10.29
			c-0.61,0-1.13-0.53-1.13-1.18v-1h12.54V215.3z M347.09,213.72h-14.26v-4.23h14.26V213.72z"/>
		<text transform="matrix(1 0 0 1 334.9652 213.2932)" class="st3 st1 st4">HDF5</text>
		<path class="st3" d="M337.76,201.14v-0.77c-0.12,0.01-0.24,0.03-0.36,0.06v0.56l-2.99,2.99h-0.56c-0.02,0.12-0.04,0.24-0.06,0.36
			h0.77L337.76,201.14z"/>
		<path class="st3" d="M336.72,207.83l-0.43,1.14c0.11,0.05,0.22,0.1,0.33,0.15l0.36-0.97l3.61-0.73l0.99,0.73
			c0.01-0.02,0.18-0.32,0.18-0.32l-1.15-0.79L336.72,207.83z"/>
		<path class="st3" d="M341.4,203.54l1-0.67c-0.05-0.1-0.1-0.2-0.16-0.3l-0.01-0.02l-1.16,0.78l-0.39,3.29l1.33,0.95
			c0.07-0.1,0.14-0.2,0.2-0.3l-1.14-0.82L341.4,203.54z"/>
		<path class="st3" d="M342.04,202.32l-0.08-0.16c-0.04-0.05-0.08-0.1-0.12-0.15l-0.97,0.49l-2.56-1.54v-0.63
			c-0.12,0-0.24,0.01-0.36,0.02v0.82l2.91,1.74L342.04,202.32z"/>
		<path class="st3" d="M337.22,203.61c-0.7,0-1.27,0.57-1.27,1.28c0,0.7,0.57,1.28,1.27,1.28c0.7,0,1.28-0.57,1.28-1.28
			C338.49,204.19,337.92,203.61,337.22,203.61z M337.22,205.8c-0.5,0-0.91-0.41-0.91-0.91c0-0.5,0.41-0.91,0.91-0.91
			c0.5,0,0.91,0.41,0.91,0.91C338.13,205.39,337.72,205.8,337.22,205.8z"/>
		<path class="st3" d="M338.95,203.8c0.35,0,0.64-0.29,0.64-0.64c0-0.35-0.28-0.64-0.64-0.64c-0.35,0-0.64,0.29-0.64,0.64
			C338.31,203.51,338.6,203.8,338.95,203.8z M338.95,202.88c0.15,0,0.27,0.12,0.27,0.27c0,0.15-0.12,0.27-0.27,0.27
			c-0.15,0-0.27-0.12-0.27-0.27C338.67,203.01,338.8,202.88,338.95,202.88z"/>
		<path class="st3" d="M340.01,205.24l-0.06-0.17l-0.06-0.17c-0.02,0.01-0.6,0.2-0.77,0.68c-0.1,0.27-0.05,0.56,0.13,0.86l0.31-0.19
			c-0.12-0.21-0.16-0.39-0.1-0.55C339.57,205.39,340,205.24,340.01,205.24z"/>
		<path class="st3" d="M342.68,205.25c0,0.2-0.16,0.36-0.36,0.36c-0.2,0-0.36-0.16-0.36-0.36c0-0.2,0.16-0.36,0.36-0.36
			C342.52,204.89,342.68,205.05,342.68,205.25z"/>
		<path class="st3" d="M339.22,208.35c-0.5,0-0.91,0.41-0.91,0.91c0,0.06,0.01,0.12,0.02,0.18c0.13,0,0.25-0.01,0.38-0.02
			c-0.02-0.05-0.03-0.11-0.03-0.16c0-0.3,0.25-0.55,0.55-0.55c0.28,0,0.51,0.22,0.54,0.49c0.12-0.04,0.24-0.08,0.35-0.13
			C340.02,208.66,339.66,208.35,339.22,208.35z"/>
		<path class="st3" d="M334.21,206.53c-0.05,0-0.1,0.01-0.14,0.02c0.11,0.28,0.25,0.55,0.41,0.8c0.11-0.08,0.19-0.22,0.19-0.37
			C334.67,206.73,334.46,206.53,334.21,206.53L334.21,206.53z"/>
		<path class="st3" d="M335.54,201.39l0.26,0.26l-1,1l-0.26-0.26L335.54,201.39z"/>
		<path class="st3" d="M334.59,204.52h-0.82c-0.01,0.12-0.02,0.24-0.02,0.36h0.63l1.72,2.93l-0.32,0.86
			c0.1,0.07,0.21,0.13,0.32,0.19l0.41-1.09L334.59,204.52z"/>
	</g>
	<text transform="matrix(1 0 0 1 486.8988 140.4348)" class="st3 st1 st8">Summary </text>
	<text transform="matrix(1 0 0 1 485.6546 146.1867)" class="st3 st1 st8">QC Report</text>
	<g>
		<path class="st3" d="M506.29,125.11h-0.56v-5.41c0-0.08-0.04-0.15-0.09-0.2l-4.31-4.23c-0.05-0.05-0.13-0.08-0.21-0.08h-7.39
			c-0.93,0-1.7,0.79-1.7,1.76v8.17h-0.56c-0.16,0-0.3,0.11-0.3,0.27v4.84c0,0.16,0.14,0.27,0.3,0.27h0.56v1
			c0,0.97,0.77,1.76,1.7,1.76h10.29c0.93,0,1.7-0.79,1.7-1.76v-1h0.56c0.16,0,0.3-0.11,0.3-0.27v-4.84
			C506.59,125.22,506.45,125.11,506.29,125.11L506.29,125.11z M501.39,116.14l3.36,3.27h-2.7c-0.18,0-0.35-0.07-0.47-0.2
			c-0.12-0.13-0.19-0.3-0.19-0.48V116.14z M492.61,116.93c0-0.65,0.51-1.18,1.13-1.18h7.08v2.98c0,0.33,0.13,0.65,0.36,0.88
			c0.23,0.23,0.55,0.37,0.88,0.37h3.1v5.13h-12.54V116.93z M505.16,131.48c0,0.65-0.51,1.18-1.13,1.18h-10.29
			c-0.61,0-1.13-0.53-1.13-1.18v-1h12.54V131.48z M506.02,129.91h-14.26v-4.23h14.26V129.91z"/>
		<text transform="matrix(1 0 0 1 494.0326 129.4811)" class="st3 st1 st4">HTML</text>
		<path class="st3" d="M494.72,123.26v1.96c0,0.18-0.15,0.32-0.34,0.32h-1.1c-0.19,0-0.34-0.14-0.34-0.32v-1.96
			c0-0.18,0.15-0.32,0.34-0.32h1.1C494.57,122.94,494.72,123.08,494.72,123.26z"/>
		<path class="st3" d="M493.27,121.78c0-0.22,0.19-0.4,0.43-0.4c0.08,0,0.15,0.02,0.21,0.05l1.54-1.6
			c-0.05-0.07-0.08-0.15-0.08-0.23c0-0.22,0.19-0.4,0.43-0.4c0.24,0,0.43,0.18,0.43,0.4c0,0.04-0.01,0.07-0.01,0.1l1.45,0.71
			c0.08-0.09,0.2-0.14,0.33-0.14c0.08,0,0.16,0.02,0.22,0.06l1.71-1.65c-0.04-0.06-0.07-0.14-0.07-0.22c0-0.22,0.19-0.4,0.43-0.4
			c0.24,0,0.43,0.18,0.43,0.4c0,0.22-0.19,0.4-0.43,0.4c-0.08,0-0.16-0.02-0.22-0.06l-1.71,1.66c0.04,0.06,0.07,0.14,0.07,0.22
			c0,0.22-0.19,0.4-0.43,0.4c-0.24,0-0.43-0.18-0.43-0.4c0-0.03,0.01-0.07,0.01-0.1l-1.45-0.72c-0.08,0.09-0.2,0.14-0.33,0.14
			c-0.07,0-0.15-0.02-0.21-0.05l-1.54,1.6c0.05,0.07,0.08,0.15,0.08,0.23c0,0.22-0.19,0.4-0.43,0.4
			C493.46,122.18,493.27,122,493.27,121.78z"/>
		<path class="st3" d="M496.83,121.42v3.67c0,0.2-0.14,0.36-0.31,0.36h-1.01c-0.17,0-0.31-0.16-0.31-0.36v-3.67
			c0-0.2,0.14-0.36,0.31-0.36h1.01C496.69,121.06,496.83,121.22,496.83,121.42z"/>
		<path class="st3" d="M499.08,122.38v2.85c0,0.18-0.15,0.32-0.34,0.32h-1.1c-0.19,0-0.34-0.14-0.34-0.32v-2.85
			c0-0.18,0.15-0.32,0.34-0.32h1.1C498.93,122.06,499.08,122.2,499.08,122.38z"/>
		<path class="st3" d="M501.21,121.07v4.08c0,0.16-0.14,0.29-0.32,0.29h-1.01c-0.17,0-0.32-0.13-0.32-0.29v-4.08
			c0-0.16,0.14-0.29,0.32-0.29h1.01C501.07,120.79,501.21,120.91,501.21,121.07z"/>
	</g>
	<text transform="matrix(1 0 0 1 529.9359 140.4348)" class="st3 st1 st8">Cell Type </text>
	<text transform="matrix(1 0 0 1 532.7689 146.1867)" class="st3 st1 st8">Report</text>
	<g>
		<path class="st3" d="M548.03,125.11h-0.56v-5.41c0-0.08-0.04-0.15-0.09-0.2l-4.31-4.23c-0.05-0.05-0.13-0.08-0.21-0.08h-7.39
			c-0.93,0-1.7,0.79-1.7,1.76v8.17h-0.56c-0.16,0-0.3,0.11-0.3,0.27v4.84c0,0.16,0.14,0.27,0.3,0.27h0.56v1
			c0,0.97,0.77,1.76,1.7,1.76h10.29c0.93,0,1.7-0.79,1.7-1.76v-1h0.56c0.16,0,0.3-0.11,0.3-0.27v-4.84
			C548.33,125.22,548.19,125.11,548.03,125.11L548.03,125.11z M543.13,116.14l3.36,3.27h-2.7c-0.18,0-0.35-0.07-0.47-0.2
			c-0.12-0.13-0.19-0.3-0.19-0.48V116.14z M534.35,116.93c0-0.65,0.51-1.18,1.13-1.18h7.08v2.98c0,0.33,0.13,0.65,0.36,0.88
			c0.23,0.23,0.55,0.37,0.88,0.37h3.1v5.13h-12.54V116.93z M546.89,131.48c0,0.65-0.51,1.18-1.13,1.18h-10.29
			c-0.61,0-1.13-0.53-1.13-1.18v-1h12.54V131.48z M547.75,129.91h-14.26v-4.23h14.26V129.91z"/>
		<text transform="matrix(1 0 0 1 535.765 129.4816)" class="st3 st1 st4">HTML</text>
		<path class="st3" d="M536.46,123.26v1.96c0,0.18-0.15,0.32-0.34,0.32h-1.1c-0.19,0-0.34-0.14-0.34-0.32v-1.96
			c0-0.18,0.15-0.32,0.34-0.32h1.1C536.31,122.94,536.46,123.08,536.46,123.26z"/>
		<path class="st3" d="M535,121.78c0-0.22,0.19-0.4,0.43-0.4c0.08,0,0.15,0.02,0.21,0.05l1.54-1.6c-0.05-0.07-0.08-0.15-0.08-0.23
			c0-0.22,0.19-0.4,0.43-0.4c0.24,0,0.43,0.18,0.43,0.4c0,0.04-0.01,0.07-0.01,0.1l1.45,0.71c0.08-0.09,0.2-0.14,0.33-0.14
			c0.08,0,0.16,0.02,0.22,0.06l1.71-1.65c-0.04-0.06-0.07-0.14-0.07-0.22c0-0.22,0.19-0.4,0.43-0.4s0.43,0.18,0.43,0.4
			c0,0.22-0.19,0.4-0.43,0.4c-0.08,0-0.16-0.02-0.22-0.06l-1.71,1.66c0.04,0.06,0.07,0.14,0.07,0.22c0,0.22-0.19,0.4-0.43,0.4
			s-0.43-0.18-0.43-0.4c0-0.03,0.01-0.07,0.01-0.1l-1.45-0.72c-0.08,0.09-0.2,0.14-0.33,0.14c-0.07,0-0.15-0.02-0.21-0.05l-1.54,1.6
			c0.05,0.07,0.08,0.15,0.08,0.23c0,0.22-0.19,0.4-0.43,0.4C535.2,122.18,535,122,535,121.78z"/>
		<path class="st3" d="M538.57,121.42v3.67c0,0.2-0.14,0.36-0.32,0.36h-1.01c-0.17,0-0.32-0.16-0.32-0.36v-3.67
			c0-0.2,0.14-0.36,0.32-0.36h1.01C538.43,121.06,538.57,121.22,538.57,121.42z"/>
		<path class="st3" d="M540.82,122.38v2.85c0,0.18-0.15,0.32-0.34,0.32h-1.1c-0.19,0-0.34-0.14-0.34-0.32v-2.85
			c0-0.18,0.15-0.32,0.34-0.32h1.1C540.67,122.06,540.82,122.2,540.82,122.38z"/>
		<path class="st3" d="M542.95,121.07v4.08c0,0.16-0.14,0.29-0.32,0.29h-1.01c-0.17,0-0.32-0.13-0.32-0.29v-4.08
			c0-0.16,0.14-0.29,0.32-0.29h1.01C542.81,120.79,542.95,120.91,542.95,121.07z"/>
	</g>
	<g>
		<text transform="matrix(1 0 0 1 151.8092 44.894)" class="st9"><tspan x="0" y="0" class="st3 st1 st10">Gene by cell</tspan><tspan x="0" y="7.2" class="st3 st1 st10">count matrix</tspan></text>
		<g>
			<path class="st3" d="M177.22,28.99h-0.66v-6.38c0-0.09-0.04-0.18-0.11-0.24l-5.08-4.98c-0.06-0.06-0.15-0.1-0.24-0.1h-8.71
				c-1.1,0-2,0.93-2,2.07v9.63h-0.66c-0.19,0-0.35,0.13-0.35,0.32v5.71c0,0.19,0.16,0.32,0.35,0.32h0.66v1.18
				c0,1.14,0.91,2.07,2,2.07h12.14c1.1,0,2-0.93,2-2.07v-1.18h0.66c0.19,0,0.35-0.13,0.35-0.32v-5.71
				C177.57,29.12,177.41,28.99,177.22,28.99L177.22,28.99z M171.44,18.42l3.96,3.85h-3.18c-0.21,0-0.41-0.09-0.55-0.24
				c-0.15-0.15-0.23-0.35-0.22-0.56V18.42z M161.09,19.35c0-0.77,0.6-1.4,1.33-1.4h8.35v3.51c0,0.39,0.15,0.76,0.42,1.04
				c0.27,0.28,0.64,0.43,1.03,0.44h3.66v6.04h-14.79V19.35z M175.88,36.51c0,0.77-0.6,1.4-1.33,1.4h-12.14
				c-0.72,0-1.33-0.63-1.33-1.4v-1.18h14.79V36.51z M176.9,34.65h-16.82v-4.99h16.82V34.65z"/>
			<text transform="matrix(1 0 0 1 164.0984 34.0007)" class="st3 st1 st4">MTX</text>
			<path class="st3" d="M169.76,20.67h-7.24c-0.27,0-0.47,0.22-0.47,0.47v7.67c0,0.27,0.22,0.47,0.47,0.47h1.64h1.98h3.62
				c0.27,0,0.47-0.22,0.47-0.47v-4.29v-1.16v-2.22C170.24,20.89,170.02,20.67,169.76,20.67L169.76,20.67z M169.97,23.23h-1.71v-0.89
				h1.71L169.97,23.23z M169.97,24.39h-1.71V23.5h1.71L169.97,24.39z M169.97,25.55h-1.71v-0.89h1.71L169.97,25.55z M169.97,26.71
				h-1.71v-0.89h1.71L169.97,26.71z M162.32,25.82h1.71v0.89h-1.71V25.82z M162.32,24.66h1.71v0.89h-1.71V24.66z M162.32,23.5h1.71
				v0.89h-1.71V23.5z M164.3,24.66h1.71v0.89h-1.71V24.66z M166.28,24.66h1.71v0.89h-1.71V24.66z M167.99,24.39h-1.71V23.5h1.71
				V24.39z M166.01,24.39h-1.71V23.5h1.71V24.39z M164.3,25.82h1.71v0.89h-1.71V25.82z M166.28,25.82h1.71v0.89h-1.71V25.82z
				 M167.99,23.23h-1.71v-0.89h1.71V23.23z M166.01,23.23h-1.71v-0.89h1.71V23.23z M164.03,23.23h-1.71v-0.89h1.71V23.23z
				 M162.32,26.97h1.71v0.89l-1.71,0V26.97z M164.3,26.97h1.71v0.89l-1.71,0V26.97z M166.28,26.97h1.71v0.89l-1.71,0V26.97z
				 M168.26,26.97h1.71v0.89l-1.71,0V26.97z M169.97,21.15v0.92h-1.71v-1.12h1.5C169.87,20.94,169.97,21.04,169.97,21.15
				L169.97,21.15z M167.99,22.07h-1.71v-1.13h1.71V22.07z M166.01,22.07h-1.71v-1.13h1.71V22.07z M162.32,21.15
				c0-0.11,0.1-0.2,0.2-0.2h1.5v1.13h-1.71V21.15z M162.32,28.82v-0.69h1.71v0.89h-1.5C162.42,29.02,162.32,28.93,162.32,28.82
				L162.32,28.82z M164.3,28.13h1.71v0.89h-1.71V28.13z M166.28,28.13h1.71v0.89h-1.71V28.13z M169.97,28.82c0,0.12-0.1,0.2-0.2,0.2
				h-1.5v-0.89h1.71L169.97,28.82z"/>
			<path class="st3" d="M164.88,21.64h0.54c0.08,0,0.14-0.05,0.14-0.13s-0.05-0.13-0.14-0.13h-0.54c-0.08,0-0.14,0.05-0.14,0.13
				S164.8,21.64,164.88,21.64z"/>
			<path class="st3" d="M166.86,21.64h0.54c0.08,0,0.14-0.05,0.14-0.13s-0.05-0.13-0.14-0.13h-0.54c-0.08,0-0.14,0.05-0.14,0.13
				S166.78,21.64,166.86,21.64z"/>
			<path class="st3" d="M168.84,21.64h0.54c0.08,0,0.14-0.05,0.14-0.13s-0.05-0.13-0.14-0.13h-0.54c-0.08,0-0.14,0.05-0.14,0.13
				S168.77,21.64,168.84,21.64z"/>
			<path class="st3" d="M162.93,21.39c-0.04-0.03-0.11-0.01-0.14,0.03c-0.01,0.01-0.03,0.03-0.04,0.04v0.05
				c0,0.04,0.01,0.07,0.04,0.09c0,0.01,0.03,0.03,0.04,0.03c0.01,0.01,0.03,0.01,0.05,0.01s0.04,0,0.05-0.01
				c0.01,0,0.03-0.01,0.04-0.03c0.03-0.03,0.04-0.05,0.04-0.09c0-0.04-0.01-0.07-0.04-0.09C162.97,21.4,162.96,21.39,162.93,21.39z"
				/>
			<path class="st3" d="M163.52,21.39c-0.05-0.03-0.11-0.01-0.15,0.03c-0.01,0.01-0.03,0.03-0.03,0.04c0,0.01-0.01,0.04-0.01,0.05
				c0,0.04,0.01,0.07,0.04,0.09c0.03,0.03,0.07,0.04,0.1,0.04c0.01,0,0.04,0,0.05-0.01c0.01,0,0.03-0.01,0.04-0.03
				c0.03-0.03,0.04-0.05,0.04-0.09s-0.01-0.07-0.04-0.09C163.54,21.4,163.53,21.39,163.52,21.39z"/>
		</g>
	</g>
	<g>
		<text transform="matrix(1 0 0 1 50.6542 43.424)" class="st9"><tspan x="0" y="0" class="st3 st1 st2">Input ADT </tspan><tspan x="0" y="8.34" class="st3 st1 st2">  FASTQ</tspan></text>
		<g>
			<path class="st3" d="M75.75,25.96h-0.66v-6.38c0-0.09-0.04-0.18-0.11-0.24l-5.08-4.98c-0.06-0.06-0.15-0.1-0.24-0.1h-8.71
				c-1.1,0-2,0.93-2,2.07v9.63h-0.66c-0.19,0-0.35,0.13-0.35,0.32v5.71c0,0.19,0.16,0.32,0.35,0.32h0.66v1.18
				c0,1.14,0.91,2.07,2,2.07h12.14c1.1,0,2-0.93,2-2.07V32.3h0.66c0.19,0,0.35-0.13,0.35-0.32v-5.71
				C76.1,26.09,75.94,25.96,75.75,25.96L75.75,25.96z M69.97,15.39l3.96,3.85h-3.18c-0.21,0-0.41-0.09-0.55-0.24
				c-0.15-0.15-0.23-0.35-0.22-0.56V15.39z M59.62,16.32c0-0.77,0.6-1.4,1.33-1.4h8.35v3.51c0,0.39,0.15,0.76,0.42,1.04
				c0.27,0.28,0.64,0.43,1.03,0.44h3.66v6.04H59.62V16.32z M74.41,33.48c0,0.77-0.6,1.4-1.33,1.4H60.95c-0.72,0-1.33-0.63-1.33-1.4
				V32.3h14.79V33.48z M75.43,31.62H58.61v-4.99h16.82V31.62z"/>
			<text transform="matrix(1 0 0 1 60.4354 30.6974)" class="st3 st1 st4">FASTQ</text>
		</g>
	</g>
	<g>
		<text transform="matrix(1 0 0 1 5.3241 43.4237)" class="st9"><tspan x="0" y="0" class="st3 st1 st2">Input RNA </tspan><tspan x="0" y="8.34" class="st3 st1 st2">  FASTQ</tspan></text>
		<g>
			<path class="st3" d="M30.87,25.96h-0.66v-6.38c0-0.09-0.04-0.18-0.11-0.24l-5.08-4.98c-0.06-0.06-0.15-0.1-0.24-0.1h-8.71
				c-1.1,0-2,0.93-2,2.07v9.63H13.4c-0.19,0-0.35,0.13-0.35,0.32v5.71c0,0.19,0.16,0.32,0.35,0.32h0.66v1.18
				c0,1.14,0.91,2.07,2,2.07H28.2c1.1,0,2-0.93,2-2.07V32.3h0.66c0.19,0,0.35-0.13,0.35-0.32v-5.71
				C31.22,26.09,31.06,25.96,30.87,25.96L30.87,25.96z M25.09,15.39l3.96,3.85h-3.18c-0.21,0-0.41-0.09-0.55-0.24
				c-0.15-0.15-0.23-0.35-0.22-0.56L25.09,15.39z M14.74,16.33c0-0.77,0.6-1.4,1.33-1.4h8.35v3.51c0,0.39,0.15,0.76,0.42,1.04
				c0.27,0.28,0.64,0.43,1.03,0.44h3.66v6.04H14.74L14.74,16.33z M29.53,33.48c0,0.77-0.6,1.4-1.33,1.4H16.07
				c-0.72,0-1.33-0.63-1.33-1.4V32.3h14.79V33.48z M30.55,31.62H13.73v-4.99h16.82V31.62z"/>
			<text transform="matrix(1 0 0 1 15.5555 30.6981)" class="st3 st1 st4">FASTQ</text>
		</g>
	</g>
	<g>
		<text transform="matrix(1 0 0 1 45.7616 93.9045)" class="st3 st1 st2">Barcodes File</text>
		<g>
			<path class="st3" d="M75.75,75.17h-0.66v-6.38c0-0.09-0.04-0.18-0.11-0.24l-5.08-4.98c-0.06-0.06-0.15-0.1-0.24-0.1h-8.71
				c-1.1,0-2,0.93-2,2.07v9.63h-0.66c-0.19,0-0.35,0.13-0.35,0.32v5.71c0,0.19,0.16,0.32,0.35,0.32h0.66v1.18
				c0,1.14,0.91,2.07,2,2.07h12.14c1.1,0,2-0.93,2-2.07v-1.18h0.66c0.19,0,0.35-0.13,0.35-0.32v-5.71
				C76.1,75.3,75.94,75.17,75.75,75.17L75.75,75.17z M69.97,64.6l3.96,3.85h-3.18c-0.21,0-0.41-0.09-0.55-0.24
				c-0.15-0.15-0.23-0.35-0.22-0.56V64.6z M59.62,65.54c0-0.77,0.6-1.4,1.33-1.4h8.35v3.51c0,0.39,0.15,0.76,0.42,1.04
				c0.27,0.28,0.64,0.43,1.03,0.44h3.66v6.04H59.62V65.54z M74.41,82.7c0,0.77-0.6,1.4-1.33,1.4H60.95c-0.72,0-1.33-0.63-1.33-1.4
				v-1.18h14.79V82.7z M75.43,80.84H58.61v-4.99h16.82V80.84z"/>
			<text transform="matrix(1 0 0 1 63.0668 79.9108)" class="st3 st1 st4">TSV</text>
			<path class="st3" d="M60.03,69.87h0.22v5.78h-0.22V69.87z"/>
			<path class="st3" d="M60.48,69.87h0.45v5.78h-0.45V69.87z"/>
			<path class="st3" d="M61.37,69.87h0.22v5.78h-0.22V69.87z"/>
			<path class="st3" d="M62.04,69.87h0.22v5.78h-0.22V69.87z"/>
			<path class="st3" d="M62.49,69.87h0.22v5.78h-0.22V69.87z"/>
			<path class="st3" d="M62.93,69.87h0.22v5.78h-0.22V69.87z"/>
			<path class="st3" d="M63.6,69.87h0.45v5.78H63.6V69.87z"/>
			<path class="st3" d="M64.49,69.87h0.22v5.78h-0.22V69.87z"/>
			<path class="st3" d="M64.94,69.87h0.22v5.78h-0.22V69.87z"/>
			<path class="st3" d="M65.61,69.87h0.22v5.78h-0.22V69.87z"/>
			<path class="st3" d="M66.28,69.87h0.22v5.78h-0.22V69.87z"/>
			<path class="st3" d="M66.73,69.87h0.45v5.78h-0.45V69.87z"/>
			<path class="st3" d="M67.4,69.87h0.22v5.78H67.4V69.87z"/>
			<path class="st3" d="M68.07,69.87h0.22v5.78h-0.22V69.87z"/>
			<path class="st3" d="M68.73,69.87h0.22v5.78h-0.22V69.87z"/>
			<path class="st3" d="M69.18,69.87h0.45v5.78h-0.45V69.87z"/>
			<path class="st3" d="M69.85,69.87h0.22v5.78h-0.22V69.87z"/>
			<path class="st3" d="M70.52,69.87h0.22v5.78h-0.22V69.87z"/>
			<path class="st3" d="M71.19,69.87h0.22v5.78h-0.22V69.87z"/>
			<path class="st3" d="M71.64,69.87h0.45v5.78h-0.45V69.87z"/>
		</g>
	</g>
	<text transform="matrix(1 0 0 1 305.2596 71.3107)" class="st3 st1 st2">Filter empty </text>
	<text transform="matrix(1 0 0 1 309.3705 77.0627)" class="st3 st1 st2">droplets</text>
	<g>
		<path class="st3" d="M325.93,48.65h-1.18v-1.18h-0.59v1.18h-10.04v-1.18h-0.59v1.18h-1.18c-0.24,0-0.46,0.09-0.63,0.26
			c-0.16,0.17-0.26,0.39-0.26,0.63v0.59c0,0.21,0.07,0.41,0.21,0.57c0.14,0.16,0.33,0.27,0.53,0.3l5.46,5.74v4.01
			c0,0.1,0.05,0.2,0.14,0.25c0.08,0.05,0.19,0.06,0.29,0.01l2.36-1.18c0.05-0.02,0.09-0.06,0.12-0.11c0.03-0.05,0.04-0.1,0.04-0.16
			v-2.83l5.46-5.74c0.21-0.03,0.39-0.14,0.53-0.3c0.14-0.16,0.21-0.36,0.21-0.57v-0.59c0-0.23-0.09-0.46-0.26-0.63
			C326.39,48.74,326.16,48.65,325.93,48.65L325.93,48.65z M326.23,50.12c0,0.08-0.03,0.15-0.08,0.21c-0.06,0.06-0.13,0.09-0.21,0.09
			h-1.18v0.59h0.49l-5.14,5.4c-0.05,0.05-0.08,0.13-0.08,0.2v2.77l-1.77,0.88v-3.65c0-0.08-0.03-0.15-0.08-0.2l-5.14-5.4h11.12
			v-0.59h-11.81c-0.08,0-0.15-0.03-0.21-0.09c-0.05-0.06-0.09-0.13-0.09-0.21v-0.59c0-0.08,0.03-0.15,0.09-0.21
			c0.05-0.06,0.13-0.09,0.21-0.09h13.58c0.08,0,0.15,0.03,0.21,0.09c0.05,0.06,0.08,0.13,0.08,0.21V50.12z"/>
		<path class="st3" d="M319.14,48.06c0.47,0,0.92-0.19,1.25-0.52c0.33-0.33,0.52-0.78,0.52-1.25c0-0.47-0.19-0.92-0.52-1.25
			c-0.33-0.33-0.78-0.52-1.25-0.52c-0.47,0-0.92,0.19-1.25,0.52c-0.33,0.33-0.52,0.78-0.52,1.25c0,0.47,0.19,0.92,0.52,1.25
			C318.22,47.87,318.67,48.06,319.14,48.06z M319.14,45.11c0.31,0,0.61,0.12,0.84,0.35c0.22,0.22,0.35,0.52,0.35,0.83
			c0,0.31-0.12,0.61-0.35,0.83c-0.22,0.22-0.52,0.35-0.84,0.35c-0.31,0-0.61-0.12-0.84-0.35c-0.22-0.22-0.35-0.52-0.35-0.83
			c0-0.31,0.12-0.61,0.35-0.83C318.53,45.23,318.83,45.11,319.14,45.11z"/>
		<path class="st3" d="M316.19,45.7h0.59v2.36h-0.59V45.7z"/>
		<path class="st3" d="M321.5,45.7h0.59v2.36h-0.59V45.7z"/>
		<path class="st3" d="M321.5,43.34h0.59v1.18h-0.59V43.34z"/>
		<path class="st3" d="M316.19,43.34h0.59v1.18h-0.59V43.34z"/>
		<path class="st3" d="M324.49,46.54c0.47,0,0.92-0.19,1.25-0.52c0.33-0.33,0.52-0.78,0.52-1.25c0-0.47-0.19-0.92-0.52-1.25
			c-0.33-0.33-0.78-0.52-1.25-0.52c-0.47,0-0.92,0.19-1.25,0.52c-0.33,0.33-0.52,0.78-0.52,1.25c0,0.47,0.19,0.92,0.52,1.25
			C323.57,46.35,324.02,46.54,324.49,46.54z"/>
		<path class="st3" d="M313.51,46.8c0.47,0,0.92-0.19,1.25-0.52c0.33-0.33,0.52-0.78,0.52-1.25c0-0.47-0.19-0.92-0.52-1.25
			c-0.33-0.33-0.78-0.52-1.25-0.52c-0.47,0-0.92,0.19-1.25,0.52c-0.33,0.33-0.52,0.78-0.52,1.25c0,0.47,0.19,0.92,0.52,1.25
			C312.59,46.61,313.03,46.8,313.51,46.8z M313.51,43.85c0.31,0,0.61,0.12,0.84,0.35c0.22,0.22,0.35,0.52,0.35,0.83
			c0,0.31-0.12,0.61-0.35,0.83c-0.22,0.22-0.52,0.35-0.84,0.35c-0.31,0-0.61-0.12-0.84-0.35c-0.22-0.22-0.35-0.52-0.35-0.83
			c0-0.31,0.12-0.61,0.35-0.83C312.89,43.97,313.19,43.85,313.51,43.85z"/>
		<path class="st3" d="M313.51,42.71c0.47,0,0.92-0.19,1.25-0.52c0.33-0.33,0.52-0.78,0.52-1.25c0-0.47-0.19-0.92-0.52-1.25
			c-0.33-0.33-0.78-0.52-1.25-0.52c-0.47,0-0.92,0.19-1.25,0.52c-0.33,0.33-0.52,0.78-0.52,1.25c0,0.47,0.19,0.92,0.52,1.25
			C312.59,42.53,313.03,42.71,313.51,42.71z"/>
		<path class="st3" d="M324.49,42.2c0.47,0,0.92-0.19,1.25-0.52c0.33-0.33,0.52-0.78,0.52-1.25c0-0.47-0.19-0.92-0.52-1.25
			c-0.33-0.33-0.78-0.52-1.25-0.52c-0.47,0-0.92,0.19-1.25,0.52s-0.52,0.78-0.52,1.25c0,0.47,0.19,0.92,0.52,1.25
			S324.02,42.2,324.49,42.2z M324.49,39.25c0.32,0,0.61,0.12,0.84,0.35c0.22,0.22,0.35,0.52,0.35,0.83c0,0.31-0.13,0.61-0.35,0.83
			c-0.22,0.22-0.52,0.35-0.84,0.35c-0.31,0-0.61-0.12-0.84-0.35c-0.22-0.22-0.35-0.52-0.35-0.83c0-0.31,0.12-0.61,0.35-0.83
			C323.87,39.38,324.17,39.25,324.49,39.25z"/>
		<path class="st3" d="M319.12,39.14c0.47,0,0.92-0.19,1.25-0.52c0.33-0.33,0.52-0.78,0.52-1.25c0-0.47-0.19-0.92-0.52-1.25
			c-0.33-0.33-0.78-0.52-1.25-0.52c-0.47,0-0.92,0.19-1.25,0.52c-0.33,0.33-0.52,0.78-0.52,1.25c0,0.47,0.19,0.92,0.52,1.25
			C318.2,38.96,318.65,39.14,319.12,39.14z M319.12,36.19c0.32,0,0.61,0.12,0.84,0.35c0.22,0.22,0.35,0.52,0.35,0.83
			c0,0.31-0.12,0.61-0.35,0.83c-0.22,0.22-0.52,0.35-0.84,0.35c-0.31,0-0.61-0.12-0.84-0.35c-0.22-0.22-0.35-0.52-0.35-0.83
			c0-0.31,0.12-0.61,0.35-0.83C318.51,36.32,318.81,36.19,319.12,36.19z"/>
		<path class="st3" d="M319.12,43.48c0.47,0,0.92-0.19,1.25-0.52c0.33-0.33,0.52-0.78,0.52-1.25c0-0.47-0.19-0.92-0.52-1.25
			c-0.33-0.33-0.78-0.52-1.25-0.52c-0.47,0-0.92,0.19-1.25,0.52c-0.33,0.33-0.52,0.78-0.52,1.25c0,0.47,0.19,0.92,0.52,1.25
			C318.2,43.29,318.65,43.48,319.12,43.48z"/>
	</g>
	<path class="st11" d="M146.72,52.06l-2.74-1.58v3.16L146.72,52.06z M99.89,28.77h0.27V28.5h-0.27V28.77z M99.89,79.58v0.27h0.27
		v-0.27H99.89z M99.89,52.33h44.37v-0.55H99.89V52.33z M100.16,52.06V28.77h-0.55v23.28H100.16z M99.89,28.5H77.84v0.55h22.05V28.5z
		 M99.61,52.06v27.53h0.55V52.06H99.61z M99.89,79.31H77.84v0.55h22.05V79.31z"/>
	<path class="st11" d="M304.49,52.17l-2.73-1.59l-0.01,3.16L304.49,52.17z M263.67,52.31l38.35,0.13v-0.55l-38.34-0.13L263.67,52.31
		z"/>
	<path class="st11" d="M375.97,52.31l-2.74-1.58v3.16L375.97,52.31z M333.79,52.59h39.71v-0.55h-39.71V52.59z"/>
	<path class="st11" d="M446.64,52.04l-2.74-1.58v3.16L446.64,52.04z M409.11,52.31h35.06v-0.55h-35.06V52.31z"/>
	<path class="st11" d="M544.15,52.31l-2.74-1.58v3.16L544.15,52.31z M506.62,52.59h35.06v-0.55h-35.06V52.59z"/>
	<text transform="matrix(1 0 0 1 108.5038 50.5642)" class="st0 st1 st2">alevin-fry</text>
	<text transform="matrix(1 0 0 1 111.1039 47.5847)" class="st3 st1 st2"> </text>
	<text transform="matrix(1 0 0 1 399.3382 77.6105)" class="st0 st1 st2">miQC</text>
	<text transform="matrix(1 0 0 1 362.0785 71.3102)" class="st3 st1 st2">Remove low quality </text>
	<text transform="matrix(1 0 0 1 364.9622 77.0622)" class="st3 st1 st2">cells using </text>
	<g>
		<path class="st12" d="M385.1,43.85h-2.72c-0.32,0-0.62,0.13-0.85,0.35c-0.23,0.23-0.35,0.53-0.35,0.85
			c0,2.48,0.87,10.15,0.87,12.78c0,0.85,0.73,1.56,1.65,1.56h7.97c0.92,0,1.65-0.71,1.65-1.56c0-2.23,0.62-8.08,0.82-11.33
			l3.14,11.7c0.08,0.31,0.28,0.57,0.55,0.72s0.6,0.2,0.9,0.12h0c0.3-0.08,0.56-0.28,0.72-0.56c0.16-0.27,0.2-0.6,0.12-0.9l-1-3.74
			c0.02,0,0.04-0.01,0.06-0.02l0,0c0.88-0.24,1.41-1.14,1.17-2.03l-0.85-3.18c-0.24-0.88-1.14-1.41-2.03-1.17l-0.06,0.02l-1-3.74
			c-0.08-0.31-0.28-0.57-0.56-0.72c-0.27-0.16-0.6-0.2-0.9-0.12l0,0c-0.31,0.08-0.57,0.28-0.73,0.55c-0.09,0.16-0.14,0.34-0.16,0.52
			c-0.17-0.08-0.35-0.13-0.54-0.13h-4.62l-0.36,0c-0.15,0-0.09,0-0.29,0c-0.2,0-0.64,0-0.87,0c-0.23,0-0.78,0-1.31,0
			C385.01,43.85,385.1,43.85,385.1,43.85z M393.53,45.06c0,2.48-0.87,10.15-0.87,12.78c0,0.5-0.45,0.89-0.98,0.89h-7.97
			c-0.54,0-0.98-0.39-0.98-0.89c0-2.63-0.87-10.3-0.87-12.78c0-0.14,0.05-0.28,0.16-0.38c0.1-0.1,0.24-0.16,0.38-0.16h10.61
			c0.14,0,0.28,0.06,0.38,0.16C393.47,44.78,393.53,44.92,393.53,45.06z M395.23,43.93l3.71,13.85c0.04,0.13,0.02,0.28-0.05,0.4
			c-0.07,0.12-0.18,0.21-0.32,0.24l0,0c-0.13,0.04-0.28,0.02-0.4-0.05c-0.12-0.07-0.21-0.18-0.24-0.32l-3.71-13.85
			c-0.04-0.13-0.02-0.28,0.05-0.4c0.07-0.12,0.18-0.21,0.32-0.24l0,0c0.13-0.04,0.28-0.02,0.4,0.05
			C395.1,43.68,395.19,43.79,395.23,43.93z M398.41,53.22l-1.36-5.08c0.02,0,0.04-0.01,0.05-0.02c0.53-0.14,1.07,0.17,1.21,0.7
			l0.85,3.18c0.14,0.53-0.17,1.07-0.7,1.21L398.41,53.22z"/>
		<path class="st12" d="M390.63,40.09c0.09-0.16,0.04-0.36-0.12-0.46l-1.36-0.79c-0.16-0.09-0.36-0.04-0.46,0.12l-0.79,1.36
			c-0.09,0.16-0.04,0.37,0.12,0.46l1.36,0.79c0.16,0.09,0.36,0.04,0.46-0.12L390.63,40.09z M389.89,40.04l-0.45,0.78l-0.78-0.45
			l0.45-0.78L389.89,40.04z"/>
		<path class="st12" d="M388.13,42.26c0.05-0.16-0.03-0.33-0.18-0.38l-1.32-0.46c-0.15-0.05-0.32,0.03-0.38,0.18l-0.46,1.32
			c-0.05,0.15,0.03,0.33,0.18,0.38l1.32,0.46c0.16,0.05,0.33-0.03,0.38-0.18L388.13,42.26z M387.47,42.34l-0.27,0.76l-0.76-0.27
			l0.27-0.76L387.47,42.34z"/>
		<path class="st12" d="M388.53,37.53c0.13-0.13,0.13-0.34,0-0.47l-1.36-1.36c-0.13-0.13-0.34-0.13-0.47,0l-1.36,1.36
			c-0.13,0.13-0.13,0.34,0,0.47l1.36,1.36c0.13,0.13,0.35,0.13,0.47,0L388.53,37.53z M387.82,37.3l-0.88,0.88l-0.88-0.88l0.88-0.88
			L387.82,37.3z"/>
		<path class="st3" d="M387.86,48.58c-1.98,0-3.59,1.61-3.59,3.59c0,1.98,1.61,3.59,3.59,3.59s3.59-1.61,3.59-3.59
			C391.45,50.19,389.85,48.58,387.86,48.58z M387.86,55.04c-1.59,0-2.87-1.29-2.87-2.87c0-1.59,1.29-2.87,2.87-2.87
			c1.59,0,2.87,1.29,2.87,2.87C390.73,53.76,389.45,55.04,387.86,55.04z"/>
		<path class="st3" d="M388.84,51.2c-0.14-0.14-0.37-0.14-0.51,0l-0.46,0.46l-0.47-0.46c-0.14-0.14-0.37-0.14-0.51,0
			c-0.14,0.14-0.14,0.37,0,0.51l0.46,0.46l-0.46,0.46c-0.14,0.14-0.14,0.37,0,0.51c0.14,0.14,0.37,0.14,0.51,0l0.47-0.46l0.46,0.46
			c0.14,0.14,0.37,0.14,0.51,0c0.14-0.14,0.14-0.37,0-0.51l-0.47-0.46l0.47-0.46C388.97,51.57,388.97,51.34,388.84,51.2z"/>
	</g>
	<text transform="matrix(1 0 0 1 431.5033 70.3171)" class="st3 st1 st2">RNA and ADT normalization and </text>
	<text transform="matrix(1 0 0 1 429.8109 76.069)" class="st3 st1 st2">dimensionality reduction with PCA </text>
	<text transform="matrix(1 0 0 1 455.0462 81.821)" class="st3 st1 st2">and UMAP</text>
	<g>
		<path class="st3" d="M495.24,59.16c-6.15,0-10.84-1.59-14.32-4.87c-2.97-2.79-4.52-6.33-5.78-9.16c-1.34-3.05-2.32-5.27-4.26-5.27
			c-1.96,0-3.16,2.36-4.66,5.34c-1.43,2.83-3.2,6.35-6.29,9.12c-3.63,3.25-8.32,4.84-14.33,4.84v-0.71
			c13.13,0,17.08-7.83,19.97-13.56c1.62-3.2,2.9-5.73,5.33-5.73c2.42,0,3.54,2.51,4.93,5.7c2.53,5.74,5.99,13.6,19.43,13.6
			L495.24,59.16L495.24,59.16z"/>
		<path class="st3" d="M445.54,59.38h49.71v0.42h-49.71V59.38z"/>
		<path class="st3" d="M480.43,56.75v-2.23h-1.74v-1.95h-1.74v-3.19h-1.74v-3.26h-1.74v-2.96h-1.74V41.6h-2.16v1.55h-1.81v2.95H466
			v3.27h-1.74v3.19h-1.74v1.95h-1.74v2.23h-1.75v2.38h23.16v-2.38H480.43z M460.77,58.71h-1.32v-1.54h1.32V58.71z M461.2,58.71
			v-3.78l1.32,0v3.78H461.2z M462.94,58.71v-5.73h1.32v5.73H462.94z M466,58.71h-1.32v-8.92H466V58.71z M466.42,58.71V46.53h1.32
			v12.19h-1.32V58.71z M469.49,58.71h-1.32V43.57h1.32V58.71z M469.98,58.71V42.02h1.32v16.69H469.98z M471.72,58.71V43.57h1.32
			v15.14L471.72,58.71z M474.78,58.71h-1.32V46.53h1.32V58.71z M475.2,58.71v-8.92h1.32v8.92H475.2z M476.94,58.71v-5.73h1.32v5.73
			H476.94z M480.01,58.71h-1.32v-3.78h1.32V58.71z M481.76,58.71h-1.32v-1.54h1.32V58.71z"/>
	</g>
	<path class="st11" d="M248.61,93.26h-0.27v0.27h0.27V93.26z M329,93.26h0.27v-0.27H329V93.26z M329,107.78l1.58-2.74h-3.16
		L329,107.78z M248.34,80.93v12.33h0.55V80.93H248.34z M248.61,93.53H329v-0.55h-80.39V93.53z M328.73,93.26v12.05h0.55V93.26
		H328.73z"/>
	<path class="st11" d="M321.06,88.33h-0.27v0.27h0.27V88.33z M369.95,88.33h0.27v-0.27h-0.27V88.33z M369.95,107.36l1.58-2.74h-3.16
		L369.95,107.36z M320.78,79.97v8.35h0.55v-8.35H320.78z M321.06,88.6h48.89v-0.55h-48.89V88.6z M369.67,88.33v16.57h0.55V88.33
		H369.67z"/>
	<path class="st11" d="M409.94,93.81v-0.27h-0.27v0.27H409.94z M409.94,107.09l1.58-2.74h-3.16L409.94,107.09z M495.53,93.81h0.27
		v-0.27h-0.27V93.81z M495.53,107.09l1.58-2.74h-3.16L495.53,107.09z M471.97,85.18v8.63h0.55v-8.63H471.97z M409.66,93.81v10.82
		h0.55V93.81H409.66z M472.25,93.53h-18.08v0.55h18.08V93.53z M454.17,93.53h-44.23v0.55h44.23V93.53z M472.25,94.08h23.28v-0.55
		h-23.28V94.08z M495.25,93.81v10.82h0.55V93.81H495.25z"/>
	<text transform="matrix(1 0 0 1 542.0668 71.3102)" class="st3 st1 st2">Cell type annotation</text>
	<g>
		<path class="st3" d="M565.06,49.95c-0.08-0.12-0.22-0.2-0.37-0.2h-3.39c-0.62,0-1.2,0.32-1.51,0.83l-1.31,2.16
			c-0.31,0.51-0.31,1.15,0,1.66l1.31,2.16c0.31,0.51,0.89,0.83,1.51,0.83h3.39c0.15,0,0.29-0.08,0.37-0.2l2.13-3.41
			c0.08-0.13,0.08-0.29,0-0.42L565.06,49.95z M564.45,56.56h-3.14c-0.31,0-0.61-0.16-0.77-0.42l-1.3-2.16
			c-0.16-0.26-0.16-0.58,0-0.84l1.3-2.16c0.16-0.26,0.45-0.42,0.77-0.42h3.14l1.88,3L564.45,56.56z"/>
		<path class="st3" d="M577.89,47.38l-2.69-4.26l0.89-1.65c0.11-0.2,0.02-0.45-0.19-0.55c-0.21-0.1-0.47-0.02-0.58,0.18l-0.88,1.64
			L568.7,43l-1.4-1.57c-0.15-0.17-0.42-0.19-0.61-0.05c-0.18,0.15-0.2,0.41-0.05,0.58l1.35,1.51l-2.34,4.2
			c-0.08,0.15-0.14,0.32-0.18,0.49c-0.17-0.05-0.35-0.08-0.54-0.08h-5.19l-1.02-1.31c-0.14-0.18-0.41-0.22-0.6-0.08
			c-0.19,0.14-0.23,0.39-0.09,0.57l0.99,1.26l-2.56,4.22c-0.31,0.51-0.31,1.15,0,1.66l2.56,4.22l-0.99,1.26
			c-0.14,0.18-0.1,0.44,0.09,0.57c0.19,0.14,0.46,0.1,0.6-0.08l1.02-1.31h5.68l0.73,1.27c0.12,0.2,0.38,0.27,0.58,0.16
			c0.21-0.11,0.28-0.36,0.17-0.56l-0.74-1.27l2.65-4.23c0.11-0.17,0.18-0.36,0.22-0.55c0.19,0.06,0.4,0.09,0.61,0.08l5.14-0.16
			l1.28,1.66c0.14,0.18,0.41,0.22,0.6,0.09c0.19-0.13,0.23-0.39,0.09-0.57l-1.25-1.63l2.42-4.32
			C578.22,48.51,578.2,47.88,577.89,47.38L577.89,47.38z M568.09,53.99l-2.65,4.23h-5.66l-2.57-4.24c-0.16-0.26-0.16-0.58,0-0.84
			l2.57-4.24h5.15c0.31,0,0.6,0.16,0.76,0.41l2.4,3.82C568.26,53.4,568.26,53.73,568.09,53.99L568.09,53.99z M577.18,48.63
			l-2.43,4.33l-5.12,0.16c-0.32,0.01-0.62-0.15-0.79-0.41l-0.01-0.01c0,0,0,0,0,0l-2.4-3.82c0,0,0,0,0,0l0,0
			c-0.16-0.25-0.16-0.57-0.02-0.83l2.37-4.24l5.69-0.26l2.68,4.25C577.31,48.05,577.32,48.37,577.18,48.63L577.18,48.63z"/>
		<path class="st3" d="M574.52,45.28c-0.33-0.52-0.93-0.83-1.57-0.8l-2.63,0.12c-0.61,0.03-1.17,0.36-1.46,0.88l-1.2,2.16
			c-0.28,0.51-0.27,1.13,0.04,1.62l1.38,2.24c0.33,0.54,0.94,0.84,1.56,0.82l2.56-0.08c0.62-0.02,1.19-0.36,1.48-0.89l1.25-2.28
			c0.28-0.51,0.26-1.13-0.05-1.63L574.52,45.28z M575.17,48.68l-1.25,2.28c-0.15,0.27-0.44,0.44-0.75,0.45l-2.56,0.08
			c-0.32,0.01-0.63-0.15-0.79-0.42l-1.38-2.24c-0.15-0.25-0.16-0.56-0.02-0.82l1.2-2.16c0.15-0.26,0.43-0.43,0.74-0.45l2.63-0.12
			c0.32-0.01,0.63,0.14,0.8,0.41l1.36,2.16C575.3,48.11,575.31,48.42,575.17,48.68L575.17,48.68z"/>
		<path class="st3" d="M571.78,46.1c-0.98,0-1.74,0.55-1.74,1.24c0,0.7,0.76,1.24,1.74,1.24c0.98,0,1.74-0.55,1.74-1.24
			C573.52,46.64,572.76,46.1,571.78,46.1z M571.78,47.76c-0.54,0-0.88-0.25-0.88-0.42c0-0.17,0.35-0.42,0.88-0.42
			c0.54,0,0.88,0.25,0.88,0.42C572.66,47.51,572.32,47.76,571.78,47.76z"/>
		<path class="st3" d="M562.46,51.56c-0.98,0-1.74,0.55-1.74,1.24c0,0.7,0.76,1.24,1.74,1.24c0.98,0,1.74-0.55,1.74-1.24
			C564.2,52.1,563.44,51.56,562.46,51.56z M562.46,53.23c-0.54,0-0.88-0.25-0.88-0.43c0-0.17,0.35-0.42,0.88-0.42
			c0.54,0,0.88,0.25,0.88,0.42C563.34,52.97,563,53.23,562.46,53.23z"/>
		<path class="st3" d="M564.02,55.27c0,0.23-0.19,0.41-0.43,0.41c-0.24,0-0.43-0.18-0.43-0.41s0.19-0.41,0.43-0.41
			C563.83,54.86,564.02,55.04,564.02,55.27z"/>
		<path class="st3" d="M573.13,50.05c0,0.23-0.19,0.41-0.43,0.41c-0.24,0-0.43-0.18-0.43-0.41c0-0.23,0.19-0.41,0.43-0.41
			C572.93,49.64,573.13,49.83,573.13,50.05z"/>
		<path class="st13" d="M577.56,38.2h-4.93c0,0,0,2.36,0,4.11"/>
		<path class="st13" d="M578.11,59.84h-6.57c0,0,0-3.42,0-4.94"/>
		<path class="st13" d="M566.33,45.33h-6.3c0,0,0-4.66,0-4.94"/>
		<path class="st14" d="M578.38,36.29h9.31v3.01h-9.31V36.29z"/>
		<path class="st14" d="M578.66,57.92h8.76v3.56h-8.76V57.92z"/>
		<path class="st14" d="M555.65,36.29h7.4v3.01h-7.4V36.29z"/>
		<path class="st14" d="M547.16,56.28h7.4v2.74h-7.4V56.28z"/>
		<path class="st13" d="M556.74,51.35h-2.66h-3.37v4.11"/>
	</g>
	<path class="st11" d="M539.35,107.36l1.58-2.74h-3.16L539.35,107.36z M539.35,88.88V88.6h-0.27v0.27H539.35z M570.17,88.88v0.27
		h0.27v-0.27H570.17z M539.08,88.88v16.02h0.55V88.88H539.08z M569.89,80.52v8.35h0.55v-8.35H569.89z M570.17,88.6h-30.81v0.55
		h30.81V88.6z"/>
	<path class="st11" d="M296.82,192.27l1.58-2.74h-3.16L296.82,192.27z M296.82,176.66v-0.27h-0.27v0.27H296.82z M442.67,176.66h0.27
		v-0.27h-0.27V176.66z M442.67,190.77l1.58-2.74h-3.16L442.67,190.77z M371.86,154.2v22.46h0.55V154.2H371.86z M372.14,176.39
		h-75.32v0.55h75.32V176.39z M296.54,176.66v13.15h0.55v-13.15H296.54z M372.14,176.93h70.53v-0.55h-70.53V176.93z M442.67,176.66
		c-0.27,0-0.27,0-0.27,0v0v0c0,0,0,0,0,0c0,0,0,0,0,0c0,0,0,0,0,0c0,0,0,0,0,0c0,0,0,0,0,0c0,0,0,0,0,0c0,0,0,0,0,0c0,0,0,0,0,0
		c0,0,0,0,0,0c0,0,0,0,0,0c0,0,0,0,0,0c0,0,0,0,0,0c0,0,0,0,0,0s0,0,0,0s0,0,0,0s0,0,0,0c0,0,0,0,0,0c0,0,0,0,0,0c0,0,0,0,0,0
		c0,0,0,0,0,0c0,0,0,0,0,0c0,0.01,0,0.02,0,0.03c0,0,0,0,0,0s0,0,0,0c0,0,0,0,0,0c0,0,0,0,0,0c0,0,0,0,0,0c0,0,0,0,0,0.01
		c0,0,0,0,0,0.01c0,0,0,0,0,0.01c0,0,0,0,0,0.01c0,0,0,0,0,0.01c0,0,0,0,0,0.01c0,0,0,0,0,0.01s0,0,0,0.01c0,0,0,0,0,0.01
		c0,0,0,0,0,0.01c0,0,0,0,0,0.01s0,0,0,0.01c0,0,0,0,0,0.01c0,0,0,0,0,0.01c0,0,0,0,0,0.01c0,0,0,0,0,0.01s0,0,0,0.01
		c0,0,0,0,0,0.01c0,0,0,0,0,0.01c0,0,0,0.01,0,0.01c0,0,0,0,0,0.01c0,0,0,0.01,0,0.01s0,0.01,0,0.01c0,0,0,0.01,0,0.01
		c0,0,0,0.01,0,0.01c0,0,0,0.01,0,0.01c0,0,0,0.01,0,0.01c0,0,0,0.01,0,0.01c0,0,0,0.01,0,0.01s0,0.01,0,0.01c0,0,0,0.01,0,0.01
		s0,0.01,0,0.01s0,0.01,0,0.01c0,0,0,0.01,0,0.01c0,0,0,0.01,0,0.01c0,0,0,0.01,0,0.01c0,0,0,0.01,0,0.01c0,0,0,0.01,0,0.01
		s0,0.01,0,0.01c0,0,0,0.01,0,0.01c0,0,0,0.01,0,0.01c0,0,0,0.01,0,0.01s0,0.01,0,0.01c0,0.07,0,0.1,0,0.18c0,0,0,0.01,0,0.01
		c0,0,0,0.01,0,0.01c0,0,0,0.01,0,0.01c0,0,0,0.01,0,0.01s0,0.01,0,0.01c0,0,0,0.01,0,0.01s0,0.01,0,0.01s0,0.01,0,0.01
		c0,0,0,0.01,0,0.01c0,0,0,0.01,0,0.01c0,0,0,0.01,0,0.01c0,0,0,0.01,0,0.01c0,0,0,0.01,0,0.01c0,0,0,0.01,0,0.01s0,0.01,0,0.01
		c0,0,0,0.01,0,0.01c0,0,0,0.01,0,0.01c0,0,0,0.01,0,0.01c0,0,0,0.01,0,0.01c0,0,0,0.01,0,0.01c0,0,0,0.01,0,0.01s0,0.01,0,0.01
		c0,0,0,0.01,0,0.02s0,0.01,0,0.02c0,0,0,0.01,0,0.02c0,0,0,0.01,0,0.02c0,0.01,0,0.01,0,0.02c0,0.01,0,0.01,0,0.02
		c0,0.01,0,0.01,0,0.02c0,0.01,0,0.01,0,0.02c0,0.01,0,0.01,0,0.02s0,0.01,0,0.02c0,0.68,0,1.63,0,2.76c0,2.25,0,5.16,0,7.8h0.55
		c0-2.65,0-5.54,0-7.8c0-0.01,0-0.02,0-0.03c0-0.01,0-0.02,0-0.03c0-0.01,0-0.02,0-0.03c0-0.01,0-0.02,0-0.03s0-0.02,0-0.03
		c0-0.01,0-0.02,0-0.03c0-0.01,0-0.02,0-0.03c0-0.01,0-0.02,0-0.03c0-0.01,0-0.02,0-0.03c0-0.01,0-0.02,0-0.03c0-0.01,0-0.02,0-0.03
		c0-0.01,0-0.02,0-0.03c0-0.01,0-0.02,0-0.03c0-0.01,0-0.02,0-0.03c0-0.01,0-0.02,0-0.03c0-0.01,0-0.02,0-0.03c0-0.05,0-0.15,0-0.2
		c0-0.01,0-0.02,0-0.02c0-0.01,0-0.02,0-0.02c0-0.01,0-0.02,0-0.02c0-0.01,0-0.02,0-0.02c0-0.01,0-0.02,0-0.02c0-0.01,0-0.02,0-0.02
		c0-0.01,0-0.02,0-0.02c0-0.01,0-0.02,0-0.02c0-0.01,0-0.02,0-0.02c0-0.01,0-0.02,0-0.02s0-0.02,0-0.02c0-0.01,0-0.02,0-0.02
		c0-0.01,0-0.02,0-0.02c0-0.01,0-0.02,0-0.02c0-0.01,0-0.02,0-0.02s0-0.02,0-0.02c0-0.01,0-0.02,0-0.02c0-0.01,0-0.02,0-0.02
		c0-0.01,0-0.02,0-0.02c0-0.01,0-0.02,0-0.02c0-0.02,0-0.07,0-0.09c0-0.13,0-0.24,0-0.36c0-0.45,0-0.89,0-1.21c0-0.01,0-0.01,0-0.02
		s0-0.01,0-0.02c0-0.01,0-0.01,0-0.02c0-0.01,0-0.01,0-0.02c0-0.01,0-0.01,0-0.02c0,0,0-0.01,0-0.02c0,0,0-0.01,0-0.02
		c0-0.01,0-0.01,0-0.02c0-0.01,0-0.01,0-0.02s0-0.01,0-0.02c0,0,0-0.01,0-0.01s0-0.01,0-0.01c0,0,0-0.01,0-0.01c0,0,0-0.01,0-0.01
		c0,0,0-0.01,0-0.01c0,0,0-0.01,0-0.01c0,0,0-0.01,0-0.01c0,0,0-0.01,0-0.01s0-0.01,0-0.01c0,0,0-0.01,0-0.01c0,0,0-0.01,0-0.01
		c0,0,0-0.01,0-0.01c0,0,0-0.01,0-0.01c0,0,0-0.01,0-0.01c0,0,0-0.01,0-0.01s0-0.01,0-0.01s0-0.01,0-0.01c0,0,0-0.01,0-0.01
		s0-0.01,0-0.01c0,0,0-0.01,0-0.01c0,0,0-0.01,0-0.01c0,0,0-0.01,0-0.01s0-0.01,0-0.01c0,0,0-0.01,0-0.01c0,0,0-0.01,0-0.01
		c0,0,0-0.01,0-0.01c0,0,0-0.01,0-0.01c0,0,0-0.01,0-0.01c0,0,0-0.01,0-0.01c0,0,0-0.01,0-0.01c0,0,0-0.01,0-0.01c0,0,0-0.01,0-0.01
		c0,0,0-0.01,0-0.01c0,0,0-0.01,0-0.01c0,0,0-0.01,0-0.01c0,0,0-0.01,0-0.01c0,0,0-0.01,0-0.01c0,0,0-0.01,0-0.01c0,0,0-0.01,0-0.01
		s0-0.01,0-0.01c0,0,0-0.01,0-0.01c0,0,0-0.01,0-0.01c0,0,0-0.01,0-0.01s0-0.01,0-0.01c0,0,0-0.01,0-0.01c0,0,0-0.01,0-0.01
		c0,0,0-0.01,0-0.01c0,0,0-0.01,0-0.01c0,0,0-0.01,0-0.01s0-0.01,0-0.01s0-0.01,0-0.01c0,0,0-0.01,0-0.01s0-0.01,0-0.01
		c0,0,0-0.01,0-0.01c0,0,0-0.01,0-0.01c0,0,0-0.01,0-0.01c0,0,0-0.01,0-0.01c0,0,0-0.01,0-0.01c0,0,0-0.01,0-0.01s0-0.01,0-0.01
		c0,0,0-0.01,0-0.01c0,0,0-0.01,0-0.01c0,0,0,0,0-0.01c0,0,0,0,0-0.01c0,0,0,0,0-0.01s0,0,0-0.01c0,0,0,0,0-0.01c0,0,0,0,0-0.01
		c0,0,0,0,0-0.01c0,0,0,0,0-0.01s0,0,0-0.01c0,0,0,0,0-0.01c0,0,0,0,0-0.01c0,0,0,0,0-0.01s0,0,0-0.01c0,0,0,0,0-0.01
		c0,0,0,0,0-0.01c0,0,0,0,0-0.01c0,0,0,0,0-0.01c0,0,0,0,0-0.01c0,0,0,0,0-0.01c0,0,0,0,0,0c0,0,0,0,0,0c0,0,0,0,0,0c0,0,0,0,0,0
		s0,0,0,0c0,0,0,0,0,0c0,0,0,0,0,0c0,0,0,0,0,0c0,0,0,0,0,0c0,0,0,0,0,0c0,0,0,0,0,0c0,0,0,0,0,0s0,0,0,0c0,0,0,0,0,0c0,0,0,0,0,0
		c0,0,0,0,0,0c0,0,0,0,0,0c0,0,0,0,0,0c0,0,0,0,0,0s0,0,0,0s0,0,0,0s0,0,0,0c0,0,0,0,0,0c0,0,0,0,0,0c0,0,0,0,0,0c0,0,0,0,0,0
		c0,0,0,0,0,0c0,0,0,0,0,0c0,0,0,0,0,0c0,0,0,0,0,0c0,0,0,0,0,0c0,0,0,0,0,0c0,0,0,0,0,0c0,0,0,0,0,0v0v0
		C442.94,176.66,442.94,176.66,442.67,176.66z"/>
	<text transform="matrix(1 0 0 1 340.8646 169.8107)" class="st0 st1 st2">AnnData</text>
	<text transform="matrix(1 0 0 1 339.0833 164.0593)" class="st3 st1 st2">Convert to </text>
	<g>
		<g>
			<path class="st3" d="M177.22,73.12h-0.66v-6.38c0-0.09-0.04-0.18-0.11-0.24l-5.08-4.98c-0.06-0.06-0.15-0.1-0.24-0.1h-8.71
				c-1.1,0-2,0.93-2,2.07v9.63h-0.66c-0.19,0-0.35,0.13-0.35,0.32v5.71c0,0.19,0.16,0.32,0.35,0.32h0.66v1.18
				c0,1.14,0.91,2.07,2,2.07h12.14c1.1,0,2-0.93,2-2.07v-1.18h0.66c0.19,0,0.35-0.13,0.35-0.32v-5.71
				C177.57,73.25,177.41,73.12,177.22,73.12L177.22,73.12z M171.44,62.54l3.96,3.85h-3.18c-0.21,0-0.41-0.09-0.55-0.24
				c-0.15-0.15-0.23-0.35-0.22-0.56V62.54z M161.09,63.48c0-0.77,0.6-1.4,1.33-1.4h8.35v3.51c0,0.39,0.15,0.76,0.42,1.04
				c0.27,0.28,0.64,0.43,1.03,0.44h3.66v6.04h-14.79V63.48z M175.88,80.64c0,0.77-0.6,1.4-1.33,1.4h-12.14
				c-0.72,0-1.33-0.63-1.33-1.4v-1.18h14.79V80.64z M176.9,78.78h-16.82v-4.99h16.82V78.78z"/>
			<text transform="matrix(1 0 0 1 164.0982 78.1277)" class="st3 st1 st4">MTX</text>
			<path class="st3" d="M169.76,64.8h-7.24c-0.27,0-0.47,0.22-0.47,0.47v7.67c0,0.27,0.22,0.47,0.47,0.47h1.64h1.98h3.62
				c0.27,0,0.47-0.22,0.47-0.47v-4.29v-1.16v-2.22C170.24,65.02,170.02,64.8,169.76,64.8L169.76,64.8z M169.97,67.36h-1.71v-0.89
				h1.71L169.97,67.36z M169.97,68.52h-1.71v-0.89h1.71L169.97,68.52z M169.97,69.67h-1.71v-0.89h1.71L169.97,69.67z M169.97,70.83
				h-1.71v-0.89h1.71L169.97,70.83z M162.32,69.94h1.71v0.89h-1.71V69.94z M162.32,68.79h1.71v0.89h-1.71V68.79z M162.32,67.63h1.71
				v0.89h-1.71V67.63z M164.3,68.79h1.71v0.89h-1.71V68.79z M166.28,68.79h1.71v0.89h-1.71V68.79z M167.99,68.52h-1.71v-0.89h1.71
				V68.52z M166.01,68.52h-1.71v-0.89h1.71V68.52z M164.3,69.94h1.71v0.89h-1.71V69.94z M166.28,69.94h1.71v0.89h-1.71V69.94z
				 M167.99,67.36h-1.71v-0.89h1.71V67.36z M166.01,67.36h-1.71v-0.89h1.71V67.36z M164.03,67.36h-1.71v-0.89h1.71V67.36z
				 M162.32,71.1h1.71v0.89l-1.71,0V71.1z M164.3,71.1h1.71v0.89l-1.71,0V71.1z M166.28,71.1h1.71v0.89l-1.71,0V71.1z M168.26,71.1
				h1.71v0.89l-1.71,0V71.1z M169.97,65.27v0.92h-1.71v-1.12h1.5C169.87,65.07,169.97,65.16,169.97,65.27L169.97,65.27z
				 M167.99,66.2h-1.71v-1.13h1.71V66.2z M166.01,66.2h-1.71v-1.13h1.71V66.2z M162.32,65.27c0-0.11,0.1-0.2,0.2-0.2h1.5v1.13h-1.71
				V65.27z M162.32,72.95v-0.69h1.71v0.89h-1.5C162.42,73.15,162.32,73.05,162.32,72.95L162.32,72.95z M164.3,72.26h1.71v0.89h-1.71
				V72.26z M166.28,72.26h1.71v0.89h-1.71V72.26z M169.97,72.95c0,0.12-0.1,0.2-0.2,0.2h-1.5v-0.89h1.71L169.97,72.95z"/>
			<path class="st3" d="M164.88,65.77h0.54c0.08,0,0.14-0.05,0.14-0.13s-0.05-0.13-0.14-0.13h-0.54c-0.08,0-0.14,0.05-0.14,0.13
				S164.8,65.77,164.88,65.77z"/>
			<path class="st3" d="M166.86,65.77h0.54c0.08,0,0.14-0.05,0.14-0.13s-0.05-0.13-0.14-0.13h-0.54c-0.08,0-0.14,0.05-0.14,0.13
				S166.78,65.77,166.86,65.77z"/>
			<path class="st3" d="M168.84,65.77h0.54c0.08,0,0.14-0.05,0.14-0.13s-0.05-0.13-0.14-0.13h-0.54c-0.08,0-0.14,0.05-0.14,0.13
				S168.77,65.77,168.84,65.77z"/>
			<path class="st3" d="M162.93,65.51c-0.04-0.03-0.11-0.01-0.14,0.03c-0.01,0.01-0.03,0.03-0.04,0.04v0.05
				c0,0.04,0.01,0.07,0.04,0.09c0,0.01,0.03,0.03,0.04,0.03c0.01,0.01,0.03,0.01,0.05,0.01s0.04,0,0.05-0.01
				c0.01,0,0.03-0.01,0.04-0.03c0.03-0.03,0.04-0.05,0.04-0.09c0-0.04-0.01-0.07-0.04-0.09C162.97,65.53,162.96,65.51,162.93,65.51z
				"/>
			<path class="st3" d="M163.52,65.51c-0.05-0.03-0.11-0.01-0.15,0.03c-0.01,0.01-0.03,0.03-0.03,0.04s-0.01,0.04-0.01,0.05
				c0,0.04,0.01,0.07,0.04,0.09c0.03,0.03,0.07,0.04,0.1,0.04c0.01,0,0.04,0,0.05-0.01c0.01,0,0.03-0.01,0.04-0.03
				c0.03-0.03,0.04-0.05,0.04-0.09s-0.01-0.07-0.04-0.09C163.54,65.53,163.53,65.51,163.52,65.51z"/>
		</g>
		<text transform="matrix(1 0 0 1 152.1506 88.7026)" class="st9"><tspan x="0" y="0" class="st3 st1 st10">ADT by cell</tspan><tspan x="0" y="7.2" class="st3 st1 st10">count matrix</tspan></text>
	</g>
	<g>
		<path class="st11" d="M229.64,52.06l-1.99-1.58v3.16L229.64,52.06z M198.52,52.33h29.33v-0.55h-29.33V52.33z M199.08,52.06V28.77
			h-0.55v23.28H199.08z M199.08,28.5h-17.6v0.55h17.6V28.5z M198.53,52.06v27.53h0.55V52.06H198.53z M199.08,79.31h-17.6v0.55h17.6
			V79.31z"/>
		<text transform="matrix(1 0 0 1 204.1974 40.5289)" class="st9"><tspan x="0" y="0" class="st3 st1 st2">Read </tspan><tspan x="0" y="8.34" class="st3 st1 st2">into R</tspan></text>
	</g>
</g>
</svg>
