<?xml version="1.0" encoding="UTF-8"?>
<svg id="Layer_1" data-name="Layer 1" xmlns="http://www.w3.org/2000/svg" width="1952.9" height="516.1" viewBox="0 0 1952.9 516.1">
  <defs>
    <style>
      .cls-1 {
        letter-spacing: -.02em;
      }

      .cls-2 {
        font-family: Arial-BoldMT, Arial;
        font-size: 20px;
        font-weight: 700;
      }

      .cls-2, .cls-3, .cls-4, .cls-5, .cls-6, .cls-7 {
        isolation: isolate;
      }

      .cls-2, .cls-5 {
        fill: #266141;
      }

      .cls-8 {
        stroke: #266141;
      }

      .cls-8, .cls-9, .cls-10 {
        fill: none;
        stroke-width: 2px;
      }

      .cls-3 {
        fill: #003595;
        font-size: 12px;
      }

      .cls-3, .cls-4, .cls-5, .cls-6 {
        font-family: ArialMT, Arial;
      }

      .cls-4 {
        font-size: 16px;
      }

      .cls-4, .cls-11, .cls-6, .cls-12 {
        fill: #000;
      }

      .cls-9 {
        stroke-linecap: round;
      }

      .cls-9, .cls-10, .cls-13 {
        stroke: #000;
      }

      .cls-9, .cls-13 {
        stroke-linejoin: round;
      }

      .cls-5, .cls-6 {
        font-size: 18px;
      }

      .cls-14 {
        letter-spacing: -.04em;
      }

      .cls-11, .cls-15, .cls-12 {
        stroke-width: 0px;
      }

      .cls-16 {
        letter-spacing: -.06em;
      }

      .cls-15 {
        fill: #8b8d8c;
      }

      .cls-12 {
        fill-rule: evenodd;
      }

      .cls-13 {
        fill: #fff;
      }
    </style>
  </defs>
  <text class="cls-6" transform="translate(560.86 118.44)"><tspan x="0" y="0">Read into R</tspan></text>
  <text class="cls-5" transform="translate(644.83 201.84)"><tspan x="0" y="0">SingleCellExperiment(SCE)</tspan></text>
  <text class="cls-6" transform="translate(866.05 201.84)"><tspan x="0" y="0"> </tspan></text>
  <text class="cls-6" transform="translate(731.4 222.84)"><tspan x="0" y="0">object</tspan></text>
  <path class="cls-11" d="M786.84,133.5h-2.4v-23.3c0-.3-.2-.7-.4-.9l-18.6-18.2c-.2-.2-.5-.4-.9-.4h-31.8c-4,0-7.3,3.4-7.3,7.6v35.2h-2.4c-.7,0-1.3.5-1.3,1.2v20.8c0,.7.6,1.2,1.3,1.2h2.4v4.3c0,4.2,3.3,7.6,7.3,7.6h44.3c4,0,7.3-3.4,7.3-7.6v-4.3h2.4c.7,0,1.3-.5,1.3-1.2v-20.8c.1-.8-.5-1.2-1.2-1.2h0ZM765.74,94.9l14.4,14.1h-11.6c-.8,0-1.5-.3-2-.9-.5-.5-.8-1.3-.8-2v-11.2h0ZM727.94,98.3c0-2.8,2.2-5.1,4.8-5.1h30.5v12.8c0,1.4.5,2.8,1.5,3.8s2.4,1.6,3.8,1.6h13.4v22.1h-54v-35.2ZM781.94,160.9c0,2.8-2.2,5.1-4.8,5.1h-44.3c-2.6,0-4.8-2.3-4.8-5.1v-4.3h54v4.3h-.1ZM785.64,154.1h-61.4v-18.2h61.4v18.2Z"/>
  <text class="cls-4" transform="translate(741.09 150.99)"><tspan x="0" y="0">OBJ</tspan></text>
  <path class="cls-11" d="M745.54,100v-3.3c-.5.1-1.1.1-1.6.2v2.4l-12.9,12.9h-2.4c-.1.5-.2,1-.2,1.6h3.3l13.8-13.8Z"/>
  <path class="cls-11" d="M741.04,128.8l-1.8,4.9c.5.2.9.4,1.4.6l1.6-4.2,15.5-3.2,4.3,3.1c.1-.1.8-1.4.8-1.4l-5-3.4-16.8,3.6Z"/>
  <path class="cls-11" d="M761.14,110.3l4.3-2.9c-.2-.4-.5-.9-.7-1.3l-.1-.1-5,3.3-1.7,14.2,5.7,4.1c.3-.4.6-.9.9-1.3l-4.9-3.5,1.5-12.5Z"/>
  <path class="cls-11" d="M763.94,105l-.4-.7c-.2-.2-.3-.4-.5-.6l-4.2,2.1-11-6.6v-2.7c-.5,0-1.1,0-1.6.1v3.5l12.5,7.5,5.2-2.6Z"/>
  <path class="cls-11" d="M743.14,110.6c-3,0-5.5,2.5-5.5,5.5s2.5,5.5,5.5,5.5,5.5-2.5,5.5-5.5-2.5-5.5-5.5-5.5ZM743.14,120c-2.2,0-3.9-1.8-3.9-3.9s1.8-3.9,3.9-3.9,3.9,1.8,3.9,3.9c0,2.2-1.7,3.9-3.9,3.9Z"/>
  <path class="cls-11" d="M750.64,111.4c1.5,0,2.7-1.2,2.7-2.7s-1.2-2.7-2.7-2.7-2.7,1.2-2.7,2.7c-.1,1.5,1.2,2.7,2.7,2.7ZM750.64,107.5c.6,0,1.2.5,1.2,1.2s-.5,1.2-1.2,1.2-1.2-.5-1.2-1.2.5-1.2,1.2-1.2Z"/>
  <path class="cls-11" d="M755.14,117.6l-.2-.7-.2-.7c-.1,0-2.6.9-3.3,2.9-.4,1.1-.2,2.4.6,3.7l1.3-.8c-.5-.9-.7-1.7-.4-2.4.4-1.3,2.2-2,2.2-2Z"/>
  <path class="cls-11" d="M766.64,117.7c0,.9-.7,1.6-1.6,1.6s-1.6-.7-1.6-1.6.7-1.6,1.6-1.6,1.6.7,1.6,1.6Z"/>
  <path class="cls-11" d="M751.74,131c-2.2,0-3.9,1.8-3.9,3.9,0,.3,0,.5.1.8.5,0,1.1,0,1.6-.1-.1-.2-.1-.5-.1-.7,0-1.3,1.1-2.4,2.4-2.4,1.2,0,2.2.9,2.3,2.1.5-.2,1-.4,1.5-.6-.4-1.6-2-3-3.9-3Z"/>
  <path class="cls-11" d="M730.24,123.2c-.2,0-.4,0-.6.1.5,1.2,1.1,2.4,1.8,3.4.5-.4.8-.9.8-1.6-.1-1.1-.9-1.9-2-1.9h0Z"/>
  <path class="cls-11" d="M735.94,101l1.1,1.1-4.3,4.3-1.1-1.1,4.3-4.3Z"/>
  <path class="cls-11" d="M731.84,114.5h-3.5c0,.5-.1,1-.1,1.6h2.7l7.4,12.6-1.4,3.7c.4.3.9.6,1.4.8l1.8-4.7-8.3-14Z"/>
  <rect class="cls-8" x="975.44" y="350.1" width="454" height="165"/>
  <rect class="cls-8" x="1589.44" y="350.1" width="294" height="165"/>
  <text class="cls-2" transform="translate(1498.63 439.53)"><tspan x="0" y="0">Reports</tspan></text>
  <text class="cls-5" transform="translate(1005.89 489.84)"><tspan x="0" y="0">SCE</tspan></text>
  <text class="cls-6" transform="translate(1014.38 468.84)"><tspan x="0" y="0">Unfiltered </tspan></text>
  <text class="cls-6" transform="translate(1042.91 489.84)"><tspan x="0" y="0" xml:space="preserve"> Object</tspan></text>
  <path class="cls-11" d="M1080.04,411.9h-2.1v-19.8c0-.3-.1-.6-.3-.7l-15.7-15.4c-.2-.2-.5-.3-.8-.3h-27c-3.4,0-6.2,2.9-6.2,6.4v29.8h-2.1c-.6,0-1.1.4-1.1,1v17.7c0,.6.5,1,1.1,1h2.1v3.7c0,3.5,2.8,6.4,6.2,6.4h37.6c3.4,0,6.2-2.9,6.2-6.4v-3.7h2.1c.6,0,1.1-.4,1.1-1v-17.7c-.1-.6-.6-1-1.1-1h0ZM1062.14,379.1l12.2,11.9h-9.8c-.6,0-1.3-.3-1.7-.7-.4-.5-.7-1.1-.7-1.7v-9.5ZM1030.04,382c0-2.4,1.9-4.3,4.1-4.3h25.9v10.9c0,1.2.5,2.4,1.3,3.2.8.9,2,1.3,3.2,1.4h11.3v18.7h-45.8v-29.9ZM1075.84,435.2c0,2.4-1.9,4.3-4.1,4.3h-37.6c-2.2,0-4.1-1.9-4.1-4.3v-3.7h45.8v3.7h0ZM1078.94,429.4h-52.1v-15.4h52.1v15.4Z"/>
  <text class="cls-4" transform="translate(1039.03 427.85)"><tspan x="0" y="0">RDS</tspan></text>
  <path class="cls-11" d="M1044.94,383.5v-2.8c-.4.1-.9.1-1.3.2v2.1l-10.9,10.9h-2.1c-.1.4-.2.9-.2,1.3h2.8l11.7-11.7Z"/>
  <path class="cls-11" d="M1041.14,407.9l-1.6,4.2c.4.2.8.4,1.2.5l1.3-3.6,13.2-2.7,3.6,2.7c.1-.1.7-1.2.7-1.2l-4.2-2.9-14.2,3Z"/>
  <path class="cls-11" d="M1058.24,392.2l3.6-2.4c-.2-.4-.4-.7-.6-1.1l-.1-.1-4.2,2.8-1.4,12,4.8,3.5c.3-.4.5-.7.7-1.1l-4.2-3,1.4-10.6Z"/>
  <path class="cls-11" d="M1060.54,387.8l-.3-.6c-.1-.2-.3-.4-.4-.5l-3.5,1.8-9.3-5.6v-2.3c-.4,0-.9,0-1.3.1v3l10.6,6.4,4.2-2.3Z"/>
  <path class="cls-11" d="M1042.94,392.5c-2.6,0-4.7,2.1-4.7,4.7s2.1,4.7,4.7,4.7,4.7-2.1,4.7-4.7-2.1-4.7-4.7-4.7ZM1042.94,400.5c-1.8,0-3.3-1.5-3.3-3.3s1.5-3.3,3.3-3.3,3.3,1.5,3.3,3.3-1.5,3.3-3.3,3.3Z"/>
  <path class="cls-11" d="M1049.24,393.2c1.3,0,2.3-1,2.3-2.3s-1-2.3-2.3-2.3-2.3,1-2.3,2.3c0,1.2,1,2.3,2.3,2.3ZM1049.24,389.8c.6,0,1,.4,1,1,0,.5-.4,1-1,1-.5,0-1-.4-1-1,0-.5.5-1,1-1Z"/>
  <path class="cls-11" d="M1053.14,398.5l-.2-.6-.2-.6c-.1,0-2.2.7-2.8,2.5-.4,1-.2,2,.5,3.1l1.1-.7c-.5-.8-.6-1.4-.4-2,.4-1.2,2-1.7,2-1.7Z"/>
  <path class="cls-11" d="M1062.94,398.5c0,.7-.6,1.3-1.3,1.3s-1.3-.6-1.3-1.3.6-1.3,1.3-1.3,1.3.6,1.3,1.3Z"/>
  <path class="cls-11" d="M1050.24,409.8c-1.8,0-3.3,1.5-3.3,3.3,0,.2,0,.4.1.7.5,0,.9,0,1.4-.1-.1-.2-.1-.4-.1-.6,0-1.1.9-2,2-2,1,0,1.9.8,2,1.8.4-.1.9-.3,1.3-.5-.4-1.5-1.8-2.6-3.4-2.6Z"/>
  <path class="cls-11" d="M1031.94,403.1c-.2,0-.3,0-.5.1.4,1,.9,2,1.5,2.9.4-.3.7-.8.7-1.3,0-.9-.8-1.7-1.7-1.7h0Z"/>
  <path class="cls-11" d="M1036.84,384.4l.9.9-3.7,3.7-.9-.9,3.7-3.7Z"/>
  <path class="cls-11" d="M1033.34,395.8h-3c0,.4-.1.9-.1,1.3h2.3l6.3,10.7-1.2,3.1c.4.3.8.5,1.2.7l1.5-4-7-11.8Z"/>
  <text class="cls-5" transform="translate(1152.39 492.84)"><tspan x="0" y="0">SCE</tspan></text>
  <text class="cls-6" transform="translate(1169.4 471.84)"><tspan x="0" y="0">Filtered </tspan></text>
  <text class="cls-6" transform="translate(1189.41 492.84)"><tspan x="0" y="0" xml:space="preserve"> Object</tspan></text>
  <path class="cls-11" d="M1230.04,412.9h-2.1v-19.8c0-.3-.1-.6-.3-.7l-15.7-15.4c-.2-.2-.5-.3-.8-.3h-27c-3.4,0-6.2,2.9-6.2,6.4v29.8h-2.1c-.6,0-1.1.4-1.1,1v17.7c0,.6.5,1,1.1,1h2.1v3.7c0,3.5,2.8,6.4,6.2,6.4h37.6c3.4,0,6.2-2.9,6.2-6.4v-3.7h2.1c.6,0,1.1-.4,1.1-1v-17.7c-.1-.6-.6-1-1.1-1h0ZM1212.14,380.1l12.2,11.9h-9.8c-.6,0-1.3-.3-1.7-.7-.4-.5-.7-1.1-.7-1.7v-9.5ZM1180.04,383c0-2.4,1.9-4.3,4.1-4.3h25.9v10.9c0,1.2.5,2.4,1.3,3.2.8.9,2,1.3,3.2,1.4h11.3v18.7h-45.8v-29.9ZM1225.84,436.2c0,2.4-1.9,4.3-4.1,4.3h-37.6c-2.2,0-4.1-1.9-4.1-4.3v-3.7h45.8v3.7h0ZM1228.94,430.4h-52.1v-15.4h52.1v15.4Z"/>
  <text class="cls-4" transform="translate(1189.03 428.85)"><tspan x="0" y="0">RDS</tspan></text>
  <path class="cls-11" d="M1194.94,384.5v-2.8c-.4.1-.9.1-1.3.2v2.1l-10.9,10.9h-2.1c-.1.4-.2.9-.2,1.3h2.8l11.7-11.7Z"/>
  <path class="cls-11" d="M1191.14,408.9l-1.6,4.2c.4.2.8.4,1.2.5l1.3-3.6,13.2-2.7,3.6,2.7c.1-.1.7-1.2.7-1.2l-4.2-2.9-14.2,3Z"/>
  <path class="cls-11" d="M1208.24,393.2l3.6-2.4c-.2-.4-.4-.7-.6-1.1l-.1-.1-4.2,2.8-1.4,12,4.8,3.5c.3-.4.5-.7.7-1.1l-4.2-3,1.4-10.6Z"/>
  <path class="cls-11" d="M1210.54,388.8l-.3-.6c-.1-.2-.3-.4-.4-.5l-3.5,1.8-9.3-5.6v-2.3c-.4,0-.9,0-1.3.1v3l10.6,6.4,4.2-2.3Z"/>
  <path class="cls-11" d="M1192.94,393.5c-2.6,0-4.7,2.1-4.7,4.7s2.1,4.7,4.7,4.7,4.7-2.1,4.7-4.7-2.1-4.7-4.7-4.7ZM1192.94,401.5c-1.8,0-3.3-1.5-3.3-3.3s1.5-3.3,3.3-3.3,3.3,1.5,3.3,3.3-1.5,3.3-3.3,3.3Z"/>
  <path class="cls-11" d="M1199.24,394.2c1.3,0,2.3-1,2.3-2.3s-1-2.3-2.3-2.3-2.3,1-2.3,2.3c0,1.2,1,2.3,2.3,2.3ZM1199.24,390.8c.6,0,1,.4,1,1,0,.5-.4,1-1,1-.5,0-1-.4-1-1,0-.5.5-1,1-1Z"/>
  <path class="cls-11" d="M1203.14,399.5l-.2-.6-.2-.6c-.1,0-2.2.7-2.8,2.5-.4,1-.2,2,.5,3.1l1.1-.7c-.5-.8-.6-1.4-.4-2,.4-1.2,2-1.7,2-1.7Z"/>
  <path class="cls-11" d="M1212.94,399.5c0,.7-.6,1.3-1.3,1.3s-1.3-.6-1.3-1.3.6-1.3,1.3-1.3,1.3.6,1.3,1.3Z"/>
  <path class="cls-11" d="M1200.24,410.8c-1.8,0-3.3,1.5-3.3,3.3,0,.2,0,.4.1.7.5,0,.9,0,1.4-.1-.1-.2-.1-.4-.1-.6,0-1.1.9-2,2-2,1,0,1.9.8,2,1.8.4-.1.9-.3,1.3-.5-.4-1.5-1.8-2.6-3.4-2.6Z"/>
  <path class="cls-11" d="M1181.94,404.1c-.2,0-.3,0-.5.1.4,1,.9,2,1.5,2.9.4-.3.7-.8.7-1.3,0-.9-.8-1.7-1.7-1.7h0Z"/>
  <path class="cls-11" d="M1186.84,385.4l.9.9-3.7,3.7-.9-.9,3.7-3.7Z"/>
  <path class="cls-11" d="M1183.34,396.8h-3c0,.4-.1.9-.1,1.3h2.3l6.3,10.7-1.2,3.1c.4.3.8.5,1.2.7l1.5-4-7-11.8Z"/>
  <text class="cls-5" transform="translate(1307.39 489.84)"><tspan x="0" y="0">SCE</tspan></text>
  <text class="cls-6" transform="translate(1311.9 468.84)"><tspan x="0" y="0">Processed </tspan></text>
  <text class="cls-6" transform="translate(1344.41 489.84)"><tspan x="0" y="0" xml:space="preserve"> Object</tspan></text>
  <path class="cls-11" d="M1384.04,411.9h-2.1v-19.8c0-.3-.1-.6-.3-.7l-15.7-15.4c-.2-.2-.5-.3-.8-.3h-27c-3.4,0-6.2,2.9-6.2,6.4v29.8h-2.1c-.6,0-1.1.4-1.1,1v17.7c0,.6.5,1,1.1,1h2.1v3.7c0,3.5,2.8,6.4,6.2,6.4h37.6c3.4,0,6.2-2.9,6.2-6.4v-3.7h2.1c.6,0,1.1-.4,1.1-1v-17.7c-.1-.6-.6-1-1.1-1h0ZM1366.14,379.1l12.2,11.9h-9.8c-.6,0-1.3-.3-1.7-.7-.4-.5-.7-1.1-.7-1.7v-9.5ZM1334.04,382c0-2.4,1.9-4.3,4.1-4.3h25.9v10.9c0,1.2.5,2.4,1.3,3.2.8.9,2,1.3,3.2,1.4h11.3v18.7h-45.8v-29.9ZM1379.84,435.2c0,2.4-1.9,4.3-4.1,4.3h-37.6c-2.2,0-4.1-1.9-4.1-4.3v-3.7h45.8v3.7h0ZM1382.94,429.4h-52.1v-15.4h52.1v15.4Z"/>
  <text class="cls-4" transform="translate(1343.53 427.85)"><tspan x="0" y="0">RDS</tspan></text>
  <path class="cls-11" d="M1348.94,383.5v-2.8c-.4.1-.9.1-1.3.2v2.1l-10.9,10.9h-2.1c-.1.4-.2.9-.2,1.3h2.8l11.7-11.7Z"/>
  <path class="cls-11" d="M1345.14,407.9l-1.6,4.2c.4.2.8.4,1.2.5l1.3-3.6,13.2-2.7,3.6,2.7c.1-.1.7-1.2.7-1.2l-4.2-2.9-14.2,3Z"/>
  <path class="cls-11" d="M1362.24,392.2l3.6-2.4c-.2-.4-.4-.7-.6-1.1l-.1-.1-4.2,2.8-1.4,12,4.8,3.5c.3-.4.5-.7.7-1.1l-4.2-3,1.4-10.6Z"/>
  <path class="cls-11" d="M1364.54,387.8l-.3-.6c-.1-.2-.3-.4-.4-.5l-3.5,1.8-9.3-5.6v-2.3c-.4,0-.9,0-1.3.1v3l10.6,6.4,4.2-2.3Z"/>
  <path class="cls-11" d="M1346.94,392.5c-2.6,0-4.7,2.1-4.7,4.7s2.1,4.7,4.7,4.7,4.7-2.1,4.7-4.7-2.1-4.7-4.7-4.7ZM1346.94,400.5c-1.8,0-3.3-1.5-3.3-3.3s1.5-3.3,3.3-3.3,3.3,1.5,3.3,3.3-1.5,3.3-3.3,3.3Z"/>
  <path class="cls-11" d="M1353.24,393.2c1.3,0,2.3-1,2.3-2.3s-1-2.3-2.3-2.3-2.3,1-2.3,2.3c0,1.2,1,2.3,2.3,2.3ZM1353.24,389.8c.6,0,1,.4,1,1,0,.5-.4,1-1,1-.5,0-1-.4-1-1,0-.5.5-1,1-1Z"/>
  <path class="cls-11" d="M1357.14,398.5l-.2-.6-.2-.6c-.1,0-2.2.7-2.8,2.5-.4,1-.2,2,.5,3.1l1.1-.7c-.5-.8-.6-1.4-.4-2,.4-1.2,2-1.7,2-1.7Z"/>
  <path class="cls-11" d="M1366.94,398.5c0,.7-.6,1.3-1.3,1.3s-1.3-.6-1.3-1.3.6-1.3,1.3-1.3,1.3.6,1.3,1.3Z"/>
  <path class="cls-11" d="M1354.24,409.8c-1.8,0-3.3,1.5-3.3,3.3,0,.2,0,.4.1.7.5,0,.9,0,1.4-.1-.1-.2-.1-.4-.1-.6,0-1.1.9-2,2-2,1,0,1.9.8,2,1.8.4-.1.9-.3,1.3-.5-.4-1.5-1.8-2.6-3.4-2.6Z"/>
  <path class="cls-11" d="M1335.94,403.1c-.2,0-.3,0-.5.1.4,1,.9,2,1.5,2.9.4-.3.7-.8.7-1.3,0-.9-.8-1.7-1.7-1.7h0Z"/>
  <path class="cls-11" d="M1340.84,384.4l.9.9-3.7,3.7-.9-.9,3.7-3.7Z"/>
  <path class="cls-11" d="M1337.34,395.8h-3c0,.4-.1.9-.1,1.3h2.3l6.3,10.7-1.2,3.1c.4.3.8.5,1.2.7l1.5-4-7-11.8Z"/>
  <text class="cls-6" transform="translate(1623.43 468.84)"><tspan x="0" y="0">Summary </tspan></text>
  <text class="cls-6" transform="translate(1618.89 489.84)"><tspan x="0" y="0">QC Report</tspan></text>
  <path class="cls-11" d="M1687.04,411.9h-2.1v-19.8c0-.3-.1-.6-.3-.7l-15.7-15.4c-.2-.2-.5-.3-.8-.3h-27c-3.4,0-6.2,2.9-6.2,6.4v29.8h-2.1c-.6,0-1.1.4-1.1,1v17.7c0,.6.5,1,1.1,1h2.1v3.7c0,3.5,2.8,6.4,6.2,6.4h37.6c3.4,0,6.2-2.9,6.2-6.4v-3.7h2.1c.6,0,1.1-.4,1.1-1v-17.7c-.1-.6-.6-1-1.1-1h0ZM1669.14,379.1l12.2,11.9h-9.8c-.6,0-1.3-.3-1.7-.7-.4-.5-.7-1.1-.7-1.7v-9.5ZM1637.04,382c0-2.4,1.9-4.3,4.1-4.3h25.9v10.9c0,1.2.5,2.4,1.3,3.2.8.9,2,1.3,3.2,1.4h11.3v18.7h-45.8v-29.9ZM1682.84,435.2c0,2.4-1.9,4.3-4.1,4.3h-37.6c-2.2,0-4.1-1.9-4.1-4.3v-3.7h45.8v3.7h0ZM1685.94,429.4h-52.1v-15.4h52.1v15.4Z"/>
  <text class="cls-4" transform="translate(1642.22 427.85)"><tspan x="0" y="0">HTM</tspan><tspan class="cls-14" x="34.66" y="0">L</tspan></text>
  <path class="cls-11" d="M1644.74,405.1v7.2c0,.6-.6,1.2-1.2,1.2h-4c-.7,0-1.2-.5-1.2-1.2v-7.2c0-.6.6-1.2,1.2-1.2h4c.7.1,1.2.6,1.2,1.2Z"/>
  <path class="cls-11" d="M1639.44,399.7c0-.8.7-1.5,1.6-1.5.3,0,.5.1.8.2l5.6-5.8c-.2-.2-.3-.5-.3-.8,0-.8.7-1.5,1.6-1.5s1.6.7,1.6,1.5v.4l5.3,2.6c.3-.3.7-.5,1.2-.5.3,0,.6.1.8.2l6.2-6c-.2-.2-.2-.5-.2-.8,0-.8.7-1.5,1.6-1.5s1.6.7,1.6,1.5-.7,1.5-1.6,1.5c-.3,0-.6-.1-.8-.2l-6.2,6c.2.2.2.5.2.8,0,.8-.7,1.5-1.6,1.5s-1.6-.7-1.6-1.5c0-.1,0-.2.1-.4l-5.3-2.6c-.3.3-.7.5-1.2.5-.3,0-.5-.1-.8-.2l-5.6,5.8c.2.2.3.5.3.8,0,.8-.7,1.5-1.6,1.5-1,0-1.7-.7-1.7-1.5Z"/>
  <path class="cls-11" d="M1652.44,398.4v13.4c0,.7-.5,1.3-1.2,1.3h-3.7c-.6,0-1.2-.6-1.2-1.3v-13.4c0-.7.5-1.3,1.2-1.3h3.7c.7,0,1.2.6,1.2,1.3Z"/>
  <path class="cls-11" d="M1660.64,401.9v10.4c0,.6-.5,1.2-1.2,1.2h-4c-.7,0-1.2-.5-1.2-1.2v-10.4c0-.6.6-1.2,1.2-1.2h4c.7,0,1.2.6,1.2,1.2Z"/>
  <path class="cls-11" d="M1668.44,397.1v15c0,.6-.5,1-1.2,1h-3.7c-.6,0-1.2-.5-1.2-1v-15c0-.6.5-1,1.2-1h3.7c.7,0,1.2.5,1.2,1Z"/>
  <text class="cls-6" transform="translate(1780.56 463.84)"><tspan x="0" y="0">Cell</tspan><tspan class="cls-1" x="31.01" y="0"> </tspan><tspan class="cls-16" x="35.68" y="0">T</tspan><tspan x="45.69" y="0">ype </tspan></text>
  <text class="cls-6" transform="translate(1790.9 484.84)"><tspan x="0" y="0">Report</tspan></text>
  <path class="cls-11" d="M1843.04,406.9h-2.1v-19.8c0-.3-.1-.6-.3-.7l-15.7-15.4c-.2-.2-.5-.3-.8-.3h-27c-3.4,0-6.2,2.9-6.2,6.4v29.8h-2.1c-.6,0-1.1.4-1.1,1v17.7c0,.6.5,1,1.1,1h2.1v3.7c0,3.5,2.8,6.4,6.2,6.4h37.6c3.4,0,6.2-2.9,6.2-6.4v-3.7h2.1c.6,0,1.1-.4,1.1-1v-17.7c-.1-.6-.6-1-1.1-1h0ZM1825.14,374.1l12.2,11.9h-9.8c-.6,0-1.3-.3-1.7-.7-.4-.5-.7-1.1-.7-1.7v-9.5ZM1793.04,377c0-2.4,1.9-4.3,4.1-4.3h25.9v10.9c0,1.2.5,2.4,1.3,3.2.8.9,2,1.3,3.2,1.4h11.3v18.7h-45.8v-29.9ZM1838.84,430.2c0,2.4-1.9,4.3-4.1,4.3h-37.6c-2.2,0-4.1-1.9-4.1-4.3v-3.7h45.8v3.7h0ZM1841.94,424.4h-52.1v-15.4h52.1v15.4Z"/>
  <text class="cls-4" transform="translate(1798.22 422.85)"><tspan x="0" y="0">HTM</tspan><tspan class="cls-14" x="34.66" y="0">L</tspan></text>
  <path class="cls-11" d="M1800.74,400.1v7.2c0,.6-.6,1.2-1.2,1.2h-4c-.7,0-1.2-.5-1.2-1.2v-7.2c0-.6.6-1.2,1.2-1.2h4c.7.1,1.2.6,1.2,1.2Z"/>
  <path class="cls-11" d="M1795.44,394.7c0-.8.7-1.5,1.6-1.5.3,0,.5.1.8.2l5.6-5.8c-.2-.2-.3-.5-.3-.8,0-.8.7-1.5,1.6-1.5s1.6.7,1.6,1.5v.4l5.3,2.6c.3-.3.7-.5,1.2-.5.3,0,.6.1.8.2l6.2-6c-.2-.2-.2-.5-.2-.8,0-.8.7-1.5,1.6-1.5s1.6.7,1.6,1.5-.7,1.5-1.6,1.5c-.3,0-.6-.1-.8-.2l-6.2,6c.2.2.2.5.2.8,0,.8-.7,1.5-1.6,1.5s-1.6-.7-1.6-1.5c0-.1,0-.2.1-.4l-5.3-2.6c-.3.3-.7.5-1.2.5-.3,0-.5-.1-.8-.2l-5.6,5.8c.2.2.3.5.3.8,0,.8-.7,1.5-1.6,1.5-1,0-1.7-.7-1.7-1.5Z"/>
  <path class="cls-11" d="M1808.44,393.4v13.4c0,.7-.5,1.3-1.2,1.3h-3.7c-.6,0-1.2-.6-1.2-1.3v-13.4c0-.7.5-1.3,1.2-1.3h3.7c.7,0,1.2.6,1.2,1.3Z"/>
  <path class="cls-11" d="M1816.64,396.9v10.4c0,.6-.5,1.2-1.2,1.2h-4c-.7,0-1.2-.5-1.2-1.2v-10.4c0-.6.6-1.2,1.2-1.2h4c.7,0,1.2.6,1.2,1.2Z"/>
  <path class="cls-11" d="M1824.44,392.1v15c0,.6-.5,1-1.2,1h-3.7c-.6,0-1.2-.5-1.2-1v-15c0-.6.5-1,1.2-1h3.7c.7,0,1.2.5,1.2,1Z"/>
  <text class="cls-6" transform="translate(389.88 113.19)"><tspan x="0" y="0">Gene by cell count </tspan></text>
  <text class="cls-6" transform="translate(439.98 134.19)"><tspan x="0" y="0">matrix </tspan></text>
  <path class="cls-11" d="M496.44,42.8h-2.4v-23.3c0-.3-.1-.7-.4-.9L475.14.4c-.2-.2-.5-.4-.9-.4h-31.8c-4,0-7.3,3.4-7.3,7.6v35.2h-2.4c-.7,0-1.3.5-1.3,1.2v20.8c0,.7.6,1.2,1.3,1.2h2.4v4.3c0,4.2,3.3,7.6,7.3,7.6h44.3c4,0,7.3-3.4,7.3-7.6v-4.3h2.4c.7,0,1.3-.5,1.3-1.2v-20.8c-.1-.7-.7-1.2-1.3-1.2h0ZM475.34,4.2l14.4,14.1h-11.6c-.8,0-1.5-.3-2-.9-.5-.5-.8-1.3-.8-2V4.2ZM437.54,7.6c0-2.8,2.2-5.1,4.8-5.1h30.5v12.8c0,1.4.5,2.8,1.5,3.8s2.4,1.6,3.8,1.6h13.4v22.1h-54V7.6h0ZM491.54,70.3c0,2.8-2.2,5.1-4.8,5.1h-44.3c-2.6,0-4.8-2.3-4.8-5.1v-4.3h54v4.3h-.1ZM495.24,63.5h-61.4v-18.2h61.4v18.2Z"/>
  <text class="cls-4" transform="translate(448.48 61.1)"><tspan x="0" y="0">MTX</tspan></text>
  <path class="cls-11" d="M469.14,12.4h-26.4c-1,0-1.7.8-1.7,1.7v28c0,1,.8,1.7,1.7,1.7h26.4c1,0,1.7-.8,1.7-1.7V14.2c.1-1-.7-1.8-1.7-1.8h0ZM469.94,21.8h-6.2v-3.2h6.2v3.2ZM469.94,26h-6.2v-3.2h6.2v3.2ZM469.94,30.2h-6.2v-3.2h6.2v3.2ZM469.94,34.5h-6.2v-3.2h6.2v3.2ZM442.04,31.2h6.2v3.2h-6.2v-3.2ZM442.04,27h6.2v3.2h-6.2v-3.2ZM442.04,22.8h6.2v3.2h-6.2v-3.2ZM449.24,27h6.2v3.2h-6.2v-3.2ZM456.44,27h6.2v3.2h-6.2v-3.2ZM462.64,26h-6.2v-3.2h6.2v3.2ZM455.44,26h-6.2v-3.2h6.2v3.2ZM449.24,31.2h6.2v3.2h-6.2v-3.2ZM456.44,31.2h6.2v3.2h-6.2v-3.2ZM462.64,21.8h-6.2v-3.2h6.2v3.2ZM455.44,21.8h-6.2v-3.2h6.2v3.2ZM448.24,21.8h-6.2v-3.2h6.2v3.2ZM442.04,35.4h6.2v3.2h-6.2v-3.2ZM449.24,35.4h6.2v3.2h-6.2v-3.2ZM456.44,35.4h6.2v3.2h-6.2v-3.2ZM463.64,35.4h6.2v3.2h-6.2v-3.2ZM469.94,14.2v3.3h-6.2v-4.1h5.5c.3,0,.7.4.7.8h0ZM462.64,17.6h-6.2v-4.1h6.2v4.1ZM455.44,17.6h-6.2v-4.1h6.2v4.1ZM442.04,14.2c0-.4.3-.7.7-.7h5.5v4.1h-6.2v-3.4ZM442.04,42.2v-2.5h6.2v3.2h-5.5c-.4,0-.7-.3-.7-.7h0ZM449.24,39.7h6.2v3.2h-6.2v-3.2ZM456.44,39.7h6.2v3.2h-6.2v-3.2ZM469.94,42.2c0,.4-.3.7-.7.7h-5.5v-3.2h6.2v2.5Z"/>
  <path class="cls-11" d="M451.34,16h2c.3,0,.5-.2.5-.5s-.2-.5-.5-.5h-2c-.3,0-.5.2-.5.5s.2.5.5.5Z"/>
  <path class="cls-11" d="M458.54,16h2c.3,0,.5-.2.5-.5s-.2-.5-.5-.5h-2c-.3,0-.5.2-.5.5s.2.5.5.5Z"/>
  <path class="cls-11" d="M465.84,16h2c.3,0,.5-.2.5-.5s-.2-.5-.5-.5h-2c-.3,0-.5.2-.5.5s.2.5.5.5Z"/>
  <path class="cls-11" d="M435.64,105.7c-.1-.1-.4,0-.5.1l-.1.1v.2c0,.1,0,.2.1.3l.1.1q.1.1.2.1t.2-.1.1-.1c.1-.1.1-.2.1-.3s0-.2-.1-.3c.1,0,0-.1-.1-.1Z"/>
  <path class="cls-11" d="M437.84,105.7c-.2-.1-.4,0-.5.1l-.1.1v.2c0,.1,0,.2.1.3s.2.1.3.1c0,0,.1,0,.2-.1,0,0,.1,0,.1-.1.1-.1.1-.2.1-.3s0-.2-.1-.3c0,.1-.1,0-.1,0Z"/>
  <g>
    <g class="cls-7">
      <text class="cls-6" transform="translate(142.14 282.2)"><tspan x="0" y="0">Input </tspan></text>
      <text class="cls-6" transform="translate(113.14 303.8)"><tspan x="0" y="0">RN</tspan><tspan class="cls-16" x="26" y="0">A</tspan><tspan x="37.01" y="0"> </tspan><tspan class="cls-16" x="42.01" y="0">F</tspan><tspan x="52.01" y="0">ASTQ</tspan></text>
    </g>
    <path class="cls-11" d="M196.54,225.5h-2.4v-23.3c0-.3-.1-.7-.4-.9l-18.5-18.2c-.2-.2-.5-.4-.9-.4h-31.8c-4,0-7.3,3.4-7.3,7.6v35.2h-2.4c-.7,0-1.3.5-1.3,1.2v20.8c0,.7.6,1.2,1.3,1.2h2.4v4.3c0,4.2,3.3,7.6,7.3,7.6h44.3c4,0,7.3-3.4,7.3-7.6v-4.3h2.4c.7,0,1.3-.5,1.3-1.2v-20.8c0-.8-.6-1.2-1.3-1.2h0ZM175.44,186.9l14.4,14.1h-11.6c-.8,0-1.5-.3-2-.9-.5-.5-.8-1.3-.8-2v-11.2h0ZM137.64,190.3c0-2.8,2.2-5.1,4.8-5.1h30.5v12.8c0,1.4.5,2.8,1.5,3.8s2.4,1.6,3.8,1.6h13.4v22.1h-54v-35.2ZM191.64,252.9c0,2.8-2.2,5.1-4.8,5.1h-44.3c-2.6,0-4.8-2.3-4.8-5.1v-4.3h54v4.3h-.1ZM195.34,246.1h-61.4v-18.2h61.4v18.2Z"/>
    <text class="cls-4" transform="translate(140.63 242.75)"><tspan class="cls-16" x="0" y="0">F</tspan><tspan x="8.89" y="0">ASTQ</tspan></text>
  </g>
  <g>
    <text class="cls-6" transform="translate(112.13 119.69)"><tspan x="0" y="0">Library Pools</tspan></text>
    <g>
      <path class="cls-11" d="M197.54,51.3h-2.4v-23.3c0-.3-.1-.7-.4-.9l-18.5-18.2c-.2-.2-.5-.4-.9-.4h-31.9c-4,0-7.3,3.4-7.3,7.6v35.2h-2.4c-.7,0-1.3.5-1.3,1.2v20.8c0,.7.6,1.2,1.3,1.2h2.4v4.3c0,4.2,3.3,7.6,7.3,7.6h44.3c4,0,7.3-3.4,7.3-7.6v-4.3h2.4c.7,0,1.3-.5,1.3-1.2v-20.8c.1-.7-.5-1.2-1.2-1.2h0ZM176.44,12.7l14.4,14.1h-11.6c-.8,0-1.5-.3-2-.9-.5-.5-.8-1.3-.8-2v-11.2h0ZM138.64,16.1c0-2.8,2.2-5.1,4.8-5.1h30.5v12.8c0,1.4.5,2.8,1.5,3.8s2.4,1.6,3.8,1.6h13.4v22.1h-54V16.1ZM192.64,78.8c0,2.8-2.2,5.1-4.8,5.1h-44.4c-2.6,0-4.8-2.3-4.8-5.1v-4.3h54v4.3ZM196.34,72h-61.4v-18.2h61.4v18.2Z"/>
      <text class="cls-4" transform="translate(151.22 68.61)"><tspan x="0" y="0">TSV</tspan></text>
    </g>
  </g>
  <g>
    <text class="cls-6" transform="translate(93.64 506.75)"><tspan x="0" y="0">Bulk-RN</tspan><tspan class="cls-16" x="67.01" y="0">A</tspan><tspan x="78.02" y="0"> </tspan><tspan class="cls-16" x="83.02" y="0">F</tspan><tspan x="93.02" y="0">ASTQ</tspan></text>
    <path class="cls-11" d="M197.04,439.4h-2.4v-23.3c0-.3-.1-.7-.4-.9l-18.5-18.2c-.2-.2-.5-.4-.9-.4h-31.8c-4,0-7.3,3.4-7.3,7.6v35.2h-2.4c-.7,0-1.3.5-1.3,1.2v20.8c0,.7.6,1.2,1.3,1.2h2.4v4.3c0,4.2,3.3,7.6,7.3,7.6h44.3c4,0,7.3-3.4,7.3-7.6v-4.3h2.4c.7,0,1.3-.5,1.3-1.2v-20.8c0-.8-.6-1.2-1.3-1.2h0ZM175.94,400.8l14.4,14.1h-11.6c-.8,0-1.5-.3-2-.9-.5-.5-.8-1.3-.8-2v-11.2h0ZM138.14,404.2c0-2.8,2.2-5.1,4.8-5.1h30.5v12.8c0,1.4.5,2.8,1.5,3.8s2.4,1.6,3.8,1.6h13.4v22.1h-54v-35.2ZM192.14,466.8c0,2.8-2.2,5.1-4.8,5.1h-44.3c-2.6,0-4.8-2.3-4.8-5.1v-4.3h54v4.3h-.1ZM195.84,460h-61.4v-18.2h61.4v18.2Z"/>
    <text class="cls-4" transform="translate(141.12 456.66)"><tspan class="cls-16" x="0" y="0">F</tspan><tspan x="8.89" y="0">ASTQ</tspan></text>
  </g>
  <text class="cls-6" transform="translate(973.89 202.84)"><tspan x="0" y="0">Filter empty </tspan></text>
  <text class="cls-6" transform="translate(988.89 223.84)"><tspan x="0" y="0">droplets</tspan></text>
  <path class="cls-11" d="M1045.74,122.7h-4.3v-4.3h-2.2v4.3h-36.7v-4.3h-2.2v4.3h-4.3c-.9,0-1.7.3-2.3.9-.6.6-.9,1.4-.9,2.3v2.2c0,.8.3,1.5.8,2.1s1.2,1,2,1.1l19.9,20.9v14.6c0,.4.2.7.5.9s.7.2,1.1,0l8.6-4.3c.2-.1.3-.2.4-.4s.2-.4.2-.6v-10.3l19.9-20.9c.8-.1,1.4-.5,1.9-1.1s.8-1.3.8-2.1v-2.2c0-.9-.3-1.7-1-2.3-.5-.4-1.3-.8-2.2-.8h0ZM1046.84,128.1c0,.3-.1.6-.3.8-.2.2-.5.3-.8.3h-4.3v2.2h1.8l-18.8,19.7c-.2.2-.3.5-.3.7v10.1l-6.5,3.2v-13.3c0-.3-.1-.5-.3-.7l-18.8-19.7h40.6v-2.2h-43.1c-.3,0-.6-.1-.8-.3s-.3-.5-.3-.8v-2.2c0-.3.1-.6.3-.8s.5-.3.8-.3h49.6c.3,0,.6.1.8.3.2.2.3.5.3.8v2.2h.1Z"/>
  <path class="cls-11" d="M1020.94,120.6c1.7,0,3.4-.7,4.6-1.9s1.9-2.9,1.9-4.6-.7-3.4-1.9-4.6c-1.2-1.2-2.8-1.9-4.6-1.9s-3.4.7-4.6,1.9c-1.2,1.2-1.9,2.9-1.9,4.6s.7,3.4,1.9,4.6c1.2,1.2,2.9,1.9,4.6,1.9ZM1020.94,109.8c1.1,0,2.2.5,3.1,1.3.8.8,1.3,1.9,1.3,3s-.5,2.2-1.3,3-1.9,1.3-3.1,1.3-2.2-.5-3.1-1.3c-.8-.8-1.3-1.9-1.3-3s.5-2.2,1.3-3c.9-.9,2-1.3,3.1-1.3Z"/>
  <path class="cls-11" d="M1010.14,111.9h2.2v8.6h-2.2v-8.6Z"/>
  <path class="cls-11" d="M1029.54,111.9h2.2v8.6h-2.2v-8.6Z"/>
  <path class="cls-11" d="M1029.54,103.3h2.2v4.3h-2.2v-4.3Z"/>
  <path class="cls-11" d="M1010.14,103.3h2.2v4.3h-2.2v-4.3Z"/>
  <path class="cls-11" d="M1040.44,115c1.7,0,3.4-.7,4.6-1.9s1.9-2.9,1.9-4.6-.7-3.4-1.9-4.6c-1.2-1.2-2.9-1.9-4.6-1.9s-3.4.7-4.6,1.9-1.9,2.9-1.9,4.6.7,3.4,1.9,4.6c1.3,1.2,2.9,1.9,4.6,1.9Z"/>
  <path class="cls-11" d="M1000.34,116c1.7,0,3.4-.7,4.6-1.9,1.2-1.2,1.9-2.9,1.9-4.6s-.7-3.4-1.9-4.6c-1.2-1.2-2.9-1.9-4.6-1.9s-3.4.7-4.6,1.9c-1.2,1.2-1.9,2.9-1.9,4.6s.7,3.4,1.9,4.6c1.3,1.2,2.9,1.9,4.6,1.9ZM1000.34,105.2c1.1,0,2.2.5,3,1.3s1.3,1.9,1.3,3-.5,2.2-1.3,3-1.9,1.3-3,1.3-2.2-.5-3-1.3-1.3-1.9-1.3-3,.5-2.2,1.3-3c.8-.9,1.9-1.3,3-1.3Z"/>
  <path class="cls-11" d="M1000.34,101.1c1.7,0,3.4-.7,4.6-1.9,1.2-1.2,1.9-2.9,1.9-4.6s-.7-3.4-1.9-4.6c-1.2-1.2-2.9-1.9-4.6-1.9s-3.4.7-4.6,1.9c-1.2,1.2-1.9,2.9-1.9,4.6s.7,3.4,1.9,4.6c1.3,1.2,2.9,1.9,4.6,1.9Z"/>
  <path class="cls-11" d="M1040.44,99.2c1.7,0,3.4-.7,4.6-1.9s1.9-2.9,1.9-4.6-.7-3.4-1.9-4.6c-1.2-1.2-2.9-1.9-4.6-1.9s-3.4.7-4.6,1.9-1.9,2.9-1.9,4.6.7,3.4,1.9,4.6c1.3,1.2,2.9,1.9,4.6,1.9ZM1040.44,88.4c1.2,0,2.2.5,3,1.3s1.3,1.9,1.3,3-.5,2.2-1.3,3-1.9,1.3-3,1.3-2.2-.5-3.1-1.3c-.8-.8-1.3-1.9-1.3-3s.5-2.2,1.3-3c.9-.8,2-1.3,3.1-1.3Z"/>
  <path class="cls-11" d="M1020.84,88c1.7,0,3.4-.7,4.6-1.9s1.9-2.9,1.9-4.6-.7-3.4-1.9-4.6c-1.2-1.2-2.9-1.9-4.6-1.9s-3.4.7-4.6,1.9c-1.2,1.2-1.9,2.9-1.9,4.6s.7,3.4,1.9,4.6c1.3,1.2,2.9,1.9,4.6,1.9ZM1020.84,77.3c1.2,0,2.2.5,3.1,1.3.8.8,1.3,1.9,1.3,3s-.4,2.2-1.3,3c-.8.8-1.9,1.3-3.1,1.3-1.1,0-2.2-.5-3-1.3s-1.3-1.9-1.3-3,.4-2.2,1.3-3c.8-.9,1.9-1.3,3-1.3Z"/>
  <path class="cls-11" d="M1020.84,103.9c1.7,0,3.4-.7,4.6-1.9s1.9-2.9,1.9-4.6-.7-3.4-1.9-4.6c-1.2-1.2-2.9-1.9-4.6-1.9s-3.4.7-4.6,1.9c-1.2,1.2-1.9,2.9-1.9,4.6s.7,3.4,1.9,4.6c1.3,1.2,2.9,1.9,4.6,1.9Z"/>
  <path class="cls-11" d="M393.44,137.8l-7.7-5.8v11.6l7.7-5.8ZM262.44,52.1h.8v-1h-.8v1ZM262.44,218.8v1h.8v-1h-.8ZM262.44,138.8h124.1v-2h-124.1v2ZM263.24,137.8V52.1h-1.5v85.6h1.5v.1ZM262.44,51.1h-61.7v2h61.7v-2ZM261.64,137.8v81.1h1.5v-81.1h-1.5ZM262.44,217.8h-61.7v2h61.7v-2Z"/>
  <path class="cls-11" d="M694.44,135.1l-10-5.8v11.5l10-5.7ZM530.44,136.1h155v-2h-155v2Z"/>
  <path class="cls-11" d="M967.44,135.6l-10-5.8v11.5l10-5.7ZM818.44,136.1l140,.5v-2l-140-.5v2Z"/>
  <path class="cls-11" d="M1228.44,136.1l-10-5.8v11.5l10-5.7ZM1074.44,137.1h145v-2h-145v2Z"/>
  <path class="cls-11" d="M1486.44,135.1l-10-5.8v11.5l10-5.7ZM1349.44,136.1h128v-2h-128v2Z"/>
  <path class="cls-11" d="M1803.44,129.1l-10-5.8v11.5l10-5.7ZM1666.44,130.1h128v-2h-128v2Z"/>
  <text class="cls-5" transform="translate(301.57 118.44)"><tspan x="0" y="0">alevin-fry</tspan></text>
  <text class="cls-6" transform="translate(261.39 116.84)"><tspan x="0" y="0"> </tspan></text>
  <text class="cls-5" transform="translate(1295.49 224.84)"><tspan x="0" y="0">miQC</tspan></text>
  <text class="cls-6" transform="translate(1195.84 203.84)"><tspan x="0" y="0">Remove low quality </tspan></text>
  <text class="cls-6" transform="translate(1206.37 224.84)"><tspan x="0" y="0">cells using </tspan></text>
  <path class="cls-12" d="M1261.74,105.2h-9.9c-1.2,0-2.3.5-3.1,1.3-.8.8-1.3,1.9-1.3,3.1,0,9.1,3.2,37.1,3.2,46.7,0,3.1,2.7,5.7,6,5.7h29.1c3.4,0,6-2.6,6-5.7,0-8.1,2.3-29.5,3-41.4l11.5,42.7c.3,1.1,1,2.1,2,2.6,1,.6,2.2.7,3.3.4h0c1.1-.3,2.1-1,2.6-2,.6-1,.7-2.2.4-3.3l-3.6-13.6q.1,0,.2-.1h0c3.2-.9,5.1-4.2,4.3-7.4l-3.1-11.6c-.9-3.2-4.2-5.1-7.4-4.3l-.2.1-3.7-13.6c-.3-1.1-1-2.1-2-2.6-1-.6-2.2-.7-3.3-.4h0c-1.1.3-2.1,1-2.6,2-.3.6-.5,1.2-.6,1.9-.6-.3-1.3-.5-2-.5h-27.3c-1.8,0-1.5,0-1.5,0ZM1292.54,109.6c0,9.1-3.2,37.1-3.2,46.7,0,1.8-1.6,3.3-3.6,3.3h-29.1c-2,0-3.6-1.4-3.6-3.3,0-9.6-3.2-37.6-3.2-46.7,0-.5.2-1,.6-1.4s.9-.6,1.4-.6h38.7c.5,0,1,.2,1.4.6s.6.9.6,1.4ZM1298.74,105.5l13.5,50.6c.1.5.1,1-.2,1.4-.2.4-.7.8-1.2.9h0c-.5.1-1,.1-1.4-.2s-.8-.7-.9-1.2l-13.6-50.6c-.1-.5-.1-1,.2-1.4.2-.4.7-.8,1.2-.9h0c.5-.1,1-.1,1.5.2.4.3.8.7.9,1.2ZM1310.34,139.4l-5-18.6q.1,0,.2-.1c1.9-.5,3.9.6,4.4,2.5l3.1,11.6c.5,1.9-.6,3.9-2.5,4.4l-.2.2Z"/>
  <path class="cls-12" d="M1281.94,91.5c.3-.6.1-1.3-.5-1.7l-5-2.9c-.6-.3-1.3-.1-1.7.4l-2.9,5c-.3.6-.1,1.3.5,1.7l5,2.9c.6.3,1.3.1,1.7-.4l2.9-5ZM1279.24,91.3l-1.6,2.9-2.9-1.6,1.6-2.9,2.9,1.6Z"/>
  <path class="cls-12" d="M1272.84,99.4c.2-.6-.1-1.2-.7-1.4l-4.8-1.7c-.6-.2-1.2.1-1.4.7l-1.7,4.8c-.2.6.1,1.2.7,1.4l4.8,1.7c.6.2,1.2-.1,1.4-.7l1.7-4.8ZM1270.44,99.7l-1,2.8-2.8-1,1-2.8,2.8,1Z"/>
  <path class="cls-12" d="M1274.34,82.1c.5-.5.5-1.3,0-1.7l-5-5c-.5-.5-1.2-.5-1.7,0l-5,5c-.5.5-.5,1.3,0,1.7l5,5c.5.5,1.3.5,1.7,0l5-5ZM1271.74,81.3l-3.2,3.2-3.2-3.2,3.2-3.2,3.2,3.2Z"/>
  <path class="cls-11" d="M1271.84,122.5c-7.2,0-13.1,5.9-13.1,13.1s5.9,13.1,13.1,13.1,13.1-5.9,13.1-13.1-5.8-13.1-13.1-13.1ZM1271.84,146.1c-5.8,0-10.5-4.7-10.5-10.5s4.7-10.5,10.5-10.5,10.5,4.7,10.5,10.5-4.7,10.5-10.5,10.5Z"/>
  <path class="cls-11" d="M1275.44,132c-.5-.5-1.3-.5-1.9,0l-1.7,1.7-1.7-1.7c-.5-.5-1.3-.5-1.8,0s-.5,1.3,0,1.9l1.7,1.7-1.7,1.7c-.5.5-.5,1.3,0,1.9.5.5,1.3.5,1.8,0l1.7-1.7,1.7,1.7c.5.5,1.3.5,1.9,0,.5-.5.5-1.3,0-1.9l-1.7-1.7,1.7-1.7c.5-.5.5-1.3,0-1.9Z"/>
  <text class="cls-6" transform="translate(1452.94 202.84)"><tspan x="0" y="0">RN</tspan><tspan class="cls-16" x="26" y="0">A</tspan><tspan x="37.01" y="0" xml:space="preserve"> and</tspan><tspan class="cls-16" x="72.04" y="0"> </tspan><tspan x="76.05" y="0">AD</tspan><tspan class="cls-1" x="101.06" y="0">T</tspan><tspan x="111.73" y="0" xml:space="preserve"> normalization and </tspan></text>
  <text class="cls-6" transform="translate(1446.76 223.84)"><tspan x="0" y="0">dimensionality reduction with PC</tspan><tspan class="cls-16" x="260.12" y="0">A</tspan><tspan x="271.13" y="0"> </tspan></text>
  <text class="cls-6" transform="translate(1538.9 244.84)"><tspan x="0" y="0">and UMA</tspan><tspan class="cls-1" x="75.03" y="0">P</tspan></text>
  <path class="cls-11" d="M1663.84,161.1c-22.5,0-39.6-5.8-52.3-17.8-10.8-10.2-16.5-23.1-21.1-33.4-4.9-11.1-8.5-19.2-15.6-19.2s-11.5,8.6-17,19.5c-5.2,10.3-11.7,23.2-23,33.3-13.3,11.9-30.4,17.7-52.3,17.7v-2.6c47.9,0,62.4-28.6,72.9-49.5,5.9-11.7,10.6-20.9,19.5-20.9s12.9,9.2,18,20.8c9.2,21,21.9,49.6,70.9,49.6v2.5h0Z"/>
  <path class="cls-11" d="M1482.44,161.9h181.5v1.5h-181.5v-1.5Z"/>
  <path class="cls-11" d="M1609.84,152.3v-8.2h-6.4v-7.1h-6.4v-11.6h-6.4v-11.9h-6.4v-10.8h-6.4v-5.7h-7.9v5.7h-6.6v10.8h-6.4v12h-6.4v11.6h-6.4v7.1h-6.4v8.2h-6.4v8.7h84.6v-8.7h-6.1v-.1ZM1538.04,159.5h-4.8v-5.6h4.8v5.6ZM1539.64,159.5v-13.8h4.8v13.8h-4.8ZM1545.94,159.5v-20.9h4.8v20.9h-4.8ZM1557.14,159.5h-4.8v-32.6h4.8v32.6ZM1558.64,159.5v-44.5h4.8v44.5h-4.8ZM1569.84,159.5h-4.8v-55.3h4.8v55.3ZM1571.64,159.5v-60.9h4.8v60.9h-4.8ZM1578.04,159.5v-55.3h4.8v55.3h-4.8ZM1589.24,159.5h-4.8v-44.5h4.8v44.5ZM1590.74,159.5v-32.6h4.8v32.6h-4.8ZM1597.14,159.5v-20.9h4.8v20.9h-4.8ZM1608.24,159.5h-4.8v-13.8h4.8v13.8ZM1614.64,159.5h-4.8v-5.6h4.8v5.6Z"/>
  <path class="cls-11" d="M766.44,296.6h-1v1h1v-1ZM1046.94,296.6h1v-1h-1v1ZM1046.94,349.6l5.8-10h-11.5l5.7,10ZM765.44,250.6v46h2v-46h-2ZM766.44,297.6h280.5v-2h-280.5v2ZM1045.94,296.6v44h2v-44h-2Z"/>
  <path class="cls-11" d="M1017.94,278.6h-1v1h1v-1ZM1196.44,278.6h1v-1h-1v1ZM1196.44,348.1l5.8-10h-11.5l5.7,10ZM1016.94,248.1v30.5h2v-30.5h-2ZM1017.94,279.6h178.5v-2h-178.5v2ZM1195.44,278.6v60.5h2v-60.5h-2Z"/>
  <path class="cls-11" d="M1342.44,298.6v-1h-1v1h1ZM1342.44,347.1l5.8-10h-11.5l5.7,10ZM1654.94,298.6h1v-1h-1v1ZM1654.94,347.1l5.8-10h-11.5l5.7,10ZM1568.94,267.1v31.5h2v-31.5h-2ZM1341.44,298.6v39.5h2v-39.5h-2ZM1569.94,297.6h-66v2h66v-2ZM1503.94,297.6h-161.5v2h161.5v-2ZM1569.94,299.6h85v-2h-85v2ZM1653.94,298.6v39.5h2v-39.5h-2Z"/>
  <path class="cls-11" d="M1814.94,348.1l5.8-10h-11.5l5.7,10ZM1814.94,280.6v-1h-1v1h1ZM1865.44,280.6v1h1v-1h-1ZM1813.94,280.6v58.5h2v-58.5h-2ZM1864.44,238.6v42h2v-42h-2ZM1865.44,279.6h-50.5v2h50.5v-2Z"/>
  <path class="cls-11" d="M412.84,360.4c1.7,0,3.4-.7,4.6-1.9,1.2-1.2,1.9-2.9,1.9-4.6s-.7-3.4-1.9-4.6c-1.2-1.2-2.9-1.9-4.6-1.9s-3.4.7-4.6,1.9c-1.2,1.2-1.9,2.9-1.9,4.6s.7,3.4,1.9,4.6c1.2,1.2,2.9,1.9,4.6,1.9Z"/>
  <path class="cls-15" d="M412.84,381.4c1.7,0,3.4-.7,4.6-1.9,1.2-1.2,1.9-2.9,1.9-4.6s-.7-3.4-1.9-4.6c-1.2-1.2-2.9-1.9-4.6-1.9s-3.4.7-4.6,1.9c-1.2,1.2-1.9,2.9-1.9,4.6s.7,3.4,1.9,4.6c1.2,1.2,2.9,1.9,4.6,1.9Z"/>
  <path class="cls-15" d="M517.84,361.4c1.7,0,3.4-.7,4.6-1.9,1.2-1.2,1.9-2.9,1.9-4.6s-.7-3.4-1.9-4.6-2.9-1.9-4.6-1.9-3.4.7-4.6,1.9c-1.2,1.2-1.9,2.9-1.9,4.6s.7,3.4,1.9,4.6c1.2,1.2,2.9,1.9,4.6,1.9Z"/>
  <path class="cls-15" d="M499.84,361.4c1.7,0,3.4-.7,4.6-1.9,1.2-1.2,1.9-2.9,1.9-4.6s-.7-3.4-1.9-4.6-2.9-1.9-4.6-1.9-3.4.7-4.6,1.9c-1.2,1.2-1.9,2.9-1.9,4.6s.7,3.4,1.9,4.6c1.2,1.2,2.9,1.9,4.6,1.9Z"/>
  <path class="cls-11" d="M427.84,373.4c1.7,0,3.4-.7,4.6-1.9,1.2-1.2,1.9-2.9,1.9-4.6s-.7-3.4-1.9-4.6c-1.2-1.2-2.9-1.9-4.6-1.9s-3.4.7-4.6,1.9c-1.2,1.2-1.9,2.9-1.9,4.6s.7,3.4,1.9,4.6c1.2,1.2,2.9,1.9,4.6,1.9Z"/>
  <path class="cls-15" d="M431.84,351.4c1.7,0,3.4-.7,4.6-1.9,1.2-1.2,1.9-2.9,1.9-4.6s-.7-3.4-1.9-4.6c-1.2-1.2-2.9-1.9-4.6-1.9s-3.4.7-4.6,1.9c-1.2,1.2-1.9,2.9-1.9,4.6s.7,3.4,1.9,4.6c1.2,1.2,2.9,1.9,4.6,1.9Z"/>
  <path class="cls-15" d="M481.84,361.4c1.7,0,3.4-.7,4.6-1.9,1.2-1.2,1.9-2.9,1.9-4.6s-.7-3.4-1.9-4.6c-1.2-1.2-2.9-1.9-4.6-1.9s-3.4.7-4.6,1.9c-1.2,1.2-1.9,2.9-1.9,4.6s.7,3.4,1.9,4.6c1.2,1.2,2.9,1.9,4.6,1.9Z"/>
  <path class="cls-11" d="M444.84,364.4c1.7,0,3.4-.7,4.6-1.9,1.2-1.2,1.9-2.9,1.9-4.6s-.7-3.4-1.9-4.6c-1.2-1.2-2.9-1.9-4.6-1.9s-3.4.7-4.6,1.9c-1.2,1.2-1.9,2.9-1.9,4.6s.7,3.4,1.9,4.6c1.2,1.2,2.9,1.9,4.6,1.9Z"/>
  <path class="cls-15" d="M440.84,387.4c1.7,0,3.4-.7,4.6-1.9,1.2-1.2,1.9-2.9,1.9-4.6s-.7-3.4-1.9-4.6c-1.2-1.2-2.9-1.9-4.6-1.9s-3.4.7-4.6,1.9c-1.2,1.2-1.9,2.9-1.9,4.6s.7,3.4,1.9,4.6c1.2,1.2,2.9,1.9,4.6,1.9Z"/>
  <path class="cls-11" d="M424.84,395.4c1.7,0,3.4-.7,4.6-1.9,1.2-1.2,1.9-2.9,1.9-4.6s-.7-3.4-1.9-4.6c-1.2-1.2-2.9-1.9-4.6-1.9s-3.4.7-4.6,1.9c-1.2,1.2-1.9,2.9-1.9,4.6s.7,3.4,1.9,4.6c1.2,1.2,2.9,1.9,4.6,1.9Z"/>
  <path class="cls-11" d="M481.84,387.4c1.7,0,3.4-.7,4.6-1.9,1.2-1.2,1.9-2.9,1.9-4.6s-.7-3.4-1.9-4.6c-1.2-1.2-2.9-1.9-4.6-1.9s-3.4.7-4.6,1.9c-1.2,1.2-1.9,2.9-1.9,4.6s.7,3.4,1.9,4.6c1.2,1.2,2.9,1.9,4.6,1.9Z"/>
  <path class="cls-11" d="M499.84,387.4c1.7,0,3.4-.7,4.6-1.9,1.2-1.2,1.9-2.9,1.9-4.6s-.7-3.4-1.9-4.6-2.9-1.9-4.6-1.9-3.4.7-4.6,1.9c-1.2,1.2-1.9,2.9-1.9,4.6s.7,3.4,1.9,4.6c1.2,1.2,2.9,1.9,4.6,1.9Z"/>
  <path class="cls-11" d="M517.84,387.4c1.7,0,3.4-.7,4.6-1.9,1.2-1.2,1.9-2.9,1.9-4.6s-.7-3.4-1.9-4.6-2.9-1.9-4.6-1.9-3.4.7-4.6,1.9c-1.2,1.2-1.9,2.9-1.9,4.6s.7,3.4,1.9,4.6c1.2,1.2,2.9,1.9,4.6,1.9Z"/>
  <path class="cls-11" d="M535.84,387.4c1.7,0,3.4-.7,4.6-1.9,1.2-1.2,1.9-2.9,1.9-4.6s-.7-3.4-1.9-4.6-2.9-1.9-4.6-1.9-3.4.7-4.6,1.9c-1.2,1.2-1.9,2.9-1.9,4.6s.7,3.4,1.9,4.6c1.2,1.2,2.9,1.9,4.6,1.9Z"/>
  <path class="cls-13" d="M449.34,325h28c1.9,0,3.5,1.6,3.5,3.5v77c0,1.9-1.6,3.5-3.5,3.5h-28c-1.9,0-3.5-1.6-3.5-3.5v-77c0-2,1.6-3.5,3.5-3.5Z"/>
  <text class="cls-3" transform="translate(459.26 338.41)"><tspan x="0" y="0">D</tspan></text>
  <text class="cls-3" transform="translate(459.26 354.41)"><tspan x="0" y="0">E</tspan></text>
  <text class="cls-3" transform="translate(459.26 370.41)"><tspan x="0" y="0">M</tspan></text>
  <text class="cls-3" transform="translate(459.26 386.41)"><tspan x="0" y="0">U</tspan></text>
  <text class="cls-3" transform="translate(459.26 402.41)"><tspan x="0" y="0">X</tspan></text>
  <text class="cls-6" transform="translate(406.78 438.22)"><tspan x="0" y="0">Demultiplexing</tspan></text>
  <text class="cls-6" transform="translate(1793.8 219.84)"><tspan x="0" y="0">Cell type annotation</tspan></text>
  <path class="cls-11" d="M1866.84,142c-.3-.5-.8-.7-1.3-.7h-12.4c-2.3,0-4.4,1.2-5.5,3l-4.8,7.9c-1.1,1.9-1.1,4.2,0,6.1l4.8,7.9c1.1,1.9,3.2,3,5.5,3h12.4c.6,0,1.1-.3,1.3-.7l7.8-12.4c.3-.5.3-1.1,0-1.5l-7.8-12.6ZM1864.54,166.1h-11.5c-1.2,0-2.2-.6-2.8-1.5l-4.8-7.9c-.6-.9-.6-2.1,0-3.1l4.8-7.9c.6-.9,1.7-1.5,2.8-1.5h11.5l6.9,10.9-6.9,11Z"/>
  <path class="cls-11" d="M1913.64,132.6l-9.8-15.6,3.2-6c.4-.7.1-1.6-.7-2-.8-.4-1.7-.1-2.1.6l-3.2,6-20.9,1-5.1-5.7c-.6-.6-1.6-.7-2.2-.2-.7.5-.7,1.5-.2,2.1l4.9,5.5-8.6,15.3c-.3.6-.5,1.2-.6,1.8-.6-.2-1.3-.3-2-.3h-18.9l-3.7-4.8c-.5-.7-1.5-.8-2.2-.3s-.8,1.4-.3,2.1l3.6,4.6-9.4,15.4c-1.1,1.9-1.1,4.2,0,6.1l9.3,15.4-3.6,4.6c-.5.7-.4,1.6.3,2.1.7.5,1.7.4,2.2-.3l3.7-4.8h20.7l2.7,4.6c.4.7,1.4,1,2.1.6.8-.4,1-1.3.6-2l-2.7-4.6,9.7-15.4c.4-.6.7-1.3.8-2,.7.2,1.4.3,2.2.3l18.8-.6,4.7,6.1c.5.7,1.5.8,2.2.3s.8-1.4.3-2.1l-4.6-5.9,8.8-15.8c1.2-2,1.1-4.3,0-6.1h0ZM1877.84,156.7l-9.7,15.5h-20.7l-9.4-15.5c-.6-.9-.6-2.1,0-3.1l9.4-15.5h18.8c1.1,0,2.2.6,2.8,1.5l8.8,14c.7,1,.7,2.2,0,3.1h0ZM1911.04,137.2l-8.9,15.8-18.7.6c-1.2,0-2.3-.5-2.9-1.5h0l-8.8-14h0c-.6-.9-.6-2.1-.1-3l8.6-15.5,20.8-.9,9.8,15.5c.7.9.7,2,.2,3h0Z"/>
  <path class="cls-11" d="M1901.34,124.9c-1.2-1.9-3.4-3-5.8-2.9l-9.6.4c-2.2.1-4.3,1.3-5.3,3.2l-4.4,7.9c-1,1.8-1,4.1.1,5.9l5,8.2c1.2,2,3.4,3.1,5.7,3l9.3-.3c2.3-.1,4.4-1.3,5.4-3.2l4.6-8.3c1-1.9.9-4.1-.2-5.9l-4.8-8ZM1903.74,137.4l-4.6,8.3c-.5,1-1.6,1.6-2.8,1.6l-9.3.3c-1.2,0-2.3-.5-2.9-1.5l-5-8.2c-.6-.9-.6-2.1-.1-3l4.4-7.9c.5-1,1.6-1.6,2.7-1.6l9.6-.4c1.2-.1,2.3.5,2.9,1.5l5,7.9c.6.9.6,2,.1,3h0Z"/>
  <path class="cls-11" d="M1891.34,127.9c-3.6,0-6.4,2-6.4,4.5s2.8,4.5,6.4,4.5,6.4-2,6.4-4.5c-.1-2.5-2.8-4.5-6.4-4.5ZM1891.34,134c-2,0-3.2-.9-3.2-1.6,0-.6,1.3-1.6,3.2-1.6s3.2.9,3.2,1.6-1.2,1.6-3.2,1.6Z"/>
  <path class="cls-11" d="M1857.34,147.9c-3.6,0-6.4,2-6.4,4.5s2.8,4.5,6.4,4.5,6.4-2,6.4-4.5c-.1-2.6-2.9-4.5-6.4-4.5ZM1857.34,153.9c-2,0-3.2-.9-3.2-1.6,0-.6,1.3-1.6,3.2-1.6s3.2.9,3.2,1.6-1.3,1.6-3.2,1.6Z"/>
  <path class="cls-11" d="M1863.04,161.4c0,.8-.7,1.5-1.6,1.5s-1.6-.7-1.6-1.5.7-1.5,1.6-1.5,1.6.7,1.6,1.5Z"/>
  <path class="cls-11" d="M1896.24,142.4c0,.8-.7,1.5-1.6,1.5s-1.6-.7-1.6-1.5.7-1.5,1.6-1.5,1.6.6,1.6,1.5Z"/>
  <path class="cls-9" d="M1912.44,99.1h-18v15"/>
  <path class="cls-9" d="M1914.44,178.1h-24v-18"/>
  <path class="cls-9" d="M1871.44,125.1h-23v-18"/>
  <path class="cls-10" d="M1915.44,92.1h34v11h-34v-11Z"/>
  <path class="cls-10" d="M1916.44,171.1h32v13h-32v-13Z"/>
  <path class="cls-10" d="M1832.44,92.1h27v11h-27v-11Z"/>
  <path class="cls-10" d="M1801.44,165.1h27v10h-27v-10Z"/>
  <path class="cls-9" d="M1836.44,147.1h-22v15"/>
  <path class="cls-11" d="M741.14,350.7v.8h1.3v-.8h-1.3ZM741.14,235.7l-7.5,7.8h15.1l-7.6-7.8ZM553.34,351.5h187.7v-1.6h-187.7v1.6ZM742.44,350.7v-107.9h-2.6v107.9h2.6Z"/>
  <text class="cls-2" transform="translate(798.83 443.53)"><tspan x="0" y="0">SCE Output Data</tspan></text>
  <g class="cls-7">
    <text class="cls-6" transform="translate(29 282.2)"><tspan x="0" y="0">Input </tspan></text>
    <text class="cls-6" transform="translate(0 303.8)"><tspan x="0" y="0">H</tspan><tspan class="cls-1" x="13" y="0">T</tspan><tspan x="23.67" y="0">O </tspan><tspan class="cls-16" x="42.67" y="0">F</tspan><tspan x="52.67" y="0">ASTQ</tspan></text>
  </g>
  <path class="cls-11" d="M83.44,224.2h-2.4v-23.3c0-.3-.1-.7-.4-.9l-18.5-18.2c-.2-.2-.5-.4-.9-.4h-31.9c-4,0-7.3,3.4-7.3,7.6v35.2h-2.4c-.7,0-1.3.5-1.3,1.2v20.7c0,.7.6,1.2,1.3,1.2h2.4v4.3c0,4.2,3.3,7.6,7.3,7.6h44.3c4,0,7.3-3.4,7.3-7.6v-4.3h2.5c.7,0,1.3-.5,1.3-1.2v-20.8c0-.7-.6-1.1-1.3-1.1h0ZM62.34,185.6l14.4,14.1h-11.6c-.8,0-1.5-.3-2-.9-.5-.5-.8-1.3-.8-2,0,0,0-11.2,0-11.2ZM24.54,189c0-2.8,2.2-5.1,4.8-5.1h30.5v12.8c0,1.4.5,2.8,1.5,3.8s2.4,1.6,3.8,1.6h13.4v22.1H24.54v-35.2ZM78.54,251.6c0,2.8-2.2,5.1-4.8,5.1H29.34c-2.6,0-4.8-2.3-4.8-5.1v-4.3h54s0,4.3,0,4.3ZM82.24,244.8H20.84v-18.2h61.4v18.2Z"/>
  <text class="cls-4" transform="translate(27.49 241.45)"><tspan class="cls-16" x="0" y="0">F</tspan><tspan x="8.89" y="0">ASTQ</tspan></text>
  <text class="cls-6" transform="translate(265.07 323.45)"><tspan x="0" y="0"> </tspan></text>
  <path class="cls-11" d="M394.64,348.1l-7.7-7.3v14.6l7.7-7.3ZM263.64,240.4h.8v-1.3h-.8v1.3ZM263.64,450v1.3h.8v-1.3h-.8ZM263.64,349.3h124.1v-2.5h-124.1v2.5ZM264.44,348.1v-107.7h-1.5v107.7h1.5ZM263.64,239.1h-61.7v2.5h61.7v-2.5ZM262.94,348.1v102h1.5v-102h-1.5ZM263.64,448.8h-61.7v2.5h61.7v-2.5Z"/>
  <text class="cls-6" transform="translate(391.97 261.56)"><tspan x="0" y="0">H</tspan><tspan class="cls-1" x="13" y="0">T</tspan><tspan x="23.67" y="0">O by cell count </tspan></text>
  <text class="cls-6" transform="translate(442.07 282.56)"><tspan x="0" y="0">matrix </tspan></text>
  <path class="cls-11" d="M498.44,191.2h-2.4v-23.3c0-.3-.1-.7-.4-.9l-18.5-18.2c-.2-.2-.5-.4-.9-.4h-31.8c-4,0-7.3,3.4-7.3,7.6v35.2h-2.4c-.7,0-1.3.5-1.3,1.2v20.8c0,.7.6,1.2,1.3,1.2h2.4v4.3c0,4.2,3.3,7.6,7.3,7.6h44.3c4,0,7.3-3.4,7.3-7.6v-4.3h2.4c.7,0,1.3-.5,1.3-1.2v-20.8c0-.7-.6-1.2-1.3-1.2h0ZM477.34,152.6l14.4,14.1h-11.6c-.8,0-1.5-.3-2-.9-.5-.5-.8-1.3-.8-2v-11.2ZM439.54,156c0-2.8,2.2-5.1,4.8-5.1h30.5v12.8c0,1.4.5,2.8,1.5,3.8s2.4,1.6,3.8,1.6h13.4v22.1h-54v-35.2h0ZM493.54,218.6c0,2.8-2.2,5.1-4.8,5.1h-44.3c-2.6,0-4.8-2.3-4.8-5.1v-4.3h54v4.3h-.1ZM497.34,211.9h-61.4v-18.2h61.4v18.2Z"/>
  <text class="cls-4" transform="translate(450.56 209.47)"><tspan x="0" y="0">MTX</tspan></text>
  <path class="cls-11" d="M471.24,160.8h-26.4c-1,0-1.7.8-1.7,1.7v28c0,1,.8,1.7,1.7,1.7h26.4c1,0,1.7-.8,1.7-1.7v-28c0-.9-.7-1.7-1.7-1.7h0ZM472.04,170.2h-6.2v-3.2h6.2v3.2ZM472.04,174.4h-6.2v-3.3h6.2v3.3ZM472.04,178.6h-6.2v-3.2h6.2v3.2ZM472.04,182.8h-6.2v-3.2h6.2v3.2ZM444.04,179.6h6.2v3.2h-6.2v-3.2ZM444.04,175.4h6.2v3.2h-6.2v-3.2ZM444.04,171.1h6.2v3.2h-6.2v-3.2ZM451.34,175.4h6.2v3.2h-6.2v-3.2ZM458.54,175.4h6.2v3.2h-6.2v-3.2ZM464.74,174.4h-6.2v-3.3h6.2v3.3ZM457.54,174.4h-6.2v-3.3h6.2v3.3ZM451.34,179.6h6.2v3.2h-6.2v-3.2ZM458.54,179.6h6.2v3.2h-6.2v-3.2ZM464.74,170.2h-6.2v-3.2h6.2v3.2ZM457.54,170.2h-6.2v-3.2h6.2v3.2ZM450.34,170.2h-6.2v-3.2h6.2v3.2ZM444.04,183.8h6.2v3.2h-6.2v-3.2ZM451.34,183.8h6.2v3.2h-6.2v-3.2ZM458.54,183.8h6.2v3.2h-6.2v-3.2ZM465.74,183.8h6.2v3.2h-6.2v-3.2ZM472.04,162.5v3.3h-6.2v-4.1h5.5c.3.1.7.4.7.8h0ZM464.74,165.9h-6.2v-4.1h6.2v4.1ZM457.54,165.9h-6.2v-4.1h6.2v4.1ZM444.04,162.5c0-.4.3-.7.7-.7h5.5v4.1h-6.2v-3.4ZM444.04,190.6v-2.5h6.2v3.2h-5.5c-.3,0-.7-.4-.7-.7h0ZM451.34,188h6.2v3.2h-6.2v-3.2ZM458.54,188h6.2v3.2h-6.2v-3.2ZM472.04,190.6c0,.4-.3.7-.7.7h-5.5v-3.2h6.2v2.5Z"/>
  <path class="cls-11" d="M453.44,164.4h2c.3,0,.5-.2.5-.5s-.2-.5-.5-.5h-2c-.3,0-.5.2-.5.5s.2.5.5.5Z"/>
  <path class="cls-11" d="M460.64,164.4h2c.3,0,.5-.2.5-.5s-.2-.5-.5-.5h-2c-.3,0-.5.2-.5.5s.2.5.5.5Z"/>
  <path class="cls-11" d="M467.84,164.4h2c.3,0,.5-.2.5-.5s-.2-.5-.5-.5h-2c-.3,0-.5.2-.5.5s.3.5.5.5Z"/>
</svg>