<?xml version="1.0" encoding="utf-8"?>
<!-- Generator: Adobe Illustrator 28.3.0, SVG Export Plug-In . SVG Version: 6.00 Build 0)  -->
<svg version="1.1" id="Layer_1" xmlns="http://www.w3.org/2000/svg" xmlns:xlink="http://www.w3.org/1999/xlink" x="0px" y="0px"
	 width="1952.9px" height="516.1px" viewBox="0 0 1952.9 516.1" style="enable-background:new 0 0 1952.9 516.1;"
	 xml:space="preserve">
<style type="text/css">
	.st0{enable-background:new    ;}
	.st1{font-family:'ArialMT';}
	.st2{font-size:18px;}
	.st3{fill:#266141;}
	.st4{font-size:16px;}
	.st5{fill:none;stroke:#266141;stroke-width:2;}
	.st6{font-family:'Arial-BoldMT';}
	.st7{font-size:20px;}
	.st8{letter-spacing:-1;}
	.st9{fill-rule:evenodd;clip-rule:evenodd;}
	.st10{fill:#8B8D8C;}
	.st11{fill:#FFFFFF;stroke:#000000;stroke-linejoin:round;}
	.st12{fill:#003595;}
	.st13{font-size:12px;}
	.st14{fill:none;stroke:#000000;stroke-width:2;stroke-linecap:round;stroke-linejoin:round;}
	.st15{fill:none;stroke:#000000;stroke-width:2;}
</style>
<text transform="matrix(1 0 0 1 597.2098 92.7001)" class="st0"><tspan x="0" y="0" class="st1 st2">Read </tspan><tspan x="0" y="21.6" class="st1 st2">into R</tspan></text>
<text transform="matrix(1 0 0 1 644.83 201.84)" class="st3 st1 st2">SingleCellExperiment(SCE)</text>
<text transform="matrix(1 0 0 1 731.4 222.84)" class="st1 st2">object</text>
<path d="M786.8,133.5h-2.4v-23.3c0-0.3-0.2-0.7-0.4-0.9l-18.6-18.2c-0.2-0.2-0.5-0.4-0.9-0.4h-31.8c-4,0-7.3,3.4-7.3,7.6v35.2H723
	c-0.7,0-1.3,0.5-1.3,1.2v20.8c0,0.7,0.6,1.2,1.3,1.2h2.4v4.3c0,4.2,3.3,7.6,7.3,7.6H777c4,0,7.3-3.4,7.3-7.6v-4.3h2.4
	c0.7,0,1.3-0.5,1.3-1.2v-20.8C788.1,133.9,787.5,133.5,786.8,133.5L786.8,133.5L786.8,133.5z M765.7,94.9l14.4,14.1h-11.6
	c-0.8,0-1.5-0.3-2-0.9c-0.5-0.5-0.8-1.3-0.8-2L765.7,94.9L765.7,94.9L765.7,94.9z M727.9,98.3c0-2.8,2.2-5.1,4.8-5.1h30.5V106
	c0,1.4,0.5,2.8,1.5,3.8s2.4,1.6,3.8,1.6h13.4v22.1h-54V98.3L727.9,98.3z M781.9,160.9c0,2.8-2.2,5.1-4.8,5.1h-44.3
	c-2.6,0-4.8-2.3-4.8-5.1v-4.3h54v4.3H781.9L781.9,160.9z M785.6,154.1h-61.4v-18.2h61.4V154.1z"/>
<text transform="matrix(1 0 0 1 741.09 150.99)" class="st1 st4">OBJ</text>
<path d="M745.5,100v-3.3c-0.5,0.1-1.1,0.1-1.6,0.2v2.4L731,112.2h-2.4c-0.1,0.5-0.2,1-0.2,1.6h3.3L745.5,100L745.5,100z"/>
<path d="M741,128.8l-1.8,4.9c0.5,0.2,0.9,0.4,1.4,0.6l1.6-4.2l15.5-3.2l4.3,3.1c0.1-0.1,0.8-1.4,0.8-1.4l-5-3.4L741,128.8L741,128.8
	z"/>
<path d="M761.1,110.3l4.3-2.9c-0.2-0.4-0.5-0.9-0.7-1.3l-0.1-0.1l-5,3.3l-1.7,14.2l5.7,4.1c0.3-0.4,0.6-0.9,0.9-1.3l-4.9-3.5
	C759.6,122.8,761.1,110.3,761.1,110.3z"/>
<path d="M763.9,105l-0.4-0.7c-0.2-0.2-0.3-0.4-0.5-0.6l-4.2,2.1l-11-6.6v-2.7c-0.5,0-1.1,0-1.6,0.1v3.5l12.5,7.5
	C758.7,107.6,763.9,105,763.9,105z"/>
<path d="M743.1,110.6c-3,0-5.5,2.5-5.5,5.5s2.5,5.5,5.5,5.5s5.5-2.5,5.5-5.5S746.1,110.6,743.1,110.6z M743.1,120
	c-2.2,0-3.9-1.8-3.9-3.9s1.8-3.9,3.9-3.9s3.9,1.8,3.9,3.9C747,118.3,745.3,120,743.1,120z"/>
<path d="M750.6,111.4c1.5,0,2.7-1.2,2.7-2.7s-1.2-2.7-2.7-2.7s-2.7,1.2-2.7,2.7C747.8,110.2,749.1,111.4,750.6,111.4z M750.6,107.5
	c0.6,0,1.2,0.5,1.2,1.2s-0.5,1.2-1.2,1.2s-1.2-0.5-1.2-1.2S749.9,107.5,750.6,107.5z"/>
<path d="M755.1,117.6l-0.2-0.7l-0.2-0.7c-0.1,0-2.6,0.9-3.3,2.9c-0.4,1.1-0.2,2.4,0.6,3.7l1.3-0.8c-0.5-0.9-0.7-1.7-0.4-2.4
	C753.3,118.3,755.1,117.6,755.1,117.6L755.1,117.6z"/>
<path d="M766.6,117.7c0,0.9-0.7,1.6-1.6,1.6s-1.6-0.7-1.6-1.6s0.7-1.6,1.6-1.6S766.6,116.8,766.6,117.7z"/>
<path d="M751.7,131c-2.2,0-3.9,1.8-3.9,3.9c0,0.3,0,0.5,0.1,0.8c0.5,0,1.1,0,1.6-0.1c-0.1-0.2-0.1-0.5-0.1-0.7
	c0-1.3,1.1-2.4,2.4-2.4c1.2,0,2.2,0.9,2.3,2.1c0.5-0.2,1-0.4,1.5-0.6C755.2,132.4,753.6,131,751.7,131L751.7,131z"/>
<path d="M730.2,123.2c-0.2,0-0.4,0-0.6,0.1c0.5,1.2,1.1,2.4,1.8,3.4c0.5-0.4,0.8-0.9,0.8-1.6C732.1,124,731.3,123.2,730.2,123.2
	L730.2,123.2z"/>
<path d="M735.9,101l1.1,1.1l-4.3,4.3l-1.1-1.1L735.9,101z"/>
<path d="M731.8,114.5h-3.5c0,0.5-0.1,1-0.1,1.6h2.7l7.4,12.6l-1.4,3.7c0.4,0.3,0.9,0.6,1.4,0.8l1.8-4.7L731.8,114.5L731.8,114.5z"/>
<rect x="975.4" y="350.1" class="st5" width="454" height="165"/>
<rect x="1589.4" y="350.1" class="st5" width="294" height="165"/>
<text transform="matrix(1 0 0 1 1498.63 439.53)" class="st3 st6 st7">Reports</text>
<text transform="matrix(1 0 0 1 1005.89 489.84)" class="st3 st1 st2">SCE</text>
<text transform="matrix(1 0 0 1 1014.38 468.84)" class="st1 st2">Unfiltered</text>
<text transform="matrix(1 0 0 1 1042.91 489.84)" class="st1 st2"> Object</text>
<path d="M1080,411.9h-2.1v-19.8c0-0.3-0.1-0.6-0.3-0.7l-15.7-15.4c-0.2-0.2-0.5-0.3-0.8-0.3h-27c-3.4,0-6.2,2.9-6.2,6.4v29.8h-2.1
	c-0.6,0-1.1,0.4-1.1,1v17.7c0,0.6,0.5,1,1.1,1h2.1v3.7c0,3.5,2.8,6.4,6.2,6.4h37.6c3.4,0,6.2-2.9,6.2-6.4v-3.7h2.1
	c0.6,0,1.1-0.4,1.1-1v-17.7C1081,412.3,1080.5,411.9,1080,411.9L1080,411.9L1080,411.9z M1062.1,379.1l12.2,11.9h-9.8
	c-0.6,0-1.3-0.3-1.7-0.7c-0.4-0.5-0.7-1.1-0.7-1.7V379.1L1062.1,379.1z M1030,382c0-2.4,1.9-4.3,4.1-4.3h25.9v10.9
	c0,1.2,0.5,2.4,1.3,3.2c0.8,0.9,2,1.3,3.2,1.4h11.3v18.7H1030V382L1030,382z M1075.8,435.2c0,2.4-1.9,4.3-4.1,4.3h-37.6
	c-2.2,0-4.1-1.9-4.1-4.3v-3.7h45.8L1075.8,435.2L1075.8,435.2L1075.8,435.2z M1078.9,429.4h-52.1V414h52.1V429.4z"/>
<text transform="matrix(1 0 0 1 1039.03 427.85)" class="st1 st4">RDS</text>
<path d="M1044.9,383.5v-2.8c-0.4,0.1-0.9,0.1-1.3,0.2v2.1l-10.9,10.9h-2.1c-0.1,0.4-0.2,0.9-0.2,1.3h2.8L1044.9,383.5z"/>
<path d="M1041.1,407.9l-1.6,4.2c0.4,0.2,0.8,0.4,1.2,0.5l1.3-3.6l13.2-2.7l3.6,2.7c0.1-0.1,0.7-1.2,0.7-1.2l-4.2-2.9L1041.1,407.9z"
	/>
<path d="M1058.2,392.2l3.6-2.4c-0.2-0.4-0.4-0.7-0.6-1.1l-0.1-0.1l-4.2,2.8l-1.4,12l4.8,3.5c0.3-0.4,0.5-0.7,0.7-1.1l-4.2-3
	L1058.2,392.2L1058.2,392.2z"/>
<path d="M1060.5,387.8l-0.3-0.6c-0.1-0.2-0.3-0.4-0.4-0.5l-3.5,1.8l-9.3-5.6v-2.3c-0.4,0-0.9,0-1.3,0.1v3l10.6,6.4L1060.5,387.8
	L1060.5,387.8z"/>
<path d="M1042.9,392.5c-2.6,0-4.7,2.1-4.7,4.7s2.1,4.7,4.7,4.7s4.7-2.1,4.7-4.7S1045.5,392.5,1042.9,392.5z M1042.9,400.5
	c-1.8,0-3.3-1.5-3.3-3.3s1.5-3.3,3.3-3.3s3.3,1.5,3.3,3.3S1044.7,400.5,1042.9,400.5z"/>
<path d="M1049.2,393.2c1.3,0,2.3-1,2.3-2.3s-1-2.3-2.3-2.3s-2.3,1-2.3,2.3C1046.9,392.1,1047.9,393.2,1049.2,393.2z M1049.2,389.8
	c0.6,0,1,0.4,1,1c0,0.5-0.4,1-1,1c-0.5,0-1-0.4-1-1C1048.2,390.3,1048.7,389.8,1049.2,389.8z"/>
<path d="M1053.1,398.5l-0.2-0.6l-0.2-0.6c-0.1,0-2.2,0.7-2.8,2.5c-0.4,1-0.2,2,0.5,3.1l1.1-0.7c-0.5-0.8-0.6-1.4-0.4-2
	C1051.5,399,1053.1,398.5,1053.1,398.5L1053.1,398.5z"/>
<path d="M1062.9,398.5c0,0.7-0.6,1.3-1.3,1.3s-1.3-0.6-1.3-1.3s0.6-1.3,1.3-1.3S1062.9,397.8,1062.9,398.5z"/>
<path d="M1050.2,409.8c-1.8,0-3.3,1.5-3.3,3.3c0,0.2,0,0.4,0.1,0.7c0.5,0,0.9,0,1.4-0.1c-0.1-0.2-0.1-0.4-0.1-0.6c0-1.1,0.9-2,2-2
	c1,0,1.9,0.8,2,1.8c0.4-0.1,0.9-0.3,1.3-0.5C1053.2,410.9,1051.8,409.8,1050.2,409.8L1050.2,409.8z"/>
<path d="M1031.9,403.1c-0.2,0-0.3,0-0.5,0.1c0.4,1,0.9,2,1.5,2.9c0.4-0.3,0.7-0.8,0.7-1.3C1033.6,403.9,1032.8,403.1,1031.9,403.1
	L1031.9,403.1z"/>
<path d="M1036.8,384.4l0.9,0.9l-3.7,3.7l-0.9-0.9L1036.8,384.4z"/>
<path d="M1033.3,395.8h-3c0,0.4-0.1,0.9-0.1,1.3h2.3l6.3,10.7l-1.2,3.1c0.4,0.3,0.8,0.5,1.2,0.7l1.5-4L1033.3,395.8L1033.3,395.8z"
	/>
<text transform="matrix(1 0 0 1 1152.39 492.84)" class="st3 st1 st2">SCE</text>
<text transform="matrix(1 0 0 1 1169.4 471.84)" class="st1 st2">Filtered</text>
<text transform="matrix(1 0 0 1 1189.41 492.84)" class="st1 st2"> Object</text>
<path d="M1230,412.9h-2.1v-19.8c0-0.3-0.1-0.6-0.3-0.7l-15.7-15.4c-0.2-0.2-0.5-0.3-0.8-0.3h-27c-3.4,0-6.2,2.9-6.2,6.4v29.8h-2.1
	c-0.6,0-1.1,0.4-1.1,1v17.7c0,0.6,0.5,1,1.1,1h2.1v3.7c0,3.5,2.8,6.4,6.2,6.4h37.6c3.4,0,6.2-2.9,6.2-6.4v-3.7h2.1
	c0.6,0,1.1-0.4,1.1-1v-17.7C1231,413.3,1230.5,412.9,1230,412.9L1230,412.9L1230,412.9z M1212.1,380.1l12.2,11.9h-9.8
	c-0.6,0-1.3-0.3-1.7-0.7c-0.4-0.5-0.7-1.1-0.7-1.7V380.1L1212.1,380.1z M1180,383c0-2.4,1.9-4.3,4.1-4.3h25.9v10.9
	c0,1.2,0.5,2.4,1.3,3.2c0.8,0.9,2,1.3,3.2,1.4h11.3v18.7H1180V383L1180,383z M1225.8,436.2c0,2.4-1.9,4.3-4.1,4.3h-37.6
	c-2.2,0-4.1-1.9-4.1-4.3v-3.7h45.8L1225.8,436.2L1225.8,436.2L1225.8,436.2z M1228.9,430.4h-52.1V415h52.1V430.4z"/>
<text transform="matrix(1 0 0 1 1189.03 428.85)" class="st1 st4">RDS</text>
<path d="M1194.9,384.5v-2.8c-0.4,0.1-0.9,0.1-1.3,0.2v2.1l-10.9,10.9h-2.1c-0.1,0.4-0.2,0.9-0.2,1.3h2.8L1194.9,384.5z"/>
<path d="M1191.1,408.9l-1.6,4.2c0.4,0.2,0.8,0.4,1.2,0.5l1.3-3.6l13.2-2.7l3.6,2.7c0.1-0.1,0.7-1.2,0.7-1.2l-4.2-2.9L1191.1,408.9z"
	/>
<path d="M1208.2,393.2l3.6-2.4c-0.2-0.4-0.4-0.7-0.6-1.1l-0.1-0.1l-4.2,2.8l-1.4,12l4.8,3.5c0.3-0.4,0.5-0.7,0.7-1.1l-4.2-3
	L1208.2,393.2L1208.2,393.2z"/>
<path d="M1210.5,388.8l-0.3-0.6c-0.1-0.2-0.3-0.4-0.4-0.5l-3.5,1.8l-9.3-5.6v-2.3c-0.4,0-0.9,0-1.3,0.1v3l10.6,6.4L1210.5,388.8
	L1210.5,388.8z"/>
<path d="M1192.9,393.5c-2.6,0-4.7,2.1-4.7,4.7s2.1,4.7,4.7,4.7s4.7-2.1,4.7-4.7S1195.5,393.5,1192.9,393.5z M1192.9,401.5
	c-1.8,0-3.3-1.5-3.3-3.3s1.5-3.3,3.3-3.3s3.3,1.5,3.3,3.3S1194.7,401.5,1192.9,401.5z"/>
<path d="M1199.2,394.2c1.3,0,2.3-1,2.3-2.3s-1-2.3-2.3-2.3s-2.3,1-2.3,2.3C1196.9,393.1,1197.9,394.2,1199.2,394.2z M1199.2,390.8
	c0.6,0,1,0.4,1,1c0,0.5-0.4,1-1,1c-0.5,0-1-0.4-1-1C1198.2,391.3,1198.7,390.8,1199.2,390.8z"/>
<path d="M1203.1,399.5l-0.2-0.6l-0.2-0.6c-0.1,0-2.2,0.7-2.8,2.5c-0.4,1-0.2,2,0.5,3.1l1.1-0.7c-0.5-0.8-0.6-1.4-0.4-2
	C1201.5,400,1203.1,399.5,1203.1,399.5L1203.1,399.5z"/>
<path d="M1212.9,399.5c0,0.7-0.6,1.3-1.3,1.3s-1.3-0.6-1.3-1.3s0.6-1.3,1.3-1.3S1212.9,398.8,1212.9,399.5z"/>
<path d="M1200.2,410.8c-1.8,0-3.3,1.5-3.3,3.3c0,0.2,0,0.4,0.1,0.7c0.5,0,0.9,0,1.4-0.1c-0.1-0.2-0.1-0.4-0.1-0.6c0-1.1,0.9-2,2-2
	c1,0,1.9,0.8,2,1.8c0.4-0.1,0.9-0.3,1.3-0.5C1203.2,411.9,1201.8,410.8,1200.2,410.8L1200.2,410.8z"/>
<path d="M1181.9,404.1c-0.2,0-0.3,0-0.5,0.1c0.4,1,0.9,2,1.5,2.9c0.4-0.3,0.7-0.8,0.7-1.3C1183.6,404.9,1182.8,404.1,1181.9,404.1
	L1181.9,404.1z"/>
<path d="M1186.8,385.4l0.9,0.9l-3.7,3.7l-0.9-0.9L1186.8,385.4z"/>
<path d="M1183.3,396.8h-3c0,0.4-0.1,0.9-0.1,1.3h2.3l6.3,10.7l-1.2,3.1c0.4,0.3,0.8,0.5,1.2,0.7l1.5-4L1183.3,396.8L1183.3,396.8z"
	/>
<text transform="matrix(1 0 0 1 1307.39 489.84)" class="st3 st1 st2">SCE</text>
<text transform="matrix(1 0 0 1 1311.9 468.84)" class="st1 st2">Processed</text>
<text transform="matrix(1 0 0 1 1344.41 489.84)" class="st1 st2"> Object</text>
<path d="M1384,411.9h-2.1v-19.8c0-0.3-0.1-0.6-0.3-0.7l-15.7-15.4c-0.2-0.2-0.5-0.3-0.8-0.3h-27c-3.4,0-6.2,2.9-6.2,6.4v29.8h-2.1
	c-0.6,0-1.1,0.4-1.1,1v17.7c0,0.6,0.5,1,1.1,1h2.1v3.7c0,3.5,2.8,6.4,6.2,6.4h37.6c3.4,0,6.2-2.9,6.2-6.4v-3.7h2.1
	c0.6,0,1.1-0.4,1.1-1v-17.7C1385,412.3,1384.5,411.9,1384,411.9L1384,411.9L1384,411.9z M1366.1,379.1l12.2,11.9h-9.8
	c-0.6,0-1.3-0.3-1.7-0.7c-0.4-0.5-0.7-1.1-0.7-1.7V379.1L1366.1,379.1z M1334,382c0-2.4,1.9-4.3,4.1-4.3h25.9v10.9
	c0,1.2,0.5,2.4,1.3,3.2c0.8,0.9,2,1.3,3.2,1.4h11.3v18.7H1334V382L1334,382z M1379.8,435.2c0,2.4-1.9,4.3-4.1,4.3h-37.6
	c-2.2,0-4.1-1.9-4.1-4.3v-3.7h45.8L1379.8,435.2L1379.8,435.2L1379.8,435.2z M1382.9,429.4h-52.1V414h52.1V429.4z"/>
<text transform="matrix(1 0 0 1 1343.53 427.85)" class="st1 st4">RDS</text>
<path d="M1348.9,383.5v-2.8c-0.4,0.1-0.9,0.1-1.3,0.2v2.1l-10.9,10.9h-2.1c-0.1,0.4-0.2,0.9-0.2,1.3h2.8L1348.9,383.5z"/>
<path d="M1345.1,407.9l-1.6,4.2c0.4,0.2,0.8,0.4,1.2,0.5l1.3-3.6l13.2-2.7l3.6,2.7c0.1-0.1,0.7-1.2,0.7-1.2l-4.2-2.9L1345.1,407.9z"
	/>
<path d="M1362.2,392.2l3.6-2.4c-0.2-0.4-0.4-0.7-0.6-1.1l-0.1-0.1l-4.2,2.8l-1.4,12l4.8,3.5c0.3-0.4,0.5-0.7,0.7-1.1l-4.2-3
	L1362.2,392.2L1362.2,392.2z"/>
<path d="M1364.5,387.8l-0.3-0.6c-0.1-0.2-0.3-0.4-0.4-0.5l-3.5,1.8l-9.3-5.6v-2.3c-0.4,0-0.9,0-1.3,0.1v3l10.6,6.4L1364.5,387.8
	L1364.5,387.8z"/>
<path d="M1346.9,392.5c-2.6,0-4.7,2.1-4.7,4.7s2.1,4.7,4.7,4.7s4.7-2.1,4.7-4.7S1349.5,392.5,1346.9,392.5z M1346.9,400.5
	c-1.8,0-3.3-1.5-3.3-3.3s1.5-3.3,3.3-3.3s3.3,1.5,3.3,3.3S1348.7,400.5,1346.9,400.5z"/>
<path d="M1353.2,393.2c1.3,0,2.3-1,2.3-2.3s-1-2.3-2.3-2.3s-2.3,1-2.3,2.3C1350.9,392.1,1351.9,393.2,1353.2,393.2z M1353.2,389.8
	c0.6,0,1,0.4,1,1c0,0.5-0.4,1-1,1c-0.5,0-1-0.4-1-1C1352.2,390.3,1352.7,389.8,1353.2,389.8z"/>
<path d="M1357.1,398.5l-0.2-0.6l-0.2-0.6c-0.1,0-2.2,0.7-2.8,2.5c-0.4,1-0.2,2,0.5,3.1l1.1-0.7c-0.5-0.8-0.6-1.4-0.4-2
	C1355.5,399,1357.1,398.5,1357.1,398.5L1357.1,398.5z"/>
<path d="M1366.9,398.5c0,0.7-0.6,1.3-1.3,1.3s-1.3-0.6-1.3-1.3s0.6-1.3,1.3-1.3S1366.9,397.8,1366.9,398.5z"/>
<path d="M1354.2,409.8c-1.8,0-3.3,1.5-3.3,3.3c0,0.2,0,0.4,0.1,0.7c0.5,0,0.9,0,1.4-0.1c-0.1-0.2-0.1-0.4-0.1-0.6c0-1.1,0.9-2,2-2
	c1,0,1.9,0.8,2,1.8c0.4-0.1,0.9-0.3,1.3-0.5C1357.2,410.9,1355.8,409.8,1354.2,409.8L1354.2,409.8z"/>
<path d="M1335.9,403.1c-0.2,0-0.3,0-0.5,0.1c0.4,1,0.9,2,1.5,2.9c0.4-0.3,0.7-0.8,0.7-1.3C1337.6,403.9,1336.8,403.1,1335.9,403.1
	L1335.9,403.1z"/>
<path d="M1340.8,384.4l0.9,0.9l-3.7,3.7l-0.9-0.9L1340.8,384.4z"/>
<path d="M1337.3,395.8h-3c0,0.4-0.1,0.9-0.1,1.3h2.3l6.3,10.7l-1.2,3.1c0.4,0.3,0.8,0.5,1.2,0.7l1.5-4L1337.3,395.8L1337.3,395.8z"
	/>
<text transform="matrix(1 0 0 1 1623.4301 468.84)" class="st1 st2">Summary</text>
<text transform="matrix(1 0 0 1 1618.89 489.84)" class="st1 st2">QC Report</text>
<path d="M1687,411.9h-2.1v-19.8c0-0.3-0.1-0.6-0.3-0.7l-15.7-15.4c-0.2-0.2-0.5-0.3-0.8-0.3h-27c-3.4,0-6.2,2.9-6.2,6.4v29.8h-2.1
	c-0.6,0-1.1,0.4-1.1,1v17.7c0,0.6,0.5,1,1.1,1h2.1v3.7c0,3.5,2.8,6.4,6.2,6.4h37.6c3.4,0,6.2-2.9,6.2-6.4v-3.7h2.1
	c0.6,0,1.1-0.4,1.1-1v-17.7C1688,412.3,1687.5,411.9,1687,411.9L1687,411.9L1687,411.9z M1669.1,379.1l12.2,11.9h-9.8
	c-0.6,0-1.3-0.3-1.7-0.7c-0.4-0.5-0.7-1.1-0.7-1.7V379.1L1669.1,379.1z M1637,382c0-2.4,1.9-4.3,4.1-4.3h25.9v10.9
	c0,1.2,0.5,2.4,1.3,3.2c0.8,0.9,2,1.3,3.2,1.4h11.3v18.7H1637V382L1637,382z M1682.8,435.2c0,2.4-1.9,4.3-4.1,4.3h-37.6
	c-2.2,0-4.1-1.9-4.1-4.3v-3.7h45.8L1682.8,435.2L1682.8,435.2L1682.8,435.2z M1685.9,429.4h-52.1V414h52.1V429.4z"/>
<text transform="matrix(1 0 0 1 1642.22 427.85)" class="st1 st4">HTM</text>
<text transform="matrix(1 0 0 1 1676.88 427.85)" class="st1 st4">L</text>
<path d="M1644.7,405.1v7.2c0,0.6-0.6,1.2-1.2,1.2h-4c-0.7,0-1.2-0.5-1.2-1.2v-7.2c0-0.6,0.6-1.2,1.2-1.2h4
	C1644.2,404,1644.7,404.5,1644.7,405.1z"/>
<path d="M1639.4,399.7c0-0.8,0.7-1.5,1.6-1.5c0.3,0,0.5,0.1,0.8,0.2l5.6-5.8c-0.2-0.2-0.3-0.5-0.3-0.8c0-0.8,0.7-1.5,1.6-1.5
	s1.6,0.7,1.6,1.5v0.4l5.3,2.6c0.3-0.3,0.7-0.5,1.2-0.5c0.3,0,0.6,0.1,0.8,0.2l6.2-6c-0.2-0.2-0.2-0.5-0.2-0.8c0-0.8,0.7-1.5,1.6-1.5
	s1.6,0.7,1.6,1.5s-0.7,1.5-1.6,1.5c-0.3,0-0.6-0.1-0.8-0.2l-6.2,6c0.2,0.2,0.2,0.5,0.2,0.8c0,0.8-0.7,1.5-1.6,1.5s-1.6-0.7-1.6-1.5
	c0-0.1,0-0.2,0.1-0.4l-5.3-2.6c-0.3,0.3-0.7,0.5-1.2,0.5c-0.3,0-0.5-0.1-0.8-0.2l-5.6,5.8c0.2,0.2,0.3,0.5,0.3,0.8
	c0,0.8-0.7,1.5-1.6,1.5C1640.1,401.2,1639.4,400.5,1639.4,399.7z"/>
<path d="M1652.4,398.4v13.4c0,0.7-0.5,1.3-1.2,1.3h-3.7c-0.6,0-1.2-0.6-1.2-1.3v-13.4c0-0.7,0.5-1.3,1.2-1.3h3.7
	C1651.9,397.1,1652.4,397.7,1652.4,398.4z"/>
<path d="M1660.6,401.9v10.4c0,0.6-0.5,1.2-1.2,1.2h-4c-0.7,0-1.2-0.5-1.2-1.2v-10.4c0-0.6,0.6-1.2,1.2-1.2h4
	C1660.1,400.7,1660.6,401.3,1660.6,401.9z"/>
<path d="M1668.4,397.1v15c0,0.6-0.5,1-1.2,1h-3.7c-0.6,0-1.2-0.5-1.2-1v-15c0-0.6,0.5-1,1.2-1h3.7
	C1667.9,396.1,1668.4,396.6,1668.4,397.1z"/>
<text transform="matrix(1 0 0 1 1780.5601 463.84)" class="st1 st2">Cell</text>
<text transform="matrix(1 0 0 1 1811.5701 463.84)" class="st1 st2"> </text>
<text transform="matrix(1 0 0 1 1816.2401 463.84)" class="st1 st2 st8">T</text>
<text transform="matrix(1 0 0 1 1826.25 463.84)" class="st1 st2">ype</text>
<text transform="matrix(1 0 0 1 1790.9 484.84)" class="st1 st2">Report</text>
<path d="M1843,406.9h-2.1v-19.8c0-0.3-0.1-0.6-0.3-0.7l-15.7-15.4c-0.2-0.2-0.5-0.3-0.8-0.3h-27c-3.4,0-6.2,2.9-6.2,6.4v29.8h-2.1
	c-0.6,0-1.1,0.4-1.1,1v17.7c0,0.6,0.5,1,1.1,1h2.1v3.7c0,3.5,2.8,6.4,6.2,6.4h37.6c3.4,0,6.2-2.9,6.2-6.4v-3.7h2.1
	c0.6,0,1.1-0.4,1.1-1v-17.7C1844,407.3,1843.5,406.9,1843,406.9L1843,406.9L1843,406.9z M1825.1,374.1l12.2,11.9h-9.8
	c-0.6,0-1.3-0.3-1.7-0.7c-0.4-0.5-0.7-1.1-0.7-1.7V374.1L1825.1,374.1z M1793,377c0-2.4,1.9-4.3,4.1-4.3h25.9v10.9
	c0,1.2,0.5,2.4,1.3,3.2c0.8,0.9,2,1.3,3.2,1.4h11.3v18.7H1793V377L1793,377z M1838.8,430.2c0,2.4-1.9,4.3-4.1,4.3h-37.6
	c-2.2,0-4.1-1.9-4.1-4.3v-3.7h45.8L1838.8,430.2L1838.8,430.2L1838.8,430.2z M1841.9,424.4h-52.1V409h52.1V424.4z"/>
<text transform="matrix(1 0 0 1 1798.22 422.85)" class="st1 st4">HTM</text>
<text transform="matrix(1 0 0 1 1832.88 422.85)" class="st1 st4">L</text>
<path d="M1800.7,400.1v7.2c0,0.6-0.6,1.2-1.2,1.2h-4c-0.7,0-1.2-0.5-1.2-1.2v-7.2c0-0.6,0.6-1.2,1.2-1.2h4
	C1800.2,399,1800.7,399.5,1800.7,400.1z"/>
<path d="M1795.4,394.7c0-0.8,0.7-1.5,1.6-1.5c0.3,0,0.5,0.1,0.8,0.2l5.6-5.8c-0.2-0.2-0.3-0.5-0.3-0.8c0-0.8,0.7-1.5,1.6-1.5
	s1.6,0.7,1.6,1.5v0.4l5.3,2.6c0.3-0.3,0.7-0.5,1.2-0.5c0.3,0,0.6,0.1,0.8,0.2l6.2-6c-0.2-0.2-0.2-0.5-0.2-0.8c0-0.8,0.7-1.5,1.6-1.5
	s1.6,0.7,1.6,1.5s-0.7,1.5-1.6,1.5c-0.3,0-0.6-0.1-0.8-0.2l-6.2,6c0.2,0.2,0.2,0.5,0.2,0.8c0,0.8-0.7,1.5-1.6,1.5s-1.6-0.7-1.6-1.5
	c0-0.1,0-0.2,0.1-0.4l-5.3-2.6c-0.3,0.3-0.7,0.5-1.2,0.5c-0.3,0-0.5-0.1-0.8-0.2l-5.6,5.8c0.2,0.2,0.3,0.5,0.3,0.8
	c0,0.8-0.7,1.5-1.6,1.5C1796.1,396.2,1795.4,395.5,1795.4,394.7z"/>
<path d="M1808.4,393.4v13.4c0,0.7-0.5,1.3-1.2,1.3h-3.7c-0.6,0-1.2-0.6-1.2-1.3v-13.4c0-0.7,0.5-1.3,1.2-1.3h3.7
	C1807.9,392.1,1808.4,392.7,1808.4,393.4z"/>
<path d="M1816.6,396.9v10.4c0,0.6-0.5,1.2-1.2,1.2h-4c-0.7,0-1.2-0.5-1.2-1.2v-10.4c0-0.6,0.6-1.2,1.2-1.2h4
	C1816.1,395.7,1816.6,396.3,1816.6,396.9z"/>
<path d="M1824.4,392.1v15c0,0.6-0.5,1-1.2,1h-3.7c-0.6,0-1.2-0.5-1.2-1v-15c0-0.6,0.5-1,1.2-1h3.7
	C1823.9,391.1,1824.4,391.6,1824.4,392.1z"/>
<text transform="matrix(1 0 0 1 389.88 113.19)" class="st1 st2">Gene by cell count</text>
<text transform="matrix(1 0 0 1 439.98 134.19)" class="st1 st2">matrix</text>
<path d="M496.4,42.8H494V19.5c0-0.3-0.1-0.7-0.4-0.9L475.1,0.4c-0.2-0.2-0.5-0.4-0.9-0.4h-31.8c-4,0-7.3,3.4-7.3,7.6v35.2h-2.4
	c-0.7,0-1.3,0.5-1.3,1.2v20.8c0,0.7,0.6,1.2,1.3,1.2h2.4v4.3c0,4.2,3.3,7.6,7.3,7.6h44.3c4,0,7.3-3.4,7.3-7.6V66h2.4
	c0.7,0,1.3-0.5,1.3-1.2V44C497.6,43.3,497,42.8,496.4,42.8C496.4,42.8,496.4,42.8,496.4,42.8z M475.3,4.2l14.4,14.1h-11.6
	c-0.8,0-1.5-0.3-2-0.9c-0.5-0.5-0.8-1.3-0.8-2V4.2z M437.5,7.6c0-2.8,2.2-5.1,4.8-5.1h30.5v12.8c0,1.4,0.5,2.8,1.5,3.8
	s2.4,1.6,3.8,1.6h13.4v22.1h-54L437.5,7.6L437.5,7.6L437.5,7.6z M491.5,70.3c0,2.8-2.2,5.1-4.8,5.1h-44.3c-2.6,0-4.8-2.3-4.8-5.1V66
	h54v4.3H491.5L491.5,70.3z M495.2,63.5h-61.4V45.3h61.4V63.5z"/>
<text transform="matrix(1 0 0 1 448.48 61.1)" class="st1 st4">MTX</text>
<path d="M469.1,12.4h-26.4c-1,0-1.7,0.8-1.7,1.7v28c0,1,0.8,1.7,1.7,1.7h26.4c1,0,1.7-0.8,1.7-1.7V14.2
	C470.9,13.2,470.1,12.4,469.1,12.4L469.1,12.4z M469.9,21.8h-6.2v-3.2h6.2V21.8z M469.9,26h-6.2v-3.2h6.2V26z M469.9,30.2h-6.2V27
	h6.2V30.2z M469.9,34.5h-6.2v-3.2h6.2V34.5z M442,31.2h6.2v3.2H442V31.2z M442,27h6.2v3.2H442V27z M442,22.8h6.2V26H442V22.8z
	 M449.2,27h6.2v3.2h-6.2V27z M456.4,27h6.2v3.2h-6.2V27z M462.6,26h-6.2v-3.2h6.2V26z M455.4,26h-6.2v-3.2h6.2V26z M449.2,31.2h6.2
	v3.2h-6.2V31.2z M456.4,31.2h6.2v3.2h-6.2V31.2z M462.6,21.8h-6.2v-3.2h6.2V21.8z M455.4,21.8h-6.2v-3.2h6.2V21.8z M448.2,21.8H442
	v-3.2h6.2V21.8z M442,35.4h6.2v3.2H442V35.4z M449.2,35.4h6.2v3.2h-6.2V35.4z M456.4,35.4h6.2v3.2h-6.2V35.4z M463.6,35.4h6.2v3.2
	h-6.2V35.4z M469.9,14.2v3.3h-6.2v-4.1h5.5C469.5,13.4,469.9,13.8,469.9,14.2L469.9,14.2z M462.6,17.6h-6.2v-4.1h6.2V17.6z
	 M455.4,17.6h-6.2v-4.1h6.2V17.6z M442,14.2c0-0.4,0.3-0.7,0.7-0.7h5.5v4.1H442C442,17.6,442,14.2,442,14.2z M442,42.2v-2.5h6.2v3.2
	h-5.5C442.3,42.9,442,42.6,442,42.2L442,42.2z M449.2,39.7h6.2v3.2h-6.2V39.7z M456.4,39.7h6.2v3.2h-6.2V39.7z M469.9,42.2
	c0,0.4-0.3,0.7-0.7,0.7h-5.5v-3.2h6.2V42.2z"/>
<path d="M451.3,16h2c0.3,0,0.5-0.2,0.5-0.5s-0.2-0.5-0.5-0.5h-2c-0.3,0-0.5,0.2-0.5,0.5S451,16,451.3,16z"/>
<path d="M458.5,16h2c0.3,0,0.5-0.2,0.5-0.5s-0.2-0.5-0.5-0.5h-2c-0.3,0-0.5,0.2-0.5,0.5S458.2,16,458.5,16z"/>
<path d="M465.8,16h2c0.3,0,0.5-0.2,0.5-0.5s-0.2-0.5-0.5-0.5h-2c-0.3,0-0.5,0.2-0.5,0.5S465.5,16,465.8,16z"/>
<path d="M435.6,105.7c-0.1-0.1-0.4,0-0.5,0.1l-0.1,0.1v0.2c0,0.1,0,0.2,0.1,0.3l0.1,0.1c0.1,0.1,0.1,0.1,0.2,0.1
	c0.1,0,0.1,0,0.2-0.1c0.1-0.1,0.1-0.1,0.1-0.1c0.1-0.1,0.1-0.2,0.1-0.3s0-0.2-0.1-0.3C435.8,105.8,435.7,105.7,435.6,105.7
	L435.6,105.7z"/>
<path d="M437.8,105.7c-0.2-0.1-0.4,0-0.5,0.1l-0.1,0.1v0.2c0,0.1,0,0.2,0.1,0.3s0.2,0.1,0.3,0.1c0,0,0.1,0,0.2-0.1
	c0,0,0.1,0,0.1-0.1c0.1-0.1,0.1-0.2,0.1-0.3s0-0.2-0.1-0.3C437.9,105.8,437.8,105.7,437.8,105.7z"/>
<g>
	<g class="st0">
		<text transform="matrix(1 0 0 1 142.14 282.2)" class="st1 st2">Input</text>
		<text transform="matrix(1 0 0 1 113.14 303.8)" class="st1 st2">RN</text>
		<text transform="matrix(1 0 0 1 139.14 303.8)" class="st1 st2 st8">A</text>
		<text transform="matrix(1 0 0 1 150.15 303.8)" class="st1 st2"> </text>
		<text transform="matrix(1 0 0 1 155.15 303.8)" class="st1 st2 st8">F</text>
		<text transform="matrix(1 0 0 1 165.15 303.8)" class="st1 st2">ASTQ</text>
	</g>
	<path d="M196.5,225.5h-2.4v-23.3c0-0.3-0.1-0.7-0.4-0.9l-18.5-18.2c-0.2-0.2-0.5-0.4-0.9-0.4h-31.8c-4,0-7.3,3.4-7.3,7.6v35.2h-2.4
		c-0.7,0-1.3,0.5-1.3,1.2v20.8c0,0.7,0.6,1.2,1.3,1.2h2.4v4.3c0,4.2,3.3,7.6,7.3,7.6h44.3c4,0,7.3-3.4,7.3-7.6v-4.3h2.4
		c0.7,0,1.3-0.5,1.3-1.2v-20.8C197.8,225.9,197.2,225.5,196.5,225.5L196.5,225.5L196.5,225.5z M175.4,186.9l14.4,14.1h-11.6
		c-0.8,0-1.5-0.3-2-0.9c-0.5-0.5-0.8-1.3-0.8-2L175.4,186.9L175.4,186.9L175.4,186.9z M137.6,190.3c0-2.8,2.2-5.1,4.8-5.1h30.5V198
		c0,1.4,0.5,2.8,1.5,3.8s2.4,1.6,3.8,1.6h13.4v22.1h-54V190.3L137.6,190.3z M191.6,252.9c0,2.8-2.2,5.1-4.8,5.1h-44.3
		c-2.6,0-4.8-2.3-4.8-5.1v-4.3h54L191.6,252.9L191.6,252.9L191.6,252.9z M195.3,246.1h-61.4v-18.2h61.4V246.1z"/>
	<text transform="matrix(1 0 0 1 140.63 242.75)" class="st1 st4">F</text>
	<text transform="matrix(1 0 0 1 149.52 242.75)" class="st1 st4">ASTQ</text>
</g>
<g>
	<text transform="matrix(1 0 0 1 112.13 119.69)" class="st1 st2">Library Pools</text>
	<g>
		<path d="M197.5,51.3h-2.4V28c0-0.3-0.1-0.7-0.4-0.9L176.2,8.9c-0.2-0.2-0.5-0.4-0.9-0.4h-31.9c-4,0-7.3,3.4-7.3,7.6v35.2h-2.4
			c-0.7,0-1.3,0.5-1.3,1.2v20.8c0,0.7,0.6,1.2,1.3,1.2h2.4v4.3c0,4.2,3.3,7.6,7.3,7.6h44.3c4,0,7.3-3.4,7.3-7.6v-4.3h2.4
			c0.7,0,1.3-0.5,1.3-1.2V52.5C198.8,51.8,198.2,51.3,197.5,51.3L197.5,51.3L197.5,51.3z M176.4,12.7l14.4,14.1h-11.6
			c-0.8,0-1.5-0.3-2-0.9c-0.5-0.5-0.8-1.3-0.8-2L176.4,12.7L176.4,12.7L176.4,12.7z M138.6,16.1c0-2.8,2.2-5.1,4.8-5.1h30.5v12.8
			c0,1.4,0.5,2.8,1.5,3.8s2.4,1.6,3.8,1.6h13.4v22.1h-54V16.1z M192.6,78.8c0,2.8-2.2,5.1-4.8,5.1h-44.4c-2.6,0-4.8-2.3-4.8-5.1
			v-4.3h54V78.8z M196.3,72h-61.4V53.8h61.4V72z"/>
		<text transform="matrix(1 0 0 1 151.22 68.61)" class="st1 st4">TSV</text>
	</g>
</g>
<g>
	<text transform="matrix(1 0 0 1 93.64 506.75)" class="st1 st2">Bulk-RN</text>
	<text transform="matrix(1 0 0 1 160.65 506.75)" class="st1 st2 st8">A</text>
	<text transform="matrix(1 0 0 1 171.66 506.75)" class="st1 st2"> </text>
	<text transform="matrix(1 0 0 1 176.66 506.75)" class="st1 st2 st8">F</text>
	<text transform="matrix(1 0 0 1 186.66 506.75)" class="st1 st2">ASTQ</text>
	<path d="M197,439.4h-2.4v-23.3c0-0.3-0.1-0.7-0.4-0.9L175.7,397c-0.2-0.2-0.5-0.4-0.9-0.4H143c-4,0-7.3,3.4-7.3,7.6v35.2h-2.4
		c-0.7,0-1.3,0.5-1.3,1.2v20.8c0,0.7,0.6,1.2,1.3,1.2h2.4v4.3c0,4.2,3.3,7.6,7.3,7.6h44.3c4,0,7.3-3.4,7.3-7.6v-4.3h2.4
		c0.7,0,1.3-0.5,1.3-1.2v-20.8C198.3,439.8,197.7,439.4,197,439.4L197,439.4L197,439.4z M175.9,400.8l14.4,14.1h-11.6
		c-0.8,0-1.5-0.3-2-0.9c-0.5-0.5-0.8-1.3-0.8-2L175.9,400.8L175.9,400.8L175.9,400.8z M138.1,404.2c0-2.8,2.2-5.1,4.8-5.1h30.5v12.8
		c0,1.4,0.5,2.8,1.5,3.8s2.4,1.6,3.8,1.6h13.4v22.1h-54V404.2L138.1,404.2z M192.1,466.8c0,2.8-2.2,5.1-4.8,5.1H143
		c-2.6,0-4.8-2.3-4.8-5.1v-4.3h54L192.1,466.8L192.1,466.8L192.1,466.8z M195.8,460h-61.4v-18.2h61.4V460z"/>
	<text transform="matrix(1 0 0 1 141.12 456.66)" class="st1 st4">F</text>
	<text transform="matrix(1 0 0 1 150.01 456.66)" class="st1 st4">ASTQ</text>
</g>
<text transform="matrix(1 0 0 1 973.89 202.84)" class="st1 st2">Filter empty</text>
<text transform="matrix(1 0 0 1 988.89 223.84)" class="st1 st2">droplets</text>
<path d="M1045.7,122.7h-4.3v-4.3h-2.2v4.3h-36.7v-4.3h-2.2v4.3H996c-0.9,0-1.7,0.3-2.3,0.9s-0.9,1.4-0.9,2.3v2.2
	c0,0.8,0.3,1.5,0.8,2.1s1.2,1,2,1.1l19.9,20.9v14.6c0,0.4,0.2,0.7,0.5,0.9s0.7,0.2,1.1,0l8.6-4.3c0.2-0.1,0.3-0.2,0.4-0.4
	s0.2-0.4,0.2-0.6v-10.3l19.9-20.9c0.8-0.1,1.4-0.5,1.9-1.1s0.8-1.3,0.8-2.1v-2.2c0-0.9-0.3-1.7-1-2.3
	C1047.4,123.1,1046.6,122.7,1045.7,122.7L1045.7,122.7L1045.7,122.7z M1046.8,128.1c0,0.3-0.1,0.6-0.3,0.8c-0.2,0.2-0.5,0.3-0.8,0.3
	h-4.3v2.2h1.8l-18.8,19.7c-0.2,0.2-0.3,0.5-0.3,0.7v10.1l-6.5,3.2v-13.3c0-0.3-0.1-0.5-0.3-0.7l-18.8-19.7h40.6v-2.2H996
	c-0.3,0-0.6-0.1-0.8-0.3s-0.3-0.5-0.3-0.8v-2.2c0-0.3,0.1-0.6,0.3-0.8s0.5-0.3,0.8-0.3h49.6c0.3,0,0.6,0.1,0.8,0.3
	c0.2,0.2,0.3,0.5,0.3,0.8v2.2H1046.8L1046.8,128.1z"/>
<path d="M1020.9,120.6c1.7,0,3.4-0.7,4.6-1.9s1.9-2.9,1.9-4.6s-0.7-3.4-1.9-4.6c-1.2-1.2-2.8-1.9-4.6-1.9s-3.4,0.7-4.6,1.9
	c-1.2,1.2-1.9,2.9-1.9,4.6s0.7,3.4,1.9,4.6S1019.2,120.6,1020.9,120.6L1020.9,120.6z M1020.9,109.8c1.1,0,2.2,0.5,3.1,1.3
	c0.8,0.8,1.3,1.9,1.3,3s-0.5,2.2-1.3,3s-1.9,1.3-3.1,1.3s-2.2-0.5-3.1-1.3c-0.8-0.8-1.3-1.9-1.3-3s0.5-2.2,1.3-3
	C1018.7,110.2,1019.8,109.8,1020.9,109.8L1020.9,109.8z"/>
<path d="M1010.1,111.9h2.2v8.6h-2.2V111.9z"/>
<path d="M1029.5,111.9h2.2v8.6h-2.2V111.9z"/>
<path d="M1029.5,103.3h2.2v4.3h-2.2V103.3z"/>
<path d="M1010.1,103.3h2.2v4.3h-2.2V103.3z"/>
<path d="M1040.4,115c1.7,0,3.4-0.7,4.6-1.9s1.9-2.9,1.9-4.6s-0.7-3.4-1.9-4.6c-1.2-1.2-2.9-1.9-4.6-1.9s-3.4,0.7-4.6,1.9
	s-1.9,2.9-1.9,4.6s0.7,3.4,1.9,4.6C1037.1,114.3,1038.7,115,1040.4,115z"/>
<path d="M1000.3,116c1.7,0,3.4-0.7,4.6-1.9c1.2-1.2,1.9-2.9,1.9-4.6s-0.7-3.4-1.9-4.6s-2.9-1.9-4.6-1.9s-3.4,0.7-4.6,1.9
	c-1.2,1.2-1.9,2.9-1.9,4.6s0.7,3.4,1.9,4.6C997,115.3,998.6,116,1000.3,116z M1000.3,105.2c1.1,0,2.2,0.5,3,1.3s1.3,1.9,1.3,3
	s-0.5,2.2-1.3,3s-1.9,1.3-3,1.3s-2.2-0.5-3-1.3s-1.3-1.9-1.3-3s0.5-2.2,1.3-3C998.1,105.6,999.2,105.2,1000.3,105.2z"/>
<path d="M1000.3,101.1c1.7,0,3.4-0.7,4.6-1.9c1.2-1.2,1.9-2.9,1.9-4.6s-0.7-3.4-1.9-4.6s-2.9-1.9-4.6-1.9s-3.4,0.7-4.6,1.9
	c-1.2,1.2-1.9,2.9-1.9,4.6s0.7,3.4,1.9,4.6C997,100.4,998.6,101.1,1000.3,101.1z"/>
<path d="M1040.4,99.2c1.7,0,3.4-0.7,4.6-1.9s1.9-2.9,1.9-4.6s-0.7-3.4-1.9-4.6c-1.2-1.2-2.9-1.9-4.6-1.9s-3.4,0.7-4.6,1.9
	s-1.9,2.9-1.9,4.6s0.7,3.4,1.9,4.6C1037.1,98.5,1038.7,99.2,1040.4,99.2z M1040.4,88.4c1.2,0,2.2,0.5,3,1.3s1.3,1.9,1.3,3
	s-0.5,2.2-1.3,3s-1.9,1.3-3,1.3s-2.2-0.5-3.1-1.3c-0.8-0.8-1.3-1.9-1.3-3s0.5-2.2,1.3-3C1038.2,88.9,1039.3,88.4,1040.4,88.4z"/>
<path d="M1020.8,88c1.7,0,3.4-0.7,4.6-1.9s1.9-2.9,1.9-4.6s-0.7-3.4-1.9-4.6c-1.2-1.2-2.9-1.9-4.6-1.9s-3.4,0.7-4.6,1.9
	c-1.2,1.2-1.9,2.9-1.9,4.6s0.7,3.4,1.9,4.6C1017.5,87.3,1019.1,88,1020.8,88L1020.8,88z M1020.8,77.3c1.2,0,2.2,0.5,3.1,1.3
	c0.8,0.8,1.3,1.9,1.3,3s-0.4,2.2-1.3,3c-0.8,0.8-1.9,1.3-3.1,1.3c-1.1,0-2.2-0.5-3-1.3s-1.3-1.9-1.3-3s0.4-2.2,1.3-3
	C1018.6,77.7,1019.7,77.3,1020.8,77.3z"/>
<path d="M1020.8,103.9c1.7,0,3.4-0.7,4.6-1.9s1.9-2.9,1.9-4.6s-0.7-3.4-1.9-4.6c-1.2-1.2-2.9-1.9-4.6-1.9s-3.4,0.7-4.6,1.9
	c-1.2,1.2-1.9,2.9-1.9,4.6s0.7,3.4,1.9,4.6C1017.5,103.2,1019.1,103.9,1020.8,103.9L1020.8,103.9z"/>
<path d="M393.4,137.8l-7.7-5.8v11.6L393.4,137.8z M262.4,52.1h0.8v-1h-0.8V52.1z M262.4,218.8v1h0.8v-1H262.4z M262.4,138.8h124.1
	v-2H262.4V138.8z M263.2,137.8V52.1h-1.5v85.6h1.5V137.8z M262.4,51.1h-61.7v2h61.7V51.1z M261.6,137.8v81.1h1.5v-81.1L261.6,137.8
	L261.6,137.8z M262.4,217.8h-61.7v2h61.7V217.8z"/>
<path d="M967.4,135.6l-10-5.8v11.5L967.4,135.6z M818.4,136.1l140,0.5v-2l-140-0.5V136.1z"/>
<path d="M1228.4,136.1l-10-5.8v11.5L1228.4,136.1z M1074.4,137.1h145v-2h-145V137.1z"/>
<path d="M1486.4,135.1l-10-5.8v11.5L1486.4,135.1z M1349.4,136.1h128v-2h-128V136.1z"/>
<path d="M1803.4,129.1l-10-5.8v11.5L1803.4,129.1z M1666.4,130.1h128v-2h-128V130.1z"/>
<text transform="matrix(1 0 0 1 301.57 118.44)" class="st3 st1 st2">alevin-fry</text>
<text transform="matrix(1 0 0 1 1295.49 224.84)" class="st3 st1 st2">miQC</text>
<text transform="matrix(1 0 0 1 1195.84 203.84)" class="st1 st2">Remove low quality</text>
<text transform="matrix(1 0 0 1 1206.37 224.84)" class="st1 st2">cells using</text>
<path class="st9" d="M1261.7,105.2h-9.9c-1.2,0-2.3,0.5-3.1,1.3c-0.8,0.8-1.3,1.9-1.3,3.1c0,9.1,3.2,37.1,3.2,46.7
	c0,3.1,2.7,5.7,6,5.7h29.1c3.4,0,6-2.6,6-5.7c0-8.1,2.3-29.5,3-41.4l11.5,42.7c0.3,1.1,1,2.1,2,2.6c1,0.6,2.2,0.7,3.3,0.4l0,0
	c1.1-0.3,2.1-1,2.6-2c0.6-1,0.7-2.2,0.4-3.3l-3.6-13.6c0.1,0,0.1,0,0.2-0.1l0,0c3.2-0.9,5.1-4.2,4.3-7.4l-3.1-11.6
	c-0.9-3.2-4.2-5.1-7.4-4.3l-0.2,0.1l-3.7-13.6c-0.3-1.1-1-2.1-2-2.6c-1-0.6-2.2-0.7-3.3-0.4l0,0c-1.1,0.3-2.1,1-2.6,2
	c-0.3,0.6-0.5,1.2-0.6,1.9c-0.6-0.3-1.3-0.5-2-0.5h-27.3C1261.4,105.2,1261.7,105.2,1261.7,105.2z M1292.5,109.6
	c0,9.1-3.2,37.1-3.2,46.7c0,1.8-1.6,3.3-3.6,3.3h-29.1c-2,0-3.6-1.4-3.6-3.3c0-9.6-3.2-37.6-3.2-46.7c0-0.5,0.2-1,0.6-1.4
	s0.9-0.6,1.4-0.6h38.7c0.5,0,1,0.2,1.4,0.6S1292.5,109.1,1292.5,109.6L1292.5,109.6z M1298.7,105.5l13.5,50.6c0.1,0.5,0.1,1-0.2,1.4
	c-0.2,0.4-0.7,0.8-1.2,0.9l0,0c-0.5,0.1-1,0.1-1.4-0.2s-0.8-0.7-0.9-1.2l-13.6-50.6c-0.1-0.5-0.1-1,0.2-1.4c0.2-0.4,0.7-0.8,1.2-0.9
	l0,0c0.5-0.1,1-0.1,1.5,0.2C1298.2,104.6,1298.6,105,1298.7,105.5z M1310.3,139.4l-5-18.6c0.1,0,0.1,0,0.2-0.1
	c1.9-0.5,3.9,0.6,4.4,2.5l3.1,11.6c0.5,1.9-0.6,3.9-2.5,4.4L1310.3,139.4z"/>
<path class="st9" d="M1281.9,91.5c0.3-0.6,0.1-1.3-0.5-1.7l-5-2.9c-0.6-0.3-1.3-0.1-1.7,0.4l-2.9,5c-0.3,0.6-0.1,1.3,0.5,1.7l5,2.9
	c0.6,0.3,1.3,0.1,1.7-0.4L1281.9,91.5z M1279.2,91.3l-1.6,2.9l-2.9-1.6l1.6-2.9L1279.2,91.3z"/>
<path class="st9" d="M1272.8,99.4c0.2-0.6-0.1-1.2-0.7-1.4l-4.8-1.7c-0.6-0.2-1.2,0.1-1.4,0.7l-1.7,4.8c-0.2,0.6,0.1,1.2,0.7,1.4
	l4.8,1.7c0.6,0.2,1.2-0.1,1.4-0.7L1272.8,99.4z M1270.4,99.7l-1,2.8l-2.8-1l1-2.8L1270.4,99.7z"/>
<path class="st9" d="M1274.3,82.1c0.5-0.5,0.5-1.3,0-1.7l-5-5c-0.5-0.5-1.2-0.5-1.7,0l-5,5c-0.5,0.5-0.5,1.3,0,1.7l5,5
	c0.5,0.5,1.3,0.5,1.7,0L1274.3,82.1z M1271.7,81.3l-3.2,3.2l-3.2-3.2l3.2-3.2L1271.7,81.3z"/>
<path d="M1271.8,122.5c-7.2,0-13.1,5.9-13.1,13.1s5.9,13.1,13.1,13.1s13.1-5.9,13.1-13.1S1279.1,122.5,1271.8,122.5z M1271.8,146.1
	c-5.8,0-10.5-4.7-10.5-10.5s4.7-10.5,10.5-10.5s10.5,4.7,10.5,10.5S1277.6,146.1,1271.8,146.1z"/>
<path d="M1275.4,132c-0.5-0.5-1.3-0.5-1.9,0l-1.7,1.7l-1.7-1.7c-0.5-0.5-1.3-0.5-1.8,0s-0.5,1.3,0,1.9l1.7,1.7l-1.7,1.7
	c-0.5,0.5-0.5,1.3,0,1.9c0.5,0.5,1.3,0.5,1.8,0l1.7-1.7l1.7,1.7c0.5,0.5,1.3,0.5,1.9,0c0.5-0.5,0.5-1.3,0-1.9l-1.7-1.7l1.7-1.7
	C1275.9,133.4,1275.9,132.6,1275.4,132z"/>
<text transform="matrix(1 0 0 1 1452.9399 202.84)" class="st1 st2">RN</text>
<text transform="matrix(1 0 0 1 1478.9399 202.84)" class="st1 st2 st8">A</text>
<text transform="matrix(1 0 0 1 1489.95 202.84)" class="st1 st2"> and</text>
<text transform="matrix(1 0 0 1 1524.98 202.84)" class="st1 st2 st8"> </text>
<text transform="matrix(1 0 0 1 1528.99 202.84)" class="st1 st2">AD</text>
<text transform="matrix(1 0 0 1 1554 202.84)" class="st1 st2">T</text>
<text transform="matrix(1 0 0 1 1564.6699 202.84)" class="st1 st2"> normalization and </text>
<text transform="matrix(1 0 0 1 1446.76 223.84)" class="st1 st2">dimensionality reduction with PC</text>
<text transform="matrix(1 0 0 1 1706.88 223.84)" class="st1 st2 st8">A</text>
<text transform="matrix(1 0 0 1 1538.9 244.84)" class="st1 st2">and UMA</text>
<text transform="matrix(1 0 0 1 1613.9301 244.84)" class="st1 st2">P</text>
<path d="M1663.8,161.1c-22.5,0-39.6-5.8-52.3-17.8c-10.8-10.2-16.5-23.1-21.1-33.4c-4.9-11.1-8.5-19.2-15.6-19.2s-11.5,8.6-17,19.5
	c-5.2,10.3-11.7,23.2-23,33.3c-13.3,11.9-30.4,17.7-52.3,17.7v-2.6c47.9,0,62.4-28.6,72.9-49.5c5.9-11.7,10.6-20.9,19.5-20.9
	s12.9,9.2,18,20.8c9.2,21,21.9,49.6,70.9,49.6V161.1L1663.8,161.1L1663.8,161.1z"/>
<path d="M1482.4,161.9h181.5v1.5h-181.5V161.9z"/>
<path d="M1609.8,152.3v-8.2h-6.4V137h-6.4v-11.6h-6.4v-11.9h-6.4v-10.8h-6.4V97h-7.9v5.7h-6.6v10.8h-6.4v12h-6.4v11.6h-6.4v7.1h-6.4
	v8.2h-6.4v8.7h84.6v-8.7h-6.1L1609.8,152.3L1609.8,152.3z M1538,159.5h-4.8v-5.6h4.8V159.5z M1539.6,159.5v-13.8h4.8v13.8H1539.6z
	 M1545.9,159.5v-20.9h4.8v20.9H1545.9z M1557.1,159.5h-4.8v-32.6h4.8V159.5z M1558.6,159.5V115h4.8v44.5H1558.6z M1569.8,159.5h-4.8
	v-55.3h4.8V159.5z M1571.6,159.5V98.6h4.8v60.9H1571.6z M1578,159.5v-55.3h4.8v55.3H1578z M1589.2,159.5h-4.8V115h4.8V159.5z
	 M1590.7,159.5v-32.6h4.8v32.6H1590.7z M1597.1,159.5v-20.9h4.8v20.9H1597.1z M1608.2,159.5h-4.8v-13.8h4.8V159.5z M1614.6,159.5
	h-4.8v-5.6h4.8V159.5z"/>
<path d="M766.4,296.6h-1v1h1V296.6z M1046.9,296.6h1v-1h-1V296.6z M1046.9,349.6l5.8-10h-11.5L1046.9,349.6z M765.4,250.6v46h2v-46
	H765.4z M766.4,297.6h280.5v-2H766.4L766.4,297.6L766.4,297.6z M1045.9,296.6v44h2v-44H1045.9z"/>
<path d="M1017.9,278.6h-1v1h1V278.6z M1196.4,278.6h1v-1h-1V278.6z M1196.4,348.1l5.8-10h-11.5L1196.4,348.1z M1016.9,248.1v30.5h2
	v-30.5H1016.9z M1017.9,279.6h178.5v-2h-178.5L1017.9,279.6L1017.9,279.6z M1195.4,278.6v60.5h2v-60.5H1195.4z"/>
<path d="M1342.4,298.6v-1h-1v1H1342.4z M1342.4,347.1l5.8-10h-11.5L1342.4,347.1z M1654.9,298.6h1v-1h-1V298.6z M1654.9,347.1
	l5.8-10h-11.5L1654.9,347.1z M1568.9,267.1v31.5h2v-31.5H1568.9z M1341.4,298.6v39.5h2v-39.5H1341.4z M1569.9,297.6h-66v2h66V297.6z
	 M1503.9,297.6h-161.5v2h161.5V297.6z M1569.9,299.6h85v-2h-85V299.6z M1653.9,298.6v39.5h2v-39.5H1653.9z"/>
<path d="M1814.9,348.1l5.8-10h-11.5L1814.9,348.1z M1814.9,280.6v-1h-1v1H1814.9z M1865.4,280.6v1h1v-1H1865.4z M1813.9,280.6v58.5
	h2v-58.5H1813.9z M1864.4,238.6v42h2v-42H1864.4z M1865.4,279.6h-50.5v2h50.5V279.6z"/>
<path d="M412.8,360.4c1.7,0,3.4-0.7,4.6-1.9c1.2-1.2,1.9-2.9,1.9-4.6s-0.7-3.4-1.9-4.6c-1.2-1.2-2.9-1.9-4.6-1.9s-3.4,0.7-4.6,1.9
	c-1.2,1.2-1.9,2.9-1.9,4.6s0.7,3.4,1.9,4.6C409.4,359.7,411.1,360.4,412.8,360.4z"/>
<path class="st10" d="M412.8,381.4c1.7,0,3.4-0.7,4.6-1.9c1.2-1.2,1.9-2.9,1.9-4.6s-0.7-3.4-1.9-4.6c-1.2-1.2-2.9-1.9-4.6-1.9
	s-3.4,0.7-4.6,1.9c-1.2,1.2-1.9,2.9-1.9,4.6s0.7,3.4,1.9,4.6C409.4,380.7,411.1,381.4,412.8,381.4z"/>
<path class="st10" d="M517.8,361.4c1.7,0,3.4-0.7,4.6-1.9c1.2-1.2,1.9-2.9,1.9-4.6s-0.7-3.4-1.9-4.6s-2.9-1.9-4.6-1.9
	s-3.4,0.7-4.6,1.9c-1.2,1.2-1.9,2.9-1.9,4.6s0.7,3.4,1.9,4.6S516.1,361.4,517.8,361.4z"/>
<path class="st10" d="M499.8,361.4c1.7,0,3.4-0.7,4.6-1.9c1.2-1.2,1.9-2.9,1.9-4.6s-0.7-3.4-1.9-4.6s-2.9-1.9-4.6-1.9
	s-3.4,0.7-4.6,1.9c-1.2,1.2-1.9,2.9-1.9,4.6s0.7,3.4,1.9,4.6C496.4,360.7,498.1,361.4,499.8,361.4z"/>
<path d="M427.8,373.4c1.7,0,3.4-0.7,4.6-1.9c1.2-1.2,1.9-2.9,1.9-4.6s-0.7-3.4-1.9-4.6c-1.2-1.2-2.9-1.9-4.6-1.9s-3.4,0.7-4.6,1.9
	c-1.2,1.2-1.9,2.9-1.9,4.6s0.7,3.4,1.9,4.6C424.4,372.7,426.1,373.4,427.8,373.4z"/>
<path class="st10" d="M431.8,351.4c1.7,0,3.4-0.7,4.6-1.9c1.2-1.2,1.9-2.9,1.9-4.6s-0.7-3.4-1.9-4.6c-1.2-1.2-2.9-1.9-4.6-1.9
	s-3.4,0.7-4.6,1.9c-1.2,1.2-1.9,2.9-1.9,4.6s0.7,3.4,1.9,4.6C428.4,350.7,430.1,351.4,431.8,351.4z"/>
<path class="st10" d="M481.8,361.4c1.7,0,3.4-0.7,4.6-1.9c1.2-1.2,1.9-2.9,1.9-4.6s-0.7-3.4-1.9-4.6c-1.2-1.2-2.9-1.9-4.6-1.9
	s-3.4,0.7-4.6,1.9c-1.2,1.2-1.9,2.9-1.9,4.6s0.7,3.4,1.9,4.6C478.4,360.7,480.1,361.4,481.8,361.4z"/>
<path d="M444.8,364.4c1.7,0,3.4-0.7,4.6-1.9c1.2-1.2,1.9-2.9,1.9-4.6s-0.7-3.4-1.9-4.6c-1.2-1.2-2.9-1.9-4.6-1.9s-3.4,0.7-4.6,1.9
	c-1.2,1.2-1.9,2.9-1.9,4.6s0.7,3.4,1.9,4.6C441.4,363.7,443.1,364.4,444.8,364.4z"/>
<path class="st10" d="M440.8,387.4c1.7,0,3.4-0.7,4.6-1.9c1.2-1.2,1.9-2.9,1.9-4.6s-0.7-3.4-1.9-4.6c-1.2-1.2-2.9-1.9-4.6-1.9
	s-3.4,0.7-4.6,1.9c-1.2,1.2-1.9,2.9-1.9,4.6s0.7,3.4,1.9,4.6C437.4,386.7,439.1,387.4,440.8,387.4z"/>
<path d="M424.8,395.4c1.7,0,3.4-0.7,4.6-1.9c1.2-1.2,1.9-2.9,1.9-4.6s-0.7-3.4-1.9-4.6c-1.2-1.2-2.9-1.9-4.6-1.9s-3.4,0.7-4.6,1.9
	c-1.2,1.2-1.9,2.9-1.9,4.6s0.7,3.4,1.9,4.6C421.4,394.7,423.1,395.4,424.8,395.4z"/>
<path d="M481.8,387.4c1.7,0,3.4-0.7,4.6-1.9c1.2-1.2,1.9-2.9,1.9-4.6s-0.7-3.4-1.9-4.6c-1.2-1.2-2.9-1.9-4.6-1.9s-3.4,0.7-4.6,1.9
	c-1.2,1.2-1.9,2.9-1.9,4.6s0.7,3.4,1.9,4.6C478.4,386.7,480.1,387.4,481.8,387.4z"/>
<path d="M499.8,387.4c1.7,0,3.4-0.7,4.6-1.9c1.2-1.2,1.9-2.9,1.9-4.6s-0.7-3.4-1.9-4.6s-2.9-1.9-4.6-1.9s-3.4,0.7-4.6,1.9
	c-1.2,1.2-1.9,2.9-1.9,4.6s0.7,3.4,1.9,4.6C496.4,386.7,498.1,387.4,499.8,387.4z"/>
<path d="M517.8,387.4c1.7,0,3.4-0.7,4.6-1.9c1.2-1.2,1.9-2.9,1.9-4.6s-0.7-3.4-1.9-4.6s-2.9-1.9-4.6-1.9s-3.4,0.7-4.6,1.9
	c-1.2,1.2-1.9,2.9-1.9,4.6s0.7,3.4,1.9,4.6S516.1,387.4,517.8,387.4z"/>
<path d="M535.8,387.4c1.7,0,3.4-0.7,4.6-1.9c1.2-1.2,1.9-2.9,1.9-4.6s-0.7-3.4-1.9-4.6s-2.9-1.9-4.6-1.9s-3.4,0.7-4.6,1.9
	c-1.2,1.2-1.9,2.9-1.9,4.6s0.7,3.4,1.9,4.6S534.1,387.4,535.8,387.4z"/>
<path class="st11" d="M449.3,325h28c1.9,0,3.5,1.6,3.5,3.5v77c0,1.9-1.6,3.5-3.5,3.5h-28c-1.9,0-3.5-1.6-3.5-3.5v-77
	C445.8,326.5,447.4,325,449.3,325z"/>
<text transform="matrix(1 0 0 1 459.26 338.41)" class="st12 st1 st13">D</text>
<text transform="matrix(1 0 0 1 459.26 354.41)" class="st12 st1 st13">E</text>
<text transform="matrix(1 0 0 1 459.26 370.41)" class="st12 st1 st13">M</text>
<text transform="matrix(1 0 0 1 459.26 386.41)" class="st12 st1 st13">U</text>
<text transform="matrix(1 0 0 1 459.26 402.41)" class="st12 st1 st13">X</text>
<text transform="matrix(1 0 0 1 406.78 438.22)" class="st1 st2">Demultiplexing</text>
<text transform="matrix(1 0 0 1 1793.8 219.84)" class="st1 st2">Cell type annotation</text>
<path d="M1866.8,142c-0.3-0.5-0.8-0.7-1.3-0.7h-12.4c-2.3,0-4.4,1.2-5.5,3l-4.8,7.9c-1.1,1.9-1.1,4.2,0,6.1l4.8,7.9
	c1.1,1.9,3.2,3,5.5,3h12.4c0.6,0,1.1-0.3,1.3-0.7l7.8-12.4c0.3-0.5,0.3-1.1,0-1.5L1866.8,142z M1864.5,166.1H1853
	c-1.2,0-2.2-0.6-2.8-1.5l-4.8-7.9c-0.6-0.9-0.6-2.1,0-3.1l4.8-7.9c0.6-0.9,1.7-1.5,2.8-1.5h11.5l6.9,10.9L1864.5,166.1z"/>
<path d="M1913.6,132.6l-9.8-15.6l3.2-6c0.4-0.7,0.1-1.6-0.7-2c-0.8-0.4-1.7-0.1-2.1,0.6l-3.2,6l-20.9,1l-5.1-5.7
	c-0.6-0.6-1.6-0.7-2.2-0.2c-0.7,0.5-0.7,1.5-0.2,2.1l4.9,5.5l-8.6,15.3c-0.3,0.6-0.5,1.2-0.6,1.8c-0.6-0.2-1.3-0.3-2-0.3h-18.9
	l-3.7-4.8c-0.5-0.7-1.5-0.8-2.2-0.3s-0.8,1.4-0.3,2.1l3.6,4.6l-9.4,15.4c-1.1,1.9-1.1,4.2,0,6.1l9.3,15.4l-3.6,4.6
	c-0.5,0.7-0.4,1.6,0.3,2.1c0.7,0.5,1.7,0.4,2.2-0.3l3.7-4.8h20.7l2.7,4.6c0.4,0.7,1.4,1,2.1,0.6c0.8-0.4,1-1.3,0.6-2l-2.7-4.6
	l9.7-15.4c0.4-0.6,0.7-1.3,0.8-2c0.7,0.2,1.4,0.3,2.2,0.3l18.8-0.6l4.7,6.1c0.5,0.7,1.5,0.8,2.2,0.3s0.8-1.4,0.3-2.1l-4.6-5.9
	l8.8-15.8C1914.8,136.7,1914.7,134.4,1913.6,132.6L1913.6,132.6L1913.6,132.6z M1877.8,156.7l-9.7,15.5h-20.7l-9.4-15.5
	c-0.6-0.9-0.6-2.1,0-3.1l9.4-15.5h18.8c1.1,0,2.2,0.6,2.8,1.5l8.8,14C1878.5,154.6,1878.5,155.8,1877.8,156.7L1877.8,156.7
	L1877.8,156.7z M1911,137.2l-8.9,15.8l-18.7,0.6c-1.2,0-2.3-0.5-2.9-1.5l0,0l-8.8-14l0,0c-0.6-0.9-0.6-2.1-0.1-3l8.6-15.5l20.8-0.9
	l9.8,15.5C1911.5,135.1,1911.5,136.2,1911,137.2L1911,137.2L1911,137.2z"/>
<path d="M1901.3,124.9c-1.2-1.9-3.4-3-5.8-2.9l-9.6,0.4c-2.2,0.1-4.3,1.3-5.3,3.2l-4.4,7.9c-1,1.8-1,4.1,0.1,5.9l5,8.2
	c1.2,2,3.4,3.1,5.7,3l9.3-0.3c2.3-0.1,4.4-1.3,5.4-3.2l4.6-8.3c1-1.9,0.9-4.1-0.2-5.9L1901.3,124.9L1901.3,124.9z M1903.7,137.4
	l-4.6,8.3c-0.5,1-1.6,1.6-2.8,1.6l-9.3,0.3c-1.2,0-2.3-0.5-2.9-1.5l-5-8.2c-0.6-0.9-0.6-2.1-0.1-3l4.4-7.9c0.5-1,1.6-1.6,2.7-1.6
	l9.6-0.4c1.2-0.1,2.3,0.5,2.9,1.5l5,7.9C1904.2,135.3,1904.2,136.4,1903.7,137.4L1903.7,137.4L1903.7,137.4z"/>
<path d="M1891.3,127.9c-3.6,0-6.4,2-6.4,4.5s2.8,4.5,6.4,4.5s6.4-2,6.4-4.5C1897.6,129.9,1894.9,127.9,1891.3,127.9z M1891.3,134
	c-2,0-3.2-0.9-3.2-1.6c0-0.6,1.3-1.6,3.2-1.6s3.2,0.9,3.2,1.6S1893.3,134,1891.3,134z"/>
<path d="M1857.3,147.9c-3.6,0-6.4,2-6.4,4.5s2.8,4.5,6.4,4.5s6.4-2,6.4-4.5C1863.6,149.8,1860.8,147.9,1857.3,147.9z M1857.3,153.9
	c-2,0-3.2-0.9-3.2-1.6c0-0.6,1.3-1.6,3.2-1.6s3.2,0.9,3.2,1.6S1859.2,153.9,1857.3,153.9z"/>
<path d="M1863,161.4c0,0.8-0.7,1.5-1.6,1.5s-1.6-0.7-1.6-1.5s0.7-1.5,1.6-1.5S1863,160.6,1863,161.4z"/>
<path d="M1896.2,142.4c0,0.8-0.7,1.5-1.6,1.5s-1.6-0.7-1.6-1.5s0.7-1.5,1.6-1.5S1896.2,141.5,1896.2,142.4z"/>
<path class="st14" d="M1912.4,99.1h-18v15"/>
<path class="st14" d="M1914.4,178.1h-24v-18"/>
<path class="st14" d="M1871.4,125.1h-23v-18"/>
<path class="st15" d="M1915.4,92.1h34v11h-34V92.1z"/>
<path class="st15" d="M1916.4,171.1h32v13h-32V171.1z"/>
<path class="st15" d="M1832.4,92.1h27v11h-27V92.1z"/>
<path class="st15" d="M1801.4,165.1h27v10h-27V165.1z"/>
<path class="st14" d="M1836.4,147.1h-22v15"/>
<path d="M741.1,350.7v0.8h1.3v-0.8H741.1z M741.1,235.7l-7.5,7.8h15.1L741.1,235.7z M553.3,351.5H741v-1.6H553.3V351.5z
	 M742.4,350.7V242.8h-2.6v107.9H742.4z"/>
<text transform="matrix(1 0 0 1 798.83 443.53)" class="st3 st6 st7">SCE Output Data</text>
<g class="st0">
	<text transform="matrix(1 0 0 1 29 282.2)" class="st1 st2">Input</text>
	<text transform="matrix(1 0 0 1 0 303.8)" class="st1 st2">H</text>
	<text transform="matrix(1 0 0 1 13 303.8)" class="st1 st2">T</text>
	<text transform="matrix(1 0 0 1 23.67 303.8)" class="st1 st2">O </text>
	<text transform="matrix(1 0 0 1 42.67 303.8)" class="st1 st2 st8">F</text>
	<text transform="matrix(1 0 0 1 52.67 303.8)" class="st1 st2">ASTQ</text>
</g>
<path d="M83.4,224.2H81v-23.3c0-0.3-0.1-0.7-0.4-0.9l-18.5-18.2c-0.2-0.2-0.5-0.4-0.9-0.4H29.3c-4,0-7.3,3.4-7.3,7.6v35.2h-2.4
	c-0.7,0-1.3,0.5-1.3,1.2v20.7c0,0.7,0.6,1.2,1.3,1.2H22v4.3c0,4.2,3.3,7.6,7.3,7.6h44.3c4,0,7.3-3.4,7.3-7.6v-4.3h2.5
	c0.7,0,1.3-0.5,1.3-1.2v-20.8C84.7,224.6,84.1,224.2,83.4,224.2L83.4,224.2z M62.3,185.6l14.4,14.1H65.1c-0.8,0-1.5-0.3-2-0.9
	c-0.5-0.5-0.8-1.3-0.8-2V185.6L62.3,185.6z M24.5,189c0-2.8,2.2-5.1,4.8-5.1h30.5v12.8c0,1.4,0.5,2.8,1.5,3.8s2.4,1.6,3.8,1.6h13.4
	v22.1h-54V189L24.5,189z M78.5,251.6c0,2.8-2.2,5.1-4.8,5.1H29.3c-2.6,0-4.8-2.3-4.8-5.1v-4.3h54V251.6z M82.2,244.8H20.8v-18.2
	h61.4C82.2,226.6,82.2,244.8,82.2,244.8z"/>
<text transform="matrix(1 0 0 1 27.49 241.45)" class="st1 st4">F</text>
<text transform="matrix(1 0 0 1 36.38 241.45)" class="st1 st4">ASTQ</text>
<path d="M394.6,348.1l-7.7-7.3v14.6L394.6,348.1L394.6,348.1z M263.6,240.4h0.8v-1.3h-0.8V240.4z M263.6,450v1.3h0.8V450H263.6z
	 M263.6,349.3h124.1v-2.5H263.6V349.3z M264.4,348.1V240.4h-1.5v107.7H264.4z M263.6,239.1h-61.7v2.5h61.7V239.1z M262.9,348.1v102
	h1.5v-102H262.9z M263.6,448.8h-61.7v2.5h61.7V448.8z"/>
<text transform="matrix(1 0 0 1 391.97 261.56)" class="st1 st2">H</text>
<text transform="matrix(1 0 0 1 404.97 261.56)" class="st1 st2">T</text>
<text transform="matrix(1 0 0 1 415.64 261.56)" class="st1 st2">O by cell count</text>
<text transform="matrix(1 0 0 1 442.07 282.56)" class="st1 st2">matrix</text>
<path d="M498.4,191.2H496v-23.3c0-0.3-0.1-0.7-0.4-0.9l-18.5-18.2c-0.2-0.2-0.5-0.4-0.9-0.4h-31.8c-4,0-7.3,3.4-7.3,7.6v35.2h-2.4
	c-0.7,0-1.3,0.5-1.3,1.2v20.8c0,0.7,0.6,1.2,1.3,1.2h2.4v4.3c0,4.2,3.3,7.6,7.3,7.6h44.3c4,0,7.3-3.4,7.3-7.6v-4.3h2.4
	c0.7,0,1.3-0.5,1.3-1.2v-20.8C499.7,191.7,499.1,191.2,498.4,191.2L498.4,191.2L498.4,191.2z M477.3,152.6l14.4,14.1h-11.6
	c-0.8,0-1.5-0.3-2-0.9c-0.5-0.5-0.8-1.3-0.8-2V152.6L477.3,152.6z M439.5,156c0-2.8,2.2-5.1,4.8-5.1h30.5v12.8
	c0,1.4,0.5,2.8,1.5,3.8s2.4,1.6,3.8,1.6h13.4v22.1h-54L439.5,156L439.5,156L439.5,156z M493.5,218.6c0,2.8-2.2,5.1-4.8,5.1h-44.3
	c-2.6,0-4.8-2.3-4.8-5.1v-4.3h54v4.3H493.5L493.5,218.6z M497.3,211.9h-61.4v-18.2h61.4V211.9z"/>
<text transform="matrix(1 0 0 1 450.56 209.47)" class="st1 st4">MTX</text>
<path d="M471.2,160.8h-26.4c-1,0-1.7,0.8-1.7,1.7v28c0,1,0.8,1.7,1.7,1.7h26.4c1,0,1.7-0.8,1.7-1.7v-28
	C472.9,161.6,472.2,160.8,471.2,160.8L471.2,160.8z M472,170.2h-6.2V167h6.2V170.2z M472,174.4h-6.2v-3.3h6.2V174.4z M472,178.6
	h-6.2v-3.2h6.2V178.6z M472,182.8h-6.2v-3.2h6.2V182.8z M444,179.6h6.2v3.2H444V179.6z M444,175.4h6.2v3.2H444V175.4z M444,171.1
	h6.2v3.2H444V171.1z M451.3,175.4h6.2v3.2h-6.2V175.4z M458.5,175.4h6.2v3.2h-6.2V175.4z M464.7,174.4h-6.2v-3.3h6.2V174.4z
	 M457.5,174.4h-6.2v-3.3h6.2V174.4z M451.3,179.6h6.2v3.2h-6.2V179.6z M458.5,179.6h6.2v3.2h-6.2V179.6z M464.7,170.2h-6.2V167h6.2
	V170.2z M457.5,170.2h-6.2V167h6.2V170.2z M450.3,170.2h-6.2V167h6.2V170.2z M444,183.8h6.2v3.2H444V183.8z M451.3,183.8h6.2v3.2
	h-6.2V183.8z M458.5,183.8h6.2v3.2h-6.2V183.8z M465.7,183.8h6.2v3.2h-6.2V183.8z M472,162.5v3.3h-6.2v-4.1h5.5
	C471.6,161.8,472,162.1,472,162.5L472,162.5z M464.7,165.9h-6.2v-4.1h6.2V165.9z M457.5,165.9h-6.2v-4.1h6.2V165.9z M444,162.5
	c0-0.4,0.3-0.7,0.7-0.7h5.5v4.1H444V162.5L444,162.5z M444,190.6v-2.5h6.2v3.2h-5.5C444.4,191.3,444,190.9,444,190.6L444,190.6z
	 M451.3,188h6.2v3.2h-6.2V188z M458.5,188h6.2v3.2h-6.2V188z M472,190.6c0,0.4-0.3,0.7-0.7,0.7h-5.5v-3.2h6.2V190.6z"/>
<path d="M453.4,164.4h2c0.3,0,0.5-0.2,0.5-0.5s-0.2-0.5-0.5-0.5h-2c-0.3,0-0.5,0.2-0.5,0.5S453.1,164.4,453.4,164.4z"/>
<path d="M460.6,164.4h2c0.3,0,0.5-0.2,0.5-0.5s-0.2-0.5-0.5-0.5h-2c-0.3,0-0.5,0.2-0.5,0.5S460.3,164.4,460.6,164.4z"/>
<path d="M467.8,164.4h2c0.3,0,0.5-0.2,0.5-0.5s-0.2-0.5-0.5-0.5h-2c-0.3,0-0.5,0.2-0.5,0.5S467.6,164.4,467.8,164.4z"/>
<path d="M706.1,129.7l-7.7-5v10.1L706.1,129.7z M575.1,55.1h0.8v-0.9h-0.8V55.1z M575.1,200.1v0.9h0.8v-0.9H575.1z M575.1,130.5
	h124.1v-1.7H575.1V130.5z M575.9,129.7V55.1h-1.5v74.5L575.9,129.7L575.9,129.7z M575.1,54.3h-61.7V56h61.7V54.3z M574.3,129.7v70.5
	h1.5v-70.5L574.3,129.7L574.3,129.7z M575.1,199.3h-61.7v1.7h61.7V199.3z"/>
</svg>
