<?xml version="1.0" encoding="UTF-8"?>
<svg id="Layer_1" data-name="Layer 1" xmlns="http://www.w3.org/2000/svg" viewBox="0 0 2300 1000">
  <defs>
    <style>
      .cls-1 {
        letter-spacing: -.02em;
      }

      .cls-2 {
        letter-spacing: -.02em;
      }

      .cls-3 {
        font-size: 22.34px;
      }

      .cls-3, .cls-4, .cls-5, .cls-6, .cls-7, .cls-8, .cls-9 {
        fill: #010101;
      }

      .cls-3, .cls-10, .cls-6, .cls-11, .cls-12, .cls-13, .cls-8, .cls-9 {
        isolation: isolate;
      }

      .cls-3, .cls-6, .cls-11, .cls-13, .cls-8, .cls-9 {
        font-family: ArialMT, Arial;
      }

      .cls-14, .cls-15 {
        stroke: #010101;
        stroke-width: 2px;
      }

      .cls-14, .cls-15, .cls-16 {
        fill: none;
      }

      .cls-17 {
        letter-spacing: 0em;
      }

      .cls-18 {
        letter-spacing: 0em;
      }

      .cls-5 {
        stroke: #000;
        stroke-miterlimit: 10;
        stroke-width: .25px;
      }

      .cls-19 {
        letter-spacing: -.02em;
      }

      .cls-20 {
        letter-spacing: -.02em;
      }

      .cls-15 {
        stroke-linecap: round;
        stroke-linejoin: round;
      }

      .cls-21 {
        letter-spacing: -.04em;
      }

      .cls-22 {
        letter-spacing: -.04em;
      }

      .cls-23 {
        letter-spacing: -.06em;
      }

      .cls-10 {
        font-family: Arial-BoldMT, Arial;
        font-size: 20.39px;
        font-weight: 700;
      }

      .cls-10, .cls-11, .cls-13 {
        fill: #276242;
      }

      .cls-24 {
        letter-spacing: -.06em;
      }

      .cls-25 {
        letter-spacing: -.06em;
      }

      .cls-26 {
        letter-spacing: -.06em;
      }

      .cls-27 {
        letter-spacing: -.06em;
      }

      .cls-6, .cls-11 {
        font-size: 25.88px;
      }

      .cls-7 {
        fill-rule: evenodd;
      }

      .cls-16 {
        stroke: #276242;
        stroke-width: 3px;
      }

      .cls-13, .cls-8 {
        font-size: 22.19px;
      }

      .cls-9 {
        font-size: 16.31px;
      }
    </style>
  </defs>
  <text class="cls-11" transform="translate(805.69 291.47)"><tspan x="0" y="0">SingleCellExperiment (SCE)</tspan></text>
  <text class="cls-6" transform="translate(1029.7 291.47)"><tspan x="0" y="0"> </tspan></text>
  <text class="cls-6" transform="translate(892.4 312.89)"><tspan x="0" y="0">object</tspan></text>
  <g>
    <path class="cls-4" d="m964.5,214.36h-2.46v-23.79c0-.34-.15-.67-.41-.89l-18.91-18.54c-.22-.22-.56-.37-.89-.37h-32.43c-4.1,0-7.45,3.46-7.45,7.71v35.85h-2.46c-.71,0-1.3.48-1.3,1.19v21.26c0,.71.6,1.19,1.3,1.19h2.46v4.39c0,4.24,3.39,7.71,7.45,7.71h45.2c4.1,0,7.45-3.46,7.45-7.71v-4.39h2.46c.71,0,1.3-.48,1.3-1.19v-21.26c0-.67-.6-1.15-1.3-1.15h0Zm-21.52-39.35l14.74,14.33h-11.84c-.78,0-1.53-.34-2.05-.89-.56-.56-.86-1.3-.82-2.08v-11.35h-.04Zm-38.53,3.46c0-2.87,2.23-5.21,4.95-5.21h31.09v13.07c0,1.45.56,2.83,1.56,3.87,1.01,1.04,2.38,1.6,3.83,1.64h13.63v22.49h-55.06v-35.85h0Zm55.06,63.88c0,2.87-2.23,5.21-4.95,5.21h-45.2c-2.68,0-4.95-2.35-4.95-5.21v-4.39h55.06v4.39h.04Zm3.76-6.92h-62.62v-18.58h62.62v18.58Z"/>
    <text class="cls-9" transform="translate(917.85 232.23)"><tspan x="0" y="0">OBJ</tspan></text>
    <path class="cls-4" d="m922.36,180.18v-3.39c-.52.07-1.08.15-1.6.26v2.46l-13.14,13.14h-2.46c-.11.52-.19,1.04-.26,1.6h3.39l14.07-14.07Z"/>
    <path class="cls-4" d="m917.78,209.56l-1.9,5.03c.48.22.97.45,1.45.67l1.6-4.28,15.82-3.24,4.36,3.2c.07-.07.78-1.41.78-1.41l-5.06-3.5-17.05,3.54Z"/>
    <path class="cls-4" d="m938.29,190.72l4.39-2.9c-.22-.45-.45-.89-.71-1.3l-.07-.11-5.1,3.39-1.71,14.44,5.84,4.17c.3-.45.6-.86.89-1.34l-5.03-3.57,1.49-12.77Z"/>
    <path class="cls-4" d="m941.12,185.4l-.37-.71c-.15-.22-.34-.45-.52-.63l-4.24,2.12-11.24-6.74v-2.75c-.52,0-1.08.04-1.6.07v3.57l12.77,7.67,5.21-2.61Z"/>
    <path class="cls-4" d="m919.94,191.06c-3.09,0-5.58,2.49-5.58,5.58s2.49,5.58,5.58,5.58,5.58-2.49,5.58-5.58c.04-3.05-2.49-5.58-5.58-5.58Zm0,9.6c-2.2,0-3.98-1.79-3.98-3.98s1.79-3.98,3.98-3.98,3.98,1.79,3.98,3.98c.04,2.2-1.75,3.98-3.98,3.98Z"/>
    <path class="cls-4" d="m927.57,191.87c1.53,0,2.79-1.27,2.79-2.79s-1.27-2.79-2.79-2.79-2.79,1.27-2.79,2.79c-.04,1.53,1.23,2.79,2.79,2.79Zm0-4.02c.67,0,1.19.52,1.19,1.19s-.52,1.19-1.19,1.19-1.19-.52-1.19-1.19c-.04-.63.52-1.19,1.19-1.19Z"/>
    <path class="cls-4" d="m932.22,198.24l-.26-.74-.26-.74c-.11.04-2.61.89-3.39,2.98-.45,1.15-.26,2.46.56,3.8l1.38-.82c-.56-.89-.67-1.71-.45-2.38.48-1.45,2.38-2.08,2.42-2.08Z"/>
    <path class="cls-4" d="m943.95,198.28c0,.89-.71,1.6-1.6,1.6s-1.6-.71-1.6-1.6.71-1.6,1.6-1.6,1.6.71,1.6,1.6Z"/>
    <path class="cls-4" d="m928.76,211.87c-2.2,0-3.98,1.79-3.98,3.98,0,.26.04.52.07.78.56,0,1.12-.04,1.64-.07-.07-.22-.11-.48-.11-.71,0-1.34,1.08-2.38,2.38-2.38,1.23,0,2.23.93,2.38,2.16.52-.19,1.04-.37,1.53-.6-.41-1.82-2.01-3.16-3.91-3.16Z"/>
    <path class="cls-4" d="m906.76,203.86c-.22,0-.41.04-.63.11.48,1.23,1.08,2.42,1.79,3.5.48-.37.82-.93.82-1.6.04-1.12-.86-2.01-1.97-2.01h0Z"/>
    <path class="cls-4" d="m912.6,181.3l1.12,1.12-4.39,4.39-1.12-1.12,4.39-4.39Z"/>
    <path class="cls-4" d="m908.44,195.08h-3.57c-.04.52-.07,1.04-.07,1.6h2.75l7.56,12.88-1.41,3.76c.45.3.93.6,1.38.86l1.79-4.77-8.41-14.33Z"/>
  </g>
  <rect class="cls-16" x="1167.02" y="424.03" width="462.94" height="168.24"/>
  <text class="cls-10" transform="translate(970.62 526.45)"><tspan x="0" y="0">SCE Output Data</tspan></text>
  <text class="cls-10" transform="translate(1132.48 721.21)"><tspan x="0" y="0">AnnData RN</tspan><tspan class="cls-22" x="118.96" y="0">A</tspan><tspan class="cls-17" x="132.94" y="0" xml:space="preserve"> Outputs</tspan></text>
  <text class="cls-10" transform="translate(1430.34 722.22)"><tspan x="0" y="0">AnnData</tspan><tspan class="cls-22" x="83.84" y="0"> </tspan><tspan x="88.75" y="0">ADT Outputs</tspan></text>
  <rect class="cls-16" x="1793.09" y="424.03" width="299.8" height="168.24"/>
  <text class="cls-10" transform="translate(1700.5 526.45)"><tspan x="0" y="0">Reports</tspan></text>
  <text class="cls-13" transform="translate(1198.06 566.53)"><tspan x="0" y="0">SCE</tspan></text>
  <text class="cls-8" transform="translate(1210.42 545.12)"><tspan x="0" y="0">Unfiltered </tspan></text>
  <text class="cls-8" transform="translate(1243.21 566.53)"><tspan x="0" y="0" xml:space="preserve"> Object</tspan></text>
  <g>
    <path class="cls-4" d="m1273.61,488.06h-2.08v-20.14c0-.3-.15-.56-.34-.74l-16.05-15.75c-.19-.19-.48-.3-.78-.3h-27.51c-3.46,0-6.33,2.94-6.33,6.55v30.42h-2.08c-.6,0-1.12.41-1.12,1.01v18.02c0,.6.52,1.01,1.12,1.01h2.08v3.72c0,3.61,2.87,6.55,6.33,6.55h38.31c3.46,0,6.33-2.94,6.33-6.55v-3.72h2.08c.6,0,1.12-.41,1.12-1.01v-18.02c.04-.63-.48-1.04-1.08-1.04h0Zm-18.24-33.39l12.51,12.17h-10.05c-.67,0-1.3-.26-1.75-.74s-.71-1.12-.71-1.79v-9.64h0Zm-32.69,2.94c0-2.42,1.9-4.39,4.21-4.39h26.36v11.09c0,1.23.48,2.42,1.34,3.28.86.86,2.05,1.38,3.28,1.38h11.54v19.1h-46.68v-30.45h-.04Zm46.72,54.17c0,2.42-1.9,4.39-4.21,4.39h-38.31c-2.27,0-4.21-1.97-4.21-4.39v-3.72h46.68v3.72h.04Zm3.2-5.84h-53.09v-15.75h53.09v15.75Z"/>
    <text class="cls-9" transform="translate(1231.85 504.34)"><tspan x="0" y="0">RDS</tspan></text>
    <path class="cls-4" d="m1237.87,459.1v-2.87c-.45.04-.89.11-1.34.22v2.08l-11.13,11.13h-2.08c-.07.45-.15.89-.22,1.34h2.87l11.91-11.91Z"/>
    <path class="cls-4" d="m1234,483.97l-1.6,4.24c.41.19.82.37,1.23.56l1.34-3.61,13.44-2.72,3.69,2.72c.04-.07.67-1.19.67-1.19l-4.28-2.94-14.48,2.94Z"/>
    <path class="cls-4" d="m1251.38,468l3.72-2.49c-.19-.37-.37-.74-.6-1.12l-.04-.07-4.32,2.9-1.45,12.25,4.95,3.54c.26-.37.52-.74.74-1.12l-4.24-3.05,1.23-10.83Z"/>
    <path class="cls-4" d="m1253.77,463.49l-.3-.6c-.15-.19-.3-.37-.45-.56l-3.61,1.82-9.53-5.73v-2.35c-.45,0-.89.04-1.34.07v3.05l10.83,6.48,4.39-2.2Z"/>
    <path class="cls-4" d="m1235.82,468.3c-2.61,0-4.73,2.12-4.73,4.77s2.12,4.77,4.73,4.77,4.77-2.12,4.77-4.77-2.12-4.77-4.77-4.77Zm0,8.15c-1.86,0-3.39-1.53-3.39-3.39s1.53-3.39,3.39-3.39,3.39,1.53,3.39,3.39c.04,1.86-1.49,3.39-3.39,3.39Z"/>
    <path class="cls-4" d="m1242.3,468.97c1.3,0,2.38-1.08,2.38-2.38s-1.04-2.38-2.38-2.38-2.38,1.08-2.38,2.38,1.04,2.38,2.38,2.38Zm0-3.39c.56,0,1.01.45,1.01,1.01s-.45,1.01-1.01,1.01-1.01-.45-1.01-1.01c-.04-.56.41-1.01,1.01-1.01Z"/>
    <path class="cls-4" d="m1246.25,474.36l-.22-.63-.22-.63c-.07.04-2.23.74-2.87,2.53-.37,1.01-.19,2.08.48,3.2l1.15-.71c-.45-.78-.6-1.45-.37-2.05.41-1.15,2.01-1.71,2.05-1.71Z"/>
    <path class="cls-4" d="m1256.19,474.4c0,.74-.6,1.34-1.34,1.34s-1.34-.6-1.34-1.34.6-1.34,1.34-1.34,1.34.6,1.34,1.34Z"/>
    <path class="cls-4" d="m1243.3,485.94c-1.86,0-3.39,1.53-3.39,3.39,0,.22.04.45.07.67.48,0,.93-.04,1.41-.07-.07-.19-.11-.41-.11-.6,0-1.12.93-2.05,2.05-2.05,1.04,0,1.9.82,2.01,1.82.45-.15.89-.3,1.3-.48-.37-1.53-1.71-2.68-3.35-2.68Z"/>
    <path class="cls-4" d="m1224.65,479.17c-.19,0-.37.04-.52.07.41,1.04.93,2.05,1.53,2.98.41-.3.71-.82.71-1.38-.04-.93-.78-1.68-1.71-1.68h0Z"/>
    <path class="cls-4" d="m1229.6,460.03l.97.97-3.72,3.72-.97-.97,3.72-3.72Z"/>
    <path class="cls-4" d="m1226.07,471.68h-3.05c-.04.45-.07.89-.07,1.34h2.35l6.4,10.91-1.19,3.2c.37.26.78.48,1.19.71l1.53-4.06-7.15-12.1Z"/>
  </g>
  <text class="cls-13" transform="translate(1347.95 566.53)"><tspan x="0" y="0">SCE</tspan></text>
  <text class="cls-8" transform="translate(1368.99 545.11)"><tspan x="0" y="0">Filtered </tspan></text>
  <text class="cls-8" transform="translate(1393.09 566.53)"><tspan x="0" y="0" xml:space="preserve"> Object</tspan></text>
  <g>
    <path class="cls-4" d="m1426.58,488.06h-2.08v-20.14c0-.3-.15-.56-.34-.74l-16.05-15.75c-.19-.19-.48-.3-.78-.3h-27.51c-3.46,0-6.33,2.94-6.33,6.55v30.42h-2.08c-.6,0-1.12.41-1.12,1.01v18.02c0,.6.52,1.01,1.12,1.01h2.08v3.72c0,3.61,2.87,6.55,6.33,6.55h38.31c3.46,0,6.33-2.94,6.33-6.55v-3.72h2.08c.6,0,1.12-.41,1.12-1.01v-18.02c0-.63-.48-1.04-1.08-1.04h0Zm-18.24-33.39l12.51,12.17h-10.05c-.67,0-1.3-.26-1.75-.74s-.71-1.12-.71-1.79v-9.64h0Zm-32.69,2.94c0-2.42,1.9-4.39,4.21-4.39h26.36v11.09c0,1.23.48,2.42,1.34,3.28.86.86,2.05,1.38,3.28,1.38h11.54v19.1h-46.68v-30.45h-.04Zm46.68,54.17c0,2.42-1.9,4.39-4.21,4.39h-38.31c-2.27,0-4.21-1.97-4.21-4.39v-3.72h46.72v3.72Zm3.2-5.84h-53.09v-15.75h53.09v15.75h0Z"/>
    <text class="cls-9" transform="translate(1384.8 504.33)"><tspan x="0" y="0">RDS</tspan></text>
    <path class="cls-4" d="m1390.84,459.1v-2.87c-.45.04-.89.11-1.34.22v2.08l-11.13,11.13h-2.08c-.07.45-.15.89-.22,1.34h2.87l11.91-11.91Z"/>
    <path class="cls-4" d="m1386.93,483.97l-1.6,4.24c.41.19.82.37,1.23.56l1.34-3.61,13.44-2.72,3.69,2.72c.04-.07.67-1.19.67-1.19l-4.28-2.94-14.48,2.94Z"/>
    <path class="cls-4" d="m1404.35,468l3.72-2.49c-.19-.37-.37-.74-.6-1.12l-.04-.07-4.32,2.9-1.45,12.25,4.95,3.54c.26-.37.52-.74.74-1.12l-4.24-3.05,1.23-10.83Z"/>
    <path class="cls-4" d="m1406.74,463.49l-.3-.6c-.15-.19-.3-.37-.45-.56l-3.61,1.82-9.53-5.73v-2.35c-.45,0-.89.04-1.34.07v3.05l10.83,6.48,4.39-2.2Z"/>
    <path class="cls-4" d="m1388.79,468.3c-2.61,0-4.73,2.12-4.73,4.77s2.12,4.77,4.73,4.77,4.77-2.12,4.77-4.77c-.04-2.64-2.16-4.77-4.77-4.77Zm0,8.15c-1.86,0-3.39-1.53-3.39-3.39s1.53-3.39,3.39-3.39,3.39,1.53,3.39,3.39-1.53,3.39-3.39,3.39Z"/>
    <path class="cls-4" d="m1395.23,468.97c1.3,0,2.38-1.08,2.38-2.38s-1.04-2.38-2.38-2.38-2.38,1.08-2.38,2.38,1.08,2.38,2.38,2.38Zm0-3.39c.56,0,1.01.45,1.01,1.01s-.45,1.01-1.01,1.01-1.01-.45-1.01-1.01.45-1.01,1.01-1.01Z"/>
    <path class="cls-4" d="m1399.18,474.36l-.22-.63-.22-.63c-.07.04-2.23.74-2.87,2.53-.37,1.01-.19,2.08.48,3.2l1.15-.71c-.45-.78-.6-1.45-.37-2.05.45-1.15,2.05-1.71,2.05-1.71Z"/>
    <path class="cls-4" d="m1409.16,474.4c0,.74-.6,1.34-1.34,1.34s-1.34-.6-1.34-1.34.6-1.34,1.34-1.34,1.34.6,1.34,1.34Z"/>
    <path class="cls-4" d="m1396.24,485.94c-1.86,0-3.39,1.53-3.39,3.39,0,.22.04.45.07.67.48,0,.93-.04,1.41-.07-.07-.19-.11-.41-.11-.6,0-1.12.93-2.05,2.05-2.05,1.04,0,1.9.82,2.01,1.82.45-.15.89-.3,1.3-.48-.34-1.53-1.71-2.68-3.35-2.68Z"/>
    <path class="cls-4" d="m1377.59,479.17c-.19,0-.37.04-.52.07.41,1.04.93,2.05,1.53,2.98.41-.3.71-.82.71-1.38,0-.93-.74-1.68-1.71-1.68h0Z"/>
    <path class="cls-4" d="m1382.54,460.03l.97.97-3.72,3.72-.97-.97,3.72-3.72Z"/>
    <path class="cls-4" d="m1379,471.68h-3.05c-.04.45-.07.89-.07,1.34h2.35l6.4,10.91-1.19,3.2c.37.26.78.48,1.19.71l1.53-4.06-7.15-12.1Z"/>
  </g>
  <text class="cls-13" transform="translate(1505.49 566.53)"><tspan x="0" y="0">SCE</tspan></text>
  <text class="cls-8" transform="translate(1513.79 545.12)"><tspan x="0" y="0">Processed </tspan></text>
  <text class="cls-8" transform="translate(1550.63 566.53)"><tspan x="0" y="0" xml:space="preserve"> Object</tspan></text>
  <g>
    <path class="cls-4" d="m1587.3,488.06h-2.08v-20.14c0-.3-.15-.56-.34-.74l-16.05-15.75c-.19-.19-.48-.3-.78-.3h-27.51c-3.46,0-6.33,2.94-6.33,6.55v30.42h-2.08c-.6,0-1.12.41-1.12,1.01v18.02c0,.6.52,1.01,1.12,1.01h2.08v3.72c0,3.61,2.87,6.55,6.33,6.55h38.31c3.46,0,6.33-2.94,6.33-6.55v-3.72h2.08c.6,0,1.12-.41,1.12-1.01v-18.02c.04-.63-.48-1.04-1.08-1.04h0Zm-18.24-33.39l12.51,12.17h-10.05c-.67,0-1.3-.26-1.75-.74s-.71-1.12-.71-1.79v-9.64h0Zm-32.69,2.94c0-2.42,1.9-4.39,4.21-4.39h26.36v11.09c0,1.23.48,2.42,1.34,3.28.86.86,2.05,1.38,3.28,1.38h11.54v19.1h-46.68v-30.45h-.04Zm46.68,54.17c0,2.42-1.9,4.39-4.21,4.39h-38.31c-2.27,0-4.21-1.97-4.21-4.39v-3.72h46.68v3.72h.04Zm3.2-5.84h-53.09v-15.75h53.09v15.75Z"/>
    <text class="cls-9" transform="translate(1546.04 504.34)"><tspan x="0" y="0">RDS</tspan></text>
    <path class="cls-4" d="m1551.56,459.1v-2.87c-.45.04-.89.11-1.34.22v2.08l-11.13,11.13h-2.08c-.07.45-.15.89-.22,1.34h2.87l11.91-11.91Z"/>
    <path class="cls-4" d="m1547.65,483.97l-1.6,4.24c.41.19.82.37,1.23.56l1.34-3.61,13.44-2.72,3.69,2.72c.04-.07.67-1.19.67-1.19l-4.28-2.94-14.48,2.94Z"/>
    <path class="cls-4" d="m1565.07,468l3.72-2.49c-.19-.37-.37-.74-.6-1.12l-.04-.07-4.32,2.9-1.45,12.25,4.95,3.54c.26-.37.52-.74.74-1.12l-4.24-3.05,1.23-10.83Z"/>
    <path class="cls-4" d="m1567.45,463.49l-.3-.6c-.15-.19-.3-.37-.45-.56l-3.61,1.82-9.53-5.73v-2.35c-.45,0-.89.04-1.34.07v3.05l10.83,6.48,4.39-2.2Z"/>
    <path class="cls-4" d="m1549.51,468.3c-2.61,0-4.73,2.12-4.73,4.77s2.12,4.77,4.73,4.77,4.77-2.12,4.77-4.77-2.12-4.77-4.77-4.77Zm0,8.15c-1.86,0-3.39-1.53-3.39-3.39s1.53-3.39,3.39-3.39,3.39,1.53,3.39,3.39-1.49,3.39-3.39,3.39Z"/>
    <path class="cls-4" d="m1555.95,468.97c1.3,0,2.38-1.08,2.38-2.38s-1.04-2.38-2.38-2.38-2.38,1.08-2.38,2.38,1.08,2.38,2.38,2.38Zm0-3.39c.56,0,1.01.45,1.01,1.01s-.45,1.01-1.01,1.01-1.01-.45-1.01-1.01c0-.56.45-1.01,1.01-1.01Z"/>
    <path class="cls-4" d="m1559.9,474.36l-.22-.63-.22-.63c-.07.04-2.23.74-2.87,2.53-.37,1.01-.19,2.08.48,3.2l1.15-.71c-.45-.78-.6-1.45-.37-2.05.45-1.15,2.05-1.71,2.05-1.71Z"/>
    <path class="cls-4" d="m1569.87,474.4c0,.74-.6,1.34-1.34,1.34s-1.34-.6-1.34-1.34.6-1.34,1.34-1.34,1.34.6,1.34,1.34Z"/>
    <path class="cls-4" d="m1556.99,485.94c-1.86,0-3.39,1.53-3.39,3.39,0,.22.04.45.07.67.48,0,.93-.04,1.41-.07-.07-.19-.11-.41-.11-.6,0-1.12.93-2.05,2.05-2.05,1.04,0,1.9.82,2.01,1.82.45-.15.89-.3,1.3-.48-.37-1.53-1.71-2.68-3.35-2.68Z"/>
    <path class="cls-4" d="m1538.34,479.17c-.19,0-.37.04-.52.07.41,1.04.93,2.05,1.53,2.98.41-.3.71-.82.71-1.38-.04-.93-.78-1.68-1.71-1.68h0Z"/>
    <path class="cls-4" d="m1543.29,460.03l.97.97-3.72,3.72-.97-.97,3.72-3.72Z"/>
    <path class="cls-4" d="m1539.75,471.68h-3.05c-.04.45-.07.89-.07,1.34h2.35l6.4,10.91-1.19,3.2c.37.26.78.48,1.19.71l1.53-4.06-7.15-12.1Z"/>
  </g>
  <rect class="cls-16" x="1434.17" y="734.03" width="462.94" height="192.73"/>
  <text class="cls-13" transform="translate(1476.39 880.59)"><tspan x="0" y="0">AnnData</tspan></text>
  <text class="cls-8" transform="translate(1452.62 859.17)"><tspan x="0" y="0">Unfiltered</tspan><tspan class="cls-27" x="94.95" y="0"> </tspan><tspan x="99.89" y="0">AD</tspan><tspan class="cls-19" x="130.71" y="0">T</tspan><tspan x="143.86" y="0"> </tspan></text>
  <text class="cls-8" transform="translate(1547.91 880.59)"><tspan x="0" y="0"> </tspan></text>
  <text class="cls-8" transform="translate(1485.63 902)"><tspan x="0" y="0">Object</tspan></text>
  <g>
    <path class="cls-4" d="m1539.75,800.07h-2.08v-20.14c0-.3-.15-.56-.34-.74l-16.05-15.75c-.19-.19-.48-.3-.78-.3h-27.51c-3.46,0-6.33,2.94-6.33,6.55v30.42h-2.08c-.6,0-1.12.41-1.12,1.01v18.02c0,.6.52,1.01,1.12,1.01h2.08v3.72c0,3.61,2.87,6.55,6.33,6.55h38.31c3.46,0,6.33-2.94,6.33-6.55v-3.72h2.08c.6,0,1.12-.41,1.12-1.01v-18.02c.04-.63-.48-1.04-1.08-1.04h0Zm-18.24-33.39l12.51,12.17h-10.05c-.67,0-1.3-.26-1.75-.74-.45-.48-.71-1.12-.71-1.79v-9.64h0Zm-32.69,2.98c0-2.42,1.9-4.39,4.21-4.39h26.36v11.09c0,1.23.48,2.42,1.34,3.28.86.86,2.05,1.38,3.28,1.38h11.54v19.1h-46.68v-30.45h-.04Zm46.68,54.17c0,2.42-1.9,4.39-4.21,4.39h-38.31c-2.27,0-4.21-1.97-4.21-4.39v-3.72h46.68v3.72h.04Zm3.2-5.88h-53.09v-15.75h53.09v15.75Z"/>
    <text class="cls-9" transform="translate(1492.57 816.35)"><tspan x="0" y="0">HDF5</tspan></text>
    <path class="cls-4" d="m1504.02,771.11v-2.87c-.45.04-.89.11-1.34.22v2.08l-11.13,11.13h-2.08c-.07.45-.15.89-.22,1.34h2.87l11.91-11.91Z"/>
    <path class="cls-4" d="m1500.11,796.02l-1.6,4.24c.41.19.82.37,1.23.56l1.34-3.61,13.44-2.72,3.69,2.72c.04-.07.67-1.19.67-1.19l-4.28-2.94-14.48,2.94Z"/>
    <path class="cls-4" d="m1517.53,780.05l3.72-2.49c-.19-.37-.37-.74-.6-1.12l-.04-.07-4.32,2.9-1.45,12.25,4.95,3.54c.26-.37.52-.74.74-1.12l-4.24-3.05,1.23-10.83Z"/>
    <path class="cls-4" d="m1519.91,775.5l-.3-.6c-.15-.19-.3-.37-.45-.56l-3.61,1.82-9.53-5.73v-2.35c-.45,0-.89.04-1.34.07v3.05l10.83,6.48,4.39-2.2Z"/>
    <path class="cls-4" d="m1501.97,780.31c-2.61,0-4.73,2.12-4.73,4.77s2.12,4.77,4.73,4.77,4.77-2.12,4.77-4.77-2.16-4.77-4.77-4.77Zm0,8.15c-1.86,0-3.39-1.53-3.39-3.39s1.53-3.39,3.39-3.39,3.39,1.53,3.39,3.39c0,1.86-1.49,3.39-3.39,3.39Z"/>
    <path class="cls-4" d="m1508.41,781.01c1.3,0,2.38-1.08,2.38-2.38s-1.04-2.38-2.38-2.38-2.38,1.08-2.38,2.38c0,1.3,1.08,2.38,2.38,2.38Zm0-3.43c.56,0,1.01.45,1.01,1.01s-.45,1.01-1.01,1.01-1.01-.45-1.01-1.01c0-.52.45-1.01,1.01-1.01Z"/>
    <path class="cls-4" d="m1512.35,786.37l-.22-.63-.22-.63c-.07.04-2.23.74-2.87,2.53-.37,1.01-.19,2.08.48,3.2l1.15-.71c-.45-.78-.6-1.45-.37-2.05.45-1.15,2.05-1.71,2.05-1.71Z"/>
    <path class="cls-4" d="m1522.33,786.41c0,.74-.6,1.34-1.34,1.34s-1.34-.6-1.34-1.34.6-1.34,1.34-1.34,1.34.6,1.34,1.34Z"/>
    <path class="cls-4" d="m1509.45,797.95c-1.86,0-3.39,1.53-3.39,3.39,0,.22.04.45.07.67.48,0,.93-.04,1.41-.07-.07-.19-.11-.41-.11-.6,0-1.12.93-2.05,2.05-2.05,1.04,0,1.9.82,2.01,1.82.45-.15.89-.3,1.3-.48-.37-1.53-1.75-2.68-3.35-2.68Z"/>
    <path class="cls-4" d="m1490.8,791.18c-.19,0-.37.04-.52.07.41,1.04.93,2.05,1.53,2.98.41-.3.71-.82.71-1.38-.04-.93-.78-1.68-1.71-1.68h0Z"/>
    <path class="cls-4" d="m1495.71,772.04l.97.97-3.72,3.72-.97-.97,3.72-3.72Z"/>
    <path class="cls-4" d="m1492.18,783.69h-3.05c-.04.45-.07.89-.07,1.34h2.35l6.4,10.91-1.19,3.2c.37.26.78.48,1.19.71l1.53-4.06-7.15-12.1Z"/>
  </g>
  <text class="cls-13" transform="translate(1628.87 880.59)"><tspan x="0" y="0">AnnData</tspan></text>
  <text class="cls-8" transform="translate(1613.74 859.17)"><tspan x="0" y="0">Filtered</tspan><tspan class="cls-25" x="73.98" y="0"> </tspan><tspan class="cls-18" x="78.92" y="0">AD</tspan><tspan class="cls-19" x="109.74" y="0">T</tspan><tspan x="122.89" y="0"> </tspan></text>
  <text class="cls-8" transform="translate(1700.35 880.59)"><tspan x="0" y="0"> </tspan></text>
  <text class="cls-8" transform="translate(1638.07 902)"><tspan x="0" y="0">Object</tspan></text>
  <g>
    <path class="cls-4" d="m1693.73,800.07h-2.08v-20.14c0-.3-.15-.56-.34-.74l-16.05-15.75c-.19-.19-.48-.3-.78-.3h-27.51c-3.46,0-6.33,2.94-6.33,6.55v30.42h-2.08c-.6,0-1.12.41-1.12,1.01v18.02c0,.6.52,1.01,1.12,1.01h2.08v3.72c0,3.61,2.87,6.55,6.33,6.55h38.31c3.46,0,6.33-2.94,6.33-6.55v-3.72h2.08c.6,0,1.12-.41,1.12-1.01v-18.02c.04-.63-.48-1.04-1.08-1.04h0Zm-18.24-33.39l12.51,12.17h-10.05c-.67,0-1.3-.26-1.75-.74-.45-.48-.71-1.12-.71-1.79v-9.64h0Zm-32.69,2.98c0-2.42,1.9-4.39,4.21-4.39h26.36v11.09c0,1.23.48,2.42,1.34,3.28.86.86,2.05,1.38,3.28,1.38h11.54v19.1h-46.68v-30.45h-.04Zm46.68,54.17c0,2.42-1.9,4.39-4.21,4.39h-38.31c-2.27,0-4.21-1.97-4.21-4.39v-3.72h46.68v3.72h.04Zm3.2-5.88h-53.09v-15.75h53.09v15.75Z"/>
    <text class="cls-9" transform="translate(1647.56 816.36)"><tspan x="0" y="0">HDF5</tspan></text>
    <path class="cls-4" d="m1657.99,771.11v-2.87c-.45.04-.89.11-1.34.22v2.08l-11.13,11.13h-2.08c-.07.45-.15.89-.22,1.34h2.87l11.91-11.91Z"/>
    <path class="cls-4" d="m1654.08,796.02l-1.6,4.24c.41.19.82.37,1.23.56l1.34-3.61,13.44-2.72,3.69,2.72c.04-.07.67-1.19.67-1.19l-4.28-2.94-14.48,2.94Z"/>
    <path class="cls-4" d="m1671.51,780.05l3.72-2.49c-.19-.37-.37-.74-.6-1.12l-.04-.07-4.32,2.9-1.45,12.25,4.95,3.54c.26-.37.52-.74.74-1.12l-4.24-3.05,1.23-10.83Z"/>
    <path class="cls-4" d="m1673.89,775.5l-.3-.6c-.15-.19-.3-.37-.45-.56l-3.61,1.82-9.53-5.73v-2.35c-.45,0-.89.04-1.34.07v3.05l10.83,6.48,4.39-2.2Z"/>
    <path class="cls-4" d="m1655.94,780.31c-2.61,0-4.73,2.12-4.73,4.77s2.12,4.77,4.73,4.77,4.77-2.12,4.77-4.77-2.16-4.77-4.77-4.77Zm0,8.15c-1.86,0-3.39-1.53-3.39-3.39s1.53-3.39,3.39-3.39,3.39,1.53,3.39,3.39-1.53,3.39-3.39,3.39Z"/>
    <path class="cls-4" d="m1662.38,781.01c1.3,0,2.38-1.08,2.38-2.38s-1.04-2.38-2.38-2.38-2.38,1.08-2.38,2.38,1.08,2.38,2.38,2.38Zm0-3.43c.56,0,1.01.45,1.01,1.01s-.45,1.01-1.01,1.01-1.01-.45-1.01-1.01c0-.52.45-1.01,1.01-1.01Z"/>
    <path class="cls-4" d="m1666.33,786.37l-.22-.63-.22-.63c-.07.04-2.23.74-2.87,2.53-.37,1.01-.19,2.08.48,3.2l1.15-.71c-.45-.78-.6-1.45-.37-2.05.45-1.15,2.05-1.71,2.05-1.71Z"/>
    <path class="cls-4" d="m1676.31,786.41c0,.74-.6,1.34-1.34,1.34s-1.34-.6-1.34-1.34.6-1.34,1.34-1.34,1.34.6,1.34,1.34Z"/>
    <path class="cls-4" d="m1663.39,797.95c-1.86,0-3.39,1.53-3.39,3.39,0,.22.04.45.07.67.48,0,.93-.04,1.41-.07-.07-.19-.11-.41-.11-.6,0-1.12.93-2.05,2.05-2.05,1.04,0,1.9.82,2.01,1.82.45-.15.89-.3,1.3-.48-.34-1.53-1.71-2.68-3.35-2.68Z"/>
    <path class="cls-4" d="m1644.74,791.18c-.19,0-.37.04-.52.07.41,1.04.93,2.05,1.53,2.98.41-.3.71-.82.71-1.38,0-.93-.74-1.68-1.71-1.68h0Z"/>
    <path class="cls-4" d="m1649.69,772.04l.97.97-3.72,3.72-.97-.97,3.72-3.72Z"/>
    <path class="cls-4" d="m1646.15,783.69h-3.05c-.04.45-.07.89-.07,1.34h2.35l6.4,10.91-1.19,3.2c.37.26.78.48,1.19.71l1.53-4.06-7.15-12.1Z"/>
  </g>
  <text class="cls-13" transform="translate(1806.93 880.59)"><tspan x="0" y="0">AnnData</tspan></text>
  <text class="cls-8" transform="translate(1774.19 859.18)"><tspan x="0" y="0">Processed </tspan></text>
  <text class="cls-8" transform="translate(1760.06 880.59)"><tspan x="0" y="0">AD</tspan><tspan class="cls-20" x="30.82" y="0">T</tspan><tspan x="43.97" y="0"> </tspan></text>
  <text class="cls-8" transform="translate(1873.54 880.59)"><tspan x="0" y="0"> </tspan></text>
  <text class="cls-8" transform="translate(1791.02 902)"><tspan x="0" y="0">Object</tspan></text>
  <g>
    <path class="cls-4" d="m1850.76,800.07h-2.08v-20.14c0-.3-.15-.56-.34-.74l-16.05-15.75c-.19-.19-.48-.3-.78-.3h-27.51c-3.46,0-6.33,2.94-6.33,6.55v30.42h-2.08c-.6,0-1.12.41-1.12,1.01v18.02c0,.6.52,1.01,1.12,1.01h2.08v3.72c0,3.61,2.87,6.55,6.33,6.55h38.31c3.46,0,6.33-2.94,6.33-6.55v-3.72h2.08c.6,0,1.12-.41,1.12-1.01v-18.02c.04-.63-.48-1.04-1.08-1.04h0Zm-18.24-33.39l12.51,12.17h-10.05c-.67,0-1.3-.26-1.75-.74-.45-.48-.71-1.12-.71-1.79v-9.64h0Zm-32.69,2.98c0-2.42,1.9-4.39,4.21-4.39h26.36v11.09c0,1.23.48,2.42,1.34,3.28.86.86,2.05,1.38,3.28,1.38h11.54v19.1h-46.72v-30.45Zm46.68,54.17c0,2.42-1.9,4.39-4.21,4.39h-38.31c-2.27,0-4.21-1.97-4.21-4.39v-3.72h46.68v3.72h.04Zm3.2-5.88h-53.09v-15.75h53.09v15.75Z"/>
    <text class="cls-9" transform="translate(1804.59 816.35)"><tspan x="0" y="0">HDF5</tspan></text>
    <path class="cls-4" d="m1815.02,771.11v-2.87c-.45.04-.89.11-1.34.22v2.08l-11.13,11.13h-2.08c-.07.45-.15.89-.22,1.34h2.87l11.91-11.91Z"/>
    <path class="cls-4" d="m1811.11,796.02l-1.6,4.24c.41.19.82.37,1.23.56l1.34-3.61,13.44-2.72,3.69,2.72c.04-.07.67-1.19.67-1.19l-4.28-2.94-14.48,2.94Z"/>
    <path class="cls-4" d="m1828.54,780.05l3.72-2.49c-.19-.37-.37-.74-.6-1.12l-.04-.07-4.32,2.9-1.45,12.25,4.95,3.54c.26-.37.52-.74.74-1.12l-4.24-3.05,1.23-10.83Z"/>
    <path class="cls-4" d="m1830.92,775.5l-.3-.6c-.15-.19-.3-.37-.45-.56l-3.61,1.82-9.53-5.73v-2.35c-.45,0-.89.04-1.34.07v3.05l10.83,6.48,4.39-2.2Z"/>
    <path class="cls-4" d="m1812.97,780.31c-2.61,0-4.73,2.12-4.73,4.77s2.12,4.77,4.73,4.77,4.77-2.12,4.77-4.77-2.16-4.77-4.77-4.77Zm0,8.15c-1.86,0-3.39-1.53-3.39-3.39s1.53-3.39,3.39-3.39,3.39,1.53,3.39,3.39-1.53,3.39-3.39,3.39Z"/>
    <path class="cls-4" d="m1819.41,781.01c1.3,0,2.38-1.08,2.38-2.38s-1.04-2.38-2.38-2.38-2.38,1.08-2.38,2.38,1.08,2.38,2.38,2.38Zm0-3.43c.56,0,1.01.45,1.01,1.01s-.45,1.01-1.01,1.01-1.01-.45-1.01-1.01c0-.52.45-1.01,1.01-1.01Z"/>
    <path class="cls-4" d="m1823.36,786.37l-.22-.63-.22-.63c-.07.04-2.23.74-2.87,2.53-.37,1.01-.19,2.08.48,3.2l1.15-.71c-.45-.78-.6-1.45-.37-2.05.45-1.15,2.05-1.71,2.05-1.71Z"/>
    <path class="cls-4" d="m1833.34,786.41c0,.74-.6,1.34-1.34,1.34s-1.34-.6-1.34-1.34.6-1.34,1.34-1.34,1.34.6,1.34,1.34Z"/>
    <path class="cls-4" d="m1820.42,797.95c-1.86,0-3.39,1.53-3.39,3.39,0,.22.04.45.07.67.48,0,.93-.04,1.41-.07-.07-.19-.11-.41-.11-.6,0-1.12.93-2.05,2.05-2.05,1.04,0,1.9.82,2.01,1.82.45-.15.89-.3,1.3-.48-.34-1.53-1.71-2.68-3.35-2.68Z"/>
    <path class="cls-4" d="m1801.77,791.18c-.19,0-.37.04-.52.07.41,1.04.93,2.05,1.53,2.98.41-.3.71-.82.71-1.38,0-.93-.74-1.68-1.71-1.68h0Z"/>
    <path class="cls-4" d="m1806.72,772.04l.97.97-3.72,3.72-.97-.97,3.72-3.72Z"/>
    <path class="cls-4" d="m1803.18,783.69h-3.05c-.04.45-.07.89-.07,1.34h2.35l6.4,10.91-1.19,3.2c.37.26.78.48,1.19.71l1.53-4.06-7.15-12.1Z"/>
  </g>
  <rect class="cls-16" x="892.72" y="736.04" width="462.94" height="192.73"/>
  <text class="cls-13" transform="translate(936.48 880.59)"><tspan x="0" y="0">AnnData</tspan></text>
  <text class="cls-8" transform="translate(911.51 859.18)"><tspan x="0" y="0">Unfiltered RN</tspan><tspan class="cls-27" x="133.16" y="0">A</tspan><tspan x="146.73" y="0"> </tspan></text>
  <text class="cls-8" transform="translate(1007.99 880.59)"><tspan x="0" y="0"> </tspan></text>
  <text class="cls-8" transform="translate(945.71 902)"><tspan x="0" y="0">Object</tspan></text>
  <g>
    <path class="cls-4" d="m999.31,800.07h-2.08v-20.14c0-.3-.11-.56-.34-.74l-16.05-15.75c-.19-.19-.48-.3-.74-.3h-27.51c-3.46,0-6.33,2.94-6.33,6.55v30.42h-2.08c-.6,0-1.12.41-1.12,1.01v18.02c0,.6.52,1.01,1.12,1.01h2.08v3.72c0,3.61,2.87,6.55,6.33,6.55h38.31c3.46,0,6.33-2.94,6.33-6.55v-3.72h2.08c.6,0,1.12-.41,1.12-1.01v-18.02c0-.63-.52-1.04-1.12-1.04h0Zm-18.24-33.39l12.47,12.17h-10.05c-.67,0-1.3-.26-1.75-.74-.45-.48-.71-1.12-.71-1.79v-9.64h.04Zm-32.69,2.98c0-2.42,1.9-4.39,4.21-4.39h26.36v11.09c0,1.23.48,2.42,1.34,3.28.86.86,2.05,1.38,3.28,1.38h11.54v19.1h-46.68v-30.45h-.04Zm46.72,54.17c0,2.42-1.9,4.39-4.21,4.39h-38.31c-2.27,0-4.21-1.97-4.21-4.39v-3.72h46.68v3.72h.04Zm3.2-5.88h-53.09v-15.75h53.09v15.75Z"/>
    <text class="cls-9" transform="translate(952.14 816.36)"><tspan x="0" y="0">HDF5</tspan></text>
    <path class="cls-4" d="m963.57,771.11v-2.87c-.45.04-.89.11-1.34.22v2.08l-11.13,11.13h-2.08c-.07.45-.15.89-.22,1.34h2.87l11.91-11.91Z"/>
    <path class="cls-4" d="m959.7,796.02l-1.6,4.24c.41.19.82.37,1.23.56l1.38-3.61,13.44-2.72,3.69,2.72c.07-.07.67-1.19.67-1.19l-4.28-2.94-14.52,2.94Z"/>
    <path class="cls-4" d="m977.12,780.05l3.72-2.49c-.19-.37-.37-.74-.6-1.12l-.04-.07-4.32,2.9-1.45,12.25,4.95,3.54c.26-.37.52-.74.74-1.12l-4.24-3.05,1.23-10.83Z"/>
    <path class="cls-4" d="m979.5,775.5l-.3-.6c-.15-.19-.3-.37-.41-.56l-3.61,1.82-9.53-5.73v-2.35c-.45,0-.89.04-1.34.07v3.05l10.83,6.48,4.36-2.2Z"/>
    <path class="cls-4" d="m961.56,780.31c-2.61,0-4.77,2.12-4.77,4.77s2.12,4.77,4.77,4.77,4.77-2.12,4.77-4.77c-.04-2.61-2.16-4.77-4.77-4.77Zm0,8.15c-1.86,0-3.39-1.53-3.39-3.39s1.53-3.39,3.39-3.39,3.39,1.53,3.39,3.39-1.53,3.39-3.39,3.39Z"/>
    <path class="cls-4" d="m968,781.01c1.3,0,2.38-1.08,2.38-2.38s-1.08-2.38-2.38-2.38-2.38,1.08-2.38,2.38,1.08,2.38,2.38,2.38Zm0-3.43c.56,0,1.01.45,1.01,1.01s-.45,1.01-1.01,1.01-1.01-.45-1.01-1.01c-.04-.52.45-1.01,1.01-1.01Z"/>
    <path class="cls-4" d="m971.95,786.37l-.22-.63-.22-.63c-.07.04-2.23.74-2.87,2.53-.37,1.01-.22,2.08.48,3.2l1.15-.71c-.45-.78-.6-1.45-.37-2.05.41-1.15,2.01-1.71,2.05-1.71Z"/>
    <path class="cls-4" d="m981.89,786.41c0,.74-.6,1.34-1.34,1.34s-1.34-.6-1.34-1.34.6-1.34,1.34-1.34,1.34.6,1.34,1.34Z"/>
    <path class="cls-4" d="m969.01,797.95c-1.86,0-3.39,1.53-3.39,3.39,0,.22.04.45.07.67.48,0,.93-.04,1.38-.07-.07-.19-.11-.41-.11-.6,0-1.12.93-2.05,2.05-2.05,1.04,0,1.9.82,2.01,1.82.45-.15.89-.3,1.3-.48-.34-1.53-1.68-2.68-3.31-2.68Z"/>
    <path class="cls-4" d="m950.35,791.18c-.19,0-.37.04-.52.07.41,1.04.93,2.05,1.53,2.98.41-.3.71-.82.71-1.38,0-.93-.78-1.68-1.71-1.68h0Z"/>
    <path class="cls-4" d="m955.31,772.04l.97.97-3.72,3.72-.97-.97,3.72-3.72Z"/>
    <path class="cls-4" d="m951.77,783.69h-3.05c-.04.45-.07.89-.07,1.34h2.31l6.44,10.91-1.19,3.2c.37.26.78.48,1.19.71l1.53-4.06-7.15-12.1Z"/>
  </g>
  <text class="cls-13" transform="translate(1090.48 880.59)"><tspan x="0" y="0">AnnData</tspan></text>
  <text class="cls-8" transform="translate(1074.16 859.18)"><tspan x="0" y="0">Filtered RN</tspan><tspan class="cls-27" x="112.19" y="0">A</tspan><tspan x="125.76" y="0"> </tspan></text>
  <text class="cls-8" transform="translate(1161.96 880.59)"><tspan x="0" y="0"> </tspan></text>
  <text class="cls-8" transform="translate(1099.68 902)"><tspan x="0" y="0">Object</tspan></text>
  <g>
    <path class="cls-4" d="m1152.28,800.07h-2.08v-20.14c0-.3-.15-.56-.34-.74l-16.05-15.75c-.19-.19-.48-.3-.78-.3h-27.51c-3.46,0-6.33,2.94-6.33,6.55v30.42h-2.08c-.6,0-1.12.41-1.12,1.01v18.02c0,.6.52,1.01,1.12,1.01h2.08v3.72c0,3.61,2.87,6.55,6.33,6.55h38.31c3.46,0,6.33-2.94,6.33-6.55v-3.72h2.08c.6,0,1.12-.41,1.12-1.01v-18.02c.04-.63-.48-1.04-1.08-1.04h0Zm-18.24-33.39l12.51,12.17h-10.05c-.67,0-1.3-.26-1.75-.74-.45-.48-.71-1.12-.71-1.79v-9.64h0Zm-32.69,2.98c0-2.42,1.9-4.39,4.21-4.39h26.36v11.09c0,1.23.48,2.42,1.34,3.28.86.86,2.05,1.38,3.28,1.38h11.54v19.1h-46.68v-30.45h-.04Zm46.68,54.17c0,2.42-1.9,4.39-4.21,4.39h-38.31c-2.27,0-4.21-1.97-4.21-4.39v-3.72h46.68v3.72h.04Zm3.2-5.88h-53.09v-15.75h53.09v15.75Z"/>
    <text class="cls-9" transform="translate(1106.11 816.35)"><tspan x="0" y="0">HDF5</tspan></text>
    <path class="cls-4" d="m1116.54,771.11v-2.87c-.45.04-.89.11-1.34.22v2.08l-11.13,11.13h-2.08c-.07.45-.15.89-.22,1.34h2.87l11.91-11.91Z"/>
    <path class="cls-4" d="m1112.63,796.02l-1.6,4.24c.41.19.82.37,1.23.56l1.34-3.61,13.44-2.72,3.69,2.72c.04-.07.67-1.19.67-1.19l-4.28-2.94-14.48,2.94Z"/>
    <path class="cls-4" d="m1130.06,780.05l3.72-2.49c-.19-.37-.37-.74-.6-1.12l-.04-.07-4.32,2.9-1.45,12.25,4.95,3.54c.26-.37.52-.74.74-1.12l-4.24-3.05,1.23-10.83Z"/>
    <path class="cls-4" d="m1132.44,775.5l-.3-.6c-.15-.19-.3-.37-.45-.56l-3.61,1.82-9.53-5.73v-2.35c-.45,0-.89.04-1.34.07v3.05l10.83,6.48,4.39-2.2Z"/>
    <path class="cls-4" d="m1114.49,780.31c-2.61,0-4.73,2.12-4.73,4.77s2.12,4.77,4.73,4.77,4.77-2.12,4.77-4.77-2.16-4.77-4.77-4.77Zm0,8.15c-1.86,0-3.39-1.53-3.39-3.39s1.53-3.39,3.39-3.39,3.39,1.53,3.39,3.39-1.53,3.39-3.39,3.39Z"/>
    <path class="cls-4" d="m1120.94,781.01c1.3,0,2.38-1.08,2.38-2.38s-1.04-2.38-2.38-2.38-2.38,1.08-2.38,2.38,1.08,2.38,2.38,2.38Zm0-3.43c.56,0,1.01.45,1.01,1.01s-.45,1.01-1.01,1.01-1.01-.45-1.01-1.01c0-.52.45-1.01,1.01-1.01Z"/>
    <path class="cls-4" d="m1124.88,786.37l-.22-.63-.22-.63c-.07.04-2.23.74-2.87,2.53-.37,1.01-.19,2.08.48,3.2l1.15-.71c-.45-.78-.6-1.45-.37-2.05.45-1.15,2.05-1.71,2.05-1.71Z"/>
    <path class="cls-4" d="m1134.86,786.41c0,.74-.6,1.34-1.34,1.34s-1.34-.6-1.34-1.34.6-1.34,1.34-1.34,1.34.6,1.34,1.34Z"/>
    <path class="cls-4" d="m1121.98,797.95c-1.86,0-3.39,1.53-3.39,3.39,0,.22.04.45.07.67.48,0,.93-.04,1.41-.07-.07-.19-.11-.41-.11-.6,0-1.12.93-2.05,2.05-2.05,1.04,0,1.9.82,2.01,1.82.45-.15.89-.3,1.3-.48-.37-1.53-1.75-2.68-3.35-2.68Z"/>
    <path class="cls-4" d="m1103.33,791.18c-.19,0-.37.04-.52.07.41,1.04.93,2.05,1.53,2.98.41-.3.71-.82.71-1.38-.04-.93-.78-1.68-1.71-1.68h0Z"/>
    <path class="cls-4" d="m1108.24,772.04l.97.97-3.72,3.72-.97-.97,3.72-3.72Z"/>
    <path class="cls-4" d="m1104.7,783.69h-3.05c-.04.45-.07.89-.07,1.34h2.35l6.4,10.91-1.19,3.2c.37.26.78.48,1.19.71l1.53-4.06-7.15-12.1Z"/>
  </g>
  <text class="cls-13" transform="translate(1266.73 880.59)"><tspan x="0" y="0">AnnData</tspan></text>
  <text class="cls-8" transform="translate(1236.82 859.18)"><tspan x="0" y="0">Processed </tspan></text>
  <text class="cls-8" transform="translate(1212.65 880.59)"><tspan x="0" y="0">RN</tspan><tspan class="cls-27" x="32.04" y="0">A</tspan><tspan x="45.62" y="0"> </tspan></text>
  <text class="cls-8" transform="translate(1336.85 880.59)"><tspan x="0" y="0"> </tspan></text>
  <text class="cls-8" transform="translate(1253.65 902)"><tspan x="0" y="0">Object</tspan></text>
  <g>
    <path class="cls-4" d="m1308.27,800.07h-2.08v-20.14c0-.3-.15-.56-.34-.74l-16.05-15.75c-.19-.19-.48-.3-.78-.3h-27.51c-3.46,0-6.33,2.94-6.33,6.55v30.42h-2.08c-.6,0-1.12.41-1.12,1.01v18.02c0,.6.52,1.01,1.12,1.01h2.08v3.72c0,3.61,2.87,6.55,6.33,6.55h38.31c3.46,0,6.33-2.94,6.33-6.55v-3.72h2.08c.6,0,1.12-.41,1.12-1.01v-18.02c.04-.63-.48-1.04-1.08-1.04h0Zm-18.24-33.39l12.51,12.17h-10.05c-.67,0-1.3-.26-1.75-.74-.45-.48-.71-1.12-.71-1.79v-9.64h0Zm-32.69,2.98c0-2.42,1.9-4.39,4.21-4.39h26.36v11.09c0,1.23.48,2.42,1.34,3.28.86.86,2.05,1.38,3.28,1.38h11.54v19.1h-46.68v-30.45h-.04Zm46.72,54.17c0,2.42-1.9,4.39-4.21,4.39h-38.31c-2.27,0-4.21-1.97-4.21-4.39v-3.72h46.68v3.72h.04Zm3.2-5.88h-53.09v-15.75h53.09v15.75Z"/>
    <text class="cls-9" transform="translate(1262.12 816.36)"><tspan x="0" y="0">HDF5</tspan></text>
    <path class="cls-4" d="m1272.53,771.11v-2.87c-.45.04-.89.11-1.34.22v2.08l-11.13,11.13h-2.08c-.07.45-.15.89-.22,1.34h2.87l11.91-11.91Z"/>
    <path class="cls-4" d="m1268.66,796.02l-1.6,4.24c.41.19.82.37,1.23.56l1.34-3.61,13.44-2.72,3.69,2.72c.04-.07.67-1.19.67-1.19l-4.28-2.94-14.48,2.94Z"/>
    <path class="cls-4" d="m1286.08,780.05l3.72-2.49c-.19-.37-.37-.74-.6-1.12l-.04-.07-4.32,2.9-1.45,12.25,4.95,3.54c.26-.37.52-.74.74-1.12l-4.24-3.05,1.23-10.83Z"/>
    <path class="cls-4" d="m1288.46,775.5l-.3-.6c-.15-.19-.3-.37-.45-.56l-3.61,1.82-9.53-5.73v-2.35c-.45,0-.89.04-1.34.07v3.05l10.83,6.48,4.39-2.2Z"/>
    <path class="cls-4" d="m1270.52,780.31c-2.61,0-4.73,2.12-4.73,4.77s2.12,4.77,4.73,4.77,4.77-2.12,4.77-4.77c-.04-2.61-2.16-4.77-4.77-4.77Zm0,8.15c-1.86,0-3.39-1.53-3.39-3.39s1.53-3.39,3.39-3.39,3.39,1.53,3.39,3.39-1.53,3.39-3.39,3.39Z"/>
    <path class="cls-4" d="m1276.96,781.01c1.3,0,2.38-1.08,2.38-2.38s-1.04-2.38-2.38-2.38-2.38,1.08-2.38,2.38,1.08,2.38,2.38,2.38Zm0-3.43c.56,0,1.01.45,1.01,1.01s-.45,1.01-1.01,1.01-1.01-.45-1.01-1.01c-.04-.52.45-1.01,1.01-1.01Z"/>
    <path class="cls-4" d="m1280.91,786.37l-.22-.63-.22-.63c-.07.04-2.23.74-2.87,2.53-.37,1.01-.19,2.08.48,3.2l1.15-.71c-.45-.78-.6-1.45-.37-2.05.41-1.15,2.01-1.71,2.05-1.71Z"/>
    <path class="cls-4" d="m1290.85,786.41c0,.74-.6,1.34-1.34,1.34s-1.34-.6-1.34-1.34.6-1.34,1.34-1.34,1.34.6,1.34,1.34Z"/>
    <path class="cls-4" d="m1277.96,797.95c-1.86,0-3.39,1.53-3.39,3.39,0,.22.04.45.07.67.48,0,.93-.04,1.41-.07-.07-.19-.11-.41-.11-.6,0-1.12.93-2.05,2.05-2.05,1.04,0,1.9.82,2.01,1.82.45-.15.89-.3,1.3-.48-.37-1.53-1.71-2.68-3.35-2.68Z"/>
    <path class="cls-4" d="m1259.31,791.18c-.19,0-.37.04-.52.07.41,1.04.93,2.05,1.53,2.98.41-.3.71-.82.71-1.38,0-.93-.78-1.68-1.71-1.68h0Z"/>
    <path class="cls-4" d="m1264.26,772.04l.97.97-3.72,3.72-.97-.97,3.72-3.72Z"/>
    <path class="cls-4" d="m1260.73,783.69h-3.05c-.04.45-.07.89-.07,1.34h2.35l6.4,10.91-1.19,3.2c.37.26.78.48,1.19.71l1.53-4.06-7.15-12.1Z"/>
  </g>
  <text class="cls-8" transform="translate(1827.75 545.12)"><tspan x="0" y="0">Summary </tspan></text>
  <text class="cls-8" transform="translate(1823.12 566.53)"><tspan x="0" y="0">QC Report</tspan></text>
  <g>
    <path class="cls-4" d="m1899.94,488.06h-2.08v-20.14c0-.3-.15-.56-.34-.74l-16.05-15.75c-.19-.19-.48-.3-.78-.3h-27.51c-3.46,0-6.33,2.94-6.33,6.55v30.42h-2.08c-.6,0-1.12.41-1.12,1.01v18.02c0,.6.52,1.01,1.12,1.01h2.08v3.72c0,3.61,2.87,6.55,6.33,6.55h38.31c3.46,0,6.33-2.94,6.33-6.55v-3.72h2.08c.6,0,1.12-.41,1.12-1.01v-18.02c.04-.63-.48-1.04-1.08-1.04h0Zm-18.24-33.39l12.51,12.17h-10.05c-.67,0-1.3-.26-1.75-.74s-.71-1.12-.71-1.79v-9.64h0Zm-32.69,2.94c0-2.42,1.9-4.39,4.21-4.39h26.36v11.09c0,1.23.48,2.42,1.34,3.28.86.86,2.05,1.38,3.28,1.38h11.54v19.1h-46.68v-30.45h-.04Zm46.72,54.17c0,2.42-1.9,4.39-4.21,4.39h-38.31c-2.27,0-4.21-1.97-4.21-4.39v-3.72h46.68v3.72h.04Zm3.2-5.84h-53.09v-15.75h53.09v15.75Z"/>
    <text class="cls-9" transform="translate(1854.31 504.34)"><tspan x="0" y="0">HTM</tspan><tspan class="cls-21" x="35.34" y="0">L</tspan></text>
    <path class="cls-4" d="m1856.87,481.18v7.3c0,.67-.56,1.19-1.27,1.19h-4.1c-.71,0-1.27-.52-1.27-1.19v-7.3c0-.67.56-1.19,1.27-1.19h4.1c.71,0,1.27.52,1.27,1.19Z"/>
    <path class="cls-4" d="m1851.47,475.67c0-.82.71-1.49,1.6-1.49.3,0,.56.07.78.19l5.73-5.96c-.19-.26-.3-.56-.3-.86,0-.82.71-1.49,1.6-1.49s1.6.67,1.6,1.49c0,.15-.04.26-.04.37l5.4,2.64c.3-.34.74-.52,1.23-.52.3,0,.6.07.82.22l6.37-6.14c-.15-.22-.26-.52-.26-.82,0-.82.71-1.49,1.6-1.49s1.6.67,1.6,1.49-.71,1.49-1.6,1.49c-.3,0-.6-.07-.82-.22l-6.37,6.18c.15.22.26.52.26.82,0,.82-.71,1.49-1.6,1.49s-1.6-.67-1.6-1.49c0-.11.04-.26.04-.37l-5.4-2.68c-.3.34-.74.52-1.23.52-.26,0-.56-.07-.78-.19l-5.73,5.96c.19.26.3.56.3.86,0,.82-.71,1.49-1.6,1.49s-1.6-.67-1.6-1.49Z"/>
    <path class="cls-4" d="m1864.72,474.33v13.66c0,.74-.52,1.34-1.15,1.34h-3.76c-.63,0-1.15-.6-1.15-1.34v-13.66c0-.74.52-1.34,1.15-1.34h3.76c.63,0,1.15.6,1.15,1.34Z"/>
    <path class="cls-4" d="m1873.1,477.9v10.61c0,.67-.56,1.19-1.27,1.19h-4.1c-.71,0-1.27-.52-1.27-1.19v-10.61c0-.67.56-1.19,1.27-1.19h4.1c.71,0,1.27.52,1.27,1.19Z"/>
    <path class="cls-4" d="m1881.03,473.02v15.19c0,.6-.52,1.08-1.19,1.08h-3.76c-.63,0-1.19-.48-1.19-1.08v-15.19c0-.6.52-1.08,1.19-1.08h3.76c.67.04,1.19.48,1.19,1.08Z"/>
  </g>
  <text class="cls-8" transform="translate(1987.97 545.12)"><tspan x="0" y="0">Cell</tspan><tspan class="cls-20" x="38.22" y="0"> </tspan><tspan class="cls-25" x="43.98" y="0">T</tspan><tspan x="56.31" y="0">ype </tspan></text>
  <text class="cls-8" transform="translate(1998.52 566.53)"><tspan x="0" y="0">Report</tspan></text>
  <g>
    <path class="cls-4" d="m2055.33,488.06h-2.08v-20.14c0-.3-.15-.56-.34-.74l-16.05-15.75c-.19-.19-.48-.3-.78-.3h-27.51c-3.46,0-6.33,2.94-6.33,6.55v30.42h-2.08c-.6,0-1.12.41-1.12,1.01v18.02c0,.6.52,1.01,1.12,1.01h2.08v3.72c0,3.61,2.87,6.55,6.33,6.55h38.31c3.46,0,6.33-2.94,6.33-6.55v-3.72h2.08c.6,0,1.12-.41,1.12-1.01v-18.02c.04-.63-.48-1.04-1.08-1.04h0Zm-18.24-33.39l12.51,12.17h-10.05c-.67,0-1.3-.26-1.75-.74s-.71-1.12-.71-1.79v-9.64Zm-32.69,2.94c0-2.42,1.9-4.39,4.21-4.39h26.36v11.09c0,1.23.48,2.42,1.34,3.28.86.86,2.05,1.38,3.28,1.38h11.54v19.1h-46.68v-30.45h-.04Zm46.68,54.17c0,2.42-1.9,4.39-4.21,4.39h-38.31c-2.27,0-4.21-1.97-4.21-4.39v-3.72h46.68v3.72h.04Zm3.2-5.84h-53.09v-15.75h53.09v15.75Z"/>
    <text class="cls-9" transform="translate(2009.67 504.34)"><tspan x="0" y="0">HTM</tspan><tspan class="cls-21" x="35.34" y="0">L</tspan></text>
    <path class="cls-4" d="m2012.26,481.18v7.3c0,.67-.56,1.19-1.27,1.19h-4.1c-.71,0-1.27-.52-1.27-1.19v-7.3c0-.67.56-1.19,1.27-1.19h4.1c.71,0,1.27.52,1.27,1.19Z"/>
    <path class="cls-4" d="m2006.82,475.67c0-.82.71-1.49,1.6-1.49.3,0,.56.07.78.19l5.73-5.96c-.19-.26-.3-.56-.3-.86,0-.82.71-1.49,1.6-1.49s1.6.67,1.6,1.49c0,.15-.04.26-.04.37l5.4,2.64c.3-.34.74-.52,1.23-.52.3,0,.6.07.82.22l6.37-6.14c-.15-.22-.26-.52-.26-.82,0-.82.71-1.49,1.6-1.49s1.6.67,1.6,1.49-.71,1.49-1.6,1.49c-.3,0-.6-.07-.82-.22l-6.37,6.18c.15.22.26.52.26.82,0,.82-.71,1.49-1.6,1.49s-1.6-.67-1.6-1.49c0-.11.04-.26.04-.37l-5.4-2.68c-.3.34-.74.52-1.23.52-.26,0-.56-.07-.78-.19l-5.73,5.96c.19.26.3.56.3.86,0,.82-.71,1.49-1.6,1.49s-1.6-.67-1.6-1.49Z"/>
    <path class="cls-4" d="m2020.11,474.33v13.66c0,.74-.52,1.34-1.19,1.34h-3.76c-.63,0-1.19-.6-1.19-1.34v-13.66c0-.74.52-1.34,1.19-1.34h3.76c.67,0,1.19.6,1.19,1.34Z"/>
    <path class="cls-4" d="m2028.49,477.9v10.61c0,.67-.56,1.19-1.27,1.19h-4.1c-.71,0-1.27-.52-1.27-1.19v-10.61c0-.67.56-1.19,1.27-1.19h4.1c.71,0,1.27.52,1.27,1.19Z"/>
    <path class="cls-4" d="m2036.42,473.02v15.19c0,.6-.52,1.08-1.19,1.08h-3.76c-.63,0-1.19-.48-1.19-1.08v-15.19c0-.6.52-1.08,1.19-1.08h3.76c.67.04,1.19.48,1.19,1.08Z"/>
  </g>
  <g>
    <g class="cls-12">
      <text class="cls-3" transform="translate(580.26 189.43)"><tspan x="0" y="0">Gene by cell</tspan></text>
      <text class="cls-3" transform="translate(580.26 216.24)"><tspan x="0" y="0">count matrix</tspan></text>
    </g>
    <g>
      <path class="cls-4" d="m674.86,130.22h-2.46v-23.75c0-.34-.15-.67-.41-.89l-18.91-18.54c-.22-.22-.56-.37-.89-.37h-32.43c-4.1,0-7.45,3.46-7.45,7.71v35.85h-2.46c-.71,0-1.3.48-1.3,1.19v21.26c0,.71.6,1.19,1.3,1.19h2.46v4.39c0,4.24,3.39,7.71,7.45,7.71h45.2c4.1,0,7.45-3.46,7.45-7.71v-4.39h2.46c.71,0,1.3-.48,1.3-1.19v-21.26c0-.71-.6-1.19-1.3-1.19h0Zm-21.52-39.35l14.74,14.33h-11.84c-.78,0-1.53-.34-2.05-.89-.56-.56-.86-1.3-.82-2.08v-11.35h-.04Zm-38.53,3.46c0-2.87,2.23-5.21,4.95-5.21h31.09v13.07c0,1.45.56,2.83,1.56,3.87,1.01,1.04,2.38,1.6,3.83,1.64h13.63v22.49h-55.06v-35.85h0Zm55.06,63.88c0,2.87-2.23,5.21-4.95,5.21h-45.2c-2.68,0-4.95-2.35-4.95-5.21v-4.39h55.06v4.39h.04Zm3.8-6.92h-62.62v-18.58h62.62v18.58Z"/>
      <text class="cls-9" transform="translate(626.01 148.88)"><tspan x="0" y="0">MTX</tspan></text>
      <path class="cls-4" d="m647.09,99.25h-26.95c-1.01,0-1.75.82-1.75,1.75v28.55c0,1.01.82,1.75,1.75,1.75h26.95c1.01,0,1.75-.82,1.75-1.75v-28.55c.04-.93-.78-1.75-1.75-1.75h0Zm.78,9.53h-6.37v-3.31h6.37v3.31Zm0,4.32h-6.37v-3.31h6.37v3.31Zm0,4.32h-6.37v-3.31h6.37v3.31Zm0,4.32h-6.37v-3.31h6.37v3.31Zm-28.48-3.31h6.37v3.31h-6.37v-3.31Zm0-4.32h6.37v3.31h-6.37v-3.31Zm0-4.32h6.37v3.31h-6.37v-3.31Zm7.37,4.32h6.37v3.31h-6.37v-3.31Zm7.37,0h6.37v3.31h-6.37v-3.31Zm6.37-1.01h-6.37v-3.31h6.37v3.31Zm-7.37,0h-6.37v-3.31h6.37v3.31Zm-6.37,5.32h6.37v3.31h-6.37v-3.31Zm7.37,0h6.37v3.31h-6.37v-3.31Zm6.37-9.64h-6.37v-3.31h6.37v3.31Zm-7.37,0h-6.37v-3.31h6.37v3.31Zm-7.37,0h-6.37v-3.31h6.37v3.31Zm-6.37,13.92h6.37v3.31h-6.37v-3.31Zm7.37,0h6.37v3.31h-6.37v-3.31Zm7.37,0h6.37v3.31h-6.37v-3.31Zm7.37,0h6.37v3.31h-6.37v-3.31Zm6.37-21.67v3.43h-6.37v-4.17h5.58c.41-.04.78.34.78.74h0Zm-7.37,3.43h-6.37v-4.21h6.37v4.21Zm-7.37,0h-6.37v-4.21h6.37v4.21Zm-13.74-3.43c0-.41.37-.74.74-.74h5.58v4.21h-6.37v-3.46h.04Zm0,28.55v-2.57h6.37v3.31h-5.58c-.41,0-.78-.34-.78-.74h0Zm7.37-2.57h6.37v3.31h-6.37v-3.31Zm7.37,0h6.37v3.31h-6.37v-3.31Zm13.74,2.57c0,.45-.37.74-.74.74h-5.58v-3.31h6.37l-.04,2.57Z"/>
      <path class="cls-4" d="m628.92,102.86h2.01c.3,0,.52-.19.52-.48s-.19-.48-.52-.48h-2.01c-.3,0-.52.19-.52.48s.22.48.52.48Z"/>
      <path class="cls-4" d="m636.3,102.86h2.01c.3,0,.52-.19.52-.48s-.19-.48-.52-.48h-2.01c-.3,0-.52.19-.52.48s.22.48.52.48Z"/>
      <path class="cls-4" d="m643.67,102.86h2.01c.3,0,.52-.19.52-.48s-.19-.48-.52-.48h-2.01c-.3,0-.52.19-.52.48s.26.48.52.48Z"/>
      <path class="cls-4" d="m621.66,101.93c-.15-.11-.41-.04-.52.11-.04.04-.11.11-.15.15v.19c0,.15.04.26.15.34,0,.04.11.11.15.11.04.04.11.04.19.04s.15,0,.19-.04c.04,0,.11-.04.15-.11.11-.11.15-.19.15-.34s-.04-.26-.15-.34c0-.07-.04-.11-.15-.11Z"/>
      <path class="cls-4" d="m623.86,101.93c-.19-.11-.41-.04-.56.11-.04.04-.11.11-.11.15s-.04.15-.04.19c0,.15.04.26.15.34.11.11.26.15.37.15.04,0,.15,0,.19-.04.04,0,.11-.04.15-.11.11-.11.15-.19.15-.34s-.04-.26-.15-.34c-.07-.07-.11-.11-.15-.11Z"/>
    </g>
  </g>
  <g>
    <g class="cls-12">
      <text class="cls-6" transform="translate(203.68 183.96)"><tspan x="0" y="0">Input</tspan><tspan class="cls-24" x="57.57" y="0"> </tspan><tspan x="63.33" y="0">AD</tspan><tspan class="cls-2" x="99.29" y="0">T</tspan><tspan x="114.63" y="0"> </tspan></text>
      <text class="cls-6" transform="translate(203.68 215.01)"><tspan x="0" y="0" xml:space="preserve">  </tspan><tspan class="cls-24" x="14.38" y="0">F</tspan><tspan x="28.77" y="0">ASTQ</tspan></text>
    </g>
    <g>
      <path class="cls-4" d="m297.11,118.94h-2.46v-23.75c0-.34-.15-.67-.41-.89l-18.91-18.54c-.22-.22-.56-.37-.89-.37h-32.43c-4.1,0-7.45,3.46-7.45,7.71v35.85h-2.46c-.71,0-1.3.48-1.3,1.19v21.26c0,.71.6,1.19,1.3,1.19h2.46v4.39c0,4.24,3.39,7.71,7.45,7.71h45.2c4.1,0,7.45-3.46,7.45-7.71v-4.43h2.46c.71,0,1.3-.48,1.3-1.19v-21.26c0-.67-.6-1.15-1.3-1.15h0Zm-21.52-39.35l14.74,14.33h-11.84c-.78,0-1.53-.34-2.05-.89-.56-.56-.86-1.3-.82-2.08v-11.35h-.04Zm-38.53,3.46c0-2.87,2.23-5.21,4.95-5.21h31.09v13.07c0,1.45.56,2.83,1.56,3.87s2.38,1.6,3.83,1.64h13.63v22.49h-55.06v-35.85Zm55.06,63.88c0,2.87-2.23,5.21-4.95,5.21h-45.16c-2.68,0-4.95-2.35-4.95-5.21v-4.39h55.06s0,4.39,0,4.39Zm3.8-6.92h-62.62v-18.58h62.62v18.58Z"/>
      <text class="cls-9" transform="translate(240.09 136.58)"><tspan class="cls-23" x="0" y="0">F</tspan><tspan x="9.07" y="0">ASTQ</tspan></text>
    </g>
  </g>
  <g>
    <g class="cls-12">
      <text class="cls-6" transform="translate(34.92 183.96)"><tspan x="0" y="0">Input RN</tspan><tspan class="cls-24" x="102.15" y="0">A</tspan><tspan x="117.98" y="0"> </tspan></text>
      <text class="cls-6" transform="translate(34.92 215.01)"><tspan x="0" y="0" xml:space="preserve">  </tspan><tspan class="cls-24" x="14.38" y="0">F</tspan><tspan x="28.77" y="0">ASTQ</tspan></text>
    </g>
    <g>
      <path class="cls-4" d="m130.03,118.94h-2.46v-23.75c0-.34-.15-.67-.41-.89l-18.91-18.54c-.22-.22-.56-.37-.89-.37h-32.43c-4.1,0-7.45,3.46-7.45,7.71v35.85h-2.49c-.71,0-1.3.48-1.3,1.19v21.26c0,.71.6,1.19,1.3,1.19h2.46v4.39c0,4.24,3.39,7.71,7.45,7.71h45.2c4.1,0,7.45-3.46,7.45-7.71v-4.43h2.46c.71,0,1.3-.48,1.3-1.19v-21.26c.04-.67-.56-1.15-1.27-1.15h0Zm-21.52-39.35l14.74,14.33h-11.84c-.78,0-1.53-.34-2.05-.89-.56-.56-.86-1.3-.82-2.08l-.04-11.35Zm-38.53,3.5c0-2.87,2.23-5.21,4.95-5.21h31.09v13.07c0,1.45.56,2.83,1.56,3.87,1.01,1.04,2.38,1.6,3.83,1.64h13.63v22.49h-55.06v-35.85Zm55.06,63.85c0,2.87-2.23,5.21-4.95,5.21h-45.16c-2.68,0-4.95-2.35-4.95-5.21v-4.39h55.06s0,4.39,0,4.39Zm3.8-6.92h-62.62v-18.58h62.62v18.58Z"/>
      <text class="cls-9" transform="translate(73.01 136.58)"><tspan class="cls-23" x="0" y="0">F</tspan><tspan x="9.07" y="0">ASTQ</tspan></text>
    </g>
  </g>
  <g>
    <text class="cls-6" transform="translate(185.46 371.89)"><tspan x="0" y="0">Barcodes File</tspan></text>
    <g>
      <path class="cls-4" d="m297.11,302.14h-2.46v-23.75c0-.34-.15-.67-.41-.89l-18.91-18.54c-.22-.22-.56-.37-.89-.37h-32.43c-4.1,0-7.45,3.46-7.45,7.71v35.85h-2.46c-.71,0-1.3.48-1.3,1.19v21.26c0,.71.6,1.19,1.3,1.19h2.46v4.39c0,4.24,3.39,7.71,7.45,7.71h45.2c4.1,0,7.45-3.46,7.45-7.71v-4.39h2.46c.71,0,1.3-.48,1.3-1.19v-21.26c0-.71-.6-1.19-1.3-1.19h0Zm-21.52-39.35l14.74,14.33h-11.84c-.78,0-1.53-.34-2.05-.89-.56-.56-.86-1.3-.82-2.08v-11.35h-.04Zm-38.53,3.5c0-2.87,2.23-5.21,4.95-5.21h31.09v13.07c0,1.45.56,2.83,1.56,3.87s2.38,1.6,3.83,1.64h13.63v22.49h-55.06v-35.85Zm55.06,63.88c0,2.87-2.23,5.21-4.95,5.21h-45.16c-2.68,0-4.95-2.35-4.95-5.21v-4.39h55.06s0,4.39,0,4.39Zm3.8-6.92h-62.62v-18.58h62.62v18.58Z"/>
      <text class="cls-9" transform="translate(249.89 319.79)"><tspan x="0" y="0">TSV</tspan></text>
      <path class="cls-4" d="m238.58,282.41h.82v21.52h-.82v-21.52Z"/>
      <path class="cls-4" d="m240.26,282.41h1.68v21.52h-1.68v-21.52Z"/>
      <path class="cls-4" d="m243.57,282.41h.82v21.52h-.82v-21.52Z"/>
      <path class="cls-4" d="m246.07,282.41h.82v21.52h-.82v-21.52Z"/>
      <path class="cls-4" d="m247.74,282.41h.82v21.52h-.82v-21.52Z"/>
      <path class="cls-4" d="m249.38,282.41h.82v21.52h-.82v-21.52Z"/>
      <path class="cls-4" d="m251.88,282.41h1.68v21.52h-1.68v-21.52Z"/>
      <path class="cls-4" d="m255.19,282.41h.82v21.52h-.82v-21.52Z"/>
      <path class="cls-4" d="m256.86,282.41h.82v21.52h-.82v-21.52Z"/>
      <path class="cls-4" d="m259.36,282.41h.82v21.52h-.82v-21.52Z"/>
      <path class="cls-4" d="m261.85,282.41h.82v21.52h-.82v-21.52Z"/>
      <path class="cls-4" d="m263.53,282.41h1.68v21.52h-1.68v-21.52Z"/>
      <path class="cls-4" d="m266.02,282.41h.82v21.52h-.82v-21.52Z"/>
      <path class="cls-4" d="m268.52,282.41h.82v21.52h-.82v-21.52Z"/>
      <path class="cls-4" d="m270.97,282.41h.82v21.52h-.82v-21.52Z"/>
      <path class="cls-4" d="m272.65,282.41h1.68v21.52h-1.68v-21.52Z"/>
      <path class="cls-4" d="m275.14,282.41h.82v21.52h-.82v-21.52Z"/>
      <path class="cls-4" d="m277.64,282.41h.82v21.52h-.82v-21.52Z"/>
      <path class="cls-4" d="m280.13,282.41h.82v21.52h-.82v-21.52Z"/>
      <path class="cls-4" d="m281.81,282.41h1.68v21.52h-1.68v-21.52Z"/>
    </g>
  </g>
  <text class="cls-6" transform="translate(1151.54 287.78)"><tspan x="0" y="0">Filter empty </tspan></text>
  <text class="cls-6" transform="translate(1166.84 309.19)"><tspan x="0" y="0">droplets</tspan></text>
  <g>
    <path class="cls-4" d="m1228.49,203.42h-4.39v-4.39h-2.2v4.39h-37.38v-4.39h-2.2v4.39h-4.39c-.89,0-1.71.34-2.35.97-.6.63-.97,1.45-.97,2.35v2.2c0,.78.26,1.53.78,2.12.52.6,1.23,1.01,1.97,1.12l20.33,21.37v14.93c0,.37.19.74.52.93.3.19.71.22,1.08.04l8.79-4.39c.19-.07.34-.22.45-.41s.15-.37.15-.6v-10.54l20.33-21.37c.78-.11,1.45-.52,1.97-1.12.52-.6.78-1.34.78-2.12v-2.2c0-.86-.34-1.71-.97-2.35-.6-.6-1.45-.93-2.31-.93h0Zm1.12,5.47c0,.3-.11.56-.3.78-.22.22-.48.34-.78.34h-4.39v2.2h1.82l-19.14,20.1c-.19.19-.3.48-.3.74v10.31l-6.59,3.28v-13.59c0-.3-.11-.56-.3-.74l-19.14-20.1h41.4v-2.2h-43.97c-.3,0-.56-.11-.78-.34-.19-.22-.34-.48-.34-.78v-2.2c0-.3.11-.56.34-.78.19-.22.48-.34.78-.34h50.56c.3,0,.56.11.78.34.19.22.3.48.3.78v2.2h.04Z"/>
    <path class="cls-4" d="m1203.21,201.22c1.75,0,3.43-.71,4.65-1.94s1.94-2.9,1.94-4.65-.71-3.43-1.94-4.65-2.9-1.94-4.65-1.94-3.43.71-4.65,1.94-1.94,2.9-1.94,4.65.71,3.43,1.94,4.65c1.23,1.23,2.9,1.94,4.65,1.94Zm0-10.98c1.15,0,2.27.45,3.13,1.3.82.82,1.3,1.94,1.3,3.09s-.45,2.27-1.3,3.09c-.82.82-1.94,1.3-3.13,1.3s-2.27-.45-3.13-1.3c-.82-.82-1.3-1.94-1.3-3.09s.45-2.27,1.3-3.09c.86-.86,1.97-1.3,3.13-1.3Z"/>
    <path class="cls-4" d="m1192.23,192.43h2.2v8.79h-2.2v-8.79Z"/>
    <path class="cls-4" d="m1212,192.43h2.2v8.79h-2.2v-8.79Z"/>
    <path class="cls-4" d="m1212,183.65h2.2v4.39h-2.2v-4.39Z"/>
    <path class="cls-4" d="m1192.23,183.65h2.2v4.39h-2.2v-4.39Z"/>
    <path class="cls-4" d="m1223.13,195.56c1.75,0,3.43-.71,4.65-1.94s1.94-2.9,1.94-4.65-.71-3.43-1.94-4.65-2.9-1.94-4.65-1.94-3.43.71-4.65,1.94-1.94,2.9-1.94,4.65.71,3.43,1.94,4.65c1.23,1.23,2.9,1.94,4.65,1.94Z"/>
    <path class="cls-4" d="m1182.25,196.53c1.75,0,3.43-.71,4.65-1.94s1.94-2.9,1.94-4.65-.71-3.43-1.94-4.65-2.9-1.94-4.65-1.94-3.43.71-4.65,1.94-1.94,2.9-1.94,4.65.71,3.43,1.94,4.65,2.87,1.94,4.65,1.94Zm0-10.98c1.15,0,2.27.45,3.13,1.3.82.82,1.3,1.94,1.3,3.09s-.45,2.27-1.3,3.09c-.82.82-1.94,1.3-3.13,1.3s-2.27-.45-3.13-1.3c-.82-.82-1.3-1.94-1.3-3.09s.45-2.27,1.3-3.09c.82-.86,1.94-1.3,3.13-1.3Z"/>
    <path class="cls-4" d="m1182.25,181.3c1.75,0,3.43-.71,4.65-1.94s1.94-2.9,1.94-4.65-.71-3.43-1.94-4.65-2.9-1.94-4.65-1.94-3.43.71-4.65,1.94-1.94,2.9-1.94,4.65.71,3.43,1.94,4.65c1.23,1.27,2.87,1.94,4.65,1.94Z"/>
    <path class="cls-4" d="m1223.13,179.4c1.75,0,3.43-.71,4.65-1.94s1.94-2.9,1.94-4.65-.71-3.43-1.94-4.65-2.9-1.94-4.65-1.94-3.43.71-4.65,1.94-1.94,2.9-1.94,4.65.71,3.43,1.94,4.65,2.9,1.94,4.65,1.94Zm0-10.98c1.19,0,2.27.45,3.13,1.3.82.82,1.3,1.94,1.3,3.09s-.48,2.27-1.3,3.09-1.94,1.3-3.13,1.3-2.27-.45-3.13-1.3c-.82-.82-1.3-1.94-1.3-3.09s.45-2.27,1.3-3.09c.82-.82,1.94-1.3,3.13-1.3Z"/>
    <path class="cls-4" d="m1203.14,168.01c1.75,0,3.43-.71,4.65-1.94s1.94-2.9,1.94-4.65-.71-3.43-1.94-4.65-2.9-1.94-4.65-1.94-3.43.71-4.65,1.94-1.94,2.9-1.94,4.65.71,3.43,1.94,4.65c1.23,1.27,2.9,1.94,4.65,1.94Zm0-10.98c1.19,0,2.27.45,3.13,1.3.82.82,1.3,1.94,1.3,3.09s-.45,2.27-1.3,3.09c-.82.82-1.94,1.3-3.13,1.3s-2.27-.45-3.13-1.3c-.82-.82-1.3-1.94-1.3-3.09s.45-2.27,1.3-3.09c.86-.82,1.97-1.3,3.13-1.3Z"/>
    <path class="cls-4" d="m1203.14,184.17c1.75,0,3.43-.71,4.65-1.94s1.94-2.9,1.94-4.65-.71-3.43-1.94-4.65-2.9-1.94-4.65-1.94-3.43.71-4.65,1.94-1.94,2.9-1.94,4.65.71,3.43,1.94,4.65c1.23,1.23,2.9,1.94,4.65,1.94Z"/>
  </g>
  <path class="cls-5" d="m561.32,216.11l-10.2-5.88v11.76l10.2-5.88Zm-174.34-86.7h1.01v-1.01h-1.01v1.01Zm0,189.16v1.01h1.01v-1.01h-1.01Zm0-101.45h165.18v-2.05h-165.18v2.05Zm1.01-1.01v-86.7h-2.05v86.67h2.05v.04Zm-1.01-87.71h-82.09v2.05h82.09v-2.05Zm-1.04,87.71v102.49h2.05v-102.49h-2.05Zm1.04,101.45h-82.09v2.05h82.09v-2.05Z"/>
  <path class="cls-5" d="m1148.67,216.52l-10.16-5.92-.04,11.76,10.2-5.84Zm-151.97.52l142.77.48v-2.05l-142.73-.48-.04,2.05Z"/>
  <path class="cls-5" d="m1414.78,217.04l-10.2-5.88v11.76l10.2-5.88Zm-157.03,1.04h147.83v-2.05h-147.83v2.05Z"/>
  <path class="cls-5" d="m1677.87,216.04l-10.2-5.88v11.76l10.2-5.88Zm-139.72,1.01h130.52v-2.05h-130.52v2.05Z"/>
  <path class="cls-5" d="m2040.89,217.04l-10.2-5.88v11.76l10.2-5.88Zm-139.72,1.04h130.52v-2.05h-130.52v2.05Z"/>
  <text class="cls-11" transform="translate(419.04 210.54)"><tspan x="0" y="0">alevin-fry</tspan></text>
  <text class="cls-6" transform="translate(428.72 199.45)"><tspan x="0" y="0"> </tspan></text>
  <text class="cls-11" transform="translate(1501.78 311.23)"><tspan x="0" y="0">miQC</tspan></text>
  <text class="cls-6" transform="translate(1363.06 287.78)"><tspan x="0" y="0">Remove low quality </tspan></text>
  <text class="cls-6" transform="translate(1373.8 309.19)"><tspan x="0" y="0">cells using </tspan></text>
  <g>
    <path class="cls-7" d="m1448.77,185.55h-10.13c-1.19,0-2.31.48-3.16,1.3-.86.86-1.3,1.97-1.3,3.16,0,9.23,3.24,37.79,3.24,47.58,0,3.16,2.72,5.81,6.14,5.81h29.67c3.43,0,6.14-2.64,6.14-5.81,0-8.3,2.31-30.08,3.05-42.18l11.69,43.56c.3,1.15,1.04,2.12,2.05,2.68s2.23.74,3.35.45h0c1.12-.3,2.08-1.04,2.68-2.08.6-1.01.74-2.23.45-3.35l-3.72-13.92c.07,0,.15-.04.22-.07h0c3.28-.89,5.25-4.24,4.36-7.56l-3.16-11.84c-.89-3.28-4.24-5.25-7.56-4.36l-.22.07-3.72-13.92c-.3-1.15-1.04-2.12-2.08-2.68-1.01-.6-2.23-.74-3.35-.45h0c-1.15.3-2.12,1.04-2.72,2.05-.34.6-.52,1.27-.6,1.94-.63-.3-1.3-.48-2.01-.48h-27.74c-1.9.11-1.56.11-1.56.11Zm31.38,4.5c0,9.23-3.24,37.79-3.24,47.58,0,1.86-1.68,3.31-3.65,3.31h-29.67c-2.01,0-3.65-1.45-3.65-3.31,0-9.79-3.24-38.35-3.24-47.58,0-.52.19-1.04.6-1.41.37-.37.89-.6,1.41-.6h39.5c.52,0,1.04.22,1.41.6.3.37.52.89.52,1.41Zm6.33-4.21l13.81,51.56c.15.48.07,1.04-.19,1.49-.26.45-.67.78-1.19.89h0c-.48.15-1.04.07-1.49-.19s-.78-.67-.89-1.19l-13.81-51.56c-.15-.48-.07-1.04.19-1.49.26-.45.67-.78,1.19-.89h0c.48-.15,1.04-.07,1.49.19.41.26.74.67.89,1.19Zm11.84,34.59l-5.06-18.91c.07,0,.15-.04.19-.07,1.97-.52,3.98.63,4.5,2.61l3.16,11.84c.52,1.97-.63,3.98-2.61,4.5l-.19.04Z"/>
    <path class="cls-7" d="m1469.36,171.55c.34-.6.15-1.34-.45-1.71l-5.06-2.94c-.6-.34-1.34-.15-1.71.45l-2.94,5.06c-.34.6-.15,1.38.45,1.71l5.06,2.94c.6.34,1.34.15,1.71-.45l2.94-5.06Zm-2.75-.19l-1.68,2.9-2.9-1.68,1.68-2.9,2.9,1.68Z"/>
    <path class="cls-7" d="m1460.05,179.63c.19-.6-.11-1.23-.67-1.41l-4.91-1.71c-.56-.19-1.19.11-1.41.67l-1.71,4.91c-.19.56.11,1.23.67,1.41l4.91,1.71c.6.19,1.23-.11,1.41-.67l1.71-4.91Zm-2.46.3l-1.01,2.83-2.83-1.01,1.01-2.83,2.83,1.01Z"/>
    <path class="cls-7" d="m1461.54,162.02c.48-.48.48-1.27,0-1.75l-5.06-5.06c-.48-.48-1.27-.48-1.75,0l-5.06,5.06c-.48.48-.48,1.27,0,1.75l5.06,5.06c.48.48,1.3.48,1.75,0l5.06-5.06Zm-2.64-.86l-3.28,3.28-3.28-3.28,3.28-3.28,3.28,3.28Z"/>
    <path class="cls-4" d="m1459.04,203.15c-7.37,0-13.36,5.99-13.36,13.36s5.99,13.36,13.36,13.36,13.36-5.99,13.36-13.36c0-7.37-5.96-13.36-13.36-13.36Zm0,24.05c-5.92,0-10.68-4.8-10.68-10.68s4.8-10.68,10.68-10.68,10.68,4.8,10.68,10.68c0,5.92-4.77,10.68-10.68,10.68Z"/>
    <path class="cls-4" d="m1462.69,212.91c-.52-.52-1.38-.52-1.9,0l-1.71,1.71-1.75-1.71c-.52-.52-1.38-.52-1.9,0s-.52,1.38,0,1.9l1.71,1.71-1.71,1.71c-.52.52-.52,1.38,0,1.9s1.38.52,1.9,0l1.75-1.71,1.71,1.71c.52.52,1.38.52,1.9,0s.52-1.38,0-1.9l-1.75-1.71,1.75-1.71c.48-.52.48-1.38,0-1.9Z"/>
  </g>
  <text class="cls-6" transform="translate(1621.52 284.08)"><tspan x="0" y="0">RN</tspan><tspan class="cls-26" x="37.38" y="0">A</tspan><tspan x="53.22" y="0" xml:space="preserve"> and</tspan><tspan class="cls-26" x="103.6" y="0"> </tspan><tspan x="109.36" y="0">AD</tspan><tspan class="cls-2" x="145.32" y="0">T</tspan><tspan x="160.66" y="0" xml:space="preserve"> normalization and </tspan></text>
  <text class="cls-6" transform="translate(1615.22 305.49)"><tspan x="0" y="0">dimensionality reduction with PC</tspan><tspan class="cls-26" x="374.05" y="0">A</tspan><tspan x="389.89" y="0"> </tspan></text>
  <text class="cls-6" transform="translate(1709.17 326.91)"><tspan x="0" y="0">and UMA</tspan><tspan class="cls-2" x="107.9" y="0">P</tspan></text>
  <g>
    <path class="cls-4" d="m1858.8,242.54c-22.9,0-40.36-5.92-53.31-18.13-11.06-10.39-16.83-23.57-21.52-34.1-4.99-11.35-8.64-19.62-15.86-19.62s-11.76,8.79-17.35,19.88c-5.32,10.54-11.91,23.64-23.42,33.95-13.51,12.1-30.97,18.02-53.35,18.02v-2.64c48.88,0,63.59-29.15,74.35-50.48,6.03-11.91,10.8-21.33,19.84-21.33s13.18,9.34,18.35,21.22c9.42,21.37,22.3,50.63,72.33,50.63l-.07,2.61h0Z"/>
    <path class="cls-4" d="m1673.78,243.36h185.06v1.56h-185.06v-1.56Z"/>
    <path class="cls-4" d="m1803.67,233.57v-8.3h-6.48v-7.26h-6.48v-11.88h-6.48v-12.14h-6.48v-11.02h-6.48v-5.81h-8.04v5.77h-6.74v10.98h-6.55v12.17h-6.48v11.88h-6.48v7.26h-6.48v8.3h-6.51v8.86h86.22v-8.86h-6.55v.04Zm-73.19,7.3h-4.91v-5.73h4.91v5.73Zm1.6,0v-14.07h4.91v14.07h-4.91Zm6.48,0v-21.33h4.91v21.33h-4.91Zm11.39,0h-4.91v-33.21h4.91v33.21Zm1.56,0v-45.34h4.91v45.38h-4.91v-.04Zm11.43,0h-4.91v-56.36h4.91v56.36Zm1.82,0v-62.13h4.91v62.13h-4.91Zm6.48,0v-56.36h4.91v56.36h-4.91Zm11.39,0h-4.91v-45.34h4.91v45.34Zm1.56,0v-33.21h4.91v33.21h-4.91Zm6.48,0v-21.33h4.91v21.33h-4.91Zm11.43,0h-4.91v-14.07h4.91v14.07Zm6.51,0h-4.91v-5.73h4.91v5.73Z"/>
  </g>
  <path class="cls-5" d="m940.64,369.49h-1.01v1.01h1.01v-1.01Zm299.28,0h1.01v-1.01h-1.01v1.01Zm0,54.06l5.88-10.2h-11.76l5.88,10.2Zm-300.28-99.96v45.9h2.05v-45.9h-2.05Zm1.01,46.91h299.28v-2.05h-299.28v2.05Zm298.27-1.01v44.86h2.05v-44.86h-2.05Z"/>
  <path class="cls-5" d="m1210.36,351.14h-1.01v1.01h1.01v-1.01Zm182.01,0h1.01v-1.01h-1.01v1.01Zm0,70.85l5.88-10.2h-11.76l5.88,10.2Zm-183.05-101.97v31.09h2.05v-31.09h-2.05Zm1.04,32.13h182.01v-2.05h-182.01v2.05Zm180.97-1.01v61.69h2.05v-61.69h-2.05Z"/>
  <path class="cls-5" d="m1541.24,371.54v-1.01h-1.01v1.01h1.01Zm0,49.44l5.88-10.2h-11.76l5.88,10.2Zm318.64-49.44h1.01v-1.01h-1.01v1.01Zm0,49.44l5.88-10.2h-11.76l5.88,10.2Zm-87.71-81.57v32.13h2.05v-32.13h-2.05Zm-231.97,32.13v40.28h2.05v-40.28h-2.05Zm233.01-1.04h-67.31v2.05h67.31v-2.05Zm-67.31,0h-164.66v2.05h164.66v-2.05Zm67.31,2.05h86.67v-2.05h-86.67v2.05Zm85.63-1.01v40.28h2.05v-40.28h-2.05Z"/>
  <text class="cls-6" transform="translate(2033.13 287.78)"><tspan x="0" y="0">Cell type annotation</tspan></text>
  <g>
    <path class="cls-4" d="m2118.73,208.25c-.3-.45-.82-.74-1.38-.74h-12.62c-2.31,0-4.47,1.19-5.62,3.09l-4.88,8.04c-1.15,1.9-1.15,4.28,0,6.18l4.88,8.04c1.15,1.9,3.31,3.09,5.62,3.09h12.62c.56,0,1.08-.3,1.38-.74l7.93-12.69c.3-.48.3-1.08,0-1.56l-7.93-12.69Zm-2.27,24.61h-11.69c-1.15,0-2.27-.6-2.87-1.56l-4.84-8.04c-.6-.97-.6-2.16,0-3.13l4.84-8.04c.6-.97,1.68-1.56,2.87-1.56h11.69l7,11.17-7,11.17Z"/>
    <path class="cls-4" d="m2166.49,198.69l-10.01-15.86,3.31-6.14c.41-.74.07-1.68-.71-2.05s-1.75-.07-2.16.67l-3.28,6.11-21.37.97-5.21-5.84c-.56-.63-1.56-.71-2.27-.19-.67.56-.74,1.53-.19,2.16l5.03,5.62-8.71,15.64c-.3.56-.52,1.19-.67,1.82-.63-.19-1.3-.3-2.01-.3h-19.32l-3.8-4.88c-.52-.67-1.53-.82-2.23-.3s-.86,1.45-.34,2.12l3.69,4.69-9.53,15.71c-1.15,1.9-1.15,4.28,0,6.18l9.53,15.71-3.69,4.69c-.52.67-.37,1.64.34,2.12.71.52,1.71.37,2.23-.3l3.8-4.88h21.15l2.72,4.73c.45.74,1.41,1.01,2.16.6.78-.41,1.04-1.34.63-2.08l-2.75-4.73,9.87-15.75c.41-.63.67-1.34.82-2.05.71.22,1.49.34,2.27.3l19.14-.6,4.77,6.18c.52.67,1.53.82,2.23.34s.86-1.45.34-2.12l-4.65-6.07,9.01-16.08c1.12-1.94,1.04-4.28-.11-6.14h0Zm-36.48,24.61l-9.87,15.75h-21.07l-9.57-15.78c-.6-.97-.6-2.16,0-3.13l9.57-15.78h19.17c1.15,0,2.23.6,2.83,1.53l8.93,14.22c.63,1.01.63,2.23,0,3.2h0Zm33.84-19.95l-9.05,16.12-19.06.6c-1.19.04-2.31-.56-2.94-1.53l-.04-.04h0l-8.93-14.22h0c-.6-.93-.6-2.12-.07-3.09l8.82-15.78,21.18-.97,9.98,15.82c.6.93.63,2.12.11,3.09h0Z"/>
    <path class="cls-4" d="m2153.95,190.87c-1.23-1.94-3.46-3.09-5.84-2.98l-9.79.45c-2.27.11-4.36,1.34-5.44,3.28l-4.47,8.04c-1.04,1.9-1.01,4.21.15,6.03l5.14,8.34c1.23,2.01,3.5,3.13,5.81,3.05l9.53-.3c2.31-.07,4.43-1.34,5.51-3.31l4.65-8.49c1.04-1.9.97-4.21-.19-6.07l-5.06-8.04Zm2.42,12.66l-4.65,8.49c-.56,1.01-1.64,1.64-2.79,1.68l-9.53.3c-1.19.04-2.35-.56-2.94-1.56l-5.14-8.34c-.56-.93-.6-2.08-.07-3.05l4.47-8.04c.56-.97,1.6-1.6,2.75-1.68l9.79-.45c1.19-.04,2.35.52,2.98,1.53l5.06,8.04c.56.97.6,2.12.07,3.09h0Z"/>
    <path class="cls-4" d="m2143.75,193.92c-3.65,0-6.48,2.05-6.48,4.62s2.83,4.62,6.48,4.62,6.48-2.05,6.48-4.62-2.83-4.62-6.48-4.62Zm0,6.18c-2.01,0-3.28-.93-3.28-1.56s1.3-1.56,3.28-1.56,3.28.93,3.28,1.56c0,.63-1.27,1.56-3.28,1.56Z"/>
    <path class="cls-4" d="m2109.05,214.25c-3.65,0-6.48,2.05-6.48,4.62s2.83,4.62,6.48,4.62,6.48-2.05,6.48-4.62-2.83-4.62-6.48-4.62Zm0,6.22c-2.01,0-3.28-.93-3.28-1.6,0-.63,1.3-1.56,3.28-1.56s3.28.93,3.28,1.56-1.27,1.6-3.28,1.6Z"/>
    <path class="cls-4" d="m2114.86,228.06c0,.86-.71,1.53-1.6,1.53s-1.6-.67-1.6-1.53.71-1.53,1.6-1.53,1.6.67,1.6,1.53Z"/>
    <path class="cls-4" d="m2148.77,208.63c0,.86-.71,1.53-1.6,1.53s-1.6-.67-1.6-1.53.71-1.53,1.6-1.53,1.6.71,1.6,1.53Z"/>
    <path class="cls-15" d="m2165.27,164.51h-18.35v15.3"/>
    <path class="cls-15" d="m2167.31,245.07h-24.46v-18.39"/>
    <path class="cls-15" d="m2123.46,191.06h-23.45v-18.39"/>
    <path class="cls-14" d="m2168.32,157.4h34.66v11.21h-34.66v-11.21Z"/>
    <path class="cls-14" d="m2169.36,237.93h32.61v13.25h-32.61v-13.25Z"/>
    <path class="cls-14" d="m2083.7,157.4h27.55v11.21h-27.55v-11.21Z"/>
    <path class="cls-14" d="m2052.09,231.82h27.55v10.2h-27.55v-10.2Z"/>
    <path class="cls-15" d="m2087.76,213.47h-22.45v15.3"/>
  </g>
  <path class="cls-5" d="m2023.02,421.98l5.88-10.2h-11.76l5.88,10.2Zm0-68.8v-1.04h-1.01v1.01h1.01v.04Zm114.74,0v1.01h1.01v-1.01h-1.01Zm-115.74,0v59.64h2.05v-59.64h-2.05Zm114.7-31.12v31.09h2.05v-31.09h-2.05Zm1.04,30.08h-114.7v2.05h114.7v-2.05Z"/>
  <path class="cls-5" d="m1120.12,738.09l5.88-10.2h-11.76l5.88,10.2Zm0-58.11v-1.01h-1.01v1.01h1.01Zm542.98,0h1.01v-1.01h-1.01v1.01Zm0,52.53l5.88-10.2h-11.76l5.88,10.2Zm-263.61-136.14v83.62h2.05v-83.62h-2.05Zm1.04,82.61h-280.4v2.05h280.4v-2.05Zm-281.45,1.01v48.96h2.05v-48.96h-2.05Zm281.45,1.01h262.57v-2.05h-262.57v2.05Zm262.57-1.01h-1.01v.11h0v43.15h2.05v-43h0q-.04-.26-1.04-.26Z"/>
  <text class="cls-11" transform="translate(1284.09 654.48)"><tspan x="0" y="0">AnnData</tspan></text>
  <text class="cls-6" transform="translate(1277.46 633.07)"><tspan x="0" y="0">Convert to </tspan></text>
  <g>
    <g>
      <path class="cls-4" d="m674.86,294.51h-2.46v-23.75c0-.34-.15-.67-.41-.89l-18.91-18.54c-.22-.22-.56-.37-.89-.37h-32.43c-4.1,0-7.45,3.46-7.45,7.71v35.85h-2.46c-.71,0-1.3.48-1.3,1.19v21.26c0,.71.6,1.19,1.3,1.19h2.46v4.39c0,4.24,3.39,7.71,7.45,7.71h45.2c4.1,0,7.45-3.46,7.45-7.71v-4.39h2.46c.71,0,1.3-.48,1.3-1.19v-21.26c0-.71-.6-1.19-1.3-1.19h0Zm-21.52-39.39l14.74,14.33h-11.84c-.78,0-1.53-.34-2.05-.89-.56-.56-.86-1.3-.82-2.08v-11.35h-.04Zm-38.53,3.5c0-2.87,2.23-5.21,4.95-5.21h31.09v13.07c0,1.45.56,2.83,1.56,3.87s2.38,1.6,3.83,1.64h13.63v22.49h-55.06v-35.85h0Zm55.06,63.88c0,2.87-2.23,5.21-4.95,5.21h-45.2c-2.68,0-4.95-2.35-4.95-5.21v-4.39h55.06v4.39h.04Zm3.8-6.92h-62.62v-18.58h62.62v18.58Z"/>
      <text class="cls-9" transform="translate(626.01 313.16)"><tspan x="0" y="0">MTX</tspan></text>
      <path class="cls-4" d="m647.09,263.54h-26.95c-1.01,0-1.75.82-1.75,1.75v28.55c0,1.01.82,1.75,1.75,1.75h26.95c1.01,0,1.75-.82,1.75-1.75v-28.55c.04-.93-.78-1.75-1.75-1.75h0Zm.78,9.53h-6.37v-3.31h6.37v3.31Zm0,4.32h-6.37v-3.31h6.37v3.31Zm0,4.28h-6.37v-3.31h6.37v3.31Zm0,4.32h-6.37v-3.31h6.37v3.31Zm-28.48-3.31h6.37v3.31h-6.37v-3.31Zm0-4.28h6.37v3.31h-6.37v-3.31Zm0-4.32h6.37v3.31h-6.37v-3.31Zm7.37,4.32h6.37v3.31h-6.37v-3.31Zm7.37,0h6.37v3.31h-6.37v-3.31Zm6.37-1.01h-6.37v-3.31h6.37v3.31Zm-7.37,0h-6.37v-3.31h6.37v3.31Zm-6.37,5.29h6.37v3.31h-6.37v-3.31Zm7.37,0h6.37v3.31h-6.37v-3.31Zm6.37-9.6h-6.37v-3.31h6.37v3.31Zm-7.37,0h-6.37v-3.31h6.37v3.31Zm-7.37,0h-6.37v-3.31h6.37v3.31Zm-6.37,13.92h6.37v3.31h-6.37v-3.31Zm7.37,0h6.37v3.31h-6.37v-3.31Zm7.37,0h6.37v3.31h-6.37v-3.31Zm7.37,0h6.37v3.31h-6.37v-3.31Zm6.37-21.7v3.43h-6.37v-4.17h5.58c.41,0,.78.34.78.74h0Zm-7.37,3.46h-6.37v-4.21h6.37v4.21Zm-7.37,0h-6.37v-4.21h6.37v4.21Zm-13.74-3.46c0-.41.37-.74.74-.74h5.58v4.21h-6.37v-3.46h.04Zm0,28.59v-2.57h6.37v3.31h-5.58c-.41,0-.78-.37-.78-.74h0Zm7.37-2.57h6.37v3.31h-6.37v-3.31Zm7.37,0h6.37v3.31h-6.37v-3.31Zm13.74,2.57c0,.45-.37.74-.74.74h-5.58v-3.31h6.37l-.04,2.57Z"/>
      <path class="cls-4" d="m628.92,267.15h2.01c.3,0,.52-.19.52-.48s-.19-.48-.52-.48h-2.01c-.3,0-.52.19-.52.48s.22.48.52.48Z"/>
      <path class="cls-4" d="m636.3,267.15h2.01c.3,0,.52-.19.52-.48s-.19-.48-.52-.48h-2.01c-.3,0-.52.19-.52.48s.22.48.52.48Z"/>
      <path class="cls-4" d="m643.67,267.15h2.01c.3,0,.52-.19.52-.48s-.19-.48-.52-.48h-2.01c-.3,0-.52.19-.52.48s.26.48.52.48Z"/>
      <path class="cls-4" d="m621.66,266.18c-.15-.11-.41-.04-.52.11-.04.04-.11.11-.15.15v.19c0,.15.04.26.15.34,0,.04.11.11.15.11.04.04.11.04.19.04s.15,0,.19-.04c.04,0,.11-.04.15-.11.11-.11.15-.19.15-.34s-.04-.26-.15-.34c0-.04-.04-.11-.15-.11Z"/>
      <path class="cls-4" d="m623.86,266.18c-.19-.11-.41-.04-.56.11-.04.04-.11.11-.11.15s-.04.15-.04.19c0,.15.04.26.15.34.11.11.26.15.37.15.04,0,.15,0,.19-.04.04,0,.11-.04.15-.11.11-.11.15-.19.15-.34s-.04-.26-.15-.34c-.07-.04-.11-.11-.15-.11Z"/>
    </g>
    <g class="cls-12">
      <text class="cls-3" transform="translate(581.54 352.52)"><tspan x="0" y="0">AD</tspan><tspan class="cls-1" x="31.03" y="0">T</tspan><tspan x="44.27" y="0" xml:space="preserve"> by cell</tspan></text>
      <text class="cls-3" transform="translate(581.54 379.33)"><tspan x="0" y="0">count matrix</tspan></text>
    </g>
  </g>
  <g>
    <path class="cls-5" d="m870.02,216.11l-7.41-5.88v11.76l7.41-5.88Zm-115.85,1.01h109.19v-2.05h-109.19v2.05Zm2.08-1.01v-86.7h-2.05v86.67h2.05v.04Zm0-87.71h-65.52v2.05h65.52v-2.05Zm-2.05,87.71v102.49h2.05v-102.49h-2.05Zm2.05,101.45h-65.52v2.05h65.52v-2.05Z"/>
    <g class="cls-12">
      <text class="cls-6" transform="translate(775.3 173.18)"><tspan x="0" y="0">Read </tspan></text>
      <text class="cls-6" transform="translate(775.3 204.23)"><tspan x="0" y="0">into R</tspan></text>
    </g>
  </g>
</svg>