<svg width="1313" height="291" viewBox="0 0 1313 291" fill="none" xmlns="http://www.w3.org/2000/svg">
<rect width="1313" height="291" fill="white"/>
<text fill="black" xml:space="preserve" style="white-space: pre" font-family="Arial" font-size="18" letter-spacing="0em"><tspan x="50" y="243.74">Input Samples RNA FASTQ</tspan></text>
<path d="M181.396 177.357H178.974V154.052C178.965 153.718 178.824 153.401 178.581 153.171L160.036 134.975C159.801 134.747 159.487 134.618 159.16 134.617H127.346C123.339 134.617 120.033 138.015 120.033 142.181V177.357H117.61C116.928 177.357 116.329 177.833 116.329 178.514V199.345C116.329 200.027 116.928 200.502 117.61 200.502H120.033V204.82C120.033 208.986 123.339 212.383 127.346 212.383H171.66C175.667 212.383 178.973 208.985 178.973 204.82V200.502H181.396C182.077 200.502 182.676 200.026 182.676 199.345V178.514C182.676 177.833 182.078 177.357 181.396 177.357L181.396 177.357ZM160.304 138.763L174.746 152.824H163.143C162.38 152.814 161.652 152.502 161.12 151.955C160.587 151.409 160.294 150.673 160.304 149.91L160.304 138.763ZM122.501 142.18C122.501 139.376 124.7 137.086 127.346 137.086H157.835V149.91C157.825 151.328 158.379 152.691 159.374 153.7C160.369 154.71 161.725 155.283 163.143 155.293H176.505V177.357H122.501L122.501 142.18ZM176.505 204.82C176.505 207.624 174.306 209.914 171.66 209.914H127.346C124.7 209.914 122.501 207.624 122.501 204.82V200.502H176.505L176.505 204.82ZM180.208 198.033H118.798V179.827H180.208V198.033Z" fill="black"/>
<text fill="black" xml:space="preserve" style="white-space: pre" font-family="Oxygen Mono" font-size="16" letter-spacing="0em"><tspan x="125.477" y="194.651">FASTQ</tspan></text>
<path d="M180.396 87.3573H177.974V64.0523C177.965 63.718 177.824 63.4012 177.581 63.1712L159.036 44.9749C158.801 44.7468 158.487 44.6185 158.16 44.6169H126.346C122.339 44.6169 119.033 48.0148 119.033 52.1805V87.3573H116.61C115.928 87.3573 115.329 87.8333 115.329 88.5145V109.345C115.329 110.027 115.928 110.502 116.61 110.502H119.033V114.82C119.033 118.986 122.339 122.383 126.346 122.383H170.66C174.667 122.383 177.973 118.985 177.973 114.82V110.502H180.396C181.077 110.502 181.676 110.026 181.676 109.345V88.5145C181.676 87.8332 181.078 87.3573 180.396 87.3573L180.396 87.3573ZM159.304 48.7625L173.746 62.8238H162.143C161.38 62.8143 160.652 62.5019 160.12 61.9554C159.587 61.409 159.294 60.673 159.304 59.91L159.304 48.7625ZM121.501 52.1804C121.501 49.3761 123.7 47.0858 126.346 47.0858H156.835V59.9101C156.825 61.3276 157.379 62.6911 158.374 63.7004C159.369 64.71 160.725 65.2827 162.143 65.2928H175.505V87.3575H121.501L121.501 52.1804ZM175.505 114.82C175.505 117.624 173.306 119.914 170.66 119.914H126.346C123.7 119.914 121.501 117.624 121.501 114.82V110.502H175.505L175.505 114.82ZM179.208 108.033H117.798V89.8266H179.208V108.033Z" fill="black"/>
<text fill="black" xml:space="preserve" style="white-space: pre" font-family="Oxygen Mono" font-size="16" letter-spacing="0em"><tspan x="124.477" y="104.651">FASTQ</tspan></text>
<path d="M101.396 151.357H98.9738V128.052C98.9653 127.718 98.8239 127.401 98.5814 127.171L80.0362 108.975C79.8014 108.747 79.4874 108.618 79.16 108.617H47.346C43.3387 108.617 40.0326 112.015 40.0326 116.181V151.357H37.6101C36.9284 151.357 36.3295 151.833 36.3295 152.514V173.345C36.3295 174.027 36.9281 174.502 37.6101 174.502H40.0326V178.82C40.0326 182.986 43.3389 186.383 47.346 186.383H91.6598C95.6671 186.383 98.9732 182.985 98.9732 178.82V174.502H101.396C102.077 174.502 102.676 174.026 102.676 173.345V152.514C102.676 151.833 102.078 151.357 101.396 151.357L101.396 151.357ZM80.304 112.763L94.7465 126.824H83.1434C82.3803 126.814 81.6524 126.502 81.1198 125.955C80.5874 125.409 80.294 124.673 80.3043 123.91L80.304 112.763ZM42.5011 116.18C42.5011 113.376 44.6998 111.086 47.3461 111.086H77.8348V123.91C77.825 125.328 78.3787 126.691 79.3742 127.7C80.3694 128.71 81.7252 129.283 83.1426 129.293H96.5048V151.357H42.5011L42.5011 116.18ZM96.5049 178.82C96.5049 181.624 94.3062 183.914 91.6599 183.914H47.3462C44.7 183.914 42.5013 181.624 42.5013 178.82V174.502H96.505L96.5049 178.82ZM100.208 172.033H38.798V153.827H100.208V172.033Z" fill="black"/>
<text fill="black" xml:space="preserve" style="white-space: pre" font-family="Oxygen Mono" font-size="16" letter-spacing="0em"><tspan x="45.4765" y="168.651">FASTQ</tspan></text>
<path d="M254.396 145.357H251.974V122.052C251.965 121.718 251.824 121.401 251.581 121.171L233.036 102.975C232.801 102.747 232.487 102.618 232.16 102.617H200.346C196.339 102.617 193.033 106.015 193.033 110.181V145.357H190.61C189.928 145.357 189.329 145.833 189.329 146.514V167.345C189.329 168.027 189.928 168.502 190.61 168.502H193.033V172.82C193.033 176.986 196.339 180.383 200.346 180.383H244.66C248.667 180.383 251.973 176.985 251.973 172.82V168.502H254.396C255.077 168.502 255.676 168.026 255.676 167.345V146.514C255.676 145.833 255.078 145.357 254.396 145.357L254.396 145.357ZM233.304 106.763L247.746 120.824H236.143C235.38 120.814 234.652 120.502 234.12 119.955C233.587 119.409 233.294 118.673 233.304 117.91L233.304 106.763ZM195.501 110.18C195.501 107.376 197.7 105.086 200.346 105.086H230.835V117.91C230.825 119.328 231.379 120.691 232.374 121.7C233.369 122.71 234.725 123.283 236.143 123.293H249.505V145.357H195.501L195.501 110.18ZM249.505 172.82C249.505 175.624 247.306 177.914 244.66 177.914H200.346C197.7 177.914 195.501 175.624 195.501 172.82V168.502H249.505L249.505 172.82ZM253.208 166.033H191.798V147.827H253.208V166.033Z" fill="black"/>
<text fill="black" xml:space="preserve" style="white-space: pre" font-family="Oxygen Mono" font-size="16" letter-spacing="0em"><tspan x="198.477" y="162.651">FASTQ</tspan></text>
<text fill="black" xml:space="preserve" style="white-space: pre" font-family="Arial" font-size="18" letter-spacing="0em"><tspan x="1150.91" y="206.74">Sample by gene </tspan><tspan x="1166.95" y="227.74">count matrix</tspan></text>
<path d="M1247.4 137.357H1244.97V114.052C1244.97 113.718 1244.82 113.401 1244.58 113.171L1226.04 94.9749C1225.8 94.7468 1225.49 94.6185 1225.16 94.6169H1193.35C1189.34 94.6169 1186.03 98.0148 1186.03 102.181V137.357H1183.61C1182.93 137.357 1182.33 137.833 1182.33 138.514V159.345C1182.33 160.027 1182.93 160.502 1183.61 160.502H1186.03V164.82C1186.03 168.986 1189.34 172.383 1193.35 172.383H1237.66C1241.67 172.383 1244.97 168.985 1244.97 164.82V160.502H1247.4C1248.08 160.502 1248.68 160.026 1248.68 159.345V138.514C1248.68 137.833 1248.08 137.357 1247.4 137.357L1247.4 137.357ZM1226.3 98.7625L1240.75 112.824H1229.14C1228.38 112.814 1227.65 112.502 1227.12 111.955C1226.59 111.409 1226.29 110.673 1226.3 109.91L1226.3 98.7625ZM1188.5 102.18C1188.5 99.3761 1190.7 97.0858 1193.35 97.0858H1223.83V109.91C1223.82 111.328 1224.38 112.691 1225.37 113.7C1226.37 114.71 1227.73 115.283 1229.14 115.293H1242.5V137.357H1188.5L1188.5 102.18ZM1242.5 164.82C1242.5 167.624 1240.31 169.914 1237.66 169.914H1193.35C1190.7 169.914 1188.5 167.624 1188.5 164.82V160.502H1242.5L1242.5 164.82ZM1246.21 158.033H1184.8V139.827H1246.21V158.033Z" fill="black"/>
<text fill="black" xml:space="preserve" style="white-space: pre" font-family="Oxygen Mono" font-size="16" letter-spacing="0em"><tspan x="1201.09" y="154.651">TSV</tspan></text>
<text fill="black" xml:space="preserve" style="white-space: pre" font-family="Arial" font-size="18" letter-spacing="0em"><tspan x="744" y="243.74">quant.sf salmon output</tspan></text>
<path d="M874.396 175.357H871.974V152.052C871.965 151.718 871.824 151.401 871.581 151.171L853.036 132.975C852.801 132.747 852.487 132.618 852.16 132.617H820.346C816.339 132.617 813.033 136.015 813.033 140.181V175.357H810.61C809.928 175.357 809.329 175.833 809.329 176.514V197.345C809.329 198.027 809.928 198.502 810.61 198.502H813.033V202.82C813.033 206.986 816.339 210.383 820.346 210.383H864.66C868.667 210.383 871.973 206.985 871.973 202.82V198.502H874.396C875.077 198.502 875.676 198.026 875.676 197.345V176.514C875.676 175.833 875.078 175.357 874.396 175.357L874.396 175.357ZM853.304 136.763L867.746 150.824H856.143C855.38 150.814 854.652 150.502 854.12 149.955C853.587 149.409 853.294 148.673 853.304 147.91L853.304 136.763ZM815.501 140.18C815.501 137.376 817.7 135.086 820.346 135.086H850.835V147.91C850.825 149.328 851.379 150.691 852.374 151.7C853.369 152.71 854.725 153.283 856.143 153.293H869.505V175.357H815.501L815.501 140.18ZM869.505 202.82C869.505 205.624 867.306 207.914 864.66 207.914H820.346C817.7 207.914 815.501 205.624 815.501 202.82V198.502H869.505L869.505 202.82ZM873.208 196.033H811.798V177.827H873.208V196.033Z" fill="black"/>
<text fill="black" xml:space="preserve" style="white-space: pre" font-family="Oxygen Mono" font-size="12" letter-spacing="0em"><tspan x="814.172" y="190.935">quant.sf</tspan></text>
<path d="M874.396 86.3573H871.974V63.0523C871.965 62.718 871.824 62.4012 871.581 62.1712L853.036 43.9749C852.801 43.7468 852.487 43.6185 852.16 43.6169H820.346C816.339 43.6169 813.033 47.0148 813.033 51.1805V86.3573H810.61C809.928 86.3573 809.329 86.8333 809.329 87.5145V108.345C809.329 109.027 809.928 109.502 810.61 109.502H813.033V113.82C813.033 117.986 816.339 121.383 820.346 121.383H864.66C868.667 121.383 871.973 117.985 871.973 113.82V109.502H874.396C875.077 109.502 875.676 109.026 875.676 108.345V87.5145C875.676 86.8332 875.078 86.3573 874.396 86.3573L874.396 86.3573ZM853.304 47.7625L867.746 61.8238H856.143C855.38 61.8143 854.652 61.5019 854.12 60.9554C853.587 60.409 853.294 59.673 853.304 58.91L853.304 47.7625ZM815.501 51.1804C815.501 48.3761 817.7 46.0858 820.346 46.0858H850.835V58.9101C850.825 60.3276 851.379 61.6911 852.374 62.7004C853.369 63.71 854.725 64.2827 856.143 64.2928H869.505V86.3575H815.501L815.501 51.1804ZM869.505 113.82C869.505 116.624 867.306 118.914 864.66 118.914H820.346C817.7 118.914 815.501 116.624 815.501 113.82V109.502H869.505L869.505 113.82ZM873.208 107.033H811.798V88.8266H873.208V107.033Z" fill="black"/>
<text fill="black" xml:space="preserve" style="white-space: pre" font-family="Oxygen Mono" font-size="12" letter-spacing="0em"><tspan x="814.172" y="101.935">quant.sf</tspan></text>
<path d="M805.396 133.357H802.974V110.052C802.965 109.718 802.824 109.401 802.581 109.171L784.036 90.9749C783.801 90.7468 783.487 90.6185 783.16 90.6169H751.346C747.339 90.6169 744.033 94.0148 744.033 98.1805V133.357H741.61C740.928 133.357 740.329 133.833 740.329 134.514V155.345C740.329 156.027 740.928 156.502 741.61 156.502H744.033V160.82C744.033 164.986 747.339 168.383 751.346 168.383H795.66C799.667 168.383 802.973 164.985 802.973 160.82V156.502H805.396C806.077 156.502 806.676 156.026 806.676 155.345V134.514C806.676 133.833 806.078 133.357 805.396 133.357L805.396 133.357ZM784.304 94.7625L798.746 108.824H787.143C786.38 108.814 785.652 108.502 785.12 107.955C784.587 107.409 784.294 106.673 784.304 105.91L784.304 94.7625ZM746.501 98.1804C746.501 95.3761 748.7 93.0858 751.346 93.0858H781.835V105.91C781.825 107.328 782.379 108.691 783.374 109.7C784.369 110.71 785.725 111.283 787.143 111.293H800.505V133.357H746.501L746.501 98.1804ZM800.505 160.82C800.505 163.624 798.306 165.914 795.66 165.914H751.346C748.7 165.914 746.501 163.624 746.501 160.82V156.502H800.505L800.505 160.82ZM804.208 154.033H742.798V135.827H804.208V154.033Z" fill="black"/>
<text fill="black" xml:space="preserve" style="white-space: pre" font-family="Oxygen Mono" font-size="12" letter-spacing="0em"><tspan x="745.172" y="148.935">quant.sf</tspan></text>
<path d="M943.396 135.357H940.974V112.052C940.965 111.718 940.824 111.401 940.581 111.171L922.036 92.9749C921.801 92.7468 921.487 92.6185 921.16 92.6169H889.346C885.339 92.6169 882.033 96.0148 882.033 100.181V135.357H879.61C878.928 135.357 878.329 135.833 878.329 136.514V157.345C878.329 158.027 878.928 158.502 879.61 158.502H882.033V162.82C882.033 166.986 885.339 170.383 889.346 170.383H933.66C937.667 170.383 940.973 166.985 940.973 162.82V158.502H943.396C944.077 158.502 944.676 158.026 944.676 157.345V136.514C944.676 135.833 944.078 135.357 943.396 135.357L943.396 135.357ZM922.304 96.7625L936.746 110.824H925.143C924.38 110.814 923.652 110.502 923.12 109.955C922.587 109.409 922.294 108.673 922.304 107.91L922.304 96.7625ZM884.501 100.18C884.501 97.3761 886.7 95.0858 889.346 95.0858H919.835V107.91C919.825 109.328 920.379 110.691 921.374 111.7C922.369 112.71 923.725 113.283 925.143 113.293H938.505V135.357H884.501L884.501 100.18ZM938.505 162.82C938.505 165.624 936.306 167.914 933.66 167.914H889.346C886.7 167.914 884.501 165.624 884.501 162.82V158.502H938.505L938.505 162.82ZM942.208 156.033H880.798V137.827H942.208V156.033Z" fill="black"/>
<text fill="black" xml:space="preserve" style="white-space: pre" font-family="Oxygen Mono" font-size="12" letter-spacing="0em"><tspan x="883.172" y="150.935">quant.sf</tspan></text>
<path d="M424 144L414 138.226V149.774L424 144ZM260 145H415V143H260V145Z" fill="black"/>
<path d="M734 139.989L723.969 134.27L724.031 145.817L734 139.989ZM548.005 142L725.006 141.038L724.995 139.038L547.995 140L548.005 142Z" fill="black"/>
<path d="M1170 137L1160 131.226V142.774L1170 137ZM963 138H1161V136H963V138Z" fill="black"/>
<text fill="#266141" xml:space="preserve" style="white-space: pre" font-family="Arial" font-size="18" letter-spacing="0em"><tspan x="596" y="125.74">salmon</tspan></text>
<text fill="black" xml:space="preserve" style="white-space: pre" font-family="Arial" font-size="18" letter-spacing="0em"><tspan x="1000" y="121.74">Group by Project</tspan></text>
<text fill="black" xml:space="preserve" style="white-space: pre" font-family="Arial" font-size="18" letter-spacing="0em"><tspan x="440" y="211.74">Trim Reads</tspan></text>
<g clip-path="url(#clip0_163_4984)">
<path d="M520.756 157.839C519.19 156.852 514.081 153.887 507.612 150.135C503.121 147.529 497.785 144.433 492.345 141.249C504.302 134.331 517.44 126.252 520.756 124.161C521.78 123.515 522.242 122.253 521.878 121.087L521.867 121.052C521.648 120.351 521.167 119.785 520.512 119.458C519.862 119.133 519.127 119.089 518.444 119.332C518.377 119.356 518.31 119.38 518.235 119.409C511.832 121.88 504.819 124.453 498.036 126.94C491.886 129.196 485.535 131.525 479.674 133.768C470.783 128.457 463.33 123.835 461.154 121.984C461.256 121.384 461.308 120.788 461.308 120.205C461.308 114.267 456.529 109.436 450.655 109.436C447.757 109.436 445.048 110.591 443.025 112.69C440.971 114.822 439.9 117.637 440.01 120.617C440.218 126.239 444.738 130.786 450.301 130.969C452.58 131.046 454.811 130.381 456.675 129.088C457.525 129.685 458.381 130.277 459.215 130.853C461.591 132.496 464.049 134.194 466.335 136.004C467.563 136.98 468.64 138.427 469.147 139.783C469.303 140.197 469.478 140.658 469.682 141.136C469.498 141.446 469.293 141.83 469.146 142.22C468.64 143.573 467.562 145.021 466.338 145.996C464.056 147.8 461.609 149.492 459.241 151.129C458.399 151.711 457.533 152.309 456.675 152.913C454.909 151.691 452.802 151.025 450.656 151.025C444.782 151.025 440.003 155.856 440.003 161.794C440.003 167.734 444.782 172.566 450.656 172.566C456.53 172.566 461.308 167.733 461.308 161.794C461.308 161.237 461.261 160.668 461.167 160.092C461.808 159.688 462.988 158.941 465.198 157.542C469.921 154.551 478.311 149.238 480.366 147.977C488.998 151.286 497.66 154.636 506.096 157.899C510.142 159.464 514.189 161.029 518.239 162.592C518.305 162.617 518.371 162.642 518.438 162.666C518.73 162.771 519.032 162.823 519.333 162.823C519.736 162.823 520.136 162.729 520.509 162.544C521.156 162.222 521.651 161.64 521.867 160.947L521.878 160.91C522.241 159.748 521.78 158.485 520.756 157.84L520.756 157.839ZM498.827 129.096C505.618 126.605 512.641 124.029 519.054 121.553C519.107 121.533 519.161 121.514 519.214 121.495C519.329 121.454 519.426 121.481 519.487 121.511C519.54 121.538 519.634 121.602 519.673 121.726L519.688 121.775C519.741 121.945 519.677 122.127 519.531 122.219C516.12 124.37 502.283 132.877 490.066 139.914C487.411 138.356 484.758 136.792 482.189 135.266C487.556 133.23 493.274 131.132 498.826 129.096L498.827 129.096ZM463.97 155.601C461.591 157.108 459.53 158.412 459.315 158.544C458.878 158.794 458.651 159.306 458.77 159.805C458.931 160.483 459.013 161.152 459.013 161.793C459.013 166.466 455.264 170.269 450.657 170.269C446.049 170.269 442.3 166.467 442.3 161.793C442.3 157.121 446.049 153.321 450.657 153.321C452.564 153.321 454.432 153.993 455.917 155.214C456.288 155.52 456.808 155.561 457.221 155.321C457.27 155.295 457.333 155.26 457.402 155.21C458.444 154.47 459.513 153.731 460.548 153.016C462.945 151.359 465.423 149.645 467.765 147.793C469.16 146.683 470.363 145.137 471.068 143.574C471.64 144.296 472.353 144.908 473.262 145.257C474.731 145.818 476.204 146.38 477.678 146.945C474.888 148.69 469.622 152.022 463.97 155.601L463.97 155.601ZM519.688 160.225L519.676 160.262C519.634 160.397 519.539 160.461 519.487 160.487C519.426 160.517 519.329 160.545 519.215 160.504C519.163 160.485 519.112 160.466 519.063 160.448C515.017 158.886 510.971 157.321 506.925 155.756C498.332 152.432 489.505 149.019 480.715 145.65C480.696 145.641 480.676 145.635 480.656 145.627C478.462 144.786 476.269 143.947 474.083 143.113C473.184 142.768 472.55 141.854 472.013 140.712C472.011 140.709 472.01 140.707 472.009 140.704C471.757 140.166 471.525 139.578 471.297 138.975C470.643 137.228 469.323 135.445 467.763 134.204C465.416 132.347 462.927 130.627 460.521 128.964C459.47 128.237 458.383 127.486 457.325 126.735C457.13 126.597 456.886 126.523 456.647 126.523C456.635 126.523 456.623 126.524 456.611 126.524C456.357 126.532 456.113 126.623 455.917 126.785C454.357 128.069 452.389 128.739 450.378 128.674C446.015 128.53 442.469 124.954 442.306 120.531C442.219 118.18 443.062 115.961 444.679 114.283C446.265 112.638 448.388 111.731 450.656 111.731C455.264 111.731 459.013 115.532 459.013 120.205C459.013 120.848 458.931 121.517 458.771 122.193C458.645 122.722 458.912 123.268 459.402 123.499C463.311 127.084 489.273 142.147 506.461 152.12C512.909 155.861 518.002 158.816 519.532 159.781C519.677 159.872 519.741 160.055 519.688 160.225Z" fill="black"/>
<path d="M450.795 115.027C447.93 115.027 445.6 117.38 445.6 120.272C445.6 123.164 447.93 125.516 450.795 125.516C453.659 125.516 455.989 123.164 455.989 120.272C455.989 117.38 453.659 115.027 450.795 115.027ZM450.795 123.22C449.196 123.22 447.896 121.897 447.896 120.271C447.896 118.646 449.196 117.323 450.795 117.323C452.393 117.323 453.693 118.646 453.693 120.271C453.693 121.897 452.393 123.22 450.795 123.22Z" fill="black"/>
<path d="M450.795 156.626C447.93 156.626 445.6 158.979 445.6 161.871C445.6 164.763 447.93 167.116 450.795 167.116C453.659 167.116 455.989 164.763 455.989 161.871C455.989 158.979 453.659 156.626 450.795 156.626ZM450.795 164.819C449.196 164.819 447.896 163.496 447.896 161.871C447.896 160.245 449.196 158.922 450.795 158.922C452.393 158.922 453.693 160.245 453.693 161.871C453.693 163.496 452.393 164.819 450.795 164.819Z" fill="black"/>
<path d="M498.314 139.852C497.68 139.852 497.166 140.366 497.166 141C497.166 141.634 497.679 142.148 498.314 142.148H507.17C507.804 142.148 508.318 141.634 508.318 141C508.318 140.366 507.804 139.852 507.17 139.852H498.314Z" fill="black"/>
<path d="M520.852 139.852H511.996C511.362 139.852 510.848 140.366 510.848 141C510.848 141.634 511.362 142.148 511.996 142.148H520.852C521.486 142.148 522 141.634 522 141C522 140.366 521.486 139.852 520.852 139.852Z" fill="black"/>
<path d="M451.598 142.148C452.232 142.148 452.746 141.634 452.746 141C452.746 140.366 452.232 139.852 451.598 139.852H442.742C442.108 139.852 441.594 140.366 441.594 141C441.594 141.634 442.108 142.148 442.742 142.148H451.598Z" fill="black"/>
<path d="M465.281 142.148C465.915 142.148 466.429 141.634 466.429 141C466.429 140.366 465.915 139.852 465.281 139.852H456.425C455.791 139.852 455.276 140.366 455.276 141C455.276 141.634 455.79 142.148 456.425 142.148H465.281Z" fill="black"/>
<path d="M482.148 127C481.514 127 481 127.514 481 128.148C481 128.782 481.514 129.296 482.148 129.296H491.004C491.638 129.296 492.152 128.782 492.152 128.148C492.152 127.514 491.638 127 491.004 127H482.148Z" fill="black"/>
<path d="M472 127C472 128.144 472 127.448 472 128C472 128.552 472 128.568 472 129H478.197C478.64 129 479 128.552 479 128C479 127.448 478.64 127 478.197 127H472Z" fill="black"/>
<path d="M526.258 127H517.402C516.768 127 516.254 127.514 516.254 128.148C516.254 128.782 516.768 129.296 517.402 129.296H526.258C526.892 129.296 527.406 128.783 527.406 128.148C527.406 127.514 526.892 127 526.258 127Z" fill="black"/>
<path d="M442.004 130.296C442.638 130.296 443.152 129.782 443.152 129.148C443.152 128.514 442.638 128 442.004 128H433.148C432.514 128 432 128.514 432 129.148C432 129.782 432.514 130.296 433.148 130.296H442.004Z" fill="black"/>
<path d="M482.927 152C482.415 152 482 152.448 482 153C482 153.552 482.415 154 482.927 154H490.073C490.585 154 491 153.552 491 153C491 152.448 490.585 152 490.073 152H482.927Z" fill="black"/>
<path d="M475 152C475 153.144 475 152.448 475 153C475 153.552 475 153.568 475 154H479.426C479.743 154 480 153.552 480 153C480 152.448 479.743 152 479.426 152H475Z" fill="black"/>
<path d="M527.258 152H518.402C517.768 152 517.254 152.514 517.254 153.148C517.254 153.782 517.768 154.296 518.402 154.296H527.258C527.892 154.296 528.406 153.783 528.406 153.148C528.406 152.514 527.892 152 527.258 152Z" fill="black"/>
<path d="M441.004 155.296C441.638 155.296 442.152 154.782 442.152 154.148C442.152 153.514 441.638 153 441.004 153H432.148C431.514 153 431 153.514 431 154.148C431 154.782 431.514 155.296 432.148 155.296H441.004Z" fill="black"/>
<path d="M512.258 145H503.402C502.768 145 502.254 145.514 502.254 146.148C502.254 146.782 502.768 147.296 503.402 147.296H512.258C512.892 147.296 513.406 146.783 513.406 146.148C513.406 145.514 512.892 145 512.258 145Z" fill="black"/>
<path d="M443.004 147.296C443.638 147.296 444.152 146.782 444.152 146.148C444.152 145.514 443.638 145 443.004 145H434.148C433.514 145 433 145.514 433 146.148C433 146.782 433.514 147.296 434.148 147.296H443.004Z" fill="black"/>
<path d="M456.686 147.296C457.32 147.296 457.835 146.782 457.835 146.148C457.835 145.514 457.321 145 456.686 145H447.83C447.196 145 446.682 145.514 446.682 146.148C446.682 146.782 447.196 147.296 447.83 147.296H456.686Z" fill="black"/>
<path d="M504.719 133C504.086 133 503.571 133.514 503.571 134.148C503.571 134.782 504.085 135.296 504.719 135.296H513.575C514.209 135.296 514.724 134.783 514.724 134.148C514.724 133.514 514.21 133 513.575 133H504.719Z" fill="black"/>
<path d="M527.258 133H518.402C517.768 133 517.254 133.514 517.254 134.148C517.254 134.782 517.768 135.296 518.402 135.296H527.258C527.892 135.296 528.406 134.783 528.406 134.148C528.406 133.514 527.892 133 527.258 133Z" fill="black"/>
<path d="M458.004 135.296C458.638 135.296 459.152 134.782 459.152 134.148C459.152 133.514 458.638 133 458.004 133H449.148C448.514 133 448 133.514 448 134.148C448 134.782 448.514 135.296 449.148 135.296H458.004Z" fill="black"/>
</g>
<path d="M527.123 145H517.72C517.047 145 516.501 145.514 516.501 146.148C516.501 146.782 517.047 147.296 517.72 147.296H527.123C527.796 147.296 528.342 146.782 528.342 146.148C528.342 145.514 527.796 145 527.123 145Z" fill="black"/>
<defs>
<clipPath id="clip0_163_4984">
<rect width="82" height="82" fill="white" transform="translate(440 100)"/>
</clipPath>
</defs>
</svg>
