<?xml version="1.0" encoding="UTF-8"?>
<svg id="Layer_1" data-name="Layer 1" xmlns="http://www.w3.org/2000/svg" width="1681" height="599" version="1.1" viewBox="0 0 1681 599">
  <defs>
    <style>
      .cls-1 {
        fill: #003595;
      }

      .cls-1, .cls-2, .cls-3, .cls-4, .cls-5 {
        stroke-width: 0px;
      }

      .cls-6 {
        fill: none;
        stroke: #266141;
        stroke-width: 2px;
      }

      .cls-7, .cls-8, .cls-9, .cls-10 {
        font-family: ArialMT, Arial;
      }

      .cls-7, .cls-8, .cls-9, .cls-10, .cls-11 {
        isolation: isolate;
      }

      .cls-7, .cls-3, .cls-10 {
        fill: #000;
      }

      .cls-7, .cls-9 {
        font-size: 16px;
      }

      .cls-2 {
        fill: #7025bc;
      }

      .cls-8, .cls-10 {
        font-size: 18px;
      }

      .cls-8, .cls-4 {
        fill: #266141;
      }

      .cls-9, .cls-5 {
        fill: #fff;
      }
    </style>
  </defs>
  <rect class="cls-5" width="1681" height="599"/>
  <g class="cls-11">
    <text class="cls-10" transform="translate(821 331.7)"><tspan x="0" y="0">Merged </tspan></text>
    <text class="cls-10" transform="translate(824.5 352.7)"><tspan x="0" y="0">Report</tspan></text>
  </g>
  <path class="cls-3" d="M876.6,274.8h-2.1v-19.8c0-.3-.1-.6-.3-.7l-15.7-15.4c-.2-.2-.5-.3-.7-.3h-27c-3.4,0-6.2,2.9-6.2,6.4v29.8h-2.1c-.6,0-1.1.4-1.1,1v17.7c0,.6.5,1,1.1,1h2.1v3.7c0,3.5,2.8,6.4,6.2,6.4h37.6c3.4,0,6.2-2.9,6.2-6.4v-3.7h2.1c.6,0,1.1-.4,1.1-1v-17.7c0-.6-.5-1-1.1-1h0ZM858.7,242l12.2,11.9h-9.8c-.6,0-1.3-.3-1.7-.7-.5-.5-.7-1.1-.7-1.7v-9.5ZM826.6,244.9c0-2.4,1.9-4.3,4.1-4.3h25.9v10.9c0,1.2.5,2.4,1.3,3.2.8.9,2,1.3,3.2,1.4h11.3v18.7h-45.8v-29.8ZM872.4,298.1c0,2.4-1.9,4.3-4.1,4.3h-37.6c-2.2,0-4.1-1.9-4.1-4.3v-3.7h45.8v3.7ZM875.5,292.3h-52.1v-15.4h52.1v15.4Z"/>
  <g class="cls-11">
    <text class="cls-7" transform="translate(831.8 290.7)"><tspan x="0" y="0">HTML</tspan></text>
  </g>
  <path class="cls-3" d="M834.3,268v7.2c0,.6-.6,1.2-1.2,1.2h-4c-.7,0-1.2-.5-1.2-1.2v-7.2c0-.6.6-1.2,1.2-1.2h4c.7,0,1.2.5,1.2,1.2Z"/>
  <path class="cls-3" d="M829,262.6c0-.8.7-1.5,1.6-1.5s.5,0,.8.2l5.6-5.8c-.2-.2-.3-.5-.3-.8,0-.8.7-1.5,1.6-1.5s1.6.7,1.6,1.5,0,.3,0,.4l5.3,2.6c.3-.3.7-.5,1.2-.5s.6,0,.8.2l6.2-6c-.2-.2-.3-.5-.3-.8,0-.8.7-1.5,1.6-1.5s1.6.7,1.6,1.5-.7,1.5-1.6,1.5-.6,0-.8-.2l-6.2,6c.2.2.2.5.2.8,0,.8-.7,1.5-1.6,1.5s-1.6-.7-1.6-1.5,0-.2,0-.4l-5.3-2.6c-.3.3-.7.5-1.2.5s-.5,0-.8-.2l-5.6,5.8c.2.2.3.5.3.8,0,.8-.7,1.5-1.6,1.5s-1.6-.7-1.6-1.5Z"/>
  <path class="cls-3" d="M842,261.3v13.4c0,.7-.5,1.3-1.2,1.3h-3.7c-.6,0-1.2-.6-1.2-1.3v-13.4c0-.7.5-1.3,1.2-1.3h3.7c.6,0,1.2.6,1.2,1.3Z"/>
  <path class="cls-3" d="M850.2,264.8v10.4c0,.6-.6,1.2-1.2,1.2h-4c-.7,0-1.2-.5-1.2-1.2v-10.4c0-.6.6-1.2,1.2-1.2h4c.7,0,1.2.5,1.2,1.2Z"/>
  <path class="cls-3" d="M858,260v14.9c0,.6-.5,1-1.1,1h-3.7c-.6,0-1.2-.5-1.2-1v-14.9c0-.6.5-1,1.2-1h3.7c.6,0,1.1.5,1.1,1Z"/>
  <g class="cls-11">
    <text class="cls-10" transform="translate(1299 333.7)"><tspan x="0" y="0">Merged </tspan></text>
    <text class="cls-10" transform="translate(1302.5 354.7)"><tspan x="0" y="0">Report</tspan></text>
  </g>
  <path class="cls-3" d="M1354.6,276.8h-2.1v-19.8c0-.3-.1-.6-.3-.7l-15.7-15.4c-.2-.2-.5-.3-.8-.3h-27c-3.4,0-6.2,2.9-6.2,6.4v29.8h-2.1c-.6,0-1.1.4-1.1,1v17.7c0,.6.5,1,1.1,1h2.1v3.7c0,3.5,2.8,6.4,6.2,6.4h37.6c3.4,0,6.2-2.9,6.2-6.4v-3.7h2.1c.6,0,1.1-.4,1.1-1v-17.7c0-.6-.5-1-1.1-1h0ZM1336.7,244l12.2,11.9h-9.8c-.6,0-1.3-.3-1.7-.7-.4-.5-.7-1.1-.7-1.7v-9.5ZM1304.6,246.9c0-2.4,1.9-4.3,4.1-4.3h25.9v10.9c0,1.2.5,2.4,1.3,3.2.8.9,2,1.3,3.2,1.4h11.3v18.7h-45.8v-29.8ZM1350.4,300.1c0,2.4-1.9,4.3-4.1,4.3h-37.6c-2.2,0-4.1-1.9-4.1-4.3v-3.7h45.8v3.7ZM1353.5,294.3h-52.1v-15.4h52.1v15.4Z"/>
  <g class="cls-11">
    <text class="cls-7" transform="translate(1309.8 292.7)"><tspan x="0" y="0">HTML</tspan></text>
  </g>
  <path class="cls-3" d="M1312.3,270v7.2c0,.6-.6,1.2-1.2,1.2h-4c-.7,0-1.2-.5-1.2-1.2v-7.2c0-.6.6-1.2,1.2-1.2h4c.7,0,1.2.5,1.2,1.2Z"/>
  <path class="cls-3" d="M1307,264.6c0-.8.7-1.5,1.6-1.5s.5,0,.8.2l5.6-5.8c-.2-.2-.3-.5-.3-.8,0-.8.7-1.5,1.6-1.5s1.6.7,1.6,1.5,0,.3,0,.4l5.3,2.6c.3-.3.7-.5,1.2-.5s.6,0,.8.2l6.2-6c-.2-.2-.2-.5-.2-.8,0-.8.7-1.5,1.6-1.5s1.6.7,1.6,1.5-.7,1.5-1.6,1.5-.6,0-.8-.2l-6.2,6c.2.2.2.5.2.8,0,.8-.7,1.5-1.6,1.5s-1.6-.7-1.6-1.5,0-.2,0-.4l-5.3-2.6c-.3.3-.7.5-1.2.5s-.5,0-.8-.2l-5.6,5.8c.2.2.3.5.3.8,0,.8-.7,1.5-1.6,1.5s-1.6-.7-1.6-1.5Z"/>
  <path class="cls-3" d="M1320,263.3v13.4c0,.7-.5,1.3-1.2,1.3h-3.7c-.6,0-1.2-.6-1.2-1.3v-13.4c0-.7.5-1.3,1.2-1.3h3.7c.6,0,1.2.6,1.2,1.3Z"/>
  <path class="cls-3" d="M1328.2,266.8v10.4c0,.6-.5,1.2-1.2,1.2h-4c-.7,0-1.2-.5-1.2-1.2v-10.4c0-.6.6-1.2,1.2-1.2h4c.7,0,1.2.5,1.2,1.2Z"/>
  <path class="cls-3" d="M1336,262v14.9c0,.6-.5,1-1.2,1h-3.7c-.6,0-1.2-.5-1.2-1v-14.9c0-.6.5-1,1.2-1h3.7c.6,0,1.2.5,1.2,1Z"/>
  <path class="cls-3" d="M375,274.5l-10-5.8v11.5l10-5.8ZM204,69h1v-1h-1v1ZM204,473v1h1v-1h-1ZM204,275.5h162v-2h-162v2ZM205,274.5V69h-2v205.5h2ZM204,68h-80.5v2h80.5v-2ZM204,273.5h-80.5v2h80.5v-2ZM204,472h-80.5v2h80.5v-2ZM205,473v-198.5h-2v198.5h2Z"/>
  <g class="cls-11">
    <text class="cls-8" transform="translate(31.9 143.7)"><tspan x="0" y="0">SCE</tspan></text>
  </g>
  <g class="cls-11">
    <text class="cls-10" transform="translate(44 122.7)"><tspan x="0" y="0">Processed </tspan></text>
    <text class="cls-10" transform="translate(69 143.7)"><tspan x="0" y="0" xml:space="preserve"> Object 1</tspan></text>
  </g>
  <path class="cls-1" d="M106.6,65.8h-2.1v-19.8c0-.3-.1-.6-.3-.7l-15.7-15.4c-.2-.2-.5-.3-.7-.3h-27c-3.4,0-6.2,2.9-6.2,6.4v29.8h-2.1c-.6,0-1.1.4-1.1,1v17.7c0,.6.5,1,1.1,1h2.1v3.7c0,3.5,2.8,6.4,6.2,6.4h37.6c3.4,0,6.2-2.9,6.2-6.4v-3.7h2.1c.6,0,1.1-.4,1.1-1v-17.7c0-.6-.5-1-1.1-1ZM88.7,33l12.2,11.9h-9.8c-.6,0-1.3-.3-1.7-.7-.5-.5-.7-1.1-.7-1.7v-9.5ZM56.6,35.9c0-2.4,1.9-4.3,4.1-4.3h25.9v10.9c0,1.2.5,2.4,1.3,3.2.8.9,2,1.3,3.2,1.4h11.3v18.7h-45.8v-29.8ZM102.4,89.1c0,2.4-1.9,4.3-4.1,4.3h-37.6c-2.2,0-4.1-1.9-4.1-4.3v-3.7h45.8v3.7Z"/>
  <g class="cls-11">
    <text class="cls-9" transform="translate(66.1 81.7)"><tspan x="0" y="0">OBJ</tspan></text>
  </g>
  <path class="cls-1" d="M71.5,37.4v-2.8c-.4,0-.9.1-1.3.2v2.1l-10.9,10.9h-2.1c0,.4-.2.9-.2,1.3h2.8l11.7-11.7Z"/>
  <path class="cls-1" d="M67.7,61.8l-1.6,4.2c.4.2.8.4,1.2.5l1.3-3.6,13.2-2.7,3.6,2.7c0,0,.7-1.2.7-1.2l-4.2-2.9-14.2,2.9Z"/>
  <path class="cls-1" d="M84.8,46.1l3.6-2.4c-.2-.4-.4-.7-.6-1.1h0c0,0-4.2,2.8-4.2,2.8l-1.4,12,4.9,3.5c.3-.4.5-.7.7-1.1l-4.2-3,1.2-10.6Z"/>
  <path class="cls-1" d="M87.1,41.7l-.3-.6c-.1-.2-.3-.4-.4-.5l-3.5,1.8-9.3-5.6v-2.3c-.4,0-.9,0-1.3,0v3l10.6,6.4,4.3-2.2Z"/>
  <path class="cls-1" d="M69.5,46.4c-2.6,0-4.7,2.1-4.7,4.7s2.1,4.7,4.7,4.7,4.7-2.1,4.7-4.7c0-2.6-2.1-4.7-4.7-4.7ZM69.5,54.4c-1.8,0-3.3-1.5-3.3-3.3s1.5-3.3,3.3-3.3,3.3,1.5,3.3,3.3-1.5,3.3-3.3,3.3Z"/>
  <path class="cls-1" d="M75.8,47.1c1.3,0,2.3-1,2.3-2.3s-1-2.3-2.3-2.3-2.3,1-2.3,2.3,1,2.3,2.3,2.3ZM75.8,43.7c.6,0,1,.4,1,1s-.4,1-1,1-1-.4-1-1,.4-1,1-1Z"/>
  <path class="cls-1" d="M79.7,52.4l-.2-.6-.2-.6c0,0-2.2.7-2.8,2.5-.4,1-.2,2,.5,3.1l1.1-.7c-.5-.8-.6-1.4-.4-2,.4-1.1,2-1.7,2-1.7Z"/>
  <path class="cls-1" d="M89.5,52.4c0,.7-.6,1.3-1.3,1.3s-1.3-.6-1.3-1.3.6-1.3,1.3-1.3,1.3.6,1.3,1.3Z"/>
  <path class="cls-1" d="M76.8,63.7c-1.8,0-3.3,1.5-3.3,3.3s0,.4,0,.7c.5,0,.9,0,1.4,0,0-.2-.1-.4-.1-.6,0-1.1.9-2,2-2s1.9.8,2,1.8c.4-.1.9-.3,1.3-.5-.3-1.5-1.7-2.6-3.3-2.6Z"/>
  <path class="cls-1" d="M58.5,57c-.2,0-.4,0-.5,0,.4,1,.9,2,1.5,2.9.4-.3.7-.8.7-1.3,0-.9-.7-1.7-1.7-1.7h0Z"/>
  <path class="cls-1" d="M63.4,38.3l.9.9-3.7,3.7-.9-.9,3.7-3.7Z"/>
  <path class="cls-1" d="M59.9,49.7h-3c0,.4,0,.9,0,1.3h2.3l6.3,10.7-1.2,3.1c.4.3.8.5,1.2.7l1.5-4-7-11.9Z"/>
  <path class="cls-1" d="M504.6,241.8h-2.1v-19.8c0-.3-.1-.6-.3-.7l-15.7-15.4c-.2-.2-.5-.3-.7-.3h-27c-3.4,0-6.2,2.9-6.2,6.4v29.8h-2.1c-.6,0-1.1.4-1.1,1v17.7c0,.6.5,1,1.1,1h2.1v3.7c0,3.5,2.8,6.4,6.2,6.4h37.6c3.4,0,6.2-2.9,6.2-6.4v-3.7h2.1c.6,0,1.1-.4,1.1-1v-17.7c0-.6-.5-1-1.1-1ZM486.7,209l12.2,11.9h-9.8c-.6,0-1.3-.3-1.7-.7-.5-.5-.7-1.1-.7-1.7v-9.5ZM454.6,211.9c0-2.4,1.9-4.3,4.1-4.3h25.9v10.9c0,1.2.5,2.4,1.3,3.2.8.9,2,1.3,3.2,1.4h11.3v18.7h-45.8v-29.8ZM500.4,265.1c0,2.4-1.9,4.3-4.1,4.3h-37.6c-2.2,0-4.1-1.9-4.1-4.3v-3.7h45.8v3.7Z"/>
  <g class="cls-11">
    <text class="cls-9" transform="translate(464.1 257.7)"><tspan x="0" y="0">OBJ</tspan></text>
  </g>
  <path class="cls-1" d="M469.5,213.4v-2.8c-.4,0-.9.1-1.3.2v2.1l-10.9,10.9h-2.1c0,.4-.2.9-.2,1.3h2.8l11.7-11.7Z"/>
  <path class="cls-1" d="M465.7,237.8l-1.6,4.2c.4.2.8.4,1.2.5l1.3-3.6,13.2-2.7,3.6,2.7c0,0,.7-1.2.7-1.2l-4.2-2.9-14.2,2.9Z"/>
  <path class="cls-1" d="M482.8,222.1l3.6-2.4c-.2-.4-.4-.7-.6-1.1h0c0,0-4.2,2.8-4.2,2.8l-1.4,12,4.9,3.5c.3-.4.5-.7.7-1.1l-4.2-3,1.2-10.6Z"/>
  <path class="cls-1" d="M485.1,217.7l-.3-.6c-.1-.2-.3-.4-.4-.5l-3.5,1.8-9.3-5.6v-2.3c-.4,0-.9,0-1.3,0v3l10.6,6.4,4.3-2.2Z"/>
  <path class="cls-1" d="M467.5,222.4c-2.6,0-4.7,2.1-4.7,4.7s2.1,4.7,4.7,4.7,4.7-2.1,4.7-4.7-2.1-4.7-4.7-4.7ZM467.5,230.4c-1.8,0-3.3-1.5-3.3-3.3s1.5-3.3,3.3-3.3,3.3,1.5,3.3,3.3-1.5,3.3-3.3,3.3Z"/>
  <path class="cls-1" d="M473.8,223.1c1.3,0,2.3-1,2.3-2.3s-1-2.3-2.3-2.3-2.3,1-2.3,2.3,1,2.3,2.3,2.3ZM473.8,219.7c.6,0,1,.4,1,1s-.4,1-1,1-1-.4-1-1,.4-1,1-1Z"/>
  <path class="cls-1" d="M477.7,228.4l-.2-.6-.2-.6c0,0-2.2.7-2.8,2.5-.4,1-.2,2,.5,3.1l1.1-.7c-.5-.8-.6-1.4-.4-2,.4-1.1,2-1.7,2-1.7Z"/>
  <path class="cls-1" d="M487.5,228.4c0,.7-.6,1.3-1.3,1.3s-1.3-.6-1.3-1.3.6-1.3,1.3-1.3,1.3.6,1.3,1.3Z"/>
  <path class="cls-1" d="M474.8,239.7c-1.8,0-3.3,1.5-3.3,3.3s0,.4,0,.7c.5,0,.9,0,1.4,0,0-.2-.1-.4-.1-.6,0-1.1.9-2,2-2s1.9.8,2,1.8c.4-.1.9-.3,1.3-.5-.3-1.5-1.7-2.6-3.3-2.6Z"/>
  <path class="cls-1" d="M456.5,233c-.2,0-.4,0-.5,0,.4,1,.9,2,1.5,2.9.4-.3.7-.8.7-1.3,0-.9-.7-1.7-1.7-1.7h0Z"/>
  <path class="cls-1" d="M461.4,214.3l.9.9-3.7,3.7-.9-.9,3.7-3.7Z"/>
  <path class="cls-1" d="M457.9,225.7h-3c0,.4,0,.9,0,1.3h2.3l6.3,10.7-1.2,3.1c.4.3.8.5,1.2.7l1.5-4-7-11.9Z"/>
  <g class="cls-11">
    <text class="cls-8" transform="translate(31.4 345.7)"><tspan x="0" y="0">SCE</tspan></text>
  </g>
  <g class="cls-11">
    <text class="cls-10" transform="translate(43.5 324.7)"><tspan x="0" y="0">Processed </tspan></text>
    <text class="cls-10" transform="translate(68.5 345.7)"><tspan x="0" y="0" xml:space="preserve"> Object 2</tspan></text>
  </g>
  <path class="cls-4" d="M112.6,267.8h-2.1v-19.8c0-.3-.1-.6-.3-.7l-15.7-15.4c-.2-.2-.5-.3-.7-.3h-27c-3.4,0-6.2,2.9-6.2,6.4v29.8h-2.1c-.6,0-1.1.4-1.1,1v17.7c0,.6.5,1,1.1,1h2.1v3.7c0,3.5,2.8,6.4,6.2,6.4h37.6c3.4,0,6.2-2.9,6.2-6.4v-3.7h2.1c.6,0,1.1-.4,1.1-1v-17.7c0-.6-.5-1-1.1-1ZM94.7,235l12.2,11.9h-9.8c-.6,0-1.3-.3-1.7-.7-.5-.5-.7-1.1-.7-1.7v-9.5ZM62.6,237.9c0-2.4,1.9-4.3,4.1-4.3h25.9v10.9c0,1.2.5,2.4,1.3,3.2.8.9,2,1.3,3.2,1.4h11.3v18.7h-45.8v-29.8ZM108.4,291.1c0,2.4-1.9,4.3-4.1,4.3h-37.6c-2.2,0-4.1-1.9-4.1-4.3v-3.7h45.8v3.7Z"/>
  <g class="cls-11">
    <text class="cls-9" transform="translate(72.1 283.7)"><tspan x="0" y="0">OBJ</tspan></text>
  </g>
  <path class="cls-4" d="M77.5,239.4v-2.8c-.4,0-.9.1-1.3.2v2.1l-10.9,10.9h-2.1c0,.4-.2.9-.2,1.3h2.8l11.7-11.7Z"/>
  <path class="cls-4" d="M73.7,263.8l-1.6,4.2c.4.2.8.4,1.2.5l1.3-3.6,13.2-2.7,3.6,2.7c0,0,.7-1.2.7-1.2l-4.2-2.9-14.2,2.9Z"/>
  <path class="cls-4" d="M90.8,248.1l3.6-2.4c-.2-.4-.4-.7-.6-1.1h0c0,0-4.2,2.8-4.2,2.8l-1.4,12,4.9,3.5c.3-.4.5-.7.7-1.1l-4.2-3,1.2-10.6Z"/>
  <path class="cls-4" d="M93.1,243.7l-.3-.6c-.1-.2-.3-.4-.4-.5l-3.5,1.8-9.3-5.6v-2.3c-.4,0-.9,0-1.3,0v3l10.6,6.4,4.3-2.2Z"/>
  <path class="cls-4" d="M75.5,248.4c-2.6,0-4.7,2.1-4.7,4.7s2.1,4.7,4.7,4.7,4.7-2.1,4.7-4.7c0-2.6-2.1-4.7-4.7-4.7ZM75.5,256.4c-1.8,0-3.3-1.5-3.3-3.3s1.5-3.3,3.3-3.3,3.3,1.5,3.3,3.3-1.5,3.3-3.3,3.3Z"/>
  <path class="cls-4" d="M81.8,249.1c1.3,0,2.3-1,2.3-2.3s-1-2.3-2.3-2.3-2.3,1-2.3,2.3,1,2.3,2.3,2.3ZM81.8,245.7c.6,0,1,.4,1,1s-.4,1-1,1-1-.4-1-1,.4-1,1-1Z"/>
  <path class="cls-4" d="M85.7,254.4l-.2-.6-.2-.6c0,0-2.2.7-2.8,2.5-.4,1-.2,2,.5,3.1l1.1-.7c-.5-.8-.6-1.4-.4-2,.4-1.1,2-1.7,2-1.7Z"/>
  <path class="cls-4" d="M95.5,254.4c0,.7-.6,1.3-1.3,1.3s-1.3-.6-1.3-1.3.6-1.3,1.3-1.3,1.3.6,1.3,1.3Z"/>
  <path class="cls-4" d="M82.8,265.7c-1.8,0-3.3,1.5-3.3,3.3s0,.4,0,.7c.5,0,.9,0,1.4,0,0-.2-.1-.4-.1-.6,0-1.1.9-2,2-2s1.9.8,2,1.8c.4-.1.9-.3,1.3-.5-.3-1.5-1.7-2.6-3.3-2.6Z"/>
  <path class="cls-4" d="M64.5,259c-.2,0-.4,0-.5,0,.4,1,.9,2,1.5,2.9.4-.3.7-.8.7-1.3,0-.9-.7-1.7-1.7-1.7h0Z"/>
  <path class="cls-4" d="M69.4,240.3l.9.9-3.7,3.7-.9-.9,3.7-3.7Z"/>
  <path class="cls-4" d="M65.9,251.7h-3c0,.4,0,.9,0,1.3h2.3l6.3,10.7-1.2,3.1c.4.3.8.5,1.2.7l1.5-4-7-11.9Z"/>
  <path class="cls-4" d="M448.6,281.8h-2.1v-19.8c0-.3-.1-.6-.3-.7l-15.7-15.4c-.2-.2-.5-.3-.7-.3h-27c-3.4,0-6.2,2.9-6.2,6.4v29.8h-2.1c-.6,0-1.1.4-1.1,1v17.7c0,.6.5,1,1.1,1h2.1v3.7c0,3.5,2.8,6.4,6.2,6.4h37.6c3.4,0,6.2-2.9,6.2-6.4v-3.7h2.1c.6,0,1.1-.4,1.1-1v-17.7c0-.6-.5-1-1.1-1ZM430.7,249l12.2,11.9h-9.8c-.6,0-1.3-.3-1.7-.7-.5-.5-.7-1.1-.7-1.7v-9.5ZM398.6,251.9c0-2.4,1.9-4.3,4.1-4.3h25.9v10.9c0,1.2.5,2.4,1.3,3.2.8.9,2,1.3,3.2,1.4h11.3v18.7h-45.8v-29.8ZM444.4,305.1c0,2.4-1.9,4.3-4.1,4.3h-37.6c-2.2,0-4.1-1.9-4.1-4.3v-3.7h45.8v3.7Z"/>
  <g class="cls-11">
    <text class="cls-9" transform="translate(408.1 297.7)"><tspan x="0" y="0">OBJ</tspan></text>
  </g>
  <path class="cls-4" d="M413.5,253.4v-2.8c-.4,0-.9.1-1.3.2v2.1l-10.9,10.9h-2.1c0,.4-.2.9-.2,1.3h2.8l11.7-11.7Z"/>
  <path class="cls-4" d="M409.7,277.8l-1.6,4.2c.4.2.8.4,1.2.5l1.3-3.6,13.2-2.7,3.6,2.7c0,0,.7-1.2.7-1.2l-4.2-2.9-14.2,2.9Z"/>
  <path class="cls-4" d="M426.8,262.1l3.6-2.4c-.2-.4-.4-.7-.6-1.1h0c0,0-4.2,2.8-4.2,2.8l-1.4,12,4.9,3.5c.3-.4.5-.7.7-1.1l-4.2-3,1.2-10.6Z"/>
  <path class="cls-4" d="M429.1,257.7l-.3-.6c-.1-.2-.3-.4-.4-.5l-3.5,1.8-9.3-5.6v-2.3c-.4,0-.9,0-1.3,0v3l10.6,6.4,4.3-2.2Z"/>
  <path class="cls-4" d="M411.5,262.4c-2.6,0-4.7,2.1-4.7,4.7s2.1,4.7,4.7,4.7,4.7-2.1,4.7-4.7-2.1-4.7-4.7-4.7ZM411.5,270.4c-1.8,0-3.3-1.5-3.3-3.3s1.5-3.3,3.3-3.3,3.3,1.5,3.3,3.3-1.5,3.3-3.3,3.3Z"/>
  <path class="cls-4" d="M417.8,263.1c1.3,0,2.3-1,2.3-2.3s-1-2.3-2.3-2.3-2.3,1-2.3,2.3,1,2.3,2.3,2.3ZM417.8,259.7c.6,0,1,.4,1,1s-.4,1-1,1-1-.4-1-1,.4-1,1-1Z"/>
  <path class="cls-4" d="M421.7,268.4l-.2-.6-.2-.6c0,0-2.2.7-2.8,2.5-.4,1-.2,2,.5,3.1l1.1-.7c-.5-.8-.6-1.4-.4-2,.4-1.1,2-1.7,2-1.7Z"/>
  <path class="cls-4" d="M431.5,268.4c0,.7-.6,1.3-1.3,1.3s-1.3-.6-1.3-1.3.6-1.3,1.3-1.3,1.3.6,1.3,1.3Z"/>
  <path class="cls-4" d="M418.8,279.7c-1.8,0-3.3,1.5-3.3,3.3s0,.4,0,.7c.5,0,.9,0,1.4,0,0-.2-.1-.4-.1-.6,0-1.1.9-2,2-2s1.9.8,2,1.8c.4-.1.9-.3,1.3-.5-.3-1.5-1.7-2.6-3.3-2.6Z"/>
  <path class="cls-4" d="M400.5,273c-.2,0-.4,0-.5,0,.4,1,.9,2,1.5,2.9.4-.3.7-.8.7-1.3,0-.9-.7-1.7-1.7-1.7h0Z"/>
  <path class="cls-4" d="M405.4,254.3l.9.9-3.7,3.7-.9-.9,3.7-3.7Z"/>
  <path class="cls-4" d="M401.9,265.7h-3c0,.4,0,.9,0,1.3h2.3l6.3,10.7-1.2,3.1c.4.3.8.5,1.2.7l1.5-4-7-11.9Z"/>
  <g class="cls-11">
    <text class="cls-8" transform="translate(35.9 547.7)"><tspan x="0" y="0">SCE</tspan></text>
  </g>
  <g class="cls-11">
    <text class="cls-10" transform="translate(48 526.7)"><tspan x="0" y="0">Processed </tspan></text>
    <text class="cls-10" transform="translate(73 547.7)"><tspan x="0" y="0" xml:space="preserve"> Object 3</tspan></text>
  </g>
  <path class="cls-2" d="M117.6,469.8h-2.1v-19.8c0-.3-.1-.6-.3-.7l-15.7-15.4c-.2-.2-.5-.3-.7-.3h-27c-3.4,0-6.2,2.9-6.2,6.4v29.8h-2.1c-.6,0-1.1.4-1.1,1v17.7c0,.6.5,1,1.1,1h2.1v3.7c0,3.5,2.8,6.4,6.2,6.4h37.6c3.4,0,6.2-2.9,6.2-6.4v-3.7h2.1c.6,0,1.1-.4,1.1-1v-17.7c0-.6-.5-1-1.1-1ZM99.7,437l12.2,11.9h-9.8c-.6,0-1.3-.3-1.7-.7-.5-.5-.7-1.1-.7-1.7v-9.5ZM67.6,439.9c0-2.4,1.9-4.3,4.1-4.3h25.9v10.9c0,1.2.5,2.4,1.3,3.2.8.9,2,1.3,3.2,1.4h11.3v18.7h-45.8v-29.8ZM113.4,493.1c0,2.4-1.9,4.3-4.1,4.3h-37.6c-2.2,0-4.1-1.9-4.1-4.3v-3.7h45.8v3.7Z"/>
  <g class="cls-11">
    <text class="cls-9" transform="translate(77.1 485.7)"><tspan x="0" y="0">OBJ</tspan></text>
  </g>
  <path class="cls-2" d="M82.5,441.4v-2.8c-.4,0-.9.1-1.3.2v2.1l-10.9,10.9h-2.1c0,.4-.2.9-.2,1.3h2.8l11.7-11.7Z"/>
  <path class="cls-2" d="M78.7,465.8l-1.6,4.2c.4.2.8.4,1.2.5l1.3-3.6,13.2-2.7,3.6,2.7c0,0,.7-1.2.7-1.2l-4.2-2.9-14.2,2.9Z"/>
  <path class="cls-2" d="M95.8,450.1l3.6-2.4c-.2-.4-.4-.7-.6-1.1h0c0,0-4.2,2.8-4.2,2.8l-1.4,12,4.9,3.5c.3-.4.5-.7.7-1.1l-4.2-3,1.2-10.6Z"/>
  <path class="cls-2" d="M98.1,445.7l-.3-.6c-.1-.2-.3-.4-.4-.5l-3.5,1.8-9.3-5.6v-2.3c-.4,0-.9,0-1.3,0v3l10.6,6.4,4.3-2.2Z"/>
  <path class="cls-2" d="M80.5,450.4c-2.6,0-4.7,2.1-4.7,4.7s2.1,4.7,4.7,4.7,4.7-2.1,4.7-4.7c0-2.6-2.1-4.7-4.7-4.7ZM80.5,458.4c-1.8,0-3.3-1.5-3.3-3.3s1.5-3.3,3.3-3.3,3.3,1.5,3.3,3.3-1.5,3.3-3.3,3.3Z"/>
  <path class="cls-2" d="M86.8,451.1c1.3,0,2.3-1,2.3-2.3s-1-2.3-2.3-2.3-2.3,1-2.3,2.3,1,2.3,2.3,2.3ZM86.8,447.7c.6,0,1,.4,1,1s-.4,1-1,1-1-.4-1-1,.4-1,1-1Z"/>
  <path class="cls-2" d="M90.7,456.4l-.2-.6-.2-.6c0,0-2.2.7-2.8,2.5-.4,1-.2,2,.5,3.1l1.1-.7c-.5-.8-.6-1.4-.4-2,.4-1.1,2-1.7,2-1.7Z"/>
  <path class="cls-2" d="M100.5,456.4c0,.7-.6,1.3-1.3,1.3s-1.3-.6-1.3-1.3.6-1.3,1.3-1.3,1.3.6,1.3,1.3Z"/>
  <path class="cls-2" d="M87.8,467.7c-1.8,0-3.3,1.5-3.3,3.3s0,.4,0,.7c.5,0,.9,0,1.4,0,0-.2-.1-.4-.1-.6,0-1.1.9-2,2-2s1.9.8,2,1.8c.4-.1.9-.3,1.3-.5-.3-1.5-1.7-2.6-3.3-2.6Z"/>
  <path class="cls-2" d="M69.5,461c-.2,0-.4,0-.5,0,.4,1,.9,2,1.5,2.9.4-.3.7-.8.7-1.3,0-.9-.7-1.7-1.7-1.7h0Z"/>
  <path class="cls-2" d="M74.4,442.3l.9.9-3.7,3.7-.9-.9,3.7-3.7Z"/>
  <path class="cls-2" d="M70.9,453.7h-3c0,.4,0,.9,0,1.3h2.3l6.3,10.7-1.2,3.1c.4.3.8.5,1.2.7l1.5-4-7-11.9Z"/>
  <path class="cls-2" d="M506.6,315.8h-2.1v-19.8c0-.3-.1-.6-.3-.7l-15.7-15.4c-.2-.2-.5-.3-.7-.3h-27c-3.4,0-6.2,2.9-6.2,6.4v29.8h-2.1c-.6,0-1.1.4-1.1,1v17.7c0,.6.5,1,1.1,1h2.1v3.7c0,3.5,2.8,6.4,6.2,6.4h37.6c3.4,0,6.2-2.9,6.2-6.4v-3.7h2.1c.6,0,1.1-.4,1.1-1v-17.7c0-.6-.5-1-1.1-1ZM488.7,283l12.2,11.9h-9.8c-.6,0-1.3-.3-1.7-.7-.5-.5-.7-1.1-.7-1.7v-9.5ZM456.6,285.9c0-2.4,1.9-4.3,4.1-4.3h25.9v10.9c0,1.2.5,2.4,1.3,3.2.8.9,2,1.3,3.2,1.4h11.3v18.7h-45.8v-29.8ZM502.4,339.1c0,2.4-1.9,4.3-4.1,4.3h-37.6c-2.2,0-4.1-1.9-4.1-4.3v-3.7h45.8v3.7Z"/>
  <g class="cls-11">
    <text class="cls-9" transform="translate(466.1 331.7)"><tspan x="0" y="0">OBJ</tspan></text>
  </g>
  <path class="cls-2" d="M471.5,287.4v-2.8c-.4,0-.9.1-1.3.2v2.1l-10.9,10.9h-2.1c0,.4-.2.9-.2,1.3h2.8l11.7-11.7Z"/>
  <path class="cls-2" d="M467.7,311.8l-1.6,4.2c.4.2.8.4,1.2.5l1.3-3.6,13.2-2.7,3.6,2.7c0,0,.7-1.2.7-1.2l-4.2-2.9-14.2,2.9Z"/>
  <path class="cls-2" d="M484.8,296.1l3.6-2.4c-.2-.4-.4-.7-.6-1.1h0c0,0-4.2,2.8-4.2,2.8l-1.4,12,4.9,3.5c.3-.4.5-.7.7-1.1l-4.2-3,1.2-10.6Z"/>
  <path class="cls-2" d="M487.1,291.7l-.3-.6c-.1-.2-.3-.4-.4-.5l-3.5,1.8-9.3-5.6v-2.3c-.4,0-.9,0-1.3,0v3l10.6,6.4,4.3-2.2Z"/>
  <path class="cls-2" d="M469.5,296.4c-2.6,0-4.7,2.1-4.7,4.7s2.1,4.7,4.7,4.7,4.7-2.1,4.7-4.7-2.1-4.7-4.7-4.7ZM469.5,304.4c-1.8,0-3.3-1.5-3.3-3.3s1.5-3.3,3.3-3.3,3.3,1.5,3.3,3.3-1.5,3.3-3.3,3.3Z"/>
  <path class="cls-2" d="M475.8,297.1c1.3,0,2.3-1,2.3-2.3s-1-2.3-2.3-2.3-2.3,1-2.3,2.3,1,2.3,2.3,2.3ZM475.8,293.7c.6,0,1,.4,1,1s-.4,1-1,1-1-.4-1-1,.4-1,1-1Z"/>
  <path class="cls-2" d="M479.7,302.4l-.2-.6-.2-.6c0,0-2.2.7-2.8,2.5-.4,1-.2,2,.5,3.1l1.1-.7c-.5-.8-.6-1.4-.4-2,.4-1.1,2-1.7,2-1.7Z"/>
  <path class="cls-2" d="M489.5,302.4c0,.7-.6,1.3-1.3,1.3s-1.3-.6-1.3-1.3.6-1.3,1.3-1.3,1.3.6,1.3,1.3Z"/>
  <path class="cls-2" d="M476.8,313.7c-1.8,0-3.3,1.5-3.3,3.3s0,.4,0,.7c.5,0,.9,0,1.4,0,0-.2-.1-.4-.1-.6,0-1.1.9-2,2-2s1.9.8,2,1.8c.4-.1.9-.3,1.3-.5-.3-1.5-1.7-2.6-3.3-2.6Z"/>
  <path class="cls-2" d="M458.5,307c-.2,0-.4,0-.5,0,.4,1,.9,2,1.5,2.9.4-.3.7-.8.7-1.3,0-.9-.7-1.7-1.7-1.7h0Z"/>
  <path class="cls-2" d="M463.4,288.3l.9.9-3.7,3.7-.9-.9,3.7-3.7Z"/>
  <path class="cls-2" d="M459.9,299.7h-3c0,.4,0,.9,0,1.3h2.3l6.3,10.7-1.2,3.1c.4.3.8.5,1.2.7l1.5-4-7-11.9Z"/>
  <g class="cls-11">
    <text class="cls-8" transform="translate(430 405.7)"><tspan x="0" y="0">SCE</tspan></text>
  </g>
  <g class="cls-11">
    <text class="cls-10" transform="translate(419.9 384.7)"><tspan x="0" y="0">Merging into </tspan></text>
    <text class="cls-10" transform="translate(414.9 405.7)"><tspan x="0" y="0">1 </tspan></text>
    <text class="cls-10" transform="translate(467 405.7)"><tspan x="0" y="0" xml:space="preserve"> Object</tspan></text>
  </g>
  <g class="cls-11">
    <text class="cls-8" transform="translate(754 333.7)"><tspan x="0" y="0">SCE</tspan></text>
  </g>
  <g class="cls-11">
    <text class="cls-10" transform="translate(688 333.7)"><tspan x="0" y="0">Merged </tspan></text>
    <text class="cls-10" transform="translate(791 333.7)"><tspan x="0" y="0"> </tspan></text>
    <text class="cls-10" transform="translate(713.5 354.7)"><tspan x="0" y="0">Object </tspan></text>
  </g>
  <path class="cls-3" d="M761.6,273.8h-2.1v-19.8c0-.3-.1-.6-.3-.7l-15.7-15.4c-.2-.2-.5-.3-.7-.3h-27c-3.4,0-6.2,2.9-6.2,6.4v29.8h-2.1c-.6,0-1.1.4-1.1,1v17.7c0,.6.5,1,1.1,1h2.1v3.7c0,3.5,2.8,6.4,6.2,6.4h37.6c3.4,0,6.2-2.9,6.2-6.4v-3.7h2.1c.6,0,1.1-.4,1.1-1v-17.7c0-.6-.5-1-1.1-1h0ZM743.7,241l12.2,11.9h-9.8c-.6,0-1.3-.3-1.7-.7-.5-.5-.7-1.1-.7-1.7v-9.5ZM711.6,243.9c0-2.4,1.9-4.3,4.1-4.3h25.9v10.9c0,1.2.5,2.4,1.3,3.2.8.9,2,1.3,3.2,1.4h11.3v18.7h-45.8v-29.8ZM757.4,297.1c0,2.4-1.9,4.3-4.1,4.3h-37.6c-2.2,0-4.1-1.9-4.1-4.3v-3.7h45.8v3.7ZM760.5,291.3h-52.1v-15.4h52.1v15.4Z"/>
  <g class="cls-11">
    <text class="cls-7" transform="translate(721.1 289.7)"><tspan x="0" y="0">RDS</tspan></text>
  </g>
  <path class="cls-3" d="M726.5,245.4v-2.8c-.4,0-.9.1-1.3.2v2.1l-10.9,10.9h-2.1c0,.4-.2.9-.2,1.3h2.8l11.7-11.7Z"/>
  <path class="cls-3" d="M722.7,269.8l-1.6,4.2c.4.2.8.4,1.2.5l1.3-3.6,13.2-2.7,3.6,2.7c0,0,.7-1.2.7-1.2l-4.2-2.9-14.2,2.9Z"/>
  <path class="cls-3" d="M739.8,254.1l3.6-2.4c-.2-.4-.4-.7-.6-1.1h0c0,0-4.2,2.8-4.2,2.8l-1.4,12,4.9,3.5c.3-.4.5-.7.7-1.1l-4.2-3,1.2-10.6Z"/>
  <path class="cls-3" d="M742.1,249.7l-.3-.6c-.1-.2-.3-.4-.4-.5l-3.5,1.8-9.3-5.6v-2.3c-.4,0-.9,0-1.3,0v3l10.6,6.4,4.3-2.2Z"/>
  <path class="cls-3" d="M724.5,254.4c-2.6,0-4.7,2.1-4.7,4.7s2.1,4.7,4.7,4.7,4.7-2.1,4.7-4.7-2.1-4.7-4.7-4.7ZM724.5,262.4c-1.8,0-3.3-1.5-3.3-3.3s1.5-3.3,3.3-3.3,3.3,1.5,3.3,3.3-1.5,3.3-3.3,3.3Z"/>
  <path class="cls-3" d="M730.8,255.1c1.3,0,2.3-1,2.3-2.3s-1-2.3-2.3-2.3-2.3,1-2.3,2.3,1,2.3,2.3,2.3ZM730.8,251.7c.6,0,1,.4,1,1s-.4,1-1,1-1-.4-1-1,.4-1,1-1Z"/>
  <path class="cls-3" d="M734.7,260.4l-.2-.6-.2-.6c0,0-2.2.7-2.8,2.5-.4,1-.2,2,.5,3.1l1.1-.7c-.5-.8-.6-1.4-.4-2,.4-1.1,2-1.7,2-1.7Z"/>
  <path class="cls-3" d="M744.5,260.4c0,.7-.6,1.3-1.3,1.3s-1.3-.6-1.3-1.3.6-1.3,1.3-1.3,1.3.6,1.3,1.3Z"/>
  <path class="cls-3" d="M731.8,271.7c-1.8,0-3.3,1.5-3.3,3.3s0,.4,0,.7c.5,0,.9,0,1.4,0,0-.2-.1-.4-.1-.6,0-1.1.9-2,2-2s1.9.8,2,1.8c.4-.1.9-.3,1.3-.5-.3-1.5-1.7-2.6-3.3-2.6Z"/>
  <path class="cls-3" d="M713.5,265c-.2,0-.4,0-.5,0,.4,1,.9,2,1.5,2.9.4-.3.7-.8.7-1.3,0-.9-.7-1.7-1.7-1.7h0Z"/>
  <path class="cls-3" d="M718.4,246.3l.9.9-3.7,3.7-.9-.9,3.7-3.7Z"/>
  <path class="cls-3" d="M714.9,257.7h-3c0,.4,0,.9,0,1.3h2.3l6.3,10.7-1.2,3.1c.4.3.8.5,1.2.7l1.5-4-7-11.9Z"/>
  <g class="cls-11">
    <text class="cls-8" transform="translate(1139.9 355.7)"><tspan x="0" y="0">AnnData</tspan></text>
  </g>
  <g class="cls-11">
    <text class="cls-10" transform="translate(1151.9 334.7)"><tspan x="0" y="0">Merged RNA </tspan></text>
    <text class="cls-10" transform="translate(1210 355.7)"><tspan x="0" y="0" xml:space="preserve"> Object </tspan></text>
  </g>
  <path class="cls-3" d="M1230.6,274.8h-2.1v-19.8c0-.3-.1-.6-.3-.7l-15.7-15.4c-.2-.2-.5-.3-.8-.3h-27c-3.4,0-6.2,2.9-6.2,6.4v29.8h-2.1c-.6,0-1.1.4-1.1,1v17.7c0,.6.5,1,1.1,1h2.1v3.7c0,3.5,2.8,6.4,6.2,6.4h37.6c3.4,0,6.2-2.9,6.2-6.4v-3.7h2.1c.6,0,1.1-.4,1.1-1v-17.7c0-.6-.5-1-1.1-1h0ZM1212.7,242l12.2,11.9h-9.8c-.6,0-1.3-.3-1.7-.7-.4-.5-.7-1.1-.7-1.7v-9.5ZM1180.6,244.9c0-2.4,1.9-4.3,4.1-4.3h25.9v10.9c0,1.2.5,2.4,1.3,3.2.8.9,2,1.3,3.2,1.4h11.3v18.7h-45.8v-29.8ZM1226.4,298.1c0,2.4-1.9,4.3-4.1,4.3h-37.6c-2.2,0-4.1-1.9-4.1-4.3v-3.7h45.8v3.7ZM1229.5,292.3h-52.1v-15.4h52.1v15.4Z"/>
  <g class="cls-11">
    <text class="cls-7" transform="translate(1184.3 290.7)"><tspan x="0" y="0">H5AD</tspan></text>
  </g>
  <path class="cls-3" d="M1195.5,246.4v-2.8c-.4,0-.9.1-1.3.2v2.1l-10.9,10.9h-2.1c0,.4-.2.9-.2,1.3h2.8l11.7-11.7Z"/>
  <path class="cls-3" d="M1191.7,270.8l-1.6,4.2c.4.2.8.4,1.2.5l1.3-3.6,13.2-2.7,3.6,2.7c0,0,.7-1.2.7-1.2l-4.2-2.9-14.2,2.9Z"/>
  <path class="cls-3" d="M1208.8,255.1l3.6-2.4c-.2-.4-.4-.7-.6-1.1h0c0,0-4.2,2.8-4.2,2.8l-1.4,12,4.8,3.5c.3-.4.5-.7.7-1.1l-4.2-3,1.2-10.6Z"/>
  <path class="cls-3" d="M1211.1,250.7l-.3-.6c-.1-.2-.3-.4-.4-.5l-3.5,1.8-9.3-5.6v-2.3c-.4,0-.9,0-1.3,0v3l10.6,6.4,4.3-2.2Z"/>
  <path class="cls-3" d="M1193.5,255.4c-2.6,0-4.7,2.1-4.7,4.7s2.1,4.7,4.7,4.7,4.7-2.1,4.7-4.7-2.1-4.7-4.7-4.7ZM1193.5,263.4c-1.8,0-3.3-1.5-3.3-3.3s1.5-3.3,3.3-3.3,3.3,1.5,3.3,3.3-1.5,3.3-3.3,3.3Z"/>
  <path class="cls-3" d="M1199.8,256.1c1.3,0,2.3-1,2.3-2.3s-1-2.3-2.3-2.3-2.3,1-2.3,2.3,1.1,2.3,2.3,2.3ZM1199.8,252.7c.6,0,1,.4,1,1s-.4,1-1,1-1-.4-1-1,.5-1,1-1Z"/>
  <path class="cls-3" d="M1203.7,261.4l-.2-.6-.2-.6c0,0-2.2.7-2.8,2.5-.4,1-.2,2,.5,3.1l1.1-.7c-.5-.8-.6-1.4-.4-2,.4-1.1,2-1.7,2-1.7Z"/>
  <path class="cls-3" d="M1213.5,261.4c0,.7-.6,1.3-1.3,1.3s-1.3-.6-1.3-1.3.6-1.3,1.3-1.3,1.3.6,1.3,1.3Z"/>
  <path class="cls-3" d="M1200.8,272.7c-1.8,0-3.3,1.5-3.3,3.3s0,.4,0,.7c.5,0,.9,0,1.4,0,0-.2-.1-.4-.1-.6,0-1.1.9-2,2-2s1.9.8,2,1.8c.4-.1.9-.3,1.3-.5-.3-1.5-1.6-2.6-3.2-2.6Z"/>
  <path class="cls-3" d="M1182.5,266c-.2,0-.3,0-.5,0,.4,1,.9,2,1.5,2.9.4-.3.7-.8.7-1.3,0-.9-.7-1.7-1.7-1.7h0Z"/>
  <path class="cls-3" d="M1187.4,247.3l.9.9-3.7,3.7-.9-.9,3.7-3.7Z"/>
  <path class="cls-3" d="M1183.9,258.7h-3c0,.4,0,.9,0,1.3h2.3l6.3,10.7-1.2,3.1c.4.3.8.5,1.2.7l1.5-4-7-11.9Z"/>
  <path class="cls-3" d="M672.5,277.5l-10-5.8v11.5l10-5.8ZM527.5,278.5h136v-2h-136v2Z"/>
  <path class="cls-3" d="M1116,291l-10-5.8v11.5l10-5.8ZM911,292h196v-2h-196v2Z"/>
  <g class="cls-11">
    <text class="cls-8" transform="translate(1022 280.7)"><tspan x="0" y="0">AnnData</tspan></text>
  </g>
  <g class="cls-11">
    <text class="cls-10" transform="translate(934.9 280.7)"><tspan x="0" y="0">Convert to </tspan></text>
  </g>
  <g class="cls-11">
    <text class="cls-10" transform="translate(712.4 404.7)"><tspan x="0" y="0">SCE Merged Output</tspan></text>
  </g>
  <g class="cls-11">
    <text class="cls-10" transform="translate(1159.4 406.7)"><tspan x="0" y="0">AnnData Merged Output</tspan></text>
  </g>
  <rect class="cls-6" x="672" y="217" width="232" height="152"/>
  <rect class="cls-6" x="1117" y="219" width="278" height="152"/>
</svg>