<?xml version="1.0" encoding="UTF-8"?>
<svg id="Layer_1" data-name="Layer 1" xmlns="http://www.w3.org/2000/svg" width="2080" height="916" version="1.1" viewBox="0 0 2080 916">
  <defs>
    <style>
      .cls-1 {
        font-family: Arial-BoldMT, Arial;
        font-size: 20px;
        font-weight: 700;
      }

      .cls-1, .cls-2, .cls-3, .cls-4, .cls-5 {
        isolation: isolate;
      }

      .cls-1, .cls-3 {
        fill: #266141;
      }

      .cls-6 {
        stroke: #266141;
      }

      .cls-6, .cls-7, .cls-8 {
        fill: none;
        stroke-width: 2px;
      }

      .cls-2 {
        font-size: 16px;
      }

      .cls-2, .cls-3, .cls-4 {
        font-family: ArialMT, Arial;
      }

      .cls-2, .cls-9, .cls-4, .cls-10 {
        fill: #000;
      }

      .cls-7 {
        stroke-linecap: round;
        stroke-linejoin: round;
      }

      .cls-7, .cls-8 {
        stroke: #000;
      }

      .cls-3, .cls-4 {
        font-size: 18px;
      }

      .cls-9, .cls-11, .cls-10 {
        stroke-width: 0px;
      }

      .cls-11 {
        fill: #fff;
      }

      .cls-10 {
        fill-rule: evenodd;
      }
    </style>
  </defs>
  <rect class="cls-11" width="2080" height="916"/>
  <g class="cls-5">
    <text class="cls-4" transform="translate(485.4 149.7)"><tspan x="0" y="0">Read into R</tspan></text>
  </g>
  <g class="cls-5">
    <text class="cls-3" transform="translate(570.4 232.7)"><tspan x="0" y="0">SingleCellExperiment(SCE)</tspan></text>
  </g>
  <g class="cls-5">
    <text class="cls-4" transform="translate(791.6 232.7)"><tspan x="0" y="0"> </tspan></text>
    <text class="cls-4" transform="translate(657 253.7)"><tspan x="0" y="0">object</tspan></text>
  </g>
  <path class="cls-9" d="M712.4,164.4h-2.4v-23.3c0-.3-.2-.7-.4-.9l-18.5-18.2c-.2-.2-.5-.4-.9-.4h-31.8c-4,0-7.3,3.4-7.3,7.6v35.2h-2.4c-.7,0-1.3.5-1.3,1.2v20.8c0,.7.6,1.2,1.3,1.2h2.4v4.3c0,4.2,3.3,7.6,7.3,7.6h44.3c4,0,7.3-3.4,7.3-7.6v-4.3h2.4c.7,0,1.3-.5,1.3-1.2v-20.8c0-.7-.6-1.2-1.3-1.2h0ZM691.3,125.8l14.4,14.1h-11.6c-.8,0-1.5-.3-2-.9-.5-.5-.8-1.3-.8-2v-11.1ZM653.5,129.2c0-2.8,2.2-5.1,4.8-5.1h30.5v12.8c0,1.4.5,2.8,1.5,3.8,1,1,2.4,1.6,3.8,1.6h13.4v22.1h-54v-35.2ZM707.5,191.8c0,2.8-2.2,5.1-4.8,5.1h-44.3c-2.6,0-4.8-2.3-4.8-5.1v-4.3h54v4.3ZM711.2,185h-61.4v-18.2h61.4v18.2Z"/>
  <g class="cls-5">
    <text class="cls-2" transform="translate(666.7 181.9)"><tspan x="0" y="0">OBJ</tspan></text>
  </g>
  <path class="cls-9" d="M671.1,130.9v-3.3c-.5,0-1.1.1-1.6.2v2.4l-12.9,12.9h-2.4c-.1.5-.2,1-.2,1.6h3.3l13.8-13.8Z"/>
  <path class="cls-9" d="M666.6,159.7l-1.8,4.9c.5.2.9.4,1.4.6l1.6-4.2,15.5-3.2,4.3,3.1c0,0,.8-1.4.8-1.4l-5-3.4-16.8,3.4Z"/>
  <path class="cls-9" d="M686.7,141.2l4.3-2.9c-.2-.4-.5-.9-.7-1.3h0c0,0-5,3.2-5,3.2l-1.7,14.2,5.7,4.1c.3-.4.6-.9.9-1.3l-4.9-3.5,1.5-12.5Z"/>
  <path class="cls-9" d="M689.5,135.9l-.4-.7c-.2-.2-.3-.4-.5-.6l-4.2,2.1-11-6.6v-2.7c-.5,0-1.1,0-1.6,0v3.5l12.5,7.5,5.1-2.5Z"/>
  <path class="cls-9" d="M668.7,141.5c-3,0-5.5,2.5-5.5,5.5s2.5,5.5,5.5,5.5,5.5-2.5,5.5-5.5-2.5-5.5-5.5-5.5ZM668.7,150.9c-2.2,0-3.9-1.8-3.9-3.9s1.8-3.9,3.9-3.9,3.9,1.8,3.9,3.9-1.8,3.9-3.9,3.9Z"/>
  <path class="cls-9" d="M676.2,142.3c1.5,0,2.7-1.2,2.7-2.7s-1.2-2.7-2.7-2.7-2.7,1.2-2.7,2.7,1.2,2.7,2.7,2.7ZM676.2,138.4c.6,0,1.2.5,1.2,1.2s-.5,1.2-1.2,1.2-1.2-.5-1.2-1.2.5-1.2,1.2-1.2Z"/>
  <path class="cls-9" d="M680.7,148.5l-.2-.7-.2-.7c-.1,0-2.6.9-3.3,2.9-.4,1.1-.2,2.4.6,3.7l1.3-.8c-.5-.9-.7-1.7-.4-2.4.5-1.3,2.3-2,2.4-2Z"/>
  <path class="cls-9" d="M692.2,148.6c0,.9-.7,1.6-1.6,1.6s-1.6-.7-1.6-1.6.7-1.6,1.6-1.6,1.6.7,1.6,1.6Z"/>
  <path class="cls-9" d="M677.3,161.9c-2.2,0-3.9,1.8-3.9,3.9s0,.5,0,.8c.5,0,1.1,0,1.6,0,0-.2-.1-.5-.1-.7,0-1.3,1.1-2.4,2.4-2.4s2.2.9,2.3,2.1c.5-.2,1-.4,1.5-.6-.4-1.8-2-3.1-3.8-3.1Z"/>
  <path class="cls-9" d="M655.8,154.1c-.2,0-.4,0-.6.1.5,1.2,1.1,2.4,1.8,3.4.5-.4.8-.9.8-1.6,0-1.1-.9-2-2-2h0Z"/>
  <path class="cls-9" d="M661.5,131.9l1.1,1.1-4.3,4.3-1.1-1.1,4.3-4.3Z"/>
  <path class="cls-9" d="M657.4,145.4h-3.5c0,.5,0,1,0,1.6h2.7l7.4,12.6-1.4,3.7c.4.3.9.6,1.4.8l1.8-4.7-8.3-14Z"/>
  <rect class="cls-6" x="912" y="351" width="454" height="165"/>
  <rect class="cls-6" x="912" y="649" width="454" height="189"/>
  <rect class="cls-6" x="1526" y="351" width="294" height="165"/>
  <g class="cls-5">
    <text class="cls-1" transform="translate(731.4 440.4)"><tspan x="0" y="0">SCE Output Data</tspan></text>
  </g>
  <g class="cls-5">
    <text class="cls-1" transform="translate(681.3 760.4)"><tspan x="0" y="0">AnnData Output Data</tspan></text>
  </g>
  <g class="cls-5">
    <text class="cls-1" transform="translate(1437.2 441.4)"><tspan x="0" y="0">Reports</tspan></text>
  </g>
  <g class="cls-5">
    <text class="cls-3" transform="translate(942.5 490.7)"><tspan x="0" y="0">SCE</tspan></text>
  </g>
  <g class="cls-5">
    <text class="cls-4" transform="translate(950.9 469.7)"><tspan x="0" y="0">Unfiltered </tspan></text>
    <text class="cls-4" transform="translate(979.5 490.7)"><tspan x="0" y="0" xml:space="preserve"> Object</tspan></text>
  </g>
  <path class="cls-9" d="M1016.5,412.8h-2v-19.8c0-.3-.1-.6-.3-.7l-15.7-15.4c-.2-.2-.5-.3-.7-.3h-27c-3.4,0-6.2,2.9-6.2,6.4v29.8h-2.1c-.6,0-1.1.4-1.1,1v17.7c0,.6.5,1,1.1,1h2.1v3.7c0,3.5,2.8,6.4,6.2,6.4h37.6c3.4,0,6.2-2.9,6.2-6.4v-3.7h2c.6,0,1.1-.4,1.1-1v-17.7c0-.6-.5-1-1.1-1h0ZM998.7,380l12.2,11.9h-9.8c-.7,0-1.3-.3-1.7-.7-.5-.5-.7-1.1-.7-1.7v-9.5ZM966.6,382.9c0-2.4,1.9-4.3,4.1-4.3h25.9v10.9c0,1.2.5,2.4,1.3,3.2.8.9,2,1.3,3.2,1.4h11.3v18.7h-45.8v-29.8ZM1012.4,436.1c0,2.4-1.9,4.3-4.1,4.3h-37.6c-2.2,0-4.1-1.9-4.1-4.3v-3.7h45.8v3.7ZM1015.5,430.3h-52.1v-15.4h52.1v15.4Z"/>
  <g class="cls-5">
    <text class="cls-2" transform="translate(975.6 428.7)"><tspan x="0" y="0">RDS</tspan></text>
  </g>
  <path class="cls-9" d="M981.5,384.4v-2.8c-.4,0-.9.1-1.3.2v2.1l-10.9,10.9h-2.1c0,.4-.2.9-.2,1.3h2.8l11.7-11.7Z"/>
  <path class="cls-9" d="M977.7,408.8l-1.6,4.2c.4.2.8.4,1.2.5l1.3-3.6,13.2-2.7,3.6,2.7c0,0,.7-1.2.7-1.2l-4.2-2.9-14.2,2.9Z"/>
  <path class="cls-9" d="M994.8,393.1l3.6-2.4c-.2-.4-.4-.7-.6-1.1h0c0,0-4.2,2.8-4.2,2.8l-1.4,12,4.9,3.5c.3-.4.5-.7.7-1.1l-4.2-3,1.2-10.6Z"/>
  <path class="cls-9" d="M997.1,388.7l-.3-.6c-.1-.2-.3-.4-.4-.5l-3.5,1.8-9.3-5.6v-2.3c-.4,0-.9,0-1.3,0v3l10.6,6.4,4.3-2.2Z"/>
  <path class="cls-9" d="M979.5,393.4c-2.6,0-4.7,2.1-4.7,4.7s2.1,4.7,4.7,4.7,4.7-2.1,4.7-4.7-2.1-4.7-4.7-4.7ZM979.5,401.4c-1.8,0-3.3-1.5-3.3-3.3s1.5-3.3,3.3-3.3,3.3,1.5,3.3,3.3-1.5,3.3-3.3,3.3Z"/>
  <path class="cls-9" d="M985.8,394.1c1.3,0,2.3-1,2.3-2.3s-1-2.3-2.3-2.3-2.3,1-2.3,2.3,1,2.3,2.3,2.3ZM985.8,390.7c.6,0,1,.4,1,1s-.4,1-1,1-1-.4-1-1,.4-1,1-1Z"/>
  <path class="cls-9" d="M989.7,399.4l-.2-.6-.2-.6c0,0-2.2.7-2.8,2.5-.4,1-.2,2,.5,3.1l1.1-.7c-.5-.8-.6-1.4-.4-2,.4-1.1,2-1.7,2-1.7Z"/>
  <path class="cls-9" d="M999.5,399.4c0,.7-.6,1.3-1.3,1.3s-1.3-.6-1.3-1.3.6-1.3,1.3-1.3,1.3.6,1.3,1.3Z"/>
  <path class="cls-9" d="M986.8,410.7c-1.8,0-3.3,1.5-3.3,3.3s0,.4,0,.7c.5,0,.9,0,1.4,0,0-.2-.1-.4-.1-.6,0-1.1.9-2,2-2s1.9.8,2,1.8c.4-.1.9-.3,1.3-.5-.3-1.5-1.7-2.6-3.3-2.6Z"/>
  <path class="cls-9" d="M968.5,404c-.2,0-.4,0-.5,0,.4,1,.9,2,1.5,2.9.4-.3.7-.8.7-1.3,0-.9-.7-1.7-1.7-1.7h0Z"/>
  <path class="cls-9" d="M973.4,385.3l.9.9-3.7,3.7-.9-.9,3.7-3.7Z"/>
  <path class="cls-9" d="M969.9,396.7h-3c0,.4,0,.9,0,1.3h2.3l6.3,10.7-1.2,3.1c.4.3.8.5,1.2.7l1.5-4-7-11.9Z"/>
  <g class="cls-5">
    <text class="cls-3" transform="translate(954.4 788.7)"><tspan x="0" y="0">AnnData</tspan></text>
  </g>
  <g class="cls-5">
    <text class="cls-4" transform="translate(950.9 767.7)"><tspan x="0" y="0">Unfiltered </tspan></text>
    <text class="cls-4" transform="translate(1024.6 788.7)"><tspan x="0" y="0"> </tspan></text>
    <text class="cls-4" transform="translate(963.5 809.7)"><tspan x="0" y="0">Object</tspan></text>
  </g>
  <path class="cls-9" d="M1016.5,710.8h-2v-19.8c0-.3-.1-.6-.3-.7l-15.7-15.4c-.2-.2-.5-.3-.7-.3h-27c-3.4,0-6.2,2.9-6.2,6.4v29.8h-2.1c-.6,0-1.1.4-1.1,1v17.7c0,.6.5,1,1.1,1h2.1v3.7c0,3.5,2.8,6.4,6.2,6.4h37.6c3.4,0,6.2-2.9,6.2-6.4v-3.7h2c.6,0,1.1-.4,1.1-1v-17.7c0-.6-.5-1-1.1-1h0ZM998.7,678l12.2,11.9h-9.8c-.7,0-1.3-.3-1.7-.7-.5-.5-.7-1.1-.7-1.7v-9.5ZM966.6,680.9c0-2.4,1.9-4.3,4.1-4.3h25.9v10.9c0,1.2.5,2.4,1.3,3.2s2,1.3,3.2,1.3h11.3v18.7h-45.8v-29.8ZM1012.4,734.1c0,2.4-1.9,4.3-4.1,4.3h-37.6c-2.2,0-4.1-1.9-4.1-4.3v-3.7h45.8v3.7ZM1015.5,728.3h-52.1v-15.4h52.1v15.4Z"/>
  <g class="cls-5">
    <text class="cls-2" transform="translate(970.3 726.7)"><tspan x="0" y="0">H5AD</tspan></text>
  </g>
  <path class="cls-9" d="M981.5,682.4v-2.8c-.4,0-.9.1-1.3.2v2.1l-10.9,10.9h-2.1c0,.4-.2.9-.2,1.3h2.8l11.7-11.7Z"/>
  <path class="cls-9" d="M977.7,706.8l-1.6,4.2c.4.2.8.4,1.2.5l1.3-3.6,13.2-2.7,3.6,2.7c0,0,.7-1.2.7-1.2l-4.2-2.9-14.2,2.9Z"/>
  <path class="cls-9" d="M994.8,691.1l3.6-2.4c-.2-.4-.4-.7-.6-1.1h0c0,0-4.2,2.8-4.2,2.8l-1.4,12,4.9,3.5c.3-.4.5-.7.7-1.1l-4.2-3,1.2-10.6Z"/>
  <path class="cls-9" d="M997.1,686.7l-.3-.6c-.1-.2-.3-.4-.4-.5l-3.5,1.8-9.3-5.6v-2.3c-.4,0-.9,0-1.3,0v3l10.6,6.4,4.3-2.2Z"/>
  <path class="cls-9" d="M979.5,691.4c-2.6,0-4.7,2.1-4.7,4.7s2.1,4.7,4.7,4.7,4.7-2.1,4.7-4.7-2.1-4.7-4.7-4.7ZM979.5,699.4c-1.8,0-3.3-1.5-3.3-3.3s1.5-3.3,3.3-3.3,3.3,1.5,3.3,3.3-1.5,3.3-3.3,3.3Z"/>
  <path class="cls-9" d="M985.8,692.1c1.3,0,2.3-1,2.3-2.3s-1-2.3-2.3-2.3-2.3,1-2.3,2.3,1,2.3,2.3,2.3ZM985.8,688.7c.6,0,1,.4,1,1s-.4,1-1,1-1-.4-1-1,.4-1,1-1Z"/>
  <path class="cls-9" d="M989.7,697.4l-.2-.6-.2-.6c0,0-2.2.7-2.8,2.5-.4,1-.2,2,.5,3.1l1.1-.7c-.5-.8-.6-1.4-.4-2,.4-1.1,2-1.7,2-1.7Z"/>
  <path class="cls-9" d="M999.5,697.4c0,.7-.6,1.3-1.3,1.3s-1.3-.6-1.3-1.3.6-1.3,1.3-1.3,1.3.6,1.3,1.3Z"/>
  <path class="cls-9" d="M986.8,708.7c-1.8,0-3.3,1.5-3.3,3.3s0,.4,0,.7c.5,0,.9,0,1.4,0,0-.2-.1-.4-.1-.6,0-1.1.9-2,2-2s1.9.8,2,1.8c.4-.1.9-.3,1.3-.5-.3-1.5-1.7-2.6-3.3-2.6Z"/>
  <path class="cls-9" d="M968.5,702c-.2,0-.4,0-.5,0,.4,1,.9,2,1.5,2.9.4-.3.7-.8.7-1.3,0-.9-.7-1.7-1.7-1.7h0Z"/>
  <path class="cls-9" d="M973.4,683.3l.9.9-3.7,3.7-.9-.9,3.7-3.7Z"/>
  <path class="cls-9" d="M969.9,694.7h-3c0,.4,0,.9,0,1.3h2.3l6.3,10.7-1.2,3.1c.4.3.8.5,1.2.7l1.5-4-7-11.9Z"/>
  <g class="cls-5">
    <text class="cls-3" transform="translate(1089.4 493.7)"><tspan x="0" y="0">SCE</tspan></text>
  </g>
  <g class="cls-5">
    <text class="cls-4" transform="translate(1106.5 472.7)"><tspan x="0" y="0">Filtered </tspan></text>
    <text class="cls-4" transform="translate(1126.5 493.7)"><tspan x="0" y="0" xml:space="preserve"> Object</tspan></text>
  </g>
  <path class="cls-9" d="M1166.6,413.8h-2.1v-19.8c0-.3-.1-.6-.3-.7l-15.7-15.4c-.2-.2-.5-.3-.8-.3h-27c-3.4,0-6.2,2.9-6.2,6.4v29.8h-2.1c-.6,0-1.1.4-1.1,1v17.7c0,.6.5,1,1.1,1h2.1v3.7c0,3.5,2.8,6.4,6.2,6.4h37.6c3.4,0,6.2-2.9,6.2-6.4v-3.7h2.1c.6,0,1.1-.4,1.1-1v-17.7c0-.6-.5-1-1.1-1h0ZM1148.7,381l12.2,11.9h-9.8c-.6,0-1.3-.3-1.7-.7-.4-.5-.7-1.1-.7-1.7v-9.5ZM1116.6,383.9c0-2.4,1.9-4.3,4.1-4.3h25.9v10.9c0,1.2.5,2.4,1.3,3.2.8.9,2,1.3,3.2,1.4h11.3v18.7h-45.8v-29.8ZM1162.4,437.1c0,2.4-1.9,4.3-4.1,4.3h-37.6c-2.2,0-4.1-1.9-4.1-4.3v-3.7h45.8v3.7ZM1165.5,431.3h-52.1v-15.4h52.1v15.4Z"/>
  <g class="cls-5">
    <text class="cls-2" transform="translate(1125.6 429.7)"><tspan x="0" y="0">RDS</tspan></text>
  </g>
  <path class="cls-9" d="M1131.5,385.4v-2.8c-.4,0-.9.1-1.3.2v2.1l-10.9,10.9h-2.1c0,.4-.2.9-.2,1.3h2.8l11.7-11.7Z"/>
  <path class="cls-9" d="M1127.7,409.8l-1.6,4.2c.4.2.8.4,1.2.5l1.3-3.6,13.2-2.7,3.6,2.7c0,0,.7-1.2.7-1.2l-4.2-2.9-14.2,2.9Z"/>
  <path class="cls-9" d="M1144.8,394.1l3.6-2.4c-.2-.4-.4-.7-.6-1.1h0c0,0-4.2,2.8-4.2,2.8l-1.4,12,4.8,3.5c.3-.4.5-.7.7-1.1l-4.2-3,1.2-10.6Z"/>
  <path class="cls-9" d="M1147.1,389.7l-.3-.6c-.1-.2-.3-.4-.4-.5l-3.5,1.8-9.3-5.6v-2.3c-.4,0-.9,0-1.3,0v3l10.6,6.4,4.3-2.2Z"/>
  <path class="cls-9" d="M1129.5,394.4c-2.6,0-4.7,2.1-4.7,4.7s2.1,4.7,4.7,4.7,4.7-2.1,4.7-4.7-2.1-4.7-4.7-4.7ZM1129.5,402.4c-1.8,0-3.3-1.5-3.3-3.3s1.5-3.3,3.3-3.3,3.3,1.5,3.3,3.3-1.5,3.3-3.3,3.3Z"/>
  <path class="cls-9" d="M1135.8,395.1c1.3,0,2.3-1,2.3-2.3s-1-2.3-2.3-2.3-2.3,1-2.3,2.3,1.1,2.3,2.3,2.3ZM1135.8,391.7c.6,0,1,.4,1,1s-.4,1-1,1-1-.4-1-1,.5-1,1-1Z"/>
  <path class="cls-9" d="M1139.7,400.4l-.2-.6-.2-.6c0,0-2.2.7-2.8,2.5-.4,1-.2,2,.5,3.1l1.1-.7c-.5-.8-.6-1.4-.4-2,.4-1.1,2-1.7,2-1.7Z"/>
  <path class="cls-9" d="M1149.5,400.4c0,.7-.6,1.3-1.3,1.3s-1.3-.6-1.3-1.3.6-1.3,1.3-1.3,1.3.6,1.3,1.3Z"/>
  <path class="cls-9" d="M1136.8,411.7c-1.8,0-3.3,1.5-3.3,3.3s0,.4,0,.7c.5,0,.9,0,1.4,0,0-.2-.1-.4-.1-.6,0-1.1.9-2,2-2s1.9.8,2,1.8c.4-.1.9-.3,1.3-.5-.3-1.5-1.6-2.6-3.2-2.6Z"/>
  <path class="cls-9" d="M1118.5,405c-.2,0-.3,0-.5,0,.4,1,.9,2,1.5,2.9.4-.3.7-.8.7-1.3,0-.9-.7-1.7-1.7-1.7h0Z"/>
  <path class="cls-9" d="M1123.4,386.3l.9.9-3.7,3.7-.9-.9,3.7-3.7Z"/>
  <path class="cls-9" d="M1119.9,397.7h-3c0,.4,0,.9,0,1.3h2.3l6.3,10.7-1.2,3.1c.4.3.8.5,1.2.7l1.5-4-7-11.9Z"/>
  <g class="cls-5">
    <text class="cls-3" transform="translate(1104.4 791.7)"><tspan x="0" y="0">AnnData</tspan></text>
  </g>
  <g class="cls-5">
    <text class="cls-4" transform="translate(1109.5 770.7)"><tspan x="0" y="0">Filtered </tspan></text>
    <text class="cls-4" transform="translate(1174.6 791.7)"><tspan x="0" y="0"> </tspan></text>
    <text class="cls-4" transform="translate(1113.5 812.7)"><tspan x="0" y="0">Object</tspan></text>
  </g>
  <path class="cls-9" d="M1166.6,711.8h-2.1v-19.8c0-.3-.1-.6-.3-.7l-15.7-15.4c-.2-.2-.5-.3-.8-.3h-27c-3.4,0-6.2,2.9-6.2,6.4v29.8h-2.1c-.6,0-1.1.4-1.1,1v17.7c0,.6.5,1,1.1,1h2.1v3.7c0,3.5,2.8,6.4,6.2,6.4h37.6c3.4,0,6.2-2.9,6.2-6.4v-3.7h2.1c.6,0,1.1-.4,1.1-1v-17.7c0-.6-.5-1-1.1-1h0ZM1148.7,679l12.2,11.9h-9.8c-.6,0-1.3-.3-1.7-.7-.4-.5-.7-1.1-.7-1.7v-9.5ZM1116.6,681.9c0-2.4,1.9-4.3,4.1-4.3h25.9v10.9c0,1.2.5,2.4,1.3,3.2.8.9,2,1.3,3.2,1.3h11.3v18.7h-45.8v-29.8ZM1162.4,735.1c0,2.4-1.9,4.3-4.1,4.3h-37.6c-2.2,0-4.1-1.9-4.1-4.3v-3.7h45.8v3.7ZM1165.5,729.3h-52.1v-15.4h52.1v15.4Z"/>
  <g class="cls-5">
    <text class="cls-2" transform="translate(1121.3 727.7)"><tspan x="0" y="0">H5AD</tspan></text>
  </g>
  <path class="cls-9" d="M1131.5,683.4v-2.8c-.4,0-.9.1-1.3.2v2.1l-10.9,10.9h-2.1c0,.4-.2.9-.2,1.3h2.8l11.7-11.7Z"/>
  <path class="cls-9" d="M1127.7,707.8l-1.6,4.2c.4.2.8.4,1.2.5l1.3-3.6,13.2-2.7,3.6,2.7c0,0,.7-1.2.7-1.2l-4.2-2.9-14.2,2.9Z"/>
  <path class="cls-9" d="M1144.8,692.1l3.6-2.4c-.2-.4-.4-.7-.6-1.1h0c0,0-4.2,2.8-4.2,2.8l-1.4,12,4.8,3.5c.3-.4.5-.7.7-1.1l-4.2-3,1.2-10.6Z"/>
  <path class="cls-9" d="M1147.1,687.7l-.3-.6c-.1-.2-.3-.4-.4-.5l-3.5,1.8-9.3-5.6v-2.3c-.4,0-.9,0-1.3,0v3l10.6,6.4,4.3-2.2Z"/>
  <path class="cls-9" d="M1129.5,692.4c-2.6,0-4.7,2.1-4.7,4.7s2.1,4.7,4.7,4.7,4.7-2.1,4.7-4.7-2.1-4.7-4.7-4.7ZM1129.5,700.4c-1.8,0-3.3-1.5-3.3-3.3s1.5-3.3,3.3-3.3,3.3,1.5,3.3,3.3-1.5,3.3-3.3,3.3Z"/>
  <path class="cls-9" d="M1135.8,693.1c1.3,0,2.3-1,2.3-2.3s-1-2.3-2.3-2.3-2.3,1-2.3,2.3,1.1,2.3,2.3,2.3ZM1135.8,689.7c.6,0,1,.4,1,1s-.4,1-1,1-1-.4-1-1,.5-1,1-1Z"/>
  <path class="cls-9" d="M1139.7,698.4l-.2-.6-.2-.6c0,0-2.2.7-2.8,2.5-.4,1-.2,2,.5,3.1l1.1-.7c-.5-.8-.6-1.4-.4-2,.4-1.1,2-1.7,2-1.7Z"/>
  <path class="cls-9" d="M1149.5,698.4c0,.7-.6,1.3-1.3,1.3s-1.3-.6-1.3-1.3.6-1.3,1.3-1.3,1.3.6,1.3,1.3Z"/>
  <path class="cls-9" d="M1136.8,709.7c-1.8,0-3.3,1.5-3.3,3.3s0,.4,0,.7c.5,0,.9,0,1.4,0,0-.2-.1-.4-.1-.6,0-1.1.9-2,2-2s1.9.8,2,1.8c.4-.1.9-.3,1.3-.5-.3-1.5-1.6-2.6-3.2-2.6Z"/>
  <path class="cls-9" d="M1118.5,703c-.2,0-.3,0-.5,0,.4,1,.9,2,1.5,2.9.4-.3.7-.8.7-1.3,0-.9-.7-1.7-1.7-1.7h0Z"/>
  <path class="cls-9" d="M1123.4,684.3l.9.9-3.7,3.7-.9-.9,3.7-3.7Z"/>
  <path class="cls-9" d="M1119.9,695.7h-3c0,.4,0,.9,0,1.3h2.3l6.3,10.7-1.2,3.1c.4.3.8.5,1.2.7l1.5-4-7-11.9Z"/>
  <g class="cls-5">
    <text class="cls-3" transform="translate(1243.9 490.7)"><tspan x="0" y="0">SCE</tspan></text>
  </g>
  <g class="cls-5">
    <text class="cls-4" transform="translate(1248.5 469.7)"><tspan x="0" y="0">Processed </tspan></text>
    <text class="cls-4" transform="translate(1281 490.7)"><tspan x="0" y="0" xml:space="preserve"> Object</tspan></text>
  </g>
  <path class="cls-9" d="M1320.6,412.8h-2.1v-19.8c0-.3-.1-.6-.3-.7l-15.7-15.4c-.2-.2-.5-.3-.8-.3h-27c-3.4,0-6.2,2.9-6.2,6.4v29.8h-2.1c-.6,0-1.1.4-1.1,1v17.7c0,.6.5,1,1.1,1h2.1v3.7c0,3.5,2.8,6.4,6.2,6.4h37.6c3.4,0,6.2-2.9,6.2-6.4v-3.7h2.1c.6,0,1.1-.4,1.1-1v-17.7c0-.6-.5-1-1.1-1h0ZM1302.7,380l12.2,11.9h-9.8c-.6,0-1.3-.3-1.7-.7-.4-.5-.7-1.1-.7-1.7v-9.5ZM1270.6,382.9c0-2.4,1.9-4.3,4.1-4.3h25.9v10.9c0,1.2.5,2.4,1.3,3.2.8.9,2,1.3,3.2,1.4h11.3v18.7h-45.8v-29.8ZM1316.4,436.1c0,2.4-1.9,4.3-4.1,4.3h-37.6c-2.2,0-4.1-1.9-4.1-4.3v-3.7h45.8v3.7ZM1319.5,430.3h-52.1v-15.4h52.1v15.4Z"/>
  <g class="cls-5">
    <text class="cls-2" transform="translate(1280.1 428.7)"><tspan x="0" y="0">RDS</tspan></text>
  </g>
  <path class="cls-9" d="M1285.5,384.4v-2.8c-.4,0-.9.1-1.3.2v2.1l-10.9,10.9h-2.1c0,.4-.2.9-.2,1.3h2.8l11.7-11.7Z"/>
  <path class="cls-9" d="M1281.7,408.8l-1.6,4.2c.4.2.8.4,1.2.5l1.3-3.6,13.2-2.7,3.6,2.7c0,0,.7-1.2.7-1.2l-4.2-2.9-14.2,2.9Z"/>
  <path class="cls-9" d="M1298.8,393.1l3.6-2.4c-.2-.4-.4-.7-.6-1.1h0c0,0-4.2,2.8-4.2,2.8l-1.4,12,4.8,3.5c.3-.4.5-.7.7-1.1l-4.2-3,1.2-10.6Z"/>
  <path class="cls-9" d="M1301.1,388.7l-.3-.6c-.1-.2-.3-.4-.4-.5l-3.5,1.8-9.3-5.6v-2.3c-.4,0-.9,0-1.3,0v3l10.6,6.4,4.3-2.2Z"/>
  <path class="cls-9" d="M1283.5,393.4c-2.6,0-4.7,2.1-4.7,4.7s2.1,4.7,4.7,4.7,4.7-2.1,4.7-4.7-2.1-4.7-4.7-4.7ZM1283.5,401.4c-1.8,0-3.3-1.5-3.3-3.3s1.5-3.3,3.3-3.3,3.3,1.5,3.3,3.3-1.5,3.3-3.3,3.3Z"/>
  <path class="cls-9" d="M1289.8,394.1c1.3,0,2.3-1,2.3-2.3s-1-2.3-2.3-2.3-2.3,1-2.3,2.3,1.1,2.3,2.3,2.3ZM1289.8,390.7c.6,0,1,.4,1,1s-.4,1-1,1-1-.4-1-1,.5-1,1-1Z"/>
  <path class="cls-9" d="M1293.7,399.4l-.2-.6-.2-.6c0,0-2.2.7-2.8,2.5-.4,1-.2,2,.5,3.1l1.1-.7c-.5-.8-.6-1.4-.4-2,.4-1.1,2-1.7,2-1.7Z"/>
  <path class="cls-9" d="M1303.5,399.4c0,.7-.6,1.3-1.3,1.3s-1.3-.6-1.3-1.3.6-1.3,1.3-1.3,1.3.6,1.3,1.3Z"/>
  <path class="cls-9" d="M1290.8,410.7c-1.8,0-3.3,1.5-3.3,3.3s0,.4,0,.7c.5,0,.9,0,1.4,0,0-.2-.1-.4-.1-.6,0-1.1.9-2,2-2s1.9.8,2,1.8c.4-.1.9-.3,1.3-.5-.3-1.5-1.6-2.6-3.2-2.6Z"/>
  <path class="cls-9" d="M1272.5,404c-.2,0-.3,0-.5,0,.4,1,.9,2,1.5,2.9.4-.3.7-.8.7-1.3,0-.9-.7-1.7-1.7-1.7h0Z"/>
  <path class="cls-9" d="M1277.4,385.3l.9.9-3.7,3.7-.9-.9,3.7-3.7Z"/>
  <path class="cls-9" d="M1273.9,396.7h-3c0,.4,0,.9,0,1.3h2.3l6.3,10.7-1.2,3.1c.4.3.8.5,1.2.7l1.5-4-7-11.9Z"/>
  <g class="cls-5">
    <text class="cls-3" transform="translate(1255.9 788.7)"><tspan x="0" y="0">AnnData</tspan></text>
  </g>
  <g class="cls-5">
    <text class="cls-4" transform="translate(1248.5 767.7)"><tspan x="0" y="0">Processed </tspan></text>
    <text class="cls-4" transform="translate(1326.1 788.7)"><tspan x="0" y="0"> </tspan></text>
    <text class="cls-4" transform="translate(1265 809.7)"><tspan x="0" y="0">Object</tspan></text>
  </g>
  <path class="cls-9" d="M1320.6,710.8h-2.1v-19.8c0-.3-.1-.6-.3-.7l-15.7-15.4c-.2-.2-.5-.3-.8-.3h-27c-3.4,0-6.2,2.9-6.2,6.4v29.8h-2.1c-.6,0-1.1.4-1.1,1v17.7c0,.6.5,1,1.1,1h2.1v3.7c0,3.5,2.8,6.4,6.2,6.4h37.6c3.4,0,6.2-2.9,6.2-6.4v-3.7h2.1c.6,0,1.1-.4,1.1-1v-17.7c0-.6-.5-1-1.1-1h0ZM1302.7,678l12.2,11.9h-9.8c-.6,0-1.3-.3-1.7-.7-.4-.5-.7-1.1-.7-1.7v-9.5ZM1270.6,680.9c0-2.4,1.9-4.3,4.1-4.3h25.9v10.9c0,1.2.5,2.4,1.3,3.2.8.9,2,1.3,3.2,1.3h11.3v18.7h-45.8v-29.8ZM1316.4,734.1c0,2.4-1.9,4.3-4.1,4.3h-37.6c-2.2,0-4.1-1.9-4.1-4.3v-3.7h45.8v3.7ZM1319.5,728.3h-52.1v-15.4h52.1v15.4Z"/>
  <g class="cls-5">
    <text class="cls-2" transform="translate(1275.3 726.7)"><tspan x="0" y="0">H5AD</tspan></text>
  </g>
  <path class="cls-9" d="M1285.5,682.4v-2.8c-.4,0-.9.1-1.3.2v2.1l-10.9,10.9h-2.1c0,.4-.2.9-.2,1.3h2.8l11.7-11.7Z"/>
  <path class="cls-9" d="M1281.7,706.8l-1.6,4.2c.4.2.8.4,1.2.5l1.3-3.6,13.2-2.7,3.6,2.7c0,0,.7-1.2.7-1.2l-4.2-2.9-14.2,2.9Z"/>
  <path class="cls-9" d="M1298.8,691.1l3.6-2.4c-.2-.4-.4-.7-.6-1.1h0c0,0-4.2,2.8-4.2,2.8l-1.4,12,4.8,3.5c.3-.4.5-.7.7-1.1l-4.2-3,1.2-10.6Z"/>
  <path class="cls-9" d="M1301.1,686.7l-.3-.6c-.1-.2-.3-.4-.4-.5l-3.5,1.8-9.3-5.6v-2.3c-.4,0-.9,0-1.3,0v3l10.6,6.4,4.3-2.2Z"/>
  <path class="cls-9" d="M1283.5,691.4c-2.6,0-4.7,2.1-4.7,4.7s2.1,4.7,4.7,4.7,4.7-2.1,4.7-4.7-2.1-4.7-4.7-4.7ZM1283.5,699.4c-1.8,0-3.3-1.5-3.3-3.3s1.5-3.3,3.3-3.3,3.3,1.5,3.3,3.3-1.5,3.3-3.3,3.3Z"/>
  <path class="cls-9" d="M1289.8,692.1c1.3,0,2.3-1,2.3-2.3s-1-2.3-2.3-2.3-2.3,1-2.3,2.3,1.1,2.3,2.3,2.3ZM1289.8,688.7c.6,0,1,.4,1,1s-.4,1-1,1-1-.4-1-1,.5-1,1-1Z"/>
  <path class="cls-9" d="M1293.7,697.4l-.2-.6-.2-.6c0,0-2.2.7-2.8,2.5-.4,1-.2,2,.5,3.1l1.1-.7c-.5-.8-.6-1.4-.4-2,.4-1.1,2-1.7,2-1.7Z"/>
  <path class="cls-9" d="M1303.5,697.4c0,.7-.6,1.3-1.3,1.3s-1.3-.6-1.3-1.3.6-1.3,1.3-1.3,1.3.6,1.3,1.3Z"/>
  <path class="cls-9" d="M1290.8,708.7c-1.8,0-3.3,1.5-3.3,3.3s0,.4,0,.7c.5,0,.9,0,1.4,0,0-.2-.1-.4-.1-.6,0-1.1.9-2,2-2s1.9.8,2,1.8c.4-.1.9-.3,1.3-.5-.3-1.5-1.6-2.6-3.2-2.6Z"/>
  <path class="cls-9" d="M1272.5,702c-.2,0-.3,0-.5,0,.4,1,.9,2,1.5,2.9.4-.3.7-.8.7-1.3,0-.9-.7-1.7-1.7-1.7h0Z"/>
  <path class="cls-9" d="M1277.4,683.3l.9.9-3.7,3.7-.9-.9,3.7-3.7Z"/>
  <path class="cls-9" d="M1273.9,694.7h-3c0,.4,0,.9,0,1.3h2.3l6.3,10.7-1.2,3.1c.4.3.8.5,1.2.7l1.5-4-7-11.9Z"/>
  <g class="cls-5">
    <text class="cls-4" transform="translate(1560 469.7)"><tspan x="0" y="0">Summary </tspan></text>
    <text class="cls-4" transform="translate(1555.4 490.7)"><tspan x="0" y="0">QC Report</tspan></text>
  </g>
  <path class="cls-9" d="M1623.6,412.8h-2.1v-19.8c0-.3-.1-.6-.3-.7l-15.7-15.4c-.2-.2-.5-.3-.8-.3h-27c-3.4,0-6.2,2.9-6.2,6.4v29.8h-2.1c-.6,0-1.1.4-1.1,1v17.7c0,.6.5,1,1.1,1h2.1v3.7c0,3.5,2.8,6.4,6.2,6.4h37.6c3.4,0,6.2-2.9,6.2-6.4v-3.7h2.1c.6,0,1.1-.4,1.1-1v-17.7c0-.6-.5-1-1.1-1h0ZM1605.7,380l12.2,11.9h-9.8c-.6,0-1.3-.3-1.7-.7-.4-.5-.7-1.1-.7-1.7v-9.5ZM1573.6,382.9c0-2.4,1.9-4.3,4.1-4.3h25.9v10.9c0,1.2.5,2.4,1.3,3.2.8.9,2,1.3,3.2,1.4h11.3v18.7h-45.8v-29.8ZM1619.4,436.1c0,2.4-1.9,4.3-4.1,4.3h-37.6c-2.2,0-4.1-1.9-4.1-4.3v-3.7h45.8v3.7ZM1622.5,430.3h-52.1v-15.4h52.1v15.4Z"/>
  <g class="cls-5">
    <text class="cls-2" transform="translate(1578.8 428.7)"><tspan x="0" y="0">HTML</tspan></text>
  </g>
  <path class="cls-9" d="M1581.3,406v7.2c0,.6-.6,1.2-1.2,1.2h-4c-.7,0-1.2-.5-1.2-1.2v-7.2c0-.6.6-1.2,1.2-1.2h4c.7,0,1.2.5,1.2,1.2Z"/>
  <path class="cls-9" d="M1576,400.6c0-.8.7-1.5,1.6-1.5s.5,0,.8.2l5.6-5.8c-.2-.2-.3-.5-.3-.8,0-.8.7-1.5,1.6-1.5s1.6.7,1.6,1.5,0,.3,0,.4l5.3,2.6c.3-.3.7-.5,1.2-.5s.6,0,.8.2l6.2-6c-.2-.2-.2-.5-.2-.8,0-.8.7-1.5,1.6-1.5s1.6.7,1.6,1.5-.7,1.5-1.6,1.5-.6,0-.8-.2l-6.2,6c.2.2.2.5.2.8,0,.8-.7,1.5-1.6,1.5s-1.6-.7-1.6-1.5,0-.2,0-.4l-5.3-2.6c-.3.3-.7.5-1.2.5s-.5,0-.8-.2l-5.6,5.8c.2.2.3.5.3.8,0,.8-.7,1.5-1.6,1.5s-1.6-.7-1.6-1.5Z"/>
  <path class="cls-9" d="M1589,399.3v13.4c0,.7-.5,1.3-1.2,1.3h-3.7c-.6,0-1.2-.6-1.2-1.3v-13.4c0-.7.5-1.3,1.2-1.3h3.7c.6,0,1.2.6,1.2,1.3Z"/>
  <path class="cls-9" d="M1597.2,402.8v10.4c0,.6-.5,1.2-1.2,1.2h-4c-.7,0-1.2-.5-1.2-1.2v-10.4c0-.6.6-1.2,1.2-1.2h4c.7,0,1.2.5,1.2,1.2Z"/>
  <path class="cls-9" d="M1605,398v14.9c0,.6-.5,1-1.2,1h-3.7c-.6,0-1.2-.5-1.2-1v-14.9c0-.6.5-1,1.2-1h3.7c.6,0,1.2.5,1.2,1Z"/>
  <g class="cls-5">
    <text class="cls-4" transform="translate(1717.1 464.7)"><tspan x="0" y="0">Cell Type </tspan></text>
    <text class="cls-4" transform="translate(1727.5 485.7)"><tspan x="0" y="0">Report</tspan></text>
  </g>
  <path class="cls-9" d="M1779.6,407.8h-2.1v-19.8c0-.3-.1-.6-.3-.7l-15.7-15.4c-.2-.2-.5-.3-.8-.3h-27c-3.4,0-6.2,2.9-6.2,6.4v29.8h-2.1c-.6,0-1.1.4-1.1,1v17.7c0,.6.5,1,1.1,1h2.1v3.7c0,3.5,2.8,6.4,6.2,6.4h37.6c3.4,0,6.2-2.9,6.2-6.4v-3.7h2.1c.6,0,1.1-.4,1.1-1v-17.7c0-.6-.5-1-1.1-1h0ZM1761.7,375l12.2,11.9h-9.8c-.6,0-1.3-.3-1.7-.7-.4-.5-.7-1.1-.7-1.7v-9.5ZM1729.6,377.9c0-2.4,1.9-4.3,4.1-4.3h25.9v10.9c0,1.2.5,2.4,1.3,3.2.8.9,2,1.3,3.2,1.4h11.3v18.7h-45.8v-29.8ZM1775.4,431.1c0,2.4-1.9,4.3-4.1,4.3h-37.6c-2.2,0-4.1-1.9-4.1-4.3v-3.7h45.8v3.7ZM1778.5,425.3h-52.1v-15.4h52.1v15.4Z"/>
  <g class="cls-5">
    <text class="cls-2" transform="translate(1734.8 423.7)"><tspan x="0" y="0">HTML</tspan></text>
  </g>
  <path class="cls-9" d="M1737.3,401v7.2c0,.6-.6,1.2-1.2,1.2h-4c-.7,0-1.2-.5-1.2-1.2v-7.2c0-.6.6-1.2,1.2-1.2h4c.7,0,1.2.5,1.2,1.2Z"/>
  <path class="cls-9" d="M1732,395.6c0-.8.7-1.5,1.6-1.5s.5,0,.8.2l5.6-5.8c-.2-.2-.3-.5-.3-.8,0-.8.7-1.5,1.6-1.5s1.6.7,1.6,1.5,0,.3,0,.4l5.3,2.6c.3-.3.7-.5,1.2-.5s.6,0,.8.2l6.2-6c-.2-.2-.2-.5-.2-.8,0-.8.7-1.5,1.6-1.5s1.6.7,1.6,1.5-.7,1.5-1.6,1.5-.6,0-.8-.2l-6.2,6c.2.2.2.5.2.8,0,.8-.7,1.5-1.6,1.5s-1.6-.7-1.6-1.5,0-.2,0-.4l-5.3-2.6c-.3.3-.7.5-1.2.5s-.5,0-.8-.2l-5.6,5.8c.2.2.3.5.3.8,0,.8-.7,1.5-1.6,1.5s-1.6-.7-1.6-1.5Z"/>
  <path class="cls-9" d="M1745,394.3v13.4c0,.7-.5,1.3-1.2,1.3h-3.7c-.6,0-1.2-.6-1.2-1.3v-13.4c0-.7.5-1.3,1.2-1.3h3.7c.6,0,1.2.6,1.2,1.3Z"/>
  <path class="cls-9" d="M1753.2,397.8v10.4c0,.6-.5,1.2-1.2,1.2h-4c-.7,0-1.2-.5-1.2-1.2v-10.4c0-.6.6-1.2,1.2-1.2h4c.7,0,1.2.5,1.2,1.2Z"/>
  <path class="cls-9" d="M1761,393v14.9c0,.6-.5,1-1.2,1h-3.7c-.6,0-1.2-.5-1.2-1v-14.9c0-.6.5-1,1.2-1h3.7c.6,0,1.2.5,1.2,1Z"/>
  <g class="cls-5">
    <text class="cls-4" transform="translate(305.9 236.7)"><tspan x="0" y="0">Gene by cell count </tspan></text>
    <text class="cls-4" transform="translate(356 257.7)"><tspan x="0" y="0">matrix </tspan></text>
  </g>
  <path class="cls-9" d="M412.4,166.4h-2.4v-23.3c0-.3-.1-.7-.4-.9l-18.5-18.2c-.2-.2-.5-.4-.9-.4h-31.8c-4,0-7.3,3.4-7.3,7.6v35.2h-2.4c-.7,0-1.3.5-1.3,1.2v20.8c0,.7.6,1.2,1.3,1.2h2.4v4.3c0,4.2,3.3,7.6,7.3,7.6h44.3c4,0,7.3-3.4,7.3-7.6v-4.3h2.4c.7,0,1.3-.5,1.3-1.2v-20.8c0-.7-.6-1.2-1.3-1.2h0ZM391.3,127.8l14.4,14.1h-11.6c-.8,0-1.5-.3-2-.9-.5-.5-.8-1.3-.8-2v-11.1ZM353.5,131.2c0-2.8,2.2-5.1,4.8-5.1h30.5v12.8c0,1.4.5,2.8,1.5,3.8,1,1,2.4,1.6,3.8,1.6h13.4v22.1h-54v-35.2ZM407.5,193.8c0,2.8-2.2,5.1-4.8,5.1h-44.3c-2.6,0-4.8-2.3-4.8-5.1v-4.3h54v4.3ZM411.2,187h-61.4v-18.2h61.4v18.2Z"/>
  <g class="cls-5">
    <text class="cls-2" transform="translate(364.5 184.7)"><tspan x="0" y="0">MTX</tspan></text>
  </g>
  <path class="cls-9" d="M385.2,136h-26.4c-1,0-1.7.8-1.7,1.7v28c0,1,.8,1.7,1.7,1.7h26.4c1,0,1.7-.8,1.7-1.7v-28c0-.9-.8-1.7-1.7-1.7h0ZM385.9,145.3h-6.2v-3.2h6.2v3.2ZM385.9,149.6h-6.2v-3.2h6.2v3.2ZM385.9,153.8h-6.2v-3.2h6.2v3.2ZM385.9,158h-6.2v-3.2h6.2v3.2ZM358,154.8h6.2v3.2h-6.2v-3.2ZM358,150.5h6.2v3.2h-6.2v-3.2ZM358,146.3h6.2v3.2h-6.2v-3.2ZM365.2,150.5h6.2v3.2h-6.2v-3.2ZM372.5,150.5h6.2v3.2h-6.2v-3.2ZM378.7,149.6h-6.2v-3.2h6.2v3.2ZM371.5,149.6h-6.2v-3.2h6.2v3.2ZM365.2,154.8h6.2v3.2h-6.2v-3.2ZM372.5,154.8h6.2v3.2h-6.2v-3.2ZM378.7,145.3h-6.2v-3.2h6.2v3.2ZM371.5,145.3h-6.2v-3.2h6.2v3.2ZM364.2,145.3h-6.2v-3.2h6.2v3.2ZM358,159h6.2v3.2h-6.2s0-3.2,0-3.2ZM365.2,159h6.2v3.2h-6.2s0-3.2,0-3.2ZM372.5,159h6.2v3.2h-6.2s0-3.2,0-3.2ZM379.7,159h6.2v3.2h-6.2s0-3.2,0-3.2ZM385.9,137.7v3.3h-6.2v-4.1h5.5c.4,0,.7.3.7.7h0ZM378.7,141.1h-6.2v-4.1h6.2v4.1ZM371.5,141.1h-6.2v-4.1h6.2v4.1ZM358,137.7c0-.4.3-.7.7-.7h5.5v4.1h-6.2v-3.4ZM358,165.7v-2.5h6.2v3.2h-5.5c-.4,0-.7-.3-.7-.7h0ZM365.2,163.2h6.2v3.2h-6.2v-3.2ZM372.5,163.2h6.2v3.2h-6.2v-3.2ZM385.9,165.7c0,.4-.3.7-.7.7h-5.5v-3.2h6.2v2.5Z"/>
  <path class="cls-9" d="M367.4,139.5h2c.3,0,.5-.2.5-.5s-.2-.5-.5-.5h-2c-.3,0-.5.2-.5.5s.2.5.5.5Z"/>
  <path class="cls-9" d="M374.6,139.5h2c.3,0,.5-.2.5-.5s-.2-.5-.5-.5h-2c-.3,0-.5.2-.5.5s.2.5.5.5Z"/>
  <path class="cls-9" d="M381.8,139.5h2c.3,0,.5-.2.5-.5s-.2-.5-.5-.5h-2c-.3,0-.5.2-.5.5s.2.5.5.5Z"/>
  <path class="cls-9" d="M360.2,138.6c-.1,0-.4,0-.5,0,0,0,0,0-.1.1v.2c0,.1,0,.2.1.3,0,0,0,0,.1,0,0,0,0,0,.2,0s.1,0,.2,0c0,0,0,0,.1,0,0,0,.1-.2.1-.3s0-.2-.1-.3c0,0,0,0-.2,0Z"/>
  <path class="cls-9" d="M362.4,138.6c-.2,0-.4,0-.5,0,0,0,0,0,0,.1s0,.1,0,.2c0,.1,0,.2.1.3.1,0,.2.1.3.1s.1,0,.2,0c0,0,0,0,.1,0,0,0,.1-.2.1-.3s0-.2-.1-.3c0,0,0,0-.1,0Z"/>
  <g class="cls-5">
    <text class="cls-4" transform="translate(42 235.7)"><tspan x="0" y="0">Input FASTQ</tspan></text>
  </g>
  <path class="cls-9" d="M127.4,167.4h-2.4v-23.3c0-.3-.2-.7-.4-.9l-18.5-18.2c-.2-.2-.5-.4-.9-.4h-31.8c-4,0-7.3,3.4-7.3,7.6v35.2h-2.4c-.7,0-1.3.5-1.3,1.2v20.8c0,.7.6,1.2,1.3,1.2h2.4v4.3c0,4.2,3.3,7.6,7.3,7.6h44.3c4,0,7.3-3.4,7.3-7.6v-4.3h2.4c.7,0,1.3-.5,1.3-1.2v-20.8c0-.7-.6-1.2-1.3-1.2h0ZM106.3,128.8l14.4,14.1h-11.6c-.8,0-1.5-.3-2-.9-.5-.5-.8-1.3-.8-2v-11.1ZM68.5,132.2c0-2.8,2.2-5.1,4.8-5.1h30.5v12.8c0,1.4.5,2.8,1.5,3.8,1,1,2.4,1.6,3.8,1.6h13.4v22.1h-54v-35.2ZM122.5,194.8c0,2.8-2.2,5.1-4.8,5.1h-44.3c-2.6,0-4.8-2.3-4.8-5.1v-4.3h54v4.3ZM126.2,188h-61.4v-18.2h61.4v18.2Z"/>
  <g class="cls-5">
    <text class="cls-2" transform="translate(71.5 184.7)"><tspan x="0" y="0">FASTQ</tspan></text>
  </g>
  <g class="cls-5">
    <text class="cls-4" transform="translate(900.5 233.7)"><tspan x="0" y="0">Filter empty </tspan></text>
    <text class="cls-4" transform="translate(915.5 254.7)"><tspan x="0" y="0">droplets</tspan></text>
  </g>
  <path class="cls-9" d="M972.3,153.6h-4.3v-4.3h-2.2v4.3h-36.7v-4.3h-2.2v4.3h-4.3c-.9,0-1.7.3-2.3.9-.6.6-.9,1.4-.9,2.3v2.2c0,.8.3,1.5.8,2.1.5.6,1.2,1,1.9,1.1l19.9,20.9v14.6c0,.4.2.7.5.9.3.2.7.2,1.1,0l8.6-4.3c.2,0,.3-.2.4-.4.1-.2.2-.4.2-.6v-10.3l19.9-20.9c.8-.1,1.4-.5,1.9-1.1.5-.6.8-1.3.8-2.1v-2.2c0-.9-.3-1.7-.9-2.3-.6-.6-1.4-.9-2.3-.9h0ZM973.4,159c0,.3-.1.6-.3.8-.2.2-.5.3-.8.3h-4.3v2.2h1.8l-18.8,19.7c-.2.2-.3.5-.3.7v10.1l-6.5,3.2v-13.3c0-.3-.1-.5-.3-.7l-18.8-19.7h40.6v-2.2h-43.1c-.3,0-.6-.1-.8-.3-.2-.2-.3-.5-.3-.8v-2.2c0-.3.1-.6.3-.8.2-.2.5-.3.8-.3h49.6c.3,0,.6.1.8.3.2.2.3.5.3.8v2.2Z"/>
  <path class="cls-9" d="M947.5,151.5c1.7,0,3.4-.7,4.6-1.9,1.2-1.2,1.9-2.9,1.9-4.6s-.7-3.4-1.9-4.6c-1.2-1.2-2.9-1.9-4.6-1.9s-3.4.7-4.6,1.9c-1.2,1.2-1.9,2.9-1.9,4.6,0,1.7.7,3.4,1.9,4.6,1.2,1.2,2.9,1.9,4.6,1.9ZM947.5,140.7c1.1,0,2.2.5,3,1.3.8.8,1.3,1.9,1.3,3s-.5,2.2-1.3,3c-.8.8-1.9,1.3-3,1.3s-2.2-.5-3-1.3c-.8-.8-1.3-1.9-1.3-3s.5-2.2,1.3-3c.8-.8,1.9-1.3,3-1.3Z"/>
  <path class="cls-9" d="M936.7,142.8h2.2v8.6h-2.2v-8.6Z"/>
  <path class="cls-9" d="M956.1,142.8h2.2v8.6h-2.2v-8.6Z"/>
  <path class="cls-9" d="M956.1,134.2h2.2v4.3h-2.2v-4.3Z"/>
  <path class="cls-9" d="M936.7,134.2h2.2v4.3h-2.2v-4.3Z"/>
  <path class="cls-9" d="M967,145.9c1.7,0,3.4-.7,4.6-1.9,1.2-1.2,1.9-2.9,1.9-4.6s-.7-3.4-1.9-4.6c-1.2-1.2-2.9-1.9-4.6-1.9s-3.4.7-4.6,1.9c-1.2,1.2-1.9,2.9-1.9,4.6,0,1.7.7,3.4,1.9,4.6,1.2,1.2,2.9,1.9,4.6,1.9Z"/>
  <path class="cls-9" d="M926.9,146.9c1.7,0,3.4-.7,4.6-1.9,1.2-1.2,1.9-2.9,1.9-4.6s-.7-3.4-1.9-4.6c-1.2-1.2-2.9-1.9-4.6-1.9s-3.4.7-4.6,1.9c-1.2,1.2-1.9,2.9-1.9,4.6,0,1.7.7,3.4,1.9,4.6,1.2,1.2,2.9,1.9,4.6,1.9ZM926.9,136.1c1.1,0,2.2.5,3,1.3.8.8,1.3,1.9,1.3,3s-.5,2.2-1.3,3c-.8.8-1.9,1.3-3,1.3s-2.2-.5-3-1.3c-.8-.8-1.3-1.9-1.3-3s.5-2.2,1.3-3c.8-.8,1.9-1.3,3-1.3Z"/>
  <path class="cls-9" d="M926.9,132c1.7,0,3.4-.7,4.6-1.9,1.2-1.2,1.9-2.9,1.9-4.6s-.7-3.4-1.9-4.6c-1.2-1.2-2.9-1.9-4.6-1.9s-3.4.7-4.6,1.9c-1.2,1.2-1.9,2.9-1.9,4.6,0,1.7.7,3.4,1.9,4.6,1.2,1.2,2.9,1.9,4.6,1.9Z"/>
  <path class="cls-9" d="M967,130.1c1.7,0,3.4-.7,4.6-1.9,1.2-1.2,1.9-2.9,1.9-4.6s-.7-3.4-1.9-4.6-2.9-1.9-4.6-1.9-3.4.7-4.6,1.9c-1.2,1.2-1.9,2.9-1.9,4.6,0,1.7.7,3.4,1.9,4.6,1.2,1.2,2.9,1.9,4.6,1.9ZM967,119.3c1.1,0,2.2.5,3,1.3.8.8,1.3,1.9,1.3,3s-.5,2.2-1.3,3c-.8.8-1.9,1.3-3,1.3s-2.2-.5-3-1.3c-.8-.8-1.3-1.9-1.3-3s.5-2.2,1.3-3c.8-.8,1.9-1.3,3-1.3Z"/>
  <path class="cls-9" d="M947.4,118.9c1.7,0,3.4-.7,4.6-1.9,1.2-1.2,1.9-2.9,1.9-4.6s-.7-3.4-1.9-4.6c-1.2-1.2-2.9-1.9-4.6-1.9s-3.4.7-4.6,1.9c-1.2,1.2-1.9,2.9-1.9,4.6,0,1.7.7,3.4,1.9,4.6,1.2,1.2,2.9,1.9,4.6,1.9ZM947.4,108.2c1.1,0,2.2.5,3,1.3.8.8,1.3,1.9,1.3,3s-.5,2.2-1.3,3c-.8.8-1.9,1.3-3,1.3s-2.2-.5-3-1.3c-.8-.8-1.3-1.9-1.3-3s.5-2.2,1.3-3c.8-.8,1.9-1.3,3-1.3Z"/>
  <path class="cls-9" d="M947.4,134.8c1.7,0,3.4-.7,4.6-1.9,1.2-1.2,1.9-2.9,1.9-4.6s-.7-3.4-1.9-4.6c-1.2-1.2-2.9-1.9-4.6-1.9s-3.4.7-4.6,1.9c-1.2,1.2-1.9,2.9-1.9,4.6,0,1.7.7,3.4,1.9,4.6,1.2,1.2,2.9,1.9,4.6,1.9Z"/>
  <path class="cls-9" d="M318,168l-10-5.8v11.5l10-5.8ZM147,169h162v-2h-162v2Z"/>
  <path class="cls-9" d="M619,168l-10-5.8v11.5l10-5.8ZM455,169h155v-2h-155v2Z"/>
  <path class="cls-9" d="M894,166.5l-10-5.8v11.5s10-5.7,10-5.7ZM745,167l140,.5v-2s-140-.5-140-.5v2Z"/>
  <path class="cls-9" d="M1155,167l-10-5.8v11.5l10-5.8ZM1001,168h145v-2h-145v2Z"/>
  <path class="cls-9" d="M1413,166l-10-5.8v11.5l10-5.8ZM1276,167h128v-2h-128v2Z"/>
  <path class="cls-9" d="M1769,167l-10-5.8v11.5l10-5.8ZM1632,168h128v-2h-128v2Z"/>
  <g class="cls-5">
    <text class="cls-3" transform="translate(193 149.7)"><tspan x="0" y="0">alevin-fry</tspan></text>
  </g>
  <g class="cls-5">
    <text class="cls-4" transform="translate(188 149.7)"><tspan x="0" y="0"> </tspan></text>
  </g>
  <g class="cls-5">
    <text class="cls-3" transform="translate(1222.1 255.7)"><tspan x="0" y="0">miQC</tspan></text>
  </g>
  <g class="cls-5">
    <text class="cls-4" transform="translate(1122.4 234.7)"><tspan x="0" y="0">Remove low quality </tspan></text>
    <text class="cls-4" transform="translate(1132.9 255.7)"><tspan x="0" y="0">cells using </tspan></text>
  </g>
  <path class="cls-10" d="M1188.3,136.1h-9.9c-1.2,0-2.3.5-3.1,1.3-.8.8-1.3,1.9-1.3,3.1,0,9.1,3.2,37.1,3.2,46.7s2.7,5.7,6,5.7h29.1c3.4,0,6-2.6,6-5.7,0-8.1,2.3-29.5,3-41.4l11.5,42.7c.3,1.1,1,2.1,2,2.6,1,.6,2.2.7,3.3.4h0c1.1-.3,2.1-1,2.6-2,.6-1,.7-2.2.4-3.3l-3.6-13.6c0,0,.1,0,.2,0h0c3.2-.9,5.1-4.2,4.3-7.4l-3.1-11.6c-.9-3.2-4.2-5.1-7.4-4.3h-.2c0,0-3.7-13.6-3.7-13.6-.3-1.1-1-2.1-2-2.6-1-.6-2.2-.7-3.3-.4h0c-1.1.3-2.1,1-2.6,2-.3.6-.5,1.2-.6,1.9-.6-.3-1.3-.5-2-.5h-18.2c-.5,0-.3,0-1.1,0h-8c-1.9,0-1.6,0-1.6,0ZM1219.1,140.5c0,9.1-3.2,37.1-3.2,46.7s-1.6,3.3-3.6,3.3h-29.1c-2,0-3.6-1.4-3.6-3.3,0-9.6-3.2-37.6-3.2-46.7s.2-1,.6-1.4.9-.6,1.4-.6h38.7c.5,0,1,.2,1.4.6s.6.9.6,1.4ZM1225.3,136.4l13.5,50.6c.1.5,0,1-.2,1.4-.2.4-.7.8-1.2.9h0c-.5.1-1,0-1.4-.2-.4-.3-.8-.7-.9-1.2l-13.6-50.6c-.1-.5,0-1,.2-1.4.2-.4.7-.8,1.2-.9h0c.5-.1,1,0,1.5.2.4.3.8.7.9,1.2ZM1236.9,170.3l-5-18.6c0,0,.1,0,.2,0,1.9-.5,3.9.6,4.4,2.5l3.1,11.6c.5,1.9-.6,3.9-2.5,4.4h-.2Z"/>
  <path class="cls-10" d="M1208.5,122.4c.3-.6.1-1.3-.5-1.7l-5-2.9c-.6-.3-1.3-.1-1.7.4l-2.9,5c-.3.6-.1,1.3.5,1.7l5,2.9c.6.3,1.3.1,1.7-.4l2.9-5ZM1205.8,122.2l-1.6,2.9-2.9-1.6,1.6-2.9,2.9,1.6Z"/>
  <path class="cls-10" d="M1199.4,130.3c.2-.6,0-1.2-.7-1.4l-4.8-1.7c-.6-.2-1.2,0-1.4.7l-1.7,4.8c-.2.6,0,1.2.7,1.4l4.8,1.7c.6.2,1.2-.1,1.4-.7l1.7-4.8ZM1197,130.6l-1,2.8-2.8-1,1-2.8,2.8,1Z"/>
  <path class="cls-10" d="M1200.9,113c.5-.5.5-1.3,0-1.7l-5-5c-.5-.5-1.2-.5-1.7,0l-5,5c-.5.5-.5,1.3,0,1.7l5,5c.5.5,1.3.5,1.7,0l5-5ZM1198.3,112.2l-3.2,3.2-3.2-3.2,3.2-3.2,3.2,3.2Z"/>
  <path class="cls-9" d="M1198.4,153.4c-7.2,0-13.1,5.9-13.1,13.1s5.9,13.1,13.1,13.1,13.1-5.9,13.1-13.1-5.9-13.1-13.1-13.1ZM1198.4,177c-5.8,0-10.5-4.7-10.5-10.5s4.7-10.5,10.5-10.5,10.5,4.7,10.5,10.5-4.7,10.5-10.5,10.5Z"/>
  <path class="cls-9" d="M1202,162.9c-.5-.5-1.3-.5-1.9,0l-1.7,1.7-1.7-1.7c-.5-.5-1.3-.5-1.8,0-.5.5-.5,1.3,0,1.9l1.7,1.7-1.7,1.7c-.5.5-.5,1.3,0,1.9.5.5,1.3.5,1.8,0l1.7-1.7,1.7,1.7c.5.5,1.3.5,1.9,0,.5-.5.5-1.3,0-1.9l-1.7-1.7,1.7-1.7c.5-.5.5-1.3,0-1.9Z"/>
  <g class="cls-5">
    <text class="cls-4" transform="translate(1375.8 239.7)"><tspan x="0" y="0">Normalization and dimensionality </tspan></text>
    <text class="cls-4" transform="translate(1385.9 260.7)"><tspan x="0" y="0">reduction with PCA and UMAP</tspan></text>
  </g>
  <path class="cls-9" d="M1590.4,192c-22.5,0-39.6-5.8-52.3-17.8-10.8-10.2-16.5-23.1-21.1-33.4-4.9-11.1-8.5-19.2-15.6-19.2s-11.5,8.6-17,19.5c-5.2,10.3-11.7,23.2-23,33.3-13.3,11.9-30.4,17.7-52.3,17.7v-2.6c47.9,0,62.4-28.6,72.9-49.5,5.9-11.7,10.6-20.9,19.5-20.9s12.9,9.2,18,20.8c9.2,21,21.9,49.6,70.9,49.6v2.6h0Z"/>
  <path class="cls-9" d="M1409,192.8h181.5v1.5h-181.5v-1.5Z"/>
  <path class="cls-9" d="M1536.4,183.2v-8.2h-6.4v-7.1h-6.4v-11.6h-6.4v-11.9h-6.4v-10.8h-6.4v-5.7h-7.9v5.7h-6.6v10.8h-6.4v12h-6.4v11.6h-6.4v7.1h-6.4v8.2h-6.4v8.7h84.6v-8.7h-6.4ZM1464.6,190.4h-4.8v-5.6h4.8v5.6ZM1466.2,190.4v-13.8h4.8v13.8h-4.8ZM1472.5,190.4v-20.9h4.8v20.9h-4.8ZM1483.7,190.4h-4.8v-32.6h4.8v32.6ZM1485.2,190.4v-44.5h4.8v44.5h-4.8ZM1496.4,190.4h-4.8v-55.3h4.8v55.3ZM1498.2,190.4v-60.9h4.8v60.9h-4.8ZM1504.6,190.4v-55.3h4.8v55.3h-4.8ZM1515.8,190.4h-4.8v-44.5h4.8v44.5ZM1517.3,190.4v-32.6h4.8v32.6h-4.8ZM1523.7,190.4v-20.9h4.8v20.9h-4.8ZM1534.8,190.4h-4.8v-13.8h4.8v13.8ZM1541.2,190.4h-4.8v-5.6h4.8v5.6Z"/>
  <path class="cls-9" d="M690,316.5h-1v1h1v-1ZM983.5,316.5h1v-1h-1v1ZM983.5,350.5l5.8-10h-11.5l5.8,10ZM689,271.5v45h2v-45h-2ZM690,317.5h293.5v-2h-293.5v2ZM982.5,316.5v25h2v-25h-2Z"/>
  <path class="cls-9" d="M954.5,298.5h-1v1h1v-1ZM1133,298.5h1v-1h-1v1ZM1133,350l5.8-10h-11.5l5.8,10ZM953.5,268v30.5h2v-30.5h-2ZM954.5,299.5h178.5v-2h-178.5v2ZM1132,298.5v42.5h2v-42.5h-2Z"/>
  <path class="cls-9" d="M1280,301.5v-1h-1v1h1ZM1280,350l5.8-10h-11.5l5.8,10ZM1592.5,301.5h1v-1h-1v1ZM1592.5,350l5.8-10h-11.5l5.8,10ZM1506.5,270v31.5h2v-31.5h-2ZM1279,301.5v39.5h2v-39.5h-2ZM1507.5,300.5h-66v2h66v-2ZM1441.5,300.5h-161.5v2h161.5v-2ZM1507.5,302.5h85v-2h-85v2ZM1591.5,301.5v39.5h2v-39.5h-2Z"/>
  <g class="cls-5">
    <text class="cls-4" transform="translate(1772.4 250.7)"><tspan x="0" y="0">Cell type annotation</tspan></text>
  </g>
  <path class="cls-9" d="M1845.4,172.9c-.3-.5-.8-.7-1.3-.7h-12.4c-2.3,0-4.4,1.2-5.5,3l-4.8,7.9c-1.1,1.9-1.1,4.2,0,6.1l4.8,7.9c1.1,1.9,3.2,3,5.5,3h12.4c.6,0,1.1-.3,1.3-.7l7.8-12.4c.3-.5.3-1.1,0-1.5l-7.8-12.4ZM1843.1,197h-11.5c-1.2,0-2.2-.6-2.8-1.5l-4.8-7.9c-.6-.9-.6-2.1,0-3.1l4.8-7.9c.6-.9,1.7-1.5,2.8-1.5h11.5l6.9,10.9-6.9,10.9Z"/>
  <path class="cls-9" d="M1892.2,163.5l-9.8-15.6,3.2-6c.4-.7,0-1.6-.7-2-.8-.4-1.7,0-2.1.6l-3.2,6-20.9,1-5.1-5.7c-.6-.6-1.6-.7-2.2-.2-.7.5-.7,1.5-.2,2.1l4.9,5.5-8.6,15.3c-.3.6-.5,1.2-.6,1.8-.6-.2-1.3-.3-2-.3h-18.9l-3.7-4.8c-.5-.7-1.5-.8-2.2-.3-.7.5-.8,1.4-.3,2.1l3.6,4.6-9.3,15.4c-1.1,1.9-1.1,4.2,0,6.1l9.3,15.4-3.6,4.6c-.5.7-.4,1.6.3,2.1.7.5,1.7.4,2.2-.3l3.7-4.8h20.7l2.7,4.6c.4.7,1.4,1,2.1.6.8-.4,1-1.3.6-2l-2.7-4.6,9.7-15.4c.4-.6.7-1.3.8-2,.7.2,1.4.3,2.2.3l18.8-.6,4.7,6.1c.5.7,1.5.8,2.2.3.7-.5.8-1.4.3-2.1l-4.6-5.9,8.8-15.8c1.1-1.9,1-4.2-.2-6h0ZM1856.4,187.6l-9.7,15.5h-20.7l-9.4-15.5c-.6-.9-.6-2.1,0-3.1l9.4-15.5h18.8c1.1,0,2.2.6,2.8,1.5l8.8,14c.6,1,.6,2.2,0,3.2h0ZM1889.6,168.1l-8.9,15.8-18.7.6c-1.2,0-2.3-.5-2.9-1.5h0s-8.8-14-8.8-14h0s0,0,0,0c-.6-.9-.6-2.1,0-3l8.6-15.5,20.8-.9,9.8,15.5c.6.9.6,2.1,0,3h0Z"/>
  <path class="cls-9" d="M1879.9,155.8c-1.2-1.9-3.4-3-5.8-2.9l-9.6.4c-2.2.1-4.3,1.3-5.3,3.2l-4.4,7.9c-1,1.8-1,4.1.1,5.9l5,8.2c1.2,2,3.4,3.1,5.7,3l9.3-.3c2.3,0,4.4-1.3,5.4-3.2l4.6-8.3c1-1.9.9-4.1-.2-5.9l-5-7.9ZM1882.3,168.3l-4.6,8.3c-.5,1-1.6,1.6-2.8,1.6l-9.3.3c-1.2,0-2.3-.5-2.9-1.5l-5-8.2c-.6-.9-.6-2.1,0-3l4.4-7.9c.5-1,1.6-1.6,2.7-1.6l9.6-.4c1.2,0,2.3.5,2.9,1.5l5,7.9c.6.9.6,2.1,0,3h0Z"/>
  <path class="cls-9" d="M1869.9,158.8c-3.6,0-6.4,2-6.4,4.5s2.8,4.5,6.4,4.5,6.4-2,6.4-4.5-2.8-4.5-6.4-4.5ZM1869.9,164.9c-2,0-3.2-.9-3.2-1.6s1.3-1.6,3.2-1.6,3.2.9,3.2,1.6-1.2,1.6-3.2,1.6Z"/>
  <path class="cls-9" d="M1835.9,178.8c-3.6,0-6.4,2-6.4,4.5s2.8,4.5,6.4,4.5,6.4-2,6.4-4.5-2.8-4.5-6.4-4.5ZM1835.9,184.8c-2,0-3.2-.9-3.2-1.6s1.3-1.6,3.2-1.6,3.2.9,3.2,1.6-1.2,1.6-3.2,1.6Z"/>
  <path class="cls-9" d="M1841.6,192.3c0,.8-.7,1.5-1.6,1.5s-1.6-.7-1.6-1.5.7-1.5,1.6-1.5,1.6.7,1.6,1.5Z"/>
  <path class="cls-9" d="M1874.8,173.3c0,.8-.7,1.5-1.6,1.5s-1.6-.7-1.6-1.5.7-1.5,1.6-1.5,1.6.7,1.6,1.5Z"/>
  <path class="cls-7" d="M1891,130h-18v15"/>
  <path class="cls-7" d="M1893,209h-24v-18"/>
  <path class="cls-7" d="M1850,156h-23v-18"/>
  <path class="cls-8" d="M1894,123h34v11h-34v-11Z"/>
  <path class="cls-8" d="M1895,202h32v13h-32v-13Z"/>
  <path class="cls-8" d="M1811,123h27v11h-27v-11Z"/>
  <path class="cls-8" d="M1780,196h27v10h-27v-10Z"/>
  <path class="cls-7" d="M1815,178h-22v15"/>
  <path class="cls-9" d="M1751.5,349l5.8-10h-11.5l5.8,10ZM1751.5,300.5v-1h-1v1h1ZM1864,300.5v1h1v-1h-1ZM1750.5,300.5v39.5h2v-39.5h-2ZM1863,270v30.5h2v-30.5h-2ZM1864,299.5h-112.5v2h112.5v-2Z"/>
  <path class="cls-9" d="M1141,645l5.8-10h-11.5l5.8,10ZM1140,520v116h2v-116h-2Z"/>
  <g class="cls-5">
    <text class="cls-3" transform="translate(1044.9 585.7)"><tspan x="0" y="0">AnnData</tspan></text>
  </g>
  <g class="cls-5">
    <text class="cls-4" transform="translate(1038.4 564.7)"><tspan x="0" y="0">Convert to </tspan></text>
  </g>
</svg>