<?xml version="1.0" encoding="UTF-8"?>
<svg id="Layer_1" xmlns="http://www.w3.org/2000/svg" width="870" height="872" xmlns:xlink="http://www.w3.org/1999/xlink" version="1.1" viewBox="0 0 870 872">
  <!-- Generator: Adobe Illustrator 29.2.1, SVG Export Plug-In . SVG Version: 2.1.0 Build 116)  -->
  <defs>
    <style>
      .st0 {
        mask: url(#mask);
      }

      .st1 {
        stroke: #ccc;
      }

      .st1, .st2, .st3 {
        fill: none;
      }

      .st4, .st5, .st6 {
        fill: #003595;
      }

      .st7, .st5, .st8, .st9, .st6, .st10, .st11 {
        isolation: isolate;
      }

      .st7, .st5, .st8, .st10, .st11 {
        font-size: 16px;
      }

      .st7, .st6 {
        font-family: SourceSansPro-Bold, 'Source Sans Pro';
        font-weight: 700;
      }

      .st12 {
        fill: #fff;
      }

      .st12, .st13, .st14, .st15 {
        fill-rule: evenodd;
      }

      .st13, .st11 {
        fill: #145ecc;
      }

      .st5, .st8, .st10, .st11 {
        font-family: SourceSansPro-Regular, 'Source Sans Pro';
      }

      .st8, .st15, .st16 {
        fill: #fdfdfd;
      }

      .st6 {
        font-size: 21px;
      }

      .st17 {
        fill: #fd0;
      }

      .st2 {
        stroke: #fdfdfd;
        stroke-linejoin: round;
      }

      .st18 {
        fill: #fff5c0;
      }

      .st3 {
        stroke: #003595;
      }
    </style>
    <mask id="mask" x="10.8" y="171.8" width="24" height="24" maskUnits="userSpaceOnUse">
      <g id="mask0_163_5128">
        <path class="st12" d="M34.8,195.8l-12-24-12,24h24ZM21.5,192.1v-2.8h2.6v2.8h-2.6ZM21.5,187.5h2.6v-5.5h-2.6v5.5Z"/>
      </g>
    </mask>
  </defs>
  <g class="st9">
    <g class="st9">
      <text class="st6" transform="translate(10.8 37.3)"><tspan x="0" y="0">Single-cell gene expression and cytosine modification </tspan></text>
      <text class="st6" transform="translate(10.8 69.3)"><tspan x="0" y="0">profiling in pediatric central nervous system tumors</tspan></text>
    </g>
  </g>
  <rect class="st4" x="600.8" y="6.8" width="167" height="40" rx="4" ry="4"/>
  <g class="st9">
    <text class="st8" transform="translate(624.8 32.5)"><tspan x="0" y="0">Download Project</tspan></text>
  </g>
  <path class="st18" d="M607.8,54.8h153c6.6,0,12,5.4,12,12h0c0,6.6-5.4,12-12,12h-153c-6.6,0-12-5.4-12-12h0c0-6.6,5.4-12,12-12Z"/>
  <circle class="st4" cx="607.3" cy="66.8" r="3.5"/>
  <g class="st9">
    <text class="st10" transform="translate(614.8 72.5)"><tspan x="0" y="0">Includes Bulk RNA-seq</tspan></text>
  </g>
  <circle class="st4" cx="28.8" cy="134.8" r="12"/>
  <path class="st15" d="M35.3,129.6l-7.1,12.4c-1.1,1.9-3.3,1.9-4.8,1-1.5-.9-2.7-2.7-1.6-4.6l7.1-12.4c-.4-.3-.5-.7-.4-1,.2-.3.7-.5,1.1-.2l6.3,3.6c.4.2.6.7.4,1.1-.2.3-.7.4-1.1.2ZM23.1,138.4c-.9,1.5-.2,2.8.9,3.4,1.1.6,2.5.6,3.4-.9l6.6-11.5s.7-.2.6-.3l-5-2.9c-.1,0,0,.6,0,.6l-6.6,11.5Z"/>
  <path class="st15" d="M28.7,133.8c0,.4.3.7.6.9.4.2.8.2.9.2h0s-2.7,4.7-2.7,4.7c.1-.2,0-.5-.2-.7-.2-.1-.5,0-.7.2-.1.2,0,.5.2.7.2.1.5,0,.7-.2l-.6,1c-.9,1.5-2.1,1.5-2.9,1.1-.8-.5-1.4-1.5-.5-3.1l3.7-6.5h.3c.7.2.9.7,1.1,1.7ZM26,136.3c-.1.2,0,.5.2.7.2.1.5,0,.7-.2.1-.2,0-.5-.2-.7-.2-.1-.5,0-.7.2ZM27.7,134.4c-.2-.1-.3-.4-.2-.7.1-.2.4-.3.7-.2.2.1.3.4.2.7-.1.2-.4.3-.7.2ZM25.4,139.4c-.1.2,0,.5.2.7.2.1.5,0,.7-.2.1-.2,0-.5-.2-.7-.2-.1-.5,0-.7.2ZM27.4,136c.1-.2.4-.3.7-.2.2.1.3.4.2.7-.1.2-.4.3-.7.2-.2-.1-.3-.4-.2-.7Z"/>
  <g class="st9">
    <text class="st10" transform="translate(48.8 140.5)"><tspan x="0" y="0">38 Downloadable Samples</tspan></text>
  </g>
  <circle class="st4" cx="301.8" cy="134.8" r="12"/>
  <path class="st15" d="M304.3,131.8c-3.6,0-6.5,2.9-6.5,6.5s2.9,6.5,6.5,6.5c3.6,0,6.5-2.9,6.5-6.5,0-3.6-2.9-6.5-6.5-6.5ZM303.8,138.8c0-1.1.9-2,2-2,1.1,0,2,.9,2,2,0,1.1-.9,2-2,2s-2-.9-2-2Z"/>
  <path class="st15" d="M302.8,138.8c0,1.7,1.3,3,3,3s3-1.3,3-3-1.3-3-3-3-3,1.3-3,3ZM303.8,138.8c0-1.1.9-2,2-2s2,.9,2,2-.9,2-2,2-2-.9-2-2Z"/>
  <path class="st2" d="M298.3,132.3c1,1.3,1.9,2.1,2.9,3.5l-2.9-3.5Z"/>
  <path class="st16" d="M293.3,131.7h-.5v1.1h6v-1.1h-.5v-2.8h-.5v2.8h-1v-3.9h-.5v3.9h-1v-2.8h-.5v2.8h-1v-3.9h-.5v3.9Z"/>
  <g class="st9">
    <text class="st10" transform="translate(321.8 140.5)"><tspan x="0" y="0">Nucleus</tspan></text>
  </g>
  <circle class="st4" cx="451.8" cy="134.8" r="12"/>
  <path class="st15" d="M457.9,129.5h-1.2v-.7c0-.7-.5-1.3-1.2-1.3h-1.4c-.1-.4-.5-.7-.9-.7h-2.8c-.4,0-.8.3-.9.7h-1.4c-.7,0-1.2.6-1.2,1.3v.7h-1.2c-1,0-1.9.9-1.9,2.1v1c0,.2.1.3.3.3h.9v7.6c0,1.2.9,2.2,2.1,2.2h9.4c1.1,0,2.1-1,2.1-2.2v-7.6h.9c.2,0,.3-.2.3-.3v-1c0-1.1-.8-2.1-1.9-2.1ZM450.4,127.5h2.8c.2,0,.3.2.3.3s-.1.3-.3.3h-2.8c-.2,0-.3-.2-.3-.3s.1-.3.3-.3ZM448.2,128.2c-.3,0-.6.3-.6.6v.7h8.5v-.7c0-.3-.3-.6-.6-.6h-1.4c-.1.4-.5.7-.9.7h-2.8c-.4,0-.8-.3-.9-.7h-1.4ZM457.9,140.6c0,.9-.6,1.5-1.4,1.5h-9.4c-.8,0-1.4-.7-1.4-1.5v-7.6h.9v1c0,.2.1.3.3.3h1.3c.2,0,.3-.2.3-.3v-1h6.6v1c0,.2.1.3.3.3h1.3c.2,0,.3-.2.3-.3v-1h.9v7.6ZM447.3,133.6h.6v-1.7h-.6v1.7ZM456.4,133.6h-.6v-1.7h.6v1.7ZM457,132.2h2.2v-.7c0-.8-.6-1.4-1.3-1.4h-12.2c-.7,0-1.3.6-1.3,1.4v.7h2.2v-.7c0-.2.1-.3.3-.3h1.3c.2,0,.3.2.3.3v.7h6.6v-.7c0-.2.1-.3.3-.3h1.3c.2,0,.3.2.3.3v.7Z"/>
  <path class="st16" d="M453.8,139.1v-3.4h-.2l-.2.3v3l-.5-.6v-1.8l-.5.6v.6l-2-2.4h-2.8v.5h.3v3.4h.5v-3.4h.5v3.4h.5v-3.4h.5v3.4h.2l.2-.3v-3l.5.6v1.8l.5-.6v-.6l2,2.4h2.8v-.5h-.3v-3.4h-.5v3.4h-.5v-3.4h-.5v3.4h-.5Z"/>
  <g class="st9">
    <text class="st10" transform="translate(471.8 140.5)"><tspan x="0" y="0">10Xv3.1</tspan></text>
  </g>
  <circle class="st4" cx="599.8" cy="132.8" r="12"/>
  <path class="st15" d="M595.2,132.3h8.4c.3,0,.5-.2.5-.6v-6.4c0-.3-.2-.6-.5-.6h-8.4c-.3,0-.5.2-.5.6v6.4c0,.3.2.6.5.6ZM603.1,131.2h-7.4v-5.3h7.4v5.3Z"/>
  <rect class="st16" x="597" y="129.1" width="4.8" height="1.1"/>
  <rect class="st16" x="597" y="126.9" width="4.8" height="1.1"/>
  <path class="st15" d="M592.3,140.8h5.9c.3,0,.5-.3.5-.6v-4.5c0-.3-.2-.6-.5-.6h-5.9c-.3,0-.5.3-.5.6v4.5c0,.3.2.6.5.6ZM597.7,139.7h-4.9v-3.4h4.9v3.4Z"/>
  <rect class="st16" x="593.7" y="137.4" width="3.1" height="1.1"/>
  <path class="st15" d="M601.4,140.8h5.9c.3,0,.5-.3.5-.6v-4.5c0-.3-.2-.6-.5-.6h-5.9c-.3,0-.5.3-.5.6v4.5c0,.3.2.6.5.6ZM606.8,139.7h-4.9v-3.4h4.9v3.4Z"/>
  <rect class="st16" x="602.8" y="137.4" width="3.1" height="1.1"/>
  <rect class="st16" x="599.4" y="131.4" width=".9" height="1.9"/>
  <path class="st16" d="M605.1,136.1h-1v-1.8h-8.3v1.8h-1v-2.3c0-.3.2-.5.5-.5h9.4c.3,0,.5.2.5.5v2.3h0Z"/>
  <g class="st9">
    <text class="st10" transform="translate(619.8 138.5)"><tspan x="0" y="0">Bulk RNA-seq, Multiplexed</tspan></text>
  </g>
  <line class="st1" x1="16.8" y1="155.3" x2="803.8" y2="155.3"/>
  <path class="st14" d="M34.8,195.8l-12-24-12,24h24ZM21.5,192.1v-2.8h2.6v2.8h-2.6ZM21.5,187.5h2.6v-5.5h-2.6v5.5Z"/>
  <g class="st0">
    <rect class="st17" x="10.8" y="171.8" width="24" height="24"/>
  </g>
  <path d="M21.3,181.8h3v6h-3v-6Z"/>
  <path d="M21.3,189.3h3v3h-3v-3Z"/>
  <g class="st9">
    <text class="st10" transform="translate(42.8 189.5)"><tspan x="0" y="0">34 samples are multiplexed. </tspan></text>
  </g>
  <g class="st9">
    <text class="st5" transform="translate(232.4 189.5)"><tspan x="0" y="0">Learn more</tspan></text>
  </g>
  <line class="st1" x1="10.8" y1="211.3" x2="804.8" y2="211.3"/>
  <g class="st9">
    <text class="st7" transform="translate(8.5 245.5)"><tspan x="0" y="0">Diagnosis</tspan></text>
  </g>
  <g class="st9">
    <text class="st10" transform="translate(8.5 273.5)"><tspan x="0" y="0" xml:space="preserve">Anaplastic ependymoma (4),  Anaplastic ganglioglioma (1), Desmoplastic ganglioglioma (2), ...</tspan></text>
  </g>
  <g class="st9">
    <text class="st7" transform="translate(8.7 313.5)"><tspan x="0" y="0">Abstract</tspan></text>
  </g>
  <g class="st9">
    <text class="st10" transform="translate(8.5 341.5)"><tspan x="0" y="0">Single cell gene expression profiling of pediatric central nervous system (CNS) tumors holds great potential to further </tspan></text>
    <text class="st10" transform="translate(8.5 365.5)"><tspan x="0" y="0">our understanding of carcinogenesis, augment prognostic indicators, and identify rational therapeutic targets. Whereas </tspan></text>
    <text class="st10" transform="translate(8.5 389.5)"><tspan x="0" y="0">the genomic characteristics of these tumors are fairly well-defined in aggregate, the extent to which cellular </tspan></text>
    <text class="st10" transform="translate(8.5 413.5)"><tspan x="0" y="0">heterogeneity is associated with carcinogenesis and clinical outcomes is largely unknown ...</tspan></text>
  </g>
  <g class="st9">
    <text class="st7" transform="translate(8.5 453.5)"><tspan x="0" y="0">Publications</tspan></text>
  </g>
  <g class="st9">
    <text class="st10" transform="translate(8.5 481.5)"><tspan x="0" y="0">Lee M. K., N. Azizgolshani, J. Shapiro, L. Nguyen, F. K. IV, et al., 2024 Identifying tumor type and cell-type specific gene expression</tspan></text>
    <text class="st10" transform="translate(8.5 505.5)"><tspan x="0" y="0">alterations in pediatric central nervous system tumors. Nat Commun 15:3634.</tspan></text>
  </g>
  <g class="st9">
    <text class="st5" transform="translate(8.5 531.8)"><tspan x="0" y="0">https://doi.org/10.1038/s41467-024-47712-8</tspan></text>
  </g>
  <g class="st9">
    <text class="st7" transform="translate(8.7 661.6)"><tspan x="0" y="0">Also deposited under</tspan></text>
  </g>
  <g class="st9">
    <text class="st5" transform="translate(8.5 686)"><tspan x="0" y="0">SRP392501, GSE211362</tspan></text>
  </g>
  <g class="st9">
    <text class="st7" transform="translate(8.7 729.4)"><tspan x="0" y="0">Additional Sample Metadata Fields</tspan></text>
  </g>
  <g class="st9">
    <text class="st10" transform="translate(8.6 757.4)"><tspan x="0" y="0">Developed_recurrence, location_class, participant_id, scpca_project_id, submitter, submitter_id, WHO_grade, </tspan></text>
    <text class="st10" transform="translate(8.6 781.4)"><tspan x="0" y="0">Years_to_recurrence</tspan></text>
  </g>
  <rect class="st3" x="8.5" y="804.2" width="140" height="39" rx="3.5" ry="3.5"/>
  <g class="st9">
    <text class="st5" transform="translate(32.8 829.4)"><tspan x="0" y="0">View Samples</tspan></text>
  </g>
  <text class="st10" transform="translate(8.5 573.4)"><tspan x="0" y="0">Lee M. K., N. Azizgolshani, Z.Zhang, L.Perreard, F. K. IV, et al., 2024 Associations in cell type-specific hydroxymethylation and</tspan></text>
  <text class="st10" transform="translate(8.5 596.4)"><tspan x="0" y="0">transcriptional alterations of pediatric central nervous system tumors. Nat Commun 15:3635.</tspan></text>
  <text/>
  <g class="st9">
    <text class="st5" transform="translate(8.5 619.4)"><tspan x="0" y="0">https://doi.org/10.1038/s41467-024-47943-9</tspan></text>
  </g>
  <path class="st13" d="M186,810.7c0-.6.4-1,.9-1s.9.5.9,1v13.8l3.1-3.4c.2-.3.6-.4.9-.3.3,0,.6.4.7.7,0,.4,0,.8-.2,1l-4.7,5.2c-.2.2-.4.3-.7.3s-.5-.1-.7-.3l-4.7-5.2c-.4-.4-.4-1.1,0-1.5.4-.4,1-.4,1.3,0l3.1,3.4v-13.8ZM197,826.7c0-.6.4-1.1.9-1.1s.5.1.7.3c.2.2.3.5.3.7v5.8c0,.6-.4,1-.9,1h-22.1c-.5,0-.9-.5-.9-1v-5.8c0-.6.4-1.1.9-1.1s.9.5.9,1.1v4.8h20.2v-4.8Z"/>
  <g class="st9">
    <text class="st11" transform="translate(206.9 827.3)"><tspan x="0" y="0">Download Samples Metadata</tspan></text>
  </g>
</svg>