<svg width="870" height="872" viewBox="0 0 870 872" fill="none" xmlns="http://www.w3.org/2000/svg">
<g filter="url(#filter0_d_163_5128)">
<rect width="830" height="832" transform="translate(20 17)" fill="#FDFDFD"/>
<text fill="#003595" xml:space="preserve" style="white-space: pre" font-family="Source Sans Pro" font-size="21" font-weight="bold" letter-spacing="0px"><tspan x="36" y="86.4655"><a href="https://scpca.alexslemonade.org/projects/SCPCP000009">Single-cell gene expression and cytosine modification </a></tspan><tspan x="36" y="118.465"><a href="https://scpca.alexslemonade.org/projects/SCPCP000009">profiling in pediatric central nervous system tumors</a></tspan></text>
<rect x="626" y="56" width="167" height="40" rx="4" fill="#003595"/>
<text fill="#FDFDFD" xml:space="preserve" style="white-space: pre" font-family="Source Sans Pro" font-size="16" letter-spacing="0px"><tspan x="650" y="81.688">Download Project</tspan></text>
<rect x="621" y="104" width="177" height="24" rx="12" fill="#FFF5C0"/>
<circle cx="632.5" cy="116" r="3.5" fill="#003595"/>
<text fill="black" xml:space="preserve" style="white-space: pre" font-family="Source Sans Pro" font-size="16" letter-spacing="0px"><tspan x="640" y="121.688">Includes Bulk RNA-seq</tspan></text>
<circle cx="54" cy="184" r="12" fill="#003595"/>
<path fill-rule="evenodd" clip-rule="evenodd" d="M60.5009 178.846L53.3511 191.229C52.238 193.157 50.0841 193.085 48.554 192.201C47.0234 191.317 45.8834 189.488 46.9963 187.56L54.1461 175.177C53.7587 174.919 53.599 174.463 53.7911 174.13C53.9928 173.781 54.4722 173.679 54.9027 173.927L61.1709 177.546C61.6015 177.795 61.7873 178.281 61.5853 178.63C61.3932 178.963 60.9173 179.053 60.5009 178.846ZM48.2886 187.614C47.4192 189.12 48.1123 190.419 49.1853 191.039C50.258 191.658 51.7298 191.608 52.5991 190.103L59.2205 178.634C59.2205 178.634 59.9449 178.445 59.8077 178.366L54.8487 175.503C54.7115 175.424 54.9099 176.145 54.9099 176.145L48.2886 187.614Z" fill="#FDFDFD"/>
<path fill-rule="evenodd" clip-rule="evenodd" d="M53.8952 183.019C53.9811 183.401 54.1981 183.702 54.523 183.889C54.8917 184.102 55.3007 184.112 55.4576 184.107L55.4766 184.112L52.7862 188.772C52.9245 188.533 52.8428 188.228 52.6026 188.09C52.3636 187.952 52.0584 188.033 51.9202 188.272C51.7816 188.512 51.8636 188.818 52.1026 188.956C52.3428 189.094 52.6476 189.012 52.7862 188.772L52.2283 189.739C51.3482 191.263 50.1027 191.265 49.304 190.804C48.505 190.343 47.884 189.263 48.7642 187.739L52.4938 181.279L52.764 181.336C53.5059 181.49 53.6704 182.023 53.8952 183.019ZM51.188 185.541C51.0495 185.78 51.1321 186.086 51.3717 186.224C51.6095 186.362 51.9155 186.28 52.054 186.041C52.1923 185.801 52.1095 185.496 51.8717 185.358C51.6321 185.22 51.3263 185.301 51.188 185.541ZM52.8705 183.626C52.6315 183.488 52.5499 183.182 52.6881 182.942C52.8262 182.703 53.1315 182.622 53.3705 182.76C53.6101 182.898 53.6922 183.203 53.5542 183.442C53.4159 183.682 53.1101 183.764 52.8705 183.626ZM50.5542 188.638C50.4156 188.878 50.4981 189.184 50.7366 189.322C50.9759 189.46 51.2814 189.379 51.4202 189.138C51.5583 188.899 51.4756 188.594 51.2366 188.456C50.9981 188.318 50.6923 188.399 50.5542 188.638ZM52.554 185.175C52.6921 184.935 52.9981 184.854 53.2371 184.992C53.4756 185.13 53.5581 185.435 53.42 185.675C53.2816 185.914 52.9756 185.996 52.7371 185.858C52.4978 185.72 52.4156 185.414 52.554 185.175Z" fill="#FDFDFD"/>
<text fill="black" xml:space="preserve" style="white-space: pre" font-family="Source Sans Pro" font-size="16" letter-spacing="0px"><tspan x="74" y="189.688">38 Downloadable Samples</tspan></text>
<circle cx="327" cy="184" r="12" fill="#003595"/>
<path fill-rule="evenodd" clip-rule="evenodd" d="M329.5 181C325.91 181 323 183.91 323 187.5C323 191.09 325.91 194 329.5 194C333.088 193.996 335.996 191.088 336 187.5C336 183.91 333.09 181 329.5 181ZM329 188C329 186.895 329.895 186 331 186C332.104 186.001 332.999 186.896 333 188C333 189.105 332.105 190 331 190C329.895 190 329 189.105 329 188Z" fill="#FDFDFD"/>
<path fill-rule="evenodd" clip-rule="evenodd" d="M328 188C328 189.657 329.343 191 331 191C332.657 191 334 189.657 334 188C334 186.343 332.657 185 331 185C329.343 185 328 186.343 328 188ZM329 188C329 186.895 329.895 186 331 186C332.105 186 333 186.895 333 188C333 189.105 332.105 190 331 190C329.895 190 329 189.105 329 188Z" fill="#FDFDFD"/>
<path fill-rule="evenodd" clip-rule="evenodd" d="M323.5 181.5C324.5 182.833 325.426 183.639 326.426 184.972L323.5 181.5Z" stroke="#FDFDFD" stroke-linejoin="round"/>
<path d="M318.461 180.889H318V182H324V180.889H323.538L323.5 178.111H323V180.889H322V177H321.5V180.889H320.5V178.111H320V180.889H319V177H318.461V180.889Z" fill="#FDFDFD"/>
<text fill="black" xml:space="preserve" style="white-space: pre" font-family="Source Sans Pro" font-size="16" letter-spacing="0px"><tspan x="347" y="189.688">Nucleus</tspan></text>
<circle cx="477" cy="184" r="12" fill="#003595"/>
<path fill-rule="evenodd" clip-rule="evenodd" d="M483.107 178.723H481.863V177.997C481.863 177.271 481.319 176.681 480.65 176.681H479.299C479.169 176.285 478.821 176 478.412 176H475.588C475.179 176 474.831 176.285 474.701 176.681H473.35C472.681 176.681 472.137 177.271 472.137 177.997V178.723H470.893C469.849 178.723 469 179.645 469 180.777V181.787C469 181.975 469.14 182.128 469.314 182.128H470.255V189.77C470.255 191 471.177 192 472.31 192H481.69C482.823 192 483.745 191 483.745 189.77V182.128H484.686C484.86 182.128 485 181.975 485 181.787V180.777C485 179.645 484.151 178.723 483.107 178.723ZM475.588 176.681H478.412C478.585 176.681 478.725 176.834 478.725 177.021C478.725 177.209 478.585 177.362 478.412 177.362H475.588C475.415 177.362 475.274 177.209 475.274 177.021C475.274 176.834 475.415 176.681 475.588 176.681ZM473.35 177.362C473.027 177.362 472.765 177.647 472.765 177.997V178.723H481.235V177.997C481.235 177.647 480.973 177.362 480.65 177.362H479.299C479.169 177.758 478.821 178.043 478.412 178.043H475.588C475.179 178.043 474.83 177.758 474.701 177.362H473.35ZM483.118 189.77C483.118 190.624 482.477 191.319 481.69 191.319H472.31C471.523 191.319 470.882 190.624 470.882 189.77V182.128H471.824V183.149C471.824 183.337 471.964 183.489 472.137 183.489H473.392C473.565 183.489 473.706 183.337 473.706 183.149V182.128H480.294V183.149C480.294 183.337 480.435 183.489 480.608 183.489H481.863C482.036 183.489 482.176 183.337 482.176 183.149V182.128H483.118V189.77ZM472.451 182.809H473.078V181.106H472.451V182.809ZM481.549 182.809H480.922V181.106H481.549V182.809ZM482.176 181.447H484.373V180.777C484.373 180.02 483.805 179.404 483.107 179.404H470.893C470.195 179.404 469.627 180.02 469.627 180.777V181.447H471.824V180.766C471.824 180.578 471.964 180.426 472.137 180.426H473.392C473.565 180.426 473.706 180.578 473.706 180.766V181.447H480.294V180.766C480.294 180.578 480.435 180.426 480.608 180.426H481.863C482.036 180.426 482.176 180.578 482.176 180.766V181.447Z" fill="#FDFDFD"/>
<path d="M478.996 188.311V184.888H478.751L478.513 185.183V188.15L478.03 187.554V185.779L477.547 186.376V186.958L475.583 184.533H472.765V185.022H473.073V188.445H473.556V185.022H474.039V188.445H474.522V185.022H475.005V188.445H475.249L475.487 188.15V185.183L475.97 185.779V187.554L476.453 186.958V186.376L478.417 188.8H481.235V188.311H480.927V184.888H480.444V188.311H479.961V184.888H479.478L479.478 188.311H478.996Z" fill="#FDFDFD"/>
<text fill="black" xml:space="preserve" style="white-space: pre" font-family="Source Sans Pro" font-size="16" letter-spacing="0px"><tspan x="497" y="189.688">10Xv3.1</tspan></text>
<circle cx="625" cy="182" r="12" fill="#003595"/>
<path fill-rule="evenodd" clip-rule="evenodd" d="M620.372 181.522H628.798C629.089 181.522 629.325 181.274 629.325 180.969V174.554C629.325 174.248 629.089 174 628.798 174H620.372C620.081 174 619.845 174.248 619.845 174.554V180.969C619.845 181.274 620.081 181.522 620.372 181.522ZM628.271 180.415H620.899V175.107H628.271V180.415Z" fill="#FDFDFD"/>
<rect x="622.206" y="178.314" width="4.75911" height="1.10727" fill="#FDFDFD"/>
<rect x="622.206" y="176.101" width="4.75911" height="1.10727" fill="#FDFDFD"/>
<path fill-rule="evenodd" clip-rule="evenodd" d="M617.513 190H623.395C623.679 190 623.908 189.745 623.908 189.432V184.928C623.908 184.614 623.679 184.359 623.395 184.359H617.513C617.23 184.359 617 184.614 617 184.928V189.432C617 189.745 617.23 190 617.513 190ZM622.883 188.863H618.026V185.496H622.883V188.863Z" fill="#FDFDFD"/>
<rect x="618.88" y="186.611" width="3.14851" height="1.13699" fill="#FDFDFD"/>
<path fill-rule="evenodd" clip-rule="evenodd" d="M626.604 190H632.487C632.77 190 633 189.745 633 189.432V184.928C633 184.614 632.77 184.359 632.487 184.359H626.604C626.321 184.359 626.092 184.614 626.092 184.928V189.432C626.092 189.745 626.321 190 626.604 190ZM631.974 188.863H627.117V185.496H631.974V188.863Z" fill="#FDFDFD"/>
<rect x="627.972" y="186.611" width="3.14851" height="1.13699" fill="#FDFDFD"/>
<rect x="624.585" y="180.588" width="0.948148" height="1.88235" fill="#FDFDFD"/>
<path d="M630.274 185.294H629.224V183.472H620.894V185.294H619.844V182.971C619.844 182.695 620.08 182.471 620.369 182.471H629.749C630.039 182.471 630.274 182.695 630.274 182.971V185.294V185.294Z" fill="#FDFDFD"/>
<text fill="black" xml:space="preserve" style="white-space: pre" font-family="Source Sans Pro" font-size="16" letter-spacing="0px"><tspan x="645" y="187.688">Bulk RNA-seq, Multiplexed</tspan></text>
<line x1="41.9774" y1="204.5" x2="829.004" y2="204.5" stroke="#CCCCCC"/>
<path fill-rule="evenodd" clip-rule="evenodd" d="M60 245L48 221L36 245H60ZM46.7143 241.308V238.538H49.2857V241.308H46.7143ZM46.7143 236.692H49.2857V231.154H46.7143V236.692Z" fill="black"/>
<mask id="mask0_163_5128" style="mask-type:luminance" maskUnits="userSpaceOnUse" x="36" y="221" width="24" height="24">
<path fill-rule="evenodd" clip-rule="evenodd" d="M60 245L48 221L36 245H60ZM46.7143 241.308V238.538H49.2857V241.308H46.7143ZM46.7143 236.692H49.2857V231.154H46.7143V236.692Z" fill="white"/>
</mask>
<g mask="url(#mask0_163_5128)">
<rect x="36" y="221" width="24" height="24" fill="#FFDD00"/>
</g>
<path d="M46.5 231H49.5V237H46.5V231Z" fill="black"/>
<path d="M46.5 238.5H49.5V241.5H46.5V238.5Z" fill="black"/>
<text fill="black" xml:space="preserve" style="white-space: pre" font-family="Source Sans Pro" font-size="16" letter-spacing="0px"><tspan x="68" y="238.688">34 samples are multiplexed. </tspan></text>
<text fill="#003595" xml:space="preserve" style="white-space: pre" font-family="Source Sans Pro" font-size="16" letter-spacing="0px"><tspan x="257.578" y="238.688">Learn more</tspan></text>
<line x1="36" y1="260.5" x2="830" y2="260.5" stroke="#CCCCCC"/>
<text fill="black" xml:space="preserve" style="white-space: pre" font-family="Source Sans Pro" font-size="16" font-weight="bold" letter-spacing="0px"><tspan x="36" y="294.688">Diagnosis</tspan></text>
<text fill="black" xml:space="preserve" style="white-space: pre" font-family="Source Sans Pro" font-size="16" letter-spacing="0px"><tspan x="36" y="322.688">Anaplastic ependymoma (4),  Anaplastic ganglioglioma (1), Desmoplastic ganglioglioma (2), ...</tspan></text>
<text fill="black" xml:space="preserve" style="white-space: pre" font-family="Source Sans Pro" font-size="16" font-weight="bold" letter-spacing="0px"><tspan x="36" y="362.688">Abstract</tspan></text>
<text fill="black" xml:space="preserve" style="white-space: pre" font-family="Source Sans Pro" font-size="16" letter-spacing="0px"><tspan x="36" y="390.688">Single cell gene expression profiling of pediatric central nervous system (CNS) tumors holds great potential to further </tspan><tspan x="36" y="414.688">our understanding of carcinogenesis, augment prognostic indicators, and identify rational therapeutic targets. Whereas </tspan><tspan x="36" y="438.688">the genomic characteristics of these tumors are fairly well-defined in aggregate, the extent to which cellular </tspan><tspan x="36" y="462.688">heterogeneity is associated with carcinogenesis and clinical outcomes is largely unknown ...</tspan></text>
<text fill="black" xml:space="preserve" style="white-space: pre" font-family="Source Sans Pro" font-size="16" font-weight="bold" letter-spacing="0px"><tspan x="36" y="502.688">Publications</tspan></text>
<text fill="black" xml:space="preserve" style="white-space: pre" font-family="Source Sans Pro" font-size="16" letter-spacing="0px"><tspan x="36" y="530.688">Lee M. K., N. Azizgolshani, J. Shapiro, L. Nguyen, F. K. IV, et al., 2023 Tumor type and cell type-specific gene expression </tspan><tspan x="36" y="554.688">alterations in diverse pediatric central nervous system tumors identified using single nuclei RNA-seq. </tspan><tspan x="36" y="578.688">Res.Sq.rs.3.rs-2517703.&#10;</tspan></text>
<text fill="#003595" xml:space="preserve" style="white-space: pre" font-family="Source Sans Pro" font-size="16" letter-spacing="0px"><tspan x="36" y="602.688">https://doi.org/10.21203/rs.3.rs-2517703/v1</tspan></text>
<text fill="black" xml:space="preserve" style="white-space: pre" font-family="Source Sans Pro" font-size="16" font-weight="bold" letter-spacing="0px"><tspan x="36" y="642.688">Also deposited under</tspan></text>
<text fill="#003595" xml:space="preserve" style="white-space: pre" font-family="Source Sans Pro" font-size="16" letter-spacing="0px"><tspan x="36" y="670.688">SRP392501, GSE211362</tspan></text>
<text fill="black" xml:space="preserve" style="white-space: pre" font-family="Source Sans Pro" font-size="16" font-weight="bold" letter-spacing="0px"><tspan x="36" y="710.688">Additional Sample Metadata Fields</tspan></text>
<text fill="black" xml:space="preserve" style="white-space: pre" font-family="Source Sans Pro" font-size="16" letter-spacing="0px"><tspan x="36" y="738.688">Developed_recurrence, location_class, participant_id, scpca_project_id, submitter, submitter_id, WHO_grade, </tspan><tspan x="36" y="762.688">Years_to_recurrence</tspan></text>
<rect x="36.5" y="785.5" width="140" height="39" rx="3.5" stroke="#003595"/>
<text fill="#003595" xml:space="preserve" style="white-space: pre" font-family="Source Sans Pro" font-size="16" letter-spacing="0px"><tspan x="60" y="810.688">View Samples</tspan></text>
</g>
<defs>
<filter id="filter0_d_163_5128" x="0" y="0" width="870" height="872" filterUnits="userSpaceOnUse" color-interpolation-filters="sRGB">
<feFlood flood-opacity="0" result="BackgroundImageFix"/>
<feColorMatrix in="SourceAlpha" type="matrix" values="0 0 0 0 0 0 0 0 0 0 0 0 0 0 0 0 0 0 127 0" result="hardAlpha"/>
<feOffset dy="3"/>
<feGaussianBlur stdDeviation="10"/>
<feComposite in2="hardAlpha" operator="out"/>
<feColorMatrix type="matrix" values="0 0 0 0 0 0 0 0 0 0 0 0 0 0 0 0 0 0 0.25 0"/>
<feBlend mode="normal" in2="BackgroundImageFix" result="effect1_dropShadow_163_5128"/>
<feBlend mode="normal" in="SourceGraphic" in2="effect1_dropShadow_163_5128" result="shape"/>
</filter>
</defs>
</svg>
